M48
METRIC,TZ
T01C.2032
T02C.254
T03C.381
T04C.9144
T05C3.3
T06C.65
;LEADER: 12 
;HEADER: 
;CODE  : ASCII 
;FILE  : ASR6601CB_PA_TB_V11_240301-1-2.drl for  ... layers TOP and BOTTOM
;DESIGN: ASR6601CB_PA_TB_V11_240301.brd
;T01 Holesize 1. = 0.203200 Tolerance = +0.076200/-0.076200 PLATED MM Quantity = 17
;T02 Holesize 2. = 0.254000 Tolerance = +0.076200/-0.076200 PLATED MM Quantity = 34
;T03 Holesize 3. = 0.381000 Tolerance = +0.000000/-0.000000 PLATED MM Quantity = 4
;T04 Holesize 4. = 0.914400 Tolerance = +0.000000/-0.000000 PLATED MM Quantity = 14
;T05 Holesize 5. = 3.300000 Tolerance = +0.000000/-0.000000 PLATED MM Quantity = 4
;T06 Holesize 6. = 0.650000 Tolerance = +0.000000/-0.000000 NON_PLATED MM Quantity = 2
%
G90
T01
X4937760Y3942080
X6646380Y3537420
X6279280Y5041900
X6129820Y3525520
X6379280Y5049520
X5544320Y2350000
X5618480Y4640580
X6608840Y4343640
X7012940Y3167380
X4635500Y2359660
X4589780Y2217420
X6730840Y3807620
X6883400Y3896360
X6410960Y4168140
X6819900Y4142740
X5867700Y3950000
Y4765340
T02
X6903720Y3536380
X6646380Y3294380
X5231440Y3750000
X597180Y2876000
X691160Y2853140
X792760Y2855680
X899440Y2858220
X581940Y2622000
X686080Y2652480
X891820Y2644860
X1531900Y2850600
Y2647400
X1016280Y2858220
X1145820Y2853140
X1267740Y2855680
X1008660Y2642320
X1201700Y2637240
X1290600Y2634700
X1549980Y2947420
X1559840Y2743920
X1572260Y2552700
X4700000Y1523000
X5582920Y1750000
X1215600Y2950000
X4871720Y1412240
X5245160Y1750000
X4424680Y4907280
X4652140Y4741040
X4654680Y734060
X4447540Y594360
X7218680Y1666240
Y1551940
Y1440180
X1249520Y2550000
T03
X6608620Y3034840
X4500000Y1154040
X4300000Y1155700
X6604000Y2854960
T04
X3539220Y4780280
R02X-254000
X2775220
R02X-254000
X3539220Y711200
R02X-254000
X2775220
R02X-254000
X6868160Y2415540
X7122160
T05
X582000Y650000
X7270000
X582000Y4850000
X7270000
T06
X7478520Y1254280
Y1832280
M30
