G04 ================== begin FILE IDENTIFICATION RECORD ==================*
G04 Layout Name:  ASR6601CB_PA_TB_V11_240301.brd*
G04 Film Name:    BOTTOM*
G04 File Format:  Gerber RS274X*
G04 File Origin:  Cadence Allegro 16.6-2015-S088*
G04 Origin Date:  Tue Mar 19 16:37:48 2024*
G04 *
G04 Layer:  ETCH/BOTTOM*
G04 Layer:  PIN/BOTTOM*
G04 Layer:  VIA CLASS/BOTTOM*
G04 *
G04 Offset:    (0.0000 0.0000)*
G04 Mirror:    No*
G04 Mode:      Positive*
G04 Rotation:  0*
G04 FullContactRelief:  No*
G04 UndefLineWidth:     0.0000*
G04 ================== end FILE IDENTIFICATION RECORD ====================*
%FSLAX25Y25*MOMM*%
%IR0*IPPOS*OFA0.00000B0.00000*MIA0B0*SFA1.00000B1.00000*%
%ADD20O,2.X.9*%
%ADD19O,.8X1.3*%
%ADD17C,.65*%
%ADD12C,.508*%
%ADD16C,.4064*%
%ADD15C,.762*%
%ADD18O,2.X1.*%
%ADD10C,6.*%
%ADD11R,4.8X1.35*%
%ADD13C,1.397*%
%ADD14R,1.397X1.397*%
%ADD21C,.2*%
%ADD22C,.3*%
%ADD23C,.5*%
%ADD24C,.25*%
%ADD25C,.254*%
%ADD33C,.6504*%
%ADD32R,.9656X1.372*%
%ADD26O,1.1004X1.6004*%
%ADD27C,6.0004*%
%ADD29C,1.3974*%
%ADD28C,1.6974*%
%ADD31R,1.3974X1.3974*%
%ADD30R,1.6974X1.6974*%
G75*
%LPD*%
G75*
G36*
G01X7900000Y5229960D02*
G02X7979960Y5150000I0J-79960D01*
G01Y350000D01*
G02X7900000Y270040I-79960J0D01*
G01X100000D01*
G02X20040Y350000I0J79960D01*
G01Y2403340D01*
X475120D01*
Y2538380D01*
X20040D01*
Y2968340D01*
X475120D01*
Y3103380D01*
X20040D01*
Y5150000D01*
G02X100000Y5229960I79960J0D01*
G01X7900000D01*
G37*
%LPC*%
G75*
G36*
G01X6710880Y3207620D02*
X6761080Y3157420D01*
Y1119940D01*
X6604200Y963060D01*
X4193340D01*
X4130440Y1025960D01*
Y1293060D01*
X4195880Y1358500D01*
X6395520D01*
X6449460Y1412440D01*
Y3134560D01*
X6522520Y3207620D01*
X6710880D01*
G37*
G36*
G01X7669140Y3109940D02*
G02Y3199980I0J45020D01*
G01X7779140D01*
G02Y3109940I0J-45020D01*
G01X7669140D01*
G37*
G36*
G01Y2249940D02*
G02Y2339980I0J45020D01*
G01X7779140D01*
G02Y2249940I0J-45020D01*
G01X7669140D01*
G37*
G36*
G01X7793520Y1910260D02*
G02Y2040300I0J65020D01*
G01X7893520D01*
G02Y1910260I0J-65020D01*
G01X7793520D01*
G37*
G36*
G01X7378520D02*
G02Y2040300I0J65020D01*
G01X7478520D01*
G02Y1910260I0J-65020D01*
G01X7378520D01*
G37*
G36*
G01X7793520Y1046260D02*
G02Y1176300I0J65020D01*
G01X7893520D01*
G02Y1046260I0J-65020D01*
G01X7793520D01*
G37*
G36*
G01X7378520D02*
G02Y1176300I0J65020D01*
G01X7478520D01*
G02Y1046260I0J-65020D01*
G01X7378520D01*
G37*
G36*
G01X6424960Y4115220D02*
X6407220Y4132960D01*
X6405580Y4133210D01*
G02X6446100Y4171920I5381J34929D01*
G01X6447760Y4170260D01*
X6797730D01*
G02Y4115220I22170J-27520D01*
G01X6424960D01*
G37*
G36*
G01X5897720Y4746690D02*
Y3968650D01*
G02X5837680I-30020J-18650D01*
G01Y4746690D01*
G02X5897720I30020J18650D01*
G37*
G36*
G01X6938770Y4373660D02*
X7042960Y4269470D01*
Y3186030D01*
G02X6982920I-30020J-18650D01*
G01Y4244610D01*
X6913910Y4313620D01*
X6627490D01*
G02Y4373660I-18650J30020D01*
G01X6938770D01*
G37*
G36*
G01X6828060Y3517320D02*
X6871400Y3560660D01*
X6871610Y3560930D01*
G02X6928010Y3504070I32109J-24552D01*
G01X6908100Y3484160D01*
Y3377080D01*
X6908180Y3377000D01*
Y2500410D01*
X6953030D01*
Y2330670D01*
X6783290D01*
Y2500410D01*
X6828140D01*
Y3343840D01*
X6828060Y3343920D01*
Y3517320D01*
G37*
G36*
G01X3794490Y2389680D02*
X4616850D01*
G02Y2329640I18650J-30020D01*
G01X3769630D01*
X2745200Y3354070D01*
Y4700900D01*
G02X2805240I30020J79380D01*
G01Y3378930D01*
X3794490Y2389680D01*
G37*
G36*
G01X5576070Y2380020D02*
X5588460Y2392410D01*
Y4621930D01*
G02X5648500I30020J18650D01*
G01Y2367550D01*
X5600930Y2319980D01*
X5562970D01*
G02X5561840Y2380690I-18650J30018D01*
G01X5563020Y2380020D01*
X5576070D01*
G37*
G36*
G01X3616690Y2247440D02*
X4571130D01*
G02Y2187400I18650J-30020D01*
G01X3591830D01*
X2491200Y3288030D01*
Y4700900D01*
G02X2551240I30020J79380D01*
G01Y3312890D01*
X3616690Y2247440D01*
G37*
G36*
G01X3062780Y1686830D02*
Y789980D01*
G02X3001200Y790580I-31561J-78781D01*
G01Y803490D01*
X3002740Y805030D01*
Y1711690D01*
X3373390Y2082340D01*
X4734830D01*
X4907740Y2255250D01*
Y3923430D01*
G02X4967780I30020J18650D01*
G01Y2230390D01*
X4759690Y2022300D01*
X3398250D01*
X3062780Y1686830D01*
G37*
G36*
G01X6379270Y5084910D02*
X6381210Y5084810D01*
G02X6343990Y5047590I-1930J-35290D01*
G01X6343890Y5049530D01*
X6320660Y5072760D01*
X6310410D01*
G03X6306500Y5064440I2J-5080D01*
G02X6254320Y5016880I-27215J-22546D01*
G01X5849820D01*
X5800980Y4968040D01*
Y3749240D01*
X5941260Y3608960D01*
X6610220D01*
X6646370Y3572810D01*
X6648310Y3572710D01*
G02X6611090Y3535490I-1930J-35290D01*
G01X6610990Y3537430D01*
X6589500Y3558920D01*
X6168940D01*
G03X6160200Y3543570I-5J-10160D01*
G02X6104860Y3500500I-30382J-18050D01*
G01X5902760D01*
X5697600Y3705660D01*
Y5006540D01*
X5813860Y5122800D01*
X6341380D01*
X6379270Y5084910D01*
G37*
G36*
G01X6782230Y3837640D02*
X6848950Y3904370D01*
X6849310Y3905670D01*
G02X6892710Y3862270I34090J-9310D01*
G01X6891410Y3861910D01*
X6855980Y3826480D01*
X6815890Y3786390D01*
G02X6815550Y3786060I-21078J21376D01*
G01X6807090Y3777600D01*
X6794900D01*
G02X6794420I-240J30020D01*
G01X6749490D01*
G02Y3837640I-18650J30020D01*
G01X6782230D01*
G37*
G54D33*
X7478520Y1254280D03*
Y1832280D03*
G54D32*
X6974840Y2190520D03*
G54D26*
X7724140Y2924960D03*
Y2724960D03*
Y2524960D03*
G54D27*
X582000Y650000D03*
Y4850000D03*
X7270000Y650000D03*
Y4850000D03*
G54D29*
X2267220Y4780280D03*
X2775220Y711200D03*
X3285220D03*
G54D28*
X2267220D03*
X2521220D03*
X3031220Y4780280D03*
X3285220D03*
X7122160Y2415540D03*
G54D31*
X3539220Y4780280D03*
G54D30*
Y711200D03*
%LPD*%
G75*
G36*
G01X6583480Y1013060D02*
X4214060D01*
X4180440Y1046680D01*
Y1272340D01*
X4216600Y1308500D01*
X6416240D01*
X6499460Y1391720D01*
Y3113840D01*
X6543240Y3157620D01*
X6690160D01*
X6711080Y3136700D01*
Y1140660D01*
X6583480Y1013060D01*
G37*
G54D10*
X582000Y650000D03*
Y4850000D03*
X7270000Y650000D03*
Y4850000D03*
G54D11*
X235100Y2470860D03*
Y3035860D03*
G54D20*
X7724140Y2294960D03*
Y3154960D03*
G54D21*
G01X6379280Y5049520D02*
X6331020Y5097780D01*
X5824220D01*
X5722620Y4996180D01*
Y3716020D01*
X5913120Y3525520D01*
X6129820D01*
G01X6646380Y3537420D02*
X6599860Y3583940D01*
X5930900D01*
X5775960Y3738880D01*
Y4978400D01*
X5839460Y5041900D01*
X6279280D01*
G54D12*
X1008660Y2642320D03*
X891820Y2644860D03*
X686080Y2652480D03*
X581940Y2622000D03*
X1145820Y2853140D03*
X1016280Y2858220D03*
X899440D03*
X792760Y2855680D03*
X691160Y2853140D03*
X597180Y2876000D03*
X1249520Y2550000D03*
X1572260Y2552700D03*
X1559840Y2743920D03*
X1290600Y2634700D03*
X1201700Y2637240D03*
X1531900Y2647400D03*
X1215600Y2950000D03*
X1549980Y2947420D03*
X1267740Y2855680D03*
X1531900Y2850600D03*
X4447540Y594360D03*
X4654680Y734060D03*
X4700000Y1523000D03*
X4652140Y4741040D03*
X4424680Y4907280D03*
X4871720Y1412240D03*
X5245160Y1750000D03*
X5231440Y3750000D03*
X5582920Y1750000D03*
X6646380Y3294380D03*
X6903720Y3536380D03*
X7218680Y1440180D03*
Y1551940D03*
Y1666240D03*
G54D22*
G01X2521220Y4780280D02*
Y3300460D01*
X3604260Y2217420D01*
X4589780D01*
G01X2775220Y4780280D02*
Y3366500D01*
X3782060Y2359660D01*
X4635500D01*
G01X4937760Y3942080D02*
Y2242820D01*
X4747260Y2052320D01*
X3385820D01*
X3032760Y1699260D01*
Y792600D01*
X3031220Y791060D01*
Y711200D01*
G01X5618480Y4640580D02*
Y2379980D01*
X5588500Y2350000D01*
X5544320D01*
G01X5867700Y3950000D02*
Y4765340D01*
G01X7012940Y3167380D02*
Y4257040D01*
X6926340Y4343640D01*
X6608840D01*
G01X6730840Y3807620D02*
X6794660D01*
X6883400Y3896360D01*
G54D13*
X2267220Y711200D03*
Y4780280D03*
X2775220Y711200D03*
X2521220D03*
X2775220Y4780280D03*
X2521220D03*
X3031220Y711200D03*
X3285220D03*
X3031220Y4780280D03*
X3285220D03*
X7122160Y2415540D03*
G54D23*
G01X6903720Y3536380D02*
X6868080Y3500740D01*
Y3360500D01*
X6868160Y3360420D01*
Y2415540D01*
G54D14*
X3539220Y711200D03*
Y4780280D03*
X6868160Y2415540D03*
G54D24*
G01X6819900Y4142740D02*
X6436360D01*
X6410960Y4168140D01*
G54D15*
X4300000Y1155700D03*
X4500000Y1154040D03*
X6604000Y2854960D03*
X6608620Y3034840D03*
G54D25*
G01X276900Y650000D02*
X582000D01*
G01X235100Y2398260D02*
Y2470860D01*
G01D02*
Y2543460D01*
G01Y2470860D02*
X480200D01*
G01X235100Y2963260D02*
Y3035860D01*
G01D02*
Y3108460D01*
G01Y3035860D02*
X480200D01*
G01X276900Y4850000D02*
X582000D01*
G01Y344900D02*
Y650000D01*
G01D02*
Y955100D01*
G01Y650000D02*
X887100D01*
G01X582000Y4544900D02*
Y4850000D01*
G01D02*
Y5155100D01*
G01Y4850000D02*
X887100D01*
G01X2267220Y4705330D02*
Y4780280D01*
G01D02*
Y4855230D01*
G01X2192270Y4780280D02*
X2267220D01*
G01D02*
X2342170D01*
G01X2775220Y636250D02*
Y711200D01*
G01D02*
Y786150D01*
G01X2700270Y711200D02*
X2775220D01*
G01D02*
X2850170D01*
G01X3285220Y636250D02*
Y711200D01*
G01D02*
Y786150D01*
G01X3210270Y711200D02*
X3285220D01*
G01D02*
X3360170D01*
G01X3539220Y4705330D02*
Y4780280D01*
G01D02*
Y4855230D01*
G01X3464270Y4780280D02*
X3539220D01*
G01D02*
X3614170D01*
G01X6964900Y650000D02*
X7270000D01*
G01X6964900Y4850000D02*
X7270000D01*
G01Y344900D02*
Y650000D01*
G01D02*
Y955100D01*
G01Y650000D02*
X7575100D01*
G01X7724140Y2244860D02*
Y2294960D01*
G01D02*
Y2345060D01*
G01X7619040Y2294960D02*
X7724140D01*
G01D02*
X7829240D01*
G01X7724140Y3104860D02*
Y3154960D01*
G01D02*
Y3205060D01*
G01X7619040Y3154960D02*
X7724140D01*
G01D02*
X7829240D01*
G01X7270000Y4544900D02*
Y4850000D01*
G01D02*
Y5155100D01*
G01Y4850000D02*
X7575100D01*
G54D16*
X4589780Y2217420D03*
X4635500Y2359660D03*
X4937760Y3942080D03*
X5544320Y2350000D03*
X5867700Y3950000D03*
Y4765340D03*
X5618480Y4640580D03*
X6129820Y3525520D03*
X6410960Y4168140D03*
X6379280Y5049520D03*
X6279280Y5041900D03*
X7012940Y3167380D03*
X6883400Y3896360D03*
X6730840Y3807620D03*
X6646380Y3537420D03*
X6819900Y4142740D03*
X6608840Y4343640D03*
G54D17*
X7478520Y1254280D03*
Y1832280D03*
G54D18*
X7428520Y1111280D03*
X7843520D03*
X7428520Y1975280D03*
X7843520D03*
G54D19*
X7724140Y2524960D03*
Y2724960D03*
Y2924960D03*
M02*
