G04 ================== begin FILE IDENTIFICATION RECORD ==================*
G04 Layout Name:  ASR6601QFN68_Module_V10_210527.brd*
G04 Film Name:    ADB*
G04 File Format:  Gerber RS274X*
G04 File Origin:  Cadence Allegro 16.6-2015-S088*
G04 Origin Date:  Thu May 27 20:17:09 2021*
G04 *
G04 Layer:  REF DES/SILKSCREEN_BOTTOM*
G04 Layer:  PIN/BOTTOM*
G04 Layer:  PACKAGE GEOMETRY/SILKSCREEN_BOTTOM*
G04 Layer:  BOARD GEOMETRY/OUTLINE*
G04 Layer:  BOARD GEOMETRY/SILKSCREEN_BOTTOM*
G04 *
G04 Offset:    (0.0000 0.0000)*
G04 Mirror:    No*
G04 Mode:      Positive*
G04 Rotation:  0*
G04 FullContactRelief:  No*
G04 UndefLineWidth:     0.2000*
G04 ================== end FILE IDENTIFICATION RECORD ====================*
%FSLAX25Y25*MOMM*%
%IR0*IPPOS*OFA0.00000B0.00000*MIA0B0*SFA1.00000B1.00000*%
%ADD13O,1.4X1.*%
%ADD10O,1.X1.4*%
%ADD12R,1.4X1.*%
%ADD11R,1.X1.4*%
%ADD14C,1.*%
%ADD16C,1.1*%
%ADD17C,.05*%
%ADD18C,.2*%
%ADD19C,.06*%
G75*
%LPD*%
G75*
G54D10*
X75000Y0D03*
Y1800000D03*
X1725000Y0D03*
Y1800000D03*
G54D11*
X225000Y0D03*
X375000D03*
X525000D03*
Y1800000D03*
X375000D03*
X225000D03*
X675000Y0D03*
X825000D03*
X975000D03*
X1125000D03*
X1275000D03*
Y1800000D03*
X1125000D03*
X975000D03*
X825000D03*
X675000D03*
X1425000Y0D03*
X1575000D03*
Y1800000D03*
X1425000D03*
G54D12*
X0Y750000D03*
Y600000D03*
Y450000D03*
Y300000D03*
Y1500000D03*
Y1350000D03*
Y1200000D03*
Y1050000D03*
Y900000D03*
X1800000Y300000D03*
Y450000D03*
Y600000D03*
Y750000D03*
Y900000D03*
Y1050000D03*
Y1200000D03*
Y1350000D03*
Y1650000D03*
G54D13*
X0Y150000D03*
Y1650000D03*
X1800000Y150000D03*
Y1500000D03*
G54D14*
X563560Y475220D03*
Y605680D03*
Y736140D03*
X1310320Y223520D03*
X1125220D03*
X1582420D03*
G36*
G01X1614820Y1511140D02*
G03X1435100Y1321140I-179720J-10000D01*
G03X1614820Y1491140I0J180000D01*
G01X1554680D01*
G02X1435100Y1621130I-119580J10000D01*
G02X1554680Y1511140I0J-119990D01*
G01X1614820D01*
G37*
G54D16*
X1435100Y1501140D03*
G54D17*
G01X724980Y640080D02*
Y672080D01*
X714980D01*
X711780Y670480D01*
X709780Y668350D01*
X708980Y664080D01*
X709780Y659810D01*
X712180Y657150D01*
X714980Y655550D01*
X724980D01*
G01X714980D02*
X708980Y640080D01*
G01X696380D02*
X679580Y672080D01*
G01X696380D02*
X679580Y640080D01*
G01X658980Y672080D02*
X662180Y671010D01*
X664580Y668350D01*
X666180Y665150D01*
X667380Y660880D01*
X667780Y656080D01*
X667380Y651280D01*
X666180Y647010D01*
X664580Y643810D01*
X662180Y641150D01*
X658980Y640080D01*
X655780Y641150D01*
X653380Y643810D01*
X651780Y647010D01*
X650580Y651280D01*
X650180Y656080D01*
X650580Y660880D01*
X651780Y665150D01*
X653380Y668350D01*
X655780Y671010D01*
X658980Y672080D01*
G01X716980Y527300D02*
Y495300D01*
G01X726180Y527300D02*
X707780D01*
G01X696380Y495300D02*
X679580Y527300D01*
G01X696380D02*
X679580Y495300D01*
G01X658980Y527300D02*
X662180Y526230D01*
X664580Y523570D01*
X666180Y520370D01*
X667380Y516100D01*
X667780Y511300D01*
X667380Y506500D01*
X666180Y502230D01*
X664580Y499030D01*
X662180Y496370D01*
X658980Y495300D01*
X655780Y496370D01*
X653380Y499030D01*
X651780Y502230D01*
X650580Y506500D01*
X650180Y511300D01*
X650580Y516100D01*
X651780Y520370D01*
X653380Y523570D01*
X655780Y526230D01*
X658980Y527300D01*
G01X1116940Y323900D02*
X1114540Y320170D01*
X1111340Y318030D01*
X1107740Y317500D01*
X1104540Y318030D01*
X1101340Y320700D01*
X1099340Y323900D01*
X1098940Y327100D01*
X1099740Y330830D01*
X1102540Y333500D01*
X1105340Y334570D01*
X1108940D01*
G01X1105340D02*
X1102940Y336170D01*
X1100940Y338830D01*
X1100140Y342030D01*
X1100940Y345230D01*
X1102940Y347900D01*
X1106540Y349500D01*
X1110140Y348970D01*
X1113740Y346830D01*
G01X1089140Y349500D02*
X1079140Y317500D01*
X1069140Y349500D01*
G01X1058940Y323900D02*
X1056540Y320170D01*
X1053340Y318030D01*
X1049740Y317500D01*
X1046540Y318030D01*
X1043340Y320700D01*
X1041340Y323900D01*
X1040940Y327100D01*
X1041740Y330830D01*
X1044540Y333500D01*
X1047340Y334570D01*
X1050940D01*
G01X1047340D02*
X1044940Y336170D01*
X1042940Y338830D01*
X1042140Y342030D01*
X1042940Y345230D01*
X1044940Y347900D01*
X1048540Y349500D01*
X1052140Y348970D01*
X1055740Y346830D01*
G01X1352120Y333500D02*
X1344120D01*
Y323900D01*
X1346520Y320700D01*
X1349320Y318570D01*
X1353320Y317500D01*
X1357320Y318570D01*
X1360120Y320700D01*
X1362520Y323900D01*
X1364120Y327630D01*
X1364920Y331900D01*
Y335630D01*
X1364120Y338830D01*
X1362520Y342570D01*
X1360120Y345770D01*
X1357720Y347900D01*
X1354520Y349500D01*
X1351720D01*
X1348520Y348430D01*
X1346120Y346300D01*
G01X1334720Y317500D02*
Y349500D01*
X1316320Y317500D01*
Y349500D01*
G01X1305320Y317500D02*
Y349500D01*
X1297320D01*
X1294120Y347900D01*
X1291720Y345770D01*
X1289720Y342570D01*
X1288120Y338830D01*
X1287720Y333500D01*
X1288120Y328170D01*
X1289720Y324430D01*
X1291720Y321230D01*
X1294120Y319100D01*
X1297320Y317500D01*
X1305320D01*
G01X714440Y461260D02*
Y429260D01*
G01X723640Y461260D02*
X705240D01*
G01X693440Y429260D02*
Y461260D01*
X683840D01*
X680640Y459660D01*
X678240Y455930D01*
X677440Y451660D01*
X678240Y447390D01*
X680240Y444190D01*
X683840Y442590D01*
X693440D01*
G01X657240Y429260D02*
X656440Y436190D01*
X655240Y442060D01*
X653640Y447390D01*
X651640Y453260D01*
X648440Y461260D01*
X664440D01*
G01X706820Y603500D02*
Y571500D01*
G01X716020Y603500D02*
X697620D01*
G01X685820Y571500D02*
Y603500D01*
X676220D01*
X673020Y601900D01*
X670620Y598170D01*
X669820Y593900D01*
X670620Y589630D01*
X672620Y586430D01*
X676220Y584830D01*
X685820D01*
G01X656420D02*
X653620Y588570D01*
X651220Y590700D01*
X648020Y591770D01*
X645220Y590700D01*
X643220Y588570D01*
X641620Y585370D01*
X641220Y581630D01*
X641620Y578430D01*
X643220Y575230D01*
X645620Y572570D01*
X648420Y571500D01*
X651620Y572570D01*
X654420Y575770D01*
X656020Y580570D01*
X656420Y585900D01*
X655620Y592830D01*
X654420Y596570D01*
X652420Y600300D01*
X649620Y602970D01*
X646820Y603500D01*
X644020Y602430D01*
X642020Y599770D01*
G01X711900Y745740D02*
Y713740D01*
G01X721100Y745740D02*
X702700D01*
G01X690900Y713740D02*
Y745740D01*
X681300D01*
X678100Y744140D01*
X675700Y740410D01*
X674900Y736140D01*
X675700Y731870D01*
X677700Y728670D01*
X681300Y727070D01*
X690900D01*
G01X649100Y713740D02*
Y745740D01*
X663900Y722810D01*
X643900D01*
G01X1354520Y151380D02*
Y119380D01*
G01X1363720Y151380D02*
X1345320D01*
G01X1333520Y119380D02*
Y151380D01*
X1323920D01*
X1320720Y149780D01*
X1318320Y146050D01*
X1317520Y141780D01*
X1318320Y137510D01*
X1320320Y134310D01*
X1323920Y132710D01*
X1333520D01*
G01X1305320Y125780D02*
X1302920Y122050D01*
X1299720Y119910D01*
X1296120Y119380D01*
X1292920Y119910D01*
X1289720Y122580D01*
X1287720Y125780D01*
X1287320Y128980D01*
X1288120Y132710D01*
X1290920Y135380D01*
X1293720Y136450D01*
X1297320D01*
G01X1293720D02*
X1291320Y138050D01*
X1289320Y140710D01*
X1288520Y143910D01*
X1289320Y147110D01*
X1291320Y149780D01*
X1294920Y151380D01*
X1298520Y150850D01*
X1302120Y148710D01*
G01X1164020Y151380D02*
Y119380D01*
G01X1173220Y151380D02*
X1154820D01*
G01X1143020Y119380D02*
Y151380D01*
X1133420D01*
X1130220Y149780D01*
X1127820Y146050D01*
X1127020Y141780D01*
X1127820Y137510D01*
X1129820Y134310D01*
X1133420Y132710D01*
X1143020D01*
G01X1113620Y146050D02*
X1111220Y149250D01*
X1108420Y150850D01*
X1105220Y151380D01*
X1101220Y150310D01*
X1098420Y147650D01*
X1097620Y144450D01*
X1098020Y141250D01*
X1099620Y138580D01*
X1107620Y133250D01*
X1111220Y129510D01*
X1113620Y124180D01*
X1114420Y119380D01*
X1097620D01*
G01X1504220Y1257300D02*
X1494220Y1289300D01*
X1484220Y1257300D01*
G01X1487820Y1268500D02*
X1500620D01*
G01X1474420Y1257300D02*
Y1289300D01*
X1456020Y1257300D01*
Y1289300D01*
G01X1436220D02*
Y1257300D01*
G01X1445420Y1289300D02*
X1427020D01*
G01X1419220Y1246630D02*
X1395220D01*
G01X1386220Y1257300D02*
Y1289300D01*
X1376220D01*
X1373020Y1287700D01*
X1371020Y1285570D01*
X1370220Y1281300D01*
X1371020Y1277030D01*
X1373420Y1274370D01*
X1376220Y1272770D01*
X1386220D01*
G01X1376220D02*
X1370220Y1257300D01*
G01X1356820D02*
Y1289300D01*
X1341620D01*
G01X1347220Y1273830D02*
X1356820D01*
G01X744260Y819710D02*
X742660Y821310D01*
X741460Y823970D01*
X740660Y827710D01*
X741460Y830910D01*
X743060Y833040D01*
X745860Y834640D01*
X756660D01*
Y802640D01*
X743460D01*
X740660Y804770D01*
X739060Y807970D01*
X738260Y811710D01*
X739060Y815440D01*
X741460Y818640D01*
X744260Y819710D01*
X756660D01*
G01X718460Y802640D02*
X721660Y803170D01*
X724460Y805310D01*
X726860Y808510D01*
X728460Y812240D01*
X729260Y816510D01*
Y820770D01*
X728460Y825040D01*
X726860Y828770D01*
X724460Y831970D01*
X721660Y834110D01*
X718460Y834640D01*
X715260Y834110D01*
X712460Y831970D01*
X710060Y828770D01*
X708460Y825040D01*
X707660Y820770D01*
Y816510D01*
X708460Y812240D01*
X710060Y808510D01*
X712460Y805310D01*
X715260Y803170D01*
X718460Y802640D01*
G01X689460D02*
X692660Y803170D01*
X695460Y805310D01*
X697860Y808510D01*
X699460Y812240D01*
X700260Y816510D01*
Y820770D01*
X699460Y825040D01*
X697860Y828770D01*
X695460Y831970D01*
X692660Y834110D01*
X689460Y834640D01*
X686260Y834110D01*
X683460Y831970D01*
X681060Y828770D01*
X679460Y825040D01*
X678660Y820770D01*
Y816510D01*
X679460Y812240D01*
X681060Y808510D01*
X683460Y805310D01*
X686260Y803170D01*
X689460Y802640D01*
G01X660460Y834640D02*
Y802640D01*
G01X669660Y834640D02*
X651260D01*
G01X631460D02*
X634660Y833570D01*
X637060Y830910D01*
X638660Y827710D01*
X639860Y823440D01*
X640260Y818640D01*
X639860Y813840D01*
X638660Y809570D01*
X637060Y806370D01*
X634660Y803710D01*
X631460Y802640D01*
X628260Y803710D01*
X625860Y806370D01*
X624260Y809570D01*
X623060Y813840D01*
X622660Y818640D01*
X623060Y823440D01*
X624260Y827710D01*
X625860Y830910D01*
X628260Y833570D01*
X631460Y834640D01*
G01X1631760Y312420D02*
Y344420D01*
X1621760D01*
X1618560Y342820D01*
X1616560Y340690D01*
X1615760Y336420D01*
X1616560Y332150D01*
X1618960Y329490D01*
X1621760Y327890D01*
X1631760D01*
G01X1621760D02*
X1615760Y312420D01*
G01X1603160Y316690D02*
X1599960Y314020D01*
X1596360Y312420D01*
X1593160D01*
X1589960Y314020D01*
X1587560Y316690D01*
X1586360Y320420D01*
X1587160Y324150D01*
X1589160Y327350D01*
X1592760Y329490D01*
X1597560Y330550D01*
X1600360Y332690D01*
X1601560Y336420D01*
X1600760Y340150D01*
X1598760Y342820D01*
X1595960Y344420D01*
X1593160D01*
X1590360Y343350D01*
X1587960Y340690D01*
G01X1565760Y344420D02*
Y312420D01*
G01X1574960Y344420D02*
X1556560D01*
G01X1545960Y312420D02*
Y344420D01*
X1527560Y312420D01*
Y344420D01*
G01X1623760Y151380D02*
Y119380D01*
G01X1632960Y151380D02*
X1614560D01*
G01X1602760Y119380D02*
Y151380D01*
X1593160D01*
X1589960Y149780D01*
X1587560Y146050D01*
X1586760Y141780D01*
X1587560Y137510D01*
X1589560Y134310D01*
X1593160Y132710D01*
X1602760D01*
G01X1574560Y124180D02*
X1572160Y121510D01*
X1569360Y119910D01*
X1565760Y119380D01*
X1562160Y120450D01*
X1559360Y122580D01*
X1557360Y126310D01*
X1556960Y130580D01*
X1557760Y134850D01*
X1559760Y137510D01*
X1562560Y139650D01*
X1565360Y140180D01*
X1568160Y139650D01*
X1571760Y137510D01*
X1570560Y151380D01*
X1559760D01*
G01X1401380Y1187200D02*
Y1219200D01*
G01X1392180Y1187200D02*
X1410580D01*
G01X1422380Y1219200D02*
Y1187200D01*
X1431980D01*
X1435180Y1188800D01*
X1437580Y1192530D01*
X1438380Y1196800D01*
X1437580Y1201070D01*
X1435580Y1204270D01*
X1431980Y1205870D01*
X1422380D01*
G01X1459380Y1219200D02*
Y1187200D01*
X1454580Y1193600D01*
G01Y1219200D02*
X1464180D01*
G54D18*
G01X0Y0D02*
Y1800860D01*
X1800860D01*
Y0D01*
X0D01*
G54D19*
G01X623560Y475220D02*
G03I-60000J0D01*
G01Y605680D02*
G03I-60000J0D01*
G01Y736140D02*
G03I-60000J0D01*
G01X1370320Y223520D02*
G03I-60000J0D01*
G01X1185220D02*
G03I-60000J0D01*
G01X1642420D02*
G03I-60000J0D01*
M02*
