G04 ================== begin FILE IDENTIFICATION RECORD ==================*
G04 Layout Name:  ASR6601QFN68_Module_V10_210527.brd*
G04 Film Name:    DRILL*
G04 File Format:  Gerber RS274X*
G04 File Origin:  Cadence Allegro 16.6-2015-S088*
G04 Origin Date:  Thu May 27 20:17:09 2021*
G04 *
G04 Layer:  MANUFACTURING/NCDRILL_LEGEND*
G04 Layer:  MANUFACTURING/NCDRILL_FIGURE*
G04 Layer:  BOARD GEOMETRY/OUTLINE*
G04 *
G04 Offset:    (0.0000 0.0000)*
G04 Mirror:    No*
G04 Mode:      Positive*
G04 Rotation:  0*
G04 FullContactRelief:  No*
G04 UndefLineWidth:     0.0000*
G04 ================== end FILE IDENTIFICATION RECORD ====================*
%FSLAX25Y25*MOMM*%
%IR0*IPPOS*OFA0.00000B0.00000*MIA0B0*SFA1.00000B1.00000*%
%AMMACRO10*
1,1,0.0,.25,.25*
20,1,0.0,.25,.25,.25,-.25,0.0*
1,1,0.0,.25,-.25*
20,1,0.0,.25,-.25,-.25,-.25,0.0*
1,1,0.0,-.25,-.25*
20,1,0.0,-.25,-.25,-.25,.25,0.0*
1,1,0.0,-.25,.25*
20,1,0.0,-.25,.25,.25,.25,0.0*
1,1,0.0,.25,.25*
%
%ADD10MACRO10*%
%AMMACRO13*
1,1,0.0,-.175,-.325*
20,1,0.0,-.175,-.325,-.175,.325,0.0*
1,1,0.0,-.175,.325*
20,1,0.0,-.175,.325,-.172341,.355388,0.0*
1,1,0.0,-.172341,.355388*
20,1,0.0,-.172341,.355388,-.164446,.384854,0.0*
1,1,0.0,-.164446,.384854*
20,1,0.0,-.164446,.384854,-.151554,.4125,0.0*
1,1,0.0,-.151554,.4125*
20,1,0.0,-.151554,.4125,-.134058,.437488,0.0*
1,1,0.0,-.134058,.437488*
20,1,0.0,-.134058,.437488,-.112488,.459058,0.0*
1,1,0.0,-.112488,.459058*
20,1,0.0,-.112488,.459058,-.0875,.476554,0.0*
1,1,0.0,-.0875,.476554*
20,1,0.0,-.0875,.476554,-.059854,.489446,0.0*
1,1,0.0,-.059854,.489446*
20,1,0.0,-.059854,.489446,-.030388,.497341,0.0*
1,1,0.0,-.030388,.497341*
20,1,0.0,-.030388,.497341,0.0,.5,0.0*
1,1,0.0,0.0,.5*
20,1,0.0,0.0,.5,.030388,.497341,0.0*
1,1,0.0,.030388,.497341*
20,1,0.0,.030388,.497341,.059854,.489446,0.0*
1,1,0.0,.059854,.489446*
20,1,0.0,.059854,.489446,.0875,.476554,0.0*
1,1,0.0,.0875,.476554*
20,1,0.0,.0875,.476554,.112488,.459058,0.0*
1,1,0.0,.112488,.459058*
20,1,0.0,.112488,.459058,.134058,.437488,0.0*
1,1,0.0,.134058,.437488*
20,1,0.0,.134058,.437488,.151554,.4125,0.0*
1,1,0.0,.151554,.4125*
20,1,0.0,.151554,.4125,.164446,.384854,0.0*
1,1,0.0,.164446,.384854*
20,1,0.0,.164446,.384854,.172341,.355388,0.0*
1,1,0.0,.172341,.355388*
20,1,0.0,.172341,.355388,.175,.325,0.0*
1,1,0.0,.175,.325*
20,1,0.0,.175,.325,.175,-.325,0.0*
1,1,0.0,.175,-.325*
20,1,0.0,.175,-.325,.172341,-.355388,0.0*
1,1,0.0,.172341,-.355388*
20,1,0.0,.172341,-.355388,.164446,-.384854,0.0*
1,1,0.0,.164446,-.384854*
20,1,0.0,.164446,-.384854,.151554,-.4125,0.0*
1,1,0.0,.151554,-.4125*
20,1,0.0,.151554,-.4125,.134058,-.437488,0.0*
1,1,0.0,.134058,-.437488*
20,1,0.0,.134058,-.437488,.112488,-.459058,0.0*
1,1,0.0,.112488,-.459058*
20,1,0.0,.112488,-.459058,.0875,-.476554,0.0*
1,1,0.0,.0875,-.476554*
20,1,0.0,.0875,-.476554,.059854,-.489446,0.0*
1,1,0.0,.059854,-.489446*
20,1,0.0,.059854,-.489446,.030388,-.497341,0.0*
1,1,0.0,.030388,-.497341*
20,1,0.0,.030388,-.497341,0.0,-.5,0.0*
1,1,0.0,0.0,-.5*
20,1,0.0,0.0,-.5,-.030388,-.497341,0.0*
1,1,0.0,-.030388,-.497341*
20,1,0.0,-.030388,-.497341,-.059854,-.489446,0.0*
1,1,0.0,-.059854,-.489446*
20,1,0.0,-.059854,-.489446,-.0875,-.476554,0.0*
1,1,0.0,-.0875,-.476554*
20,1,0.0,-.0875,-.476554,-.112488,-.459058,0.0*
1,1,0.0,-.112488,-.459058*
20,1,0.0,-.112488,-.459058,-.134058,-.437488,0.0*
1,1,0.0,-.134058,-.437488*
20,1,0.0,-.134058,-.437488,-.151554,-.4125,0.0*
1,1,0.0,-.151554,-.4125*
20,1,0.0,-.151554,-.4125,-.164446,-.384854,0.0*
1,1,0.0,-.164446,-.384854*
20,1,0.0,-.164446,-.384854,-.172341,-.355388,0.0*
1,1,0.0,-.172341,-.355388*
20,1,0.0,-.172341,-.355388,-.175,-.325,0.0*
1,1,0.0,-.175,-.325*
1,1,0.0,-.0875,-.0875*
20,1,0.0,-.0875,-.0875,-.1108,-.0846,0.0*
1,1,0.0,-.1108,-.0846*
20,1,0.0,-.1108,-.0846,-.1312,-.0729,0.0*
1,1,0.0,-.1312,-.0729*
20,1,0.0,-.1312,-.0729,-.1488,-.0554,0.0*
1,1,0.0,-.1488,-.0554*
20,1,0.0,-.1488,-.0554,-.1604,-.035,0.0*
1,1,0.0,-.1604,-.035*
20,1,0.0,-.1604,-.035,-.1663,-.0117,0.0*
1,1,0.0,-.1663,-.0117*
20,1,0.0,-.1663,-.0117,-.1663,.0117,0.0*
1,1,0.0,-.1663,.0117*
20,1,0.0,-.1663,.0117,-.1604,.035,0.0*
1,1,0.0,-.1604,.035*
20,1,0.0,-.1604,.035,-.1488,.0554,0.0*
1,1,0.0,-.1488,.0554*
20,1,0.0,-.1488,.0554,-.1312,.0729,0.0*
1,1,0.0,-.1312,.0729*
20,1,0.0,-.1312,.0729,-.1108,.0846,0.0*
1,1,0.0,-.1108,.0846*
20,1,0.0,-.1108,.0846,-.0875,.0875,0.0*
1,1,0.0,-.0875,.0875*
20,1,0.0,-.0875,.0875,-.0642,.0846,0.0*
1,1,0.0,-.0642,.0846*
20,1,0.0,-.0642,.0846,-.0438,.0729,0.0*
1,1,0.0,-.0438,.0729*
20,1,0.0,-.0438,.0729,-.0262,.0554,0.0*
1,1,0.0,-.0262,.0554*
20,1,0.0,-.0262,.0554,-.0146,.035,0.0*
1,1,0.0,-.0146,.035*
20,1,0.0,-.0146,.035,-.0087,.0117,0.0*
1,1,0.0,-.0087,.0117*
20,1,0.0,-.0087,.0117,-.0087,-.0117,0.0*
1,1,0.0,-.0087,-.0117*
20,1,0.0,-.0087,-.0117,-.0146,-.035,0.0*
1,1,0.0,-.0146,-.035*
20,1,0.0,-.0146,-.035,-.0262,-.0554,0.0*
1,1,0.0,-.0262,-.0554*
20,1,0.0,-.0262,-.0554,-.0438,-.0729,0.0*
1,1,0.0,-.0438,-.0729*
20,1,0.0,-.0438,-.0729,-.0642,-.0846,0.0*
1,1,0.0,-.0642,-.0846*
20,1,0.0,-.0642,-.0846,-.0875,-.0875,0.0*
1,1,0.0,-.0875,-.0875*
1,1,0.0,.0147,-.0875*
20,1,0.0,.0147,-.0875,.0876,.0875,0.0*
1,1,0.0,.0876,.0875*
20,1,0.0,.0876,.0875,.1605,-.0875,0.0*
1,1,0.0,.1605,-.0875*
1,1,0.0,.1343,-.0263*
20,1,0.0,.1343,-.0263,.0409,-.0263,0.0*
1,1,0.0,.0409,-.0263*
%
%ADD13MACRO13*%
%AMMACRO12*
1,1,0.0,-.325,.175*
20,1,0.0,-.325,.175,.325,.175,0.0*
1,1,0.0,.325,.175*
20,1,0.0,.325,.175,.355388,.172341,0.0*
1,1,0.0,.355388,.172341*
20,1,0.0,.355388,.172341,.384854,.164446,0.0*
1,1,0.0,.384854,.164446*
20,1,0.0,.384854,.164446,.4125,.151554,0.0*
1,1,0.0,.4125,.151554*
20,1,0.0,.4125,.151554,.437488,.134058,0.0*
1,1,0.0,.437488,.134058*
20,1,0.0,.437488,.134058,.459058,.112488,0.0*
1,1,0.0,.459058,.112488*
20,1,0.0,.459058,.112488,.476554,.0875,0.0*
1,1,0.0,.476554,.0875*
20,1,0.0,.476554,.0875,.489446,.059854,0.0*
1,1,0.0,.489446,.059854*
20,1,0.0,.489446,.059854,.497341,.030388,0.0*
1,1,0.0,.497341,.030388*
20,1,0.0,.497341,.030388,.5,0.0,0.0*
1,1,0.0,.5,0.0*
20,1,0.0,.5,0.0,.497341,-.030388,0.0*
1,1,0.0,.497341,-.030388*
20,1,0.0,.497341,-.030388,.489446,-.059854,0.0*
1,1,0.0,.489446,-.059854*
20,1,0.0,.489446,-.059854,.476554,-.0875,0.0*
1,1,0.0,.476554,-.0875*
20,1,0.0,.476554,-.0875,.459058,-.112488,0.0*
1,1,0.0,.459058,-.112488*
20,1,0.0,.459058,-.112488,.437488,-.134058,0.0*
1,1,0.0,.437488,-.134058*
20,1,0.0,.437488,-.134058,.4125,-.151554,0.0*
1,1,0.0,.4125,-.151554*
20,1,0.0,.4125,-.151554,.384854,-.164446,0.0*
1,1,0.0,.384854,-.164446*
20,1,0.0,.384854,-.164446,.355388,-.172341,0.0*
1,1,0.0,.355388,-.172341*
20,1,0.0,.355388,-.172341,.325,-.175,0.0*
1,1,0.0,.325,-.175*
20,1,0.0,.325,-.175,-.325,-.175,0.0*
1,1,0.0,-.325,-.175*
20,1,0.0,-.325,-.175,-.355388,-.172341,0.0*
1,1,0.0,-.355388,-.172341*
20,1,0.0,-.355388,-.172341,-.384854,-.164446,0.0*
1,1,0.0,-.384854,-.164446*
20,1,0.0,-.384854,-.164446,-.4125,-.151554,0.0*
1,1,0.0,-.4125,-.151554*
20,1,0.0,-.4125,-.151554,-.437488,-.134058,0.0*
1,1,0.0,-.437488,-.134058*
20,1,0.0,-.437488,-.134058,-.459058,-.112488,0.0*
1,1,0.0,-.459058,-.112488*
20,1,0.0,-.459058,-.112488,-.476554,-.0875,0.0*
1,1,0.0,-.476554,-.0875*
20,1,0.0,-.476554,-.0875,-.489446,-.059854,0.0*
1,1,0.0,-.489446,-.059854*
20,1,0.0,-.489446,-.059854,-.497341,-.030388,0.0*
1,1,0.0,-.497341,-.030388*
20,1,0.0,-.497341,-.030388,-.5,0.0,0.0*
1,1,0.0,-.5,0.0*
20,1,0.0,-.5,0.0,-.497341,.030388,0.0*
1,1,0.0,-.497341,.030388*
20,1,0.0,-.497341,.030388,-.489446,.059854,0.0*
1,1,0.0,-.489446,.059854*
20,1,0.0,-.489446,.059854,-.476554,.0875,0.0*
1,1,0.0,-.476554,.0875*
20,1,0.0,-.476554,.0875,-.459058,.112488,0.0*
1,1,0.0,-.459058,.112488*
20,1,0.0,-.459058,.112488,-.437488,.134058,0.0*
1,1,0.0,-.437488,.134058*
20,1,0.0,-.437488,.134058,-.4125,.151554,0.0*
1,1,0.0,-.4125,.151554*
20,1,0.0,-.4125,.151554,-.384854,.164446,0.0*
1,1,0.0,-.384854,.164446*
20,1,0.0,-.384854,.164446,-.355388,.172341,0.0*
1,1,0.0,-.355388,.172341*
20,1,0.0,-.355388,.172341,-.325,.175,0.0*
1,1,0.0,-.325,.175*
1,1,0.0,-.0875,-.0875*
20,1,0.0,-.0875,-.0875,-.1108,-.0846,0.0*
1,1,0.0,-.1108,-.0846*
20,1,0.0,-.1108,-.0846,-.1312,-.0729,0.0*
1,1,0.0,-.1312,-.0729*
20,1,0.0,-.1312,-.0729,-.1488,-.0554,0.0*
1,1,0.0,-.1488,-.0554*
20,1,0.0,-.1488,-.0554,-.1604,-.035,0.0*
1,1,0.0,-.1604,-.035*
20,1,0.0,-.1604,-.035,-.1663,-.0117,0.0*
1,1,0.0,-.1663,-.0117*
20,1,0.0,-.1663,-.0117,-.1663,.0117,0.0*
1,1,0.0,-.1663,.0117*
20,1,0.0,-.1663,.0117,-.1604,.035,0.0*
1,1,0.0,-.1604,.035*
20,1,0.0,-.1604,.035,-.1488,.0554,0.0*
1,1,0.0,-.1488,.0554*
20,1,0.0,-.1488,.0554,-.1312,.0729,0.0*
1,1,0.0,-.1312,.0729*
20,1,0.0,-.1312,.0729,-.1108,.0846,0.0*
1,1,0.0,-.1108,.0846*
20,1,0.0,-.1108,.0846,-.0875,.0875,0.0*
1,1,0.0,-.0875,.0875*
20,1,0.0,-.0875,.0875,-.0642,.0846,0.0*
1,1,0.0,-.0642,.0846*
20,1,0.0,-.0642,.0846,-.0438,.0729,0.0*
1,1,0.0,-.0438,.0729*
20,1,0.0,-.0438,.0729,-.0262,.0554,0.0*
1,1,0.0,-.0262,.0554*
20,1,0.0,-.0262,.0554,-.0146,.035,0.0*
1,1,0.0,-.0146,.035*
20,1,0.0,-.0146,.035,-.0087,.0117,0.0*
1,1,0.0,-.0087,.0117*
20,1,0.0,-.0087,.0117,-.0087,-.0117,0.0*
1,1,0.0,-.0087,-.0117*
20,1,0.0,-.0087,-.0117,-.0146,-.035,0.0*
1,1,0.0,-.0146,-.035*
20,1,0.0,-.0146,-.035,-.0262,-.0554,0.0*
1,1,0.0,-.0262,-.0554*
20,1,0.0,-.0262,-.0554,-.0438,-.0729,0.0*
1,1,0.0,-.0438,-.0729*
20,1,0.0,-.0438,-.0729,-.0642,-.0846,0.0*
1,1,0.0,-.0642,-.0846*
20,1,0.0,-.0642,-.0846,-.0875,-.0875,0.0*
1,1,0.0,-.0875,-.0875*
1,1,0.0,.0147,-.0875*
20,1,0.0,.0147,-.0875,.0876,.0875,0.0*
1,1,0.0,.0876,.0875*
20,1,0.0,.0876,.0875,.1605,-.0875,0.0*
1,1,0.0,.1605,-.0875*
1,1,0.0,.1343,-.0263*
20,1,0.0,.1343,-.0263,.0409,-.0263,0.0*
1,1,0.0,.0409,-.0263*
%
%ADD12MACRO12*%
%AMMACRO11*
1,1,0.0,.1016,0.0*
20,1,0.0,.1016,0.0,-.1016,0.0,0.0*
1,1,0.0,-.1016,0.0*
1,1,0.0,0.0,.1016*
20,1,0.0,0.0,.1016,0.0,-.1016,0.0*
1,1,0.0,0.0,-.1016*
%
%ADD11MACRO11*%
%LPD*%
G75*
G54D10*
X75000Y0D03*
X225000D03*
X375000D03*
X525000D03*
X0Y750000D03*
Y600000D03*
Y450000D03*
Y300000D03*
Y150000D03*
Y1500000D03*
Y1350000D03*
Y1200000D03*
Y1050000D03*
Y900000D03*
Y1650000D03*
X525000Y1800000D03*
X375000D03*
X225000D03*
X75000D03*
X675000Y0D03*
X825000D03*
X975000D03*
X1125000D03*
X1275000D03*
Y1800000D03*
X1125000D03*
X975000D03*
X825000D03*
X675000D03*
X1425000Y0D03*
X1575000D03*
X1725000D03*
X1800000Y150000D03*
Y300000D03*
Y450000D03*
Y600000D03*
Y750000D03*
Y900000D03*
Y1050000D03*
Y1200000D03*
Y1350000D03*
Y1500000D03*
Y1650000D03*
X1725000Y1800000D03*
X1575000D03*
X1425000D03*
G54D11*
X246380Y297180D03*
X129540Y353060D03*
X190500Y716280D03*
X236220Y683260D03*
X416560Y557540D03*
X452400Y517540D03*
X416560Y472440D03*
X609240Y378460D03*
X459740Y677540D03*
X456180Y757540D03*
X416560Y637540D03*
X451060Y597540D03*
X289560Y642620D03*
X406400Y231140D03*
X424180Y717540D03*
X521970Y384810D03*
X274320Y1109980D03*
X137160Y1397000D03*
X510540Y1371600D03*
X335280Y833120D03*
X193040Y1186180D03*
X240740Y908090D03*
X454960Y837540D03*
X424110Y797470D03*
X274320Y1056640D03*
X335280Y1219200D03*
X421640Y877540D03*
X454960Y917540D03*
X134620Y1539240D03*
X477200Y1592900D03*
X584860Y1518260D03*
X1049240Y347760D03*
X1069340Y678180D03*
X939800D03*
X795020Y685800D03*
X995680Y591820D03*
X866140Y594360D03*
X739140D03*
X1290320Y287020D03*
X1325220Y677190D03*
X809240Y357120D03*
X1169240Y403260D03*
X1054100Y238900D03*
X759460Y226060D03*
X1264920Y447040D03*
X1310640Y489190D03*
X1150620Y342900D03*
X1009240Y396200D03*
X627380Y327660D03*
X689240Y406400D03*
X889240Y344780D03*
X769770Y402980D03*
X969240Y346060D03*
X929240Y394940D03*
X849240Y393680D03*
X729240Y367640D03*
X1300480Y1432560D03*
X647700Y1031240D03*
X800100Y1036320D03*
X937260D03*
X1064260Y1021080D03*
X1135380Y944880D03*
X1066800Y863600D03*
X937260Y868680D03*
X800100Y871220D03*
X731520Y774700D03*
X868680Y772160D03*
X1003300D03*
X1125220Y767080D03*
X1005840Y947420D03*
X876300Y952500D03*
X734060Y955040D03*
X881380Y1104900D03*
X1003300Y1107440D03*
X1135380Y1104900D03*
X731520Y1109980D03*
X693420Y1413640D03*
X809240Y1308100D03*
X1146810Y1337310D03*
X889240Y1308100D03*
X1237180Y1292660D03*
X812800Y1402080D03*
X1089240Y1389380D03*
X1201420Y1328420D03*
X849240Y1267820D03*
X1320440Y1117540D03*
X1322920Y1037540D03*
X929240Y1270000D03*
X1280160Y1201420D03*
X969240Y1310640D03*
X729240Y1271820D03*
X1008380Y1270000D03*
X703580Y1328420D03*
X1049240Y1303020D03*
X759080Y1314520D03*
X1319520Y957540D03*
X1303020Y1567180D03*
X874320Y1597100D03*
X699140Y1558900D03*
X1582420Y734060D03*
X1518920Y571500D03*
X1363980D03*
X1356370Y637360D03*
X1498600Y518160D03*
X1590040Y1219200D03*
X1595120Y1155700D03*
X1483360D03*
X1551940Y1429000D03*
X1396240Y1360680D03*
X1365460Y1077540D03*
X1361660Y997540D03*
X1579880Y893420D03*
X1362960Y917540D03*
X1503680Y1500000D03*
X1554480Y1579880D03*
X1403680Y1641220D03*
G54D12*
X508000Y1649730D03*
G54D13*
X1664970Y342900D03*
M02*
