G04 ================== begin FILE IDENTIFICATION RECORD ==================*
G04 Layout Name:  ASR6601QFN68_Module_V10_210527.brd*
G04 Film Name:    PAST_BOT*
G04 File Format:  Gerber RS274X*
G04 File Origin:  Cadence Allegro 16.6-2015-S088*
G04 Origin Date:  Thu May 27 20:17:09 2021*
G04 *
G04 Layer:  PIN/PASTEMASK_BOTTOM*
G04 Layer:  PACKAGE GEOMETRY/PASTEMASK_BOTTOM*
G04 Layer:  BOARD GEOMETRY/OUTLINE*
G04 *
G04 Offset:    (0.0000 0.0000)*
G04 Mirror:    No*
G04 Mode:      Positive*
G04 Rotation:  0*
G04 FullContactRelief:  No*
G04 UndefLineWidth:     0.0000*
G04 ================== end FILE IDENTIFICATION RECORD ====================*
%FSLAX25Y25*MOMM*%
%IR0*IPPOS*OFA0.00000B0.00000*MIA0B0*SFA1.00000B1.00000*%
%ADD13O,1.4X1.*%
%ADD10O,1.X1.4*%
%ADD17O,1.5X1.1*%
%ADD12R,1.4X1.*%
%ADD11R,1.X1.4*%
%ADD14C,1.*%
%ADD16C,1.1*%
%LPD*%
G75*
G54D10*
X75000Y0D03*
Y1800000D03*
X1725000Y0D03*
Y1800000D03*
G54D11*
X225000Y0D03*
X375000D03*
X525000D03*
Y1800000D03*
X375000D03*
X225000D03*
X675000Y0D03*
X825000D03*
X975000D03*
X1125000D03*
X1275000D03*
Y1800000D03*
X1125000D03*
X975000D03*
X825000D03*
X675000D03*
X1425000Y0D03*
X1575000D03*
Y1800000D03*
X1425000D03*
G54D12*
X0Y750000D03*
Y600000D03*
Y450000D03*
Y300000D03*
Y1500000D03*
Y1350000D03*
Y1200000D03*
Y1050000D03*
Y900000D03*
X1800000Y300000D03*
Y450000D03*
Y600000D03*
Y750000D03*
Y900000D03*
Y1050000D03*
Y1200000D03*
Y1350000D03*
Y1650000D03*
G54D13*
X0Y150000D03*
Y1650000D03*
X1800000Y150000D03*
G54D14*
X563560Y475220D03*
Y605680D03*
Y736140D03*
X1310320Y223520D03*
X1125220D03*
X1582420D03*
G75*
G36*
G01X1614820Y1511140D02*
G03X1435100Y1321140I-179720J-10000D01*
G03X1614820Y1491140I0J180000D01*
G01X1554680D01*
G02X1435100Y1621130I-119580J10000D01*
G02X1554680Y1511140I0J-119990D01*
G01X1614820D01*
G37*
G54D16*
X1435100Y1501140D03*
G54D17*
X1800000Y1500000D03*
M02*
