G04 ================== begin FILE IDENTIFICATION RECORD ==================*
G04 Layout Name:  ASR6601QFN68_Module_V10_210527.brd*
G04 Film Name:    TOP*
G04 File Format:  Gerber RS274X*
G04 File Origin:  Cadence Allegro 16.6-2015-S088*
G04 Origin Date:  Thu May 27 20:17:09 2021*
G04 *
G04 Layer:  ETCH/TOP*
G04 Layer:  PIN/TOP*
G04 Layer:  VIA CLASS/TOP*
G04 *
G04 Offset:    (0.0000 0.0000)*
G04 Mirror:    No*
G04 Mode:      Positive*
G04 Rotation:  0*
G04 FullContactRelief:  No*
G04 UndefLineWidth:     0.0000*
G04 ================== end FILE IDENTIFICATION RECORD ====================*
%FSLAX25Y25*MOMM*%
%IR0*IPPOS*OFA0.00000B0.00000*MIA0B0*SFA1.00000B1.00000*%
%ADD25O,.5X1.2*%
%ADD21O,1.2X.5*%
%ADD27R,2.X.6*%
%ADD24R,1.1X.7*%
%ADD23R,1.6X.6*%
%ADD20C,.2*%
%ADD10C,.65*%
%ADD18C,.3556*%
%ADD28O,1.4X1.*%
%ADD12R,.3X.3*%
%ADD13R,.3X.3*%
%ADD22R,.2X.28*%
%ADD16R,.22X.45*%
%ADD15R,.45X.22*%
%ADD26R,.7X.8*%
%ADD11R,.5X.55*%
%ADD14R,.45X.65*%
%ADD17R,6.2X6.2*%
%AMMACRO19*
21,1,.47,.5799,0.0,0.0,45.*%
%ADD19MACRO19*%
%ADD29C,.1*%
%ADD30C,.3*%
%ADD31C,.15*%
%ADD32C,.25*%
G75*
%LPD*%
G75*
G36*
G01X1695000Y1250000D02*
Y120000D01*
X105000D01*
Y487680D01*
X165000D01*
Y180000D01*
X1635000D01*
Y1190000D01*
X1365000D01*
Y1250000D01*
X1695000D01*
G37*
G36*
G01X165000Y1243940D02*
X105000D01*
Y1680000D01*
X1125000D01*
Y1620000D01*
X165000D01*
Y1243940D01*
G37*
G36*
G01X137160Y1104900D02*
X124460Y1117600D01*
Y1196340D01*
X129540Y1201420D01*
X281940D01*
X297400Y1185960D01*
Y1155720D01*
X297160D01*
Y1150620D01*
X238760D01*
X233680Y1145540D01*
Y1134680D01*
X203420D01*
Y1104920D01*
X203180D01*
Y1104900D01*
X182900D01*
Y1104920D01*
X182660D01*
Y1134680D01*
X152620D01*
Y1104920D01*
X152380D01*
Y1104900D01*
X137160D01*
G37*
G36*
G01X1366520Y1537970D02*
X1346200D01*
X1318260Y1510030D01*
Y1489710D01*
X1346200Y1461770D01*
X1363980D01*
X1369060Y1466850D01*
Y1535430D01*
X1366520Y1537970D01*
G37*
G36*
G01X1402080D02*
X1422400D01*
X1450340Y1510030D01*
Y1489710D01*
X1422400Y1461770D01*
X1402080D01*
X1399540Y1464310D01*
Y1535430D01*
X1402080Y1537970D01*
G37*
G36*
G01X1785620Y1546860D02*
X1732280D01*
X1696720Y1511300D01*
Y1488440D01*
X1732280Y1452880D01*
X1783080D01*
X1788160Y1457960D01*
Y1544320D01*
X1785620Y1546860D01*
G37*
G36*
G01X1556560Y932180D02*
Y964320D01*
X1526800D01*
Y964560D01*
X1524000D01*
Y980440D01*
X1516380Y988060D01*
X1450340D01*
X1442720Y980440D01*
Y968920D01*
X1402080D01*
Y1014160D01*
X1437420D01*
Y1043920D01*
X1437660D01*
Y1046480D01*
X1457960D01*
X1465580Y1054100D01*
Y1168400D01*
X1470660Y1173480D01*
X1602740D01*
X1617980Y1158240D01*
Y942340D01*
X1607820Y932180D01*
X1556560D01*
G37*
G54D10*
X75000Y0D03*
X225000D03*
X375000D03*
X525000D03*
X0Y750000D03*
Y600000D03*
Y450000D03*
Y300000D03*
Y150000D03*
Y1500000D03*
Y1350000D03*
Y1200000D03*
Y1050000D03*
Y900000D03*
Y1650000D03*
X525000Y1800000D03*
X375000D03*
X225000D03*
X75000D03*
X675000Y0D03*
X825000D03*
X975000D03*
X1125000D03*
X1275000D03*
Y1800000D03*
X1125000D03*
X975000D03*
X825000D03*
X675000D03*
X1425000Y0D03*
X1575000D03*
X1725000D03*
X1800000Y150000D03*
Y300000D03*
Y450000D03*
Y600000D03*
Y750000D03*
Y900000D03*
Y1050000D03*
Y1200000D03*
Y1350000D03*
Y1650000D03*
X1725000Y1800000D03*
X1575000D03*
X1425000D03*
G54D11*
X406400Y385280D03*
Y285280D03*
X314960Y385280D03*
Y285280D03*
G54D20*
G01X373380Y815820D02*
Y743740D01*
G01X166020Y768440D02*
Y716280D01*
G01D02*
Y642180D01*
X173200Y635000D01*
G01X190500Y716280D02*
X166020D01*
G01X312420Y1110460D02*
X274800D01*
X274320Y1109980D01*
G01X312420Y1110460D02*
X363220D01*
G01X292340Y1315540D02*
X343940D01*
X391590Y1267890D01*
G01X292340Y1315540D02*
X241540D01*
G01X499240Y1157540D02*
X469650D01*
G02X426720Y1200470I0J42930D01*
G01Y1205460D01*
G03X408020Y1250600I-63827J2D01*
G01X391590Y1267030D01*
Y1267890D01*
G01X393940Y1384120D02*
X395560D01*
X451690Y1327990D01*
G01X569240Y1227540D02*
Y1244380D01*
G03X556710Y1274630I-42793J-5D01*
G03X506560Y1295400I-50150J-50160D01*
G01X504820D01*
G02X469760Y1309920I-3J49582D01*
G01X451690Y1327990D01*
G01X553720Y1411760D02*
X601980D01*
G01X499240Y1077540D02*
X570660D01*
G02X623140Y1055800I0J-74213D01*
G01X647700Y1031240D01*
G01X292340Y1375540D02*
X334560D01*
X343140Y1384120D01*
G01X137160Y1397000D02*
X158620Y1375540D01*
G01D02*
X241540D01*
G01X1290320Y287020D02*
X1290500Y286840D01*
G03X1330300I19900J19900D01*
G01X1333500Y290040D01*
G01X843280Y249400D02*
Y152400D01*
G01X1249200Y292100D02*
X1285240D01*
X1290320Y287020D01*
G01X1274600Y342900D02*
Y317500D01*
X1249200Y292100D01*
G01X937580Y248920D02*
X868760D01*
X868280Y249400D01*
X843280D01*
G01X1049240Y447540D02*
Y347760D01*
G01X792480Y309400D02*
X843280D01*
G01X809240Y357120D02*
Y336020D01*
G02X802270Y319190I-23804J0D01*
G01X792480Y309400D01*
G01X809240Y447540D02*
Y357120D01*
G01X1169240Y403260D02*
X1169840D01*
X1181940Y391160D01*
X1332280D01*
G01D02*
X1352100Y410980D01*
G02X1393140Y427980I41040J-41038D01*
G01X1455420D01*
G01X1332280Y391160D02*
X1333500Y389940D01*
Y350040D01*
G01X1169240Y447540D02*
Y403260D01*
G01X792480Y249400D02*
X779460D01*
G03X759460Y229400I0J-20000D01*
G01Y226060D01*
G01X977580Y248920D02*
X1044080D01*
X1054100Y238900D01*
G01X1189200Y292100D02*
Y317500D01*
X1214600Y342900D01*
G01D02*
X1150620D01*
G01X1129240Y447540D02*
Y377400D01*
G03X1138520Y355000I31674J0D01*
G01X1150620Y342900D01*
G01X1089240Y447540D02*
Y306400D01*
G03X1169100Y226540I79860J0D01*
G01X1336670D01*
G03X1383290Y245850I0J65932D01*
G01X1383300D01*
G02X1436710Y267980I53418J-53407D01*
G01X1455420D01*
G01X1300480Y1432560D02*
X1291100Y1441940D01*
G03X1276950Y1447800I-14150J-14154D01*
G01X1035330D01*
G03X993660Y1430540I4J-58940D01*
G01X964320Y1401200D01*
G02X935360Y1389200I-28965J28958D01*
G01X914400D01*
G01D02*
X866140D01*
G01X1396240Y1360680D02*
X1382300D01*
G02X1365330Y1367710I0J23997D01*
G01X1300480Y1432560D01*
G01X1279240Y1157540D02*
Y1200500D01*
X1280160Y1201420D01*
G01X1422400Y1089180D02*
Y1106950D01*
G03X1371810Y1157540I-50590J0D01*
G01X1279240D01*
G01X1385000Y1500000D02*
X949800D01*
X944240Y1505560D01*
X919240D01*
G01X1303020Y1567180D02*
X1293990Y1558150D01*
G02X1279000Y1551940I-14990J14987D01*
G01X1046410D01*
G02X994490Y1573450I3J73425D01*
G01X991680Y1576260D01*
G03X941380Y1597100I-50306J-50297D01*
G01X874320D01*
G01X1303020Y1567180D02*
X1302940Y1566960D01*
G01X1303020Y1567180D02*
X1376680Y1640840D01*
X1386840D01*
X1387220Y1641220D01*
X1403680D01*
G01X1541540Y949300D02*
X1589380D01*
G01X1422400Y1029180D02*
X1457480D01*
G01X1541540Y949300D02*
Y985280D01*
G01X1422640Y953900D02*
Y1003940D01*
G01X1422400Y1004180D02*
Y1029180D01*
G01X1551940Y1429000D02*
Y1396940D01*
X1520000Y1365000D01*
G01X1396240Y1360680D02*
X1400560Y1365000D01*
X1520000D01*
G01X1800000Y1350000D02*
X1653610D01*
G02X1638910Y1356090I0J20786D01*
G01X1636090Y1358910D01*
G03X1621390Y1365000I-14700J-14696D01*
G01X1520000D01*
G01X1422640Y1003940D02*
X1422400Y1004180D01*
G01X1481540Y949300D02*
Y893420D01*
G01D02*
X1459040D01*
X1458560Y893900D01*
X1422640D01*
G01X1351280Y863600D02*
X1353820Y861060D01*
X1353860D01*
G03X1397160Y879000I-5J61238D01*
G01X1412060Y893900D01*
X1422640D01*
G01X1579880Y893420D02*
X1541540D01*
G01X1503680Y1500000D02*
X1800000D01*
G01X1503680D02*
X1385000D01*
G01X1403680Y1641220D02*
X1513780D01*
X1520000Y1635000D01*
G01X1554480Y1579880D02*
Y1600520D01*
X1520000Y1635000D01*
G01X1800000Y1650000D02*
X1648850D01*
G03X1634150Y1643910I0J-20786D01*
G01X1631330Y1641090D01*
G02X1616630Y1635000I-14700J14696D01*
G01X1520000D01*
X610160Y1478260D03*
Y1518260D03*
Y1558260D03*
X650160Y1478260D03*
Y1518260D03*
Y1558260D03*
G54D30*
G01X246380Y297180D02*
X258280Y285280D01*
X314960D01*
G01X406400D02*
Y231140D01*
G01Y385280D02*
X314960D01*
G01X521970Y384810D02*
X489190D01*
X488720Y385280D01*
X406400D01*
G54D12*
X325120Y635480D03*
Y695480D03*
X373380Y683740D03*
Y743740D03*
X363220Y1170460D03*
Y1110460D03*
X292340Y1445080D03*
X393940Y1444120D03*
Y1384120D03*
X241540Y1445080D03*
X218440Y1119660D03*
Y1059660D03*
X167640Y1119660D03*
Y1059660D03*
X343140Y1444120D03*
Y1384120D03*
X292340Y1315540D03*
Y1375540D03*
X373380Y815820D03*
Y875820D03*
X312420Y1170460D03*
Y1110460D03*
X553720Y1411760D03*
Y1351760D03*
X601980Y1411760D03*
Y1351760D03*
X241540Y1315540D03*
Y1375540D03*
X292340Y1505080D03*
X241540D03*
X792480Y309400D03*
Y249400D03*
X1333500Y290040D03*
Y350040D03*
X843280Y309400D03*
Y249400D03*
X779780Y1389200D03*
Y1449200D03*
X731760Y1389200D03*
Y1449200D03*
X655320Y1411760D03*
Y1351760D03*
X914400Y1449200D03*
Y1389200D03*
X866140Y1449200D03*
Y1389200D03*
X1569720Y692940D03*
Y632940D03*
Y832640D03*
Y772640D03*
X1422640Y953900D03*
Y893900D03*
X1422400Y1029180D03*
Y1089180D03*
G54D21*
X508000Y1649730D03*
G54D31*
G01X281020Y768440D02*
Y732070D01*
G03X317610Y695480I36590J0D01*
G01X325120D01*
G01X233200Y635000D02*
Y680240D01*
X236220Y683260D01*
G01X499240Y557540D02*
X416560D01*
G01X499240Y517540D02*
X452400D01*
G01X416560Y472440D02*
X489690D01*
G02X517190Y461050I0J-38893D01*
G01X519310Y458930D01*
G03X546810Y447540I27500J27503D01*
G01X569240D01*
G01X609240Y378460D02*
Y447540D01*
G01X459740Y677540D02*
X379580D01*
X373380Y683740D01*
G01X499240Y677540D02*
X459740D01*
G01X499240Y637540D02*
X416560D01*
G01X499240Y597540D02*
X451060D01*
G01X325120Y635480D02*
X296700D01*
X289560Y642620D01*
G01X499240Y717540D02*
X424180D01*
G01X499240Y1117540D02*
X457140D01*
X450060Y1110460D01*
X363220D01*
G01X499240Y997540D02*
X462560D01*
G02X445900Y1004440I0J23563D01*
G01X443780Y1006560D01*
G03X427120Y1013460I-16660J-16663D01*
G01X274320D01*
X266700Y1005840D01*
X228120D01*
G01X499240Y957540D02*
X462430D01*
G02X443470Y965390I0J26822D01*
G01X440400Y968460D01*
G03X423750Y975360I-16650J-16639D01*
G01X411000D01*
G01X499240Y1037540D02*
X467990D01*
G02X447490Y1046030I0J28995D01*
G01X445370Y1048150D01*
G03X424870Y1056640I-20500J-20505D01*
G01X367820D01*
G01X601980Y1351760D02*
Y1328820D01*
X597520Y1324360D01*
Y1301860D01*
G01X609240Y1227540D02*
Y1270140D01*
X600020Y1279360D01*
G01X597520Y1281860D02*
Y1301860D01*
G01X601980Y1411760D02*
Y1470080D01*
X610160Y1478260D01*
G01X343140Y1444120D02*
X393940D01*
G01X292340Y1445080D02*
X342180D01*
X343140Y1444120D01*
G01X292340Y1445080D02*
X241540D01*
G01X218440Y1119660D02*
X167640D01*
G01X193040Y1186180D02*
X206800Y1172420D01*
G02X218440Y1144310I-28122J-28110D01*
G01X553720Y1351760D02*
X530380D01*
X510540Y1371600D01*
G01X218440Y1144310D02*
Y1119660D01*
G01X167640D02*
Y1139760D01*
G01X147540Y1119660D02*
X167640D01*
G01X335280Y833120D02*
Y828480D01*
X341730Y822030D01*
G03X356720Y815820I14990J14987D01*
G01X373380D01*
G01X351000Y927100D02*
X335280Y911380D01*
Y833120D01*
G01X166020Y918440D02*
Y981240D01*
X168120Y983340D01*
Y1005840D01*
G01X167640Y1059660D02*
Y1028820D01*
X168120Y1028340D01*
Y1005840D01*
G01X281020Y918440D02*
X251090D01*
X240740Y908090D01*
G01X351000Y975360D02*
X330210D01*
G03X292180Y959610I0J-53789D01*
G01X292160Y959590D01*
G03X281020Y932700I26903J-26898D01*
G01Y918440D01*
G01X499240Y837540D02*
X454960D01*
G01X499240Y797540D02*
X449460D01*
X449390Y797470D01*
X424110D01*
G01X499240Y757540D02*
X456180D01*
G01X274320Y1056640D02*
X249040D01*
X246020Y1059660D01*
X218440D01*
G01X274320Y1056640D02*
X307820D01*
G01X373380Y875820D02*
X419920D01*
X421640Y877540D01*
G01X363220Y1170460D02*
Y1191260D01*
X335280Y1219200D01*
G01X499240Y877540D02*
X421640D01*
G01X411000Y927100D02*
X445400D01*
X454960Y917540D01*
G01X499240D02*
X454960D01*
G01X415280Y1555860D02*
X477200D01*
G01D02*
Y1592900D01*
G01X610160Y1518260D02*
X584860D01*
G01X241540Y1505080D02*
X292340D01*
G01X355280Y1505060D02*
X314860D01*
X314840Y1505080D01*
X292340D01*
G01X355280Y1555860D02*
Y1505060D01*
G01X477200D02*
X415280D01*
G01X537200Y1555860D02*
Y1505060D01*
G01Y1555860D02*
X570340D01*
X572740Y1558260D01*
X610160D01*
G01X1279240Y557540D02*
X1299610D01*
G02X1329270Y545250I-5J-41948D01*
G01X1342880Y531640D01*
G03X1375420Y518160I32540J32535D01*
G01X1397480D01*
G01X1325220Y677190D02*
X1322130D01*
X1321780Y677540D01*
X1279240D01*
G01Y717540D02*
X1338850D01*
G02X1391890Y695570I0J-75010D01*
G01X1405190Y682270D01*
G03X1439870Y667900I34686J34677D01*
G01X1463180D01*
G01X1279240Y597540D02*
X1321020D01*
G02X1349900Y585580I0J-40848D01*
G01X1363980Y571500D01*
G01X1264920Y447040D02*
X1231900D01*
X1231400Y447540D01*
X1209240D01*
G01X1279240Y517540D02*
X1295630D01*
X1310640Y502530D01*
Y489190D01*
G01X1279240Y637540D02*
X1330910D01*
X1331090Y637360D01*
X1356370D01*
G01X1009240Y447540D02*
Y396200D01*
G01X649240Y447540D02*
Y363480D01*
G02X639370Y339650I-33702J0D01*
G01X627380Y327660D01*
G01X689240Y447540D02*
Y406400D01*
G01X889240Y447540D02*
Y344780D01*
G01X769240Y447540D02*
Y403510D01*
X769770Y402980D01*
G01X969240Y447540D02*
Y346060D01*
G01X929240Y447540D02*
Y394940D01*
G01X849240Y447540D02*
Y393680D01*
G01X729240Y447540D02*
Y367640D01*
G01X1279240Y757540D02*
X1324860D01*
G03X1371020Y776660I0J65280D01*
G01X1373140Y778780D01*
G02X1419300Y797900I46160J-46160D01*
G01X1463180D01*
G01X914400Y1449200D02*
Y1471700D01*
X919240Y1476540D01*
Y1505560D01*
G01X655320Y1351760D02*
Y1326560D01*
X657520Y1324360D01*
Y1301860D01*
G01X649240Y1227540D02*
Y1271080D01*
X657520Y1279360D01*
Y1301860D01*
G01X731760Y1389200D02*
X717860D01*
X693420Y1413640D01*
G01X655320Y1411760D02*
X691540D01*
X693420Y1413640D01*
G01X809240Y1227540D02*
Y1308100D01*
G01X1129240Y1227540D02*
Y1283530D01*
G02X1136970Y1302190I26387J0D01*
G01X1139080Y1304300D01*
G03X1146810Y1322960I-18657J18660D01*
G01Y1337310D01*
G01X889240Y1227540D02*
Y1308100D01*
G01X1209240Y1227540D02*
Y1246460D01*
G02X1222150Y1277630I44084J0D01*
G01X1237180Y1292660D01*
G01X812800Y1402080D02*
X805300Y1394580D01*
G02X792310Y1389200I-12990J12992D01*
G01X779780D01*
G01X1089240Y1227540D02*
Y1389380D01*
G01X1169240Y1227540D02*
Y1274980D01*
G02X1184270Y1311270I51326J0D01*
G01X1201420Y1328420D01*
G01X849240Y1227540D02*
Y1267820D01*
G01X1279240Y1117540D02*
X1320440D01*
G01X1279240Y1077540D02*
X1365460D01*
G01X1279240Y1037540D02*
X1322920D01*
G01X1279240Y997540D02*
X1361660D01*
G01X929240Y1270000D02*
Y1227540D01*
G01X1279240Y797540D02*
X1316530D01*
G03X1341120Y807720I0J34789D01*
G01X1351280Y817880D01*
Y838200D01*
G01X1279240Y837540D02*
X1350620D01*
X1351280Y838200D01*
G01X1279240Y877540D02*
X1328980D01*
G02X1343250Y871630I0J-20183D01*
G01X1351280Y863600D01*
G01X866140Y1449200D02*
Y1471700D01*
X859240Y1478600D01*
Y1505560D01*
G01X731760Y1449200D02*
X779780D01*
G01X650160Y1478260D02*
X662780Y1465640D01*
G03X688130Y1455140I25350J25351D01*
G01X708040D01*
X713980Y1449200D01*
X731760D01*
G01X969240Y1227540D02*
Y1310640D01*
G01X729240Y1227540D02*
Y1271820D01*
G01X1009240Y1227540D02*
Y1269140D01*
X1008380Y1270000D01*
G01X689240Y1227540D02*
Y1278830D01*
X690020Y1279610D01*
Y1306770D01*
G02X695740Y1320580I19531J0D01*
G01X703580Y1328420D01*
G01X1049240Y1227540D02*
Y1303020D01*
G01X769240Y1227540D02*
Y1304360D01*
X759080Y1314520D01*
G01X1279240Y917540D02*
X1362960D01*
G01X1279240Y957540D02*
X1319520D01*
G01X732240Y1505560D02*
X670350D01*
G02X657570Y1510850I0J18082D01*
G01X650160Y1518260D01*
G01X914320Y1558900D02*
Y1532980D01*
X919240Y1528060D01*
Y1505560D01*
G01X874320Y1558900D02*
X810020D01*
G01X874320D02*
Y1597100D01*
G01X859240Y1505560D02*
X792240D01*
G01X699140Y1558900D02*
X698500Y1558260D01*
X650160D01*
G01X750020Y1558900D02*
X699140D01*
G01X1569720Y772640D02*
Y746760D01*
X1582420Y734060D01*
G01D02*
X1569720Y721360D01*
Y692940D01*
G01X1477800Y571500D02*
X1518920D01*
G01X1463180Y667900D02*
X1489220D01*
G02X1528560Y651600I-6J-55638D01*
G01X1540320Y639840D01*
G03X1556970Y632940I16650J16639D01*
G01X1569720D01*
G01X1363980Y571500D02*
X1417800D01*
G01X1457480Y518160D02*
X1498600D01*
G01X1463180Y797900D02*
X1489410D01*
G03X1528790Y814210I0J55696D01*
G01X1540320Y825740D01*
G02X1556970Y832640I16650J-16639D01*
G01X1569720D01*
G01X1351280Y863600D02*
Y838200D01*
G54D22*
X937580Y248920D03*
X977580D03*
X914320Y1558900D03*
X874320D03*
G54D13*
X173200Y635000D03*
X233200D03*
X411000Y975360D03*
X351000D03*
X367820Y1056640D03*
X307820D03*
X228120Y1005840D03*
X168120D03*
X597520Y1301860D03*
X411000Y927100D03*
X351000D03*
X415280Y1505060D03*
X355280D03*
X537200Y1555860D03*
X477200D03*
X415280D03*
X355280D03*
X537200Y1505060D03*
X477200D03*
X1189200Y292100D03*
X1249200D03*
X1214600Y342900D03*
X1274600D03*
X657520Y1301860D03*
X919240Y1505560D03*
X859240D03*
X792240D03*
X732240D03*
X750020Y1558900D03*
X810020D03*
X1457480Y518160D03*
X1397480D03*
X1477800Y571500D03*
X1417800D03*
X1481540Y893420D03*
X1541540D03*
X1481540Y949300D03*
X1541540D03*
G54D32*
G01X312420Y1170460D02*
X257020D01*
G01X241540Y1375540D02*
X292340D01*
G54D14*
X166020Y768440D03*
X281020D03*
X166020Y918440D03*
X281020D03*
G54D23*
X1455420Y427980D03*
Y267980D03*
G54D15*
X499240Y717540D03*
Y677540D03*
Y637540D03*
Y597540D03*
Y557540D03*
Y517540D03*
Y1157540D03*
Y1117540D03*
Y1077540D03*
Y1037540D03*
Y997540D03*
Y957540D03*
Y917540D03*
Y877540D03*
Y837540D03*
Y797540D03*
Y757540D03*
X1279240Y517540D03*
Y557540D03*
Y597540D03*
Y637540D03*
Y677540D03*
Y717540D03*
Y757540D03*
Y797540D03*
Y837540D03*
Y877540D03*
Y917540D03*
Y957540D03*
Y997540D03*
Y1037540D03*
Y1077540D03*
Y1117540D03*
Y1157540D03*
G54D24*
X1463180Y667900D03*
Y797900D03*
G54D16*
X569240Y447540D03*
X609240D03*
Y1227540D03*
X569240D03*
X649240Y447540D03*
X689240D03*
X729240D03*
X769240D03*
X809240D03*
X849240D03*
X889240D03*
X929240D03*
X969240D03*
X1009240D03*
X1049240D03*
X1089240D03*
X1129240D03*
X1169240D03*
X1209240D03*
Y1227540D03*
X1169240D03*
X1129240D03*
X1089240D03*
X1049240D03*
X1009240D03*
X969240D03*
X929240D03*
X889240D03*
X849240D03*
X809240D03*
X769240D03*
X729240D03*
X689240D03*
X649240D03*
G54D25*
X1664970Y342900D03*
G54D17*
X889240Y837540D03*
G54D26*
X1385000Y1500000D03*
G54D18*
X246380Y297180D03*
X129540Y353060D03*
X190500Y716280D03*
X236220Y683260D03*
X416560Y557540D03*
X452400Y517540D03*
X416560Y472440D03*
X609240Y378460D03*
X459740Y677540D03*
X456180Y757540D03*
X416560Y637540D03*
X451060Y597540D03*
X289560Y642620D03*
X406400Y231140D03*
X424180Y717540D03*
X521970Y384810D03*
X274320Y1109980D03*
X137160Y1397000D03*
X510540Y1371600D03*
X335280Y833120D03*
X193040Y1186180D03*
X240740Y908090D03*
X454960Y837540D03*
X424110Y797470D03*
X274320Y1056640D03*
X335280Y1219200D03*
X421640Y877540D03*
X454960Y917540D03*
X134620Y1539240D03*
X477200Y1592900D03*
X584860Y1518260D03*
X1049240Y347760D03*
X1069340Y678180D03*
X939800D03*
X795020Y685800D03*
X995680Y591820D03*
X866140Y594360D03*
X739140D03*
X1290320Y287020D03*
X1325220Y677190D03*
X809240Y357120D03*
X1169240Y403260D03*
X1054100Y238900D03*
X759460Y226060D03*
X1264920Y447040D03*
X1310640Y489190D03*
X1150620Y342900D03*
X1009240Y396200D03*
X627380Y327660D03*
X689240Y406400D03*
X889240Y344780D03*
X769770Y402980D03*
X969240Y346060D03*
X929240Y394940D03*
X849240Y393680D03*
X729240Y367640D03*
X1300480Y1432560D03*
X647700Y1031240D03*
X800100Y1036320D03*
X937260D03*
X1064260Y1021080D03*
X1135380Y944880D03*
X1066800Y863600D03*
X937260Y868680D03*
X800100Y871220D03*
X731520Y774700D03*
X868680Y772160D03*
X1003300D03*
X1125220Y767080D03*
X1005840Y947420D03*
X876300Y952500D03*
X734060Y955040D03*
X881380Y1104900D03*
X1003300Y1107440D03*
X1135380Y1104900D03*
X731520Y1109980D03*
X693420Y1413640D03*
X809240Y1308100D03*
X1146810Y1337310D03*
X889240Y1308100D03*
X1237180Y1292660D03*
X812800Y1402080D03*
X1089240Y1389380D03*
X1201420Y1328420D03*
X849240Y1267820D03*
X1320440Y1117540D03*
X1322920Y1037540D03*
X929240Y1270000D03*
X1280160Y1201420D03*
X969240Y1310640D03*
X729240Y1271820D03*
X1008380Y1270000D03*
X703580Y1328420D03*
X1049240Y1303020D03*
X759080Y1314520D03*
X1319520Y957540D03*
X1303020Y1567180D03*
X874320Y1597100D03*
X699140Y1558900D03*
X1582420Y734060D03*
X1518920Y571500D03*
X1363980D03*
X1356370Y637360D03*
X1498600Y518160D03*
X1590040Y1219200D03*
X1595120Y1155700D03*
X1483360D03*
X1551940Y1429000D03*
X1396240Y1360680D03*
X1365460Y1077540D03*
X1361660Y997540D03*
X1579880Y893420D03*
X1362960Y917540D03*
X1503680Y1500000D03*
X1554480Y1579880D03*
X1403680Y1641220D03*
G54D27*
X1520000Y1365000D03*
Y1635000D03*
G54D19*
X391590Y1267890D03*
X451690Y1327990D03*
G54D28*
X1800000Y1500000D03*
G54D29*
G01X600020Y1279360D02*
X597520Y1281860D01*
M02*
