G04 ================== begin FILE IDENTIFICATION RECORD ==================*
G04 Layout Name:  ASR6601CB_PA_LNA_MD_V11_240312.brd*
G04 Film Name:    BOTTOM*
G04 File Format:  Gerber RS274X*
G04 File Origin:  Cadence Allegro 16.6-2015-S088*
G04 Origin Date:  Thu Mar 14 11:44:11 2024*
G04 *
G04 Layer:  ETCH/BOTTOM*
G04 Layer:  PIN/BOTTOM*
G04 Layer:  VIA CLASS/BOTTOM*
G04 *
G04 Offset:    (0.0000 0.0000)*
G04 Mirror:    No*
G04 Mode:      Positive*
G04 Rotation:  0*
G04 FullContactRelief:  No*
G04 UndefLineWidth:     0.0000*
G04 ================== end FILE IDENTIFICATION RECORD ====================*
%FSLAX25Y25*MOMM*%
%IR0*IPPOS*OFA0.00000B0.00000*MIA0B0*SFA1.00000B1.00000*%
%ADD16O,1.2X.4*%
%ADD12O,.4X1.2*%
%ADD13C,.508*%
%ADD11C,.4064*%
%ADD15C,.6096*%
%ADD17O,1.4X1.*%
%ADD10R,1.4X1.*%
%ADD14R,1.X1.4*%
%ADD18C,.2*%
%ADD19C,.3*%
%ADD20C,.5*%
%ADD21C,.25*%
%ADD23C,.864*%
%ADD22C,.7624*%
G75*
%LPD*%
G75*
G36*
G01X640320Y607490D02*
G02X645890Y624770I11236J5916D01*
G03X598260Y681600I-17021J34110D01*
G01X581030D01*
X577570Y693000D01*
X580780Y695700D01*
G03X576170Y757420I-24495J29203D01*
G01X574810Y758250D01*
X571580Y763750D01*
X573280Y768050D01*
X574030Y768890D01*
G03X576150Y771500I-28502J25317D01*
G01X629970D01*
X680100Y821630D01*
Y1455130D01*
X628690Y1506540D01*
X574090D01*
G03X506900Y1473080I-30614J-22717D01*
G02X497920Y1457210I-12183J-3582D01*
G03X476910Y1443040I9598J-36892D01*
G01X392470D01*
X332120Y1503390D01*
Y2062190D01*
X171590Y2222720D01*
X95420D01*
Y2275420D01*
X-440D01*
Y2311880D01*
X108120D01*
Y2488120D01*
X-440D01*
Y2524580D01*
X95420D01*
Y2562280D01*
X208840D01*
X351620Y2419500D01*
X352090Y2418040D01*
G03X380020Y2390110I41130J13200D01*
G01X381480Y2389640D01*
X486820Y2284300D01*
X1791080D01*
Y2274550D01*
X1790380Y2273190D01*
G03X1867220I38420J-19750D01*
G01X1866520Y2274550D01*
Y2284300D01*
X2448060D01*
X2551840Y2388080D01*
Y2453310D01*
X2552540Y2454670D01*
G03X2475700I-38420J19750D01*
G01X2476400Y2453310D01*
Y2419320D01*
X2416820Y2359740D01*
X518060D01*
X434820Y2442980D01*
X434350Y2444440D01*
G03X406420Y2472370I-41130J-13200D01*
G01X404960Y2472840D01*
X240080Y2637720D01*
X95420D01*
Y2675420D01*
X-440D01*
Y2699540D01*
G02X99520Y2799500I99960J0D01*
G01X611880D01*
Y2691880D01*
X788120D01*
Y2799500D01*
X824580D01*
Y2704580D01*
X860960D01*
Y2463920D01*
G03X937630Y2462310I37719J-30139D01*
G01X936400Y2463990D01*
Y2479880D01*
X1065620D01*
X1137720Y2551980D01*
Y2704580D01*
X1175420D01*
Y2799500D01*
X3900020D01*
G02X3999980Y2699540I0J-99960D01*
G01Y1688120D01*
X3891880D01*
Y1511880D01*
X3999980D01*
Y1475420D01*
X3980000D01*
G03Y1324580I0J-75420D01*
G01X3999980D01*
Y1288120D01*
X3891880D01*
Y1111880D01*
X3999980D01*
Y100460D01*
G02X3900020Y500I-99960J0D01*
G01X1175420D01*
Y95420D01*
X1024580D01*
Y500D01*
X975420D01*
Y95420D01*
X824580D01*
Y500D01*
X788120D01*
Y108120D01*
X611880D01*
Y500D01*
X99520D01*
G02X-440Y100460I0J99960D01*
G01Y124580D01*
X95420D01*
Y174780D01*
X214590D01*
X324460Y284650D01*
Y492930D01*
X396050Y564520D01*
X578000D01*
G03X640320Y607490I28584J25221D01*
G37*
G36*
G01X593640Y636160D02*
Y625820D01*
X590050Y624090D01*
G03X578000Y614960I16538J-34344D01*
G01X375150D01*
X274020Y513830D01*
Y305550D01*
X193690Y225220D01*
X95420D01*
Y275420D01*
X-440D01*
Y311880D01*
X108120D01*
Y488120D01*
X-440D01*
Y524580D01*
X95420D01*
Y577280D01*
X120790D01*
X179670Y636160D01*
X593640D01*
G37*
G36*
G01X634660Y1436310D02*
Y840450D01*
X611150Y816940D01*
X576150D01*
G03X550720Y831990I-30613J-22717D01*
G02X545290Y839090I869J6291D01*
G03X501250Y801380I-42850J5472D01*
G02X507430Y794910I-171J-6350D01*
G03X525670Y761690I38112J-691D01*
G01X527020Y760860D01*
X530250Y755370D01*
X528550Y751070D01*
X527800Y750230D01*
G03X525680Y747620I28502J-25317D01*
G01X184830D01*
X109730Y822720D01*
X95420D01*
Y875420D01*
X-440D01*
Y924580D01*
X95420D01*
Y977280D01*
X109730D01*
X124430Y991980D01*
X481320D01*
G03X547260Y1029000I30604J22724D01*
G02X550420Y1037120I5887J2384D01*
G03X545770Y1107790I-16409J34408D01*
G01X543890Y1108400D01*
X539210Y1114510D01*
X539660Y1117220D01*
G03X534020Y1144190I-37615J6209D01*
G02X536380Y1160730I10649J6919D01*
G03X542870Y1211280I-24872J28885D01*
G02X544180Y1219890I5227J3609D01*
G03X544410Y1279710I-23519J30001D01*
G02X541120Y1295640I7907J9938D01*
G03X545620Y1314830I-33600J18002D01*
G02X555140Y1327530I12694J402D01*
G03X554840Y1401430I-9520J36912D01*
G02X545320Y1415390I3073J12322D01*
G03X544100Y1431060I-37800J4940D01*
G02X553080Y1446930I12183J3582D01*
G03X574090Y1461100I-9598J36892D01*
G01X609870D01*
X634660Y1436310D01*
G37*
G36*
G01X259950Y1212340D02*
X274430D01*
X319870Y1166900D01*
X461590D01*
G02X471700Y1146510I0J-12701D01*
G03X471920Y1100070I30340J-23077D01*
G02X471400Y1091690I-5014J-3895D01*
G01X456990Y1077280D01*
X174030D01*
X144160Y1107150D01*
Y1188290D01*
X109730Y1222720D01*
X95420D01*
Y1275420D01*
X-440D01*
Y1324580D01*
X95420D01*
Y1377280D01*
X109490D01*
X207660Y1279110D01*
Y1264630D01*
X259950Y1212340D01*
G37*
G36*
G01X158320Y1575450D02*
X95420Y1638350D01*
Y1675420D01*
X-440D01*
Y1724580D01*
X95420D01*
Y1742110D01*
G02X117100Y1751090I12700J0D01*
G01X180000Y1688190D01*
Y1584430D01*
G02X158320Y1575450I-12700J0D01*
G37*
G36*
G01X209120Y1723330D02*
X109730Y1822720D01*
X95420D01*
Y1875420D01*
X-440D01*
Y1924580D01*
X95420D01*
Y1977280D01*
X147030D01*
X230800Y1893510D01*
Y1732310D01*
G02X209120Y1723330I-12700J0D01*
G37*
G36*
G01X286680Y1932550D02*
G02X265000Y1923570I-12700J0D01*
G01X165850Y2022720D01*
X95420D01*
Y2075420D01*
X-440D01*
Y2124580D01*
X95420D01*
Y2177280D01*
X152770D01*
X286680Y2043370D01*
Y1932550D01*
G37*
%LPC*%
G75*
G36*
G01X804560Y1379810D02*
G02X759120I-22720J-30610D01*
G01Y1409250D01*
X770550Y1420680D01*
Y1480760D01*
X711470Y1539840D01*
X439690D01*
X370500Y1609030D01*
Y2013930D01*
X455730Y2099160D01*
X675830D01*
G02Y2053720I30610J-22720D01*
G01X474550D01*
X415940Y1995110D01*
Y1627850D01*
X458510Y1585280D01*
X730290D01*
X815990Y1499580D01*
Y1401860D01*
X804560Y1390430D01*
Y1379810D01*
G37*
G36*
G01X2917850Y424500D02*
G02Y379060I30610J-22720D01*
G01X2786650D01*
X2679970Y485740D01*
X1905270D01*
X1793510Y597500D01*
X1308370D01*
X1255030Y650840D01*
X769430D01*
G03X756740Y638820I-7J-12701D01*
G02X714830Y678810I-38064J2064D01*
G01X717080Y679030D01*
X734330Y696280D01*
X1270120D01*
G03X1274610Y707120I0J6350D01*
G01X1261840Y719890D01*
X1258940Y719680D01*
G02X1263330Y795140I-2778J38019D01*
G03X1270680Y799810I1196J6236D01*
G02X1283550Y819960I36941J-9409D01*
G03X1285990Y837010I-8021J9847D01*
G02X1278410Y863580I35570J24514D01*
G03X1264770Y876850I-12686J605D01*
G02X1292510Y937580I-2870J38011D01*
G01X2512330D01*
X2534580Y959830D01*
Y1031950D01*
X2534950Y1032320D01*
Y1165290D01*
G02X2580390I22720J30610D01*
G01Y1013500D01*
X2580020Y1013130D01*
Y941010D01*
X2531150Y892140D01*
X1374510D01*
G03X1362480Y875370I0J-12700D01*
G02X1345250Y825390I-40920J-13853D01*
G03X1341070Y808680I6963J-10620D01*
G02X1345640Y787620I-33449J-18284D01*
G01X1345430Y784720D01*
X1411010Y719140D01*
X1776950D01*
G03X1787470Y738960I3J12700D01*
G02X1859010I35770J24220D01*
G03X1869530Y719140I10517J-7120D01*
G01X1878360D01*
X1990120Y607380D01*
X2781570D01*
X2819060Y644870D01*
Y858850D01*
G02X2864500I22720J30610D01*
G01Y626050D01*
X2800390Y561940D01*
X2780370D01*
G03X2771390Y540260I0J-12700D01*
G01X2778080Y533570D01*
X2780980Y533780D01*
G02X2796120Y459700I2781J-38019D01*
G03X2791260Y438710I4123J-12012D01*
G01X2805470Y424500D01*
X2917850D01*
G37*
G54D23*
X474500Y350980D03*
X405920Y2242020D03*
X1228880Y594820D03*
X1785140Y356060D03*
G54D22*
X884710Y1373330D03*
X1124740Y1392380D03*
%LPD*%
G75*
G54D10*
X0Y200000D03*
Y400000D03*
Y800000D03*
Y600000D03*
Y1000000D03*
Y1200000D03*
Y1400000D03*
Y1600000D03*
Y1800000D03*
Y2000000D03*
Y2200000D03*
Y2600000D03*
Y2400000D03*
X4000000Y1200000D03*
Y1600000D03*
G54D20*
G01X122160Y400000D02*
X90200D01*
X88420Y401780D01*
X110640D01*
G01X87660Y2400000D02*
X117080D01*
G01X0Y2600000D02*
X224460D01*
X393220Y2431240D01*
G01X1828800Y2322020D02*
X502440D01*
X393220Y2431240D01*
G01X1100000Y2800000D02*
Y2567600D01*
X1050000Y2517600D01*
X898680D01*
G01Y2433780D02*
Y2517600D01*
G01X900000Y2800000D02*
Y2684680D01*
X898680Y2683360D01*
Y2517600D01*
G01X1828800Y2322020D02*
X2432440D01*
X2514120Y2403700D01*
Y2474420D01*
G01X1828800Y2253440D02*
Y2322020D01*
G54D11*
X111900Y297640D03*
Y503380D03*
X84100Y400000D03*
X90960Y902160D03*
X101120Y1303480D03*
X108740Y1905460D03*
X103660Y1697180D03*
Y2103580D03*
X108740Y2291540D03*
Y2509980D03*
X87660Y2400000D03*
X113820Y2746200D03*
X289080Y66500D03*
X172240D03*
X311940Y180800D03*
X187480Y577040D03*
X184940Y833580D03*
Y940260D03*
Y1194260D03*
Y1834340D03*
X187480Y2070560D03*
X154460Y2685240D03*
X261140Y2687780D03*
X322100Y2741120D03*
X215420Y2743660D03*
X388140Y66500D03*
X512600D03*
X530380Y178260D03*
X423700D03*
X556290Y724900D03*
X545540Y794220D03*
X502040Y1123440D03*
X511510Y1189620D03*
X534010Y1071530D03*
X511930Y1014700D03*
X507520Y1420320D03*
X545620Y1364440D03*
X520660Y1249890D03*
X507520Y1313640D03*
Y1681940D03*
X543480Y1483820D03*
X464340Y1867360D03*
X471960Y1765760D03*
X550700Y1742900D03*
X535460Y1821640D03*
X568480Y1900380D03*
X471960Y1971500D03*
X525950Y1943180D03*
X578640Y2001980D03*
X372900Y2695400D03*
X487200Y2690320D03*
X400840Y2616660D03*
X527840Y2618100D03*
X540540Y2741120D03*
X428780D03*
X743740Y175720D03*
X637060Y178260D03*
X698020Y117300D03*
X619280Y111900D03*
X769140D03*
X690030Y348070D03*
X606580Y589740D03*
X628870Y658880D03*
X718680Y640880D03*
X761520Y846280D03*
X817400Y912320D03*
X758980Y980900D03*
X819940Y1054560D03*
X764060Y1120600D03*
X781840Y1349200D03*
X751360Y1659080D03*
X817400Y2009600D03*
X649760Y1935940D03*
X753900Y1943560D03*
X706440Y2076440D03*
X708180Y2520140D03*
X642140Y2618100D03*
X761520D03*
X621820Y2700480D03*
X780400Y2703020D03*
X700000Y2689360D03*
X898680Y841200D03*
X1033300Y848820D03*
X967260Y919940D03*
X1038380Y970740D03*
X896140Y975820D03*
X969800Y1052020D03*
X1035840Y1115520D03*
X898680Y1118060D03*
X1048540Y1384760D03*
X884710Y1373330D03*
X939320Y1669240D03*
X875820Y1953720D03*
X952020Y1961340D03*
X891060Y2037540D03*
X898680Y2126440D03*
X959640Y2050240D03*
X974880Y2123900D03*
X1018060Y1976580D03*
X1180620Y345900D03*
X1061240Y353520D03*
X1256160Y757700D03*
X1261900Y914860D03*
Y1046940D03*
X1188240Y1270460D03*
X1124740Y1392380D03*
X1145060Y1852120D03*
X1211100Y1786080D03*
X1218720Y1869900D03*
X1147600Y1763220D03*
X1117120Y1697180D03*
X1195860Y1699720D03*
X1081560Y2116280D03*
X1053620Y2045160D03*
X1101880Y1948640D03*
X1193320Y1956260D03*
X1218720Y2070560D03*
X1122200Y2035000D03*
X1155220Y2134060D03*
X1164440Y2222960D03*
X1216180Y2532840D03*
X1164440Y2418540D03*
X1432080Y43640D03*
X1297460Y46180D03*
X1459640Y500840D03*
X1388900Y353520D03*
Y424640D03*
X1275440Y347670D03*
X1460020Y561800D03*
X1449860Y970740D03*
X1360960Y968200D03*
X1307620Y790400D03*
X1327590Y1022210D03*
X1491170Y1018860D03*
X1404600Y1022290D03*
X1457480Y1280620D03*
X1442240Y1356820D03*
X1373660Y1275540D03*
X1449860Y1831800D03*
Y1892760D03*
X1279680Y1699720D03*
Y1786080D03*
X1282220Y1872440D03*
Y2037540D03*
X1292380Y2123900D03*
X1297460Y1974040D03*
X1358420Y2040080D03*
X1429540Y2088340D03*
X1368580Y2134060D03*
X1470180Y2144220D03*
X1317780Y2530300D03*
X1399060D03*
X1493040Y2527760D03*
X1434620Y2611580D03*
X1284760Y2614120D03*
X1302540Y2713180D03*
X1409220D03*
X1675920Y48720D03*
X1548920Y46180D03*
X1696240Y511000D03*
X1564160Y429720D03*
X1698780Y571960D03*
X1538760Y970740D03*
X1632740Y973280D03*
X1579400Y1036780D03*
X1698780Y1025320D03*
X1701320Y1377140D03*
X1724180Y1288240D03*
X1528600Y1356820D03*
X1635280Y1285700D03*
X1548920Y1280620D03*
X1663220Y1659080D03*
X1660680Y1539700D03*
X1708940Y1486360D03*
X1627660Y1603200D03*
X1561620Y1549860D03*
X1559080Y1654000D03*
X1688620Y1747980D03*
X1670840Y1841960D03*
X1658140Y1905460D03*
X1520980Y2090880D03*
X1607340D03*
X1682740Y2094220D03*
X1645440Y2144220D03*
X1564160Y2141680D03*
X1724180Y2146760D03*
X1602260Y2527760D03*
X1716560Y2532840D03*
X1515900Y2718260D03*
X1637820Y2720800D03*
X1622580Y2619200D03*
X1919760Y41100D03*
X1797840Y48720D03*
X1935000Y858980D03*
X1848640Y856440D03*
X1736880Y973280D03*
X1848640Y975820D03*
X1937540Y980900D03*
X1896900Y1034240D03*
X1790220Y1021540D03*
X1891820Y1105360D03*
X1903780Y1380850D03*
X1802180D03*
X1865680Y1446890D03*
X1764080D03*
X1904520Y1288240D03*
X1815620D03*
X1731800Y1577800D03*
X1736880Y1676860D03*
X1919020Y1510390D03*
X1817420D03*
X1863140Y1578970D03*
X1940080Y1656540D03*
X1800380Y1603200D03*
X1838480Y1664160D03*
X1785140Y1841960D03*
X1795300Y1732740D03*
X1899440Y1722580D03*
X1736880Y1791160D03*
X1861340Y1783540D03*
X1754660Y1905460D03*
X1767360Y2090880D03*
X1856260D03*
X1937540D03*
X1904520Y2144220D03*
X1818160D03*
X1838480Y2527760D03*
X1752120Y2723340D03*
X1757200Y2616660D03*
X1881660D03*
X1848640Y2720800D03*
X2112800Y76660D03*
X2021360Y36020D03*
X2142830Y327390D03*
X2097110Y267570D03*
X2127590Y449310D03*
X2081870Y389490D03*
X2056920Y660860D03*
X2016280Y1044400D03*
X2039140Y1105360D03*
X1968020Y1102820D03*
X2101900Y1380850D03*
X2007920D03*
X2157780Y1446890D03*
X2063800D03*
X1969820D03*
X2084860Y1285700D03*
X1990880Y1288240D03*
X2039140Y1654000D03*
X2117140Y1510390D03*
X2023160D03*
X2162860Y1578970D03*
X1964740D03*
X2068880D03*
X2109520Y1652630D03*
X1995960Y1841960D03*
X1983260Y1720040D03*
X2074700Y1839420D03*
X2120420Y1788620D03*
X2077240Y1727660D03*
X2158520Y1722580D03*
X1955320Y1786080D03*
X2036600Y1783540D03*
X1955320Y1902920D03*
X2046760D03*
X2021360Y2090880D03*
X1983260Y2141680D03*
X1952780Y2527760D03*
X2072160Y2515060D03*
X2158520Y2517600D03*
X2036600Y2611580D03*
X1970560Y2723340D03*
X2089940D03*
X2371880Y71580D03*
X2224560D03*
X2335870Y324850D03*
X2394290Y267570D03*
X2290150Y265030D03*
X2236810Y327390D03*
X2201250Y270110D03*
X2221570Y449310D03*
X2186010Y392030D03*
X2313460Y451440D03*
X2267740Y391620D03*
X2371880Y394160D03*
X2328700Y668480D03*
X2214400Y973280D03*
X2224560Y848820D03*
X2275360Y973280D03*
X2302560Y1378310D03*
X2200960D03*
X2259380Y1446890D03*
X2363520D03*
X2265200Y1288240D03*
X2178840D03*
X2307640Y1510390D03*
X2206040D03*
X2361720Y1577800D03*
X2257580D03*
X2313460Y1654000D03*
X2204240Y1651460D03*
X2206780Y1852120D03*
X2364260Y1839420D03*
X2267740D03*
X2209320Y1788620D03*
X2313460Y1786080D03*
X2260120Y1722580D03*
X2364260D03*
X2316000Y2103580D03*
X2399020Y2106320D03*
X2353100Y2724570D03*
X2205780D03*
X2506500Y71580D03*
X2465860Y185880D03*
X2618260Y183340D03*
X2620350Y324850D03*
X2526370D03*
X2584790Y267570D03*
X2480650Y265030D03*
X2429850Y324850D03*
X2623340Y396700D03*
X2544600Y394160D03*
X2458240D03*
X2567460Y451440D03*
X2488720D03*
X2407440D03*
X2422680Y640540D03*
X2514120Y638000D03*
X2597940Y640540D03*
X2535260Y803020D03*
X2448570Y800840D03*
X2483640Y972340D03*
X2592860Y846280D03*
X2602620Y1003760D03*
Y927560D03*
X2470940Y1168860D03*
X2509040Y1069800D03*
X2605560Y1082500D03*
X2557670Y1195900D03*
X2463320Y1448260D03*
X2608100Y1339040D03*
X2620800Y1250140D03*
X2554760Y1443180D03*
X2618260Y1504140D03*
X2561640Y1573890D03*
X2614980Y1650090D03*
X2505760Y1510390D03*
X2411780D03*
X2468400Y1575260D03*
X2516660Y1656540D03*
X2412520Y1654000D03*
X2521740Y1852120D03*
X2621770Y1776920D03*
X2562380Y1725120D03*
X2597940Y1833040D03*
X2458240Y1839420D03*
X2409980Y1788620D03*
X2458240Y1722580D03*
X2503960Y1786080D03*
X2615720Y2525220D03*
X2425220Y2532840D03*
X2409980Y2611580D03*
X2554760D03*
X2487720Y2724570D03*
X2818920Y66500D03*
X2658900Y71580D03*
X2737640Y180800D03*
X2849400Y178260D03*
X2805770Y324850D03*
X2711790D03*
X2770210Y267570D03*
X2666070Y265030D03*
X2709700Y399240D03*
X2648740Y451440D03*
X2783760Y495760D03*
X2676680Y640540D03*
X2757960Y643080D03*
X2643660Y782780D03*
X2841780Y889460D03*
X2681760Y1196800D03*
X2636040Y1146000D03*
X2633500Y1407620D03*
X2724940Y1377140D03*
X2684300Y1280620D03*
X2775740Y1316180D03*
X2811300Y1397460D03*
X2663240Y1573890D03*
X2767380D03*
X2811300Y1674320D03*
X2719860Y1488900D03*
X2803680Y1600660D03*
X2808760Y1504140D03*
X2666520Y1849580D03*
X2684300Y1781000D03*
X2679220Y1694640D03*
X2750340Y1857200D03*
Y1775920D03*
X2808760Y1745440D03*
Y1819100D03*
X2806220Y1908000D03*
X2694460Y1913080D03*
X2811300Y2085800D03*
X2730020D03*
X2806220Y2177240D03*
X2803680Y2266140D03*
X2821460Y2525220D03*
X2719860D03*
X2811300Y2390600D03*
X2849400Y2614120D03*
X2694460Y2616660D03*
X2640120Y2724570D03*
X2800140Y2719490D03*
X2978940Y66500D03*
X2971320Y180800D03*
X2958390Y264170D03*
X3052370D03*
X2866950D03*
X2996490Y320050D03*
X2905050D03*
X3050060Y391620D03*
X2948460Y401780D03*
X3044980Y696420D03*
X3039900Y876760D03*
X2986560Y2095960D03*
X2900200Y2090880D03*
X3006880Y2253440D03*
X3062760Y2322020D03*
X2956080D03*
X2859560Y2324560D03*
X2900200Y2268680D03*
X3055140Y2179780D03*
X2943380Y2182320D03*
X3057680Y2454100D03*
X2961160Y2456640D03*
X2867180Y2459180D03*
X3001800Y2520140D03*
X2910360Y2522680D03*
X2915440Y2388060D03*
X3006880D03*
X3011960Y2616660D03*
X2960160Y2719490D03*
X3225320Y69040D03*
X3118640Y66500D03*
X3138960Y183340D03*
X3278430Y325130D03*
X3227630Y274330D03*
X3141270Y266710D03*
X3179370Y322590D03*
X3090470Y320050D03*
X3204770Y406410D03*
X3298750D03*
X3113330D03*
X3235250Y482610D03*
X3143810D03*
X3270810Y553730D03*
X3179370D03*
X3217470Y619770D03*
X3126030D03*
X3230400Y696420D03*
X3136420D03*
X3116100Y876760D03*
X3095780Y1077420D03*
X3083080Y1161240D03*
X3159280Y1306020D03*
X3154200Y1400000D03*
X3293900Y1435560D03*
X3243100Y1359360D03*
X3220240Y1270460D03*
X3085620Y1438100D03*
Y1341580D03*
Y1247600D03*
X3304060Y1610820D03*
X3151660Y1493980D03*
Y1587960D03*
X3154200Y1669240D03*
X3240560Y1524460D03*
X3088160Y1626060D03*
X3085620Y1532080D03*
X3271040Y1697180D03*
X3268500Y1763220D03*
X3258340Y1834340D03*
X3156740Y1745440D03*
Y1829260D03*
X3085620Y1892760D03*
X3088160Y1796240D03*
Y1712420D03*
X3235480Y1928320D03*
X3268500Y1999440D03*
X3205000Y2085800D03*
X3161820Y2027380D03*
Y1920700D03*
X3083080Y2078180D03*
Y1981660D03*
X3161820Y2174700D03*
X3255800Y2179780D03*
X3301520Y2253440D03*
X3210080D03*
X3121180D03*
X3250720Y2327100D03*
X3159280Y2324560D03*
X3293900Y2388060D03*
X3197380D03*
X3111020Y2385520D03*
X3240560Y2454100D03*
X3146580D03*
X3286280Y2525220D03*
X3184680Y2520140D03*
X3095780Y2522680D03*
X3245640Y2715720D03*
X3296440Y2611580D03*
X3144040Y2614120D03*
X3099860Y2719490D03*
X3448840Y66500D03*
X3337080Y69040D03*
X3319300Y185880D03*
X3494560Y226520D03*
X3369870Y325130D03*
X3319070Y274330D03*
X3413050D03*
X3494560Y361140D03*
Y480520D03*
X3387650Y408950D03*
X3418130Y485150D03*
X3329230Y482610D03*
X3499640Y607520D03*
Y719280D03*
X3405660Y696420D03*
X3364790Y553730D03*
X3400350Y622310D03*
X3311450Y619770D03*
X3319300Y698960D03*
X3387880Y770080D03*
Y861520D03*
Y950420D03*
X3497100Y1062180D03*
X3390420Y1036780D03*
X3392960Y1118060D03*
Y1209500D03*
X3425980Y1293320D03*
X3509800Y1316180D03*
X3372640Y1643840D03*
X3334540Y1547320D03*
X3428520Y1577800D03*
X3392960Y1481280D03*
X3502180Y1486360D03*
X3494560Y1747980D03*
X3377720Y1730200D03*
X3354860Y1826720D03*
X3403120Y1890220D03*
X3492020Y2118820D03*
X3321840Y1918160D03*
X3395500Y1999440D03*
X3410740Y2111200D03*
X3321840Y2080720D03*
X3492020Y2250900D03*
X3362480Y2182320D03*
X3408200Y2253440D03*
X3354860Y2324560D03*
X3494560Y2360120D03*
X3497100Y2487120D03*
X3398040Y2388060D03*
X3347240Y2456640D03*
X3387880Y2522680D03*
X3509800Y2718260D03*
X3385340D03*
X3453920Y2611580D03*
X3636800Y63960D03*
X3733320Y69040D03*
X3552980Y63960D03*
X3591080Y137620D03*
X3672360Y130000D03*
X3723160Y211280D03*
X3624100Y206200D03*
X3679980Y274780D03*
X3588540Y282400D03*
X3568220Y1029160D03*
X3667280Y1031700D03*
X3730780Y1092660D03*
X3621560Y1095200D03*
X3672360Y1179020D03*
X3606320D03*
X3613940Y1318720D03*
X3725700D03*
X3740940Y1626060D03*
X3669820Y1628600D03*
X3603780D03*
X3611400Y1486360D03*
X3718080D03*
X3644420Y1727660D03*
X3738400Y1725120D03*
X3690140Y1796240D03*
X3601240Y1801320D03*
X3753640Y2568400D03*
X3634260D03*
X3700300Y2631900D03*
X3588540Y2634440D03*
X3746020Y2715720D03*
X3636800Y2710640D03*
X3946680Y69040D03*
X3855240Y66500D03*
X3900960Y132540D03*
X3789200Y130000D03*
X3946680Y201120D03*
X3845080Y208740D03*
X3779040Y274780D03*
X3959380Y307800D03*
X3855240D03*
X3949220Y442420D03*
X3860320Y439880D03*
X3941600Y571960D03*
X3857780D03*
X3946680Y706580D03*
X3860320Y701500D03*
X3941600Y846280D03*
X3855240Y841200D03*
X3898420Y1016460D03*
X3786660Y1021540D03*
X3827300Y1092660D03*
X3761260Y1176480D03*
X3911120Y1114010D03*
X3889360Y1200000D03*
X3913980Y1287350D03*
X3829840Y1308560D03*
X3824760Y1646380D03*
X3911440Y1511440D03*
X3880640Y1603200D03*
X3829840Y1501600D03*
X3817140Y1725120D03*
X3951760Y1801320D03*
X3862860Y1798780D03*
X3776500D03*
X3906040Y1692100D03*
X3956840Y1963880D03*
X3954300Y2101040D03*
X3873020Y2098500D03*
X3870480Y1963880D03*
X3954300Y2220420D03*
X3875560Y2228040D03*
X3954300Y2360120D03*
X3875560D03*
X3906040Y2502360D03*
X3959380Y2565860D03*
X3860320D03*
X3900960Y2634440D03*
X3806980D03*
X3941600Y2713180D03*
X3852700D03*
G54D21*
G01X0Y305530D02*
Y400000D01*
G01X606580Y589740D02*
X385600D01*
X299240Y503380D01*
Y295100D01*
X204140Y200000D01*
X0D01*
G01Y400000D02*
Y494470D01*
G01Y2305530D02*
Y2400000D01*
G01D02*
Y2494470D01*
G01X700000Y0D02*
Y114470D01*
G01X618230Y2685530D02*
X700000Y2800000D01*
G01X3885530Y1118230D02*
X4000000Y1200000D01*
G01X3885530Y1518230D02*
X4000000Y1600000D01*
G54D12*
X187480Y419560D03*
X182400Y2398220D03*
X3494560Y889460D03*
Y1923240D03*
G54D13*
X474500Y350980D03*
X502440Y844560D03*
X405920Y2242020D03*
X393220Y2431240D03*
X609120Y1641300D03*
X1228880Y594820D03*
X1321560Y861520D03*
X1785140Y356060D03*
X1823240Y763180D03*
X1828800Y2253440D03*
X2514120Y2474420D03*
G54D14*
X700000Y0D03*
Y2800000D03*
X900000Y0D03*
Y2800000D03*
X1100000Y0D03*
Y2800000D03*
G54D15*
X898680Y2433780D03*
G54D16*
X2214160Y2607600D03*
X2219240Y187520D03*
G54D17*
X4000000Y1400000D03*
G54D18*
G01X628870Y658880D02*
X170260D01*
X111380Y600000D01*
X0D01*
G01X556290Y724900D02*
X175420D01*
X100320Y800000D01*
X0D01*
G01Y1200000D02*
X100320D01*
X121440Y1178880D01*
Y1097740D01*
X164620Y1054560D01*
X466400D01*
X483370Y1071530D01*
X534010D01*
G01X0Y1000000D02*
X100320D01*
X115020Y1014700D01*
X511930D01*
G01X0Y1400000D02*
X118900D01*
X329280Y1189620D01*
X511510D01*
G01X0Y1600000D02*
X100320D01*
X100980Y1600660D01*
X157000Y1544640D01*
Y1435550D01*
X342660Y1249890D01*
X520660D01*
G01X0Y1800000D02*
X100320D01*
X202720Y1697600D01*
Y1458420D01*
X347500Y1313640D01*
X507520D01*
G01X0Y2000000D02*
X156440D01*
X253520Y1902920D01*
Y1478740D01*
X367820Y1364440D01*
X545620D01*
G01X0Y2200000D02*
X162180D01*
X309400Y2052780D01*
Y1493980D01*
X383060Y1420320D01*
X507520D01*
G01X543480Y1483820D02*
X619280D01*
X657380Y1445720D01*
Y831040D01*
X620560Y794220D01*
X545540D01*
G01X781840Y1349200D02*
Y1399840D01*
X793270Y1411270D01*
Y1490170D01*
X720880Y1562560D01*
X449100D01*
X393220Y1618440D01*
Y2004520D01*
X465140Y2076440D01*
X706440D01*
G01X718680Y640880D02*
Y648500D01*
X743740Y673560D01*
X1264440D01*
X1317780Y620220D01*
X1802920D01*
X1914680Y508460D01*
X2689380D01*
X2796060Y401780D01*
X2948460D01*
G01X2783760Y495760D02*
X2732280Y547240D01*
X1944470D01*
X1830850Y660860D01*
X1353000D01*
X1256160Y757700D01*
G01X2557670Y1195900D02*
Y1022910D01*
X2557300Y1022540D01*
Y950420D01*
X2521740Y914860D01*
X1261900D01*
G01X2841780Y889460D02*
Y635460D01*
X2790980Y584660D01*
X1980710D01*
X1868950Y696420D01*
X1401600D01*
X1307620Y790400D01*
G54D19*
G01X111900Y297640D02*
X102360D01*
G01D02*
X0Y400000D01*
G01D02*
X84100D01*
G01X111900Y503380D02*
X103380D01*
G01D02*
X0Y400000D01*
G01Y2400000D02*
X108460Y2291540D01*
G01D02*
X108740D01*
G01X0Y2400000D02*
X87660D01*
G01X0D02*
X108740Y2508740D01*
G01D02*
Y2509980D01*
G01X698020Y1980D02*
X700000Y0D01*
G01D02*
X769140Y69140D01*
Y111900D01*
G01X698020Y117300D02*
Y1980D01*
G01D02*
X619280Y80720D01*
Y111900D01*
G01X700000Y2689360D02*
Y2778660D01*
G01Y2783420D02*
Y2778660D01*
G01X780400Y2703020D02*
X700000Y2783420D01*
G01Y2778660D02*
X621820Y2700480D01*
G01X700000Y2783420D02*
Y2800000D01*
G01X3997110Y1200000D02*
X3889360D01*
G01X3911120Y1114010D02*
X3997110Y1200000D01*
G01X4000000D02*
Y1201330D01*
X3913980Y1287350D01*
G01X3906040Y1692100D02*
X3998140Y1600000D01*
G01X4000000D02*
X3911440Y1511440D01*
G01X3998140Y1600000D02*
X3883840D01*
G01D02*
X3880640Y1603200D01*
G01X3997110Y1200000D02*
X4000000D01*
G01X3998140Y1600000D02*
X4000000D01*
M02*
