G04 ================== begin FILE IDENTIFICATION RECORD ==================*
G04 Layout Name:  ASR6601CB_PA_LNA_MD_V11_240312.brd*
G04 Film Name:    VCC*
G04 File Format:  Gerber RS274X*
G04 File Origin:  Cadence Allegro 16.6-2015-S088*
G04 Origin Date:  Thu Mar 14 11:44:11 2024*
G04 *
G04 Layer:  ETCH/VCC*
G04 Layer:  PIN/VCC*
G04 Layer:  VIA CLASS/VCC*
G04 *
G04 Offset:    (0.0000 0.0000)*
G04 Mirror:    No*
G04 Mode:      Positive*
G04 Rotation:  0*
G04 FullContactRelief:  No*
G04 UndefLineWidth:     0.0000*
G04 ================== end FILE IDENTIFICATION RECORD ====================*
%FSLAX25Y25*MOMM*%
%IR0*IPPOS*OFA0.00000B0.00000*MIA0B0*SFA1.00000B1.00000*%
%ADD15O,1.2X.4*%
%ADD12O,.4X1.2*%
%ADD10C,.7*%
%ADD13C,.508*%
%ADD11C,.4064*%
%ADD14C,.6096*%
%ADD16O,1.4X1.*%
%ADD17C,.3*%
%ADD18C,.25*%
%ADD19C,.45*%
%ADD21C,.864*%
%ADD20C,.7624*%
%ADD22C,.9656*%
G75*
%LPD*%
G75*
G36*
G01X1135220Y102400D02*
X1801470D01*
G03X2005780Y306710I0J204310D01*
G01Y686260D01*
G03X1909640Y796630I-111423J0D01*
G01X1896760Y798400D01*
X1848260D01*
G03Y727960I-25020J-35220D01*
G01X1876870D01*
X1877590Y727240D01*
X1894360D01*
G02X1935340Y686260I0J-40980D01*
G01Y306710D01*
G02X1801470Y172840I-133870J0D01*
G01X924730D01*
X864780Y112890D01*
Y49090D01*
G03X839900Y6200I35220J-49092D01*
G01X839310Y500D01*
X773350D01*
X772850Y6300D01*
G03X627150I-72850J-6300D01*
G01X626650Y500D01*
X99520D01*
G02X-440Y100460I0J99960D01*
G01Y139580D01*
G03Y260420I440J60420D01*
G01Y326880D01*
G03Y473120I440J73120D01*
G01Y539580D01*
G03Y660420I440J60420D01*
G01Y739580D01*
G03Y860420I440J60420D01*
G01Y939580D01*
G03Y1060420I440J60420D01*
G01Y1139580D01*
G03Y1260420I440J60420D01*
G01Y1339580D01*
G03Y1460420I440J60420D01*
G01Y1539580D01*
G03Y1660420I440J60420D01*
G01Y1739580D01*
G03Y1860420I440J60420D01*
G01Y1939580D01*
G03Y2060420I440J60420D01*
G01Y2139580D01*
G03Y2260420I440J60420D01*
G01Y2326880D01*
G03Y2473120I440J73120D01*
G01Y2539580D01*
G03Y2660420I440J60420D01*
G01Y2699540D01*
G02X99520Y2799500I99960J0D01*
G01X626650D01*
X627150Y2793700D01*
G03X772850I72850J6300D01*
G01X773350Y2799500D01*
X839310D01*
X839900Y2793800D01*
G03X960100I60100J6200D01*
G01X960690Y2799500D01*
X1039310D01*
X1039900Y2793800D01*
G03X1160100I60100J6200D01*
G01X1160690Y2799500D01*
X3900020D01*
G02X3999980Y2699540I0J-99960D01*
G01Y1673120D01*
G03Y1526880I20J-73120D01*
G01Y1475420D01*
X3980000D01*
G03Y1324580I0J-75420D01*
G01X3999980D01*
Y1273120D01*
G03Y1126880I20J-73120D01*
G01Y100460D01*
G02X3900020Y500I-99960J0D01*
G01X1160690D01*
X1160100Y6200D01*
G03X1135220Y49090I-60100J-6202D01*
G01Y102400D01*
G37*
%LPC*%
G75*
G36*
G01X1667940Y287140D02*
X1714330D01*
G03X1740960Y298170I-3J37668D01*
G03X1749920Y319800I-21635J21633D01*
G01Y330970D01*
X1748900Y332550D01*
G02X1821380I36240J23510D01*
G01X1820360Y330970D01*
Y319810D01*
G02X1790760Y248370I-101028J7D01*
G02X1714320Y216700I-76447J76432D01*
G01X457170D01*
G02X456330Y216690I-839J35220D01*
G02X297670Y282420I13J224385D01*
G02X297390Y282700I24770J25050D01*
G02X248780Y400450I118310J117750D01*
G01Y2174950D01*
G02X276870Y2242780I95941J0D01*
G01X283240Y2249150D01*
G02X351070Y2277240I67830J-67851D01*
G01X380900D01*
G02Y2206800I25020J-35220D01*
G01X351070D01*
G03X333040Y2199330I0J-25494D01*
G01X326690Y2192980D01*
G03X319220Y2174950I18024J-18030D01*
G01Y400450D01*
G03X346800Y332910I96489J0D01*
G02X347490Y332240I-24194J-25606D01*
G03X373730Y311200I108834J108849D01*
G01X381880Y319340D01*
X358060Y343160D01*
Y1478940D01*
X433660Y1554540D01*
X1124940D01*
X1264040Y1415440D01*
Y1085360D01*
X1269180Y1084360D01*
G02X1289780Y1020950I-7282J-37417D01*
G03X1290090Y1003310I9292J-8659D01*
G01X1292580Y1000820D01*
X1341170D01*
X1342600Y1001610D01*
G02X1379320I18360J-33410D01*
G01X1380750Y1000820D01*
X1426440D01*
G02X1473280I23420J-30080D01*
G01X1515340D01*
G02X1562180I23420J-30080D01*
G01X1606380D01*
G02X1668560Y960230I26363J-27537D01*
G01X1667170Y956430D01*
X1680600Y943000D01*
Y330460D01*
X1658960Y308820D01*
G03X1667940Y287140I8980J-8980D01*
G37*
G54D21*
X2514120Y2474420D03*
X1828800Y2253440D03*
X393220Y2431240D03*
G54D20*
X2948460Y401780D03*
X2841780Y889460D03*
X2783760Y495760D03*
X2557670Y1195900D03*
X706440Y2076440D03*
G54D22*
X898680Y2433780D03*
%LPD*%
G75*
G36*
G01X725730Y334710D02*
G03X654330I-35700J13360D01*
G02X642440Y317560I-11895J-4450D01*
G01X454380D01*
X408060Y363880D01*
Y1458220D01*
X454380Y1504540D01*
X493300D01*
G02X505840Y1489840I-2J-12700D01*
G03X506900Y1473080I37640J-6033D01*
G02X497920Y1457210I-12183J-3582D01*
G03X498300Y1383330I9600J-36892D01*
G02X507820Y1369370I-3073J-12322D01*
G03X507520Y1363250I37801J-4920D01*
G02X498000Y1350550I-12694J-402D01*
G03X483770Y1283820I9519J-36912D01*
G02X487060Y1267890I-7907J-9938D01*
G03X489300Y1228230I33602J-17995D01*
G02X487990Y1219620I-5227J-3609D01*
G03X542870Y1211280I23515J-30001D01*
G02X544180Y1219890I5227J3609D01*
G03X544410Y1279710I-23519J30001D01*
G02X541120Y1295640I7907J9938D01*
G03X545620Y1314830I-33600J18002D01*
G02X555140Y1327530I12694J402D01*
G03X554840Y1401430I-9520J36912D01*
G02X545320Y1415390I3073J12322D01*
G03X544100Y1431060I-37800J4940D01*
G02X553080Y1446930I12183J3582D01*
G03X581120Y1489840I-9601J36890D01*
G02X593660Y1504540I12542J2000D01*
G01X1104220D01*
X1214040Y1394720D01*
Y1319560D01*
G02X1198070Y1307290I-12700J2D01*
G03Y1233630I-9830J-36830D01*
G02X1214040Y1221360I3270J-12272D01*
G01Y1008640D01*
X1251760Y970920D01*
G02X1247550Y950180I-8985J-8973D01*
G03X1295790Y932310I14347J-35318D01*
G02X1307080Y950820I11293J5810D01*
G01X1327030D01*
G03X1394890I33930J17380D01*
G01X1417360D01*
G03X1482360I32500J19920D01*
G01X1506260D01*
G03X1571260I32500J19920D01*
G01X1601940D01*
G03X1610320Y942450I30802J22458D01*
G01X1610720Y942160D01*
X1630600Y922280D01*
Y351180D01*
X1596980Y317560D01*
X1434080D01*
G02X1422790Y336070I3J12700D01*
G03X1416130Y380190I-33891J17447D01*
G02Y397970I9076J8890D01*
G03X1361670I-27230J26670D01*
G02Y380190I-9076J-8890D01*
G03X1355010Y336070I27231J-26673D01*
G02X1343720Y317560I-11293J-5810D01*
G01X1323180D01*
G02X1311250Y334610I3J12701D01*
G03X1239630I-35810J13060D01*
G02X1227700Y317560I-11933J-4349D01*
G01X1212920D01*
Y325590D01*
X1213750Y327050D01*
G03X1144350Y334170I-33131J18851D01*
G02X1132270Y317560I-12083J-3910D01*
G01X1106420D01*
G02X1095130Y336070I3J12700D01*
G03X1027350I-33890J17450D01*
G02X1016060Y317560I-11293J-5810D01*
G01X737620D01*
G02X725730Y334710I5J12700D01*
G37*
%LPC*%
G75*
G36*
G01X1487610Y535500D02*
G03X1487560Y526790I4599J-4382D01*
G02X1432050Y527140I-27920J-25951D01*
G03X1432100Y535850I-4599J4382D01*
G02X1487610Y535500I27920J25951D01*
G37*
G36*
G01X550420Y1037120D02*
G03X547260Y1029010I2728J-5734D01*
G02X495520Y1049110I-35333J-14309D01*
G03X498680Y1057220I-2728J5734D01*
G02X550420Y1037120I35333J14309D01*
G37*
G36*
G01X1300450Y752960D02*
G03X1293100Y748290I-1196J-6236D01*
G02X1263330Y795140I-36940J9410D01*
G03X1270680Y799810I1196J6236D01*
G02X1300450Y752960I36940J-9410D01*
G37*
G36*
G01X576830Y772450D02*
G03X579520Y755130I10426J-7250D01*
G02X525000Y746670I-23226J-30229D01*
G03X522310Y763990I-10426J7250D01*
G02X576830Y772450I23226J30229D01*
G37*
G36*
G01X589560Y623850D02*
G03X595130Y641130I-5666J11364D01*
G02X645890Y624770I33737J17750D01*
G03X640320Y607490I5666J-11364D01*
G02X589560Y623850I-33737J-17750D01*
G37*
G36*
G01X814260Y1092250D02*
G02X783710Y1066400I5680J-37690D01*
G03X769740Y1082910I-12073J3950D01*
G02X800290Y1108760I-5680J37690D01*
G03X814260Y1092250I12073J-3950D01*
G37*
G36*
G01X1005240Y923160D02*
G02X982620Y954830I-37983J-3216D01*
G03X1000400Y967520I5125J11621D01*
G02X1023020Y935850I37983J3216D01*
G03X1005240Y923160I-5125J-11621D01*
G37*
G36*
G01X797750Y858120D02*
G02X767200Y883970I-36230J-11840D01*
G03X781170Y900480I1897J12560D01*
G02X811720Y874630I36230J11840D01*
G03X797750Y858120I-1897J-12560D01*
G37*
G54D20*
X1564160Y429720D03*
X718680Y640880D03*
X758980Y980900D03*
X898680Y841200D03*
X1033300Y848820D03*
X896140Y975820D03*
X969800Y1052020D03*
X1035840Y1115520D03*
X898680Y1118060D03*
X1048540Y1384760D03*
X781840Y1349200D03*
%LPD*%
G75*
G54D10*
X0Y200000D03*
Y400000D03*
Y800000D03*
Y600000D03*
Y1000000D03*
Y1200000D03*
Y1400000D03*
Y1600000D03*
Y1800000D03*
Y2000000D03*
Y2200000D03*
Y2600000D03*
Y2400000D03*
X700000Y0D03*
Y2800000D03*
X900000Y0D03*
Y2800000D03*
X1100000Y0D03*
Y2800000D03*
X4000000Y1200000D03*
Y1600000D03*
G54D11*
X111900Y297640D03*
Y503380D03*
X84100Y400000D03*
X90960Y902160D03*
X101120Y1303480D03*
X108740Y1905460D03*
X103660Y1697180D03*
Y2103580D03*
X108740Y2291540D03*
Y2509980D03*
X87660Y2400000D03*
X113820Y2746200D03*
X289080Y66500D03*
X172240D03*
X311940Y180800D03*
X187480Y577040D03*
X184940Y833580D03*
Y940260D03*
Y1194260D03*
Y1834340D03*
X187480Y2070560D03*
X154460Y2685240D03*
X261140Y2687780D03*
X322100Y2741120D03*
X215420Y2743660D03*
X388140Y66500D03*
X512600D03*
X530380Y178260D03*
X423700D03*
X556290Y724900D03*
X545540Y794220D03*
X502040Y1123440D03*
X511510Y1189620D03*
X534010Y1071530D03*
X511930Y1014700D03*
X507520Y1420320D03*
X545620Y1364440D03*
X520660Y1249890D03*
X507520Y1313640D03*
Y1681940D03*
X543480Y1483820D03*
X464340Y1867360D03*
X471960Y1765760D03*
X550700Y1742900D03*
X535460Y1821640D03*
X568480Y1900380D03*
X471960Y1971500D03*
X525950Y1943180D03*
X578640Y2001980D03*
X372900Y2695400D03*
X487200Y2690320D03*
X400840Y2616660D03*
X527840Y2618100D03*
X540540Y2741120D03*
X428780D03*
X743740Y175720D03*
X637060Y178260D03*
X698020Y117300D03*
X619280Y111900D03*
X769140D03*
X690030Y348070D03*
X606580Y589740D03*
X628870Y658880D03*
X718680Y640880D03*
X761520Y846280D03*
X817400Y912320D03*
X758980Y980900D03*
X819940Y1054560D03*
X764060Y1120600D03*
X781840Y1349200D03*
X751360Y1659080D03*
X817400Y2009600D03*
X649760Y1935940D03*
X753900Y1943560D03*
X706440Y2076440D03*
X708180Y2520140D03*
X642140Y2618100D03*
X761520D03*
X621820Y2700480D03*
X780400Y2703020D03*
X700000Y2689360D03*
X898680Y841200D03*
X1033300Y848820D03*
X967260Y919940D03*
X1038380Y970740D03*
X896140Y975820D03*
X969800Y1052020D03*
X1035840Y1115520D03*
X898680Y1118060D03*
X1048540Y1384760D03*
X884710Y1373330D03*
X939320Y1669240D03*
X875820Y1953720D03*
X952020Y1961340D03*
X891060Y2037540D03*
X898680Y2126440D03*
X959640Y2050240D03*
X974880Y2123900D03*
X1018060Y1976580D03*
X1180620Y345900D03*
X1061240Y353520D03*
X1256160Y757700D03*
X1261900Y914860D03*
Y1046940D03*
X1188240Y1270460D03*
X1124740Y1392380D03*
X1145060Y1852120D03*
X1211100Y1786080D03*
X1218720Y1869900D03*
X1147600Y1763220D03*
X1117120Y1697180D03*
X1195860Y1699720D03*
X1081560Y2116280D03*
X1053620Y2045160D03*
X1101880Y1948640D03*
X1193320Y1956260D03*
X1218720Y2070560D03*
X1122200Y2035000D03*
X1155220Y2134060D03*
X1164440Y2222960D03*
X1216180Y2532840D03*
X1164440Y2418540D03*
X1432080Y43640D03*
X1297460Y46180D03*
X1459640Y500840D03*
X1388900Y353520D03*
Y424640D03*
X1275440Y347670D03*
X1460020Y561800D03*
X1449860Y970740D03*
X1360960Y968200D03*
X1307620Y790400D03*
X1327590Y1022210D03*
X1491170Y1018860D03*
X1404600Y1022290D03*
X1457480Y1280620D03*
X1442240Y1356820D03*
X1373660Y1275540D03*
X1449860Y1831800D03*
Y1892760D03*
X1279680Y1699720D03*
Y1786080D03*
X1282220Y1872440D03*
Y2037540D03*
X1292380Y2123900D03*
X1297460Y1974040D03*
X1358420Y2040080D03*
X1429540Y2088340D03*
X1368580Y2134060D03*
X1470180Y2144220D03*
X1317780Y2530300D03*
X1399060D03*
X1493040Y2527760D03*
X1434620Y2611580D03*
X1284760Y2614120D03*
X1302540Y2713180D03*
X1409220D03*
X1675920Y48720D03*
X1548920Y46180D03*
X1696240Y511000D03*
X1564160Y429720D03*
X1698780Y571960D03*
X1538760Y970740D03*
X1632740Y973280D03*
X1579400Y1036780D03*
X1698780Y1025320D03*
X1701320Y1377140D03*
X1724180Y1288240D03*
X1528600Y1356820D03*
X1635280Y1285700D03*
X1548920Y1280620D03*
X1663220Y1659080D03*
X1660680Y1539700D03*
X1708940Y1486360D03*
X1627660Y1603200D03*
X1561620Y1549860D03*
X1559080Y1654000D03*
X1688620Y1747980D03*
X1670840Y1841960D03*
X1658140Y1905460D03*
X1520980Y2090880D03*
X1607340D03*
X1682740Y2094220D03*
X1645440Y2144220D03*
X1564160Y2141680D03*
X1724180Y2146760D03*
X1602260Y2527760D03*
X1716560Y2532840D03*
X1515900Y2718260D03*
X1637820Y2720800D03*
X1622580Y2619200D03*
X1919760Y41100D03*
X1797840Y48720D03*
X1935000Y858980D03*
X1848640Y856440D03*
X1736880Y973280D03*
X1848640Y975820D03*
X1937540Y980900D03*
X1896900Y1034240D03*
X1790220Y1021540D03*
X1891820Y1105360D03*
X1903780Y1380850D03*
X1802180D03*
X1865680Y1446890D03*
X1764080D03*
X1904520Y1288240D03*
X1815620D03*
X1731800Y1577800D03*
X1736880Y1676860D03*
X1919020Y1510390D03*
X1817420D03*
X1863140Y1578970D03*
X1940080Y1656540D03*
X1800380Y1603200D03*
X1838480Y1664160D03*
X1785140Y1841960D03*
X1795300Y1732740D03*
X1899440Y1722580D03*
X1736880Y1791160D03*
X1861340Y1783540D03*
X1754660Y1905460D03*
X1767360Y2090880D03*
X1856260D03*
X1937540D03*
X1904520Y2144220D03*
X1818160D03*
X1838480Y2527760D03*
X1752120Y2723340D03*
X1757200Y2616660D03*
X1881660D03*
X1848640Y2720800D03*
X2112800Y76660D03*
X2021360Y36020D03*
X2142830Y327390D03*
X2097110Y267570D03*
X2127590Y449310D03*
X2081870Y389490D03*
X2056920Y660860D03*
X2016280Y1044400D03*
X2039140Y1105360D03*
X1968020Y1102820D03*
X2101900Y1380850D03*
X2007920D03*
X2157780Y1446890D03*
X2063800D03*
X1969820D03*
X2084860Y1285700D03*
X1990880Y1288240D03*
X2039140Y1654000D03*
X2117140Y1510390D03*
X2023160D03*
X2162860Y1578970D03*
X1964740D03*
X2068880D03*
X2109520Y1652630D03*
X1995960Y1841960D03*
X1983260Y1720040D03*
X2074700Y1839420D03*
X2120420Y1788620D03*
X2077240Y1727660D03*
X2158520Y1722580D03*
X1955320Y1786080D03*
X2036600Y1783540D03*
X1955320Y1902920D03*
X2046760D03*
X2021360Y2090880D03*
X1983260Y2141680D03*
X1952780Y2527760D03*
X2072160Y2515060D03*
X2158520Y2517600D03*
X2036600Y2611580D03*
X1970560Y2723340D03*
X2089940D03*
X2371880Y71580D03*
X2224560D03*
X2335870Y324850D03*
X2394290Y267570D03*
X2290150Y265030D03*
X2236810Y327390D03*
X2201250Y270110D03*
X2221570Y449310D03*
X2186010Y392030D03*
X2313460Y451440D03*
X2267740Y391620D03*
X2371880Y394160D03*
X2328700Y668480D03*
X2214400Y973280D03*
X2224560Y848820D03*
X2275360Y973280D03*
X2302560Y1378310D03*
X2200960D03*
X2259380Y1446890D03*
X2363520D03*
X2265200Y1288240D03*
X2178840D03*
X2307640Y1510390D03*
X2206040D03*
X2361720Y1577800D03*
X2257580D03*
X2313460Y1654000D03*
X2204240Y1651460D03*
X2206780Y1852120D03*
X2364260Y1839420D03*
X2267740D03*
X2209320Y1788620D03*
X2313460Y1786080D03*
X2260120Y1722580D03*
X2364260D03*
X2316000Y2103580D03*
X2399020Y2106320D03*
X2353100Y2724570D03*
X2205780D03*
X2506500Y71580D03*
X2465860Y185880D03*
X2618260Y183340D03*
X2620350Y324850D03*
X2526370D03*
X2584790Y267570D03*
X2480650Y265030D03*
X2429850Y324850D03*
X2623340Y396700D03*
X2544600Y394160D03*
X2458240D03*
X2567460Y451440D03*
X2488720D03*
X2407440D03*
X2422680Y640540D03*
X2514120Y638000D03*
X2597940Y640540D03*
X2535260Y803020D03*
X2448570Y800840D03*
X2483640Y972340D03*
X2592860Y846280D03*
X2602620Y1003760D03*
Y927560D03*
X2470940Y1168860D03*
X2509040Y1069800D03*
X2605560Y1082500D03*
X2557670Y1195900D03*
X2463320Y1448260D03*
X2608100Y1339040D03*
X2620800Y1250140D03*
X2554760Y1443180D03*
X2618260Y1504140D03*
X2561640Y1573890D03*
X2614980Y1650090D03*
X2505760Y1510390D03*
X2411780D03*
X2468400Y1575260D03*
X2516660Y1656540D03*
X2412520Y1654000D03*
X2521740Y1852120D03*
X2621770Y1776920D03*
X2562380Y1725120D03*
X2597940Y1833040D03*
X2458240Y1839420D03*
X2409980Y1788620D03*
X2458240Y1722580D03*
X2503960Y1786080D03*
X2615720Y2525220D03*
X2425220Y2532840D03*
X2409980Y2611580D03*
X2554760D03*
X2487720Y2724570D03*
X2818920Y66500D03*
X2658900Y71580D03*
X2737640Y180800D03*
X2849400Y178260D03*
X2805770Y324850D03*
X2711790D03*
X2770210Y267570D03*
X2666070Y265030D03*
X2709700Y399240D03*
X2648740Y451440D03*
X2783760Y495760D03*
X2676680Y640540D03*
X2757960Y643080D03*
X2643660Y782780D03*
X2841780Y889460D03*
X2681760Y1196800D03*
X2636040Y1146000D03*
X2633500Y1407620D03*
X2724940Y1377140D03*
X2684300Y1280620D03*
X2775740Y1316180D03*
X2811300Y1397460D03*
X2663240Y1573890D03*
X2767380D03*
X2811300Y1674320D03*
X2719860Y1488900D03*
X2803680Y1600660D03*
X2808760Y1504140D03*
X2666520Y1849580D03*
X2684300Y1781000D03*
X2679220Y1694640D03*
X2750340Y1857200D03*
Y1775920D03*
X2808760Y1745440D03*
Y1819100D03*
X2806220Y1908000D03*
X2694460Y1913080D03*
X2811300Y2085800D03*
X2730020D03*
X2806220Y2177240D03*
X2803680Y2266140D03*
X2821460Y2525220D03*
X2719860D03*
X2811300Y2390600D03*
X2849400Y2614120D03*
X2694460Y2616660D03*
X2640120Y2724570D03*
X2800140Y2719490D03*
X2978940Y66500D03*
X2971320Y180800D03*
X2958390Y264170D03*
X3052370D03*
X2866950D03*
X2996490Y320050D03*
X2905050D03*
X3050060Y391620D03*
X2948460Y401780D03*
X3044980Y696420D03*
X3039900Y876760D03*
X2986560Y2095960D03*
X2900200Y2090880D03*
X3006880Y2253440D03*
X3062760Y2322020D03*
X2956080D03*
X2859560Y2324560D03*
X2900200Y2268680D03*
X3055140Y2179780D03*
X2943380Y2182320D03*
X3057680Y2454100D03*
X2961160Y2456640D03*
X2867180Y2459180D03*
X3001800Y2520140D03*
X2910360Y2522680D03*
X2915440Y2388060D03*
X3006880D03*
X3011960Y2616660D03*
X2960160Y2719490D03*
X3225320Y69040D03*
X3118640Y66500D03*
X3138960Y183340D03*
X3278430Y325130D03*
X3227630Y274330D03*
X3141270Y266710D03*
X3179370Y322590D03*
X3090470Y320050D03*
X3204770Y406410D03*
X3298750D03*
X3113330D03*
X3235250Y482610D03*
X3143810D03*
X3270810Y553730D03*
X3179370D03*
X3217470Y619770D03*
X3126030D03*
X3230400Y696420D03*
X3136420D03*
X3116100Y876760D03*
X3095780Y1077420D03*
X3083080Y1161240D03*
X3159280Y1306020D03*
X3154200Y1400000D03*
X3293900Y1435560D03*
X3243100Y1359360D03*
X3220240Y1270460D03*
X3085620Y1438100D03*
Y1341580D03*
Y1247600D03*
X3304060Y1610820D03*
X3151660Y1493980D03*
Y1587960D03*
X3154200Y1669240D03*
X3240560Y1524460D03*
X3088160Y1626060D03*
X3085620Y1532080D03*
X3271040Y1697180D03*
X3268500Y1763220D03*
X3258340Y1834340D03*
X3156740Y1745440D03*
Y1829260D03*
X3085620Y1892760D03*
X3088160Y1796240D03*
Y1712420D03*
X3235480Y1928320D03*
X3268500Y1999440D03*
X3205000Y2085800D03*
X3161820Y2027380D03*
Y1920700D03*
X3083080Y2078180D03*
Y1981660D03*
X3161820Y2174700D03*
X3255800Y2179780D03*
X3301520Y2253440D03*
X3210080D03*
X3121180D03*
X3250720Y2327100D03*
X3159280Y2324560D03*
X3293900Y2388060D03*
X3197380D03*
X3111020Y2385520D03*
X3240560Y2454100D03*
X3146580D03*
X3286280Y2525220D03*
X3184680Y2520140D03*
X3095780Y2522680D03*
X3245640Y2715720D03*
X3296440Y2611580D03*
X3144040Y2614120D03*
X3099860Y2719490D03*
X3448840Y66500D03*
X3337080Y69040D03*
X3319300Y185880D03*
X3494560Y226520D03*
X3369870Y325130D03*
X3319070Y274330D03*
X3413050D03*
X3494560Y361140D03*
Y480520D03*
X3387650Y408950D03*
X3418130Y485150D03*
X3329230Y482610D03*
X3499640Y607520D03*
Y719280D03*
X3405660Y696420D03*
X3364790Y553730D03*
X3400350Y622310D03*
X3311450Y619770D03*
X3319300Y698960D03*
X3387880Y770080D03*
Y861520D03*
Y950420D03*
X3497100Y1062180D03*
X3390420Y1036780D03*
X3392960Y1118060D03*
Y1209500D03*
X3425980Y1293320D03*
X3509800Y1316180D03*
X3372640Y1643840D03*
X3334540Y1547320D03*
X3428520Y1577800D03*
X3392960Y1481280D03*
X3502180Y1486360D03*
X3494560Y1747980D03*
X3377720Y1730200D03*
X3354860Y1826720D03*
X3403120Y1890220D03*
X3492020Y2118820D03*
X3321840Y1918160D03*
X3395500Y1999440D03*
X3410740Y2111200D03*
X3321840Y2080720D03*
X3492020Y2250900D03*
X3362480Y2182320D03*
X3408200Y2253440D03*
X3354860Y2324560D03*
X3494560Y2360120D03*
X3497100Y2487120D03*
X3398040Y2388060D03*
X3347240Y2456640D03*
X3387880Y2522680D03*
X3509800Y2718260D03*
X3385340D03*
X3453920Y2611580D03*
X3636800Y63960D03*
X3733320Y69040D03*
X3552980Y63960D03*
X3591080Y137620D03*
X3672360Y130000D03*
X3723160Y211280D03*
X3624100Y206200D03*
X3679980Y274780D03*
X3588540Y282400D03*
X3568220Y1029160D03*
X3667280Y1031700D03*
X3730780Y1092660D03*
X3621560Y1095200D03*
X3672360Y1179020D03*
X3606320D03*
X3613940Y1318720D03*
X3725700D03*
X3740940Y1626060D03*
X3669820Y1628600D03*
X3603780D03*
X3611400Y1486360D03*
X3718080D03*
X3644420Y1727660D03*
X3738400Y1725120D03*
X3690140Y1796240D03*
X3601240Y1801320D03*
X3753640Y2568400D03*
X3634260D03*
X3700300Y2631900D03*
X3588540Y2634440D03*
X3746020Y2715720D03*
X3636800Y2710640D03*
X3946680Y69040D03*
X3855240Y66500D03*
X3900960Y132540D03*
X3789200Y130000D03*
X3946680Y201120D03*
X3845080Y208740D03*
X3779040Y274780D03*
X3959380Y307800D03*
X3855240D03*
X3949220Y442420D03*
X3860320Y439880D03*
X3941600Y571960D03*
X3857780D03*
X3946680Y706580D03*
X3860320Y701500D03*
X3941600Y846280D03*
X3855240Y841200D03*
X3898420Y1016460D03*
X3786660Y1021540D03*
X3827300Y1092660D03*
X3761260Y1176480D03*
X3911120Y1114010D03*
X3889360Y1200000D03*
X3913980Y1287350D03*
X3829840Y1308560D03*
X3824760Y1646380D03*
X3911440Y1511440D03*
X3880640Y1603200D03*
X3829840Y1501600D03*
X3817140Y1725120D03*
X3951760Y1801320D03*
X3862860Y1798780D03*
X3776500D03*
X3906040Y1692100D03*
X3956840Y1963880D03*
X3954300Y2101040D03*
X3873020Y2098500D03*
X3870480Y1963880D03*
X3954300Y2220420D03*
X3875560Y2228040D03*
X3954300Y2360120D03*
X3875560D03*
X3906040Y2502360D03*
X3959380Y2565860D03*
X3860320D03*
X3900960Y2634440D03*
X3806980D03*
X3941600Y2713180D03*
X3852700D03*
G54D12*
X187480Y419560D03*
X182400Y2398220D03*
X3494560Y889460D03*
Y1923240D03*
G54D13*
X474500Y350980D03*
X502440Y844560D03*
X405920Y2242020D03*
X393220Y2431240D03*
X609120Y1641300D03*
X1228880Y594820D03*
X1321560Y861520D03*
X1785140Y356060D03*
X1823240Y763180D03*
X1828800Y2253440D03*
X2514120Y2474420D03*
G54D14*
X898680Y2433780D03*
G54D15*
X2214160Y2607600D03*
X2219240Y187520D03*
G54D16*
X4000000Y1400000D03*
G54D17*
G01X700000Y0D02*
Y115320D01*
G01D02*
X698020Y117300D01*
G01X3880640Y1603200D02*
X3883840Y1600000D01*
G01D02*
X4000000D01*
G54D18*
G01X0Y320530D02*
Y400000D01*
G01D02*
Y479470D01*
G01Y400000D02*
X79470D01*
G01X0Y2320530D02*
Y2400000D01*
G01D02*
Y2479470D01*
G01Y2400000D02*
X79470D01*
G01X700000Y0D02*
X762540Y62540D01*
G01X700000Y2720530D02*
Y2800000D01*
G01X3920530Y1200000D02*
X4000000D01*
G01X3937460Y1537460D02*
X4000000Y1600000D01*
G54D19*
G01X405920Y2242020D02*
X351070D01*
G03X308140Y2224240I0J-60717D01*
G01X301780Y2217880D01*
G03X284000Y2174950I42937J-42930D01*
G01Y400450D01*
G03X322570Y307330I131695J0D01*
G01X322580D01*
G03X456330Y251920I133761J133746D01*
G01X1714320D01*
G03X1765860Y273270I0J72885D01*
G03X1785140Y319810I-46531J46540D01*
G01Y356060D01*
G01X1099340Y137620D02*
X939320D01*
X900000Y98300D01*
Y0D01*
G01X1100000D02*
Y136960D01*
X1099340Y137620D01*
G01X1823240Y763180D02*
X1891460D01*
X1892180Y762460D01*
X1894360D01*
G02X1970560Y686260I0J-76200D01*
G01Y306710D01*
G02X1801470Y137620I-169090J0D01*
G01X1099340D01*
M02*
