G04 ================== begin FILE IDENTIFICATION RECORD ==================*
G04 Layout Name:  ASR6601QFN48_Module_V10_210527.brd*
G04 Film Name:    GND*
G04 File Format:  Gerber RS274X*
G04 File Origin:  Cadence Allegro 16.6-2015-S088*
G04 Origin Date:  Fri May 28 09:37:28 2021*
G04 *
G04 Layer:  ETCH/GND*
G04 Layer:  PIN/GND*
G04 Layer:  VIA CLASS/GND*
G04 *
G04 Offset:    (0.0000 0.0000)*
G04 Mirror:    No*
G04 Mode:      Positive*
G04 Rotation:  0*
G04 FullContactRelief:  No*
G04 UndefLineWidth:     0.0000*
G04 ================== end FILE IDENTIFICATION RECORD ====================*
%FSLAX25Y25*MOMM*%
%IR0*IPPOS*OFA0.00000B0.00000*MIA0B0*SFA1.00000B1.00000*%
%ADD12O,.5X1.2*%
%ADD10C,.7*%
%ADD13C,.4064*%
%ADD11C,.3556*%
%ADD14O,1.4X1.*%
%ADD15C,.15*%
%ADD16C,.656*%
%ADD17C,.7068*%
G75*
%LPD*%
G75*
G36*
G01X25040Y25040D02*
Y74980D01*
G03Y175020I-40J50020D01*
G01Y239700D01*
X29470Y240270D01*
G03Y309730I-4470J34730D01*
G01X25040Y310300D01*
Y374980D01*
G03Y475020I-40J50020D01*
G01Y524980D01*
G03Y625020I-40J50020D01*
G01Y824980D01*
G03Y925020I-40J50020D01*
G01Y974980D01*
G03Y1075020I-40J50020D01*
G01Y1124980D01*
G03Y1225020I-40J50020D01*
G01Y1274980D01*
G03Y1375020I-40J50020D01*
G01Y1574960D01*
X149770D01*
X150200Y1570350D01*
G03X249800I49800J4650D01*
G01X250230Y1574960D01*
X299770D01*
X300200Y1570350D01*
G03X399800I49800J4650D01*
G01X400230Y1574960D01*
X449770D01*
X450200Y1570350D01*
G03X549800I49800J4650D01*
G01X550230Y1574960D01*
X599770D01*
X600200Y1570350D01*
G03X699800I49800J4650D01*
G01X700230Y1574960D01*
X749770D01*
X750200Y1570350D01*
G03X849800I49800J4650D01*
G01X850230Y1574960D01*
X899770D01*
X900200Y1570350D01*
G03X999800I49800J4650D01*
G01X1000230Y1574960D01*
X1049770D01*
X1050200Y1570350D01*
G03X1149800I49800J4650D01*
G01X1150230Y1574960D01*
X1574960D01*
Y1485300D01*
X1570530Y1484730D01*
G03Y1415270I4470J-34730D01*
G01X1574960Y1414700D01*
Y1365020D01*
X1555000D01*
G03Y1234980I0J-65020D01*
G01X1574960D01*
Y1185300D01*
X1570530Y1184730D01*
G03Y1115270I4470J-34730D01*
G01X1574960Y1114700D01*
Y1000020D01*
G03Y899980I40J-50020D01*
G01Y850020D01*
G03Y749980I40J-50020D01*
G01Y625020D01*
G03Y524980I40J-50020D01*
G01Y475020D01*
G03Y374980I40J-50020D01*
G01Y325020D01*
G03Y224980I40J-50020D01*
G01Y175020D01*
G03Y74980I40J-50020D01*
G01Y25040D01*
X1300230D01*
X1299800Y29650D01*
G03X1200200I-49800J-4650D01*
G01X1199770Y25040D01*
X1150230D01*
X1149800Y29650D01*
G03X1050200I-49800J-4650D01*
G01X1049770Y25040D01*
X1000230D01*
X999800Y29650D01*
G03X900200I-49800J-4650D01*
G01X899770Y25040D01*
X850230D01*
X849800Y29650D01*
G03X750200I-49800J-4650D01*
G01X749770Y25040D01*
X700230D01*
X699800Y29650D01*
G03X600200I-49800J-4650D01*
G01X599770Y25040D01*
X550230D01*
X549800Y29650D01*
G03X450200I-49800J-4650D01*
G01X449770Y25040D01*
X25040D01*
G37*
%LPC*%
G75*
G36*
G01X764110Y1115510D02*
G03X770530Y1112780I4655J2033D01*
G02X751920Y1068890I11439J-30741D01*
G03X745500Y1071620I-4655J-2033D01*
G02X764110Y1115510I-11439J30741D01*
G37*
G36*
G01X1176510Y856240D02*
G03X1168040Y845290I1650J-10027D01*
G02X1130050Y874660I-32661J-2992D01*
G03X1138520Y885610I-1650J10027D01*
G02X1139030Y895080I32661J2990D01*
G03X1135590Y900930I-4982J1007D01*
G02X1177690Y925700I9949J31252D01*
G03X1181130Y919850I4982J-1007D01*
G02X1176510Y856240I-9956J-31250D01*
G37*
G36*
G01X814810Y367650D02*
G03X811700Y354930I5994J-8206D01*
G02X762950Y366830I-29384J-14570D01*
G03X766060Y379550I-5994J8206D01*
G02X814810Y367650I29384J14570D01*
G37*
G36*
G01X1302820Y529690D02*
G02X1279670Y508650I7815J-31855D01*
G03X1267660Y521870I-9591J3352D01*
G02X1290810Y542910I-7815J31855D01*
G03X1302820Y529690I9591J-3352D01*
G37*
G36*
G01X1101660Y437920D02*
G02X1071680Y456980I-29783J-13739D01*
G03X1080850Y471400I-55J10160D01*
G02X1110830Y452340I29783J13739D01*
G03X1101660Y437920I55J-10160D01*
G37*
G36*
G01X572550Y413500D02*
G02X523020Y405440I-21372J-24881D01*
G03X520920Y418350I-8725J5207D01*
G02X509800Y438730I21369J24883D01*
G03X498690Y447440I-10065J-1397D01*
G02X464180Y490430I-3392J32623D01*
G03X452770Y503640I-9637J3208D01*
G02X441210Y568220I-5730J32299D01*
G03X447820Y583910I-1804J9997D01*
G02X480810Y570020I27161J18389D01*
G03X474200Y554330I1804J-9997D01*
G02X478160Y525570I-27159J-18392D01*
G03X489570Y512360I9637J-3208D01*
G02X527790Y484560I5728J-32297D01*
G03X538900Y475850I10065J1397D01*
G02X570450Y426410I3390J-32623D01*
G03X572550Y413500I8725J-5207D01*
G37*
G54D16*
X436880Y398780D03*
X251460Y421640D03*
X702920Y396890D03*
X662940Y492760D03*
X552250Y642300D03*
X195580Y518160D03*
X365760Y591820D03*
X276860Y261620D03*
X441960Y320040D03*
X396240Y931680D03*
X701970Y992020D03*
X251460Y734060D03*
X264160Y881380D03*
X280610Y963870D03*
X547700Y722300D03*
X741970Y492760D03*
X1137920Y640080D03*
X821970Y492580D03*
X1153160Y276840D03*
X1221740Y241300D03*
X1167740Y399440D03*
X1358900Y1305560D03*
X861970Y992020D03*
X1068070Y1085850D03*
X901970Y1079500D03*
X1091970Y998220D03*
X941970Y992020D03*
X1374140Y939800D03*
X982980Y1082040D03*
X723900Y1371600D03*
G54D17*
X941970Y391160D03*
%LPD*%
G75*
G54D10*
X25000Y125000D03*
Y575000D03*
Y425000D03*
Y275000D03*
Y1325000D03*
Y1175000D03*
Y1025000D03*
Y875000D03*
X200000Y1575000D03*
X500000Y25000D03*
X650000D03*
X800000D03*
Y1575000D03*
X650000D03*
X500000D03*
X350000D03*
X950000Y25000D03*
X1100000D03*
X1250000D03*
X1575000Y125000D03*
Y275000D03*
Y425000D03*
Y575000D03*
Y800000D03*
Y950000D03*
Y1150000D03*
Y1450000D03*
X1100000Y1575000D03*
X950000D03*
G54D11*
X134620Y620460D03*
X152400Y1442720D03*
X149860Y1120140D03*
X132080Y938820D03*
X271780Y73660D03*
X193040D03*
X436880Y398780D03*
X731520Y815340D03*
X734060Y665480D03*
X670560Y601980D03*
X815340D03*
X820420Y744220D03*
X670560D03*
X332740Y680720D03*
X652780Y261600D03*
X208280Y322580D03*
X251460Y734060D03*
Y421640D03*
X702920Y396890D03*
X741970Y492760D03*
X795440Y394120D03*
X821970Y492580D03*
X662940Y492760D03*
X552250Y642300D03*
X474980Y602300D03*
X447040Y535940D03*
X542290Y443230D03*
X551180Y388620D03*
X195580Y518160D03*
X365760Y591820D03*
X276860Y261620D03*
X495300Y480060D03*
X441960Y320040D03*
X782320Y340360D03*
X547700Y722300D03*
X396240Y931680D03*
X612140Y1452880D03*
X774700Y1450340D03*
X708660Y1201420D03*
X817880Y889000D03*
X670560Y894080D03*
X492200Y1392480D03*
X552250Y882300D03*
X596900Y1318260D03*
X520700Y1176020D03*
X701970Y992020D03*
X781970Y1082040D03*
X734060Y1102360D03*
X264160Y881380D03*
X280610Y963870D03*
X723900Y1371600D03*
X889000Y144780D03*
X1016000Y142240D03*
X1455420Y73660D03*
X1386840D03*
X1450340Y193040D03*
X1443700Y669580D03*
X881380Y815340D03*
X883920Y662940D03*
X947420Y599440D03*
X949960Y741680D03*
X1157260Y342400D03*
X1137920Y640080D03*
X1153160Y276840D03*
X1221740Y241300D03*
X1071880Y424180D03*
X1110630Y485140D03*
X1259840Y553720D03*
X1167740Y399440D03*
X1310640Y497840D03*
X1358900Y1305560D03*
X937260Y1450340D03*
X1447800Y962660D03*
X1155700Y1399540D03*
X1231900Y1440180D03*
X1226820Y1176020D03*
X1412240Y1376680D03*
Y1229360D03*
X1145540Y1226820D03*
X1447800Y881380D03*
X942340Y889000D03*
X855980Y1389380D03*
X1234440Y972820D03*
X861970Y992020D03*
X1068070Y1085850D03*
X901970Y1079500D03*
X1091970Y998220D03*
X1145540Y932180D03*
X1171180Y888600D03*
X1135380Y842300D03*
X941970Y992020D03*
X1374140Y939800D03*
X982980Y1082040D03*
G54D12*
X149860Y1259840D03*
X1450340Y373380D03*
G54D13*
X941970Y391160D03*
G54D14*
X1575000Y1300000D03*
G54D15*
G01X26080Y275000D02*
X78740Y327660D01*
G01X26080Y275000D02*
X103460D01*
G01X25000D02*
X26080D01*
G01X76200Y223520D02*
X25000Y274720D01*
Y275000D01*
G01X1574460Y1450000D02*
X1496400D01*
G01X1574180Y1150000D02*
X1481440D01*
G01X1574180D02*
X1506220Y1082040D01*
G01X1511300Y1214120D02*
X1575000Y1150420D01*
Y1150000D01*
G01X1518920Y1394460D02*
X1574460Y1450000D01*
G01X1575000D02*
X1574460D01*
G01X1575000Y1150000D02*
X1574180D01*
G01X1524000Y1501140D02*
X1575000Y1450140D01*
Y1450000D01*
M02*
