G04 ================== begin FILE IDENTIFICATION RECORD ==================*
G04 Layout Name:  ASR6601CB_FEM_TB_V10_240315.brd*
G04 Film Name:    TOP*
G04 File Format:  Gerber RS274X*
G04 File Origin:  Cadence Allegro 16.6-2015-S088*
G04 Origin Date:  Tue Mar 19 16:49:56 2024*
G04 *
G04 Layer:  ETCH/TOP*
G04 Layer:  PIN/TOP*
G04 Layer:  VIA CLASS/TOP*
G04 *
G04 Offset:    (0.0000 0.0000)*
G04 Mirror:    No*
G04 Mode:      Positive*
G04 Rotation:  0*
G04 FullContactRelief:  No*
G04 UndefLineWidth:     0.0000*
G04 ================== end FILE IDENTIFICATION RECORD ====================*
%FSLAX25Y25*MOMM*%
%IR0*IPPOS*OFA0.00000B0.00000*MIA0B0*SFA1.00000B1.00000*%
%ADD38R,1.2X.3*%
%ADD36R,1.X.6*%
%ADD43O,2.X.9*%
%ADD33R,.6X1.*%
%ADD42O,.8X1.3*%
%ADD39R,1.2X.6*%
%ADD25R,1.X.95*%
%ADD31R,.95X1.*%
%ADD46R,1.38X.45*%
%ADD21C,.8*%
%ADD40C,.65*%
%ADD15C,.508*%
%ADD20C,.4064*%
%ADD22C,.762*%
%ADD41O,2.X1.*%
%ADD17O,1.4X1.*%
%ADD16R,1.4X1.*%
%ADD24R,1.X1.4*%
%ADD23R,2.1001X1.1001*%
%ADD35R,1.25X1.*%
%ADD30R,1.X1.25*%
%ADD47R,1.9X1.2*%
%ADD45R,2.1X1.45*%
%ADD37C,1.*%
%ADD11R,4.2X1.27*%
%ADD44R,.6X.6*%
%ADD34R,.6X.6*%
%ADD32R,1.016X1.27*%
%ADD14R,.5X.55*%
%ADD10C,6.*%
%ADD48R,1.9X2.35*%
%ADD13R,.55X.5*%
%ADD12R,4.8X1.35*%
%ADD27R,.25X.75*%
%ADD28R,.75X.25*%
%ADD26R,2.7X2.7*%
%ADD18C,1.397*%
%ADD19R,1.397X1.397*%
%ADD29R,.254X.8999*%
%ADD49C,.2*%
%ADD50C,.3*%
%ADD51C,.4*%
%ADD52C,.5*%
%ADD53C,.6*%
%ADD54C,.25*%
%ADD55C,.55*%
%ADD56C,.254*%
%ADD57C,.428*%
%ADD62C,.5084*%
%ADD67R,2.1004X1.1004*%
%ADD68R,1.0004X1.4004*%
%ADD63R,1.4004X1.0004*%
%ADD58O,1.1004X1.6004*%
%ADD71R,1.2504X1.0004*%
%ADD70R,1.0004X1.2504*%
%ADD59C,3.0004*%
%ADD74R,1.9004X1.2004*%
%ADD73R,2.1004X1.4504*%
%ADD60C,6.0004*%
%ADD72R,.6004X.6004*%
%ADD76R,2.7004X2.7004*%
%ADD75R,1.9004X2.3504*%
%ADD69R,.5504X.5004*%
%ADD61R,.5004X.5504*%
%ADD65C,1.3974*%
%ADD64C,1.6974*%
%ADD66R,1.3974X1.3974*%
G75*
%LPD*%
G75*
G36*
G01X100000Y270040D02*
G02X20040Y350000I0J79960D01*
G01Y1635760D01*
X20010D01*
Y1859280D01*
X20040D01*
Y2403340D01*
X475120D01*
Y2538380D01*
X20040D01*
Y2674840D01*
X383540D01*
Y2674620D01*
X393700Y2664460D01*
X480060D01*
X528140Y2712540D01*
X859280D01*
Y2710040D01*
X939320D01*
Y2712540D01*
X965880D01*
X966680Y2713340D01*
X1049300D01*
Y2793380D01*
X939320D01*
Y2795080D01*
X859280D01*
Y2792580D01*
X529740D01*
X482600Y2839720D01*
X388620D01*
X380780Y2831880D01*
X20040D01*
Y2968340D01*
X475120D01*
Y3103380D01*
X20040D01*
Y5150000D01*
G02X100000Y5229960I79960J0D01*
G01X7900000D01*
G02X7979960Y5150000I0J-79960D01*
G01Y350000D01*
G02X7900000Y270040I-79960J0D01*
G01X100000D01*
G37*
G36*
G01X425120Y2689860D02*
Y2814320D01*
X485140D01*
X523240Y2776220D01*
Y2727960D01*
X485140Y2689860D01*
X425120D01*
G37*
%LPC*%
G75*
G36*
G01X7669140Y3109940D02*
G02Y3199980I0J45020D01*
G01X7779140D01*
G02Y3109940I0J-45020D01*
G01X7669140D01*
G37*
G36*
G01Y2249940D02*
G02Y2339980I0J45020D01*
G01X7779140D01*
G02Y2249940I0J-45020D01*
G01X7669140D01*
G37*
G36*
G01X7793520Y1910260D02*
G02Y2040300I0J65020D01*
G01X7893520D01*
G02Y1910260I0J-65020D01*
G01X7793520D01*
G37*
G36*
G01X7378520D02*
G02Y2040300I0J65020D01*
G01X7478520D01*
G02Y1910260I0J-65020D01*
G01X7378520D01*
G37*
G36*
G01X7793520Y1046260D02*
G02Y1176300I0J65020D01*
G01X7893520D01*
G02Y1046260I0J-65020D01*
G01X7793520D01*
G37*
G36*
G01X7378520D02*
G02Y1176300I0J65020D01*
G01X7478520D01*
G02Y1046260I0J-65020D01*
G01X7378520D01*
G37*
G36*
G01X6351800Y4569880D02*
X6323770Y4541850D01*
X6284790D01*
X6256760Y4569880D01*
Y4605740D01*
X6201560D01*
Y4638240D01*
X6099620D01*
Y4625960D01*
X6014580D01*
Y4706000D01*
X6099620D01*
Y4693500D01*
G02X6103070Y4693280I-23J-27520D01*
G01X6201560D01*
Y4725780D01*
X6407000D01*
Y4693500D01*
X6508940D01*
Y4706000D01*
X6523940D01*
Y4735180D01*
X6508940D01*
Y4747680D01*
X6097080D01*
Y4735180D01*
X6012040D01*
Y4815220D01*
X6097080D01*
Y4802720D01*
X6508940D01*
Y4815220D01*
X6593980D01*
Y4735180D01*
X6578980D01*
Y4706000D01*
X6593980D01*
Y4625960D01*
X6508940D01*
Y4638460D01*
X6418600D01*
X6418380Y4638240D01*
X6407000D01*
Y4605740D01*
X6351800D01*
Y4569880D01*
G37*
G36*
G01X5984620Y4607120D02*
X5927060Y4549560D01*
X5627950D01*
G02Y4604600I-22170J27520D01*
G01X5904260D01*
X5919360Y4619700D01*
X5916760Y4625960D01*
X5914580D01*
Y4706000D01*
X5999620D01*
Y4625960D01*
X5984620D01*
Y4607120D01*
G37*
G36*
G01X6549420Y4505540D02*
X6623940Y4580060D01*
Y4625960D01*
X6608940D01*
Y4706000D01*
X6693980D01*
Y4625960D01*
X6678980D01*
Y4557260D01*
X6572220Y4450500D01*
X5533970D01*
G02Y4505540I-22170J27520D01*
G01X6549420D01*
G37*
G36*
G01X6945240Y4184460D02*
Y4099420D01*
X6865200D01*
Y4116920D01*
X6857360D01*
X6856560Y4117720D01*
X6844930D01*
X6843490Y4116420D01*
G02X6844860Y4167760I-23589J26318D01*
G01X6865200D01*
Y4184460D01*
X6945240D01*
G37*
G36*
G01X7006960Y3936380D02*
Y3856340D01*
X6921920D01*
Y3868840D01*
X6905630D01*
X6904290Y3867860D01*
G02Y3924860I-20890J28500D01*
G01X6905630Y3923880D01*
X6921920D01*
Y3936380D01*
X7006960D01*
G37*
G36*
G01X5927040Y5051560D02*
X6038880Y5163400D01*
X6595080D01*
X6678980Y5079500D01*
Y4937140D01*
X6693980D01*
Y4857100D01*
X6608940D01*
Y4937140D01*
X6623940D01*
Y5056700D01*
X6572280Y5108360D01*
X6061680D01*
X5982080Y5028760D01*
Y4937140D01*
X5997080D01*
Y4857100D01*
X5982080D01*
Y4815220D01*
X5997080D01*
Y4735180D01*
X5912040D01*
Y4815220D01*
X5927040D01*
Y4857100D01*
X5912040D01*
Y4879760D01*
X5584700D01*
Y4837260D01*
X5344660D01*
Y4879760D01*
X5220940D01*
X5127520Y4786340D01*
Y3935020D01*
X5165020D01*
Y3764980D01*
X5034980D01*
Y3935020D01*
X5072480D01*
Y4148510D01*
X5072470Y4148640D01*
G02Y4151360I27490J1360D01*
G01X5072480Y4151490D01*
Y4809140D01*
X5198140Y4934800D01*
X5344660D01*
Y4977300D01*
X5584700D01*
Y4934800D01*
X5912040D01*
Y4937140D01*
X5927040D01*
Y5051560D01*
G37*
G36*
G01X4565020Y3935020D02*
Y3764980D01*
X4434980D01*
Y3935020D01*
X4462480D01*
Y4021880D01*
X4462160Y4022740D01*
G02X4537840I37840J14200D01*
G01X4537520Y4021880D01*
Y3935020D01*
X4565020D01*
G37*
G36*
G01X4365020D02*
Y3764980D01*
X4234980D01*
Y3935020D01*
X4262480D01*
Y4023440D01*
X4293520Y4054480D01*
X4293900Y4055320D01*
G02X4347420Y4001800I36800J-16720D01*
G01X4346580Y4001420D01*
X4337520Y3992360D01*
Y3935020D01*
X4365020D01*
G37*
G36*
G01X4597700Y3528640D02*
X3796800D01*
G02Y3603680I-37600J37520D01*
G01X4566620D01*
X4662480Y3699540D01*
Y3764980D01*
X4634980D01*
Y3935020D01*
X4765020D01*
Y3764980D01*
X4737520D01*
Y3668460D01*
X4597700Y3528640D01*
G37*
G36*
G01X7105900Y3581400D02*
Y3491360D01*
X6975860D01*
Y3498860D01*
X6918780D01*
X6917920Y3498540D01*
G02Y3574220I-14200J37840D01*
G01X6918780Y3573900D01*
X6975860D01*
Y3581400D01*
X7105900D01*
G37*
G36*
G01X6688900Y3493380D02*
Y3413340D01*
X6603860D01*
Y3493380D01*
X6623860D01*
Y3510180D01*
G02X6668900I22520J27240D01*
G01Y3493380D01*
X6688900D01*
G37*
G36*
G01X6172340D02*
Y3413340D01*
X6087300D01*
Y3493380D01*
X6089980D01*
G03X6098880Y3508450I4J10161D01*
G02X6160760I30940J17070D01*
G03X6169660Y3493380I8896J-4909D01*
G01X6172340D01*
G37*
G36*
G01X5485020Y3415020D02*
Y3284980D01*
X5314980D01*
Y3322480D01*
X3433100D01*
X3003700Y3751880D01*
Y4700000D01*
G02X3058740I27520J80280D01*
G01Y3774680D01*
X3455900Y3377520D01*
X5314980D01*
Y3415020D01*
X5485020D01*
G37*
G36*
G01Y3215020D02*
Y3084980D01*
X5314980D01*
Y3122480D01*
X3325760D01*
X2747700Y3700540D01*
Y4700000D01*
G02X2802740I27520J80280D01*
G01Y3723340D01*
X3348560Y3177520D01*
X5314980D01*
Y3215020D01*
X5485020D01*
G37*
G36*
G01X1720000Y2815020D02*
G02Y2684980I0J-65020D01*
G01X1680000D01*
G02X1628760Y2709980I0J65011D01*
G01X1254280D01*
Y2707500D01*
X1174240D01*
Y2709980D01*
X1147700D01*
X1144340Y2713340D01*
X1064260D01*
Y2793380D01*
X1149300D01*
Y2790880D01*
X1174240D01*
Y2792540D01*
X1254280D01*
Y2790020D01*
X1628760D01*
G02X1680000Y2815020I51240J-40011D01*
G01X1720000D01*
G37*
G36*
G01X5708070Y1971460D02*
X5422210D01*
G02X5377870I-22170J27520D01*
G01X5071140D01*
X4933980Y2108620D01*
X3450560D01*
X3426080Y2084140D01*
X3425830Y2082500D01*
G02X3385520Y2122810I-34930J5380D01*
G01X3387160Y2123060D01*
X3427760Y2163660D01*
X4956780D01*
X5093940Y2026500D01*
X5372520D01*
Y2073560D01*
X5372480Y2073600D01*
Y2084980D01*
X5314980D01*
Y2215020D01*
X5485020D01*
Y2084980D01*
X5427560D01*
Y2026500D01*
X5708070D01*
G02Y1971460I22170J-27520D01*
G37*
G36*
G01X7368710Y2458060D02*
X7478130Y2567480D01*
X7671870D01*
X7673160Y2570650D01*
G02X7779160Y2549960I50981J-20690D01*
G01Y2499960D01*
G02X7673160Y2479270I-55019J0D01*
G01X7671870Y2482440D01*
X7513350D01*
X7403930Y2373020D01*
X7195610D01*
G02X7164680Y2342090I-73450J42520D01*
G01Y2215230D01*
X7145660Y2196210D01*
Y2112000D01*
X7014020D01*
Y2121920D01*
X6956570D01*
G03X6952970Y2113250I-5J-5080D01*
G01X6957560Y2108660D01*
Y2041140D01*
X6960060D01*
Y1911100D01*
X6870020D01*
Y2041140D01*
X6872520D01*
Y2073440D01*
X6833960Y2112000D01*
X6804020D01*
Y2269040D01*
X6824310D01*
X6826900Y2275300D01*
X6825640Y2276570D01*
Y2330670D01*
X6783290D01*
Y2500410D01*
X6953030D01*
Y2330670D01*
X6910680D01*
Y2311790D01*
X6912360Y2310110D01*
Y2269040D01*
X6935660D01*
Y2259120D01*
X7014020D01*
Y2269040D01*
X7079640D01*
Y2342090D01*
G02Y2488990I42520J73450D01*
G01Y2523090D01*
X7079450Y2523770D01*
G02X7077820Y2535420I40889J11660D01*
G01Y2550400D01*
X7075320D01*
Y2640440D01*
X7165360D01*
Y2550400D01*
X7164680D01*
Y2488990D01*
G02X7195610Y2458060I-42520J-73450D01*
G01X7368710D01*
G37*
G36*
G01X4365020Y1735020D02*
Y1564980D01*
X4234980D01*
Y1612480D01*
X3797800D01*
G02Y1687520I-37600J37520D01*
G01X4234980D01*
Y1735020D01*
X4365020D01*
G37*
G36*
G01X5075340Y1784380D02*
X4850160Y2009560D01*
X3549620D01*
X3522600Y1982540D01*
X3522350Y1980900D01*
G02X3482040Y2021210I-34930J5380D01*
G01X3483680Y2021460D01*
X3526820Y2064600D01*
X4872960D01*
X5130380Y1807180D01*
Y1735020D01*
X5165020D01*
Y1677520D01*
X6088080D01*
X6247980Y1517620D01*
Y737680D01*
X6255400D01*
Y652640D01*
X6175360D01*
Y737680D01*
X6187860D01*
Y749060D01*
X6192940Y754140D01*
Y1494820D01*
X6065280Y1622480D01*
X5165020D01*
Y1564980D01*
X5034980D01*
Y1735020D01*
X5072480D01*
Y1746400D01*
X5075340Y1749260D01*
Y1784380D01*
G37*
G36*
G01X6120780Y737680D02*
Y652640D01*
X6040740D01*
Y667640D01*
X6029360D01*
X6028560Y668440D01*
X5953070D01*
G02Y723480I-22170J27520D01*
G01X6040740D01*
Y737680D01*
X6120780D01*
G37*
G36*
G01X4872480Y1829760D02*
X4784120Y1918120D01*
X3946470D01*
G02Y1973160I-22170J27520D01*
G01X4806920D01*
X4927520Y1852560D01*
Y1735020D01*
X4965020D01*
Y1564980D01*
X4927520D01*
Y1238620D01*
X4588480Y899580D01*
X4194780D01*
X4119460Y824260D01*
Y746140D01*
G02X4064420I-27520J-47640D01*
G01Y847060D01*
X4171980Y954620D01*
X4565680D01*
X4872480Y1261420D01*
Y1564980D01*
X4834980D01*
Y1735020D01*
X4872480D01*
Y1829760D01*
G37*
G36*
G01X4732520Y1564980D02*
Y1341350D01*
X4496570Y1105400D01*
X3317740D01*
Y789590D01*
G02X3252700I-32520J-78390D01*
G01Y1105400D01*
X3156450D01*
X3063740Y1012690D01*
Y789590D01*
G02X2998700I-32520J-78390D01*
G01Y1039630D01*
X3129510Y1170440D01*
X4469630D01*
X4667480Y1368290D01*
Y1564980D01*
X4634980D01*
Y1735020D01*
X4667480D01*
Y1801630D01*
X4642350Y1826760D01*
X4088000D01*
G02Y1891800I-24000J32520D01*
G01X4669290D01*
X4732520Y1828570D01*
Y1735020D01*
X4765020D01*
Y1564980D01*
X4732520D01*
G37*
G36*
G01X2493700Y1559800D02*
X3311420Y2377520D01*
X5314980D01*
Y2415020D01*
X5485020D01*
Y2284980D01*
X5314980D01*
Y2322480D01*
X3334220D01*
X2548740Y1537000D01*
Y791480D01*
G02X2493700I-27520J-80280D01*
G01Y1559800D01*
G37*
G36*
G01X2239700Y1615680D02*
X3201540Y2577520D01*
X5314980D01*
Y2615020D01*
X5485020D01*
Y2484980D01*
X5314980D01*
Y2522480D01*
X3224340D01*
X2294740Y1592880D01*
Y791480D01*
G02X2239700I-27520J-80280D01*
G01Y1615680D01*
G37*
G36*
G01X5584700Y566840D02*
Y524340D01*
X5344660D01*
Y664380D01*
X5584700D01*
Y621880D01*
X6028560D01*
X6029360Y622680D01*
X6040740D01*
Y637680D01*
X6120780D01*
Y552640D01*
X6040740D01*
Y566840D01*
X5584700D01*
G37*
G36*
G01X6455660Y482320D02*
X6325620D01*
Y512320D01*
X6249730D01*
X6209410Y552640D01*
X6175360D01*
Y637680D01*
X6255400D01*
Y598630D01*
X6276670Y577360D01*
X6325620D01*
Y607360D01*
X6337280D01*
Y655340D01*
X6340620D01*
Y752360D01*
X6440660D01*
Y655340D01*
X6446540D01*
Y607360D01*
X6455660D01*
Y482320D01*
G37*
G36*
G01X6575280Y2427260D02*
X6475240D01*
Y2524280D01*
X6469360D01*
Y2572260D01*
X6460240D01*
Y2697300D01*
X6590280D01*
Y2677300D01*
X6700240D01*
Y2704080D01*
X6825280D01*
Y2692420D01*
X6860240D01*
Y2704080D01*
X6877700D01*
Y2789940D01*
X6857700D01*
Y2799060D01*
X6822740D01*
Y2789940D01*
X6697700D01*
Y2812440D01*
X6654630D01*
X6648990Y2806800D01*
X6648710Y2805210D01*
G02X6587270Y2866650I-52330J9110D01*
G01X6588860Y2866930D01*
X6619410Y2897480D01*
X6697700D01*
Y2919980D01*
X6722700D01*
Y2969820D01*
X6697700D01*
Y2992320D01*
X6598290D01*
X6577870Y2971900D01*
X6577590Y2970310D01*
G02X6516150Y3031750I-52330J9110D01*
G01X6517740Y3032030D01*
X6563070Y3077360D01*
X6697700D01*
Y3099860D01*
X6822740D01*
Y3088200D01*
X6857700D01*
Y3099860D01*
X6892700D01*
Y3131780D01*
X6955820Y3194900D01*
X6990770D01*
G02X6992050Y3138880I22171J-27518D01*
G01X6990710Y3139860D01*
X6978620D01*
X6947740Y3108980D01*
Y3099860D01*
X6982740D01*
Y2969820D01*
X6857700D01*
Y2978940D01*
X6822740D01*
Y2969820D01*
X6797740D01*
Y2919980D01*
X6822740D01*
Y2908320D01*
X6857700D01*
Y2919980D01*
X6982740D01*
Y2898460D01*
X7044640D01*
Y2918880D01*
X7199680D01*
Y2898460D01*
X7382630D01*
X7513610Y2767480D01*
X7671870D01*
X7673160Y2770650D01*
G02X7779160Y2749960I50981J-20690D01*
G01Y2699960D01*
G02X7673160Y2679270I-55019J0D01*
G01X7671870Y2682440D01*
X7478390D01*
X7347410Y2813420D01*
X7199680D01*
Y2788840D01*
X7164680D01*
Y2758330D01*
X7162860Y2756510D01*
Y2742040D01*
X7165360D01*
Y2652000D01*
X7075320D01*
Y2742040D01*
X7077820D01*
Y2788840D01*
X7044640D01*
Y2813420D01*
X7016310D01*
X7015330Y2812440D01*
X6982740D01*
Y2789940D01*
X6962740D01*
Y2739210D01*
X6965280Y2736670D01*
Y2704080D01*
X6985280D01*
Y2574040D01*
X6860240D01*
Y2583160D01*
X6825280D01*
Y2574040D01*
X6700240D01*
Y2592260D01*
X6590280D01*
Y2572260D01*
X6578620D01*
Y2524280D01*
X6575280D01*
Y2427260D01*
G37*
G36*
G01X5485020Y2684980D02*
X5314980D01*
Y2815020D01*
X5485020D01*
Y2777520D01*
X5494500D01*
X5553740Y2836760D01*
X6021100D01*
X6030000Y2845660D01*
G03X6022810Y2863000I-7187J7181D01*
G01X5546120D01*
X5502360Y2906760D01*
G03X5485020Y2899570I-7181J-7187D01*
G01Y2884980D01*
X5314980D01*
Y3015020D01*
X5485020D01*
Y2977520D01*
X5509440D01*
X5568920Y2918040D01*
X6021100D01*
X6309780Y3206720D01*
Y3310040D01*
X6297280D01*
Y3395080D01*
X6377320D01*
Y3310040D01*
X6364820D01*
Y3205010D01*
G03X6382160Y3197820I10159J-3D01*
G01X6401220Y3216880D01*
Y3310040D01*
X6388720D01*
Y3395080D01*
X6468760D01*
Y3310040D01*
X6456260D01*
Y3194080D01*
X6043900Y2781720D01*
X5576540D01*
X5517300Y2722480D01*
X5485020D01*
Y2684980D01*
G37*
G36*
G01X7105900Y3280760D02*
X6975860D01*
Y3370800D01*
X7105900D01*
Y3363300D01*
X7168900D01*
Y3408980D01*
X7180560D01*
Y3443940D01*
X7168900D01*
Y3568980D01*
X7298940D01*
Y3563990D01*
G03X7316280Y3556800I10160J-2D01*
G01X7333560Y3574080D01*
Y3677920D01*
G02X7360130Y3713810I37525J0D01*
G01X7361350Y3714180D01*
X7399310Y3752140D01*
G03X7392120Y3769480I-7188J7180D01*
G01X7296250D01*
X7269110Y3742340D01*
X7257580D01*
Y3731240D01*
X7167540D01*
Y3742340D01*
X7106960D01*
Y3736960D01*
X7021920D01*
Y3817000D01*
X7106960D01*
Y3810900D01*
X7118490D01*
X7119210Y3810180D01*
X7167540D01*
Y3821280D01*
X7252110D01*
X7267500Y3836670D01*
X7252110Y3852060D01*
X7167540D01*
Y3863160D01*
X7119210D01*
X7118490Y3862440D01*
X7106960D01*
Y3856340D01*
X7021920D01*
Y3936380D01*
X7106960D01*
Y3931000D01*
X7167540D01*
Y3942100D01*
X7257580D01*
Y3931000D01*
X7269110D01*
X7297770Y3902340D01*
X7499910D01*
Y3970960D01*
X7514910D01*
Y4020990D01*
X7652950D01*
Y3970960D01*
X7667950D01*
Y3700850D01*
X7499910D01*
Y3705850D01*
X7445000D01*
X7408600Y3669450D01*
Y3543000D01*
X7334540Y3468940D01*
X7298940D01*
Y3443940D01*
X7289820D01*
Y3408980D01*
X7298940D01*
Y3283940D01*
X7168900D01*
Y3288260D01*
X7105900D01*
Y3280760D01*
G37*
G36*
G01X6517650Y4833960D02*
X6345750D01*
X6306760Y4872950D01*
Y4895740D01*
X6251560D01*
Y4910740D01*
X6216560D01*
Y5000780D01*
X6251560D01*
Y5019980D01*
G02X6312370Y5029500I27718J21921D01*
G03X6321890Y5015780I9514J-3561D01*
G01X6340370D01*
G03X6349060Y5031200I1J10158D01*
G02X6404200Y5024460I30221J18320D01*
G01X6402700Y5022970D01*
Y5015780D01*
X6407000D01*
Y4895740D01*
X6359930D01*
G03X6356330Y4887070I-6J-5080D01*
G01X6364410Y4879000D01*
X6498990D01*
X6508940Y4888950D01*
Y4937140D01*
X6593980D01*
Y4857100D01*
X6540790D01*
X6517650Y4833960D01*
G37*
G36*
G01X6272340Y3319360D02*
X6187300D01*
Y3399400D01*
X6207300D01*
Y3413340D01*
X6187300D01*
Y3493380D01*
X6240490D01*
X6288840Y3541730D01*
Y3580100D01*
X6283840D01*
Y3680100D01*
X6183840D01*
Y3782600D01*
X6067440D01*
Y3765640D01*
X5987400D01*
Y3850680D01*
X6067440D01*
Y3833180D01*
X6075280D01*
X6075820Y3832640D01*
X6183840D01*
Y3985140D01*
X6283840D01*
Y4085140D01*
X6436340D01*
Y4107380D01*
X6410970Y4132750D01*
X6409030Y4132850D01*
G02X6446250Y4170070I1930J35290D01*
G01X6446350Y4168130D01*
X6469000Y4145490D01*
G03X6486340Y4152670I7182J7184D01*
G01Y4188220D01*
X6452680Y4221880D01*
Y4229720D01*
X6435180D01*
Y4309760D01*
X6520220D01*
Y4294760D01*
X6566320D01*
Y4309760D01*
X6581320D01*
Y4321410D01*
X6580340Y4322750D01*
G02X6637340I28500J20890D01*
G01X6636360Y4321410D01*
Y4309760D01*
X6651360D01*
Y4229720D01*
X6634920D01*
X6586380Y4181180D01*
Y4085140D01*
X6588880D01*
Y3985140D01*
X6688880D01*
Y3982640D01*
X6813040D01*
X6865200Y4034800D01*
Y4084460D01*
X6945240D01*
Y4074460D01*
X6961720D01*
Y4084460D01*
X7041760D01*
Y4074460D01*
X7058240D01*
Y4084460D01*
X7138280D01*
Y3999420D01*
X7058240D01*
Y4009420D01*
X7041760D01*
Y3999420D01*
X6961720D01*
Y4009420D01*
X6945240D01*
Y3999420D01*
X6900580D01*
X6802920Y3901760D01*
G03X6808130Y3884610I7186J-7183D01*
G02X6822220Y3877080I-5368J-26991D01*
G01X6894800Y3804500D01*
X6921920D01*
Y3817000D01*
X7006960D01*
Y3736960D01*
X6921920D01*
Y3749460D01*
X6872000D01*
X6788860Y3832600D01*
X6773860D01*
G03X6764250Y3819130I-3J-10161D01*
G02X6705880Y3782600I-33412J-11510D01*
G01X6688880D01*
Y3780100D01*
X6673880D01*
Y3735140D01*
X6688880D01*
Y3680100D01*
X6588880D01*
Y3580100D01*
X6534320D01*
Y3494770D01*
X6535710Y3493380D01*
X6588900D01*
Y3413340D01*
X6568900D01*
Y3399400D01*
X6588900D01*
Y3319360D01*
X6503860D01*
Y3399400D01*
X6523860D01*
Y3413340D01*
X6503860D01*
Y3461530D01*
X6489280Y3476110D01*
Y3580100D01*
X6433880D01*
Y3516770D01*
X6451260Y3499390D01*
Y3495080D01*
X6468760D01*
Y3410040D01*
X6388720D01*
Y3497370D01*
G03X6380050Y3500960I-5079J-3D01*
G01X6377320Y3498230D01*
Y3410040D01*
X6297280D01*
Y3461940D01*
G03X6279940Y3469130I-10159J3D01*
G01X6272340Y3461530D01*
Y3413340D01*
X6252340D01*
Y3399400D01*
X6272340D01*
Y3319360D01*
G37*
G36*
G01X7428540Y1193260D02*
X7308500D01*
Y1258260D01*
X7293500D01*
Y1260760D01*
X6926860D01*
Y1240540D01*
X6801820D01*
Y1249660D01*
X6753840D01*
Y1255540D01*
X6656820D01*
Y1355580D01*
X6753840D01*
Y1358920D01*
X6801820D01*
Y1370580D01*
X6821820D01*
Y1451830D01*
X6821660Y1451990D01*
Y1484580D01*
X6799160D01*
Y1639620D01*
X6821660D01*
Y1672210D01*
X6821820Y1672370D01*
Y1718060D01*
X6801820D01*
Y1729720D01*
X6766860D01*
Y1718060D01*
X6641820D01*
Y1848100D01*
X6661820D01*
Y1880690D01*
X6661920Y1880790D01*
Y1911100D01*
X6659420D01*
Y2041140D01*
X6749460D01*
Y1911100D01*
X6746960D01*
Y1848100D01*
X6766860D01*
Y1838980D01*
X6801820D01*
Y1848100D01*
X6926860D01*
Y1825600D01*
X7260710D01*
X7260910Y1825800D01*
X7293500D01*
Y1828300D01*
X7308500D01*
Y1893300D01*
X7428540D01*
Y1828300D01*
X7445870D01*
X7446010Y1833230D01*
G02X7459610Y1805820I32508J-949D01*
G03X7443540Y1797560I-5911J-8262D01*
G01Y1289000D01*
G03X7459610Y1280740I10159J2D01*
G02X7446010Y1253330I18908J-26461D01*
G01X7445870Y1258260D01*
X7428540D01*
Y1193260D01*
G37*
G54D62*
X802640Y2646680D03*
X1112520Y2644140D03*
X991820Y2644860D03*
X686080Y2652480D03*
X581940Y2622000D03*
X802640Y2854960D03*
X1056640Y2857500D03*
X952500D03*
X691160Y2853140D03*
X597180Y2876000D03*
X1207440Y2537460D03*
X1419860Y2639060D03*
X1541780Y2633980D03*
X1572260Y2552700D03*
X1310640Y2639060D03*
X1422400Y2852420D03*
X1513840Y2946400D03*
X1308100Y2857500D03*
X1170940Y2860040D03*
X1554480Y2854960D03*
X1846580Y2545080D03*
X1869440Y2748280D03*
X1844040Y2656840D03*
X1856740Y2946400D03*
X1821180Y2834640D03*
X4447540Y594360D03*
X4654680Y734060D03*
X4472940Y1483360D03*
X4652140Y4741040D03*
X4424680Y4907280D03*
X4978400Y3667760D03*
X4947920Y4046220D03*
X6646380Y3294380D03*
G54D67*
X4654680Y594360D03*
Y4907280D03*
G54D68*
X4500000Y1650000D03*
X4900000Y3850000D03*
G54D63*
X1700000Y2550000D03*
Y2950000D03*
G54D58*
X7724140Y2924960D03*
G54D71*
X7122160Y3033860D03*
G54D70*
X6684180Y1562100D03*
G54D59*
X7792720Y454660D03*
X7795260Y5046980D03*
G54D74*
X7866380Y3953420D03*
Y3783420D03*
G54D73*
X7626220Y3600920D03*
Y4135920D03*
G54D60*
X582000Y650000D03*
Y4850000D03*
X7270000Y650000D03*
Y4850000D03*
G54D72*
X7210340Y2595420D03*
Y2697020D03*
X7212560Y3987080D03*
Y3686260D03*
G54D75*
X7866380Y3575880D03*
Y4160960D03*
G54D69*
X6129820Y3359380D03*
X6377700Y4269740D03*
X6054560Y4897120D03*
X6646380Y3359380D03*
X6708840Y4269740D03*
X6651460Y4775200D03*
G54D61*
X899300Y2652560D03*
X1214260Y2650020D03*
X6027420Y3708160D03*
X7001740Y4141940D03*
X7098260D03*
G54D65*
X2775220Y711200D03*
G54D64*
X2267220Y4780280D03*
X2521220D03*
X3285220D03*
G54D66*
X3539220Y711200D03*
Y4780280D03*
%LPD*%
G75*
G36*
G01X6288880Y3685140D02*
Y3980100D01*
X6583840D01*
Y3780100D01*
X6598840D01*
Y3735140D01*
X6583840D01*
Y3685140D01*
X6288880D01*
G37*
G36*
G01X6961730Y1345800D02*
X6959450Y1348080D01*
X6926860D01*
Y1370580D01*
X6906860D01*
Y1484580D01*
X6929200D01*
Y1639620D01*
X6906860D01*
Y1718060D01*
X6926860D01*
Y1740560D01*
X7293500D01*
Y1345800D01*
X6961730D01*
G37*
%LPC*%
G75*
G54D62*
X7218680Y1551940D03*
Y1440180D03*
Y1666240D03*
G54D76*
X6436360Y3832620D03*
%LPD*%
G75*
G54D10*
X582000Y650000D03*
Y4850000D03*
X7270000Y650000D03*
Y4850000D03*
G54D11*
X215100Y2753360D03*
G54D20*
X3390900Y2087880D03*
X3487420Y1986280D03*
X3924300Y1945640D03*
X5930900Y695960D03*
X5730240Y1998980D03*
X5400040D03*
X5605780Y4577080D03*
X5511800Y4478020D03*
X6129820Y3525520D03*
X6410960Y4168140D03*
X6379280Y5049520D03*
X6279280Y5041900D03*
X7012940Y3167380D03*
X6883400Y3896360D03*
X6730840Y3807620D03*
X6646380Y3537420D03*
X6819900Y4142740D03*
X6608840Y4343640D03*
G54D12*
X235100Y2470860D03*
Y3035860D03*
G54D30*
X6864180Y1562100D03*
X6684180D03*
G54D21*
X4091940Y698500D03*
G54D13*
X1006780Y2753360D03*
X1106780D03*
X5957100Y4665980D03*
X5954560Y4775200D03*
Y4897120D03*
X6129820Y3359380D03*
X6229820D03*
X6546380D03*
X6229820Y3453360D03*
X6129820D03*
X6546380D03*
X6377700Y4269740D03*
X6477700D03*
X6057100Y4665980D03*
X6054560Y4775200D03*
X6551460Y4897120D03*
Y4665980D03*
X6054560Y4897120D03*
X6551460Y4775200D03*
X6646380Y3359380D03*
Y3453360D03*
X6964440Y3776980D03*
X7064440D03*
X6964440Y3896360D03*
X7064440D03*
X6608840Y4269740D03*
X6708840D03*
X6651460Y4897120D03*
Y4665980D03*
Y4775200D03*
G54D22*
X3760200Y1650000D03*
X3759200Y3566160D03*
X6525260Y2979420D03*
X6596380Y2814320D03*
G54D40*
X7478520Y1254280D03*
Y1832280D03*
G54D31*
X6704340Y1305560D03*
X6864340D03*
Y1783080D03*
X6704340D03*
X6762760Y2639060D03*
X6922760D03*
X6760220Y2854960D03*
X6920220D03*
X6760220Y3034840D03*
X6920220D03*
G54D50*
G01X5400000Y2550000D02*
X3212940D01*
X2267220Y1604280D01*
Y711200D01*
G01X5400000Y2350000D02*
X3322820D01*
X2521220Y1548400D01*
Y711200D01*
G01X2775220Y4780280D02*
Y3711940D01*
X3337160Y3150000D01*
X5400000D01*
G01X3390900Y2087880D02*
X3439160Y2136140D01*
X4945380D01*
X5082540Y1998980D01*
X5400040D01*
G01X3487420Y1986280D02*
X3538220Y2037080D01*
X4861560D01*
X5102860Y1795780D01*
Y1737860D01*
X5100000Y1735000D01*
Y1650000D01*
G01X3031220Y4780280D02*
Y3763280D01*
X3444500Y3350000D01*
X5400000D01*
G01X4900000Y1650000D02*
Y1250020D01*
X4577080Y927100D01*
X4183380D01*
X4091940Y835660D01*
Y698500D01*
G01X3924300Y1945640D02*
X4795520D01*
X4900000Y1841160D01*
Y1650000D01*
G01X4472940Y1483360D02*
X4500000Y1510420D01*
G01D02*
Y1650000D01*
G01X5100000D02*
X6076680D01*
X6220460Y1506220D01*
Y742740D01*
X6215380Y737660D01*
Y695160D01*
G01X5100000Y4150040D02*
Y3850000D01*
G01Y4150040D02*
Y4797740D01*
X5209540Y4907280D01*
X5464680D01*
G01X5099960Y4150000D02*
X5100000Y4150040D01*
G01X5930900Y695960D02*
X6039960D01*
X6040760Y695160D01*
X6080760D01*
G01X5464680Y594360D02*
X6039960D01*
X6040760Y595160D01*
X6080760D01*
G01X5400040Y1998980D02*
Y2084960D01*
X5400000Y2085000D01*
Y2150000D01*
G01X5400040Y1998980D02*
X5730240D01*
G01X5400000Y2750000D02*
X5505900D01*
X5565140Y2809240D01*
X6032500D01*
X6428740Y3205480D01*
Y3352560D01*
G01X5400000Y2950000D02*
X5498040D01*
X5557520Y2890520D01*
X6032500D01*
X6337300Y3195320D01*
Y3352560D01*
G01X5605780Y4577080D02*
X5915660D01*
X5957100Y4618520D01*
Y4665980D01*
G01X5511800Y4478020D02*
X6560820D01*
X6651460Y4568660D01*
Y4665980D01*
G01X5954560Y4897120D02*
Y5040160D01*
X6050280Y5135880D01*
X6583680D01*
X6651460Y5068100D01*
Y4897120D01*
G01X5954560D02*
X5944400Y4907280D01*
X5936780D01*
G01D02*
X5464680D01*
G01X5936780D02*
X5954560Y4889500D01*
G01X6046240Y3359380D02*
X6129820D01*
G01X5954560Y4889500D02*
Y4775200D01*
G01Y4897120D02*
Y4889500D01*
G01X6551460Y4665980D02*
X6407200D01*
X6406980Y4665760D01*
X6379280D01*
G01X6054560Y4775200D02*
X6551460D01*
G01X6099600Y4665980D02*
X6057100D01*
G01X6102440Y4665760D02*
X6099820D01*
X6099600Y4665980D01*
G01X6229280Y4665760D02*
X6102440D01*
G01X6646380Y3294380D02*
Y3359380D01*
G01X7012940Y3167380D02*
X6967220D01*
X6920220Y3120380D01*
Y3034840D01*
G01X6964440Y3776980D02*
X6883400D01*
X6802760Y3857620D01*
G01X6883400Y3896360D02*
X6964440D01*
G01X6608840Y4269740D02*
Y4343640D01*
G01X6551460Y4775200D02*
Y4665980D01*
G54D14*
X899300Y2752560D03*
Y2652560D03*
X1214260Y2750020D03*
Y2650020D03*
X6215380Y595160D03*
Y695160D03*
X6080760Y595160D03*
Y695160D03*
X6428740Y3352560D03*
X6337300D03*
X6428740Y3452560D03*
X6337300D03*
X6027420Y3808160D03*
Y3708160D03*
X6905220Y4041940D03*
X7001740D03*
X7098260D03*
X6905220Y4141940D03*
X7001740D03*
X7098260D03*
G54D32*
X7079840Y2190520D03*
X6869840D03*
G54D23*
X4654680Y594360D03*
Y4907280D03*
X5464680Y594360D03*
Y4907280D03*
G54D41*
X7428520Y1111280D03*
X7843520D03*
X7428520Y1975280D03*
X7843520D03*
G54D51*
G01X1700000Y2550000D02*
X1574960D01*
X1572260Y2552700D01*
G01X1796260Y2550000D02*
X1700000D01*
G01X1513840Y2946400D02*
X1559240D01*
G01X1562840Y2950000D02*
X1700000D01*
G01X1807740D02*
X1700000D01*
G01X1559240Y2946400D02*
X1562840Y2950000D01*
G01X1846580Y2545080D02*
X1801180D01*
G01D02*
X1796260Y2550000D01*
G01X1856740Y2946400D02*
X1811340D01*
G01D02*
X1807740Y2950000D01*
G01X3031220Y711200D02*
Y1026160D01*
X3142980Y1137920D01*
X3284220D01*
G01D02*
X3285220Y1136920D01*
Y711200D01*
G01X3284220Y1137920D02*
X4483100D01*
X4700000Y1354820D01*
Y1650000D01*
G01X4064000Y1859280D02*
X4655820D01*
X4700000Y1815100D01*
Y1650000D01*
G01X4900000Y3850000D02*
Y3998300D01*
G01Y3850000D02*
Y3746160D01*
G01Y3998300D02*
X4947920Y4046220D01*
G01X4900000Y3746160D02*
X4978400Y3667760D01*
G01X6390640Y544840D02*
X6263200D01*
X6215380Y592660D01*
Y595160D01*
G01X6905220Y4041940D02*
X7001740D01*
G01X7098260D02*
X7001740D01*
G01X7371080Y3677920D02*
X7431530Y3738370D01*
X7583930D01*
G54D24*
X4300000Y1650000D03*
X4500000D03*
X4700000D03*
X4300000Y3850000D03*
X4700000D03*
X4500000D03*
X5100000Y1650000D03*
X4900000D03*
X5100000Y3850000D03*
X4900000D03*
G54D15*
X802640Y2646680D03*
X1112520Y2644140D03*
X991820Y2644860D03*
X686080Y2652480D03*
X581940Y2622000D03*
X802640Y2854960D03*
X1056640Y2857500D03*
X952500D03*
X691160Y2853140D03*
X597180Y2876000D03*
X1207440Y2537460D03*
X1419860Y2639060D03*
X1541780Y2633980D03*
X1572260Y2552700D03*
X1310640Y2639060D03*
X1422400Y2852420D03*
X1513840Y2946400D03*
X1308100Y2857500D03*
X1170940Y2860040D03*
X1554480Y2854960D03*
X1846580Y2545080D03*
X1869440Y2748280D03*
X1844040Y2656840D03*
X1856740Y2946400D03*
X1821180Y2834640D03*
X4064000Y1859280D03*
X4447540Y594360D03*
X4654680Y734060D03*
X4472940Y1483360D03*
X4500000Y4036940D03*
X4330700Y4038600D03*
X4652140Y4741040D03*
X4424680Y4907280D03*
X4978400Y3667760D03*
X4947920Y4046220D03*
X6646380Y3294380D03*
X6903720Y3536380D03*
X7218680Y1551940D03*
Y1440180D03*
Y1666240D03*
G54D42*
X7724140Y2524960D03*
Y2724960D03*
Y2924960D03*
G54D33*
X6915040Y1976120D03*
X6704440D03*
G54D52*
G01X450100Y2753360D02*
X450900Y2752560D01*
G01X1164260Y2750020D02*
X1162620D01*
X1159280Y2753360D01*
X1106780D01*
G01X1264260Y2750020D02*
X1214260D01*
G01D02*
X1164260D01*
G01X4300000Y1650000D02*
X3760200D01*
G01X3759200Y3566160D02*
X4582160D01*
X4700000Y3684000D01*
Y3850000D01*
G01X4654680Y734060D02*
Y594360D01*
G01X4447540D02*
X4654680D01*
G01X4500000Y3850000D02*
Y4036940D01*
G01X4300000Y3850000D02*
Y4007900D01*
X4330700Y4038600D01*
G01X4424680Y4907280D02*
X4654680D01*
G01X4652140Y4741040D02*
X4654680D01*
Y4907280D01*
G01X7120340Y2535420D02*
Y2502060D01*
X7122160Y2500240D01*
G01X6760220Y3034840D02*
Y2854960D01*
G01X7233920Y3346460D02*
X7213240Y3325780D01*
X7040880D01*
G01Y3536380D02*
X6903720D01*
G01X7233920Y3506460D02*
X7319000D01*
X7371080Y3558540D01*
Y3677920D01*
G54D34*
X7120340Y2595420D03*
Y2697020D03*
X7210340Y2595420D03*
Y2697020D03*
G54D16*
X1700000Y2550000D03*
Y2950000D03*
X5400000Y2150000D03*
Y2350000D03*
Y2550000D03*
Y2750000D03*
Y2950000D03*
Y3150000D03*
Y3350000D03*
G54D25*
X6390640Y544840D03*
Y704840D03*
X6525260Y2634780D03*
Y2474780D03*
X7233920Y3346460D03*
Y3506460D03*
G54D43*
X7724140Y2294960D03*
Y3154960D03*
G54D53*
G01X6525260Y2634780D02*
X6758480D01*
X6762760Y2639060D01*
G01X6760220Y3034840D02*
X6580680D01*
X6525260Y2979420D01*
G01X6864340Y1783080D02*
Y1654760D01*
X6864180Y1654600D01*
Y1562100D01*
G01X6864340Y1305560D02*
Y1469440D01*
X6864180Y1469600D01*
Y1562100D01*
G01X7368520Y1303280D02*
X6944120D01*
X6941840Y1305560D01*
X6864340D01*
G01Y1783080D02*
X7278320D01*
X7278520Y1783280D01*
X7368520D01*
G01X7122160Y2415540D02*
Y2232840D01*
X7079840Y2190520D01*
G01X6869840D02*
Y2292500D01*
X6868160Y2294180D01*
Y2415540D01*
G01X6915040Y1976120D02*
Y2091050D01*
X6869840Y2136250D01*
Y2190520D01*
G01X6704440Y1976120D02*
Y1863180D01*
X6704340Y1863080D01*
Y1783080D01*
G01X6922760Y2639060D02*
Y2719060D01*
X6920220Y2721600D01*
Y2854960D01*
G01X7122160Y2853860D02*
Y2775940D01*
X7120340Y2774120D01*
Y2697020D01*
G01Y2535420D02*
Y2595420D01*
G01X7122160Y2500240D02*
Y2533600D01*
X7120340Y2535420D01*
G01X7122160Y2415540D02*
Y2500240D01*
G01Y2415540D02*
X7386320D01*
X7495740Y2524960D01*
X7724140D01*
G01X6596380Y2814320D02*
X6637020Y2854960D01*
X6760220D01*
G01X7122160Y2855940D02*
X7365020D01*
X7496000Y2724960D01*
X7724140D01*
G01X6920220Y2854960D02*
X6997720D01*
X6998700Y2855940D01*
X7122160D01*
G01D02*
Y2853860D01*
G54D26*
X6436360Y3832620D03*
G54D44*
X7212560Y3987080D03*
Y3897080D03*
Y3686260D03*
Y3776260D03*
G54D35*
X7122160Y2853860D03*
Y3033860D03*
G54D17*
X1700000Y2750000D03*
G54D54*
G01X6236360Y3807620D02*
X6065460D01*
X6064920Y3808160D01*
X6027420D01*
G01X6461360Y4032620D02*
Y4117740D01*
X6410960Y4168140D01*
G01X6477700Y4269740D02*
X6608840D01*
G01X6511360Y4032620D02*
Y4198580D01*
X6477700Y4232240D01*
Y4269740D01*
G01X6802760Y3857620D02*
X6636360D01*
G01Y3807620D02*
X6730840D01*
G01X6636360Y3957620D02*
X6823400D01*
G01D02*
X6905220Y4039440D01*
Y4041940D01*
G01X6636360Y3907620D02*
X6773400D01*
X6823400Y3957620D01*
G01X6819900Y4142740D02*
X6866920D01*
X6867720Y4141940D01*
X6905220D01*
G01X6608840Y4269740D02*
Y4239020D01*
X6561360Y4191540D01*
Y4032620D01*
G54D18*
X2267220Y711200D03*
Y4780280D03*
X2775220Y711200D03*
X2521220D03*
X2775220Y4780280D03*
X2521220D03*
X3031220Y711200D03*
X3285220D03*
X3031220Y4780280D03*
X3285220D03*
X7122160Y2415540D03*
G54D27*
X6511360Y3632620D03*
X6461360D03*
X6411360D03*
X6361360D03*
X6311360D03*
Y4032620D03*
X6361360D03*
X6411360D03*
X6461360D03*
X6511360D03*
X6561360Y3632620D03*
Y4032620D03*
G54D45*
X7626220Y3600920D03*
Y4135920D03*
G54D36*
X7040880Y3325780D03*
Y3536380D03*
G54D55*
G01X215100Y2753360D02*
X450100D01*
G01X450900Y2752560D02*
X899300D01*
G01X1006780Y2753360D02*
X950100D01*
X949300Y2752560D01*
X899300D01*
G01X1700000Y2750000D02*
X1164280D01*
X1164260Y2750020D01*
G54D19*
X3539220Y711200D03*
Y4780280D03*
X6868160Y2415540D03*
G54D28*
X6236360Y3707620D03*
Y3757620D03*
Y3807620D03*
Y3857620D03*
Y3907620D03*
Y3957620D03*
X6636360D03*
Y3907620D03*
Y3857620D03*
Y3807620D03*
Y3757620D03*
Y3707620D03*
G54D37*
X7792720Y454660D03*
X7795260Y5046980D03*
G54D46*
X7583930Y3998470D03*
Y3933440D03*
Y3868420D03*
Y3803400D03*
Y3738370D03*
G54D56*
G01X276900Y650000D02*
X582000D01*
G01X235100Y2398260D02*
Y2470860D01*
G01D02*
Y2543460D01*
G01Y2470860D02*
X480200D01*
G01X235100Y2963260D02*
Y3035860D01*
G01D02*
Y3108460D01*
G01Y3035860D02*
X480200D01*
G01X276900Y4850000D02*
X582000D01*
G01Y344900D02*
Y650000D01*
G01D02*
Y955100D01*
G01Y650000D02*
X887100D01*
G01X581940Y2591500D02*
Y2622000D01*
G01D02*
Y2652500D01*
G01X551440Y2622000D02*
X581940D01*
G01D02*
X612440D01*
G01X686080Y2621980D02*
Y2652480D01*
G01D02*
Y2682980D01*
G01X655580Y2652480D02*
X686080D01*
G01D02*
X716580D01*
G01X991820Y2614360D02*
Y2644860D01*
G01D02*
Y2675360D01*
G01X961320Y2644860D02*
X991820D01*
G01D02*
X1022320D01*
G01X1112520Y2613640D02*
Y2644140D01*
G01D02*
Y2674640D01*
G01X1082020Y2644140D02*
X1112520D01*
G01D02*
X1143020D01*
G01X802640Y2616180D02*
Y2646680D01*
G01D02*
Y2677180D01*
G01X772140Y2646680D02*
X802640D01*
G01D02*
X833140D01*
G01X899300Y2619960D02*
Y2652560D01*
G01D02*
Y2685160D01*
G01X869200Y2652560D02*
X899300D01*
G01D02*
X929400D01*
G01X597180Y2845500D02*
Y2876000D01*
G01D02*
Y2906500D01*
G01X566680Y2876000D02*
X597180D01*
G01D02*
X627680D01*
G01X691160Y2822640D02*
Y2853140D01*
G01D02*
Y2883640D01*
G01X660660Y2853140D02*
X691160D01*
G01D02*
X721660D01*
G01X952500Y2827000D02*
Y2857500D01*
G01D02*
Y2888000D01*
G01X922000Y2857500D02*
X952500D01*
G01D02*
X983000D01*
G01X1056640Y2827000D02*
Y2857500D01*
G01D02*
Y2888000D01*
G01X1026140Y2857500D02*
X1056640D01*
G01D02*
X1087140D01*
G01X802640Y2824460D02*
Y2854960D01*
G01D02*
Y2885460D01*
G01X772140Y2854960D02*
X802640D01*
G01D02*
X833140D01*
G01X582000Y4544900D02*
Y4850000D01*
G01D02*
Y5155100D01*
G01Y4850000D02*
X887100D01*
G01X1310640Y2608560D02*
Y2639060D01*
G01D02*
Y2669560D01*
G01X1280140Y2639060D02*
X1310640D01*
G01D02*
X1341140D01*
G01X1572260Y2522200D02*
Y2552700D01*
G01D02*
Y2583200D01*
G01X1541760Y2552700D02*
X1572260D01*
G01D02*
X1602760D01*
G01X1541780Y2603480D02*
Y2633980D01*
G01D02*
Y2664480D01*
G01X1511280Y2633980D02*
X1541780D01*
G01D02*
X1572280D01*
G01X1419860Y2608560D02*
Y2639060D01*
G01D02*
Y2669560D01*
G01X1389360Y2639060D02*
X1419860D01*
G01D02*
X1450360D01*
G01X1207440Y2506960D02*
Y2537460D01*
G01D02*
Y2567960D01*
G01X1176940Y2537460D02*
X1207440D01*
G01D02*
X1237940D01*
G01X1700000Y2494900D02*
Y2550000D01*
G01D02*
Y2605100D01*
G01X1214260Y2617420D02*
Y2650020D01*
G01D02*
Y2682620D01*
G01X1184160Y2650020D02*
X1214260D01*
G01D02*
X1244360D01*
G01X1554480Y2824460D02*
Y2854960D01*
G01D02*
Y2885460D01*
G01X1523980Y2854960D02*
X1554480D01*
G01D02*
X1584980D01*
G01X1170940Y2829540D02*
Y2860040D01*
G01D02*
Y2890540D01*
G01X1140440Y2860040D02*
X1170940D01*
G01D02*
X1201440D01*
G01X1308100Y2827000D02*
Y2857500D01*
G01D02*
Y2888000D01*
G01X1277600Y2857500D02*
X1308100D01*
G01D02*
X1338600D01*
G01X1513840Y2915900D02*
Y2946400D01*
G01D02*
Y2976900D01*
G01X1483340Y2946400D02*
X1513840D01*
G01X1422400Y2821920D02*
Y2852420D01*
G01D02*
Y2882920D01*
G01X1391900Y2852420D02*
X1422400D01*
G01D02*
X1452900D01*
G01X1700000Y2894900D02*
Y2950000D01*
G01D02*
Y3005100D01*
G01X1821180Y2804140D02*
Y2834640D01*
G01X1844040Y2626340D02*
Y2656840D01*
G01D02*
Y2687340D01*
G01X1813540Y2656840D02*
X1844040D01*
G01D02*
X1874540D01*
G01X1869440Y2717780D02*
Y2748280D01*
G01D02*
Y2778780D01*
G01X1838940Y2748280D02*
X1869440D01*
G01D02*
X1899940D01*
G01X1846580Y2514580D02*
Y2545080D01*
G01D02*
Y2575580D01*
G01Y2545080D02*
X1877080D01*
G01X1821180Y2834640D02*
Y2865140D01*
G01X1790680Y2834640D02*
X1821180D01*
G01D02*
X1851680D01*
G01X1856740Y2915900D02*
Y2946400D01*
G01D02*
Y2976900D01*
G01Y2946400D02*
X1887240D01*
G01X2775220Y636250D02*
Y711200D01*
G01D02*
Y786150D01*
G01X2700270Y711200D02*
X2775220D01*
G01D02*
X2850170D01*
G01X3539220Y636250D02*
Y711200D01*
G01D02*
Y786150D01*
G01X3464270Y711200D02*
X3539220D01*
G01D02*
X3614170D01*
G01X3539220Y4705330D02*
Y4780280D01*
G01D02*
Y4855230D01*
G01X3464270Y4780280D02*
X3539220D01*
G01D02*
X3614170D01*
G01X4654680Y734060D02*
Y764560D01*
G01X4624180Y734060D02*
X4654680D01*
G01D02*
X4685180D01*
G01X4447540Y563860D02*
Y594360D01*
G01D02*
Y624860D01*
G01X4417040Y594360D02*
X4447540D01*
G01X4654680Y534250D02*
Y594360D01*
G01D02*
X4764790D01*
G01X4472940Y1452860D02*
Y1483360D01*
G01D02*
Y1513860D01*
G01X4442440Y1483360D02*
X4472940D01*
G01D02*
X4503440D01*
G01X4500000Y1650000D02*
Y1725100D01*
G01X4444900Y1650000D02*
X4500000D01*
G01D02*
X4555100D01*
G01X4424680Y4876780D02*
Y4907280D01*
G01D02*
Y4937780D01*
G01X4394180Y4907280D02*
X4424680D01*
G01X4652140Y4710540D02*
Y4741040D01*
G01D02*
Y4771540D01*
G01X4621640Y4741040D02*
X4652140D01*
G01X4654680Y4907280D02*
Y4967390D01*
G01Y4907280D02*
X4764790D01*
G01X4947920Y4015720D02*
Y4046220D01*
G01X4978400Y3637260D02*
Y3667760D01*
G01D02*
Y3698260D01*
G01X4947900Y3667760D02*
X4978400D01*
G01D02*
X5008900D01*
G01X4844900Y3850000D02*
X4900000D01*
G01D02*
X4955100D01*
G01X4947920Y4046220D02*
Y4076720D01*
G01X4917420Y4046220D02*
X4947920D01*
G01D02*
X4978420D01*
G01X6390640Y704840D02*
Y757440D01*
G01X6335540Y704840D02*
X6390640D01*
G01D02*
X6445740D01*
G01X6525260Y2422180D02*
Y2474780D01*
G01X6470160D02*
X6525260D01*
G01D02*
X6580360D01*
G01X6129820Y3329280D02*
Y3359380D01*
G01D02*
Y3389480D01*
G01Y3359380D02*
X6162420D01*
G01X6436360Y3692520D02*
Y3832620D01*
G01D02*
Y3972720D01*
G01X6296260Y3832620D02*
X6436360D01*
G01D02*
X6576460D01*
G01X6027420Y3675560D02*
Y3708160D01*
G01D02*
Y3740760D01*
G01X5997320Y3708160D02*
X6027420D01*
G01D02*
X6057520D01*
G01X6377700Y4239640D02*
Y4269740D01*
G01D02*
Y4299840D01*
G01X6345100Y4269740D02*
X6377700D01*
G01D02*
X6410300D01*
G01X6229280Y4905660D02*
Y4955760D01*
G01D02*
Y5005860D01*
G01X6211480Y4955760D02*
X6229280D01*
G01X6054560Y4867020D02*
Y4897120D01*
G01D02*
Y4927220D01*
G01X6021960Y4897120D02*
X6054560D01*
G01D02*
X6087160D01*
G01X6964900Y650000D02*
X7270000D01*
G01X6704340Y1250460D02*
Y1305560D01*
G01D02*
Y1360660D01*
G01X6651740Y1305560D02*
X6704340D01*
G01X6684180Y1494500D02*
Y1562100D01*
G01D02*
Y1629700D01*
G01X6629080Y1562100D02*
X6684180D01*
G01D02*
X6739280D01*
G01X6646380Y3263880D02*
Y3294380D01*
G01X6615880D02*
X6646380D01*
G01D02*
X6676880D01*
G01X7122160Y2978760D02*
Y3033860D01*
G01D02*
Y3088960D01*
G01X7054560Y3033860D02*
X7122160D01*
G01D02*
X7189760D01*
G01X6646380Y3359380D02*
Y3389480D01*
G01X6613780Y3359380D02*
X6646380D01*
G01D02*
X6678980D01*
G01X6593760Y3757620D02*
X6636360D01*
G01D02*
X6678960D01*
G01X6708840Y4239640D02*
Y4269740D01*
G01D02*
Y4299840D01*
G01X6676240Y4269740D02*
X6708840D01*
G01D02*
X6741440D01*
G01X7098260Y4109340D02*
Y4141940D01*
G01D02*
Y4174540D01*
G01X7068160Y4141940D02*
X7098260D01*
G01D02*
X7128360D01*
G01X7001740Y4109340D02*
Y4141940D01*
G01D02*
Y4174540D01*
G01X6971640Y4141940D02*
X7001740D01*
G01D02*
X7031840D01*
G01X6651460Y4745100D02*
Y4775200D01*
G01D02*
Y4805300D01*
G01X6618860Y4775200D02*
X6651460D01*
G01D02*
X6684060D01*
G01X6964900Y4850000D02*
X7270000D01*
G01Y344900D02*
Y650000D01*
G01D02*
Y955100D01*
G01Y650000D02*
X7575100D01*
G01X7218680Y1409680D02*
Y1440180D01*
G01D02*
Y1470680D01*
G01X7188180Y1440180D02*
X7218680D01*
G01D02*
X7249180D01*
G01X7218680Y1521440D02*
Y1551940D01*
G01D02*
Y1582440D01*
G01X7188180Y1551940D02*
X7218680D01*
G01D02*
X7249180D01*
G01X7368520Y1188180D02*
Y1223280D01*
G01X7303420D02*
X7368520D01*
G01D02*
X7433620D01*
G01X7218680Y1635740D02*
Y1666240D01*
G01D02*
Y1696740D01*
G01X7188180Y1666240D02*
X7218680D01*
G01D02*
X7249180D01*
G01X7368520Y1863280D02*
Y1898380D01*
G01X7303420Y1863280D02*
X7368520D01*
G01D02*
X7433620D01*
G01X7724140Y2244860D02*
Y2294960D01*
G01D02*
Y2345060D01*
G01X7619040Y2294960D02*
X7724140D01*
G01D02*
X7829240D01*
G01X7210340Y2661920D02*
Y2697020D01*
G01D02*
Y2732120D01*
G01X7175240Y2697020D02*
X7210340D01*
G01D02*
X7245440D01*
G01X7210340Y2560320D02*
Y2595420D01*
G01D02*
Y2630520D01*
G01X7175240Y2595420D02*
X7210340D01*
G01D02*
X7245440D01*
G01X7724140Y3104860D02*
Y3154960D01*
G01D02*
Y3205060D01*
G01X7619040Y3154960D02*
X7724140D01*
G01D02*
X7829240D01*
G01X7583930Y3998470D02*
Y4026070D01*
G01X7509830Y3998470D02*
X7583930D01*
G01D02*
X7658030D01*
G01X7626220Y3523320D02*
Y3600920D01*
G01D02*
Y3678520D01*
G01X7516120Y3600920D02*
X7626220D01*
G01D02*
X7736320D01*
G01X7212560Y3651160D02*
Y3686260D01*
G01D02*
Y3721360D01*
G01X7177460Y3686260D02*
X7212560D01*
G01D02*
X7247660D01*
G01X7212560Y3951980D02*
Y3987080D01*
G01D02*
Y4022180D01*
G01X7177460Y3987080D02*
X7212560D01*
G01D02*
X7247660D01*
G01X7626220Y4058320D02*
Y4135920D01*
G01D02*
Y4213520D01*
G01X7516120Y4135920D02*
X7626220D01*
G01D02*
X7736320D01*
G01X7270000Y4544900D02*
Y4850000D01*
G01D02*
Y5155100D01*
G01Y4850000D02*
X7575100D01*
G01X7866380Y3453280D02*
Y3575880D01*
G01D02*
Y3698480D01*
G01X7766280Y3575880D02*
X7866380D01*
G01D02*
X7966480D01*
G01X7866380Y3718320D02*
Y3783420D01*
G01D02*
Y3848520D01*
G01X7766280Y3783420D02*
X7866380D01*
G01D02*
X7966480D01*
G01X7866380Y3888320D02*
Y3953420D01*
G01D02*
Y4018520D01*
G01X7766280Y3953420D02*
X7866380D01*
G01D02*
X7966480D01*
G01X7866380Y4038360D02*
Y4160960D01*
G01D02*
Y4283560D01*
G01X7766280Y4160960D02*
X7866380D01*
G01D02*
X7966480D01*
G54D29*
X6379280Y4665760D03*
X6329280D03*
X6279280D03*
X6229280D03*
Y4955760D03*
X6279280D03*
X6329280D03*
X6379280D03*
G54D47*
X7866380Y3953420D03*
Y3783420D03*
G54D38*
X7368520Y1618280D03*
Y1568280D03*
Y1518280D03*
Y1468280D03*
Y1418280D03*
Y1368280D03*
Y1718280D03*
Y1668280D03*
G54D57*
G01X7064440Y3776980D02*
X7104440D01*
X7105160Y3776260D01*
X7212560D01*
G01Y3897080D02*
X7105160D01*
X7104440Y3896360D01*
X7064440D01*
G01X7212560Y3776260D02*
X7255060D01*
X7282200Y3803400D01*
X7583930D01*
G01Y3868420D02*
X7283720D01*
X7255060Y3897080D01*
X7212560D01*
G54D48*
X7866380Y3575880D03*
Y4160960D03*
G54D39*
X7368520Y1303280D03*
Y1223280D03*
Y1783280D03*
Y1863280D03*
G54D49*
G01X6229820Y3453360D02*
Y3359380D01*
G01X6546380Y3453360D02*
X6543880D01*
X6511800Y3485440D01*
Y3616520D01*
X6511360Y3616960D01*
Y3632620D01*
G01X6311360D02*
Y3532400D01*
X6232320Y3453360D01*
X6229820D01*
G01X6428740Y3452560D02*
Y3490060D01*
X6411360Y3507440D01*
Y3632620D01*
G01X6361360D02*
Y3514120D01*
X6337300Y3490060D01*
Y3452560D01*
G01X6129820Y3453360D02*
Y3525520D01*
G01X6329280Y4665760D02*
Y4579210D01*
X6314440Y4564370D01*
X6294120D01*
X6279280Y4579210D01*
Y4665760D01*
G01X6379280Y4955760D02*
Y5049520D01*
G01X6279280Y4955760D02*
Y5041900D01*
G01X6551460Y4897120D02*
X6548960D01*
X6508320Y4856480D01*
X6355080D01*
X6329280Y4882280D01*
Y4955760D01*
G01X6099600Y4665980D02*
X6102220D01*
X6102440Y4665760D01*
G01X6546380Y3359380D02*
Y3453360D01*
G01X6646380D02*
Y3537420D01*
M02*
