M48
METRIC,TZ
T01C.2032
T02C.254
T03C.381
T04C.9144
T05C3.3
T06C.65
;LEADER: 12 
;HEADER: 
;CODE  : ASCII 
;FILE  : ASR6601CB_FEM_TB_V10_240315-1-2.drl for  ... layers TOP and BOTTOM
;DESIGN: ASR6601CB_FEM_TB_V10_240315.brd
;T01 Holesize 1. = 0.203200 Tolerance = +0.076200/-0.076200 PLATED MM Quantity = 18
;T02 Holesize 2. = 0.254000 Tolerance = +0.076200/-0.076200 PLATED MM Quantity = 40
;T03 Holesize 3. = 0.381000 Tolerance = +0.000000/-0.000000 PLATED MM Quantity = 4
;T04 Holesize 4. = 0.914400 Tolerance = +0.000000/-0.000000 PLATED MM Quantity = 14
;T05 Holesize 5. = 3.300000 Tolerance = +0.000000/-0.000000 PLATED MM Quantity = 4
;T06 Holesize 6. = 0.650000 Tolerance = +0.000000/-0.000000 NON_PLATED MM Quantity = 2
%
G90
T01
X5511800Y4478020
X6646380Y3537420
X6279280Y5041900
X6129820Y3525520
X6379280Y5049520
X5605780Y4577080
X3924300Y1945640
X6608840Y4343640
X7012940Y3167380
X3487420Y1986280
X3390900Y2087880
X5400040Y1998980
X5730240
X5930900Y695960
X6730840Y3807620
X6883400Y3896360
X6410960Y4168140
X6819900Y4142740
T02
X6903720Y3536380
X4330700Y4038600
X4500000Y4036940
X4064000Y1859280
X6646380Y3294380
X597180Y2876000
X691160Y2853140
X952500Y2857500
X1056640
X581940Y2622000
X686080Y2652480
X991820Y2644860
X1554480Y2854960
X1170940Y2860040
X1308100Y2857500
X1112520Y2644140
X1310640Y2639060
X1513840Y2946400
X1572260Y2552700
X4424680Y4907280
X4652140Y4741040
X4654680Y734060
X4447540Y594360
X1541780Y2633980
X7218680Y1440180
Y1551940
Y1666240
X4947920Y4046220
X4978400Y3667760
X1419860Y2639060
X1844040Y2656840
X1869440Y2748280
X1821180Y2834640
X1422400Y2852420
X1846580Y2545080
X1856740Y2946400
X1207440Y2537460
X802640Y2854960
Y2646680
X4472940Y1483360
T03
X6525260Y2979420
X6596380Y2814320
X3759200Y3566160
X3760200Y1650000
T04
X3539220Y4780280
R02X-254000
X2775220
R02X-254000
X3539220Y711200
R02X-254000
X2775220
R02X-254000
X6868160Y2415540
X7122160
T05
X582000Y650000
X7270000
X582000Y4850000
X7270000
T06
X7478520Y1254280
Y1832280
M30
