G04 ================== begin FILE IDENTIFICATION RECORD ==================*
G04 Layout Name:  ASR6601CB_FEM_TB_V10_240315.brd*
G04 Film Name:    BOTTOM*
G04 File Format:  Gerber RS274X*
G04 File Origin:  Cadence Allegro 16.6-2015-S088*
G04 Origin Date:  Tue Mar 19 16:49:56 2024*
G04 *
G04 Layer:  ETCH/BOTTOM*
G04 Layer:  PIN/BOTTOM*
G04 Layer:  VIA CLASS/BOTTOM*
G04 *
G04 Offset:    (0.0000 0.0000)*
G04 Mirror:    No*
G04 Mode:      Positive*
G04 Rotation:  0*
G04 FullContactRelief:  No*
G04 UndefLineWidth:     0.0000*
G04 ================== end FILE IDENTIFICATION RECORD ====================*
%FSLAX25Y25*MOMM*%
%IR0*IPPOS*OFA0.00000B0.00000*MIA0B0*SFA1.00000B1.00000*%
%ADD20O,2.X.9*%
%ADD19O,.8X1.3*%
%ADD17C,.65*%
%ADD12C,.508*%
%ADD15C,.4064*%
%ADD16C,.762*%
%ADD18O,2.X1.*%
%ADD10C,6.*%
%ADD11R,4.8X1.35*%
%ADD13C,1.397*%
%ADD14R,1.397X1.397*%
%ADD21C,.2*%
%ADD22C,.3*%
%ADD23C,.5*%
%ADD24C,.25*%
%ADD25C,.254*%
%ADD34C,.6504*%
%ADD28C,.5084*%
%ADD35C,.7624*%
%ADD32C,.7068*%
%ADD33R,.9656X1.372*%
%ADD26O,1.1004X1.6004*%
%ADD27C,6.0004*%
%ADD30C,1.3974*%
%ADD29C,1.6974*%
%ADD31R,1.3974X1.3974*%
G75*
%LPD*%
G75*
G36*
G01X7900000Y5229960D02*
G02X7979960Y5150000I0J-79960D01*
G01Y350000D01*
G02X7900000Y270040I-79960J0D01*
G01X100000D01*
G02X20040Y350000I0J79960D01*
G01Y2403340D01*
X475120D01*
Y2538380D01*
X20040D01*
Y2968340D01*
X475120D01*
Y3103380D01*
X20040D01*
Y5150000D01*
G02X100000Y5229960I79960J0D01*
G01X7900000D01*
G37*
%LPC*%
G75*
G36*
G01X3322750Y4704150D02*
Y4685410D01*
G02X3322740Y4684550I-37530J6D01*
G01Y4669880D01*
X3319200Y4666340D01*
Y4059220D01*
X3759100Y3619320D01*
X3761100Y3619250D01*
G02X3798080Y3529970I-1901J-53086D01*
G01X3796720Y3528500D01*
Y3518600D01*
X3797720Y3517600D01*
Y1687600D01*
G02X3722680I-37520J-37600D01*
G01Y3486520D01*
X3721680Y3487520D01*
Y3528560D01*
G02X3706110Y3564260I37516J37607D01*
G01X3706040Y3566260D01*
X3244160Y4028140D01*
Y4697420D01*
X3247690Y4700950D01*
Y4702590D01*
X3244420Y4705860D01*
X3243800Y4706200D01*
G02X3322750Y4704150I41425J74078D01*
G37*
G36*
G01X6660080Y3139040D02*
X6745840Y3053280D01*
Y2489000D01*
X6446720Y2189880D01*
X4752740D01*
X4752340Y2189480D01*
X4404360D01*
X4203700Y2390140D01*
Y4206240D01*
X4279900Y4282440D01*
X4485640D01*
Y4282040D01*
X4590180D01*
X4660900Y4211320D01*
Y2692400D01*
X4813300Y2540000D01*
X5110280D01*
X5110680Y2539600D01*
X6199940D01*
X6358020Y2697680D01*
Y3050740D01*
X6446320Y3139040D01*
X6660080D01*
G37*
G36*
G01X7669140Y3199980D02*
X7779140D01*
G02Y3109940I0J-45020D01*
G01X7669140D01*
G02Y3199980I0J45020D01*
G37*
G36*
G01Y2339980D02*
X7779140D01*
G02Y2249940I0J-45020D01*
G01X7669140D01*
G02Y2339980I0J45020D01*
G37*
G36*
G01X7793520Y2040300D02*
X7893520D01*
G02Y1910260I0J-65020D01*
G01X7793520D01*
G02Y2040300I0J65020D01*
G37*
G36*
G01X7378520D02*
X7478520D01*
G02Y1910260I0J-65020D01*
G01X7378520D01*
G02Y2040300I0J65020D01*
G37*
G36*
G01X7793520Y1176300D02*
X7893520D01*
G02Y1046260I0J-65020D01*
G01X7793520D01*
G02Y1176300I0J65020D01*
G37*
G36*
G01X7378520D02*
X7478520D01*
G02Y1046260I0J-65020D01*
G01X7378520D01*
G02Y1176300I0J65020D01*
G37*
G36*
G01X6446300Y4168180D02*
X6446720Y4167760D01*
X6794940D01*
G02Y4117720I24960J-25020D01*
G01X6426000D01*
X6410970Y4132750D01*
X6409030Y4132850D01*
G02X6446300Y4168180I1929J35288D01*
G37*
G36*
G01X6888780Y3861430D02*
X6887140Y3861180D01*
X6806060Y3780100D01*
X6753010D01*
G02Y3835140I-22170J27520D01*
G01X6783260D01*
X6848220Y3900100D01*
X6848470Y3901740D01*
G02X6888780Y3861430I34930J-5380D01*
G37*
G36*
G01X6590530Y3561420D02*
X6167330D01*
G03X6158960Y3545510I7J-10161D01*
G02X6102580Y3503000I-29140J-19995D01*
G01X5903790D01*
X5700100Y3706690D01*
Y5005510D01*
X5814890Y5120300D01*
X6340350D01*
X6375880Y5084770D01*
X6378090Y5084840D01*
G02X6343960Y5050710I1190J-35320D01*
G01X6344030Y5052920D01*
X6321690Y5075260D01*
X6318420D01*
G03X6309680Y5059920I0J-10160D01*
G02X6252040Y5019380I-30398J-18027D01*
G01X5848790D01*
X5798480Y4969070D01*
Y3748210D01*
X5940230Y3606460D01*
X6609190D01*
X6642980Y3572670D01*
X6645190Y3572740D01*
G02X6611060Y3538610I1190J-35320D01*
G01X6611130Y3540820D01*
X6590530Y3561420D01*
G37*
G36*
G01X6985420Y3189550D02*
Y4245640D01*
X6914940Y4316120D01*
X6631010D01*
G02Y4371160I-22170J27520D01*
G01X6937740D01*
X7040460Y4268440D01*
Y3189550D01*
G02X6985420I-27520J-22170D01*
G37*
G36*
G01X6920440Y3499580D02*
X6919600Y3499200D01*
X6905600Y3485200D01*
Y3376040D01*
X6905680Y3375960D01*
Y2500410D01*
X6953030D01*
Y2330670D01*
X6783290D01*
Y2500410D01*
X6830640D01*
Y3344880D01*
X6830560Y3344960D01*
Y3516280D01*
X6866540Y3552260D01*
X6866920Y3553100D01*
G02X6920440Y3499580I36800J-16720D01*
G37*
G36*
G01X3368730Y2060360D02*
X3120420D01*
X2239700Y2941080D01*
Y4700000D01*
G02X2294740I27520J80280D01*
G01Y2963880D01*
X3143220Y2115400D01*
X3368730D01*
G02Y2060360I22170J-27520D01*
G37*
G36*
G01X2493700Y4860560D02*
Y4901960D01*
X2429540Y4966120D01*
X2165320D01*
X2082380Y4883180D01*
Y2967960D01*
X3036540Y2013800D01*
X3465250D01*
G02Y1958760I22170J-27520D01*
G01X3013740D01*
X2027340Y2945160D01*
Y4905980D01*
X2142520Y5021160D01*
X2452340D01*
X2548740Y4924760D01*
Y4860560D01*
G02X2493700I-27520J-80280D01*
G37*
G36*
G01X3896780Y1967810D02*
Y4436080D01*
X4065300Y4604600D01*
X5583610D01*
G02Y4549560I22170J-27520D01*
G01X4088100D01*
X3951820Y4413280D01*
Y1967810D01*
G02X3896780I-27520J-22170D01*
G37*
G36*
G01X4036480Y1888880D02*
Y4370040D01*
X4171980Y4505540D01*
X5489630D01*
G02Y4450500I22170J-27520D01*
G01X4194780D01*
X4091520Y4347240D01*
Y1888880D01*
G02X4036480I-27520J-29600D01*
G37*
G36*
G01X5765170Y2004360D02*
X5765420Y2002720D01*
X5958420Y1809720D01*
Y718130D01*
G02X5903380I-27520J-22170D01*
G01Y1786920D01*
X5726500Y1963800D01*
X5724860Y1964050D01*
G02X5765170Y2004360I5380J34930D01*
G37*
G36*
G01X3060230Y790960D02*
G02X3003700Y791480I-29001J-79760D01*
G01Y802460D01*
X3013300Y812060D01*
G02X3060230Y790960I19459J-19460D01*
G37*
G54D34*
X7478520Y1254280D03*
Y1832280D03*
G54D28*
X802640Y2646680D03*
X1112520Y2644140D03*
X991820Y2644860D03*
X686080Y2652480D03*
X581940Y2622000D03*
X802640Y2854960D03*
X1056640Y2857500D03*
X952500D03*
X691160Y2853140D03*
X597180Y2876000D03*
X1207440Y2537460D03*
X1419860Y2639060D03*
X1541780Y2633980D03*
X1572260Y2552700D03*
X1310640Y2639060D03*
X1422400Y2852420D03*
X1513840Y2946400D03*
X1308100Y2857500D03*
X1170940Y2860040D03*
X1554480Y2854960D03*
X1846580Y2545080D03*
X1869440Y2748280D03*
X1844040Y2656840D03*
X1856740Y2946400D03*
X1821180Y2834640D03*
X4447540Y594360D03*
X4654680Y734060D03*
X4472940Y1483360D03*
X4652140Y4741040D03*
X4424680Y4907280D03*
X4978400Y3667760D03*
X4947920Y4046220D03*
X6646380Y3294380D03*
X7218680Y1551940D03*
Y1440180D03*
Y1666240D03*
G54D32*
X5400040Y1998980D03*
G54D33*
X6974840Y2190520D03*
G54D26*
X7724140Y2924960D03*
Y2724960D03*
Y2524960D03*
G54D27*
X582000Y650000D03*
Y4850000D03*
X7270000Y650000D03*
Y4850000D03*
G54D30*
X2775220Y711200D03*
G54D29*
X2267220D03*
X2521220D03*
X2775220Y4780280D03*
X3285220Y711200D03*
X3031220Y4780280D03*
X7122160Y2415540D03*
G54D31*
X3539220Y711200D03*
Y4780280D03*
%LPD*%
G75*
G36*
G01X6426000Y2239880D02*
X4681420D01*
X4681020Y2240280D01*
X4445000D01*
X4264660Y2420620D01*
Y4191000D01*
X4305300Y4231640D01*
X4551680D01*
X4592320Y4191000D01*
Y2621280D01*
X4724400Y2489200D01*
X5107940D01*
Y2489600D01*
X6220660D01*
X6408020Y2676960D01*
Y3030020D01*
X6467040Y3089040D01*
X6639360D01*
X6695840Y3032560D01*
Y2509720D01*
X6426000Y2239880D01*
G37*
%LPC*%
G75*
G54D28*
X4500000Y4036940D03*
X4330700Y4038600D03*
G54D35*
X6525260Y2979420D03*
X6596380Y2814320D03*
%LPD*%
G75*
G54D10*
X582000Y650000D03*
Y4850000D03*
X7270000Y650000D03*
Y4850000D03*
G54D11*
X235100Y2470860D03*
Y3035860D03*
G54D20*
X7724140Y2294960D03*
Y3154960D03*
G54D21*
G01X6379280Y5049520D02*
X6331020Y5097780D01*
X5824220D01*
X5722620Y4996180D01*
Y3716020D01*
X5913120Y3525520D01*
X6129820D01*
G01X6646380Y3537420D02*
X6599860Y3583940D01*
X5930900D01*
X5775960Y3738880D01*
Y4978400D01*
X5839460Y5041900D01*
X6279280D01*
G54D12*
X802640Y2646680D03*
X1112520Y2644140D03*
X991820Y2644860D03*
X686080Y2652480D03*
X581940Y2622000D03*
X802640Y2854960D03*
X1056640Y2857500D03*
X952500D03*
X691160Y2853140D03*
X597180Y2876000D03*
X1207440Y2537460D03*
X1419860Y2639060D03*
X1541780Y2633980D03*
X1572260Y2552700D03*
X1310640Y2639060D03*
X1422400Y2852420D03*
X1513840Y2946400D03*
X1308100Y2857500D03*
X1170940Y2860040D03*
X1554480Y2854960D03*
X1846580Y2545080D03*
X1869440Y2748280D03*
X1844040Y2656840D03*
X1856740Y2946400D03*
X1821180Y2834640D03*
X4064000Y1859280D03*
X4447540Y594360D03*
X4654680Y734060D03*
X4472940Y1483360D03*
X4500000Y4036940D03*
X4330700Y4038600D03*
X4652140Y4741040D03*
X4424680Y4907280D03*
X4978400Y3667760D03*
X4947920Y4046220D03*
X6646380Y3294380D03*
X6903720Y3536380D03*
X7218680Y1551940D03*
Y1440180D03*
Y1666240D03*
G54D22*
G01X3487420Y1986280D02*
X3025140D01*
X2054860Y2956560D01*
Y4894580D01*
X2153920Y4993640D01*
X2440940D01*
X2521220Y4913360D01*
Y4780280D01*
G01X3390900Y2087880D02*
X3131820D01*
X2267220Y2952480D01*
Y4780280D01*
G01X3032760Y792600D02*
X3031220Y791060D01*
Y711200D01*
G01X3924300Y1945640D02*
Y4424680D01*
X4076700Y4577080D01*
X5605780D01*
G01X4064000Y1859280D02*
Y4358640D01*
X4183380Y4478020D01*
X5511800D01*
G01X5730240Y1998980D02*
X5930900Y1798320D01*
Y695960D01*
G01X7012940Y3167380D02*
Y4257040D01*
X6926340Y4343640D01*
X6608840D01*
G01X6730840Y3807620D02*
X6794660D01*
X6883400Y3896360D01*
G54D13*
X2267220Y711200D03*
Y4780280D03*
X2775220Y711200D03*
X2521220D03*
X2775220Y4780280D03*
X2521220D03*
X3031220Y711200D03*
X3285220D03*
X3031220Y4780280D03*
X3285220D03*
X7122160Y2415540D03*
G54D23*
G01X3759200Y3566160D02*
X3281680Y4043680D01*
Y4681880D01*
X3285220Y4685420D01*
Y4780280D01*
G01X3760200Y1650000D02*
Y3502060D01*
X3759200Y3503060D01*
Y3566160D01*
G01X6903720Y3536380D02*
X6868080Y3500740D01*
Y3360500D01*
X6868160Y3360420D01*
Y2415540D01*
G54D14*
X3539220Y711200D03*
Y4780280D03*
X6868160Y2415540D03*
G54D24*
G01X6819900Y4142740D02*
X6436360D01*
X6410960Y4168140D01*
G54D15*
X3390900Y2087880D03*
X3487420Y1986280D03*
X3924300Y1945640D03*
X5930900Y695960D03*
X5730240Y1998980D03*
X5400040D03*
X5605780Y4577080D03*
X5511800Y4478020D03*
X6129820Y3525520D03*
X6410960Y4168140D03*
X6379280Y5049520D03*
X6279280Y5041900D03*
X7012940Y3167380D03*
X6883400Y3896360D03*
X6730840Y3807620D03*
X6646380Y3537420D03*
X6819900Y4142740D03*
X6608840Y4343640D03*
G54D25*
G01X276900Y650000D02*
X582000D01*
G01X235100Y2398260D02*
Y2470860D01*
G01D02*
Y2543460D01*
G01Y2470860D02*
X480200D01*
G01X235100Y2963260D02*
Y3035860D01*
G01D02*
Y3108460D01*
G01Y3035860D02*
X480200D01*
G01X276900Y4850000D02*
X582000D01*
G01Y344900D02*
Y650000D01*
G01D02*
Y955100D01*
G01Y650000D02*
X887100D01*
G01X581940Y2591500D02*
Y2622000D01*
G01D02*
Y2652500D01*
G01X551440Y2622000D02*
X581940D01*
G01D02*
X612440D01*
G01X686080Y2621980D02*
Y2652480D01*
G01D02*
Y2682980D01*
G01X655580Y2652480D02*
X686080D01*
G01D02*
X716580D01*
G01X991820Y2614360D02*
Y2644860D01*
G01D02*
Y2675360D01*
G01X961320Y2644860D02*
X991820D01*
G01D02*
X1022320D01*
G01X1112520Y2613640D02*
Y2644140D01*
G01D02*
Y2674640D01*
G01X1082020Y2644140D02*
X1112520D01*
G01D02*
X1143020D01*
G01X802640Y2616180D02*
Y2646680D01*
G01D02*
Y2677180D01*
G01X772140Y2646680D02*
X802640D01*
G01D02*
X833140D01*
G01X597180Y2845500D02*
Y2876000D01*
G01D02*
Y2906500D01*
G01X566680Y2876000D02*
X597180D01*
G01D02*
X627680D01*
G01X691160Y2822640D02*
Y2853140D01*
G01D02*
Y2883640D01*
G01X660660Y2853140D02*
X691160D01*
G01D02*
X721660D01*
G01X952500Y2827000D02*
Y2857500D01*
G01D02*
Y2888000D01*
G01X922000Y2857500D02*
X952500D01*
G01D02*
X983000D01*
G01X1056640Y2827000D02*
Y2857500D01*
G01D02*
Y2888000D01*
G01X1026140Y2857500D02*
X1056640D01*
G01D02*
X1087140D01*
G01X802640Y2824460D02*
Y2854960D01*
G01D02*
Y2885460D01*
G01X772140Y2854960D02*
X802640D01*
G01D02*
X833140D01*
G01X582000Y4544900D02*
Y4850000D01*
G01D02*
Y5155100D01*
G01Y4850000D02*
X887100D01*
G01X1310640Y2608560D02*
Y2639060D01*
G01D02*
Y2669560D01*
G01X1280140Y2639060D02*
X1310640D01*
G01D02*
X1341140D01*
G01X1572260Y2522200D02*
Y2552700D01*
G01D02*
Y2583200D01*
G01X1541760Y2552700D02*
X1572260D01*
G01D02*
X1602760D01*
G01X1541780Y2603480D02*
Y2633980D01*
G01D02*
Y2664480D01*
G01X1511280Y2633980D02*
X1541780D01*
G01D02*
X1572280D01*
G01X1419860Y2608560D02*
Y2639060D01*
G01D02*
Y2669560D01*
G01X1389360Y2639060D02*
X1419860D01*
G01D02*
X1450360D01*
G01X1207440Y2506960D02*
Y2537460D01*
G01D02*
Y2567960D01*
G01X1176940Y2537460D02*
X1207440D01*
G01D02*
X1237940D01*
G01X1554480Y2824460D02*
Y2854960D01*
G01D02*
Y2885460D01*
G01X1523980Y2854960D02*
X1554480D01*
G01D02*
X1584980D01*
G01X1170940Y2829540D02*
Y2860040D01*
G01D02*
Y2890540D01*
G01X1140440Y2860040D02*
X1170940D01*
G01D02*
X1201440D01*
G01X1308100Y2827000D02*
Y2857500D01*
G01D02*
Y2888000D01*
G01X1277600Y2857500D02*
X1308100D01*
G01D02*
X1338600D01*
G01X1513840Y2915900D02*
Y2946400D01*
G01D02*
Y2976900D01*
G01X1483340Y2946400D02*
X1513840D01*
G01D02*
X1544340D01*
G01X1422400Y2821920D02*
Y2852420D01*
G01D02*
Y2882920D01*
G01X1391900Y2852420D02*
X1422400D01*
G01D02*
X1452900D01*
G01X1821180Y2804140D02*
Y2834640D01*
G01X1844040Y2626340D02*
Y2656840D01*
G01D02*
Y2687340D01*
G01X1813540Y2656840D02*
X1844040D01*
G01D02*
X1874540D01*
G01X1869440Y2717780D02*
Y2748280D01*
G01D02*
Y2778780D01*
G01X1838940Y2748280D02*
X1869440D01*
G01D02*
X1899940D01*
G01X1846580Y2514580D02*
Y2545080D01*
G01D02*
Y2575580D01*
G01X1816080Y2545080D02*
X1846580D01*
G01D02*
X1877080D01*
G01X1821180Y2834640D02*
Y2865140D01*
G01X1790680Y2834640D02*
X1821180D01*
G01D02*
X1851680D01*
G01X1856740Y2915900D02*
Y2946400D01*
G01D02*
Y2976900D01*
G01X1826240Y2946400D02*
X1856740D01*
G01D02*
X1887240D01*
G01X2775220Y636250D02*
Y711200D01*
G01D02*
Y786150D01*
G01X2700270Y711200D02*
X2775220D01*
G01D02*
X2850170D01*
G01X3539220Y636250D02*
Y711200D01*
G01D02*
Y786150D01*
G01X3464270Y711200D02*
X3539220D01*
G01D02*
X3614170D01*
G01X3539220Y4705330D02*
Y4780280D01*
G01D02*
Y4855230D01*
G01X3464270Y4780280D02*
X3539220D01*
G01D02*
X3614170D01*
G01X4654680Y703560D02*
Y734060D01*
G01D02*
Y764560D01*
G01X4624180Y734060D02*
X4654680D01*
G01D02*
X4685180D01*
G01X4447540Y563860D02*
Y594360D01*
G01D02*
Y624860D01*
G01X4417040Y594360D02*
X4447540D01*
G01D02*
X4478040D01*
G01X4472940Y1452860D02*
Y1483360D01*
G01D02*
Y1513860D01*
G01X4442440Y1483360D02*
X4472940D01*
G01D02*
X4503440D01*
G01X4330700Y4008100D02*
Y4038600D01*
G01X4500000Y4006440D02*
Y4036940D01*
G01X4330700Y4038600D02*
Y4069100D01*
G01X4300200Y4038600D02*
X4330700D01*
G01D02*
X4361200D01*
G01X4500000Y4036940D02*
Y4067440D01*
G01X4469500Y4036940D02*
X4500000D01*
G01D02*
X4530500D01*
G01X4424680Y4876780D02*
Y4907280D01*
G01D02*
Y4937780D01*
G01X4394180Y4907280D02*
X4424680D01*
G01D02*
X4455180D01*
G01X4652140Y4710540D02*
Y4741040D01*
G01D02*
Y4771540D01*
G01X4621640Y4741040D02*
X4652140D01*
G01D02*
X4682640D01*
G01X4947920Y4015720D02*
Y4046220D01*
G01X4978400Y3637260D02*
Y3667760D01*
G01D02*
Y3698260D01*
G01X4947900Y3667760D02*
X4978400D01*
G01D02*
X5008900D01*
G01X4947920Y4046220D02*
Y4076720D01*
G01X4917420Y4046220D02*
X4947920D01*
G01D02*
X4978420D01*
G01X6525260Y2936220D02*
Y2979420D01*
G01D02*
Y3022620D01*
G01X6482060Y2979420D02*
X6525260D01*
G01D02*
X6568460D01*
G01X6964900Y650000D02*
X7270000D01*
G01X6596380Y2771120D02*
Y2814320D01*
G01D02*
Y2857520D01*
G01X6553180Y2814320D02*
X6596380D01*
G01D02*
X6639580D01*
G01X6646380Y3263880D02*
Y3294380D01*
G01D02*
Y3324880D01*
G01X6615880Y3294380D02*
X6646380D01*
G01D02*
X6676880D01*
G01X6964900Y4850000D02*
X7270000D01*
G01Y344900D02*
Y650000D01*
G01D02*
Y955100D01*
G01Y650000D02*
X7575100D01*
G01X7218680Y1409680D02*
Y1440180D01*
G01D02*
Y1470680D01*
G01X7188180Y1440180D02*
X7218680D01*
G01D02*
X7249180D01*
G01X7218680Y1521440D02*
Y1551940D01*
G01D02*
Y1582440D01*
G01X7188180Y1551940D02*
X7218680D01*
G01D02*
X7249180D01*
G01X7218680Y1635740D02*
Y1666240D01*
G01D02*
Y1696740D01*
G01X7188180Y1666240D02*
X7218680D01*
G01D02*
X7249180D01*
G01X7724140Y2244860D02*
Y2294960D01*
G01D02*
Y2345060D01*
G01X7619040Y2294960D02*
X7724140D01*
G01D02*
X7829240D01*
G01X7724140Y3104860D02*
Y3154960D01*
G01D02*
Y3205060D01*
G01X7619040Y3154960D02*
X7724140D01*
G01D02*
X7829240D01*
G01X7270000Y4544900D02*
Y4850000D01*
G01D02*
Y5155100D01*
G01Y4850000D02*
X7575100D01*
G54D16*
X3760200Y1650000D03*
X3759200Y3566160D03*
X6525260Y2979420D03*
X6596380Y2814320D03*
G54D17*
X7478520Y1254280D03*
Y1832280D03*
G54D18*
X7428520Y1111280D03*
X7843520D03*
X7428520Y1975280D03*
X7843520D03*
G54D19*
X7724140Y2524960D03*
Y2724960D03*
Y2924960D03*
M02*
