G04 ================== begin FILE IDENTIFICATION RECORD ==================*
G04 Layout Name:  ASR6601CB_FEM_TB_V10_240315.brd*
G04 Film Name:    SILK_TOP*
G04 File Format:  Gerber RS274X*
G04 File Origin:  Cadence Allegro 16.6-2015-S088*
G04 Origin Date:  Tue Mar 19 16:49:56 2024*
G04 *
G04 Layer:  REF DES/SILKSCREEN_TOP*
G04 Layer:  PACKAGE GEOMETRY/SILKSCREEN_TOP*
G04 Layer:  BOARD GEOMETRY/SILKSCREEN_TOP*
G04 Layer:  BOARD GEOMETRY/OUTLINE*
G04 *
G04 Offset:    (0.0000 0.0000)*
G04 Mirror:    No*
G04 Mode:      Positive*
G04 Rotation:  0*
G04 FullContactRelief:  No*
G04 UndefLineWidth:     0.0000*
G04 ================== end FILE IDENTIFICATION RECORD ====================*
%FSLAX25Y25*MOMM*%
%IR0*IPPOS*OFA0.00000B0.00000*MIA0B0*SFA1.00000B1.00000*%
%ADD10C,.1*%
%ADD11C,.2*%
%ADD12C,.3*%
%ADD13C,.12*%
%ADD14C,.15*%
%ADD15C,.127*%
%ADD16C,.1524*%
%ADD17C,.02*%
%ADD18C,.04*%
%ADD19C,.06*%
%ADD20C,.08*%
G75*
%LPD*%
G75*
G54D10*
G01X-204900Y2433360D02*
X-954900D01*
Y3073360D01*
X-204900D01*
G01X-904900Y2433360D02*
Y3073360D01*
G01X-854900Y2433360D02*
Y3073360D01*
G01X-804900Y2433360D02*
Y3073360D01*
G01X-754900Y2433360D02*
Y3073360D01*
G01X-704900Y2433360D02*
Y3073360D01*
G01X-204900Y3163360D02*
Y2343360D01*
X625100D01*
Y3163360D01*
X-204900D01*
G01X-654900Y2433360D02*
Y3073360D01*
G01X-24900Y3163360D02*
Y2343360D01*
X5100D01*
G01X961780Y2793360D02*
X1151780D01*
G01X961780Y2713360D02*
Y2793360D01*
G01X1151780Y2713360D02*
X961780D01*
G01X939300Y2776220D02*
Y2628900D01*
G02X859300I-40000J12610D01*
G01D02*
Y2776220D01*
G02X939300I40000J-14520D01*
G01X1151780Y2793360D02*
Y2713360D01*
G01X1254260Y2773680D02*
Y2626360D01*
G02X1174260I-40000J12610D01*
G01D02*
Y2773680D01*
G02X1254260I40000J-14520D01*
G01X5912100Y4625980D02*
Y4705980D01*
G01X6102100Y4625980D02*
X5912100D01*
G01Y4705980D02*
X6102100D01*
G01X5909560Y4815200D02*
X6099560D01*
G01X5909560Y4735200D02*
Y4815200D01*
G01X6099560Y4735200D02*
X5909560D01*
G01X6078220Y4857120D02*
X5930900D01*
G02Y4937120I12610J40000D01*
G01D02*
X6078220D01*
G02Y4857120I-14520J-40000D01*
G01X6175380Y740160D02*
X6255380D01*
G01X6175380Y550160D02*
Y740160D01*
G01X6255380Y550160D02*
X6175380D01*
G01X6255380Y740160D02*
Y550160D01*
G01X6040760Y740160D02*
X6120760D01*
G01X6040760Y550160D02*
Y740160D01*
G01X6120760Y550160D02*
X6040760D01*
G01X6120760Y740160D02*
Y550160D01*
G01X6388740Y3307560D02*
Y3497560D01*
G01X6468740Y3307560D02*
X6388740D01*
G01X6468740Y3497560D02*
Y3307560D01*
G01X6297300D02*
Y3497560D01*
G01X6377300Y3307560D02*
X6297300D01*
G01X6377300Y3497560D02*
Y3307560D01*
G01X6106160Y3399380D02*
X6253480D01*
G02Y3319380I-12610J-40000D01*
G01D02*
X6106160D01*
G02Y3399380I14520J40000D01*
G01X6670040Y3319380D02*
X6522720D01*
G02Y3399380I12610J40000D01*
G01D02*
X6670040D01*
G02Y3319380I-14520J-40000D01*
G01X6084820Y3413360D02*
Y3493360D01*
G01X6274820Y3413360D02*
X6084820D01*
G01X6274820Y3493360D02*
Y3413360D01*
G01X6084820Y3493360D02*
X6274820D01*
G01X6501380D02*
X6691380D01*
G01X6501380Y3413360D02*
Y3493360D01*
G01X6691380Y3413360D02*
X6501380D01*
G01X6388740Y3497560D02*
X6468740D01*
G01X6297300D02*
X6377300D01*
G01X6067420Y3831820D02*
Y3684500D01*
G02X5987420I-40000J12609D01*
G01D02*
Y3831820D01*
G02X6067420I40000J-14519D01*
G01X6354040Y4309740D02*
X6501360D01*
G02Y4229740I-12610J-40000D01*
G01D02*
X6354040D01*
G02Y4309740I14520J40000D01*
G01X6102100Y4705980D02*
Y4625980D01*
G01X6099560Y4815200D02*
Y4735200D01*
G01X6506460Y4857120D02*
Y4937120D01*
G01X6696460Y4857120D02*
X6506460D01*
G01Y4937120D02*
X6696460D01*
G01X6506460Y4625980D02*
Y4705980D01*
G01X6696460Y4625980D02*
X6506460D01*
G01Y4705980D02*
X6696460D01*
G01X6675120Y4735200D02*
X6527800D01*
G02Y4815200I12610J40000D01*
G01D02*
X6675120D01*
G02Y4735200I-14520J-40000D01*
G01X7005320Y2271800D02*
X7147880D01*
Y2109240D01*
X6995160D01*
G01X6946900Y2271800D02*
X6801800D01*
Y2109240D01*
X6954520D01*
G01X6865220Y3996940D02*
Y4186940D01*
G01X6945220Y3996940D02*
X6865220D01*
G01X6945220Y4186940D02*
Y3996940D01*
G01X6691380Y3493360D02*
Y3413360D01*
G01X7109440Y3816980D02*
Y3736980D01*
G01X6919440Y3816980D02*
X7109440D01*
G01X6919440Y3736980D02*
Y3816980D01*
G01X7109440Y3736980D02*
X6919440D01*
G01X7109440Y3936360D02*
Y3856360D01*
G01X6919440Y3936360D02*
X7109440D01*
G01X6919440Y3856360D02*
Y3936360D01*
G01X7109440Y3856360D02*
X6919440D01*
G01X7041740Y4165600D02*
Y4018280D01*
G02X6961740I-40000J12610D01*
G01X7138260Y4165600D02*
Y4018280D01*
G02X7058260I-40000J14519D01*
G01X6865220Y4186940D02*
X6945220D01*
G01X6961740Y4018280D02*
Y4165600D01*
G02X7041740I40000J-14519D01*
G01X7058260Y4018280D02*
Y4165600D01*
G02X7138260I40000J-12609D01*
G01X6585180Y4309740D02*
X6732500D01*
G02Y4229740I-12610J-40000D01*
G01D02*
X6585180D01*
G02Y4309740I14520J40000D01*
G01X6696460Y4937120D02*
Y4857120D01*
G01Y4705980D02*
Y4625980D01*
G01X8064000Y2495520D02*
Y2595520D01*
G01D02*
X8014000Y2545520D01*
G01D02*
X8064000Y2495520D01*
G54D20*
G01X100000Y250000D02*
X7900000D01*
G03X8000000Y350000I0J100000D01*
G01Y5150000D01*
G03X7900000Y5250000I-100000J0D01*
G01X100000D01*
G03X0Y5150000I0J-100000D01*
G01Y350000D01*
G03X100000Y250000I100000J0D01*
G01X7942720Y454660D02*
G03I-150000J0D01*
G01X7945260Y5046980D02*
G03I-150000J0D01*
G54D11*
G01X4754880Y394360D02*
Y514360D01*
G01X5364480Y394360D02*
X4754880D01*
G01Y794360D02*
Y674360D01*
G01X5364480Y794360D02*
X4754880D01*
G01Y4707280D02*
Y4827280D01*
G01X5364480Y4707280D02*
X4754880D01*
G01Y5107280D02*
Y4987280D01*
G01X5364480Y5107280D02*
X4754880D01*
G01X5364480Y514360D02*
Y394360D01*
G01Y674360D02*
Y794360D01*
G01Y4827280D02*
Y4707280D01*
G01Y4987280D02*
Y5107280D01*
G01X6404280Y4880760D02*
Y4850760D01*
G01X6204280Y4880760D02*
X6404280D01*
G01X6204280Y4740760D02*
Y4880760D01*
G01X6404280Y4740760D02*
X6204280D01*
G01X6404280Y4770760D02*
Y4740760D01*
G01Y4850760D02*
G03Y4770760I0J-40000D01*
G01X7252410Y1187680D02*
G03I-18490J0D01*
G54D12*
G01X6399280Y5050760D02*
G03I-15000J0D01*
G54D13*
G01X5400000Y1650000D02*
Y3850000D01*
X1700000D01*
Y1650000D01*
X5400000D01*
G01X2146300Y553720D02*
Y276860D01*
G01X2171700Y553720D02*
X1991360D01*
X1983740Y546100D01*
Y289560D01*
X1998980Y274320D01*
X3162300D01*
X3177540Y289560D01*
Y541020D01*
X3164840Y553720D01*
X2171700D01*
G01X1874960Y2963080D02*
G03I-25400J0D01*
G01X1949350Y4277360D02*
X1980600Y4367360D01*
X2011850Y4277360D01*
G01X2000600Y4308860D02*
X1960600D01*
G01X2037350Y4289360D02*
X2047350Y4281860D01*
X2058600Y4277360D01*
X2068600D01*
X2078600Y4281860D01*
X2086100Y4289360D01*
X2089850Y4299860D01*
X2087350Y4310360D01*
X2081100Y4319360D01*
X2069850Y4325360D01*
X2054850Y4328360D01*
X2046100Y4334360D01*
X2042350Y4344860D01*
X2044850Y4355360D01*
X2051100Y4362860D01*
X2059850Y4367360D01*
X2068600D01*
X2077350Y4364360D01*
X2084850Y4356860D01*
G01X2121600Y4277360D02*
Y4367360D01*
X2152850D01*
X2162850Y4362860D01*
X2169100Y4356860D01*
X2171600Y4344860D01*
X2169100Y4332860D01*
X2161600Y4325360D01*
X2152850Y4320860D01*
X2121600D01*
G01X2152850D02*
X2171600Y4277360D01*
G01X2205850Y4314860D02*
X2214600Y4325360D01*
X2222100Y4331360D01*
X2232100Y4334360D01*
X2240850Y4331360D01*
X2247100Y4325360D01*
X2252100Y4316360D01*
X2253350Y4305860D01*
X2252100Y4296860D01*
X2247100Y4287860D01*
X2239600Y4280360D01*
X2230850Y4277360D01*
X2220850Y4280360D01*
X2212100Y4289360D01*
X2207100Y4302860D01*
X2205850Y4317860D01*
X2208350Y4337360D01*
X2212100Y4347860D01*
X2218350Y4358360D01*
X2227100Y4365860D01*
X2235850Y4367360D01*
X2244600Y4364360D01*
X2250850Y4356860D01*
G01X2288850Y4314860D02*
X2297600Y4325360D01*
X2305100Y4331360D01*
X2315100Y4334360D01*
X2323850Y4331360D01*
X2330100Y4325360D01*
X2335100Y4316360D01*
X2336350Y4305860D01*
X2335100Y4296860D01*
X2330100Y4287860D01*
X2322600Y4280360D01*
X2313850Y4277360D01*
X2303850Y4280360D01*
X2295100Y4289360D01*
X2290100Y4302860D01*
X2288850Y4317860D01*
X2291350Y4337360D01*
X2295100Y4347860D01*
X2301350Y4358360D01*
X2310100Y4365860D01*
X2318850Y4367360D01*
X2327600Y4364360D01*
X2333850Y4356860D01*
G01X2395600Y4367360D02*
X2385600Y4364360D01*
X2378100Y4356860D01*
X2373100Y4347860D01*
X2369350Y4335860D01*
X2368100Y4322360D01*
X2369350Y4308860D01*
X2373100Y4296860D01*
X2378100Y4287860D01*
X2385600Y4280360D01*
X2395600Y4277360D01*
X2405600Y4280360D01*
X2413100Y4287860D01*
X2418100Y4296860D01*
X2421850Y4308860D01*
X2423100Y4322360D01*
X2421850Y4335860D01*
X2418100Y4347860D01*
X2413100Y4356860D01*
X2405600Y4364360D01*
X2395600Y4367360D01*
G01X2478600Y4277360D02*
Y4367360D01*
X2463600Y4349360D01*
G01Y4277360D02*
X2493600D01*
G01X2589100Y4359860D02*
X2581600Y4364360D01*
X2572850Y4367360D01*
X2562850D01*
X2551600Y4362860D01*
X2542850Y4355360D01*
X2536600Y4346360D01*
X2531600Y4331360D01*
X2530350Y4317860D01*
X2532850Y4304360D01*
X2536600Y4295360D01*
X2544100Y4286360D01*
X2552850Y4280360D01*
X2561600Y4277360D01*
X2570350D01*
X2579100Y4280360D01*
X2586600Y4284860D01*
X2592850Y4290860D01*
G01X2654600Y4325360D02*
X2659600Y4329860D01*
X2663350Y4337360D01*
X2665850Y4347860D01*
X2663350Y4356860D01*
X2658350Y4362860D01*
X2649600Y4367360D01*
X2615850D01*
Y4277360D01*
X2657100D01*
X2665850Y4283360D01*
X2670850Y4292360D01*
X2673350Y4302860D01*
X2670850Y4313360D01*
X2663350Y4322360D01*
X2654600Y4325360D01*
X2615850D01*
G01X2690100Y4247360D02*
X2765100D01*
G01X2786850Y4277360D02*
Y4367360D01*
X2834350D01*
G01X2816850Y4323860D02*
X2786850D01*
G01X2918600Y4277360D02*
X2868600D01*
Y4367360D01*
X2918600D01*
G01X2898600Y4323860D02*
X2868600D01*
G01X2944100Y4277360D02*
Y4367360D01*
X2976600Y4292360D01*
X3009100Y4367360D01*
Y4277360D01*
G01X3038350Y4287860D02*
X3047100Y4280360D01*
X3057100Y4277360D01*
X3067100Y4280360D01*
X3075850Y4289360D01*
X3082100Y4302860D01*
X3084600Y4316360D01*
Y4332860D01*
X3082100Y4346360D01*
X3075850Y4358360D01*
X3068350Y4364360D01*
X3059600Y4367360D01*
X3049600Y4364360D01*
X3042100Y4358360D01*
X3037100Y4349360D01*
X3034600Y4337360D01*
X3037100Y4326860D01*
X3043350Y4316360D01*
X3050850Y4310360D01*
X3059600Y4308860D01*
X3069600Y4311860D01*
X3077100Y4319360D01*
X3084600Y4332860D01*
G01X3142600Y4367360D02*
X3132600Y4364360D01*
X3125100Y4356860D01*
X3120100Y4347860D01*
X3116350Y4335860D01*
X3115100Y4322360D01*
X3116350Y4308860D01*
X3120100Y4296860D01*
X3125100Y4287860D01*
X3132600Y4280360D01*
X3142600Y4277360D01*
X3152600Y4280360D01*
X3160100Y4287860D01*
X3165100Y4296860D01*
X3168850Y4308860D01*
X3170100Y4322360D01*
X3168850Y4335860D01*
X3165100Y4347860D01*
X3160100Y4356860D01*
X3152600Y4364360D01*
X3142600Y4367360D01*
G01X3225600D02*
X3215600Y4364360D01*
X3208100Y4356860D01*
X3203100Y4347860D01*
X3199350Y4335860D01*
X3198100Y4322360D01*
X3199350Y4308860D01*
X3203100Y4296860D01*
X3208100Y4287860D01*
X3215600Y4280360D01*
X3225600Y4277360D01*
X3235600Y4280360D01*
X3243100Y4287860D01*
X3248100Y4296860D01*
X3251850Y4308860D01*
X3253100Y4322360D01*
X3251850Y4335860D01*
X3248100Y4347860D01*
X3243100Y4356860D01*
X3235600Y4364360D01*
X3225600Y4367360D01*
G01X3271100Y4247360D02*
X3346100D01*
G01X3391600Y4367360D02*
Y4277360D01*
G01X3362850Y4367360D02*
X3420350D01*
G01X3484600Y4325360D02*
X3489600Y4329860D01*
X3493350Y4337360D01*
X3495850Y4347860D01*
X3493350Y4356860D01*
X3488350Y4362860D01*
X3479600Y4367360D01*
X3445850D01*
Y4277360D01*
X3487100D01*
X3495850Y4283360D01*
X3500850Y4292360D01*
X3503350Y4302860D01*
X3500850Y4313360D01*
X3493350Y4322360D01*
X3484600Y4325360D01*
X3445850D01*
G01X3520100Y4247360D02*
X3595100D01*
G01X3609350Y4367360D02*
X3640600Y4277360D01*
X3671850Y4367360D01*
G01X3723600Y4277360D02*
Y4367360D01*
X3708600Y4349360D01*
G01Y4277360D02*
X3738600D01*
G01X3806600Y4367360D02*
X3796600Y4364360D01*
X3789100Y4356860D01*
X3784100Y4347860D01*
X3780350Y4335860D01*
X3779100Y4322360D01*
X3780350Y4308860D01*
X3784100Y4296860D01*
X3789100Y4287860D01*
X3796600Y4280360D01*
X3806600Y4277360D01*
X3816600Y4280360D01*
X3824100Y4287860D01*
X3829100Y4296860D01*
X3832850Y4308860D01*
X3834100Y4322360D01*
X3832850Y4335860D01*
X3829100Y4347860D01*
X3824100Y4356860D01*
X3816600Y4364360D01*
X3806600Y4367360D01*
G01X4031850Y4352360D02*
X4039350Y4361360D01*
X4048100Y4365860D01*
X4058100Y4367360D01*
X4070600Y4364360D01*
X4079350Y4356860D01*
X4081850Y4347860D01*
X4080600Y4338860D01*
X4075600Y4331360D01*
X4050600Y4316360D01*
X4039350Y4305860D01*
X4031850Y4290860D01*
X4029350Y4277360D01*
X4081850D01*
G01X4138600Y4367360D02*
X4128600Y4364360D01*
X4121100Y4356860D01*
X4116100Y4347860D01*
X4112350Y4335860D01*
X4111100Y4322360D01*
X4112350Y4308860D01*
X4116100Y4296860D01*
X4121100Y4287860D01*
X4128600Y4280360D01*
X4138600Y4277360D01*
X4148600Y4280360D01*
X4156100Y4287860D01*
X4161100Y4296860D01*
X4164850Y4308860D01*
X4166100Y4322360D01*
X4164850Y4335860D01*
X4161100Y4347860D01*
X4156100Y4356860D01*
X4148600Y4364360D01*
X4138600Y4367360D01*
G01X4197850Y4352360D02*
X4205350Y4361360D01*
X4214100Y4365860D01*
X4224100Y4367360D01*
X4236600Y4364360D01*
X4245350Y4356860D01*
X4247850Y4347860D01*
X4246600Y4338860D01*
X4241600Y4331360D01*
X4216600Y4316360D01*
X4205350Y4305860D01*
X4197850Y4290860D01*
X4195350Y4277360D01*
X4247850D01*
G01X4319600D02*
Y4367360D01*
X4273350Y4302860D01*
X4335850D01*
G01X4365100Y4274360D02*
X4410100Y4367360D01*
G01X4470600D02*
X4460600Y4364360D01*
X4453100Y4356860D01*
X4448100Y4347860D01*
X4444350Y4335860D01*
X4443100Y4322360D01*
X4444350Y4308860D01*
X4448100Y4296860D01*
X4453100Y4287860D01*
X4460600Y4280360D01*
X4470600Y4277360D01*
X4480600Y4280360D01*
X4488100Y4287860D01*
X4493100Y4296860D01*
X4496850Y4308860D01*
X4498100Y4322360D01*
X4496850Y4335860D01*
X4493100Y4347860D01*
X4488100Y4356860D01*
X4480600Y4364360D01*
X4470600Y4367360D01*
G01X4526100Y4295360D02*
X4533600Y4284860D01*
X4543600Y4278860D01*
X4554850Y4277360D01*
X4564850Y4278860D01*
X4574850Y4286360D01*
X4581100Y4295360D01*
X4582350Y4304360D01*
X4579850Y4314860D01*
X4571100Y4322360D01*
X4562350Y4325360D01*
X4551100D01*
G01X4562350D02*
X4569850Y4329860D01*
X4576100Y4337360D01*
X4578600Y4346360D01*
X4576100Y4355360D01*
X4569850Y4362860D01*
X4558600Y4367360D01*
X4547350Y4365860D01*
X4536100Y4359860D01*
G01X4614100Y4274360D02*
X4659100Y4367360D01*
G01X4719600Y4277360D02*
Y4367360D01*
X4704600Y4349360D01*
G01Y4277360D02*
X4734600D01*
G01X4775100Y4290860D02*
X4782600Y4283360D01*
X4791350Y4278860D01*
X4802600Y4277360D01*
X4813850Y4280360D01*
X4822600Y4286360D01*
X4828850Y4296860D01*
X4830100Y4308860D01*
X4827600Y4320860D01*
X4821350Y4328360D01*
X4812600Y4334360D01*
X4803850Y4335860D01*
X4795100Y4334360D01*
X4783850Y4328360D01*
X4787600Y4367360D01*
X4821350D01*
G01X6460640Y771840D02*
Y803760D01*
X6320640D01*
Y753260D01*
G01Y592840D02*
Y477840D01*
X6460640D01*
Y771840D01*
X6320640D01*
Y592840D01*
G01X6455260Y2407780D02*
Y2375860D01*
X6595260D01*
Y2426360D01*
G01Y2586780D02*
Y2701780D01*
X6455260D01*
Y2407780D01*
X6595260D01*
Y2586780D01*
G01X6189980Y4079000D02*
Y3586240D01*
X6677660D01*
X6682740Y3591320D01*
Y4076460D01*
X6680200Y4079000D01*
X6189980D01*
G01X6752340Y1375560D02*
X6637340D01*
Y1235560D01*
X6931340D01*
Y1375560D01*
X6752340D01*
G01X6816340Y1853080D02*
X6931340D01*
Y1713080D01*
X6816340D01*
G01X6752340Y1853080D02*
X6637340D01*
Y1713080D01*
X6752340D01*
G01X6810760Y2569060D02*
X6695760D01*
Y2709060D01*
X6810760D01*
G01X6874760Y2569060D02*
X6989760D01*
Y2709060D01*
X6874760D01*
G01X6808220Y2784960D02*
X6693220D01*
Y2924960D01*
X6808220D01*
G01X6872220Y2784960D02*
X6987220D01*
Y2924960D01*
X6872220D01*
G01X6808220Y2964840D02*
X6693220D01*
Y3104840D01*
X6808220D01*
G01X6872220Y2964840D02*
X6987220D01*
Y3104840D01*
X6872220D01*
G01X6682740Y3644660D02*
X6672580D01*
X6621780Y3593860D01*
Y3586240D01*
G01X7538520Y1108280D02*
X7708520D01*
Y1353280D01*
X7953520D01*
Y1103280D01*
X8103520D01*
Y1983280D01*
X7953520D01*
Y1738280D01*
X7723520D01*
Y1983280D01*
X7553520D01*
G01X7616320Y2505350D02*
X7656960D01*
G01X7614490Y2544280D02*
X7655130D01*
G01X7677330Y2584840D02*
X7616370D01*
G01X7612380Y2628440D02*
X7833360D01*
G01X7614140Y2444960D02*
Y3004960D01*
X7834140D01*
Y2444960D01*
X7614140D01*
G01X7499140Y2224960D02*
Y3224960D01*
X7999140D01*
Y2224960D01*
X7499140D01*
G01X7303920Y3394460D02*
Y3279460D01*
X7163920D01*
Y3394460D01*
G01X7303920Y3458460D02*
Y3573460D01*
X7163920D01*
Y3458460D01*
G01X7486400Y4158490D02*
Y4286000D01*
X7490460Y4290060D01*
X8034020D01*
X8036310Y4287770D01*
Y3449070D01*
X8034020Y3446780D01*
X7487920D01*
X7486400Y3448300D01*
Y4158490D01*
G01X7830820Y2585260D02*
X7769860D01*
G01X7789380Y2544700D02*
X7830020D01*
G01X7791210Y2505770D02*
X7831850D01*
G01X8006080Y3446780D02*
Y4287520D01*
G54D14*
G01X2141220Y839200D02*
X3665220D01*
Y585200D01*
X2141220D01*
Y839200D01*
G01Y4908280D02*
X3665220D01*
Y4654280D01*
X2141220D01*
Y4908280D01*
G01X3157220Y843280D02*
Y586740D01*
G01X3606800Y838200D02*
X3660140Y784860D01*
G01X3606800Y4907280D02*
X3660140Y4853940D01*
G54D15*
G01X4515000Y564360D02*
Y627860D01*
X4506870Y615160D01*
G01Y564360D02*
X4523130D01*
G01X6238860Y4591240D02*
X6234800Y4596530D01*
X6230060Y4599700D01*
X6223960Y4600760D01*
X6217860Y4598640D01*
X6213120Y4594410D01*
X6209740Y4587000D01*
X6209060Y4578540D01*
X6210410Y4570070D01*
X6213800Y4564780D01*
X6218540Y4560540D01*
X6223280Y4559490D01*
X6228020Y4560540D01*
X6234120Y4564780D01*
X6232090Y4537260D01*
X6213800D01*
G01X6383960Y4600760D02*
X6379220Y4599700D01*
X6373800Y4596530D01*
X6370410Y4591240D01*
X6369060Y4583830D01*
X6370410Y4576420D01*
X6374480Y4570070D01*
X6380570Y4566890D01*
X6387350D01*
X6391410Y4564780D01*
X6394800Y4559490D01*
X6396150Y4552080D01*
X6394120Y4544670D01*
X6389380Y4539380D01*
X6383960Y4537260D01*
X6378540Y4539380D01*
X6373800Y4544670D01*
X6371770Y4552080D01*
X6373120Y4559490D01*
X6376510Y4564780D01*
X6380570Y4566890D01*
X6387350D01*
X6393440Y4570070D01*
X6397510Y4576420D01*
X6398860Y4583830D01*
X6397510Y4591240D01*
X6394120Y4596530D01*
X6388700Y4599700D01*
X6383960Y4600760D01*
G01X6215830Y5080760D02*
Y5017260D01*
X6240890Y5062770D01*
X6207030D01*
G01X6629180Y1489600D02*
G02Y1634600I125570J72500D01*
G01D02*
X6919180D01*
G02Y1489600I-125570J-72500D01*
G01D02*
X6629180D01*
G01X7194660Y3088860D02*
Y2798860D01*
G02X7049660I-72500J125570D01*
G01D02*
Y3088860D01*
G01D02*
G02X7194660I72500J-125570D01*
G54D16*
G01X6758940Y1976120D02*
X6840220D01*
G01X6809740Y1925320D02*
X6758940Y1976120D01*
G01X6809740Y2026920D02*
Y1925320D01*
G01X6758940Y1976120D02*
X6809740Y2026920D01*
G01X6755510Y2044700D02*
Y1907540D01*
G01X6718300Y2019300D02*
Y2044700D01*
G01Y1907540D02*
Y1932940D01*
G01X6901180Y1907540D02*
X6718300D01*
G01X6901180Y1932940D02*
Y1907540D01*
G01Y2044700D02*
Y2019300D01*
G01X6718300Y2044700D02*
X6901180D01*
G01X7040880Y3380280D02*
Y3461560D01*
G01X7091680Y3431080D02*
X7040880Y3380280D01*
G01D02*
X6990080Y3431080D01*
G01X6972300Y3376850D02*
X7109460D01*
G01X6997700Y3339640D02*
X6972300D01*
G01X7109460D02*
X7084060D01*
G01X7109460Y3522520D02*
Y3339640D01*
G01X6972300D02*
Y3522520D01*
G01X6990080Y3431080D02*
X7091680D01*
G01X7084060Y3522520D02*
X7109460D01*
G01X6972300D02*
X6997700D01*
G54D17*
G01X4141940Y698500D02*
G03I-50000J0D01*
G01X5433880Y3846090D02*
X5429880Y3843760D01*
X5427210Y3840960D01*
X5425880Y3837690D01*
X5427210Y3833960D01*
X5429880Y3831160D01*
X5433880Y3828360D01*
X5439210Y3827430D01*
X5465880D01*
G01X5459210Y3814630D02*
X5463210Y3811830D01*
X5465210Y3808560D01*
X5465880Y3804830D01*
X5464550Y3800160D01*
X5461210Y3796890D01*
X5457210Y3795960D01*
X5453210Y3796430D01*
X5449880Y3798290D01*
X5443210Y3807630D01*
X5438550Y3811830D01*
X5431880Y3814630D01*
X5425880Y3815560D01*
Y3795960D01*
G01X7177560Y3862080D02*
Y3852080D01*
X7247560D01*
Y3862080D01*
X7177560D01*
Y4022080D01*
X7247560D01*
Y3862080D01*
G01Y3811260D02*
Y3821260D01*
X7177560D01*
Y3811260D01*
X7247560D01*
Y3651260D01*
X7177560D01*
Y3811260D01*
G54D18*
G01X6362700Y604520D02*
Y612140D01*
G01X6372860Y614680D02*
X6362700Y604520D01*
X6370320D01*
G01X6553200Y2575100D02*
Y2567480D01*
G01X6543040Y2564940D02*
X6553200Y2575100D01*
X6545580D01*
G54D19*
G01X167080Y302260D02*
Y358260D01*
G01X196480D02*
Y302260D01*
G01Y330260D02*
X167080D01*
G01X227780Y302260D02*
Y358260D01*
X219380Y347060D01*
G01Y302260D02*
X236180D01*
G01X230520Y2133600D02*
Y2189600D01*
X248020D01*
X253620Y2186800D01*
X257120Y2183070D01*
X258520Y2175600D01*
X257120Y2168130D01*
X252920Y2163470D01*
X248020Y2160670D01*
X230520D01*
G01X248020D02*
X258520Y2133600D01*
G01X277220D02*
Y2189600D01*
X303820D01*
G01X294020Y2162530D02*
X277220D01*
G01X315520Y2114930D02*
X357520D01*
G01X382520Y2189600D02*
Y2133600D01*
G01X366420Y2189600D02*
X398620D01*
G01X414520Y2133600D02*
Y2189600D01*
X432020D01*
X437620Y2186800D01*
X441120Y2183070D01*
X442520Y2175600D01*
X441120Y2168130D01*
X436920Y2163470D01*
X432020Y2160670D01*
X414520D01*
G01X432020D02*
X442520Y2133600D01*
G01X319420Y3305580D02*
X322920Y3299980D01*
X327120Y3296250D01*
X332020Y3294380D01*
X337620Y3296250D01*
X341820Y3299980D01*
X346020Y3305580D01*
X347420Y3313050D01*
Y3350380D01*
G01X379420Y3294380D02*
Y3350380D01*
X371020Y3339180D01*
G01Y3294380D02*
X387820D01*
G01X92660Y5128260D02*
Y5184260D01*
G01X122060D02*
Y5128260D01*
G01Y5156260D02*
X92660D01*
G01X137960Y5139460D02*
X142160Y5132930D01*
X147760Y5129190D01*
X154060Y5128260D01*
X159660Y5129190D01*
X165260Y5133860D01*
X168760Y5139460D01*
X169460Y5145060D01*
X168060Y5151590D01*
X163160Y5156260D01*
X158260Y5158130D01*
X151960D01*
G01X158260D02*
X162460Y5160930D01*
X165960Y5165590D01*
X167360Y5171190D01*
X165960Y5176790D01*
X162460Y5181460D01*
X156160Y5184260D01*
X149860Y5183330D01*
X143560Y5179590D01*
G01X1000280Y2900680D02*
Y2956680D01*
X1017780D01*
X1023380Y2953880D01*
X1026880Y2950150D01*
X1028280Y2942680D01*
X1026880Y2935210D01*
X1022680Y2930550D01*
X1017780Y2927750D01*
X1000280D01*
G01X1017780D02*
X1028280Y2900680D01*
G01X1044880Y2909080D02*
X1049080Y2904410D01*
X1053980Y2901610D01*
X1060280Y2900680D01*
X1066580Y2902550D01*
X1071480Y2906280D01*
X1074980Y2912810D01*
X1075680Y2920280D01*
X1074280Y2927750D01*
X1070780Y2932410D01*
X1065880Y2936150D01*
X1060980Y2937080D01*
X1056080Y2936150D01*
X1049780Y2932410D01*
X1051880Y2956680D01*
X1070780D01*
G01X870830Y2926920D02*
X868030Y2922720D01*
X866160Y2917820D01*
Y2912220D01*
X868960Y2905920D01*
X873630Y2901020D01*
X879230Y2897520D01*
X888560Y2894720D01*
X896960Y2894020D01*
X905360Y2895420D01*
X910960Y2897520D01*
X916560Y2901720D01*
X920290Y2906620D01*
X922160Y2911520D01*
Y2916420D01*
X920290Y2921320D01*
X917490Y2925520D01*
X913760Y2929020D01*
G01X875490Y2944220D02*
X869890Y2948420D01*
X867090Y2953320D01*
X866160Y2958920D01*
X868030Y2965920D01*
X872690Y2970820D01*
X878290Y2972220D01*
X883890Y2971520D01*
X888560Y2968720D01*
X897890Y2954720D01*
X904430Y2948420D01*
X913760Y2944220D01*
X922160Y2942820D01*
Y2972220D01*
G01X1152770Y2929460D02*
X1149970Y2925260D01*
X1148100Y2920360D01*
Y2914760D01*
X1150900Y2908460D01*
X1155570Y2903560D01*
X1161170Y2900060D01*
X1170500Y2897260D01*
X1178900Y2896560D01*
X1187300Y2897960D01*
X1192900Y2900060D01*
X1198500Y2904260D01*
X1202230Y2909160D01*
X1204100Y2914060D01*
Y2918960D01*
X1202230Y2923860D01*
X1199430Y2928060D01*
X1195700Y2931560D01*
G01X1204100Y2960060D02*
X1148100D01*
X1159300Y2951660D01*
G01X1204100D02*
Y2968460D01*
G01X2093110Y356820D02*
X2097780Y362420D01*
X2100580Y368720D01*
Y374320D01*
X2097780Y379920D01*
X2093110Y384120D01*
X2086580Y386220D01*
X2080050Y384820D01*
X2074450Y381320D01*
X2070710Y375020D01*
X2068850Y366620D01*
X2065110Y361720D01*
X2058580Y359620D01*
X2052050Y361020D01*
X2047380Y364520D01*
X2044580Y369420D01*
Y374320D01*
X2046450Y379220D01*
X2051110Y383420D01*
G01X2044580Y396520D02*
X2100580Y406320D01*
X2044580Y417520D01*
X2100580Y428720D01*
X2044580Y438520D01*
G01X2100580Y448120D02*
X2044580D01*
Y462120D01*
X2047380Y467720D01*
X2051110Y471920D01*
X2056710Y475420D01*
X2063250Y478220D01*
X2072580Y478920D01*
X2081910Y478220D01*
X2088450Y475420D01*
X2094050Y471920D01*
X2097780Y467720D01*
X2100580Y462120D01*
Y448120D01*
G01X2211860Y476960D02*
X2221760Y467060D01*
X2209880Y455180D01*
X2202950Y454190D01*
X2196840Y455020D01*
X2190570Y458650D01*
X2186940Y464910D01*
X2186120Y471020D01*
X2187110Y477950D01*
X2189750Y484550D01*
X2194040Y490820D01*
X2198660Y495440D01*
X2203610Y498410D01*
X2210210Y501050D01*
X2217140Y502040D01*
X2222750Y501710D01*
X2228690Y499730D01*
X2232150Y496260D01*
X2234790Y490980D01*
X2235120Y485370D01*
G01X2211720Y437500D02*
X2251320Y477100D01*
X2263200Y465220D01*
X2265180Y459280D01*
X2263530Y451690D01*
X2259240Y445420D01*
X2252970Y441130D01*
X2246530Y439640D01*
X2240100Y442120D01*
X2228220Y454000D01*
G01X2287810Y440610D02*
X2299690Y428730D01*
G01X2293750Y434670D02*
X2254150Y395070D01*
G01X2248210Y401010D02*
X2260090Y389130D01*
G01X2286680Y362540D02*
X2283380Y367160D01*
X2282550Y373260D01*
X2283540Y380190D01*
X2286180Y386790D01*
X2290470Y393060D01*
X2295750Y398340D01*
X2302020Y402630D01*
X2308620Y405270D01*
X2315550Y406260D01*
X2321660Y405440D01*
X2326280Y402140D01*
X2329580Y397520D01*
X2330400Y391410D01*
X2329410Y384480D01*
X2326770Y377880D01*
X2322480Y371620D01*
X2317200Y366340D01*
X2310930Y362050D01*
X2304330Y359410D01*
X2297400Y358420D01*
X2291300Y359240D01*
X2286680Y362540D01*
G01X2358810Y369610D02*
X2353530Y372250D01*
X2347260Y371920D01*
X2341320Y369940D01*
X2334550Y366140D01*
X2328120Y360700D01*
X2322670Y354260D01*
X2318880Y347500D01*
X2316900Y341560D01*
X2316570Y335290D01*
X2319210Y330010D01*
X2324490Y327370D01*
X2330760Y327700D01*
X2336700Y329680D01*
X2343460Y333470D01*
X2349900Y338920D01*
X2355340Y345350D01*
X2359140Y352120D01*
X2361120Y358060D01*
X2361450Y364330D01*
X2358810Y369610D01*
G01X2350750Y298470D02*
X2360320Y306060D01*
X2369060Y311830D01*
X2377640Y316460D01*
X2387380Y321240D01*
X2401240Y327180D01*
X2381440Y346980D01*
G01X2270330Y513900D02*
X2270990Y506640D01*
X2273470Y500210D01*
X2277430Y496250D01*
X2283370Y494270D01*
X2289640Y494600D01*
X2295740Y497740D01*
X2299370Y503340D01*
X2300860Y509780D01*
X2299040Y516880D01*
X2294420Y524130D01*
X2293600Y530240D01*
X2296730Y536340D01*
X2302340Y539970D01*
X2308120Y540800D01*
X2313560Y539310D01*
X2317030Y535850D01*
X2319170Y531060D01*
X2318840Y524790D01*
G01X2332730Y520150D02*
X2300060Y473620D01*
X2347580Y505300D01*
X2315900Y457780D01*
X2362430Y490450D01*
G01X2329620Y444060D02*
X2369220Y483660D01*
X2379120Y473760D01*
X2381100Y467820D01*
X2381430Y462210D01*
X2379940Y455770D01*
X2377300Y449170D01*
X2371200Y442080D01*
X2364100Y435980D01*
X2357500Y433330D01*
X2351070Y431850D01*
X2345460Y432180D01*
X2339520Y434160D01*
X2329620Y444060D01*
G01X2344990Y402290D02*
X2374690Y372590D01*
G01X2452760Y393520D02*
X2451770Y398470D01*
X2449620Y403250D01*
X2445660Y407210D01*
X2439230Y409690D01*
X2432460Y409850D01*
X2426030Y408370D01*
X2417450Y403750D01*
X2411010Y398300D01*
X2406060Y391370D01*
X2403590Y385930D01*
X2402600Y379000D01*
X2403420Y372890D01*
X2405570Y368110D01*
X2409030Y364650D01*
X2413820Y362500D01*
X2418770Y361510D01*
X2423880Y361670D01*
G01X2467800Y385080D02*
X2428200Y345480D01*
X2448000Y325680D01*
G01X2459740Y313940D02*
X2499340Y353540D01*
G01X2518150Y334730D02*
X2474920Y329120D01*
G01X2481520Y292160D02*
X2494550Y331920D01*
G01X2253540Y4990620D02*
X2263440Y5000520D01*
X2275320Y4988640D01*
X2276310Y4981710D01*
X2275480Y4975600D01*
X2271850Y4969330D01*
X2265590Y4965700D01*
X2259480Y4964880D01*
X2252550Y4965870D01*
X2245950Y4968510D01*
X2239680Y4972800D01*
X2235060Y4977420D01*
X2232090Y4982370D01*
X2229450Y4988970D01*
X2228460Y4995900D01*
X2228790Y5001510D01*
X2230770Y5007450D01*
X2234240Y5010910D01*
X2239520Y5013550D01*
X2245130Y5013880D01*
G01X2293000Y4990480D02*
X2253400Y5030080D01*
X2265280Y5041960D01*
X2271220Y5043940D01*
X2278810Y5042290D01*
X2285080Y5038000D01*
X2289370Y5031730D01*
X2290860Y5025290D01*
X2288380Y5018860D01*
X2276500Y5006980D01*
G01X2289890Y5066570D02*
X2301770Y5078450D01*
G01X2295830Y5072510D02*
X2335430Y5032910D01*
G01X2329490Y5026970D02*
X2341370Y5038850D01*
G01X2367960Y5065440D02*
X2363340Y5062140D01*
X2357240Y5061310D01*
X2350310Y5062300D01*
X2343710Y5064940D01*
X2337440Y5069230D01*
X2332160Y5074510D01*
X2327870Y5080780D01*
X2325230Y5087380D01*
X2324240Y5094310D01*
X2325060Y5100420D01*
X2328360Y5105040D01*
X2332980Y5108340D01*
X2339090Y5109160D01*
X2346020Y5108170D01*
X2352620Y5105530D01*
X2358880Y5101240D01*
X2364160Y5095960D01*
X2368450Y5089690D01*
X2371090Y5083090D01*
X2372080Y5076160D01*
X2371260Y5070060D01*
X2367960Y5065440D01*
G01X2360890Y5137570D02*
X2358250Y5132290D01*
X2358580Y5126020D01*
X2360560Y5120080D01*
X2364360Y5113310D01*
X2369800Y5106880D01*
X2376240Y5101430D01*
X2383000Y5097640D01*
X2388940Y5095660D01*
X2395210Y5095330D01*
X2400490Y5097970D01*
X2403130Y5103250D01*
X2402800Y5109520D01*
X2400820Y5115460D01*
X2397030Y5122220D01*
X2391580Y5128660D01*
X2385150Y5134100D01*
X2378380Y5137900D01*
X2372440Y5139880D01*
X2366170Y5140210D01*
X2360890Y5137570D01*
G01X2393420Y5170100D02*
X2390780Y5164820D01*
X2391110Y5158550D01*
X2393090Y5152610D01*
X2396890Y5145840D01*
X2402330Y5139410D01*
X2408770Y5133960D01*
X2415530Y5130170D01*
X2421470Y5128190D01*
X2427740Y5127860D01*
X2433020Y5130500D01*
X2435660Y5135780D01*
X2435330Y5142050D01*
X2433350Y5147990D01*
X2429560Y5154750D01*
X2424110Y5161190D01*
X2417680Y5166630D01*
X2410910Y5170430D01*
X2404970Y5172410D01*
X2398700Y5172740D01*
X2393420Y5170100D01*
G01X2501420Y484580D02*
X2511320Y474680D01*
X2499440Y462800D01*
X2492510Y461810D01*
X2486400Y462640D01*
X2480130Y466270D01*
X2476500Y472530D01*
X2475680Y478640D01*
X2476670Y485570D01*
X2479310Y492170D01*
X2483600Y498440D01*
X2488220Y503060D01*
X2493170Y506030D01*
X2499770Y508670D01*
X2506700Y509660D01*
X2512310Y509330D01*
X2518250Y507350D01*
X2521710Y503880D01*
X2524350Y498600D01*
X2524680Y492990D01*
G01X2501280Y445120D02*
X2540880Y484720D01*
X2552760Y472840D01*
X2554740Y466900D01*
X2553090Y459310D01*
X2548800Y453040D01*
X2542530Y448750D01*
X2536090Y447260D01*
X2529660Y449740D01*
X2517780Y461620D01*
G01X2577370Y448230D02*
X2589250Y436350D01*
G01X2583310Y442290D02*
X2543710Y402690D01*
G01X2537770Y408630D02*
X2549650Y396750D01*
G01X2576240Y370160D02*
X2572940Y374780D01*
X2572110Y380880D01*
X2573100Y387810D01*
X2575740Y394410D01*
X2580030Y400680D01*
X2585310Y405960D01*
X2591580Y410250D01*
X2598180Y412890D01*
X2605110Y413880D01*
X2611220Y413060D01*
X2615840Y409760D01*
X2619140Y405140D01*
X2619960Y399030D01*
X2618970Y392100D01*
X2616330Y385500D01*
X2612040Y379240D01*
X2606760Y373960D01*
X2600490Y369670D01*
X2593890Y367030D01*
X2586960Y366040D01*
X2580860Y366860D01*
X2576240Y370160D01*
G01X2648370Y377230D02*
X2643090Y379870D01*
X2636820Y379540D01*
X2630880Y377560D01*
X2624110Y373760D01*
X2617680Y368320D01*
X2612230Y361880D01*
X2608440Y355120D01*
X2606460Y349180D01*
X2606130Y342910D01*
X2608770Y337630D01*
X2614050Y334990D01*
X2620320Y335320D01*
X2626260Y337300D01*
X2633020Y341090D01*
X2639460Y346540D01*
X2644900Y352970D01*
X2648700Y359740D01*
X2650680Y365680D01*
X2651010Y371950D01*
X2648370Y377230D01*
G01X2648390Y331000D02*
X2656480Y332160D01*
X2662090Y331830D01*
X2667370Y329190D01*
X2669510Y324400D01*
X2669350Y319290D01*
X2667370Y313350D01*
X2663240Y308240D01*
X2658790Y304770D01*
X2652850Y302790D01*
X2646580Y302460D01*
X2641790Y304610D01*
X2639150Y309880D01*
X2639650Y317310D01*
X2643610Y325230D01*
X2649710Y332320D01*
X2659280Y339910D01*
X2665390Y343050D01*
X2672480Y345190D01*
X2679250Y345030D01*
X2683370Y342220D01*
X2685520Y337440D01*
X2684690Y331660D01*
G01X2562430Y516440D02*
X2563090Y509180D01*
X2565570Y502750D01*
X2569530Y498790D01*
X2575470Y496810D01*
X2581740Y497140D01*
X2587840Y500280D01*
X2591470Y505880D01*
X2592960Y512320D01*
X2591140Y519420D01*
X2586520Y526670D01*
X2585700Y532780D01*
X2588830Y538880D01*
X2594440Y542510D01*
X2600220Y543340D01*
X2605660Y541850D01*
X2609130Y538390D01*
X2611270Y533600D01*
X2610940Y527330D01*
G01X2624830Y522690D02*
X2592160Y476160D01*
X2639680Y507840D01*
X2608000Y460320D01*
X2654530Y492990D01*
G01X2621720Y446600D02*
X2661320Y486200D01*
X2671220Y476300D01*
X2673200Y470360D01*
X2673530Y464750D01*
X2672040Y458310D01*
X2669400Y451710D01*
X2663300Y444620D01*
X2656200Y438520D01*
X2649600Y435870D01*
X2643170Y434390D01*
X2637560Y434720D01*
X2631620Y436700D01*
X2621720Y446600D01*
G01X2637090Y404830D02*
X2666790Y375130D01*
G01X2686780Y381540D02*
X2726380Y421140D01*
X2736280Y411240D01*
X2738260Y405300D01*
X2738590Y399690D01*
X2737100Y393250D01*
X2734460Y386650D01*
X2728360Y379560D01*
X2721260Y373460D01*
X2714660Y370810D01*
X2708230Y369330D01*
X2702620Y369660D01*
X2696680Y371640D01*
X2686780Y381540D01*
G01X2717820Y350500D02*
X2769800Y377720D01*
X2742570Y325750D01*
G01X2751980Y344060D02*
X2736140Y359900D01*
G01X2802330Y345190D02*
X2762730Y305590D01*
G01X2790940Y356570D02*
X2813710Y333800D01*
G01X2826540Y456640D02*
X2836440Y446740D01*
X2824560Y434860D01*
X2817630Y433870D01*
X2811520Y434700D01*
X2805250Y438330D01*
X2801620Y444590D01*
X2800800Y450700D01*
X2801790Y457630D01*
X2804430Y464230D01*
X2808720Y470500D01*
X2813340Y475120D01*
X2818290Y478090D01*
X2824890Y480730D01*
X2831820Y481720D01*
X2837430Y481390D01*
X2843370Y479410D01*
X2846830Y475940D01*
X2849470Y470660D01*
X2849800Y465050D01*
G01X2824910Y418670D02*
X2864510Y458260D01*
X2847680Y395900D01*
X2887280Y435490D01*
G01X2857940Y385640D02*
X2897540Y425240D01*
X2907440Y415340D01*
X2909420Y409400D01*
X2909750Y403790D01*
X2908260Y397350D01*
X2905620Y390750D01*
X2899520Y383660D01*
X2892420Y377560D01*
X2885820Y374910D01*
X2879390Y373430D01*
X2873780Y373760D01*
X2867840Y375740D01*
X2857940Y385640D01*
G01X2515160Y5003320D02*
X2525060Y5013220D01*
X2536940Y5001340D01*
X2537930Y4994410D01*
X2537100Y4988300D01*
X2533470Y4982030D01*
X2527210Y4978400D01*
X2521100Y4977580D01*
X2514170Y4978570D01*
X2507570Y4981210D01*
X2501300Y4985500D01*
X2496680Y4990120D01*
X2493710Y4995070D01*
X2491070Y5001670D01*
X2490080Y5008600D01*
X2490410Y5014210D01*
X2492390Y5020150D01*
X2495860Y5023610D01*
X2501140Y5026250D01*
X2506750Y5026580D01*
G01X2554620Y5003180D02*
X2515020Y5042780D01*
X2526900Y5054660D01*
X2532840Y5056640D01*
X2540430Y5054990D01*
X2546700Y5050700D01*
X2550990Y5044430D01*
X2552480Y5037990D01*
X2550000Y5031560D01*
X2538120Y5019680D01*
G01X2551510Y5079270D02*
X2563390Y5091150D01*
G01X2557450Y5085210D02*
X2597050Y5045610D01*
G01X2591110Y5039670D02*
X2602990Y5051550D01*
G01X2629580Y5078140D02*
X2624960Y5074840D01*
X2618860Y5074010D01*
X2611930Y5075000D01*
X2605330Y5077640D01*
X2599060Y5081930D01*
X2593780Y5087210D01*
X2589490Y5093480D01*
X2586850Y5100080D01*
X2585860Y5107010D01*
X2586680Y5113120D01*
X2589980Y5117740D01*
X2594600Y5121040D01*
X2600710Y5121860D01*
X2607640Y5120870D01*
X2614240Y5118230D01*
X2620500Y5113940D01*
X2625780Y5108660D01*
X2630070Y5102390D01*
X2632710Y5095790D01*
X2633700Y5088860D01*
X2632880Y5082760D01*
X2629580Y5078140D01*
G01X2622510Y5150270D02*
X2619870Y5144990D01*
X2620200Y5138720D01*
X2622180Y5132780D01*
X2625980Y5126010D01*
X2631420Y5119580D01*
X2637860Y5114130D01*
X2644620Y5110340D01*
X2650560Y5108360D01*
X2656830Y5108030D01*
X2662110Y5110670D01*
X2664750Y5115950D01*
X2664420Y5122220D01*
X2662440Y5128160D01*
X2658650Y5134920D01*
X2653200Y5141360D01*
X2646770Y5146800D01*
X2640000Y5150600D01*
X2634060Y5152580D01*
X2627790Y5152910D01*
X2622510Y5150270D01*
G01X2675830Y5140230D02*
X2683420Y5138580D01*
X2690020Y5139900D01*
X2695130Y5143690D01*
X2698430Y5148310D01*
X2699100Y5155570D01*
X2697610Y5162010D01*
X2694140Y5166460D01*
X2688540Y5170090D01*
X2681770Y5169930D01*
X2676980Y5167780D01*
X2672530Y5163330D01*
G01X2676980Y5167780D02*
X2677980Y5172730D01*
X2677150Y5178510D01*
X2674180Y5183460D01*
X2669230Y5186430D01*
X2663460Y5187250D01*
X2657020Y5184780D01*
X2653230Y5179660D01*
X2651410Y5172570D01*
G01X2761540Y5005860D02*
X2771440Y5015760D01*
X2783320Y5003880D01*
X2784310Y4996950D01*
X2783480Y4990840D01*
X2779850Y4984570D01*
X2773590Y4980940D01*
X2767480Y4980120D01*
X2760550Y4981110D01*
X2753950Y4983750D01*
X2747680Y4988040D01*
X2743060Y4992660D01*
X2740090Y4997610D01*
X2737450Y5004210D01*
X2736460Y5011140D01*
X2736790Y5016750D01*
X2738770Y5022690D01*
X2742240Y5026150D01*
X2747520Y5028790D01*
X2753130Y5029120D01*
G01X2801000Y5005720D02*
X2761400Y5045320D01*
X2773280Y5057200D01*
X2779220Y5059180D01*
X2786810Y5057530D01*
X2793080Y5053240D01*
X2797370Y5046970D01*
X2798860Y5040530D01*
X2796380Y5034100D01*
X2784500Y5022220D01*
G01X2797890Y5081810D02*
X2809770Y5093690D01*
G01X2803830Y5087750D02*
X2843430Y5048150D01*
G01X2837490Y5042210D02*
X2849370Y5054090D01*
G01X2875960Y5080680D02*
X2871340Y5077380D01*
X2865240Y5076550D01*
X2858310Y5077540D01*
X2851710Y5080180D01*
X2845440Y5084470D01*
X2840160Y5089750D01*
X2835870Y5096020D01*
X2833230Y5102620D01*
X2832240Y5109550D01*
X2833060Y5115660D01*
X2836360Y5120280D01*
X2840980Y5123580D01*
X2847090Y5124400D01*
X2854020Y5123410D01*
X2860620Y5120770D01*
X2866880Y5116480D01*
X2872160Y5111200D01*
X2876450Y5104930D01*
X2879090Y5098330D01*
X2880080Y5091400D01*
X2879260Y5085300D01*
X2875960Y5080680D01*
G01X2882590Y5120300D02*
X2881430Y5128390D01*
X2881760Y5134000D01*
X2884400Y5139280D01*
X2889190Y5141420D01*
X2894300Y5141260D01*
X2900240Y5139280D01*
X2905350Y5135150D01*
X2908820Y5130700D01*
X2910800Y5124760D01*
X2911130Y5118490D01*
X2908980Y5113700D01*
X2903710Y5111060D01*
X2896280Y5111560D01*
X2888360Y5115520D01*
X2881270Y5121620D01*
X2873680Y5131190D01*
X2870540Y5137300D01*
X2868400Y5144390D01*
X2868560Y5151160D01*
X2871370Y5155280D01*
X2876150Y5157430D01*
X2881930Y5156600D01*
G01X2898620Y5169330D02*
X2897630Y5176260D01*
X2899110Y5181710D01*
X2902410Y5186330D01*
X2908680Y5189960D01*
X2915450Y5190120D01*
X2920390Y5187150D01*
X2923860Y5182700D01*
X2925180Y5177420D01*
X2921880Y5160920D01*
X2922050Y5151840D01*
X2925680Y5142270D01*
X2930620Y5135340D01*
X2951410Y5156130D01*
G01X2983680Y463700D02*
X2982030Y456110D01*
X2983350Y449510D01*
X2987140Y444400D01*
X2991760Y441100D01*
X2999020Y440430D01*
X3005460Y441920D01*
X3009910Y445390D01*
X3013540Y450990D01*
X3013380Y457760D01*
X3011230Y462550D01*
X3006780Y467000D01*
G01X3011230Y462550D02*
X3016180Y461550D01*
X3021960Y462380D01*
X3026910Y465350D01*
X3029880Y470300D01*
X3030700Y476070D01*
X3028230Y482510D01*
X3023110Y486300D01*
X3016020Y488120D01*
G01X3046400Y464330D02*
X3019180Y412360D01*
X3071150Y439580D01*
G01X3048740Y398640D02*
X3047090Y391050D01*
X3048410Y384450D01*
X3052200Y379340D01*
X3056820Y376040D01*
X3064080Y375370D01*
X3070520Y376860D01*
X3074970Y380330D01*
X3078600Y385930D01*
X3078440Y392700D01*
X3076290Y397490D01*
X3071840Y401940D01*
G01X3076290Y397490D02*
X3081240Y396490D01*
X3087020Y397320D01*
X3091970Y400290D01*
X3094940Y405240D01*
X3095760Y411010D01*
X3093290Y417450D01*
X3088170Y421240D01*
X3081080Y423060D01*
G01X3527580Y461720D02*
X3537480Y451820D01*
X3525600Y439940D01*
X3518670Y438950D01*
X3512560Y439780D01*
X3506290Y443410D01*
X3502660Y449670D01*
X3501840Y455780D01*
X3502830Y462710D01*
X3505470Y469310D01*
X3509760Y475580D01*
X3514380Y480200D01*
X3519330Y483170D01*
X3525930Y485810D01*
X3532860Y486800D01*
X3538470Y486470D01*
X3544410Y484490D01*
X3547870Y481020D01*
X3550510Y475740D01*
X3550840Y470130D01*
G01X3525950Y423750D02*
X3565550Y463340D01*
X3548720Y400980D01*
X3588320Y440570D01*
G01X3558980Y390720D02*
X3598580Y430320D01*
X3608480Y420420D01*
X3610460Y414480D01*
X3610790Y408870D01*
X3609300Y402430D01*
X3606660Y395830D01*
X3600560Y388740D01*
X3593460Y382640D01*
X3586860Y379990D01*
X3580430Y378510D01*
X3574820Y378840D01*
X3568880Y380820D01*
X3558980Y390720D01*
G01X3255460Y458620D02*
X3253810Y451030D01*
X3255130Y444430D01*
X3258920Y439320D01*
X3263540Y436020D01*
X3270800Y435350D01*
X3277240Y436840D01*
X3281690Y440310D01*
X3285320Y445910D01*
X3285160Y452680D01*
X3283010Y457470D01*
X3278560Y461920D01*
G01X3283010Y457470D02*
X3287960Y456470D01*
X3293740Y457300D01*
X3298690Y460270D01*
X3301660Y465220D01*
X3302480Y470990D01*
X3300010Y477430D01*
X3294890Y481220D01*
X3287800Y483040D01*
G01X3318180Y459250D02*
X3290960Y407280D01*
X3342930Y434500D01*
G01X3320520Y393560D02*
X3318870Y385970D01*
X3320190Y379370D01*
X3323980Y374260D01*
X3328600Y370960D01*
X3335860Y370290D01*
X3342300Y371780D01*
X3346750Y375250D01*
X3350380Y380850D01*
X3350220Y387620D01*
X3348070Y392410D01*
X3343620Y396860D01*
G01X3348070Y392410D02*
X3353020Y391410D01*
X3358800Y392240D01*
X3363750Y395210D01*
X3366720Y400160D01*
X3367540Y405930D01*
X3365070Y412370D01*
X3359950Y416160D01*
X3352860Y417980D01*
G01X3018080Y5010940D02*
X3027980Y5020840D01*
X3039860Y5008960D01*
X3040850Y5002030D01*
X3040020Y4995920D01*
X3036390Y4989650D01*
X3030130Y4986020D01*
X3024020Y4985200D01*
X3017090Y4986190D01*
X3010490Y4988830D01*
X3004220Y4993120D01*
X2999600Y4997740D01*
X2996630Y5002690D01*
X2993990Y5009290D01*
X2993000Y5016220D01*
X2993330Y5021830D01*
X2995310Y5027770D01*
X2998780Y5031230D01*
X3004060Y5033870D01*
X3009670Y5034200D01*
G01X3057540Y5010800D02*
X3017940Y5050400D01*
X3029820Y5062280D01*
X3035760Y5064260D01*
X3043350Y5062610D01*
X3049620Y5058320D01*
X3053910Y5052050D01*
X3055400Y5045610D01*
X3052920Y5039180D01*
X3041040Y5027300D01*
G01X3054430Y5086890D02*
X3066310Y5098770D01*
G01X3060370Y5092830D02*
X3099970Y5053230D01*
G01X3094030Y5047290D02*
X3105910Y5059170D01*
G01X3132500Y5085760D02*
X3127880Y5082460D01*
X3121780Y5081630D01*
X3114850Y5082620D01*
X3108250Y5085260D01*
X3101980Y5089550D01*
X3096700Y5094830D01*
X3092410Y5101100D01*
X3089770Y5107700D01*
X3088780Y5114630D01*
X3089600Y5120740D01*
X3092900Y5125360D01*
X3097520Y5128660D01*
X3103630Y5129480D01*
X3110560Y5128490D01*
X3117160Y5125850D01*
X3123420Y5121560D01*
X3128700Y5116280D01*
X3132990Y5110010D01*
X3135630Y5103410D01*
X3136620Y5096480D01*
X3135800Y5090380D01*
X3132500Y5085760D01*
G01X3139130Y5125380D02*
X3137970Y5133470D01*
X3138300Y5139080D01*
X3140940Y5144360D01*
X3145730Y5146500D01*
X3150840Y5146340D01*
X3156780Y5144360D01*
X3161890Y5140230D01*
X3165360Y5135780D01*
X3167340Y5129840D01*
X3167670Y5123570D01*
X3165520Y5118780D01*
X3160250Y5116140D01*
X3152820Y5116640D01*
X3144900Y5120600D01*
X3137810Y5126700D01*
X3130220Y5136270D01*
X3127080Y5142380D01*
X3124940Y5149470D01*
X3125100Y5156240D01*
X3127910Y5160360D01*
X3132690Y5162510D01*
X3138470Y5161680D01*
G01X3157960Y5190420D02*
X3155320Y5185140D01*
X3155650Y5178870D01*
X3157630Y5172930D01*
X3161430Y5166160D01*
X3166870Y5159730D01*
X3173310Y5154280D01*
X3180070Y5150490D01*
X3186010Y5148510D01*
X3192280Y5148180D01*
X3197560Y5150820D01*
X3200200Y5156100D01*
X3199870Y5162370D01*
X3197890Y5168310D01*
X3194100Y5175070D01*
X3188650Y5181510D01*
X3182220Y5186950D01*
X3175450Y5190750D01*
X3169510Y5192730D01*
X3163240Y5193060D01*
X3157960Y5190420D01*
G01X3538780Y5026180D02*
X3548680Y5036080D01*
X3560560Y5024200D01*
X3561550Y5017270D01*
X3560720Y5011160D01*
X3557090Y5004890D01*
X3550830Y5001260D01*
X3544720Y5000440D01*
X3537790Y5001430D01*
X3531190Y5004070D01*
X3524920Y5008360D01*
X3520300Y5012980D01*
X3517330Y5017930D01*
X3514690Y5024530D01*
X3513700Y5031460D01*
X3514030Y5037070D01*
X3516010Y5043010D01*
X3519480Y5046470D01*
X3524760Y5049110D01*
X3530370Y5049440D01*
G01X3576750Y5024550D02*
X3537160Y5064150D01*
X3599520Y5047320D01*
X3559930Y5086920D01*
G01X3609780Y5057580D02*
X3570180Y5097180D01*
X3580080Y5107080D01*
X3586020Y5109060D01*
X3591630Y5109390D01*
X3598070Y5107900D01*
X3604670Y5105260D01*
X3611760Y5099160D01*
X3617860Y5092060D01*
X3620510Y5085460D01*
X3621990Y5079030D01*
X3621660Y5073420D01*
X3619680Y5067480D01*
X3609780Y5057580D01*
G01X3221700Y4984910D02*
X3273670Y4957690D01*
X3246450Y5009660D01*
G01X3295310Y4979330D02*
X3255710Y5018930D01*
X3265610Y5028830D01*
X3271550Y5030810D01*
X3277160Y5031140D01*
X3283600Y5029650D01*
X3290200Y5027010D01*
X3297290Y5020910D01*
X3303390Y5013810D01*
X3306040Y5007210D01*
X3307520Y5000780D01*
X3307190Y4995170D01*
X3305210Y4989230D01*
X3295310Y4979330D01*
G01X3327840Y5011860D02*
X3288240Y5051460D01*
X3298140Y5061360D01*
X3304080Y5063340D01*
X3309690Y5063670D01*
X3316130Y5062180D01*
X3322730Y5059540D01*
X3329820Y5053440D01*
X3335920Y5046340D01*
X3338570Y5039740D01*
X3340050Y5033310D01*
X3339720Y5027700D01*
X3337740Y5021760D01*
X3327840Y5011860D01*
G01X3369610Y5027230D02*
X3399310Y5056930D01*
G01X3394380Y5078400D02*
X3354790Y5118000D01*
X3373600Y5136810D01*
G01X3385800Y5110740D02*
X3373930Y5098860D01*
G01X3446220Y5130240D02*
X3426420Y5110440D01*
X3386820Y5150040D01*
X3406620Y5169840D01*
G01X3417840Y5142780D02*
X3405960Y5130900D01*
G01X3455980Y5140000D02*
X3416380Y5179600D01*
X3462250Y5159470D01*
X3442120Y5205340D01*
X3481720Y5165740D01*
G01X4015540Y505520D02*
X4029540D01*
Y488720D01*
X4025340Y483120D01*
X4020440Y479390D01*
X4013440Y477520D01*
X4006440Y479390D01*
X4001540Y483120D01*
X3997340Y488720D01*
X3994540Y495250D01*
X3993140Y502720D01*
Y509250D01*
X3994540Y514850D01*
X3997340Y521390D01*
X4001540Y526990D01*
X4005740Y530720D01*
X4011340Y533520D01*
X4016240D01*
X4021840Y531650D01*
X4026040Y527920D01*
G01X4043340Y477520D02*
Y533520D01*
X4060140D01*
X4065740Y530720D01*
X4069940Y524190D01*
X4071340Y516720D01*
X4069940Y509250D01*
X4066440Y503650D01*
X4060140Y500850D01*
X4043340D01*
G01X4094940Y533520D02*
X4111740D01*
G01X4103340D02*
Y477520D01*
G01X4094940D02*
X4111740D01*
G01X4149340D02*
X4143740Y478450D01*
X4138840Y482190D01*
X4134640Y487790D01*
X4131840Y494320D01*
X4130440Y501790D01*
Y509250D01*
X4131840Y516720D01*
X4134640Y523250D01*
X4138840Y528850D01*
X4143740Y532590D01*
X4149340Y533520D01*
X4154940Y532590D01*
X4159840Y528850D01*
X4164040Y523250D01*
X4166840Y516720D01*
X4168240Y509250D01*
Y501790D01*
X4166840Y494320D01*
X4164040Y487790D01*
X4159840Y482190D01*
X4154940Y478450D01*
X4149340Y477520D01*
G01X4195340Y533520D02*
X4189740Y531650D01*
X4185540Y526990D01*
X4182740Y521390D01*
X4180640Y513920D01*
X4179940Y505520D01*
X4180640Y497120D01*
X4182740Y489650D01*
X4185540Y484050D01*
X4189740Y479390D01*
X4195340Y477520D01*
X4200940Y479390D01*
X4205140Y484050D01*
X4207940Y489650D01*
X4210040Y497120D01*
X4210740Y505520D01*
X4210040Y513920D01*
X4207940Y521390D01*
X4205140Y526990D01*
X4200940Y531650D01*
X4195340Y533520D01*
G01X4228040Y524190D02*
X4232240Y529790D01*
X4237140Y532590D01*
X4242740Y533520D01*
X4249740Y531650D01*
X4254640Y526990D01*
X4256040Y521390D01*
X4255340Y515790D01*
X4252540Y511120D01*
X4238540Y501790D01*
X4232240Y495250D01*
X4228040Y485920D01*
X4226640Y477520D01*
X4256040D01*
G01X3758580Y646200D02*
X3762080Y640600D01*
X3766280Y636870D01*
X3771180Y635000D01*
X3776780Y636870D01*
X3780980Y640600D01*
X3785180Y646200D01*
X3786580Y653670D01*
Y691000D01*
G01X3803180Y643400D02*
X3807380Y638730D01*
X3812280Y635930D01*
X3818580Y635000D01*
X3824880Y636870D01*
X3829780Y640600D01*
X3833280Y647130D01*
X3833980Y654600D01*
X3832580Y662070D01*
X3829080Y666730D01*
X3824180Y670470D01*
X3819280Y671400D01*
X3814380Y670470D01*
X3808080Y666730D01*
X3810180Y691000D01*
X3829080D01*
G01X3735720Y4931180D02*
X3739220Y4925580D01*
X3743420Y4921850D01*
X3748320Y4919980D01*
X3753920Y4921850D01*
X3758120Y4925580D01*
X3762320Y4931180D01*
X3763720Y4938650D01*
Y4975980D01*
G01X3804120Y4919980D02*
Y4975980D01*
X3778220Y4935850D01*
X3813220D01*
G01X4194220Y726560D02*
Y670560D01*
G01X4178120Y726560D02*
X4210320D01*
G01X4226220Y670560D02*
Y726560D01*
X4243020D01*
X4248620Y723760D01*
X4252820Y717230D01*
X4254220Y709760D01*
X4252820Y702290D01*
X4249320Y696690D01*
X4243020Y693890D01*
X4226220D01*
G01X4270820Y681760D02*
X4275020Y675230D01*
X4280620Y671490D01*
X4286920Y670560D01*
X4292520Y671490D01*
X4298120Y676160D01*
X4301620Y681760D01*
X4302320Y687360D01*
X4300920Y693890D01*
X4296020Y698560D01*
X4291120Y700430D01*
X4284820D01*
G01X4291120D02*
X4295320Y703230D01*
X4298820Y707890D01*
X4300220Y713490D01*
X4298820Y719090D01*
X4295320Y723760D01*
X4289020Y726560D01*
X4282720Y725630D01*
X4276420Y721890D01*
G01X5112820Y909380D02*
X5126820D01*
Y892580D01*
X5122620Y886980D01*
X5117720Y883250D01*
X5110720Y881380D01*
X5103720Y883250D01*
X5098820Y886980D01*
X5094620Y892580D01*
X5091820Y899110D01*
X5090420Y906580D01*
Y913110D01*
X5091820Y918710D01*
X5094620Y925250D01*
X5098820Y930850D01*
X5103020Y934580D01*
X5108620Y937380D01*
X5113520D01*
X5119120Y935510D01*
X5123320Y931780D01*
G01X5140620Y881380D02*
Y937380D01*
X5157420D01*
X5163020Y934580D01*
X5167220Y928050D01*
X5168620Y920580D01*
X5167220Y913110D01*
X5163720Y907510D01*
X5157420Y904710D01*
X5140620D01*
G01X5192220Y937380D02*
X5209020D01*
G01X5200620D02*
Y881380D01*
G01X5192220D02*
X5209020D01*
G01X5246620D02*
X5241020Y882310D01*
X5236120Y886050D01*
X5231920Y891650D01*
X5229120Y898180D01*
X5227720Y905650D01*
Y913110D01*
X5229120Y920580D01*
X5231920Y927110D01*
X5236120Y932710D01*
X5241020Y936450D01*
X5246620Y937380D01*
X5252220Y936450D01*
X5257120Y932710D01*
X5261320Y927110D01*
X5264120Y920580D01*
X5265520Y913110D01*
Y905650D01*
X5264120Y898180D01*
X5261320Y891650D01*
X5257120Y886050D01*
X5252220Y882310D01*
X5246620Y881380D01*
G01X5292620Y937380D02*
X5287020Y935510D01*
X5282820Y930850D01*
X5280020Y925250D01*
X5277920Y917780D01*
X5277220Y909380D01*
X5277920Y900980D01*
X5280020Y893510D01*
X5282820Y887910D01*
X5287020Y883250D01*
X5292620Y881380D01*
X5298220Y883250D01*
X5302420Y887910D01*
X5305220Y893510D01*
X5307320Y900980D01*
X5308020Y909380D01*
X5307320Y917780D01*
X5305220Y925250D01*
X5302420Y930850D01*
X5298220Y935510D01*
X5292620Y937380D01*
G01X5338620D02*
X5333020Y935510D01*
X5328820Y930850D01*
X5326020Y925250D01*
X5323920Y917780D01*
X5323220Y909380D01*
X5323920Y900980D01*
X5326020Y893510D01*
X5328820Y887910D01*
X5333020Y883250D01*
X5338620Y881380D01*
X5344220Y883250D01*
X5348420Y887910D01*
X5351220Y893510D01*
X5353320Y900980D01*
X5354020Y909380D01*
X5353320Y917780D01*
X5351220Y925250D01*
X5348420Y930850D01*
X5344220Y935510D01*
X5338620Y937380D01*
G01X4781500Y876150D02*
X4787100Y871480D01*
X4793400Y868680D01*
X4799000D01*
X4804600Y871480D01*
X4808800Y876150D01*
X4810900Y882680D01*
X4809500Y889210D01*
X4806000Y894810D01*
X4799700Y898550D01*
X4791300Y900410D01*
X4786400Y904150D01*
X4784300Y910680D01*
X4785700Y917210D01*
X4789200Y921880D01*
X4794100Y924680D01*
X4799000D01*
X4803900Y922810D01*
X4808100Y918150D01*
G01X4821200Y924680D02*
X4831000Y868680D01*
X4842200Y924680D01*
X4853400Y868680D01*
X4863200Y924680D01*
G01X4888200Y868680D02*
Y924680D01*
X4879800Y913480D01*
G01Y868680D02*
X4896600D01*
G01X5168280Y4589780D02*
Y4645780D01*
X5185780D01*
X5191380Y4642980D01*
X5194880Y4639250D01*
X5196280Y4631780D01*
X5194880Y4624310D01*
X5190680Y4619650D01*
X5185780Y4616850D01*
X5168280D01*
G01X5185780D02*
X5196280Y4589780D01*
G01X5213580Y4597250D02*
X5219180Y4592580D01*
X5225480Y4589780D01*
X5231080D01*
X5236680Y4592580D01*
X5240880Y4597250D01*
X5242980Y4603780D01*
X5241580Y4610310D01*
X5238080Y4615910D01*
X5231780Y4619650D01*
X5223380Y4621510D01*
X5218480Y4625250D01*
X5216380Y4631780D01*
X5217780Y4638310D01*
X5221280Y4642980D01*
X5226180Y4645780D01*
X5231080D01*
X5235980Y4643910D01*
X5240180Y4639250D01*
G01X5274280Y4645780D02*
Y4589780D01*
G01X5258180Y4645780D02*
X5290380D01*
G01X5304180Y4589780D02*
Y4645780D01*
X5336380Y4589780D01*
Y4645780D01*
G01X4766260Y4604870D02*
X4771860Y4600200D01*
X4778160Y4597400D01*
X4783760D01*
X4789360Y4600200D01*
X4793560Y4604870D01*
X4795660Y4611400D01*
X4794260Y4617930D01*
X4790760Y4623530D01*
X4784460Y4627270D01*
X4776060Y4629130D01*
X4771160Y4632870D01*
X4769060Y4639400D01*
X4770460Y4645930D01*
X4773960Y4650600D01*
X4778860Y4653400D01*
X4783760D01*
X4788660Y4651530D01*
X4792860Y4646870D01*
G01X4805960Y4653400D02*
X4815760Y4597400D01*
X4826960Y4653400D01*
X4838160Y4597400D01*
X4847960Y4653400D01*
G01X4859660Y4644070D02*
X4863860Y4649670D01*
X4868760Y4652470D01*
X4874360Y4653400D01*
X4881360Y4651530D01*
X4886260Y4646870D01*
X4887660Y4641270D01*
X4886960Y4635670D01*
X4884160Y4631000D01*
X4870160Y4621670D01*
X4863860Y4615130D01*
X4859660Y4605800D01*
X4858260Y4597400D01*
X4887660D01*
G01X5972380Y3395470D02*
X5968180Y3398270D01*
X5963280Y3400140D01*
X5957680D01*
X5951380Y3397340D01*
X5946480Y3392670D01*
X5942980Y3387070D01*
X5940180Y3377740D01*
X5939480Y3369340D01*
X5940880Y3360940D01*
X5942980Y3355340D01*
X5947180Y3349740D01*
X5952080Y3346010D01*
X5956980Y3344140D01*
X5961880D01*
X5966780Y3346010D01*
X5970980Y3348810D01*
X5974480Y3352540D01*
G01X5987580D02*
X5991780Y3347870D01*
X5996680Y3345070D01*
X6002980Y3344140D01*
X6009280Y3346010D01*
X6014180Y3349740D01*
X6017680Y3356270D01*
X6018380Y3363740D01*
X6016980Y3371210D01*
X6013480Y3375870D01*
X6008580Y3379610D01*
X6003680Y3380540D01*
X5998780Y3379610D01*
X5992480Y3375870D01*
X5994580Y3400140D01*
X6013480D01*
G01X5925200Y3445740D02*
Y3501740D01*
X5942700D01*
X5948300Y3498940D01*
X5951800Y3495210D01*
X5953200Y3487740D01*
X5951800Y3480270D01*
X5947600Y3475610D01*
X5942700Y3472810D01*
X5925200D01*
G01X5942700D02*
X5953200Y3445740D01*
G01X5985200D02*
Y3501740D01*
X5976800Y3490540D01*
G01Y3445740D02*
X5993600D01*
G01X6017900Y3469070D02*
X6022800Y3475610D01*
X6027000Y3479340D01*
X6032600Y3481210D01*
X6037500Y3479340D01*
X6041000Y3475610D01*
X6043800Y3470010D01*
X6044500Y3463470D01*
X6043800Y3457870D01*
X6041000Y3452270D01*
X6036800Y3447610D01*
X6031900Y3445740D01*
X6026300Y3447610D01*
X6021400Y3453210D01*
X6018600Y3461610D01*
X6017900Y3470940D01*
X6019300Y3483070D01*
X6021400Y3489610D01*
X6024900Y3496140D01*
X6029800Y3500810D01*
X6034700Y3501740D01*
X6039600Y3499870D01*
X6043100Y3495210D01*
G01X5889730Y3731060D02*
X5886930Y3726860D01*
X5885060Y3721960D01*
Y3716360D01*
X5887860Y3710060D01*
X5892530Y3705160D01*
X5898130Y3701660D01*
X5907460Y3698860D01*
X5915860Y3698160D01*
X5924260Y3699560D01*
X5929860Y3701660D01*
X5935460Y3705860D01*
X5939190Y3710760D01*
X5941060Y3715660D01*
Y3720560D01*
X5939190Y3725460D01*
X5936390Y3729660D01*
X5932660Y3733160D01*
G01X5929860Y3746260D02*
X5936390Y3750460D01*
X5940130Y3756060D01*
X5941060Y3762360D01*
X5940130Y3767960D01*
X5935460Y3773560D01*
X5929860Y3777060D01*
X5924260Y3777760D01*
X5917730Y3776360D01*
X5913060Y3771460D01*
X5911190Y3766560D01*
Y3760260D01*
G01Y3766560D02*
X5908390Y3770760D01*
X5903730Y3774260D01*
X5898130Y3775660D01*
X5892530Y3774260D01*
X5887860Y3770760D01*
X5885060Y3764460D01*
X5885990Y3758160D01*
X5889730Y3751860D01*
G01X5917730Y3794360D02*
X5911190Y3799260D01*
X5907460Y3803460D01*
X5905590Y3809060D01*
X5907460Y3813960D01*
X5911190Y3817460D01*
X5916790Y3820260D01*
X5923330Y3820960D01*
X5928930Y3820260D01*
X5934530Y3817460D01*
X5939190Y3813260D01*
X5941060Y3808360D01*
X5939190Y3802760D01*
X5933590Y3797860D01*
X5925190Y3795060D01*
X5915860Y3794360D01*
X5903730Y3795760D01*
X5897190Y3797860D01*
X5890660Y3801360D01*
X5885990Y3806260D01*
X5885060Y3811160D01*
X5886930Y3816060D01*
X5891590Y3819560D01*
G01X5749940Y4635500D02*
Y4691500D01*
X5767440D01*
X5773040Y4688700D01*
X5776540Y4684970D01*
X5777940Y4677500D01*
X5776540Y4670030D01*
X5772340Y4665370D01*
X5767440Y4662570D01*
X5749940D01*
G01X5767440D02*
X5777940Y4635500D01*
G01X5809940D02*
Y4691500D01*
X5801540Y4680300D01*
G01Y4635500D02*
X5818340D01*
G01X5844040Y4642030D02*
X5848940Y4637370D01*
X5854540Y4635500D01*
X5860140Y4637370D01*
X5865040Y4642970D01*
X5868540Y4651370D01*
X5869940Y4659770D01*
Y4670030D01*
X5868540Y4678430D01*
X5865040Y4685900D01*
X5860840Y4689630D01*
X5855940Y4691500D01*
X5850340Y4689630D01*
X5846140Y4685900D01*
X5843340Y4680300D01*
X5841940Y4672830D01*
X5843340Y4666300D01*
X5846840Y4659770D01*
X5851040Y4656030D01*
X5855940Y4655100D01*
X5861540Y4656970D01*
X5865740Y4661630D01*
X5869940Y4670030D01*
G01X5749940Y4749800D02*
Y4805800D01*
X5767440D01*
X5773040Y4803000D01*
X5776540Y4799270D01*
X5777940Y4791800D01*
X5776540Y4784330D01*
X5772340Y4779670D01*
X5767440Y4776870D01*
X5749940D01*
G01X5767440D02*
X5777940Y4749800D01*
G01X5809940D02*
Y4805800D01*
X5801540Y4794600D01*
G01Y4749800D02*
X5818340D01*
G01X5840540Y4758200D02*
X5844740Y4753530D01*
X5849640Y4750730D01*
X5855940Y4749800D01*
X5862240Y4751670D01*
X5867140Y4755400D01*
X5870640Y4761930D01*
X5871340Y4769400D01*
X5869940Y4776870D01*
X5866440Y4781530D01*
X5861540Y4785270D01*
X5856640Y4786200D01*
X5851740Y4785270D01*
X5845440Y4781530D01*
X5847540Y4805800D01*
X5866440D01*
G01X5771720Y5004330D02*
X5767520Y5007130D01*
X5762620Y5009000D01*
X5757020D01*
X5750720Y5006200D01*
X5745820Y5001530D01*
X5742320Y4995930D01*
X5739520Y4986600D01*
X5738820Y4978200D01*
X5740220Y4969800D01*
X5742320Y4964200D01*
X5746520Y4958600D01*
X5751420Y4954870D01*
X5756320Y4953000D01*
X5761220D01*
X5766120Y4954870D01*
X5770320Y4957670D01*
X5773820Y4961400D01*
G01X5810720Y4953000D02*
Y5009000D01*
X5784820Y4968870D01*
X5819820D01*
G01X5848320Y4953000D02*
Y5009000D01*
X5839920Y4997800D01*
G01Y4953000D02*
X5856720D01*
G01X6101080Y441340D02*
X6045080D01*
Y458840D01*
X6047880Y464440D01*
X6051610Y467940D01*
X6059080Y469340D01*
X6066550Y467940D01*
X6071210Y463740D01*
X6074010Y458840D01*
Y441340D01*
G01Y458840D02*
X6101080Y469340D01*
G01Y501340D02*
X6100150Y506240D01*
X6097350Y511840D01*
X6092680Y515340D01*
X6086150Y516740D01*
X6079610Y515340D01*
X6074010Y511140D01*
X6071210Y504840D01*
Y497840D01*
X6069350Y493640D01*
X6064680Y490140D01*
X6058150Y488740D01*
X6051610Y490840D01*
X6046950Y495740D01*
X6045080Y501340D01*
X6046950Y506940D01*
X6051610Y511840D01*
X6058150Y513940D01*
X6064680Y512540D01*
X6069350Y509040D01*
X6071210Y504840D01*
Y497840D01*
X6074010Y491540D01*
X6079610Y487340D01*
X6086150Y485940D01*
X6092680Y487340D01*
X6097350Y490840D01*
X6100150Y496440D01*
X6101080Y501340D01*
G01X6228080Y421020D02*
X6172080D01*
Y438520D01*
X6174880Y444120D01*
X6178610Y447620D01*
X6186080Y449020D01*
X6193550Y447620D01*
X6198210Y443420D01*
X6201010Y438520D01*
Y421020D01*
G01Y438520D02*
X6228080Y449020D01*
G01X6221550Y469120D02*
X6226210Y474020D01*
X6228080Y479620D01*
X6226210Y485220D01*
X6220610Y490120D01*
X6212210Y493620D01*
X6203810Y495020D01*
X6193550D01*
X6185150Y493620D01*
X6177680Y490120D01*
X6173950Y485920D01*
X6172080Y481020D01*
X6173950Y475420D01*
X6177680Y471220D01*
X6183280Y468420D01*
X6190750Y467020D01*
X6197280Y468420D01*
X6203810Y471920D01*
X6207550Y476120D01*
X6208480Y481020D01*
X6206610Y486620D01*
X6201950Y490820D01*
X6193550Y495020D01*
G01X6545580Y577100D02*
X6489580D01*
Y591100D01*
X6492380Y596700D01*
X6496110Y600900D01*
X6501710Y604400D01*
X6508250Y607200D01*
X6517580Y607900D01*
X6526910Y607200D01*
X6533450Y604400D01*
X6539050Y600900D01*
X6542780Y596700D01*
X6545580Y591100D01*
Y577100D01*
G01Y638500D02*
X6544650Y643400D01*
X6541850Y649000D01*
X6537180Y652500D01*
X6530650Y653900D01*
X6524110Y652500D01*
X6518510Y648300D01*
X6515710Y642000D01*
Y635000D01*
X6513850Y630800D01*
X6509180Y627300D01*
X6502650Y625900D01*
X6496110Y628000D01*
X6491450Y632900D01*
X6489580Y638500D01*
X6491450Y644100D01*
X6496110Y649000D01*
X6502650Y651100D01*
X6509180Y649700D01*
X6513850Y646200D01*
X6515710Y642000D01*
Y635000D01*
X6518510Y628700D01*
X6524110Y624500D01*
X6530650Y623100D01*
X6537180Y624500D01*
X6541850Y628000D01*
X6544650Y633600D01*
X6545580Y638500D01*
G01X6383020Y640080D02*
Y607060D01*
G01X6377940Y624840D02*
X6344920D01*
G01X6405880D02*
X6433820D01*
G01X6403340Y609600D02*
Y640080D01*
X6388100Y624840D01*
X6403340Y609600D01*
G01X6482920Y1572790D02*
X6478720Y1575590D01*
X6473820Y1577460D01*
X6468220D01*
X6461920Y1574660D01*
X6457020Y1569990D01*
X6453520Y1564390D01*
X6450720Y1555060D01*
X6450020Y1546660D01*
X6451420Y1538260D01*
X6453520Y1532660D01*
X6457720Y1527060D01*
X6462620Y1523330D01*
X6467520Y1521460D01*
X6472420D01*
X6477320Y1523330D01*
X6481520Y1526130D01*
X6485020Y1529860D01*
G01X6521920Y1521460D02*
Y1577460D01*
X6496020Y1537330D01*
X6531020D01*
G01X6558120Y1521460D02*
X6559520Y1533590D01*
X6561620Y1543860D01*
X6564420Y1553190D01*
X6567920Y1563460D01*
X6573520Y1577460D01*
X6545520D01*
G01X6498160Y1323870D02*
X6493960Y1326670D01*
X6489060Y1328540D01*
X6483460D01*
X6477160Y1325740D01*
X6472260Y1321070D01*
X6468760Y1315470D01*
X6465960Y1306140D01*
X6465260Y1297740D01*
X6466660Y1289340D01*
X6468760Y1283740D01*
X6472960Y1278140D01*
X6477860Y1274410D01*
X6482760Y1272540D01*
X6487660D01*
X6492560Y1274410D01*
X6496760Y1277210D01*
X6500260Y1280940D01*
G01X6537160Y1272540D02*
Y1328540D01*
X6511260Y1288410D01*
X6546260D01*
G01X6574760Y1272540D02*
X6579660Y1273470D01*
X6585260Y1276270D01*
X6588760Y1280940D01*
X6590160Y1287470D01*
X6588760Y1294010D01*
X6584560Y1299610D01*
X6578260Y1302410D01*
X6571260D01*
X6567060Y1304270D01*
X6563560Y1308940D01*
X6562160Y1315470D01*
X6564260Y1322010D01*
X6569160Y1326670D01*
X6574760Y1328540D01*
X6580360Y1326670D01*
X6585260Y1322010D01*
X6587360Y1315470D01*
X6585960Y1308940D01*
X6582460Y1304270D01*
X6578260Y1302410D01*
X6571260D01*
X6564960Y1299610D01*
X6560760Y1294010D01*
X6559360Y1287470D01*
X6560760Y1280940D01*
X6564260Y1276270D01*
X6569860Y1273470D01*
X6574760Y1272540D01*
G01X6486540Y1760220D02*
Y1816220D01*
X6504040D01*
X6509640Y1813420D01*
X6513140Y1809690D01*
X6514540Y1802220D01*
X6513140Y1794750D01*
X6508940Y1790090D01*
X6504040Y1787290D01*
X6486540D01*
G01X6504040D02*
X6514540Y1760220D01*
G01X6533240Y1806890D02*
X6537440Y1812490D01*
X6542340Y1815290D01*
X6547940Y1816220D01*
X6554940Y1814350D01*
X6559840Y1809690D01*
X6561240Y1804090D01*
X6560540Y1798490D01*
X6557740Y1793820D01*
X6543740Y1784490D01*
X6537440Y1777950D01*
X6533240Y1768620D01*
X6531840Y1760220D01*
X6561240D01*
G01X6523240Y1963420D02*
Y2019420D01*
X6537240D01*
X6542840Y2016620D01*
X6547040Y2012890D01*
X6550540Y2007290D01*
X6553340Y2000750D01*
X6554040Y1991420D01*
X6553340Y1982090D01*
X6550540Y1975550D01*
X6547040Y1969950D01*
X6542840Y1966220D01*
X6537240Y1963420D01*
X6523240D01*
G01X6593040D02*
Y2019420D01*
X6567140Y1979290D01*
X6602140D01*
G01X6395720Y2507040D02*
X6339720D01*
Y2521040D01*
X6342520Y2526640D01*
X6346250Y2530840D01*
X6351850Y2534340D01*
X6358390Y2537140D01*
X6367720Y2537840D01*
X6377050Y2537140D01*
X6383590Y2534340D01*
X6389190Y2530840D01*
X6392920Y2526640D01*
X6395720Y2521040D01*
Y2507040D01*
G01X6387320Y2553040D02*
X6391990Y2557240D01*
X6394790Y2562140D01*
X6395720Y2568440D01*
X6393850Y2574740D01*
X6390120Y2579640D01*
X6383590Y2583140D01*
X6376120Y2583840D01*
X6368650Y2582440D01*
X6363990Y2578940D01*
X6360250Y2574040D01*
X6359320Y2569140D01*
X6360250Y2564240D01*
X6363990Y2557940D01*
X6339720Y2560040D01*
Y2578940D01*
G01X6532880Y2539540D02*
Y2572560D01*
G01X6537960Y2554780D02*
X6570980D01*
G01X6510020D02*
X6482080D01*
G01X6512560Y2570020D02*
Y2539540D01*
X6527800Y2554780D01*
X6512560Y2570020D01*
G01X6449060Y3142860D02*
X6393060D01*
Y3160360D01*
X6395860Y3165960D01*
X6399590Y3169460D01*
X6407060Y3170860D01*
X6414530Y3169460D01*
X6419190Y3165260D01*
X6421990Y3160360D01*
Y3142860D01*
G01Y3160360D02*
X6449060Y3170860D01*
G01X6437860Y3187460D02*
X6444390Y3191660D01*
X6448130Y3197260D01*
X6449060Y3203560D01*
X6448130Y3209160D01*
X6443460Y3214760D01*
X6437860Y3218260D01*
X6432260Y3218960D01*
X6425730Y3217560D01*
X6421060Y3212660D01*
X6419190Y3207760D01*
Y3201460D01*
G01Y3207760D02*
X6416390Y3211960D01*
X6411730Y3215460D01*
X6406130Y3216860D01*
X6400530Y3215460D01*
X6395860Y3211960D01*
X6393060Y3205660D01*
X6393990Y3199360D01*
X6397730Y3193060D01*
G01X6440660Y3233460D02*
X6445330Y3237660D01*
X6448130Y3242560D01*
X6449060Y3248860D01*
X6447190Y3255160D01*
X6443460Y3260060D01*
X6436930Y3263560D01*
X6429460Y3264260D01*
X6421990Y3262860D01*
X6417330Y3259360D01*
X6413590Y3254460D01*
X6412660Y3249560D01*
X6413590Y3244660D01*
X6417330Y3238360D01*
X6393060Y3240460D01*
Y3259360D01*
G01X6357620Y3147940D02*
X6301620D01*
Y3165440D01*
X6304420Y3171040D01*
X6308150Y3174540D01*
X6315620Y3175940D01*
X6323090Y3174540D01*
X6327750Y3170340D01*
X6330550Y3165440D01*
Y3147940D01*
G01Y3165440D02*
X6357620Y3175940D01*
G01X6346420Y3192540D02*
X6352950Y3196740D01*
X6356690Y3202340D01*
X6357620Y3208640D01*
X6356690Y3214240D01*
X6352020Y3219840D01*
X6346420Y3223340D01*
X6340820Y3224040D01*
X6334290Y3222640D01*
X6329620Y3217740D01*
X6327750Y3212840D01*
Y3206540D01*
G01Y3212840D02*
X6324950Y3217040D01*
X6320290Y3220540D01*
X6314690Y3221940D01*
X6309090Y3220540D01*
X6304420Y3217040D01*
X6301620Y3210740D01*
X6302550Y3204440D01*
X6306290Y3198140D01*
G01X6334290Y3240640D02*
X6327750Y3245540D01*
X6324020Y3249740D01*
X6322150Y3255340D01*
X6324020Y3260240D01*
X6327750Y3263740D01*
X6333350Y3266540D01*
X6339890Y3267240D01*
X6345490Y3266540D01*
X6351090Y3263740D01*
X6355750Y3259540D01*
X6357620Y3254640D01*
X6355750Y3249040D01*
X6350150Y3244140D01*
X6341750Y3241340D01*
X6332420Y3240640D01*
X6320290Y3242040D01*
X6313750Y3244140D01*
X6307220Y3247640D01*
X6302550Y3252540D01*
X6301620Y3257440D01*
X6303490Y3262340D01*
X6308150Y3265840D01*
G01X6542420Y3095800D02*
Y3151800D01*
X6559920D01*
X6565520Y3149000D01*
X6569020Y3145270D01*
X6570420Y3137800D01*
X6569020Y3130330D01*
X6564820Y3125670D01*
X6559920Y3122870D01*
X6542420D01*
G01X6559920D02*
X6570420Y3095800D01*
G01X6587020Y3107000D02*
X6591220Y3100470D01*
X6596820Y3096730D01*
X6603120Y3095800D01*
X6608720Y3096730D01*
X6614320Y3101400D01*
X6617820Y3107000D01*
X6618520Y3112600D01*
X6617120Y3119130D01*
X6612220Y3123800D01*
X6607320Y3125670D01*
X6601020D01*
G01X6607320D02*
X6611520Y3128470D01*
X6615020Y3133130D01*
X6616420Y3138730D01*
X6615020Y3144330D01*
X6611520Y3149000D01*
X6605220Y3151800D01*
X6598920Y3150870D01*
X6592620Y3147130D01*
G01X6633020Y3107000D02*
X6637220Y3100470D01*
X6642820Y3096730D01*
X6649120Y3095800D01*
X6654720Y3096730D01*
X6660320Y3101400D01*
X6663820Y3107000D01*
X6664520Y3112600D01*
X6663120Y3119130D01*
X6658220Y3123800D01*
X6653320Y3125670D01*
X6647020D01*
G01X6653320D02*
X6657520Y3128470D01*
X6661020Y3133130D01*
X6662420Y3138730D01*
X6661020Y3144330D01*
X6657520Y3149000D01*
X6651220Y3151800D01*
X6644920Y3150870D01*
X6638620Y3147130D01*
G01X6255820Y4206770D02*
X6251620Y4209570D01*
X6246720Y4211440D01*
X6241120D01*
X6234820Y4208640D01*
X6229920Y4203970D01*
X6226420Y4198370D01*
X6223620Y4189040D01*
X6222920Y4180640D01*
X6224320Y4172240D01*
X6226420Y4166640D01*
X6230620Y4161040D01*
X6235520Y4157310D01*
X6240420Y4155440D01*
X6245320D01*
X6250220Y4157310D01*
X6254420Y4160110D01*
X6257920Y4163840D01*
G01X6271020Y4166640D02*
X6275220Y4160110D01*
X6280820Y4156370D01*
X6287120Y4155440D01*
X6292720Y4156370D01*
X6298320Y4161040D01*
X6301820Y4166640D01*
X6302520Y4172240D01*
X6301120Y4178770D01*
X6296220Y4183440D01*
X6291320Y4185310D01*
X6285020D01*
G01X6291320D02*
X6295520Y4188110D01*
X6299020Y4192770D01*
X6300420Y4198370D01*
X6299020Y4203970D01*
X6295520Y4208640D01*
X6289220Y4211440D01*
X6282920Y4210510D01*
X6276620Y4206770D01*
G01X6320520Y4161970D02*
X6325420Y4157310D01*
X6331020Y4155440D01*
X6336620Y4157310D01*
X6341520Y4162910D01*
X6345020Y4171310D01*
X6346420Y4179710D01*
Y4189970D01*
X6345020Y4198370D01*
X6341520Y4205840D01*
X6337320Y4209570D01*
X6332420Y4211440D01*
X6326820Y4209570D01*
X6322620Y4205840D01*
X6319820Y4200240D01*
X6318420Y4192770D01*
X6319820Y4186240D01*
X6323320Y4179710D01*
X6327520Y4175970D01*
X6332420Y4175040D01*
X6338020Y4176910D01*
X6342220Y4181570D01*
X6346420Y4189970D01*
G01X6433700Y4920500D02*
X6473830D01*
X6482230Y4923300D01*
X6487830Y4928900D01*
X6489700Y4935900D01*
X6487830Y4942900D01*
X6482230Y4948500D01*
X6473830Y4951300D01*
X6433700D01*
G01X6489700Y4981900D02*
X6488770Y4986800D01*
X6485970Y4992400D01*
X6481300Y4995900D01*
X6474770Y4997300D01*
X6468230Y4995900D01*
X6462630Y4991700D01*
X6459830Y4985400D01*
Y4978400D01*
X6457970Y4974200D01*
X6453300Y4970700D01*
X6446770Y4969300D01*
X6440230Y4971400D01*
X6435570Y4976300D01*
X6433700Y4981900D01*
X6435570Y4987500D01*
X6440230Y4992400D01*
X6446770Y4994500D01*
X6453300Y4993100D01*
X6457970Y4989600D01*
X6459830Y4985400D01*
Y4978400D01*
X6462630Y4972100D01*
X6468230Y4967900D01*
X6474770Y4966500D01*
X6481300Y4967900D01*
X6485970Y4971400D01*
X6488770Y4977000D01*
X6489700Y4981900D01*
G01X6826200Y330200D02*
Y386200D01*
G01X6855600D02*
Y330200D01*
G01Y358200D02*
X6826200D01*
G01X6873600Y376870D02*
X6877800Y382470D01*
X6882700Y385270D01*
X6888300Y386200D01*
X6895300Y384330D01*
X6900200Y379670D01*
X6901600Y374070D01*
X6900900Y368470D01*
X6898100Y363800D01*
X6884100Y354470D01*
X6877800Y347930D01*
X6873600Y338600D01*
X6872200Y330200D01*
X6901600D01*
G01X6784340Y1315720D02*
Y1341120D01*
G01Y1295400D02*
Y1267460D01*
G01X6799460Y1313430D02*
X6768980D01*
G01X6799580Y1297940D02*
X6769100D01*
G01X6794500Y1833880D02*
X6774180Y1813560D01*
X6794500Y1793240D01*
X6774180Y1772920D01*
X6791960Y1755140D01*
X6774180Y1737360D01*
G01X6652340Y2185440D02*
Y2241440D01*
X6678940D01*
G01X6669140Y2214370D02*
X6652340D01*
G01X6698340Y2232110D02*
X6702540Y2237710D01*
X6707440Y2240510D01*
X6713040Y2241440D01*
X6720040Y2239570D01*
X6724940Y2234910D01*
X6726340Y2229310D01*
X6725640Y2223710D01*
X6722840Y2219040D01*
X6708840Y2209710D01*
X6702540Y2203170D01*
X6698340Y2193840D01*
X6696940Y2185440D01*
X6726340D01*
G01X6987540Y2256560D02*
X6964680Y2233700D01*
X6985000Y2213380D01*
X6962140Y2190520D01*
X6985000Y2167660D01*
X6959600Y2142260D01*
G01X7085340Y2630420D02*
X7075340D01*
Y2560420D01*
X7085340D01*
Y2630420D01*
X7245340D01*
Y2560420D01*
X7085340D01*
G01Y2732020D02*
X7075340D01*
Y2662020D01*
X7085340D01*
Y2732020D01*
X7245340D01*
Y2662020D01*
X7085340D01*
G01X6638940Y2481580D02*
Y2537580D01*
X6656440D01*
X6662040Y2534780D01*
X6665540Y2531050D01*
X6666940Y2523580D01*
X6665540Y2516110D01*
X6661340Y2511450D01*
X6656440Y2508650D01*
X6638940D01*
G01X6656440D02*
X6666940Y2481580D01*
G01X6685640Y2528250D02*
X6689840Y2533850D01*
X6694740Y2536650D01*
X6700340Y2537580D01*
X6707340Y2535710D01*
X6712240Y2531050D01*
X6713640Y2525450D01*
X6712940Y2519850D01*
X6710140Y2515180D01*
X6696140Y2505850D01*
X6689840Y2499310D01*
X6685640Y2489980D01*
X6684240Y2481580D01*
X6713640D01*
G01X6729540Y2489980D02*
X6733740Y2485310D01*
X6738640Y2482510D01*
X6744940Y2481580D01*
X6751240Y2483450D01*
X6756140Y2487180D01*
X6759640Y2493710D01*
X6760340Y2501180D01*
X6758940Y2508650D01*
X6755440Y2513310D01*
X6750540Y2517050D01*
X6745640Y2517980D01*
X6740740Y2517050D01*
X6734440Y2513310D01*
X6736540Y2537580D01*
X6755440D01*
G01X6832600Y2588260D02*
X6852920Y2608580D01*
X6832600Y2628900D01*
X6852920Y2649220D01*
X6835140Y2667000D01*
X6852920Y2684780D01*
G01X6830060Y2804160D02*
X6850380Y2824480D01*
X6830060Y2844800D01*
X6850380Y2865120D01*
X6832600Y2882900D01*
X6850380Y2900680D01*
G01X6775020Y3382770D02*
X6770820Y3385570D01*
X6765920Y3387440D01*
X6760320D01*
X6754020Y3384640D01*
X6749120Y3379970D01*
X6745620Y3374370D01*
X6742820Y3365040D01*
X6742120Y3356640D01*
X6743520Y3348240D01*
X6745620Y3342640D01*
X6749820Y3337040D01*
X6754720Y3333310D01*
X6759620Y3331440D01*
X6764520D01*
X6769420Y3333310D01*
X6773620Y3336110D01*
X6777120Y3339840D01*
G01X6792320Y3354770D02*
X6797220Y3361310D01*
X6801420Y3365040D01*
X6807020Y3366910D01*
X6811920Y3365040D01*
X6815420Y3361310D01*
X6818220Y3355710D01*
X6818920Y3349170D01*
X6818220Y3343570D01*
X6815420Y3337970D01*
X6811220Y3333310D01*
X6806320Y3331440D01*
X6800720Y3333310D01*
X6795820Y3338910D01*
X6793020Y3347310D01*
X6792320Y3356640D01*
X6793720Y3368770D01*
X6795820Y3375310D01*
X6799320Y3381840D01*
X6804220Y3386510D01*
X6809120Y3387440D01*
X6814020Y3385570D01*
X6817520Y3380910D01*
G01X6830060Y2984040D02*
X6850380Y3004360D01*
X6830060Y3024680D01*
X6850380Y3045000D01*
X6832600Y3062780D01*
X6850380Y3080560D01*
G01X6583760Y2913380D02*
Y2969380D01*
X6610360D01*
G01X6600560Y2942310D02*
X6583760D01*
G01X6643060Y2913380D02*
Y2969380D01*
X6634660Y2958180D01*
G01Y2913380D02*
X6651460D01*
G01X6941820Y3340160D02*
X6885820D01*
Y3354160D01*
X6888620Y3359760D01*
X6892350Y3363960D01*
X6897950Y3367460D01*
X6904490Y3370260D01*
X6913820Y3370960D01*
X6923150Y3370260D01*
X6929690Y3367460D01*
X6935290Y3363960D01*
X6939020Y3359760D01*
X6941820Y3354160D01*
Y3340160D01*
G01X6930620Y3386160D02*
X6937150Y3390360D01*
X6940890Y3395960D01*
X6941820Y3402260D01*
X6940890Y3407860D01*
X6936220Y3413460D01*
X6930620Y3416960D01*
X6925020Y3417660D01*
X6918490Y3416260D01*
X6913820Y3411360D01*
X6911950Y3406460D01*
Y3400160D01*
G01Y3406460D02*
X6909150Y3410660D01*
X6904490Y3414160D01*
X6898890Y3415560D01*
X6893290Y3414160D01*
X6888620Y3410660D01*
X6885820Y3404360D01*
X6886750Y3398060D01*
X6890490Y3391760D01*
G01X6727840Y3430500D02*
Y3486500D01*
X6745340D01*
X6750940Y3483700D01*
X6754440Y3479970D01*
X6755840Y3472500D01*
X6754440Y3465030D01*
X6750240Y3460370D01*
X6745340Y3457570D01*
X6727840D01*
G01X6745340D02*
X6755840Y3430500D01*
G01X6787840D02*
Y3486500D01*
X6779440Y3475300D01*
G01Y3430500D02*
X6796240D01*
G01X6833840D02*
X6838740Y3431430D01*
X6844340Y3434230D01*
X6847840Y3438900D01*
X6849240Y3445430D01*
X6847840Y3451970D01*
X6843640Y3457570D01*
X6837340Y3460370D01*
X6830340D01*
X6826140Y3462230D01*
X6822640Y3466900D01*
X6821240Y3473430D01*
X6823340Y3479970D01*
X6828240Y3484630D01*
X6833840Y3486500D01*
X6839440Y3484630D01*
X6844340Y3479970D01*
X6846440Y3473430D01*
X6845040Y3466900D01*
X6841540Y3462230D01*
X6837340Y3460370D01*
X6830340D01*
X6824040Y3457570D01*
X6819840Y3451970D01*
X6818440Y3445430D01*
X6819840Y3438900D01*
X6823340Y3434230D01*
X6828940Y3431430D01*
X6833840Y3430500D01*
G01X6952860Y3657600D02*
Y3713600D01*
X6970360D01*
X6975960Y3710800D01*
X6979460Y3707070D01*
X6980860Y3699600D01*
X6979460Y3692130D01*
X6975260Y3687470D01*
X6970360Y3684670D01*
X6952860D01*
G01X6970360D02*
X6980860Y3657600D01*
G01X7021260D02*
Y3713600D01*
X6995360Y3673470D01*
X7030360D01*
G01X7058860Y3713600D02*
X7053260Y3711730D01*
X7049060Y3707070D01*
X7046260Y3701470D01*
X7044160Y3694000D01*
X7043460Y3685600D01*
X7044160Y3677200D01*
X7046260Y3669730D01*
X7049060Y3664130D01*
X7053260Y3659470D01*
X7058860Y3657600D01*
X7064460Y3659470D01*
X7068660Y3664130D01*
X7071460Y3669730D01*
X7073560Y3677200D01*
X7074260Y3685600D01*
X7073560Y3694000D01*
X7071460Y3701470D01*
X7068660Y3707070D01*
X7064460Y3711730D01*
X7058860Y3713600D01*
G01X6955400Y3947160D02*
Y4003160D01*
X6972900D01*
X6978500Y4000360D01*
X6982000Y3996630D01*
X6983400Y3989160D01*
X6982000Y3981690D01*
X6977800Y3977030D01*
X6972900Y3974230D01*
X6955400D01*
G01X6972900D02*
X6983400Y3947160D01*
G01X7023800D02*
Y4003160D01*
X6997900Y3963030D01*
X7032900D01*
G01X7061400Y3947160D02*
Y4003160D01*
X7053000Y3991960D01*
G01Y3947160D02*
X7069800D01*
G01X6721360Y3609220D02*
Y3569090D01*
X6724160Y3560690D01*
X6729760Y3555090D01*
X6736760Y3553220D01*
X6743760Y3555090D01*
X6749360Y3560690D01*
X6752160Y3569090D01*
Y3609220D01*
G01X6767360Y3561620D02*
X6771560Y3556950D01*
X6776460Y3554150D01*
X6782760Y3553220D01*
X6789060Y3555090D01*
X6793960Y3558820D01*
X6797460Y3565350D01*
X6798160Y3572820D01*
X6796760Y3580290D01*
X6793260Y3584950D01*
X6788360Y3588690D01*
X6783460Y3589620D01*
X6778560Y3588690D01*
X6772260Y3584950D01*
X6774360Y3609220D01*
X6793260D01*
G01X6928080Y4220860D02*
X6872080D01*
Y4238360D01*
X6874880Y4243960D01*
X6878610Y4247460D01*
X6886080Y4248860D01*
X6893550Y4247460D01*
X6898210Y4243260D01*
X6901010Y4238360D01*
Y4220860D01*
G01Y4238360D02*
X6928080Y4248860D01*
G01Y4280860D02*
X6872080D01*
X6883280Y4272460D01*
G01X6928080D02*
Y4289260D01*
G01Y4335260D02*
X6872080D01*
X6912210Y4309360D01*
Y4344360D01*
G01X6973270Y4250260D02*
X6970470Y4246060D01*
X6968600Y4241160D01*
Y4235560D01*
X6971400Y4229260D01*
X6976070Y4224360D01*
X6981670Y4220860D01*
X6991000Y4218060D01*
X6999400Y4217360D01*
X7007800Y4218760D01*
X7013400Y4220860D01*
X7019000Y4225060D01*
X7022730Y4229960D01*
X7024600Y4234860D01*
Y4239760D01*
X7022730Y4244660D01*
X7019930Y4248860D01*
X7016200Y4252360D01*
G01X7013400Y4265460D02*
X7019930Y4269660D01*
X7023670Y4275260D01*
X7024600Y4281560D01*
X7023670Y4287160D01*
X7019000Y4292760D01*
X7013400Y4296260D01*
X7007800Y4296960D01*
X7001270Y4295560D01*
X6996600Y4290660D01*
X6994730Y4285760D01*
Y4279460D01*
G01Y4285760D02*
X6991930Y4289960D01*
X6987270Y4293460D01*
X6981670Y4294860D01*
X6976070Y4293460D01*
X6971400Y4289960D01*
X6968600Y4283660D01*
X6969530Y4277360D01*
X6973270Y4271060D01*
G01X7024600Y4326860D02*
X7023670Y4331760D01*
X7020870Y4337360D01*
X7016200Y4340860D01*
X7009670Y4342260D01*
X7003130Y4340860D01*
X6997530Y4336660D01*
X6994730Y4330360D01*
Y4323360D01*
X6992870Y4319160D01*
X6988200Y4315660D01*
X6981670Y4314260D01*
X6975130Y4316360D01*
X6970470Y4321260D01*
X6968600Y4326860D01*
X6970470Y4332460D01*
X6975130Y4337360D01*
X6981670Y4339460D01*
X6988200Y4338060D01*
X6992870Y4334560D01*
X6994730Y4330360D01*
Y4323360D01*
X6997530Y4317060D01*
X7003130Y4312860D01*
X7009670Y4311460D01*
X7016200Y4312860D01*
X7020870Y4316360D01*
X7023670Y4321960D01*
X7024600Y4326860D01*
G01X7074870Y4255340D02*
X7072070Y4251140D01*
X7070200Y4246240D01*
Y4240640D01*
X7073000Y4234340D01*
X7077670Y4229440D01*
X7083270Y4225940D01*
X7092600Y4223140D01*
X7101000Y4222440D01*
X7109400Y4223840D01*
X7115000Y4225940D01*
X7120600Y4230140D01*
X7124330Y4235040D01*
X7126200Y4239940D01*
Y4244840D01*
X7124330Y4249740D01*
X7121530Y4253940D01*
X7117800Y4257440D01*
G01X7115000Y4270540D02*
X7121530Y4274740D01*
X7125270Y4280340D01*
X7126200Y4286640D01*
X7125270Y4292240D01*
X7120600Y4297840D01*
X7115000Y4301340D01*
X7109400Y4302040D01*
X7102870Y4300640D01*
X7098200Y4295740D01*
X7096330Y4290840D01*
Y4284540D01*
G01Y4290840D02*
X7093530Y4295040D01*
X7088870Y4298540D01*
X7083270Y4299940D01*
X7077670Y4298540D01*
X7073000Y4295040D01*
X7070200Y4288740D01*
X7071130Y4282440D01*
X7074870Y4276140D01*
G01X7126200Y4330540D02*
X7114070Y4331940D01*
X7103800Y4334040D01*
X7094470Y4336840D01*
X7084200Y4340340D01*
X7070200Y4345940D01*
Y4317940D01*
G01X6657140Y4194070D02*
X6652940Y4196870D01*
X6648040Y4198740D01*
X6642440D01*
X6636140Y4195940D01*
X6631240Y4191270D01*
X6627740Y4185670D01*
X6624940Y4176340D01*
X6624240Y4167940D01*
X6625640Y4159540D01*
X6627740Y4153940D01*
X6631940Y4148340D01*
X6636840Y4144610D01*
X6641740Y4142740D01*
X6646640D01*
X6651540Y4144610D01*
X6655740Y4147410D01*
X6659240Y4151140D01*
G01X6696140Y4142740D02*
Y4198740D01*
X6670240Y4158610D01*
X6705240D01*
G01X6733740Y4198740D02*
X6728140Y4196870D01*
X6723940Y4192210D01*
X6721140Y4186610D01*
X6719040Y4179140D01*
X6718340Y4170740D01*
X6719040Y4162340D01*
X6721140Y4154870D01*
X6723940Y4149270D01*
X6728140Y4144610D01*
X6733740Y4142740D01*
X6739340Y4144610D01*
X6743540Y4149270D01*
X6746340Y4154870D01*
X6748440Y4162340D01*
X6749140Y4170740D01*
X6748440Y4179140D01*
X6746340Y4186610D01*
X6743540Y4192210D01*
X6739340Y4196870D01*
X6733740Y4198740D01*
G01X6745620Y4848860D02*
Y4904860D01*
X6763120D01*
X6768720Y4902060D01*
X6772220Y4898330D01*
X6773620Y4890860D01*
X6772220Y4883390D01*
X6768020Y4878730D01*
X6763120Y4875930D01*
X6745620D01*
G01X6763120D02*
X6773620Y4848860D01*
G01X6805620D02*
Y4904860D01*
X6797220Y4893660D01*
G01Y4848860D02*
X6814020D01*
G01X6850220D02*
X6851620Y4860990D01*
X6853720Y4871260D01*
X6856520Y4880590D01*
X6860020Y4890860D01*
X6865620Y4904860D01*
X6837620D01*
G01X6748120Y4645980D02*
Y4701980D01*
X6765620D01*
X6771220Y4699180D01*
X6774720Y4695450D01*
X6776120Y4687980D01*
X6774720Y4680510D01*
X6770520Y4675850D01*
X6765620Y4673050D01*
X6748120D01*
G01X6765620D02*
X6776120Y4645980D01*
G01X6792720Y4657180D02*
X6796920Y4650650D01*
X6802520Y4646910D01*
X6808820Y4645980D01*
X6814420Y4646910D01*
X6820020Y4651580D01*
X6823520Y4657180D01*
X6824220Y4662780D01*
X6822820Y4669310D01*
X6817920Y4673980D01*
X6813020Y4675850D01*
X6806720D01*
G01X6813020D02*
X6817220Y4678650D01*
X6820720Y4683310D01*
X6822120Y4688910D01*
X6820720Y4694510D01*
X6817220Y4699180D01*
X6810920Y4701980D01*
X6804620Y4701050D01*
X6798320Y4697310D01*
G01X6842220Y4652510D02*
X6847120Y4647850D01*
X6852720Y4645980D01*
X6858320Y4647850D01*
X6863220Y4653450D01*
X6866720Y4661850D01*
X6868120Y4670250D01*
Y4680510D01*
X6866720Y4688910D01*
X6863220Y4696380D01*
X6859020Y4700110D01*
X6854120Y4701980D01*
X6848520Y4700110D01*
X6844320Y4696380D01*
X6841520Y4690780D01*
X6840120Y4683310D01*
X6841520Y4676780D01*
X6845020Y4670250D01*
X6849220Y4666510D01*
X6854120Y4665580D01*
X6859720Y4667450D01*
X6863920Y4672110D01*
X6868120Y4680510D01*
G01X6785180Y4796050D02*
X6780980Y4798850D01*
X6776080Y4800720D01*
X6770480D01*
X6764180Y4797920D01*
X6759280Y4793250D01*
X6755780Y4787650D01*
X6752980Y4778320D01*
X6752280Y4769920D01*
X6753680Y4761520D01*
X6755780Y4755920D01*
X6759980Y4750320D01*
X6764880Y4746590D01*
X6769780Y4744720D01*
X6774680D01*
X6779580Y4746590D01*
X6783780Y4749390D01*
X6787280Y4753120D01*
G01X6814380Y4744720D02*
X6815780Y4756850D01*
X6817880Y4767120D01*
X6820680Y4776450D01*
X6824180Y4786720D01*
X6829780Y4800720D01*
X6801780D01*
G01X7674180Y987550D02*
X7669980Y990350D01*
X7665080Y992220D01*
X7659480D01*
X7653180Y989420D01*
X7648280Y984750D01*
X7644780Y979150D01*
X7641980Y969820D01*
X7641280Y961420D01*
X7642680Y953020D01*
X7644780Y947420D01*
X7648980Y941820D01*
X7653880Y938090D01*
X7658780Y936220D01*
X7663680D01*
X7668580Y938090D01*
X7672780Y940890D01*
X7676280Y944620D01*
G01X7688680Y936220D02*
Y992220D01*
X7720880Y936220D01*
Y992220D01*
G01X7750780Y936220D02*
Y992220D01*
X7742380Y981020D01*
G01Y936220D02*
X7759180D01*
G01X7745680Y2087270D02*
X7751280Y2082600D01*
X7757580Y2079800D01*
X7763180D01*
X7768780Y2082600D01*
X7772980Y2087270D01*
X7775080Y2093800D01*
X7773680Y2100330D01*
X7770180Y2105930D01*
X7763880Y2109670D01*
X7755480Y2111530D01*
X7750580Y2115270D01*
X7748480Y2121800D01*
X7749880Y2128330D01*
X7753380Y2133000D01*
X7758280Y2135800D01*
X7763180D01*
X7768080Y2133930D01*
X7772280Y2129270D01*
G01X7785380Y2135800D02*
X7795180Y2079800D01*
X7806380Y2135800D01*
X7817580Y2079800D01*
X7827380Y2135800D01*
G01X7860780Y2079800D02*
Y2135800D01*
X7834880Y2095670D01*
X7869880D01*
G01X7297940Y2559860D02*
Y2615860D01*
X7311940D01*
X7317540Y2613060D01*
X7321740Y2609330D01*
X7325240Y2603730D01*
X7328040Y2597190D01*
X7328740Y2587860D01*
X7328040Y2578530D01*
X7325240Y2571990D01*
X7321740Y2566390D01*
X7317540Y2562660D01*
X7311940Y2559860D01*
X7297940D01*
G01X7346040Y2583190D02*
X7350940Y2589730D01*
X7355140Y2593460D01*
X7360740Y2595330D01*
X7365640Y2593460D01*
X7369140Y2589730D01*
X7371940Y2584130D01*
X7372640Y2577590D01*
X7371940Y2571990D01*
X7369140Y2566390D01*
X7364940Y2561730D01*
X7360040Y2559860D01*
X7354440Y2561730D01*
X7349540Y2567330D01*
X7346740Y2575730D01*
X7346040Y2585060D01*
X7347440Y2597190D01*
X7349540Y2603730D01*
X7353040Y2610260D01*
X7357940Y2614930D01*
X7362840Y2615860D01*
X7367740Y2613990D01*
X7371240Y2609330D01*
G01X7297940Y2704640D02*
Y2760640D01*
X7311940D01*
X7317540Y2757840D01*
X7321740Y2754110D01*
X7325240Y2748510D01*
X7328040Y2741970D01*
X7328740Y2732640D01*
X7328040Y2723310D01*
X7325240Y2716770D01*
X7321740Y2711170D01*
X7317540Y2707440D01*
X7311940Y2704640D01*
X7297940D01*
G01X7357940D02*
X7359340Y2716770D01*
X7361440Y2727040D01*
X7364240Y2736370D01*
X7367740Y2746640D01*
X7373340Y2760640D01*
X7345340D01*
G01X7393940Y3344560D02*
X7337940D01*
Y3362060D01*
X7340740Y3367660D01*
X7344470Y3371160D01*
X7351940Y3372560D01*
X7359410Y3371160D01*
X7364070Y3366960D01*
X7366870Y3362060D01*
Y3344560D01*
G01Y3362060D02*
X7393940Y3372560D01*
G01Y3404560D02*
X7337940D01*
X7349140Y3396160D01*
G01X7393940D02*
Y3412960D01*
G01X7238470Y2985340D02*
X7235670Y2981140D01*
X7233800Y2976240D01*
Y2970640D01*
X7236600Y2964340D01*
X7241270Y2959440D01*
X7246870Y2955940D01*
X7256200Y2953140D01*
X7264600Y2952440D01*
X7273000Y2953840D01*
X7278600Y2955940D01*
X7284200Y2960140D01*
X7287930Y2965040D01*
X7289800Y2969940D01*
Y2974840D01*
X7287930Y2979740D01*
X7285130Y2983940D01*
X7281400Y2987440D01*
G01X7289800Y3024340D02*
X7233800D01*
X7273930Y2998440D01*
Y3033440D01*
G01X7266470Y3048640D02*
X7259930Y3053540D01*
X7256200Y3057740D01*
X7254330Y3063340D01*
X7256200Y3068240D01*
X7259930Y3071740D01*
X7265530Y3074540D01*
X7272070Y3075240D01*
X7277670Y3074540D01*
X7283270Y3071740D01*
X7287930Y3067540D01*
X7289800Y3062640D01*
X7287930Y3057040D01*
X7282330Y3052140D01*
X7273930Y3049340D01*
X7264600Y3048640D01*
X7252470Y3050040D01*
X7245930Y3052140D01*
X7239400Y3055640D01*
X7234730Y3060540D01*
X7233800Y3065440D01*
X7235670Y3070340D01*
X7240330Y3073840D01*
G01X7294360Y3919220D02*
Y3975220D01*
X7308360D01*
X7313960Y3972420D01*
X7318160Y3968690D01*
X7321660Y3963090D01*
X7324460Y3956550D01*
X7325160Y3947220D01*
X7324460Y3937890D01*
X7321660Y3931350D01*
X7318160Y3925750D01*
X7313960Y3922020D01*
X7308360Y3919220D01*
X7294360D01*
G01X7355760D02*
Y3975220D01*
X7347360Y3964020D01*
G01Y3919220D02*
X7364160D01*
G01X7289280Y3710940D02*
Y3766940D01*
X7303280D01*
X7308880Y3764140D01*
X7313080Y3760410D01*
X7316580Y3754810D01*
X7319380Y3748270D01*
X7320080Y3738940D01*
X7319380Y3729610D01*
X7316580Y3723070D01*
X7313080Y3717470D01*
X7308880Y3713740D01*
X7303280Y3710940D01*
X7289280D01*
G01X7337380Y3757610D02*
X7341580Y3763210D01*
X7346480Y3766010D01*
X7352080Y3766940D01*
X7359080Y3765070D01*
X7363980Y3760410D01*
X7365380Y3754810D01*
X7364680Y3749210D01*
X7361880Y3744540D01*
X7347880Y3735210D01*
X7341580Y3728670D01*
X7337380Y3719340D01*
X7335980Y3710940D01*
X7365380D01*
G01X7284720Y3416300D02*
X7264400Y3436620D01*
X7244080Y3416300D01*
X7223760Y3436620D01*
X7205980Y3418840D01*
X7188200Y3436620D01*
G01X7596400Y4425740D02*
X7590560Y4429680D01*
X7583740Y4432300D01*
X7575950D01*
X7567190Y4428360D01*
X7560380Y4421800D01*
X7555510Y4413930D01*
X7551610Y4400800D01*
X7550640Y4388990D01*
X7552590Y4377180D01*
X7555510Y4369310D01*
X7561350Y4361430D01*
X7568160Y4356180D01*
X7574980Y4353560D01*
X7581800D01*
X7588610Y4356180D01*
X7594450Y4360120D01*
X7599320Y4365370D01*
G01X7623010Y4353560D02*
Y4432300D01*
X7667790Y4353560D01*
Y4432300D01*
G01X7697320Y4419180D02*
X7703160Y4427050D01*
X7709980Y4430990D01*
X7717770Y4432300D01*
X7727500Y4429680D01*
X7734320Y4423110D01*
X7736270Y4415240D01*
X7735290Y4407360D01*
X7731400Y4400800D01*
X7711930Y4387680D01*
X7703160Y4378490D01*
X7697320Y4365370D01*
X7695370Y4353560D01*
X7736270D01*
G01X7522160Y5148580D02*
Y5204580D01*
G01X7551560D02*
Y5148580D01*
G01Y5176580D02*
X7522160D01*
G01X7591260Y5148580D02*
Y5204580D01*
X7565360Y5164450D01*
X7600360D01*
G01X7762500Y650240D02*
Y706240D01*
X7780700Y659570D01*
X7798900Y706240D01*
Y650240D01*
G01X7826700D02*
Y706240D01*
X7818300Y695040D01*
G01Y650240D02*
X7835100D01*
G01X7752340Y4775200D02*
Y4831200D01*
X7770540Y4784530D01*
X7788740Y4831200D01*
Y4775200D01*
G01X7803240Y4821870D02*
X7807440Y4827470D01*
X7812340Y4830270D01*
X7817940Y4831200D01*
X7824940Y4829330D01*
X7829840Y4824670D01*
X7831240Y4819070D01*
X7830540Y4813470D01*
X7827740Y4808800D01*
X7813740Y4799470D01*
X7807440Y4792930D01*
X7803240Y4783600D01*
X7801840Y4775200D01*
X7831240D01*
M02*
