G04 ================== begin FILE IDENTIFICATION RECORD ==================*
G04 Layout Name:  ASR6601CB_PA_LNA_MD_V11_240312.brd*
G04 Film Name:    SOLD_TOP*
G04 File Format:  Gerber RS274X*
G04 File Origin:  Cadence Allegro 16.6-2015-S088*
G04 Origin Date:  Thu Mar 14 11:44:11 2024*
G04 *
G04 Layer:  PIN/SOLDERMASK_TOP*
G04 Layer:  PACKAGE GEOMETRY/SOLDERMASK_TOP*
G04 Layer:  VIA CLASS/SOLDERMASK_TOP*
G04 Layer:  BOARD GEOMETRY/OUTLINE*
G04 *
G04 Offset:    (0.0000 0.0000)*
G04 Mirror:    No*
G04 Mode:      Positive*
G04 Rotation:  0*
G04 FullContactRelief:  No*
G04 UndefLineWidth:     0.0000*
G04 ================== end FILE IDENTIFICATION RECORD ====================*
%FSLAX25Y25*MOMM*%
%IR0*IPPOS*OFA0.00000B0.00000*MIA0B0*SFA1.00000B1.00000*%
%ADD36R,2.1X.7*%
%ADD29R,1.3X.8*%
%ADD27R,1.2X.9*%
%ADD21R,1.3X.7*%
%ADD15R,.8X1.2*%
%ADD32R,.8X1.3*%
%ADD26R,1.25X.5*%
%ADD33R,1.3X.9*%
%ADD12R,1.7X.65*%
%ADD10C,.75*%
%AMMACRO22*
21,1,.47,.5799,0.0,0.0,135.*%
%ADD22MACRO22*%
%ADD38O,1.5X1.1*%
%ADD14R,1.1X1.05*%
%ADD31R,.6X.3*%
%ADD30R,.3X.6*%
%ADD18R,4.3X4.3*%
%ADD34R,.7X.5*%
%ADD16R,.3X.55*%
%ADD20R,.7X.7*%
%ADD17R,.55X.3*%
%ADD35R,.65X.4*%
%AMMACRO24*
21,1,.55,.5,0.0,0.0,45.*%
%ADD24MACRO24*%
%ADD13R,.5X.55*%
%ADD25R,.25X.45*%
%ADD11R,.55X.5*%
%ADD19R,.75X.55*%
%ADD37R,.75X.85*%
%ADD23R,.5799X.47*%
%ADD28R,.47X.5799*%
%ADD39C,.04*%
G75*
%LPD*%
G75*
G36*
G01X3530000Y150000D02*
X150000D01*
Y2650000D01*
X3530000D01*
Y1654000D01*
X3460000D01*
Y2580000D01*
X220000D01*
Y220000D01*
X3460000D01*
Y1148540D01*
X3530000D01*
Y150000D01*
G37*
G54D10*
X0Y200000D03*
Y400000D03*
Y800000D03*
Y600000D03*
Y1000000D03*
Y1200000D03*
Y1400000D03*
Y1600000D03*
Y1800000D03*
Y2000000D03*
Y2200000D03*
Y2600000D03*
Y2400000D03*
X700000Y0D03*
Y2800000D03*
X900000Y0D03*
Y2800000D03*
X1100000Y0D03*
Y2800000D03*
X4000000Y1200000D03*
Y1600000D03*
G54D11*
X348300Y643080D03*
X448300D03*
X708040Y2243280D03*
X808040D03*
X706440Y2146760D03*
X806440D03*
X1494780Y762460D03*
X1394780D03*
X1494780Y861520D03*
X1394780D03*
X1478600Y1105360D03*
Y1191720D03*
X1468440Y1440640D03*
Y1747980D03*
X1482740Y2228040D03*
X1609080Y356060D03*
X1509080D03*
X1578600Y1105360D03*
Y1191720D03*
X1568440Y1440640D03*
Y1747980D03*
X1653860Y1999440D03*
X1582740Y2228040D03*
X1900240Y762460D03*
Y1191720D03*
X1753860Y1999440D03*
X2000240Y762460D03*
X2144080D03*
Y660860D03*
X2145020Y955500D03*
X2045020D03*
X2145020Y861520D03*
X2045020D03*
X2000240Y1191720D03*
X2244080Y762460D03*
Y660860D03*
X2393000Y1351740D03*
Y1260300D03*
X2243140Y2164540D03*
X2343140D03*
X2243140Y2261060D03*
X2343140D03*
X2448880Y719280D03*
X2548880D03*
X2493000Y1351740D03*
Y1260300D03*
X2804480Y958040D03*
X2904480D03*
X3012760D03*
X2990840Y1288240D03*
X2890840D03*
X2993380Y1590500D03*
X2893380D03*
X3205800Y780240D03*
X3305800D03*
X3112760Y958040D03*
X3205800Y874220D03*
X3305800D03*
X3205800Y1168860D03*
X3305800D03*
X3647760Y511000D03*
X3747760D03*
X3647760Y384000D03*
X3747760D03*
X3647760Y770080D03*
X3747760D03*
X3647760Y638000D03*
X3747760D03*
X3647760Y907240D03*
X3747760D03*
X3647760Y1905460D03*
X3747760D03*
X3647760Y2032460D03*
X3747760D03*
X3647760Y2294080D03*
X3747760D03*
X3647760Y2162000D03*
X3747760D03*
X3647760Y2426160D03*
X3747760D03*
X3838260Y1402540D03*
X3938260D03*
G54D20*
X707240Y2355760D03*
Y2445760D03*
X1899440Y547160D03*
Y457160D03*
X1741960Y763180D03*
Y853180D03*
X1790220Y1101000D03*
Y1191000D03*
X3217700Y976540D03*
Y1066540D03*
G54D30*
X2395460Y877340D03*
X2345460D03*
X2295460D03*
X2395460Y1067340D03*
X2345460D03*
X2295460D03*
X2445460Y877340D03*
Y1067340D03*
G54D12*
X403380Y756120D03*
Y916120D03*
G54D21*
X1014100Y2227020D03*
Y2322020D03*
Y2417020D03*
X1322400Y2227020D03*
Y2417020D03*
G54D13*
X339880Y1198540D03*
Y1098540D03*
X456720Y525440D03*
Y425440D03*
X558320Y525440D03*
Y425440D03*
X436400Y1198540D03*
Y1098540D03*
X675160Y525760D03*
Y425760D03*
X705640Y1569380D03*
Y1469380D03*
X794540Y1569380D03*
Y1469380D03*
X609120Y1466840D03*
Y1566840D03*
X659920Y1735920D03*
Y1835920D03*
X803100Y2355840D03*
Y2455840D03*
X979800Y1584620D03*
Y1484620D03*
X888360Y1584620D03*
Y1484620D03*
X1030760Y1835920D03*
Y1735920D03*
X1061240Y425760D03*
Y525760D03*
X1180620D03*
Y425760D03*
X1274600Y525760D03*
Y425760D03*
X1246500Y1569380D03*
Y1469380D03*
X1157600Y1569380D03*
Y1469380D03*
X1068700D03*
Y1569380D03*
X1388900Y501640D03*
Y601640D03*
X1449860Y1543040D03*
Y1643040D03*
X1481940Y2330440D03*
Y2430440D03*
X1612420Y763260D03*
Y863260D03*
X1698780Y1093460D03*
Y1193460D03*
X1548920Y1898640D03*
Y1998640D03*
X1586080Y2330440D03*
Y2430440D03*
X1787680Y452160D03*
Y552160D03*
X1861340Y1901180D03*
Y2001180D03*
X2143280Y1903720D03*
Y2003720D03*
X2328700Y2471080D03*
Y2371080D03*
X2234320Y2471080D03*
Y2371080D03*
X2597540Y1901180D03*
Y2001180D03*
X2849400Y491480D03*
Y591480D03*
X2674140Y937280D03*
X2793520Y1084600D03*
Y1184600D03*
X2674140Y1037280D03*
X2948460Y491480D03*
X3050060D03*
X2948460Y591480D03*
X3050060D03*
X2890040Y1178220D03*
Y1078220D03*
X2895120Y1390640D03*
Y1490640D03*
Y1901180D03*
X2993340D03*
X2895120Y1790360D03*
Y1690360D03*
Y2001180D03*
X2993340D03*
G54D31*
X2266720Y1901580D03*
Y1951580D03*
Y2001580D03*
Y2051580D03*
X2456720Y1901580D03*
Y1951580D03*
Y2001580D03*
Y2051580D03*
G54D22*
X1274170Y1301370D03*
X1214070Y1361470D03*
G54D23*
X1368580Y1106040D03*
Y1191040D03*
X1360960Y1372740D03*
Y1457740D03*
Y1553080D03*
Y1638080D03*
Y1738500D03*
Y1823500D03*
X2990800Y1170720D03*
Y1085720D03*
X2993340Y1400680D03*
Y1485680D03*
Y1780980D03*
Y1695980D03*
X3306600Y973960D03*
Y1058960D03*
G54D14*
X515140Y2242020D03*
Y2402020D03*
X1733400Y2252180D03*
Y2412180D03*
X1924520Y2252180D03*
Y2412180D03*
X2694460Y2376620D03*
Y2216620D03*
G54D32*
X2361720Y1976580D03*
G54D24*
X1368780Y1928520D03*
X1439500Y1999240D03*
G54D33*
X2511580Y2206620D03*
Y2386620D03*
G54D15*
X798120Y475760D03*
X928120D03*
G54D25*
X1514160Y479140D03*
X1564160D03*
X1614160D03*
Y624140D03*
X1564160D03*
X1514160D03*
G54D16*
X798680Y693440D03*
X758680D03*
X718680D03*
X678680D03*
Y1273440D03*
X718680D03*
X758680D03*
X798680D03*
X1038680Y693440D03*
X998680D03*
X958680D03*
X918680D03*
X878680D03*
X838680D03*
Y1273440D03*
X878680D03*
X918680D03*
X958680D03*
X998680D03*
X1038680D03*
X1118680Y693440D03*
X1078680D03*
Y1273440D03*
X1118680D03*
G54D34*
X2774560Y720240D03*
Y840240D03*
X2944560Y780240D03*
G54D35*
X2774560D03*
X2944560Y720240D03*
Y840240D03*
G54D17*
X608680Y763440D03*
Y803440D03*
Y843440D03*
Y883440D03*
Y923440D03*
Y963440D03*
Y1003440D03*
Y1043440D03*
Y1083440D03*
Y1123440D03*
Y1163440D03*
Y1203440D03*
X1188680Y763440D03*
Y963440D03*
Y923440D03*
Y883440D03*
Y843440D03*
Y803440D03*
Y1203440D03*
Y1163440D03*
Y1123440D03*
Y1083440D03*
Y1043440D03*
Y1003440D03*
G54D26*
X1564160Y551640D03*
G54D18*
X898680Y983440D03*
G54D27*
X2145820Y1193220D03*
Y1063220D03*
X2094860Y2269720D03*
Y2399720D03*
G54D36*
X3670900Y1267540D03*
Y1537540D03*
G54D28*
X1963620Y2001980D03*
X2048620D03*
X2700220D03*
X2785220D03*
G54D37*
X3805900Y1402540D03*
G54D19*
X772880Y1720800D03*
Y1835800D03*
X922880Y1720800D03*
Y1835800D03*
G54D38*
X4000000Y1400000D03*
G54D29*
X2370460Y972340D03*
G54D39*
G01X99520Y460D02*
X3900020D01*
G03X4000020Y100460I0J100000D01*
G01Y2699540D01*
G03X3900020Y2799540I-100000J0D01*
G01X99520D01*
G03X-480Y2699540I0J-100000D01*
G01Y100460D01*
G03X99520Y460I100000J0D01*
M02*
