G04 ================== begin FILE IDENTIFICATION RECORD ==================*
G04 Layout Name:  ASR6601CB_PA_LNA_MD_V11_240312.brd*
G04 Film Name:    TOP*
G04 File Format:  Gerber RS274X*
G04 File Origin:  Cadence Allegro 16.6-2015-S088*
G04 Origin Date:  Thu Mar 14 11:44:11 2024*
G04 *
G04 Layer:  ETCH/TOP*
G04 Layer:  PIN/TOP*
G04 Layer:  VIA CLASS/TOP*
G04 *
G04 Offset:    (0.0000 0.0000)*
G04 Mirror:    No*
G04 Mode:      Positive*
G04 Rotation:  0*
G04 FullContactRelief:  No*
G04 UndefLineWidth:     0.0000*
G04 ================== end FILE IDENTIFICATION RECORD ====================*
%FSLAX25Y25*MOMM*%
%IR0*IPPOS*OFA0.00000B0.00000*MIA0B0*SFA1.00000B1.00000*%
%ADD33O,1.2X.4*%
%ADD12O,.4X1.2*%
%ADD41R,2.X.6*%
%ADD34R,1.2X.7*%
%ADD31R,1.1X.8*%
%ADD24R,1.2X.6*%
%ADD18R,.7X1.1*%
%ADD37R,.7X1.2*%
%ADD38R,1.2X.8*%
%ADD30R,1.25X.5*%
%ADD14R,1.6X.6*%
%ADD17R,1.X.95*%
%ADD10C,.65*%
%ADD16C,.508*%
%ADD11C,.4064*%
%ADD25C,.6096*%
%AMMACRO26*
21,1,.47,.5799,0.0,0.0,135.*%
%ADD26MACRO26*%
%ADD43O,1.4X1.*%
%ADD21R,4.2X4.2*%
%ADD36R,.6X.3*%
%ADD39R,.6X.4*%
%ADD35R,.3X.6*%
%ADD23R,.6X.6*%
%ADD19R,.22X.45*%
%ADD40R,.6X.35*%
%ADD20R,.45X.22*%
%ADD42R,.7X.8*%
%AMMACRO28*
21,1,.55,.5,0.0,0.0,45.*%
%ADD28MACRO28*%
%ADD15R,.5X.55*%
%ADD29R,.25X.45*%
%ADD13R,.55X.5*%
%ADD22R,.65X.45*%
%ADD27R,.5799X.47*%
%ADD32R,.47X.5799*%
%ADD44C,.2*%
%ADD45C,.3*%
%ADD46C,.4*%
%ADD47C,.22*%
%ADD48C,.5*%
%ADD49C,.25*%
%ADD50C,.18*%
%ADD52R,2.3124X6.4694*%
%ADD51R,2.3124X6.4948*%
G75*
%LPD*%
G75*
G36*
G01X1786760Y2317480D02*
Y2346880D01*
X1801200D01*
Y2477480D01*
X1665600D01*
Y2468160D01*
X1628880D01*
Y2475740D01*
X1543280D01*
Y2468160D01*
X1524740D01*
Y2475740D01*
X1439140D01*
Y2454740D01*
X1400200D01*
Y2464820D01*
X1244600D01*
Y2369220D01*
X1400200D01*
Y2379300D01*
X1439140D01*
Y2285140D01*
X1444220D01*
Y2270840D01*
X1437440D01*
Y2264740D01*
X1400200D01*
Y2274820D01*
X1244600D01*
Y2179220D01*
X1400200D01*
Y2189300D01*
X1437440D01*
Y2185240D01*
X1517120D01*
Y2164920D01*
X1648360D01*
Y2264820D01*
X1649200D01*
Y2392720D01*
X1665600D01*
Y2346880D01*
X1677500D01*
Y2317480D01*
X1665600D01*
Y2186880D01*
X1801200D01*
Y2214460D01*
X1810130D01*
X1811350Y2213920D01*
G03X1846250I17450J39520D01*
G01X1847470Y2214460D01*
X1856720D01*
Y2186880D01*
X1992320D01*
Y2317480D01*
X1980420D01*
Y2346880D01*
X1992320D01*
Y2374460D01*
X2022060D01*
Y2341920D01*
X2038960D01*
Y2327520D01*
X2022060D01*
Y2211920D01*
X2057140D01*
Y2136280D01*
X2105560Y2087860D01*
Y2049020D01*
X2100480D01*
Y2048780D01*
X1922320D01*
Y2038900D01*
X1904140D01*
Y2046480D01*
X1818540D01*
Y2038900D01*
X1799160D01*
Y2042240D01*
X1608560D01*
Y2037160D01*
X1591720D01*
Y2043940D01*
X1506120D01*
Y2036360D01*
X1466440D01*
X1441270Y2061540D01*
X1306480Y1926750D01*
X1323240Y1910000D01*
Y1864800D01*
X1314160D01*
Y1697200D01*
X1323240D01*
Y1679380D01*
X1314160D01*
Y1635000D01*
X1044230D01*
G02X1035250Y1656680I0J12700D01*
G01X1053480Y1674910D01*
Y1690620D01*
X1073560D01*
Y1881220D01*
X991500D01*
X985040Y1887680D01*
X731040D01*
X725960Y1882600D01*
Y1876100D01*
X722580D01*
Y1858640D01*
X702720D01*
Y1881220D01*
X617120D01*
Y1801540D01*
X596800D01*
Y1670300D01*
X702260D01*
Y1660180D01*
X822110D01*
X825610Y1656680D01*
G02X816630Y1635000I-8980J-8980D01*
G01X642520D01*
Y1632460D01*
X546000D01*
Y1528120D01*
X540200Y1521800D01*
G03X506900Y1473080I3278J-37981D01*
G02X497920Y1457210I-12183J-3582D01*
G03X498300Y1383330I9600J-36892D01*
G02X507820Y1369370I-3073J-12322D01*
G03X507520Y1363250I37801J-4920D01*
G02X498000Y1350550I-12694J-402D01*
G03X483770Y1283820I9519J-36912D01*
G02X487060Y1267890I-7907J-9938D01*
G03X486890Y1267570I33578J-18043D01*
G01X485100Y1264160D01*
X276760D01*
Y1132920D01*
X297080D01*
Y1053240D01*
X468180D01*
G02X479110Y1034080I-7J-12701D01*
G03X543750Y993710I32822J-19381D01*
G01X552420D01*
X557540Y998830D01*
G02X568380Y994340I4490J-4490D01*
G01Y972560D01*
X548060D01*
Y942010D01*
G02X526380Y933030I-12700J0D01*
G01X520570Y938840D01*
X501180D01*
Y963920D01*
X305580D01*
Y868320D01*
X447650D01*
G02X460090Y853110I-7J-12698D01*
G03X465020Y822970I42348J-8546D01*
G02X454030Y803920I-10997J-6351D01*
G01X305580D01*
Y706200D01*
X282680D01*
Y579960D01*
X413920D01*
Y600280D01*
X493600D01*
Y685880D01*
X471020D01*
Y708320D01*
X501180D01*
Y733400D01*
X518220D01*
Y726900D01*
X518210Y726740D01*
G03X594310Y727680I38079J-1840D01*
G01X594100Y730580D01*
X598160Y734640D01*
X649880D01*
Y709010D01*
G02X635100Y696490I-12699J7D01*
G03X595130Y641130I-6233J-37609D01*
G02X589560Y623850I-11236J-5916D01*
G03X569420Y598240I17021J-34109D01*
G01X569010Y596450D01*
X543300Y570740D01*
X515520D01*
Y553160D01*
X499520D01*
Y570740D01*
X413920D01*
Y380140D01*
X429000D01*
Y357280D01*
X431390Y354890D01*
X431320Y352160D01*
G03X517600Y348000I43184J-1172D01*
G02X530270Y359820I12668J-879D01*
G01X621440D01*
Y360140D01*
X738280D01*
Y402960D01*
X850920D01*
Y548560D01*
X849080D01*
G02X844590Y559400I0J6350D01*
G01X860580Y575390D01*
X879570Y556390D01*
X876330Y548560D01*
X875320D01*
Y402960D01*
X980920D01*
Y496430D01*
X987530Y503040D01*
X998120D01*
Y360140D01*
X1337720D01*
Y436020D01*
X1452020D01*
Y488520D01*
X1483860D01*
Y453670D01*
X1471250Y441060D01*
Y398860D01*
X1463780D01*
Y313260D01*
X1654380D01*
Y323340D01*
X1756930D01*
G03X1820400Y381020I28211J32717D01*
G01Y406860D01*
X1830480D01*
Y424440D01*
X1851640D01*
Y409360D01*
X1947240D01*
Y479040D01*
X1967560D01*
Y615280D01*
X1850800D01*
Y617780D01*
X1724560D01*
Y478650D01*
X1664780D01*
Y614760D01*
X1644460D01*
Y657820D01*
X1644850Y658880D01*
G03X1646880Y670220I-30689J11345D01*
G01Y717960D01*
X1655220D01*
Y730460D01*
X1694160D01*
Y715380D01*
X1790440D01*
G02X1807180Y723080I12023J-4092D01*
G03X1845340Y726060I16065J40101D01*
G01X1848590Y726960D01*
G02X1854940Y720610I-1J-6351D01*
G01Y719660D01*
X2045540D01*
Y724740D01*
X2078460D01*
Y597740D01*
X2209700D01*
Y618060D01*
X2289380D01*
Y703660D01*
X2271800D01*
Y719660D01*
X2289380D01*
Y768560D01*
X2301690Y780870D01*
X2308360Y774200D01*
X2308000Y771150D01*
G03X2318790Y740070I37460J-4408D01*
G01X2377300Y681560D01*
X2403580D01*
Y676480D01*
X2594180D01*
Y681560D01*
X2648160D01*
X2649120Y682520D01*
X2726760D01*
Y682440D01*
X2822360D01*
Y724620D01*
X2842680D01*
Y835860D01*
X2822360D01*
Y853300D01*
X2829660D01*
X2830580Y853020D01*
G03X2866320Y860290I11197J36439D01*
G01X2870410Y861780D01*
G02X2876760Y855440I1J-6349D01*
G01Y848300D01*
X2896760Y828300D01*
Y684940D01*
X2921840D01*
Y666880D01*
X2920740Y665780D01*
Y636780D01*
X2905660D01*
Y619200D01*
X2892200D01*
Y636780D01*
X2806600D01*
Y545550D01*
G02X2791370Y533110I-12701J6D01*
G03Y458410I-7610J-37350D01*
G02X2806600Y446180I2531J-12447D01*
G01X2892200D01*
Y563760D01*
X2905660D01*
Y446180D01*
X2920740D01*
Y428050D01*
X2919250Y426280D01*
G03X2985610Y410320I29207J-24498D01*
G02X2997990Y425860I12378J2840D01*
G01X3113180D01*
Y557100D01*
X3092860D01*
Y636780D01*
X3007260D01*
Y619200D01*
X2991260D01*
Y636780D01*
X2977280D01*
Y684940D01*
X2992360D01*
Y747520D01*
X3006050D01*
X3007430Y746800D01*
G03X3024880Y742520I17450J33433D01*
G01X3160500D01*
Y737440D01*
X3351100D01*
Y917020D01*
X3344320D01*
Y932660D01*
X3353400D01*
Y1100260D01*
X3343520D01*
Y1126060D01*
X3351100D01*
Y1211660D01*
X3343520D01*
Y1245530D01*
G02X3462810Y1364820I119290J0D01*
G01X3753100D01*
Y1335660D01*
X3532780D01*
Y1199420D01*
X3809020D01*
Y1344740D01*
X3858700D01*
Y1359740D01*
X3916220D01*
G03X3980000Y1324580I63780J40268D01*
G01X3999980D01*
Y1270620D01*
G03Y1129380I20J-70620D01*
G01Y100460D01*
G02X3900020Y500I-99960J0D01*
G01X1158200D01*
X1157590Y6170D01*
G03X1042410I-57590J-6170D01*
G01X1041800Y500D01*
X958200D01*
X957590Y6170D01*
G03X842410I-57590J-6170D01*
G01X841800Y500D01*
X770860D01*
X770340Y6280D01*
G03X629660I-70340J-6280D01*
G01X629140Y500D01*
X99520D01*
G02X-440Y100460I0J99960D01*
G01Y142080D01*
G03Y257920I440J57920D01*
G01Y329380D01*
G03Y470620I440J70620D01*
G01Y542080D01*
G03Y657920I440J57920D01*
G01Y742080D01*
G03Y857920I440J57920D01*
G01Y942080D01*
G03Y1057920I440J57920D01*
G01Y1142080D01*
G03Y1257920I440J57920D01*
G01Y1342080D01*
G03Y1457920I440J57920D01*
G01Y1542080D01*
G03Y1657920I440J57920D01*
G01Y1742080D01*
G03Y1857920I440J57920D01*
G01Y1942080D01*
G03Y2057920I440J57920D01*
G01Y2142080D01*
G03Y2257920I440J57920D01*
G01Y2329380D01*
G03Y2470620I440J70620D01*
G01Y2542080D01*
G03Y2657920I440J57920D01*
G01Y2699540D01*
G02X99520Y2799500I99960J0D01*
G01X629140D01*
X629660Y2793720D01*
G03X770340I70340J6280D01*
G01X770860Y2799500D01*
X841800D01*
X842410Y2793830D01*
G03X957590I57590J6170D01*
G01X958200Y2799500D01*
X1041800D01*
X1042410Y2793830D01*
G03X1157590I57590J6170D01*
G01X1158200Y2799500D01*
X3900020D01*
G02X3999980Y2699540I0J-99960D01*
G01Y1670620D01*
G03Y1529380I20J-70620D01*
G01Y1475420D01*
X3980000D01*
G03X3919730Y1445340I0J-75420D01*
G01X3858700D01*
Y1460340D01*
X3809020D01*
Y1605660D01*
X3532780D01*
Y1469420D01*
X3753100D01*
Y1440260D01*
X3462810D01*
G03X3268080Y1245530I0J-194730D01*
G01Y1231980D01*
X3140180D01*
Y1105740D01*
X3169900D01*
Y1044660D01*
X3149580D01*
Y1021160D01*
X3047140D01*
Y1000840D01*
X2967460D01*
Y985760D01*
X2949780D01*
Y1000840D01*
X2759180D01*
Y915240D01*
X2776800D01*
X2803600Y888430D01*
X2803810Y886130D01*
G03X2803910Y885110I37983J3209D01*
G01X2803950Y884750D01*
Y878040D01*
X2726760D01*
Y872960D01*
X2715820D01*
X2711860Y876920D01*
Y891980D01*
X2716940D01*
Y1026740D01*
X2737080Y1046880D01*
X2750720D01*
Y1039300D01*
X2829970D01*
Y1040500D01*
X2847240D01*
Y1032920D01*
X2932840D01*
Y1040500D01*
X2998920D01*
X3002840Y1044420D01*
X3037600D01*
Y1212020D01*
X3028560D01*
Y1245440D01*
X3036140D01*
Y1331040D01*
X3031060D01*
Y1359380D01*
X3040140D01*
Y1526980D01*
X3031100D01*
Y1547700D01*
X3038680D01*
Y1633300D01*
X3031060D01*
Y1654680D01*
X3040140D01*
Y1822280D01*
X3031060D01*
Y1855880D01*
X3036140D01*
Y2046480D01*
X2852320D01*
Y2039700D01*
X2826520D01*
Y2048780D01*
X2658920D01*
Y2038900D01*
X2640340D01*
Y2046480D01*
X2638380D01*
X2635270Y2054000D01*
Y2054440D01*
X2732140Y2151320D01*
X2762260D01*
Y2281920D01*
X2747820D01*
Y2311320D01*
X2762260D01*
Y2441920D01*
X2626660D01*
Y2414340D01*
X2589380D01*
Y2444420D01*
X2551840D01*
Y2453310D01*
X2552540Y2454670D01*
G03X2475700I-38420J19750D01*
G01X2476400Y2453310D01*
Y2444420D01*
X2433780D01*
Y2408800D01*
X2391820D01*
Y2536700D01*
X2171200D01*
Y2457520D01*
X2022060D01*
Y2449900D01*
X1992320D01*
Y2477480D01*
X1856720D01*
Y2346880D01*
X1871160D01*
Y2317480D01*
X1856720D01*
Y2307230D01*
G02X1840560Y2295010I-12699J-1D01*
G03X1817280Y2295080I-11765J-41569D01*
G02X1801200Y2307320I-3382J12240D01*
G01Y2317480D01*
X1786760D01*
G37*
G36*
G01X1317400Y567260D02*
Y571060D01*
X1276640D01*
X1269100Y578600D01*
X1270210Y582250D01*
G03X1192140Y617540I-41331J12566D01*
G01X981400D01*
Y653140D01*
X1147480D01*
Y734640D01*
X1225810D01*
G03X1293100Y748290I30351J23062D01*
G02X1300450Y752960I6154J-1566D01*
G03X1329490Y759180I7167J37440D01*
G02X1349480Y748780I7290J-10400D01*
G01Y719660D01*
X1540080D01*
Y730540D01*
X1569620D01*
Y717960D01*
X1581440D01*
Y664440D01*
X1483860D01*
Y649360D01*
X1400950D01*
X1398530Y646940D01*
X1346100D01*
Y567260D01*
X1317400D01*
G37*
G36*
G01X1021400Y1334060D02*
Y1424080D01*
X1060910D01*
X1086930Y1398060D01*
X1086720Y1395160D01*
G03Y1389600I38020J-2780D01*
G01X1086930Y1386700D01*
X1055960Y1355730D01*
Y1334060D01*
X1021400D01*
G37*
G36*
G01X1854940Y795180D02*
X1852260D01*
G03X1822880Y806380I-29023J-31999D01*
G02X1810080Y819080I-101J12699D01*
G01Y921300D01*
X1675540D01*
Y928880D01*
X1549300D01*
Y924640D01*
X1429160D01*
Y904320D01*
X1327440D01*
X1327040Y904370D01*
G03X1314700Y904170I-5477J-42850D01*
G02X1299990Y916250I-2017J12541D01*
G03X1241610Y947130I-38093J-1391D01*
G01X1240060Y946160D01*
X1228980D01*
Y1099720D01*
X1266990D01*
G02X1271370Y1097910I0J-6205D01*
G01X1274470Y1094810D01*
G03X1312390Y1079100I37920J37910D01*
G01X1321780D01*
Y1064740D01*
X1415380D01*
Y1068320D01*
X1433300D01*
Y1062560D01*
X1512980D01*
Y1042240D01*
X1635660D01*
Y1027840D01*
X1761900D01*
Y1032880D01*
X1858340D01*
Y1148920D01*
X2045540D01*
Y1154000D01*
X2073020D01*
Y1135420D01*
X2089920D01*
Y1121020D01*
X2073020D01*
Y1018620D01*
X1979400D01*
Y805260D01*
X1854940D01*
Y795180D01*
G37*
G36*
G01X2594180Y757000D02*
Y762080D01*
X2403580D01*
Y761960D01*
X2373180Y792360D01*
Y809220D01*
X2498580D01*
Y945460D01*
X2468580D01*
Y999220D01*
X2498580D01*
Y1135460D01*
X2425880D01*
Y1217500D01*
X2507640D01*
G02X2520140Y1202580I-4J-12700D01*
G03X2585390Y1222070I37531J-6679D01*
G01Y1238870D01*
X2546480Y1277780D01*
G02X2550970Y1288620I4491J4490D01*
G01X2558620D01*
Y1414860D01*
X2427380D01*
Y1394540D01*
X2347700D01*
Y1217500D01*
X2370440D01*
Y1186970D01*
X2358810Y1183450D01*
G03X2354110Y1189170I-31353J-20971D01*
G01X2312340Y1230940D01*
X2218620D01*
Y1251020D01*
X2073020D01*
Y1229440D01*
X2045540D01*
Y1234520D01*
X1854940D01*
Y1228720D01*
X1838020D01*
Y1238800D01*
X1742420D01*
Y1238760D01*
X1655980D01*
Y1229440D01*
X1623900D01*
Y1234520D01*
X1433300D01*
Y1228760D01*
X1415380D01*
Y1232340D01*
X1321780D01*
Y1214880D01*
X1316330Y1214100D01*
G03X1279240Y1195560I9250J-64876D01*
G01X1276140Y1192460D01*
G02X1263340Y1187160I-12800J12807D01*
G01X1255000D01*
G02X1250510Y1198000I-2J6349D01*
G01X1256070Y1203570D01*
G03X1276140Y1243190I-50412J50430D01*
G01X1276450Y1245250D01*
X1336460Y1305260D01*
X1330400Y1311320D01*
X1350510Y1331440D01*
X1407760D01*
Y1432650D01*
G02X1418590Y1437140I6347J-3D01*
G01X1423140Y1432600D01*
Y1397840D01*
X1502820D01*
Y1377520D01*
X1634060D01*
Y1503760D01*
X1492660D01*
Y1684860D01*
X1634060D01*
Y1811100D01*
X1502820D01*
Y1790780D01*
X1423140D01*
Y1756020D01*
X1418590Y1751480D01*
G02X1407760Y1755970I-4483J4493D01*
G01Y1864800D01*
X1398680D01*
Y1897890D01*
X1461710Y1960920D01*
X1485800D01*
Y1833020D01*
X1612040D01*
Y1956640D01*
X1798220D01*
Y1835560D01*
X1924460D01*
Y1955180D01*
X2080160D01*
Y1838100D01*
X2206400D01*
Y1848460D01*
X2334840D01*
Y1878460D01*
X2388600D01*
Y1848460D01*
X2534420D01*
Y1835560D01*
X2660660D01*
Y1955180D01*
X2832000D01*
Y1835560D01*
X2852320D01*
Y1653620D01*
X2827760D01*
Y1527380D01*
X2852320D01*
Y1351360D01*
X2825220D01*
Y1250220D01*
X2730400D01*
Y1122320D01*
X2705840D01*
X2666100Y1082580D01*
X2631340D01*
Y891980D01*
X2636420D01*
Y845680D01*
X2667570Y814530D01*
G03X2693870Y803480I26676J26668D01*
G02X2706440Y790780I-129J-12698D01*
G01Y757960D01*
X2617880D01*
X2616920Y757000D01*
X2594180D01*
G37*
G36*
G01X1153260Y1303660D02*
X1163230D01*
G03X1196940Y1312420I-9J69277D01*
G01X1228670Y1280690D01*
X1227910Y1277280D01*
G03X1226520Y1264720I56108J-12566D01*
G01Y1253980D01*
G02X1220410Y1239230I-20870J4D01*
G01X1213410Y1232240D01*
X1147480D01*
Y1300700D01*
X1148940Y1302160D01*
G02X1152550Y1303650I3610J-3628D01*
G03X1153260Y1303660I0J25230D01*
G37*
G36*
G01X1654380Y388780D02*
Y398860D01*
X1521690D01*
Y418520D01*
X1614780D01*
Y423990D01*
G02X1625620Y428480I6350J-1D01*
G01X1630890Y423210D01*
X1744880D01*
Y406860D01*
X1754960D01*
Y388780D01*
X1654380D01*
G37*
G36*
G01X2181000Y2049020D02*
Y2119100D01*
X2132580Y2167520D01*
Y2211920D01*
X2167660D01*
Y2327520D01*
X2148220D01*
Y2341920D01*
X2167660D01*
Y2405460D01*
X2191520D01*
Y2325780D01*
X2205420D01*
Y2303860D01*
X2197840D01*
Y2121740D01*
X2277520D01*
Y2104700D01*
X2198600D01*
Y2049020D01*
X2181000D01*
G37*
G36*
G01X2182740Y805260D02*
Y818720D01*
X2190320D01*
Y1005420D01*
X2218620D01*
Y1121020D01*
X2199180D01*
Y1135420D01*
X2218620D01*
Y1155500D01*
X2281100D01*
X2290300Y1146300D01*
G02X2285810Y1135460I-4492J-4489D01*
G01X2242340D01*
Y999220D01*
X2272340D01*
Y925140D01*
X2262660D01*
Y829540D01*
X2265380Y822970D01*
X2247680Y805260D01*
X2182740D01*
G37*
G36*
G01X2538140Y2063180D02*
X2522020Y2079300D01*
X2504520D01*
Y2084380D01*
X2408920D01*
Y2074700D01*
X2334840D01*
Y2101420D01*
X2408760D01*
Y2333360D01*
X2433780D01*
Y2328820D01*
X2589380D01*
Y2338900D01*
X2626660D01*
Y2311320D01*
X2638560D01*
Y2281920D01*
X2626660D01*
Y2254340D01*
X2589380D01*
Y2264420D01*
X2433780D01*
Y2148820D01*
X2589380D01*
Y2178900D01*
X2626660D01*
Y2152520D01*
X2559820Y2085680D01*
Y2072160D01*
G02X2538140Y2063180I-12700J1D01*
G37*
G36*
G01X2992360Y812960D02*
Y875540D01*
X2932200D01*
Y915240D01*
X2949780D01*
Y930320D01*
X2967460D01*
Y915240D01*
X3047140D01*
Y894920D01*
X3140180D01*
Y817960D01*
X3024880D01*
G03X3007430Y813680I0J-37713D01*
G01X3006050Y812960D01*
X2992360D01*
G37*
%LPC*%
G75*
G36*
G01X866220Y2521460D02*
Y2491470D01*
G03X883030Y2479450I12701J-2D01*
G02X935660Y2464820I15653J-45671D01*
G01X1091900D01*
Y2390140D01*
X1112220D01*
Y2253900D01*
X1091900D01*
Y2179220D01*
X936300D01*
Y2189300D01*
X881500D01*
X865240Y2205560D01*
X853340D01*
Y2200480D01*
X851740D01*
Y2103960D01*
X755050D01*
G03X742900Y2087560I0J-12700D01*
G02X669980I-36460J-11120D01*
G03X661140Y2103520I-12150J3699D01*
G01Y2189560D01*
X662740D01*
Y2204300D01*
X582940D01*
Y2176720D01*
X447340D01*
Y2204300D01*
X427030D01*
X425670Y2203600D01*
G02Y2280440I-19750J38420D01*
G01X427030Y2279740D01*
X447340D01*
Y2307320D01*
X459240D01*
Y2336720D01*
X447340D01*
Y2364300D01*
X406820D01*
X381480Y2389640D01*
X380020Y2390110D01*
G02X434350Y2444440I13200J41130D01*
G01X434820Y2442980D01*
X438060Y2439740D01*
X447340D01*
Y2467320D01*
X582940D01*
Y2336720D01*
X568500D01*
Y2307320D01*
X582940D01*
Y2279740D01*
X662740D01*
Y2286080D01*
X669520D01*
Y2307960D01*
X659440D01*
Y2377640D01*
X639120D01*
Y2513880D01*
X739980D01*
Y2521460D01*
X866220D01*
G37*
G54D52*
X3697760Y2165810D03*
G54D51*
Y645620D03*
%LPD*%
G75*
G36*
G01X3530000Y150000D02*
X150000D01*
Y2650000D01*
X3530000D01*
Y1654000D01*
X3460000D01*
Y2580000D01*
X220000D01*
Y220000D01*
X3460000D01*
Y1148540D01*
X3530000D01*
Y150000D01*
G37*
G36*
G01X905140Y2272340D02*
X896480Y2281000D01*
X853340D01*
Y2286080D01*
X744960D01*
Y2307960D01*
X755040D01*
Y2310540D01*
X845900D01*
Y2318760D01*
X906440Y2379300D01*
X915980D01*
Y2276830D01*
G02X905140Y2272340I-6351J2D01*
G37*
G54D10*
X0Y200000D03*
Y400000D03*
Y800000D03*
Y600000D03*
Y1000000D03*
Y1200000D03*
Y1400000D03*
Y1600000D03*
Y1800000D03*
Y2000000D03*
Y2200000D03*
Y2600000D03*
Y2400000D03*
X700000Y0D03*
Y2800000D03*
X900000Y0D03*
Y2800000D03*
X1100000Y0D03*
Y2800000D03*
X4000000Y1200000D03*
Y1600000D03*
G54D20*
X608680Y763440D03*
Y803440D03*
Y843440D03*
Y883440D03*
Y923440D03*
Y963440D03*
Y1003440D03*
Y1043440D03*
Y1083440D03*
Y1123440D03*
Y1163440D03*
Y1203440D03*
X1188680Y763440D03*
Y963440D03*
Y923440D03*
Y883440D03*
Y843440D03*
Y803440D03*
Y1203440D03*
Y1163440D03*
Y1123440D03*
Y1083440D03*
Y1043440D03*
Y1003440D03*
G54D11*
X111900Y297640D03*
Y503380D03*
X84100Y400000D03*
X90960Y902160D03*
X101120Y1303480D03*
X108740Y1905460D03*
X103660Y1697180D03*
Y2103580D03*
X108740Y2291540D03*
Y2509980D03*
X87660Y2400000D03*
X113820Y2746200D03*
X289080Y66500D03*
X172240D03*
X311940Y180800D03*
X187480Y577040D03*
X184940Y833580D03*
Y940260D03*
Y1194260D03*
Y1834340D03*
X187480Y2070560D03*
X154460Y2685240D03*
X261140Y2687780D03*
X322100Y2741120D03*
X215420Y2743660D03*
X388140Y66500D03*
X512600D03*
X530380Y178260D03*
X423700D03*
X556290Y724900D03*
X545540Y794220D03*
X502040Y1123440D03*
X511510Y1189620D03*
X534010Y1071530D03*
X511930Y1014700D03*
X507520Y1420320D03*
X545620Y1364440D03*
X520660Y1249890D03*
X507520Y1313640D03*
Y1681940D03*
X543480Y1483820D03*
X464340Y1867360D03*
X471960Y1765760D03*
X550700Y1742900D03*
X535460Y1821640D03*
X568480Y1900380D03*
X471960Y1971500D03*
X525950Y1943180D03*
X578640Y2001980D03*
X372900Y2695400D03*
X487200Y2690320D03*
X400840Y2616660D03*
X527840Y2618100D03*
X540540Y2741120D03*
X428780D03*
X743740Y175720D03*
X637060Y178260D03*
X698020Y117300D03*
X619280Y111900D03*
X769140D03*
X690030Y348070D03*
X606580Y589740D03*
X628870Y658880D03*
X718680Y640880D03*
X761520Y846280D03*
X817400Y912320D03*
X758980Y980900D03*
X819940Y1054560D03*
X764060Y1120600D03*
X781840Y1349200D03*
X751360Y1659080D03*
X817400Y2009600D03*
X649760Y1935940D03*
X753900Y1943560D03*
X706440Y2076440D03*
X708180Y2520140D03*
X642140Y2618100D03*
X761520D03*
X621820Y2700480D03*
X780400Y2703020D03*
X700000Y2689360D03*
X898680Y841200D03*
X1033300Y848820D03*
X967260Y919940D03*
X1038380Y970740D03*
X896140Y975820D03*
X969800Y1052020D03*
X1035840Y1115520D03*
X898680Y1118060D03*
X1048540Y1384760D03*
X884710Y1373330D03*
X939320Y1669240D03*
X875820Y1953720D03*
X952020Y1961340D03*
X891060Y2037540D03*
X898680Y2126440D03*
X959640Y2050240D03*
X974880Y2123900D03*
X1018060Y1976580D03*
X1180620Y345900D03*
X1061240Y353520D03*
X1256160Y757700D03*
X1261900Y914860D03*
Y1046940D03*
X1188240Y1270460D03*
X1124740Y1392380D03*
X1145060Y1852120D03*
X1211100Y1786080D03*
X1218720Y1869900D03*
X1147600Y1763220D03*
X1117120Y1697180D03*
X1195860Y1699720D03*
X1081560Y2116280D03*
X1053620Y2045160D03*
X1101880Y1948640D03*
X1193320Y1956260D03*
X1218720Y2070560D03*
X1122200Y2035000D03*
X1155220Y2134060D03*
X1164440Y2222960D03*
X1216180Y2532840D03*
X1164440Y2418540D03*
X1432080Y43640D03*
X1297460Y46180D03*
X1459640Y500840D03*
X1388900Y353520D03*
Y424640D03*
X1275440Y347670D03*
X1460020Y561800D03*
X1449860Y970740D03*
X1360960Y968200D03*
X1307620Y790400D03*
X1327590Y1022210D03*
X1491170Y1018860D03*
X1404600Y1022290D03*
X1457480Y1280620D03*
X1442240Y1356820D03*
X1373660Y1275540D03*
X1449860Y1831800D03*
Y1892760D03*
X1279680Y1699720D03*
Y1786080D03*
X1282220Y1872440D03*
Y2037540D03*
X1292380Y2123900D03*
X1297460Y1974040D03*
X1358420Y2040080D03*
X1429540Y2088340D03*
X1368580Y2134060D03*
X1470180Y2144220D03*
X1317780Y2530300D03*
X1399060D03*
X1493040Y2527760D03*
X1434620Y2611580D03*
X1284760Y2614120D03*
X1302540Y2713180D03*
X1409220D03*
X1675920Y48720D03*
X1548920Y46180D03*
X1696240Y511000D03*
X1564160Y429720D03*
X1698780Y571960D03*
X1538760Y970740D03*
X1632740Y973280D03*
X1579400Y1036780D03*
X1698780Y1025320D03*
X1701320Y1377140D03*
X1724180Y1288240D03*
X1528600Y1356820D03*
X1635280Y1285700D03*
X1548920Y1280620D03*
X1663220Y1659080D03*
X1660680Y1539700D03*
X1708940Y1486360D03*
X1627660Y1603200D03*
X1561620Y1549860D03*
X1559080Y1654000D03*
X1688620Y1747980D03*
X1670840Y1841960D03*
X1658140Y1905460D03*
X1520980Y2090880D03*
X1607340D03*
X1682740Y2094220D03*
X1645440Y2144220D03*
X1564160Y2141680D03*
X1724180Y2146760D03*
X1602260Y2527760D03*
X1716560Y2532840D03*
X1515900Y2718260D03*
X1637820Y2720800D03*
X1622580Y2619200D03*
X1919760Y41100D03*
X1797840Y48720D03*
X1935000Y858980D03*
X1848640Y856440D03*
X1736880Y973280D03*
X1848640Y975820D03*
X1937540Y980900D03*
X1896900Y1034240D03*
X1790220Y1021540D03*
X1891820Y1105360D03*
X1903780Y1380850D03*
X1802180D03*
X1865680Y1446890D03*
X1764080D03*
X1904520Y1288240D03*
X1815620D03*
X1731800Y1577800D03*
X1736880Y1676860D03*
X1919020Y1510390D03*
X1817420D03*
X1863140Y1578970D03*
X1940080Y1656540D03*
X1800380Y1603200D03*
X1838480Y1664160D03*
X1785140Y1841960D03*
X1795300Y1732740D03*
X1899440Y1722580D03*
X1736880Y1791160D03*
X1861340Y1783540D03*
X1754660Y1905460D03*
X1767360Y2090880D03*
X1856260D03*
X1937540D03*
X1904520Y2144220D03*
X1818160D03*
X1838480Y2527760D03*
X1752120Y2723340D03*
X1757200Y2616660D03*
X1881660D03*
X1848640Y2720800D03*
X2112800Y76660D03*
X2021360Y36020D03*
X2142830Y327390D03*
X2097110Y267570D03*
X2127590Y449310D03*
X2081870Y389490D03*
X2056920Y660860D03*
X2016280Y1044400D03*
X2039140Y1105360D03*
X1968020Y1102820D03*
X2101900Y1380850D03*
X2007920D03*
X2157780Y1446890D03*
X2063800D03*
X1969820D03*
X2084860Y1285700D03*
X1990880Y1288240D03*
X2039140Y1654000D03*
X2117140Y1510390D03*
X2023160D03*
X2162860Y1578970D03*
X1964740D03*
X2068880D03*
X2109520Y1652630D03*
X1995960Y1841960D03*
X1983260Y1720040D03*
X2074700Y1839420D03*
X2120420Y1788620D03*
X2077240Y1727660D03*
X2158520Y1722580D03*
X1955320Y1786080D03*
X2036600Y1783540D03*
X1955320Y1902920D03*
X2046760D03*
X2021360Y2090880D03*
X1983260Y2141680D03*
X1952780Y2527760D03*
X2072160Y2515060D03*
X2158520Y2517600D03*
X2036600Y2611580D03*
X1970560Y2723340D03*
X2089940D03*
X2371880Y71580D03*
X2224560D03*
X2335870Y324850D03*
X2394290Y267570D03*
X2290150Y265030D03*
X2236810Y327390D03*
X2201250Y270110D03*
X2221570Y449310D03*
X2186010Y392030D03*
X2313460Y451440D03*
X2267740Y391620D03*
X2371880Y394160D03*
X2328700Y668480D03*
X2214400Y973280D03*
X2224560Y848820D03*
X2275360Y973280D03*
X2302560Y1378310D03*
X2200960D03*
X2259380Y1446890D03*
X2363520D03*
X2265200Y1288240D03*
X2178840D03*
X2307640Y1510390D03*
X2206040D03*
X2361720Y1577800D03*
X2257580D03*
X2313460Y1654000D03*
X2204240Y1651460D03*
X2206780Y1852120D03*
X2364260Y1839420D03*
X2267740D03*
X2209320Y1788620D03*
X2313460Y1786080D03*
X2260120Y1722580D03*
X2364260D03*
X2316000Y2103580D03*
X2399020Y2106320D03*
X2353100Y2724570D03*
X2205780D03*
X2506500Y71580D03*
X2465860Y185880D03*
X2618260Y183340D03*
X2620350Y324850D03*
X2526370D03*
X2584790Y267570D03*
X2480650Y265030D03*
X2429850Y324850D03*
X2623340Y396700D03*
X2544600Y394160D03*
X2458240D03*
X2567460Y451440D03*
X2488720D03*
X2407440D03*
X2422680Y640540D03*
X2514120Y638000D03*
X2597940Y640540D03*
X2535260Y803020D03*
X2448570Y800840D03*
X2483640Y972340D03*
X2592860Y846280D03*
X2602620Y1003760D03*
Y927560D03*
X2470940Y1168860D03*
X2509040Y1069800D03*
X2605560Y1082500D03*
X2557670Y1195900D03*
X2463320Y1448260D03*
X2608100Y1339040D03*
X2620800Y1250140D03*
X2554760Y1443180D03*
X2618260Y1504140D03*
X2561640Y1573890D03*
X2614980Y1650090D03*
X2505760Y1510390D03*
X2411780D03*
X2468400Y1575260D03*
X2516660Y1656540D03*
X2412520Y1654000D03*
X2521740Y1852120D03*
X2621770Y1776920D03*
X2562380Y1725120D03*
X2597940Y1833040D03*
X2458240Y1839420D03*
X2409980Y1788620D03*
X2458240Y1722580D03*
X2503960Y1786080D03*
X2615720Y2525220D03*
X2425220Y2532840D03*
X2409980Y2611580D03*
X2554760D03*
X2487720Y2724570D03*
X2818920Y66500D03*
X2658900Y71580D03*
X2737640Y180800D03*
X2849400Y178260D03*
X2805770Y324850D03*
X2711790D03*
X2770210Y267570D03*
X2666070Y265030D03*
X2709700Y399240D03*
X2648740Y451440D03*
X2783760Y495760D03*
X2676680Y640540D03*
X2757960Y643080D03*
X2643660Y782780D03*
X2841780Y889460D03*
X2681760Y1196800D03*
X2636040Y1146000D03*
X2633500Y1407620D03*
X2724940Y1377140D03*
X2684300Y1280620D03*
X2775740Y1316180D03*
X2811300Y1397460D03*
X2663240Y1573890D03*
X2767380D03*
X2811300Y1674320D03*
X2719860Y1488900D03*
X2803680Y1600660D03*
X2808760Y1504140D03*
X2666520Y1849580D03*
X2684300Y1781000D03*
X2679220Y1694640D03*
X2750340Y1857200D03*
Y1775920D03*
X2808760Y1745440D03*
Y1819100D03*
X2806220Y1908000D03*
X2694460Y1913080D03*
X2811300Y2085800D03*
X2730020D03*
X2806220Y2177240D03*
X2803680Y2266140D03*
X2821460Y2525220D03*
X2719860D03*
X2811300Y2390600D03*
X2849400Y2614120D03*
X2694460Y2616660D03*
X2640120Y2724570D03*
X2800140Y2719490D03*
X2978940Y66500D03*
X2971320Y180800D03*
X2958390Y264170D03*
X3052370D03*
X2866950D03*
X2996490Y320050D03*
X2905050D03*
X3050060Y391620D03*
X2948460Y401780D03*
X3044980Y696420D03*
X3039900Y876760D03*
X2986560Y2095960D03*
X2900200Y2090880D03*
X3006880Y2253440D03*
X3062760Y2322020D03*
X2956080D03*
X2859560Y2324560D03*
X2900200Y2268680D03*
X3055140Y2179780D03*
X2943380Y2182320D03*
X3057680Y2454100D03*
X2961160Y2456640D03*
X2867180Y2459180D03*
X3001800Y2520140D03*
X2910360Y2522680D03*
X2915440Y2388060D03*
X3006880D03*
X3011960Y2616660D03*
X2960160Y2719490D03*
X3225320Y69040D03*
X3118640Y66500D03*
X3138960Y183340D03*
X3278430Y325130D03*
X3227630Y274330D03*
X3141270Y266710D03*
X3179370Y322590D03*
X3090470Y320050D03*
X3204770Y406410D03*
X3298750D03*
X3113330D03*
X3235250Y482610D03*
X3143810D03*
X3270810Y553730D03*
X3179370D03*
X3217470Y619770D03*
X3126030D03*
X3230400Y696420D03*
X3136420D03*
X3116100Y876760D03*
X3095780Y1077420D03*
X3083080Y1161240D03*
X3159280Y1306020D03*
X3154200Y1400000D03*
X3293900Y1435560D03*
X3243100Y1359360D03*
X3220240Y1270460D03*
X3085620Y1438100D03*
Y1341580D03*
Y1247600D03*
X3304060Y1610820D03*
X3151660Y1493980D03*
Y1587960D03*
X3154200Y1669240D03*
X3240560Y1524460D03*
X3088160Y1626060D03*
X3085620Y1532080D03*
X3271040Y1697180D03*
X3268500Y1763220D03*
X3258340Y1834340D03*
X3156740Y1745440D03*
Y1829260D03*
X3085620Y1892760D03*
X3088160Y1796240D03*
Y1712420D03*
X3235480Y1928320D03*
X3268500Y1999440D03*
X3205000Y2085800D03*
X3161820Y2027380D03*
Y1920700D03*
X3083080Y2078180D03*
Y1981660D03*
X3161820Y2174700D03*
X3255800Y2179780D03*
X3301520Y2253440D03*
X3210080D03*
X3121180D03*
X3250720Y2327100D03*
X3159280Y2324560D03*
X3293900Y2388060D03*
X3197380D03*
X3111020Y2385520D03*
X3240560Y2454100D03*
X3146580D03*
X3286280Y2525220D03*
X3184680Y2520140D03*
X3095780Y2522680D03*
X3245640Y2715720D03*
X3296440Y2611580D03*
X3144040Y2614120D03*
X3099860Y2719490D03*
X3448840Y66500D03*
X3337080Y69040D03*
X3319300Y185880D03*
X3494560Y226520D03*
X3369870Y325130D03*
X3319070Y274330D03*
X3413050D03*
X3494560Y361140D03*
Y480520D03*
X3387650Y408950D03*
X3418130Y485150D03*
X3329230Y482610D03*
X3499640Y607520D03*
Y719280D03*
X3405660Y696420D03*
X3364790Y553730D03*
X3400350Y622310D03*
X3311450Y619770D03*
X3319300Y698960D03*
X3387880Y770080D03*
Y861520D03*
Y950420D03*
X3497100Y1062180D03*
X3390420Y1036780D03*
X3392960Y1118060D03*
Y1209500D03*
X3425980Y1293320D03*
X3509800Y1316180D03*
X3372640Y1643840D03*
X3334540Y1547320D03*
X3428520Y1577800D03*
X3392960Y1481280D03*
X3502180Y1486360D03*
X3494560Y1747980D03*
X3377720Y1730200D03*
X3354860Y1826720D03*
X3403120Y1890220D03*
X3492020Y2118820D03*
X3321840Y1918160D03*
X3395500Y1999440D03*
X3410740Y2111200D03*
X3321840Y2080720D03*
X3492020Y2250900D03*
X3362480Y2182320D03*
X3408200Y2253440D03*
X3354860Y2324560D03*
X3494560Y2360120D03*
X3497100Y2487120D03*
X3398040Y2388060D03*
X3347240Y2456640D03*
X3387880Y2522680D03*
X3509800Y2718260D03*
X3385340D03*
X3453920Y2611580D03*
X3636800Y63960D03*
X3733320Y69040D03*
X3552980Y63960D03*
X3591080Y137620D03*
X3672360Y130000D03*
X3723160Y211280D03*
X3624100Y206200D03*
X3679980Y274780D03*
X3588540Y282400D03*
X3568220Y1029160D03*
X3667280Y1031700D03*
X3730780Y1092660D03*
X3621560Y1095200D03*
X3672360Y1179020D03*
X3606320D03*
X3613940Y1318720D03*
X3725700D03*
X3740940Y1626060D03*
X3669820Y1628600D03*
X3603780D03*
X3611400Y1486360D03*
X3718080D03*
X3644420Y1727660D03*
X3738400Y1725120D03*
X3690140Y1796240D03*
X3601240Y1801320D03*
X3753640Y2568400D03*
X3634260D03*
X3700300Y2631900D03*
X3588540Y2634440D03*
X3746020Y2715720D03*
X3636800Y2710640D03*
X3946680Y69040D03*
X3855240Y66500D03*
X3900960Y132540D03*
X3789200Y130000D03*
X3946680Y201120D03*
X3845080Y208740D03*
X3779040Y274780D03*
X3959380Y307800D03*
X3855240D03*
X3949220Y442420D03*
X3860320Y439880D03*
X3941600Y571960D03*
X3857780D03*
X3946680Y706580D03*
X3860320Y701500D03*
X3941600Y846280D03*
X3855240Y841200D03*
X3898420Y1016460D03*
X3786660Y1021540D03*
X3827300Y1092660D03*
X3761260Y1176480D03*
X3911120Y1114010D03*
X3889360Y1200000D03*
X3913980Y1287350D03*
X3829840Y1308560D03*
X3824760Y1646380D03*
X3911440Y1511440D03*
X3880640Y1603200D03*
X3829840Y1501600D03*
X3817140Y1725120D03*
X3951760Y1801320D03*
X3862860Y1798780D03*
X3776500D03*
X3906040Y1692100D03*
X3956840Y1963880D03*
X3954300Y2101040D03*
X3873020Y2098500D03*
X3870480Y1963880D03*
X3954300Y2220420D03*
X3875560Y2228040D03*
X3954300Y2360120D03*
X3875560D03*
X3906040Y2502360D03*
X3959380Y2565860D03*
X3860320D03*
X3900960Y2634440D03*
X3806980D03*
X3941600Y2713180D03*
X3852700D03*
G54D21*
X898680Y983440D03*
G54D30*
X1564160Y551640D03*
G54D12*
X187480Y419560D03*
X182400Y2398220D03*
X3494560Y889460D03*
Y1923240D03*
G54D22*
X772880Y1720800D03*
Y1835800D03*
X922880Y1720800D03*
Y1835800D03*
G54D13*
X348300Y643080D03*
X448300D03*
X708040Y2243280D03*
X808040D03*
X706440Y2146760D03*
X806440D03*
X1494780Y762460D03*
X1394780D03*
X1494780Y861520D03*
X1394780D03*
X1478600Y1105360D03*
Y1191720D03*
X1468440Y1440640D03*
Y1747980D03*
X1482740Y2228040D03*
X1609080Y356060D03*
X1509080D03*
X1578600Y1105360D03*
Y1191720D03*
X1568440Y1440640D03*
Y1747980D03*
X1653860Y1999440D03*
X1582740Y2228040D03*
X1900240Y762460D03*
Y1191720D03*
X1753860Y1999440D03*
X2000240Y762460D03*
X2144080D03*
Y660860D03*
X2145020Y955500D03*
X2045020D03*
X2145020Y861520D03*
X2045020D03*
X2000240Y1191720D03*
X2244080Y762460D03*
Y660860D03*
X2393000Y1351740D03*
Y1260300D03*
X2243140Y2164540D03*
X2343140D03*
X2243140Y2261060D03*
X2343140D03*
X2448880Y719280D03*
X2548880D03*
X2493000Y1351740D03*
Y1260300D03*
X2804480Y958040D03*
X2904480D03*
X3012760D03*
X2990840Y1288240D03*
X2890840D03*
X2993380Y1590500D03*
X2893380D03*
X3205800Y780240D03*
X3305800D03*
X3112760Y958040D03*
X3205800Y874220D03*
X3305800D03*
X3205800Y1168860D03*
X3305800D03*
X3647760Y511000D03*
X3747760D03*
X3647760Y384000D03*
X3747760D03*
X3647760Y770080D03*
X3747760D03*
X3647760Y638000D03*
X3747760D03*
X3647760Y907240D03*
X3747760D03*
X3647760Y1905460D03*
X3747760D03*
X3647760Y2032460D03*
X3747760D03*
X3647760Y2294080D03*
X3747760D03*
X3647760Y2162000D03*
X3747760D03*
X3647760Y2426160D03*
X3747760D03*
X3838260Y1402540D03*
X3938260D03*
G54D40*
X2774560Y780240D03*
X2944560Y720240D03*
Y840240D03*
G54D31*
X2145820Y1193220D03*
Y1063220D03*
X2094860Y2269720D03*
Y2399720D03*
G54D50*
G01X758680Y1273440D02*
Y1309680D01*
X709000Y1359360D01*
X619270D01*
X558310Y1420320D01*
X507520D01*
G01X718680Y1273440D02*
Y1300600D01*
X695480Y1323800D01*
X586260D01*
X545620Y1364440D01*
G01X678680Y1273440D02*
X568080D01*
X527880Y1313640D01*
X507520D01*
G54D32*
X1963620Y2001980D03*
X2048620D03*
X2700220D03*
X2785220D03*
G54D23*
X707240Y2355760D03*
Y2445760D03*
X1899440Y547160D03*
Y457160D03*
X1741960Y763180D03*
Y853180D03*
X1790220Y1101000D03*
Y1191000D03*
X3217700Y976540D03*
Y1066540D03*
G54D14*
X403380Y756120D03*
Y916120D03*
G54D41*
X3670900Y1267540D03*
Y1537540D03*
G54D15*
X339880Y1198540D03*
Y1098540D03*
X456720Y525440D03*
Y425440D03*
X558320Y525440D03*
Y425440D03*
X436400Y1198540D03*
Y1098540D03*
X675160Y525760D03*
Y425760D03*
X705640Y1569380D03*
Y1469380D03*
X794540Y1569380D03*
Y1469380D03*
X609120Y1466840D03*
Y1566840D03*
X659920Y1735920D03*
Y1835920D03*
X803100Y2355840D03*
Y2455840D03*
X979800Y1584620D03*
Y1484620D03*
X888360Y1584620D03*
Y1484620D03*
X1030760Y1835920D03*
Y1735920D03*
X1061240Y425760D03*
Y525760D03*
X1180620D03*
Y425760D03*
X1274600Y525760D03*
Y425760D03*
X1246500Y1569380D03*
Y1469380D03*
X1157600Y1569380D03*
Y1469380D03*
X1068700D03*
Y1569380D03*
X1388900Y501640D03*
Y601640D03*
X1449860Y1543040D03*
Y1643040D03*
X1481940Y2330440D03*
Y2430440D03*
X1612420Y763260D03*
Y863260D03*
X1698780Y1093460D03*
Y1193460D03*
X1548920Y1898640D03*
Y1998640D03*
X1586080Y2330440D03*
Y2430440D03*
X1787680Y452160D03*
Y552160D03*
X1861340Y1901180D03*
Y2001180D03*
X2143280Y1903720D03*
Y2003720D03*
X2328700Y2471080D03*
Y2371080D03*
X2234320Y2471080D03*
Y2371080D03*
X2597540Y1901180D03*
Y2001180D03*
X2849400Y491480D03*
Y591480D03*
X2674140Y937280D03*
X2793520Y1084600D03*
Y1184600D03*
X2674140Y1037280D03*
X2948460Y491480D03*
X3050060D03*
X2948460Y591480D03*
X3050060D03*
X2890040Y1178220D03*
Y1078220D03*
X2895120Y1390640D03*
Y1490640D03*
Y1901180D03*
X2993340D03*
X2895120Y1790360D03*
Y1690360D03*
Y2001180D03*
X2993340D03*
G54D42*
X3805900Y1402540D03*
G54D24*
X1014100Y2227020D03*
Y2322020D03*
Y2417020D03*
X1322400Y2227020D03*
Y2417020D03*
G54D33*
X2214160Y2607600D03*
X2219240Y187520D03*
G54D43*
X4000000Y1400000D03*
G54D25*
X898680Y2433780D03*
G54D16*
X474500Y350980D03*
X502440Y844560D03*
X405920Y2242020D03*
X393220Y2431240D03*
X609120Y1641300D03*
X1228880Y594820D03*
X1321560Y861520D03*
X1785140Y356060D03*
X1823240Y763180D03*
X1828800Y2253440D03*
X2514120Y2474420D03*
G54D34*
X2370460Y972340D03*
G54D44*
G01X448300Y643080D02*
Y711200D01*
X403380Y756120D01*
G01D02*
X507440D01*
X545540Y794220D01*
G01X608680Y763440D02*
X594830D01*
X556290Y724900D01*
G01X608680Y843440D02*
X507820D01*
X506700Y844560D01*
X502440D01*
G01X608680Y803440D02*
X554760D01*
X545540Y794220D01*
G01X608680Y883440D02*
X543840D01*
X511160Y916120D01*
X403380D01*
G01X502040Y1123440D02*
X474000D01*
X466080Y1115520D01*
G01X608680Y1123440D02*
X502040D01*
G01X608680Y1203440D02*
X567110D01*
X520660Y1249890D01*
G01X608680Y1163440D02*
X548260D01*
X522520Y1189180D01*
X520220D01*
X519780Y1189620D01*
X511510D01*
G01X608680Y1083440D02*
X546060D01*
X540040Y1077420D01*
X539900D01*
X534010Y1071530D01*
G01X608680Y1043440D02*
X570020D01*
X543010Y1016430D01*
X514330D01*
X512600Y1014700D01*
X511930D01*
G01X609120Y1466840D02*
X565140D01*
X548160Y1483820D01*
X543480D01*
G01X838680Y693440D02*
Y585620D01*
X798120Y545060D01*
Y475760D01*
G01X675160Y525760D02*
X748120D01*
X798120Y475760D01*
G01X798680Y693440D02*
Y621820D01*
X766600Y589740D01*
X606580D01*
G01X678680Y693440D02*
Y678880D01*
X658680Y658880D01*
X628870D01*
G01X718680Y693440D02*
Y640880D01*
G01X608680Y923440D02*
X838680D01*
X898680Y983440D01*
G01X838680Y1273440D02*
Y1360940D01*
X802160Y1397460D01*
X644680D01*
X609120Y1433020D01*
Y1466840D01*
G01X798680Y1273440D02*
Y1332360D01*
X781840Y1349200D01*
G01X772880Y1720800D02*
Y1680600D01*
X751360Y1659080D01*
G01X705640Y1469380D02*
X794540D01*
G01X884710Y1373330D02*
Y1376710D01*
X794540Y1466880D01*
Y1469380D01*
G01X888360Y1584620D02*
Y1626060D01*
X845340Y1669080D01*
Y1808780D01*
X818320Y1835800D01*
X772880D01*
G01X659920Y1835920D02*
X772760D01*
X772880Y1835800D01*
G01X878680Y693440D02*
Y589420D01*
X928120Y539980D01*
Y475760D01*
G01X1061240Y525760D02*
X978120D01*
X928120Y475760D01*
G01X958680Y693440D02*
Y634540D01*
X939300Y615160D01*
G01D02*
X959640Y594820D01*
X1228880D01*
G01X918680Y693440D02*
Y635780D01*
X939300Y615160D01*
G01X1038680Y1374900D02*
X1048540Y1384760D01*
G01X878680Y1273440D02*
Y1367300D01*
X884710Y1373330D01*
G01X998680Y1273440D02*
Y1465740D01*
X979800Y1484620D01*
G01X918680Y1273440D02*
Y1326260D01*
X946940Y1354520D01*
Y1410160D01*
X888360Y1468740D01*
Y1484620D01*
G01X922880Y1720800D02*
Y1685680D01*
X939320Y1669240D01*
G01X979800Y1584620D02*
Y1633360D01*
X1030760Y1684320D01*
Y1735920D01*
G01X922880Y1835800D02*
X1030640D01*
X1030760Y1835920D01*
G01X1180620Y525760D02*
Y546560D01*
X1228880Y594820D01*
G01D02*
Y586690D01*
X1274600Y540970D01*
Y525760D01*
G01X1188680Y763440D02*
X1189660Y762460D01*
X1252060D01*
X1256160Y758360D01*
Y757700D01*
G01X1188680Y843440D02*
X1318880D01*
X1327200Y851760D01*
X1328940D01*
X1338700Y861520D01*
G01X1188680Y803440D02*
X1294580D01*
X1307620Y790400D01*
G01X1188680Y923440D02*
X1253320D01*
X1261900Y914860D01*
G01X1038680Y1273440D02*
Y1374900D01*
G01X1124740Y1392380D02*
X1068700Y1448420D01*
Y1469380D01*
G01X1078680Y1273440D02*
Y1346320D01*
X1124740Y1392380D01*
G01X1394780Y861520D02*
Y762460D01*
G01X1338700Y861520D02*
X1321560D01*
G01X1394780D02*
X1338700D01*
G01X2266720Y2077160D02*
Y2051580D01*
G01X2361720Y2066900D02*
X2350940D01*
X2336980Y2052940D01*
X2300200D01*
X2298840Y2051580D01*
X2266720D01*
G54D35*
X2395460Y877340D03*
X2345460D03*
X2295460D03*
X2395460Y1067340D03*
X2345460D03*
X2295460D03*
X2445460Y877340D03*
Y1067340D03*
G54D26*
X1274170Y1301370D03*
X1214070Y1361470D03*
G54D17*
X515140Y2242020D03*
Y2402020D03*
X1733400Y2252180D03*
Y2412180D03*
X1924520Y2252180D03*
Y2412180D03*
X2694460Y2376620D03*
Y2216620D03*
G54D45*
G01X111900Y297640D02*
X102360D01*
G01D02*
X0Y400000D01*
G01X111900Y503380D02*
X103660D01*
X60480Y460200D01*
X60200D01*
G01D02*
X0Y400000D01*
G01X108740Y2291540D02*
X58220Y2342060D01*
X57940D01*
G01D02*
X0Y2400000D01*
G01X108740Y2509980D02*
X60480Y2461720D01*
Y2460480D01*
G01D02*
X0Y2400000D01*
G01X348300Y643080D02*
Y617200D01*
G01X339880Y1098540D02*
X436400D01*
G01X558320Y425440D02*
X674840D01*
X675160Y425760D01*
G01X474500Y350980D02*
X456720Y368760D01*
Y425440D01*
G01Y525440D02*
X558320D01*
G01D02*
Y546560D01*
X601500Y589740D01*
X606580D01*
G01X466080Y1115520D02*
X449100Y1098540D01*
X436400D01*
G01X550700Y1742900D02*
X557680Y1735920D01*
G01D02*
X659920D01*
G01X700000Y0D02*
X619280Y80720D01*
G01X700000Y0D02*
X747960Y47960D01*
X748060D01*
X769140Y69040D01*
G01X619280Y80720D02*
Y111900D01*
G01X700000Y115320D02*
Y0D01*
G01X769140Y69040D02*
Y111900D01*
G01X698020Y117300D02*
X700000Y115320D01*
G01X690030Y348070D02*
X675160Y362940D01*
Y425760D01*
G01X609120Y1566840D02*
Y1641300D01*
G01X794540Y1569380D02*
X705640D01*
G01D02*
X611660D01*
X609120Y1566840D01*
G01X706440Y2146760D02*
Y2076440D01*
G01X808040Y2243280D02*
Y2148360D01*
X806440Y2146760D01*
G01X700000Y2800000D02*
X780400Y2719600D01*
G01X700000Y2800000D02*
X621820Y2721820D01*
G01X780400Y2719600D02*
Y2703020D01*
G01X621820Y2721820D02*
Y2700480D01*
G01X1061240Y353520D02*
Y425760D01*
G01X1180620D02*
Y448300D01*
G01X1274600Y425760D02*
X1180620D01*
G01D02*
Y345900D01*
G01X1274600Y348510D02*
X1275440Y347670D01*
G01X1274600Y425760D02*
Y443220D01*
G01X1331680Y425760D02*
X1274600D01*
G01X1388900Y501640D02*
Y424640D01*
G01X1460020Y561800D02*
Y501220D01*
X1459640Y500840D01*
G01X1388900Y501640D02*
X1458840D01*
X1459640Y500840D01*
G01X1274600Y425760D02*
Y348510D01*
G01X1696240Y511000D02*
Y569420D01*
G01D02*
X1678460Y551640D01*
G01X1766130Y450930D02*
X1642370D01*
X1631640Y461660D01*
G01X1787680Y552160D02*
X1718580D01*
G01X1696240Y569420D02*
X1698780Y571960D01*
G01X1718580Y552160D02*
X1698780Y571960D01*
G01X1678460Y551640D02*
X1564160D01*
G01X1698780Y1025320D02*
Y1093460D01*
G01X1579400Y1036780D02*
X1578600Y1037580D01*
G01D02*
Y1105360D01*
G01X1582740Y2094220D02*
Y2228040D01*
G01X1787680Y552160D02*
X1894440D01*
X1899440Y547160D01*
G01X1790220Y1021540D02*
Y1019000D01*
G01Y1021540D02*
Y1101000D01*
G01X2056920Y660860D02*
X2144080D01*
G01X2327440Y1162500D02*
X2345460Y1144480D01*
Y1067340D01*
G01X2266720Y2001580D02*
X2203600D01*
G01X2345460Y766740D02*
Y877340D01*
G01X2244080Y762460D02*
X2295460Y813840D01*
Y877340D01*
G01X2244080Y660860D02*
Y762460D01*
G01X2483640Y972340D02*
X2370460D01*
G01X2393000Y1260300D02*
X2398160Y1255140D01*
Y1070040D01*
X2395460Y1067340D01*
G01X2393000Y1351740D02*
Y1260300D01*
G01X2266720Y1901580D02*
Y1951580D01*
G01Y1901580D02*
Y1840440D01*
G01D02*
X2267740Y1839420D01*
G01X2343140Y2164540D02*
X2415110D01*
G01X2343140Y2261060D02*
X2415110D01*
G01X2557670Y1195900D02*
Y1227390D01*
X2524760Y1260300D01*
X2493000D01*
G01Y1351740D02*
X2595400D01*
G01D02*
X2608100Y1339040D01*
G01X2456720Y1901580D02*
Y1951580D01*
G01Y1901580D02*
Y1840940D01*
G01D02*
X2458240Y1839420D01*
G01X2526820Y2001580D02*
X2456720D01*
G01Y2051580D02*
X2510540D01*
X2526820Y2035300D01*
Y2001580D01*
G01X2783760Y495760D02*
X2790980D01*
X2795260Y491480D01*
X2849400D01*
G01X2646200Y780240D02*
X2643660Y782780D01*
G01X2774560Y780240D02*
X2646200D01*
G01X2804480Y958040D02*
Y926760D01*
X2841780Y889460D01*
G01X2895120Y1901180D02*
X2813040D01*
G01D02*
X2806220Y1908000D01*
G01X2948460Y491480D02*
Y401780D01*
G01X2944560Y720240D02*
X2949560D01*
Y655400D01*
X2948460Y654300D01*
Y591480D01*
G01D02*
X2849400D01*
G01X2948460D02*
X3050060D01*
G01X2904480Y958040D02*
X3012760D01*
G01X2944560Y840240D02*
X2924020D01*
X2904480Y859780D01*
Y958040D01*
G01X3911120Y1114010D02*
X3917710Y1120600D01*
X3920600D01*
G01D02*
X4000000Y1200000D01*
G01X3913980Y1287350D02*
Y1286020D01*
G01D02*
X4000000Y1200000D01*
G01X3880640Y1603200D02*
X3883840Y1600000D01*
G01D02*
X4000000D01*
G54D27*
X1368580Y1106040D03*
Y1191040D03*
X1360960Y1372740D03*
Y1457740D03*
Y1553080D03*
Y1638080D03*
Y1738500D03*
Y1823500D03*
X2990800Y1170720D03*
Y1085720D03*
X2993340Y1400680D03*
Y1485680D03*
Y1780980D03*
Y1695980D03*
X3306600Y973960D03*
Y1058960D03*
G54D36*
X2266720Y1901580D03*
Y1951580D03*
Y2001580D03*
Y2051580D03*
X2456720Y1901580D03*
Y1951580D03*
Y2001580D03*
Y2051580D03*
G54D18*
X798120Y475760D03*
X928120D03*
G54D46*
G01X1214070Y1362330D02*
Y1361470D01*
G01X1246500Y1469380D02*
Y1393900D01*
X1214070Y1361470D01*
G01X1360960Y1372740D02*
X1345540D01*
X1274170Y1301370D01*
G01X1157600Y1469380D02*
X1246500D01*
G01X1612420Y763260D02*
X1495580D01*
X1494780Y762460D01*
G01X1787680Y452160D02*
X1786450Y450930D01*
X1766130D01*
G01X1609080Y356060D02*
X1785140D01*
G01X1612500Y763180D02*
X1614160Y761520D01*
Y670220D01*
G01X1612500Y763180D02*
X1612420Y763260D01*
G01X1741960Y763180D02*
X1612500D01*
G01X1582740Y2228040D02*
X1586080Y2231380D01*
Y2330440D01*
G01X1787680Y452160D02*
Y358600D01*
X1785140Y356060D01*
G01X1899440Y457160D02*
X1792680D01*
X1787680Y452160D01*
G01X1900240Y762460D02*
X1823960D01*
X1823240Y763180D01*
G01D02*
X1741960D01*
G01X2137400Y1054800D02*
X2145820Y1063220D01*
G01X2361720Y1976580D02*
Y1841960D01*
G01D02*
X2364260Y1839420D01*
G01X2361720Y2057860D02*
Y1976580D01*
G01X2316000Y2103580D02*
X2361720Y2057860D01*
G01Y2063540D02*
X2376640Y2078460D01*
G01X2361720Y2057860D02*
Y2063540D01*
G01X2376640Y2078460D02*
Y2083940D01*
G01D02*
X2399020Y2106320D01*
G01X2774560Y720240D02*
X2723980D01*
G01X2774560Y840240D02*
X2695200D01*
X2694240Y841200D01*
G01X2944560Y780240D02*
X3024880D01*
G01X3217700Y976540D02*
X3199200Y958040D01*
X3112760D01*
G01X3217700Y976540D02*
Y886120D01*
X3205800Y874220D01*
G54D28*
X1368780Y1928520D03*
X1439500Y1999240D03*
G54D19*
X798680Y693440D03*
X758680D03*
X718680D03*
X678680D03*
Y1273440D03*
X718680D03*
X758680D03*
X798680D03*
X1038680Y693440D03*
X998680D03*
X958680D03*
X918680D03*
X878680D03*
X838680D03*
Y1273440D03*
X878680D03*
X918680D03*
X958680D03*
X998680D03*
X1038680D03*
X1118680Y693440D03*
X1078680D03*
Y1273440D03*
X1118680D03*
G54D37*
X2361720Y1976580D03*
G54D47*
G01X1188680Y1163440D02*
X1263340D01*
G03X1292910Y1175690I0J41814D01*
G01X1296010Y1178790D01*
G02X1325580Y1191040I29570J-29564D01*
G01X1368580D01*
G01X1188680Y1123440D02*
X1266990D01*
G02X1288140Y1114680I0J-29912D01*
G01X1291240Y1111580D01*
G03X1312390Y1102820I21150J21152D01*
G01X1365360D01*
X1368580Y1106040D01*
G54D29*
X1514160Y479140D03*
X1564160D03*
X1614160D03*
Y624140D03*
X1564160D03*
X1514160D03*
G54D38*
X2511580Y2206620D03*
Y2386620D03*
G54D48*
G01X515140Y2242020D02*
X706780D01*
X708040Y2243280D01*
G01X515140Y2242020D02*
X405920D01*
G01X515140Y2402020D02*
X422440D01*
X393220Y2431240D01*
G01X707240Y2355760D02*
Y2244080D01*
X708040Y2243280D01*
G01X707240Y2355760D02*
X803020D01*
G01D02*
X803100Y2355840D01*
G01X898680Y2424880D02*
X829560Y2355760D01*
X803020D01*
G01X1014100Y2227020D02*
X897120D01*
X880860Y2243280D01*
X808040D01*
G01X1014100Y2417020D02*
X906540D01*
X898680Y2424880D01*
G01D02*
Y2433780D01*
G01X1368580Y1191040D02*
X1477920D01*
X1478600Y1191720D01*
G01X1368580Y1106040D02*
X1477920D01*
X1478600Y1105360D01*
G01X1449860Y1543040D02*
Y1459220D01*
X1468440Y1440640D01*
G01X1360960Y1457740D02*
Y1553080D01*
G01D02*
X1439820D01*
X1449860Y1543040D01*
G01Y1643040D02*
Y1729400D01*
X1468440Y1747980D01*
G01X1360960Y1638080D02*
X1444900D01*
X1449860Y1643040D01*
G01X1360960Y1738500D02*
Y1638080D01*
G01Y1823500D02*
Y1920700D01*
X1368780Y1928520D01*
G01X1548920Y1998640D02*
X1440100D01*
X1439500Y1999240D01*
G01X1322400Y2227020D02*
X1481720D01*
X1482740Y2228040D01*
G01X1481940Y2330440D02*
Y2228840D01*
X1482740Y2228040D01*
G01X1481940Y2430440D02*
X1586080D01*
G01X1322400Y2417020D02*
X1468520D01*
X1481940Y2430440D01*
G01X1578600Y1191720D02*
X1697040D01*
X1698780Y1193460D01*
G01X1790220Y1191000D02*
X1787760Y1193460D01*
X1698780D01*
G01X1653860Y1999440D02*
X1549720D01*
X1548920Y1998640D01*
G01X1586080Y2430440D02*
X1715140D01*
X1733400Y2412180D01*
G01X1790220Y1191000D02*
X1899520D01*
X1900240Y1191720D01*
G01X1861340Y2001180D02*
X1962820D01*
X1963620Y2001980D01*
G01X1861340Y2001180D02*
X1755600D01*
X1753860Y1999440D01*
G01X1924520Y2252180D02*
X1830060D01*
X1828800Y2253440D01*
G01X1733400Y2252180D02*
X1827540D01*
X1828800Y2253440D01*
G01X1924520Y2412180D02*
X2082400D01*
X2094860Y2399720D01*
G01X2145020Y861520D02*
Y763400D01*
X2144080Y762460D01*
G01D02*
X2000240D01*
G01X2145020Y955500D02*
Y861520D01*
G01X2145820Y1063220D02*
Y956300D01*
X2145020Y955500D01*
G01X2000240Y1191720D02*
X2162100D01*
X2163600Y1193220D01*
G01X2145820D02*
X2163600D01*
G01D02*
X2296720D01*
X2327440Y1162500D01*
G01X2048620Y2001980D02*
X2141540D01*
X2143280Y2003720D01*
G01X2203600Y2001580D02*
X2145420D01*
X2143280Y2003720D01*
G01X2094860Y2269720D02*
Y2151900D01*
X2143280Y2103480D01*
Y2003720D01*
G01X2448880Y719280D02*
X2392920D01*
X2345460Y766740D01*
G01X2343140Y2261060D02*
Y2164540D01*
G01X2243140Y2261060D02*
Y2362260D01*
X2234320Y2371080D01*
G01X2243140Y2164540D02*
Y2261060D01*
G01X2328700Y2371080D02*
X2496040D01*
X2511580Y2386620D01*
G01X2234320Y2371080D02*
X2328700D01*
G01X2723980Y720240D02*
X2633500D01*
X2632540Y719280D01*
X2548880D01*
G01X2597540Y2001180D02*
X2699420D01*
X2700220Y2001980D01*
G01X2597540Y2001180D02*
X2527220D01*
X2526820Y2001580D01*
G01X2694460Y2216620D02*
Y2166980D01*
X2597540Y2070060D01*
Y2001180D01*
G01X2694460Y2216620D02*
X2521580D01*
X2511580Y2206620D01*
G01X2694460Y2376620D02*
X2521580D01*
X2511580Y2386620D01*
G01X2514120Y2474420D02*
Y2389160D01*
X2511580Y2386620D01*
G01X2694240Y841200D02*
X2674140Y861300D01*
Y937280D01*
G01X2793520Y1084600D02*
X2721460D01*
X2674140Y1037280D01*
G01X2890040Y1078220D02*
X2799900D01*
X2793520Y1084600D01*
G01X2785220Y2001980D02*
X2894320D01*
X2895120Y2001180D01*
G01X3024880Y780240D02*
X3205800D01*
G01X2990840Y1288240D02*
Y1170760D01*
X2990800Y1170720D01*
G01X2890040Y1178220D02*
X2983300D01*
X2990800Y1170720D01*
G01X2890040Y1078220D02*
X2983300D01*
X2990800Y1085720D01*
G01X2993340Y1400680D02*
Y1290740D01*
X2990840Y1288240D01*
G01X2895120Y1390640D02*
X2983300D01*
X2993340Y1400680D01*
G01X2993380Y1590500D02*
Y1485720D01*
X2993340Y1485680D01*
G01Y1695980D02*
Y1590540D01*
X2993380Y1590500D01*
G01X2895120Y1690360D02*
X2987720D01*
X2993340Y1695980D01*
G01X2895120Y1490640D02*
X2988380D01*
X2993340Y1485680D01*
G01Y1901180D02*
Y1780980D01*
G01X2895120Y1790360D02*
X2983960D01*
X2993340Y1780980D01*
G01X2895120Y2001180D02*
X2993340D01*
G01X3305800Y874220D02*
Y780240D01*
G01X3306600Y973960D02*
Y875020D01*
X3305800Y874220D01*
G01Y1168860D02*
Y1059760D01*
G01D02*
X3306600Y1058960D01*
G01X3217700Y1066540D02*
X3299020D01*
X3305800Y1059760D01*
G01Y1168860D02*
Y1245530D01*
G02X3462810Y1402540I157010J0D01*
G01X3805900D01*
G54D39*
X2774560Y720240D03*
Y840240D03*
X2944560Y780240D03*
G54D49*
G01X0Y323030D02*
Y400000D01*
G01D02*
Y476970D01*
G01Y400000D02*
X76970D01*
G01X0Y2323030D02*
Y2400000D01*
G01D02*
Y2476970D01*
G01Y2400000D02*
X76970D01*
G01X276330Y643080D02*
X348300D01*
G01X339880Y1198540D02*
Y1270510D01*
G01X270410Y1198540D02*
X339880D01*
G01X558320Y353470D02*
Y425440D01*
G01X436400Y1198540D02*
Y1270510D01*
G01X539650Y1566840D02*
X609120D01*
G01X700000Y0D02*
X734700Y78640D01*
G01X609730Y353790D02*
X675160Y425760D01*
G01X659920Y1663950D02*
Y1735920D01*
G01X794540Y1569380D02*
Y1641350D01*
G01X705640Y1569380D02*
Y1641350D01*
G01X695910Y1667510D02*
X772880Y1720800D01*
G01X707240Y2445760D02*
Y2520230D01*
G01X632770Y2445760D02*
X707240D01*
G01X803100Y2455840D02*
Y2527810D01*
G01X700000Y2723030D02*
Y2800000D01*
G01X991770Y425760D02*
X1061240D01*
G01X898680Y983440D02*
X1153150Y1237910D01*
G01X909630Y2322020D02*
X1014100D01*
G01D02*
X1118570D01*
G01X1209170Y353790D02*
X1274600Y425760D01*
G01X1115190Y353790D02*
X1180620Y425760D01*
G01X1188680Y1203440D02*
X1206980D01*
G03X1229690Y1212850I0J32109D01*
G01X1238240Y1221400D01*
G03X1251740Y1253990I-32587J32590D01*
G01Y1264710D01*
G02X1261190Y1287530I32278J0D01*
G01X1274170Y1300510D01*
Y1301370D01*
G01X1118680Y1273440D02*
Y1295010D01*
G02X1127570Y1316470I30347J0D01*
G01X1131090Y1319990D01*
G02X1152550Y1328880I21460J-21457D01*
G01X1163230D01*
G03X1194390Y1341790I0J44059D01*
G01X1214070Y1361470D01*
G01X1068700Y1569380D02*
Y1641350D01*
G01X1157600Y1569380D02*
Y1641350D01*
G01X1246500Y1569380D02*
Y1641350D01*
G01X1344070Y425760D02*
X1331680D01*
G01X1323470Y573610D02*
X1388900Y501640D01*
G01X1514160Y479140D02*
Y448300D01*
X1496470Y430610D01*
Y368670D01*
X1509080Y356060D01*
G01X1564160Y551640D02*
X1470180D01*
X1460020Y561800D01*
G01X1514160Y624140D02*
X1411400D01*
X1388900Y601640D01*
G01X1479450Y1898640D02*
X1548920D01*
G01X1564160Y429720D02*
Y479140D01*
G01X1545560Y412170D02*
X1564160Y479140D01*
G01X1631640Y461660D02*
X1614160Y479140D01*
G01X1564160Y551640D02*
X1671130Y573040D01*
G01X1614160Y670220D02*
Y624140D01*
G01X1612420Y863260D02*
Y935230D01*
G01X1494780Y861520D02*
Y930990D01*
G01X1698780Y1025320D02*
Y1021490D01*
G01X1633350D02*
X1698780Y1093460D01*
G01X1506630Y1039930D02*
X1578600Y1105360D01*
G01X1568440Y1371170D02*
Y1440640D01*
G01D02*
Y1510110D01*
G01Y1440640D02*
X1640410D01*
G01X1568440Y1678510D02*
Y1747980D01*
G01D02*
Y1817450D01*
G01Y1747980D02*
X1640410D01*
G01X1548920Y1826670D02*
Y1898640D01*
G01D02*
X1618390D01*
G01X1586080Y2330440D02*
X1655550D01*
G01X1582740Y2228040D02*
X1654710D01*
G01X1899440Y547160D02*
Y621630D01*
G01Y547160D02*
X1973910D01*
G01X1787680Y552160D02*
Y624130D01*
G01X1741960Y853180D02*
Y927650D01*
G01Y853180D02*
X1816430D01*
G01X1790220Y1101000D02*
X1864690D01*
G01X1861340Y1829210D02*
Y1901180D01*
G01X1791870D02*
X1861340D01*
G01D02*
X1930810D01*
G01X2144080Y591390D02*
Y660860D01*
G01X1973050Y861520D02*
X2045020D01*
G01Y955500D02*
Y1024970D01*
G01X1973050Y955500D02*
X2045020D01*
G01X2143280Y1831750D02*
Y1903720D01*
G01X2073810D02*
X2143280D01*
G01X2164850Y2471080D02*
X2234320D01*
G01X2265990Y972340D02*
X2370460D01*
G01X2229640Y1115520D02*
X2247280D01*
X2295460Y1067340D01*
G01X2234720Y1008840D02*
X2236960D01*
G01D02*
X2295460Y1067340D01*
G01X2235990D02*
X2295460D01*
G01X2382250Y1864340D02*
X2456720Y1901580D01*
G01X2266720D02*
X2341190Y1864340D01*
G01X2266720Y2111050D02*
Y2077160D01*
G01X2361720Y2066900D02*
Y2081050D01*
G01Y2063540D02*
Y2066900D01*
G01X2343140Y2095070D02*
Y2164540D01*
G01X2266720Y2051580D02*
X2341190Y2088820D01*
G01X2361720Y1976580D02*
X2392200Y2081050D01*
G01X2343140Y2261060D02*
X2415110Y2195630D01*
G01X2234320Y2471080D02*
Y2543050D01*
G01X2328700Y2471080D02*
Y2543050D01*
G01Y2471080D02*
X2398170D01*
G01X2445460Y802870D02*
Y877340D01*
G01D02*
X2504930D01*
G01X2395460Y802870D02*
Y877340D01*
G01X2445460Y1067340D02*
Y1141810D01*
G01Y1067340D02*
X2504930D01*
G01X2493000Y1351740D02*
Y1421210D01*
G01X2597540Y1829210D02*
Y1901180D01*
G01D02*
X2667010D01*
G01X2774560Y780240D02*
X2849030D01*
G01X2793520Y1184600D02*
Y1256570D01*
G01X2724050Y1184600D02*
X2793520D01*
G01X2818870Y1288240D02*
X2890840D01*
G01X2821410Y1590500D02*
X2893380D01*
G01X2829690Y1829210D02*
X2895120Y1901180D01*
G01X3050060Y419510D02*
Y491480D01*
G01D02*
X3119530D01*
G01X3133830Y874220D02*
X3205800D01*
G01X3112760Y888570D02*
Y958040D01*
G01D02*
Y1027510D01*
G01X3205800Y1168860D02*
Y1238330D01*
G01X3133830Y1168860D02*
X3205800D01*
G01X3747760Y314530D02*
Y384000D01*
G01X3647760Y314530D02*
Y384000D01*
G01X3747760Y511000D02*
X3819730D01*
G01X3575790D02*
X3647760D01*
G01X3747760Y384000D02*
X3819730D01*
G01X3575790D02*
X3647760D01*
G01X3747760Y770080D02*
X3819730D01*
G01X3575790D02*
X3647760D01*
G01X3747760Y638000D02*
X3819730D01*
G01X3575790D02*
X3647760D01*
G01X3747760Y907240D02*
Y976710D01*
G01Y907240D02*
X3819730D01*
G01X3647760D02*
Y976710D01*
G01X3575790Y907240D02*
X3647760D01*
G01X3670900Y1193070D02*
Y1267540D01*
G01D02*
Y1342010D01*
G01X3526430Y1267540D02*
X3670900D01*
G01D02*
X3815370D01*
G01X3670900Y1463070D02*
Y1537540D01*
G01D02*
Y1612010D01*
G01X3526430Y1537540D02*
X3670900D01*
G01D02*
X3815370D01*
G01X3747760Y1835990D02*
Y1905460D01*
G01X3647760Y1835990D02*
Y1905460D01*
G01X3747760Y2032460D02*
X3819730D01*
G01X3575790D02*
X3647760D01*
G01X3747760Y1905460D02*
X3819730D01*
G01X3575790D02*
X3647760D01*
G01X3747760Y2294080D02*
X3819730D01*
G01X3575790D02*
X3647760D01*
G01X3747760Y2162000D02*
X3819730D01*
G01X3575790D02*
X3647760D01*
G01X3747760Y2426160D02*
Y2495630D01*
G01Y2426160D02*
X3819730D01*
G01X3647760D02*
Y2495630D01*
G01X3575790Y2426160D02*
X3647760D01*
G01X3923030Y1200000D02*
X4000000D01*
G01X3939220Y1539220D02*
X4000000Y1600000D01*
M02*
