G04*
G04 #@! TF.GenerationSoftware,Altium Limited,Altium Designer,23.0.1 (38)*
G04*
G04 Layer_Physical_Order=2*
G04 Layer_Color=16711680*
%FSLAX42Y42*%
%MOMM*%
G71*
G04*
G04 #@! TF.SameCoordinates,95CDDE1D-1A7E-4F85-AF55-DDA07DA04742*
G04*
G04*
G04 #@! TF.FilePolarity,Positive*
G04*
G01*
G75*
%ADD11C,0.20*%
%ADD19R,4.90X1.60*%
%ADD37C,0.40*%
%ADD38C,0.80*%
%ADD43C,1.71*%
%ADD44R,1.71X1.71*%
%ADD45R,1.50X1.50*%
%ADD46C,1.50*%
%ADD47C,2.00*%
%ADD48R,1.60X1.60*%
%ADD49C,1.60*%
%ADD50C,0.60*%
%ADD51C,1.00*%
%ADD52R,5.53X2.50*%
%ADD53R,5.51X2.53*%
G36*
X6649Y51D02*
X51D01*
Y2242D01*
X308D01*
Y2362D01*
Y2482D01*
X51D01*
Y3092D01*
X308D01*
Y3212D01*
Y3333D01*
X51D01*
Y4149D01*
X1878D01*
X1889Y4121D01*
X1763Y3995D01*
X1751Y3979D01*
X1743Y3961D01*
X1742Y3948D01*
X1690D01*
Y3727D01*
X1910D01*
Y3929D01*
X2019Y4037D01*
X3681D01*
X3687Y4007D01*
X3687Y4007D01*
X3661Y3987D01*
X3641Y3961D01*
X3628Y3930D01*
X3625Y3908D01*
X3409D01*
X3403Y3916D01*
X3380Y3934D01*
X3353Y3945D01*
X3324Y3949D01*
X3295Y3945D01*
X3268Y3934D01*
X3245Y3916D01*
X3227Y3893D01*
X3216Y3866D01*
X3213Y3838D01*
X3216Y3809D01*
X3227Y3782D01*
X3245Y3759D01*
X3268Y3741D01*
X3295Y3730D01*
X3324Y3726D01*
X3353Y3730D01*
X3380Y3741D01*
X3403Y3759D01*
X3421Y3782D01*
X3432Y3809D01*
X3433Y3817D01*
X3655D01*
X3661Y3808D01*
X3687Y3788D01*
X3704Y3781D01*
Y3389D01*
X3687Y3382D01*
X3661Y3362D01*
X3641Y3336D01*
X3628Y3305D01*
X3624Y3272D01*
X3628Y3240D01*
X3641Y3209D01*
X3661Y3183D01*
X3687Y3163D01*
X3717Y3151D01*
X3750Y3146D01*
X3783Y3151D01*
X3813Y3163D01*
X3839Y3183D01*
X3859Y3209D01*
X3872Y3240D01*
X3876Y3272D01*
X3872Y3305D01*
X3859Y3336D01*
X3839Y3362D01*
X3813Y3382D01*
X3796Y3389D01*
Y3781D01*
X3813Y3788D01*
X3839Y3808D01*
X3859Y3834D01*
X3872Y3865D01*
X3876Y3897D01*
X3872Y3930D01*
X3859Y3961D01*
X3839Y3987D01*
X3813Y4007D01*
X3813Y4007D01*
X3819Y4037D01*
X4152D01*
X4163Y4007D01*
X4150Y3997D01*
X4128Y3968D01*
X4114Y3934D01*
X4112Y3922D01*
X4250D01*
X4388D01*
X4386Y3934D01*
X4372Y3968D01*
X4350Y3997D01*
X4337Y4007D01*
X4348Y4037D01*
X4673D01*
X4674Y4034D01*
X4681Y4007D01*
X4661Y3992D01*
X4641Y3966D01*
X4628Y3935D01*
X4624Y3903D01*
X4628Y3870D01*
X4641Y3839D01*
X4661Y3813D01*
X4687Y3793D01*
X4704Y3786D01*
Y3394D01*
X4687Y3387D01*
X4661Y3367D01*
X4641Y3341D01*
X4628Y3310D01*
X4624Y3278D01*
X4628Y3245D01*
X4641Y3214D01*
X4661Y3188D01*
X4687Y3168D01*
X4710Y3159D01*
Y2695D01*
X4706Y2675D01*
X4711Y2654D01*
X4723Y2635D01*
X4741Y2623D01*
X4762Y2619D01*
X4784Y2623D01*
X4802Y2635D01*
X4814Y2654D01*
X4819Y2675D01*
X4814Y2696D01*
X4802Y2715D01*
X4802Y2715D01*
Y3164D01*
X4813Y3168D01*
X4839Y3188D01*
X4859Y3214D01*
X4872Y3245D01*
X4876Y3278D01*
X4872Y3310D01*
X4859Y3341D01*
X4839Y3367D01*
X4813Y3387D01*
X4796Y3394D01*
Y3786D01*
X4813Y3793D01*
X4839Y3813D01*
X4859Y3839D01*
X4872Y3870D01*
X4876Y3903D01*
X4872Y3935D01*
X4859Y3966D01*
X4839Y3992D01*
X4819Y4007D01*
X4826Y4034D01*
X4827Y4037D01*
X5173D01*
X5174Y4034D01*
X5181Y4007D01*
X5161Y3992D01*
X5141Y3966D01*
X5128Y3935D01*
X5124Y3903D01*
X5128Y3870D01*
X5141Y3839D01*
X5161Y3813D01*
X5187Y3793D01*
X5204Y3786D01*
Y3394D01*
X5187Y3387D01*
X5161Y3367D01*
X5141Y3341D01*
X5128Y3310D01*
X5124Y3278D01*
X5128Y3245D01*
X5141Y3214D01*
X5161Y3188D01*
X5187Y3168D01*
X5217Y3156D01*
X5250Y3151D01*
X5283Y3156D01*
X5313Y3168D01*
X5339Y3188D01*
X5359Y3214D01*
X5372Y3245D01*
X5376Y3278D01*
X5372Y3310D01*
X5359Y3341D01*
X5339Y3367D01*
X5313Y3387D01*
X5296Y3394D01*
Y3786D01*
X5313Y3793D01*
X5339Y3813D01*
X5359Y3839D01*
X5372Y3870D01*
X5376Y3903D01*
X5372Y3935D01*
X5359Y3966D01*
X5339Y3992D01*
X5319Y4007D01*
X5326Y4034D01*
X5327Y4037D01*
X5463D01*
X6149Y3350D01*
Y2740D01*
X6149Y2740D01*
X6146Y2720D01*
Y2711D01*
X6139Y2695D01*
X6137Y2675D01*
Y2125D01*
Y825D01*
X6139Y805D01*
X6147Y787D01*
X6159Y772D01*
X6350Y581D01*
Y488D01*
X6550D01*
Y688D01*
X6475D01*
X6474Y688D01*
X6468Y698D01*
X6479Y728D01*
X6482Y730D01*
X6508Y741D01*
X6532Y759D01*
X6550Y784D01*
X6562Y811D01*
X6563Y816D01*
X6450D01*
Y841D01*
X6425D01*
Y954D01*
X6420Y954D01*
X6392Y942D01*
X6368Y924D01*
X6350Y899D01*
X6338Y872D01*
X6336Y855D01*
X6309Y843D01*
X6303Y847D01*
X6288Y862D01*
Y2125D01*
Y2648D01*
X6295Y2665D01*
X6298Y2685D01*
Y2702D01*
X6298Y2703D01*
X6301Y2723D01*
Y3316D01*
X6374D01*
X6379Y3310D01*
X6400Y3294D01*
X6424Y3284D01*
X6450Y3281D01*
X6476Y3284D01*
X6500Y3294D01*
X6521Y3310D01*
X6537Y3331D01*
X6547Y3355D01*
X6551Y3381D01*
X6547Y3408D01*
X6537Y3432D01*
X6521Y3453D01*
X6500Y3469D01*
X6476Y3479D01*
X6450Y3482D01*
X6424Y3479D01*
X6400Y3469D01*
X6379Y3453D01*
X6374Y3447D01*
X6266D01*
X5592Y4121D01*
X5604Y4149D01*
X6649D01*
Y51D01*
D02*
G37*
%LPC*%
G36*
X2537Y3961D02*
X2529Y3960D01*
X2499Y3947D01*
X2472Y3927D01*
X2452Y3901D01*
X2443Y3878D01*
X2416Y3876D01*
X2411Y3877D01*
X2405Y3893D01*
X2387Y3916D01*
X2364Y3934D01*
X2337Y3945D01*
X2308Y3949D01*
X2279Y3945D01*
X2252Y3934D01*
X2229Y3916D01*
X2211Y3893D01*
X2200Y3866D01*
X2197Y3838D01*
X2200Y3809D01*
X2204Y3799D01*
X2180Y3774D01*
X2154Y3791D01*
X2162Y3809D01*
X2165Y3838D01*
X2162Y3866D01*
X2151Y3893D01*
X2133Y3916D01*
X2110Y3934D01*
X2083Y3945D01*
X2054Y3949D01*
X2025Y3945D01*
X1998Y3934D01*
X1975Y3916D01*
X1957Y3893D01*
X1946Y3866D01*
X1943Y3838D01*
X1946Y3809D01*
X1957Y3782D01*
X1975Y3759D01*
X1998Y3741D01*
X2025Y3730D01*
X2054Y3726D01*
X2083Y3730D01*
X2100Y3737D01*
X2117Y3712D01*
X1967Y3561D01*
X1957Y3546D01*
X1953Y3528D01*
Y3408D01*
X1904D01*
Y3287D01*
Y3167D01*
X1953D01*
Y3031D01*
X1948Y3027D01*
X1936Y3009D01*
X1931Y2988D01*
X1932Y2983D01*
X1867Y2917D01*
X1857Y2903D01*
X1853Y2885D01*
Y790D01*
X1852Y790D01*
X1826Y779D01*
X1804Y762D01*
X1787Y740D01*
X1777Y715D01*
X1775Y705D01*
X1775Y700D01*
X1744D01*
X1744Y705D01*
X1742Y719D01*
X1730Y748D01*
X1711Y773D01*
X1686Y792D01*
X1656Y804D01*
X1650Y805D01*
Y688D01*
Y570D01*
X1656Y571D01*
X1686Y583D01*
X1711Y602D01*
X1730Y627D01*
X1742Y656D01*
X1744Y670D01*
X1744Y675D01*
X1775D01*
X1775Y670D01*
X1777Y660D01*
X1787Y635D01*
X1804Y613D01*
X1826Y596D01*
X1852Y585D01*
X1879Y582D01*
X1906Y585D01*
X1932Y596D01*
X1954Y613D01*
X1971Y635D01*
X1981Y660D01*
X1985Y688D01*
X1981Y715D01*
X1971Y740D01*
X1954Y762D01*
X1945Y769D01*
Y2866D01*
X2022Y2943D01*
X2024Y2946D01*
X2027Y2948D01*
X2039Y2966D01*
X2044Y2988D01*
X2044Y2988D01*
X2045Y2994D01*
Y3509D01*
X2269Y3734D01*
X2279Y3730D01*
X2308Y3726D01*
X2337Y3730D01*
X2364Y3741D01*
X2387Y3759D01*
X2405Y3782D01*
X2411Y3798D01*
X2416Y3799D01*
X2443Y3797D01*
X2452Y3774D01*
X2472Y3748D01*
X2499Y3728D01*
X2529Y3715D01*
X2537Y3714D01*
Y3838D01*
Y3961D01*
D02*
G37*
G36*
X4225Y3873D02*
X4112D01*
X4114Y3861D01*
X4128Y3827D01*
X4150Y3798D01*
X4179Y3775D01*
X4213Y3761D01*
X4225Y3760D01*
Y3873D01*
D02*
G37*
G36*
X4388D02*
X4275D01*
Y3760D01*
X4287Y3761D01*
X4321Y3775D01*
X4350Y3798D01*
X4372Y3827D01*
X4386Y3861D01*
X4388Y3873D01*
D02*
G37*
G36*
X1854Y3408D02*
X1759D01*
Y3357D01*
X1732Y3349D01*
X1729Y3349D01*
X1711Y3373D01*
X1686Y3392D01*
X1656Y3404D01*
X1650Y3405D01*
Y3287D01*
Y3170D01*
X1656Y3171D01*
X1686Y3183D01*
X1711Y3202D01*
X1729Y3226D01*
X1732Y3226D01*
X1759Y3218D01*
Y3167D01*
X1854D01*
Y3287D01*
Y3408D01*
D02*
G37*
G36*
X1600Y3405D02*
X1594Y3404D01*
X1564Y3392D01*
X1539Y3373D01*
X1520Y3348D01*
X1508Y3319D01*
X1507Y3312D01*
X1600D01*
Y3405D01*
D02*
G37*
G36*
X4275Y3410D02*
Y3298D01*
X4388D01*
X4386Y3309D01*
X4372Y3343D01*
X4350Y3372D01*
X4321Y3395D01*
X4287Y3409D01*
X4275Y3410D01*
D02*
G37*
G36*
X4225D02*
X4213Y3409D01*
X4179Y3395D01*
X4150Y3372D01*
X4128Y3343D01*
X4114Y3309D01*
X4112Y3298D01*
X4225D01*
Y3410D01*
D02*
G37*
G36*
X618Y3333D02*
X358D01*
Y3238D01*
X618D01*
Y3333D01*
D02*
G37*
G36*
X1600Y3262D02*
X1507D01*
X1508Y3256D01*
X1520Y3227D01*
X1539Y3202D01*
X1564Y3183D01*
X1594Y3171D01*
X1600Y3170D01*
Y3262D01*
D02*
G37*
G36*
X4388Y3248D02*
X4275D01*
Y3135D01*
X4287Y3136D01*
X4321Y3150D01*
X4350Y3173D01*
X4372Y3202D01*
X4386Y3236D01*
X4388Y3248D01*
D02*
G37*
G36*
X4225D02*
X4112D01*
X4114Y3236D01*
X4128Y3202D01*
X4150Y3173D01*
X4179Y3150D01*
X4213Y3136D01*
X4225Y3135D01*
Y3248D01*
D02*
G37*
G36*
X618Y3188D02*
X358D01*
Y3092D01*
X618D01*
Y3188D01*
D02*
G37*
G36*
X6450Y3228D02*
X6424Y3225D01*
X6400Y3215D01*
X6379Y3199D01*
X6363Y3178D01*
X6353Y3154D01*
X6349Y3127D01*
X6353Y3101D01*
X6363Y3077D01*
X6379Y3056D01*
X6400Y3040D01*
X6424Y3030D01*
X6450Y3027D01*
X6476Y3030D01*
X6500Y3040D01*
X6521Y3056D01*
X6537Y3077D01*
X6547Y3101D01*
X6551Y3127D01*
X6547Y3154D01*
X6537Y3178D01*
X6521Y3199D01*
X6500Y3215D01*
X6476Y3225D01*
X6450Y3228D01*
D02*
G37*
G36*
Y2974D02*
X6424Y2971D01*
X6400Y2961D01*
X6379Y2945D01*
X6363Y2924D01*
X6353Y2900D01*
X6349Y2874D01*
X6353Y2847D01*
X6363Y2823D01*
X6379Y2802D01*
X6400Y2786D01*
X6424Y2776D01*
X6450Y2773D01*
X6476Y2776D01*
X6500Y2786D01*
X6521Y2802D01*
X6537Y2823D01*
X6547Y2847D01*
X6551Y2874D01*
X6547Y2900D01*
X6537Y2924D01*
X6521Y2945D01*
X6500Y2961D01*
X6476Y2971D01*
X6450Y2974D01*
D02*
G37*
G36*
Y2720D02*
X6424Y2717D01*
X6400Y2707D01*
X6379Y2691D01*
X6363Y2670D01*
X6353Y2646D01*
X6349Y2619D01*
X6353Y2593D01*
X6363Y2569D01*
X6379Y2548D01*
X6400Y2532D01*
X6424Y2522D01*
X6450Y2519D01*
X6476Y2522D01*
X6500Y2532D01*
X6521Y2548D01*
X6537Y2569D01*
X6547Y2593D01*
X6551Y2619D01*
X6547Y2646D01*
X6537Y2670D01*
X6521Y2691D01*
X6500Y2707D01*
X6476Y2717D01*
X6450Y2720D01*
D02*
G37*
G36*
X618Y2482D02*
X358D01*
Y2388D01*
X618D01*
Y2482D01*
D02*
G37*
G36*
X4775Y2435D02*
Y2323D01*
X4888D01*
X4886Y2334D01*
X4872Y2368D01*
X4850Y2397D01*
X4821Y2420D01*
X4787Y2434D01*
X4775Y2435D01*
D02*
G37*
G36*
X3775D02*
Y2323D01*
X3888D01*
X3886Y2334D01*
X3872Y2368D01*
X3850Y2397D01*
X3821Y2420D01*
X3787Y2434D01*
X3775Y2435D01*
D02*
G37*
G36*
X4725Y2435D02*
X4713Y2434D01*
X4679Y2420D01*
X4650Y2397D01*
X4628Y2368D01*
X4614Y2334D01*
X4612Y2323D01*
X4725D01*
Y2435D01*
D02*
G37*
G36*
X3725D02*
X3713Y2434D01*
X3679Y2420D01*
X3650Y2397D01*
X3628Y2368D01*
X3614Y2334D01*
X3612Y2323D01*
X3725D01*
Y2435D01*
D02*
G37*
G36*
X6450Y2466D02*
X6424Y2463D01*
X6400Y2453D01*
X6379Y2437D01*
X6363Y2416D01*
X6353Y2392D01*
X6349Y2366D01*
X6353Y2339D01*
X6363Y2315D01*
X6379Y2294D01*
X6400Y2278D01*
X6424Y2268D01*
X6450Y2265D01*
X6476Y2268D01*
X6500Y2278D01*
X6521Y2294D01*
X6537Y2315D01*
X6547Y2339D01*
X6551Y2366D01*
X6547Y2392D01*
X6537Y2416D01*
X6521Y2437D01*
X6500Y2453D01*
X6476Y2463D01*
X6450Y2466D01*
D02*
G37*
G36*
X618Y2338D02*
X358D01*
Y2242D01*
X618D01*
Y2338D01*
D02*
G37*
G36*
X4888Y2273D02*
X4775D01*
Y2160D01*
X4787Y2161D01*
X4821Y2175D01*
X4850Y2198D01*
X4872Y2227D01*
X4886Y2261D01*
X4888Y2273D01*
D02*
G37*
G36*
X3888D02*
X3775D01*
Y2160D01*
X3787Y2161D01*
X3821Y2175D01*
X3850Y2198D01*
X3872Y2227D01*
X3886Y2261D01*
X3888Y2273D01*
D02*
G37*
G36*
X4725D02*
X4612D01*
X4614Y2261D01*
X4628Y2227D01*
X4650Y2198D01*
X4679Y2175D01*
X4713Y2161D01*
X4725Y2160D01*
Y2273D01*
D02*
G37*
G36*
X3725D02*
X3612D01*
X3614Y2261D01*
X3628Y2227D01*
X3650Y2198D01*
X3679Y2175D01*
X3713Y2161D01*
X3725Y2160D01*
Y2273D01*
D02*
G37*
G36*
X6450Y2212D02*
X6424Y2209D01*
X6400Y2199D01*
X6379Y2183D01*
X6363Y2162D01*
X6353Y2138D01*
X6349Y2111D01*
X6353Y2085D01*
X6363Y2061D01*
X6379Y2040D01*
X6400Y2024D01*
X6424Y2014D01*
X6450Y2011D01*
X6476Y2014D01*
X6500Y2024D01*
X6521Y2040D01*
X6537Y2061D01*
X6547Y2085D01*
X6551Y2111D01*
X6547Y2138D01*
X6537Y2162D01*
X6521Y2183D01*
X6500Y2199D01*
X6476Y2209D01*
X6450Y2212D01*
D02*
G37*
G36*
X5957Y2017D02*
X5747D01*
Y1808D01*
X5957D01*
Y2017D01*
D02*
G37*
G36*
X5598Y2018D02*
X5571Y2015D01*
X5545Y2004D01*
X5523Y1987D01*
X5506Y1965D01*
X5496Y1940D01*
X5492Y1912D01*
X5496Y1885D01*
X5506Y1860D01*
X5523Y1838D01*
X5545Y1821D01*
X5571Y1810D01*
X5598Y1807D01*
X5625Y1810D01*
X5651Y1821D01*
X5673Y1838D01*
X5690Y1860D01*
X5700Y1885D01*
X5704Y1912D01*
X5700Y1940D01*
X5690Y1965D01*
X5673Y1987D01*
X5651Y2004D01*
X5625Y2015D01*
X5598Y2018D01*
D02*
G37*
G36*
X6450Y1958D02*
X6424Y1955D01*
X6400Y1945D01*
X6379Y1929D01*
X6363Y1908D01*
X6353Y1884D01*
X6349Y1858D01*
X6353Y1831D01*
X6363Y1807D01*
X6379Y1786D01*
X6400Y1770D01*
X6424Y1760D01*
X6450Y1757D01*
X6476Y1760D01*
X6500Y1770D01*
X6521Y1786D01*
X6537Y1807D01*
X6547Y1831D01*
X6551Y1858D01*
X6547Y1884D01*
X6537Y1908D01*
X6521Y1929D01*
X6500Y1945D01*
X6476Y1955D01*
X6450Y1958D01*
D02*
G37*
G36*
X4775Y1810D02*
Y1697D01*
X4888D01*
X4886Y1709D01*
X4872Y1743D01*
X4850Y1772D01*
X4821Y1795D01*
X4787Y1809D01*
X4775Y1810D01*
D02*
G37*
G36*
X3775D02*
Y1697D01*
X3888D01*
X3886Y1709D01*
X3872Y1743D01*
X3850Y1772D01*
X3821Y1795D01*
X3787Y1809D01*
X3775Y1810D01*
D02*
G37*
G36*
X4725Y1810D02*
X4713Y1809D01*
X4679Y1795D01*
X4650Y1772D01*
X4628Y1743D01*
X4614Y1709D01*
X4612Y1697D01*
X4725D01*
Y1810D01*
D02*
G37*
G36*
X3725D02*
X3713Y1809D01*
X3679Y1795D01*
X3650Y1772D01*
X3628Y1743D01*
X3614Y1709D01*
X3612Y1697D01*
X3725D01*
Y1810D01*
D02*
G37*
G36*
X4250Y2424D02*
X4217Y2419D01*
X4187Y2407D01*
X4161Y2387D01*
X4141Y2361D01*
X4128Y2330D01*
X4124Y2298D01*
X4128Y2265D01*
X4141Y2234D01*
X4161Y2208D01*
X4187Y2188D01*
X4217Y2176D01*
X4250Y2171D01*
X4254Y2168D01*
Y1802D01*
X4250Y1799D01*
X4217Y1794D01*
X4187Y1782D01*
X4161Y1762D01*
X4141Y1736D01*
X4128Y1705D01*
X4124Y1673D01*
X4128Y1640D01*
X4141Y1609D01*
X4161Y1583D01*
X4187Y1563D01*
X4217Y1551D01*
X4250Y1546D01*
X4283Y1551D01*
X4294Y1555D01*
X4300Y1554D01*
X4318Y1558D01*
X4332Y1568D01*
X4342Y1582D01*
X4344Y1589D01*
X4359Y1609D01*
X4372Y1640D01*
X4376Y1673D01*
X4372Y1705D01*
X4359Y1736D01*
X4346Y1753D01*
Y2217D01*
X4359Y2234D01*
X4372Y2265D01*
X4376Y2298D01*
X4372Y2330D01*
X4359Y2361D01*
X4339Y2387D01*
X4313Y2407D01*
X4283Y2419D01*
X4250Y2424D01*
D02*
G37*
G36*
X5250D02*
X5217Y2419D01*
X5187Y2407D01*
X5161Y2387D01*
X5141Y2361D01*
X5128Y2330D01*
X5124Y2298D01*
X5128Y2265D01*
X5141Y2234D01*
X5155Y2216D01*
X5154Y2212D01*
Y1753D01*
X5141Y1736D01*
X5128Y1705D01*
X5124Y1673D01*
X5128Y1640D01*
X5141Y1609D01*
X5154Y1592D01*
Y1588D01*
X5158Y1570D01*
X5168Y1555D01*
X5182Y1545D01*
X5200Y1542D01*
X5218Y1545D01*
X5225Y1550D01*
X5250Y1546D01*
X5283Y1551D01*
X5313Y1563D01*
X5339Y1583D01*
X5359Y1609D01*
X5372Y1640D01*
X5376Y1673D01*
X5372Y1705D01*
X5359Y1736D01*
X5339Y1762D01*
X5313Y1782D01*
X5283Y1794D01*
X5250Y1799D01*
X5246Y1802D01*
Y2168D01*
X5250Y2171D01*
X5283Y2176D01*
X5313Y2188D01*
X5339Y2208D01*
X5359Y2234D01*
X5372Y2265D01*
X5376Y2298D01*
X5372Y2330D01*
X5359Y2361D01*
X5339Y2387D01*
X5313Y2407D01*
X5283Y2419D01*
X5250Y2424D01*
D02*
G37*
G36*
X4888Y1647D02*
X4775D01*
Y1535D01*
X4787Y1536D01*
X4821Y1550D01*
X4850Y1573D01*
X4872Y1602D01*
X4886Y1636D01*
X4888Y1647D01*
D02*
G37*
G36*
X3888D02*
X3775D01*
Y1535D01*
X3787Y1536D01*
X3821Y1550D01*
X3850Y1573D01*
X3872Y1602D01*
X3886Y1636D01*
X3888Y1647D01*
D02*
G37*
G36*
X4725D02*
X4612D01*
X4614Y1636D01*
X4628Y1602D01*
X4650Y1573D01*
X4679Y1550D01*
X4713Y1536D01*
X4725Y1535D01*
Y1647D01*
D02*
G37*
G36*
X3725D02*
X3612D01*
X3614Y1636D01*
X3628Y1602D01*
X3650Y1573D01*
X3679Y1550D01*
X3713Y1536D01*
X3725Y1535D01*
Y1647D01*
D02*
G37*
G36*
X6450Y1704D02*
X6424Y1701D01*
X6400Y1691D01*
X6379Y1675D01*
X6363Y1654D01*
X6353Y1630D01*
X6349Y1603D01*
X6353Y1577D01*
X6363Y1553D01*
X6379Y1532D01*
X6400Y1516D01*
X6424Y1506D01*
X6450Y1503D01*
X6476Y1506D01*
X6500Y1516D01*
X6521Y1532D01*
X6537Y1553D01*
X6547Y1577D01*
X6551Y1603D01*
X6547Y1630D01*
X6537Y1654D01*
X6521Y1675D01*
X6500Y1691D01*
X6476Y1701D01*
X6450Y1704D01*
D02*
G37*
G36*
X3070Y3949D02*
X3041Y3945D01*
X3014Y3934D01*
X2991Y3916D01*
X2973Y3893D01*
X2962Y3866D01*
X2959Y3838D01*
X2962Y3809D01*
X2973Y3782D01*
X2968Y3777D01*
X2958Y3762D01*
X2954Y3744D01*
Y1555D01*
X2948Y1546D01*
X2944Y1525D01*
X2948Y1504D01*
X2960Y1485D01*
X2979Y1473D01*
X3000Y1469D01*
X3021Y1473D01*
X3040Y1485D01*
X3052Y1504D01*
X3056Y1525D01*
X3052Y1546D01*
X3046Y1555D01*
Y3699D01*
X3070Y3726D01*
X3099Y3730D01*
X3126Y3741D01*
X3149Y3759D01*
X3167Y3782D01*
X3178Y3809D01*
X3181Y3838D01*
X3178Y3866D01*
X3167Y3893D01*
X3149Y3916D01*
X3126Y3934D01*
X3099Y3945D01*
X3070Y3949D01*
D02*
G37*
G36*
X2587Y3961D02*
Y3838D01*
Y3714D01*
X2595Y3715D01*
X2625Y3728D01*
X2652Y3748D01*
X2672Y3774D01*
X2681Y3797D01*
X2708Y3799D01*
X2713Y3798D01*
X2719Y3782D01*
X2737Y3759D01*
X2750Y3749D01*
Y1574D01*
X2735Y1565D01*
X2723Y1546D01*
X2719Y1525D01*
X2723Y1504D01*
X2735Y1485D01*
X2754Y1473D01*
X2775Y1469D01*
X2796Y1473D01*
X2815Y1485D01*
X2827Y1504D01*
X2829Y1515D01*
X2838Y1528D01*
X2841Y1545D01*
Y3729D01*
X2845Y3730D01*
X2872Y3741D01*
X2895Y3759D01*
X2913Y3782D01*
X2924Y3809D01*
X2927Y3838D01*
X2924Y3866D01*
X2913Y3893D01*
X2895Y3916D01*
X2872Y3934D01*
X2845Y3945D01*
X2816Y3949D01*
X2787Y3945D01*
X2760Y3934D01*
X2737Y3916D01*
X2719Y3893D01*
X2713Y3877D01*
X2708Y3876D01*
X2681Y3878D01*
X2672Y3901D01*
X2652Y3927D01*
X2625Y3947D01*
X2595Y3960D01*
X2587Y3961D01*
D02*
G37*
G36*
X6450Y1450D02*
X6424Y1447D01*
X6400Y1437D01*
X6379Y1421D01*
X6363Y1400D01*
X6353Y1376D01*
X6349Y1349D01*
X6353Y1323D01*
X6363Y1299D01*
X6379Y1278D01*
X6400Y1262D01*
X6424Y1252D01*
X6450Y1249D01*
X6476Y1252D01*
X6500Y1262D01*
X6521Y1278D01*
X6537Y1299D01*
X6547Y1323D01*
X6551Y1349D01*
X6547Y1376D01*
X6537Y1400D01*
X6521Y1421D01*
X6500Y1437D01*
X6476Y1447D01*
X6450Y1450D01*
D02*
G37*
G36*
Y1196D02*
X6424Y1193D01*
X6400Y1183D01*
X6379Y1167D01*
X6363Y1146D01*
X6353Y1122D01*
X6349Y1095D01*
X6353Y1069D01*
X6363Y1045D01*
X6379Y1024D01*
X6400Y1008D01*
X6424Y998D01*
X6450Y995D01*
X6476Y998D01*
X6500Y1008D01*
X6521Y1024D01*
X6537Y1045D01*
X6547Y1069D01*
X6551Y1095D01*
X6547Y1122D01*
X6537Y1146D01*
X6521Y1167D01*
X6500Y1183D01*
X6476Y1193D01*
X6450Y1196D01*
D02*
G37*
G36*
X6475Y954D02*
Y866D01*
X6563D01*
X6562Y872D01*
X6550Y899D01*
X6532Y924D01*
X6508Y942D01*
X6480Y954D01*
X6475Y954D01*
D02*
G37*
G36*
X1600Y805D02*
X1594Y804D01*
X1564Y792D01*
X1539Y773D01*
X1520Y748D01*
X1508Y719D01*
X1507Y713D01*
X1600D01*
Y805D01*
D02*
G37*
G36*
X4850Y805D02*
Y712D01*
X4943D01*
X4942Y719D01*
X4930Y748D01*
X4911Y773D01*
X4886Y792D01*
X4856Y804D01*
X4850Y805D01*
D02*
G37*
G36*
X4546Y807D02*
X4451D01*
Y712D01*
X4546D01*
Y807D01*
D02*
G37*
G36*
X2492Y793D02*
X2282D01*
Y582D01*
X2492D01*
Y793D01*
D02*
G37*
G36*
X2188Y3044D02*
X2166Y3039D01*
X2148Y3027D01*
X2136Y3009D01*
X2131Y2988D01*
X2135Y2970D01*
X2101Y2936D01*
X2091Y2921D01*
X2087Y2903D01*
Y782D01*
X2080Y779D01*
X2058Y762D01*
X2041Y740D01*
X2031Y715D01*
X2027Y688D01*
X2031Y660D01*
X2041Y635D01*
X2058Y613D01*
X2080Y596D01*
X2106Y585D01*
X2133Y582D01*
X2160Y585D01*
X2186Y596D01*
X2208Y613D01*
X2225Y635D01*
X2235Y660D01*
X2239Y688D01*
X2235Y715D01*
X2225Y740D01*
X2208Y762D01*
X2186Y779D01*
X2179Y782D01*
Y2884D01*
X2220Y2925D01*
X2230Y2940D01*
X2233Y2957D01*
X2239Y2966D01*
X2244Y2988D01*
X2239Y3009D01*
X2227Y3027D01*
X2209Y3039D01*
X2188Y3044D01*
D02*
G37*
G36*
X4943Y662D02*
X4850D01*
Y570D01*
X4856Y571D01*
X4886Y583D01*
X4911Y602D01*
X4930Y627D01*
X4942Y656D01*
X4943Y662D01*
D02*
G37*
G36*
X4691Y807D02*
X4596D01*
Y688D01*
Y568D01*
X4691D01*
Y618D01*
X4718Y626D01*
X4721Y626D01*
X4739Y602D01*
X4764Y583D01*
X4794Y571D01*
X4800Y570D01*
Y688D01*
Y805D01*
X4794Y804D01*
X4764Y792D01*
X4739Y773D01*
X4721Y749D01*
X4718Y749D01*
X4691Y757D01*
Y807D01*
D02*
G37*
G36*
X1600Y663D02*
X1507D01*
X1508Y656D01*
X1520Y627D01*
X1539Y602D01*
X1564Y583D01*
X1594Y571D01*
X1600Y570D01*
Y663D01*
D02*
G37*
G36*
X4546Y662D02*
X4451D01*
Y568D01*
X4546D01*
Y662D01*
D02*
G37*
%LPD*%
D11*
X1800Y3838D02*
X1816Y3854D01*
D19*
X333Y3212D02*
D03*
Y2362D02*
D03*
D37*
X4756Y2681D02*
Y3271D01*
Y2681D02*
X4762Y2675D01*
X4750Y3278D02*
X4756Y3271D01*
X4750Y3278D02*
Y3903D01*
X4300Y1600D02*
Y2225D01*
X3324Y3838D02*
X3349Y3862D01*
X3672D02*
X3707Y3897D01*
X3349Y3862D02*
X3672D01*
X3707Y3897D02*
X3750D01*
Y3272D02*
Y3897D01*
X5250Y3278D02*
Y3903D01*
X2188Y2958D02*
Y2988D01*
X2133Y2903D02*
X2188Y2958D01*
X2133Y688D02*
Y2903D01*
X1899Y708D02*
Y2885D01*
X1990Y2976D02*
Y2985D01*
X1999Y2994D02*
Y3528D01*
X1990Y2985D02*
X1999Y2994D01*
X1899Y2885D02*
X1990Y2976D01*
X1999Y3528D02*
X2308Y3838D01*
X3000Y3744D02*
X3070Y3814D01*
Y3838D01*
X3000Y1525D02*
Y3744D01*
X2795Y1545D02*
Y3817D01*
X2775Y1525D02*
X2795Y1545D01*
Y3817D02*
X2816Y3838D01*
X5200Y1588D02*
Y2212D01*
X1879Y688D02*
X1899Y708D01*
D38*
X6225Y3381D02*
X6450D01*
D43*
X3324Y3838D02*
D03*
X3070D02*
D03*
X2816D02*
D03*
X2562D02*
D03*
X2308D02*
D03*
X2054D02*
D03*
D44*
X1800D02*
D03*
D45*
X6450Y588D02*
D03*
D46*
Y3381D02*
D03*
Y3127D02*
D03*
Y2874D02*
D03*
Y2619D02*
D03*
Y2366D02*
D03*
Y2111D02*
D03*
Y1858D02*
D03*
Y1603D02*
D03*
Y1349D02*
D03*
Y1095D02*
D03*
Y841D02*
D03*
D47*
X4750Y3903D02*
D03*
Y3278D02*
D03*
X5250Y3903D02*
D03*
Y3278D02*
D03*
X4250Y3272D02*
D03*
Y3897D02*
D03*
X3750Y3272D02*
D03*
Y3897D02*
D03*
X5250Y1673D02*
D03*
Y2298D02*
D03*
X4750Y1673D02*
D03*
Y2298D02*
D03*
X4250Y1673D02*
D03*
Y2298D02*
D03*
X3750Y1673D02*
D03*
Y2298D02*
D03*
D48*
X5852Y1912D02*
D03*
X1879Y3288D02*
D03*
X4571Y688D02*
D03*
X2387Y688D02*
D03*
D49*
X5598Y1912D02*
D03*
X1625Y3288D02*
D03*
X4825Y688D02*
D03*
X2133Y688D02*
D03*
X1625D02*
D03*
X1879D02*
D03*
D50*
X6150Y3813D02*
D03*
Y313D02*
D03*
X6025Y4063D02*
D03*
Y1563D02*
D03*
X5900Y813D02*
D03*
Y313D02*
D03*
X5775Y4063D02*
D03*
X5650Y3813D02*
D03*
X5775Y1563D02*
D03*
X5650Y813D02*
D03*
Y313D02*
D03*
X5400Y3813D02*
D03*
Y2313D02*
D03*
Y1813D02*
D03*
X5525Y1563D02*
D03*
X5400Y813D02*
D03*
Y313D02*
D03*
X5275Y2063D02*
D03*
X5150Y313D02*
D03*
X4900Y3813D02*
D03*
Y3313D02*
D03*
X5025Y2063D02*
D03*
X4900Y1813D02*
D03*
X5025Y1563D02*
D03*
Y563D02*
D03*
X4900Y313D02*
D03*
X4650Y1813D02*
D03*
Y313D02*
D03*
X4400Y3813D02*
D03*
Y2313D02*
D03*
Y1813D02*
D03*
X4525Y1563D02*
D03*
X4400Y313D02*
D03*
X4150Y1813D02*
D03*
X4275Y563D02*
D03*
X4150Y313D02*
D03*
X3900Y3313D02*
D03*
Y1813D02*
D03*
X4025Y1563D02*
D03*
Y563D02*
D03*
X3900Y313D02*
D03*
X3650Y1813D02*
D03*
X3775Y563D02*
D03*
X3650Y313D02*
D03*
X3525Y3563D02*
D03*
X3400Y3313D02*
D03*
Y1813D02*
D03*
X3525Y1063D02*
D03*
Y563D02*
D03*
X3400Y313D02*
D03*
X3275Y3563D02*
D03*
X3150Y3313D02*
D03*
Y1313D02*
D03*
X3275Y1063D02*
D03*
Y563D02*
D03*
X3150Y313D02*
D03*
X2900Y3313D02*
D03*
Y1313D02*
D03*
X3025Y1063D02*
D03*
Y563D02*
D03*
X2900Y313D02*
D03*
X2650Y3313D02*
D03*
X2775Y563D02*
D03*
X2650Y313D02*
D03*
X2525Y3563D02*
D03*
X2400Y3313D02*
D03*
X2525Y1563D02*
D03*
Y563D02*
D03*
X2400Y313D02*
D03*
X2275Y3563D02*
D03*
Y3063D02*
D03*
Y1563D02*
D03*
Y563D02*
D03*
X2150Y313D02*
D03*
X2025Y563D02*
D03*
X1900Y313D02*
D03*
X1650Y3813D02*
D03*
X1775Y3563D02*
D03*
X1650Y2313D02*
D03*
X1775Y2063D02*
D03*
X1650Y1813D02*
D03*
X1775Y563D02*
D03*
X1650Y313D02*
D03*
X1525Y4063D02*
D03*
Y3563D02*
D03*
Y2563D02*
D03*
X1400Y2313D02*
D03*
X1525Y2063D02*
D03*
X1400Y1813D02*
D03*
Y813D02*
D03*
X1525Y563D02*
D03*
X1400Y313D02*
D03*
X1275Y4063D02*
D03*
X1150Y3813D02*
D03*
X1275Y3563D02*
D03*
X1150Y3313D02*
D03*
X1275Y3063D02*
D03*
X1150Y2313D02*
D03*
X1275Y2063D02*
D03*
X1150Y1813D02*
D03*
X1275Y1563D02*
D03*
X1150Y1313D02*
D03*
Y813D02*
D03*
X1275Y563D02*
D03*
X1150Y313D02*
D03*
X1025Y4063D02*
D03*
X900Y3813D02*
D03*
X1025Y3563D02*
D03*
X900Y3313D02*
D03*
X1025Y3063D02*
D03*
X900Y2313D02*
D03*
X1025Y2063D02*
D03*
X900Y1813D02*
D03*
X1025Y1563D02*
D03*
X900Y1313D02*
D03*
X1025Y1063D02*
D03*
X900Y813D02*
D03*
X1025Y563D02*
D03*
X900Y313D02*
D03*
X775Y4063D02*
D03*
X650Y3813D02*
D03*
X775Y3563D02*
D03*
X650Y3313D02*
D03*
Y2313D02*
D03*
X775Y2063D02*
D03*
X650Y1813D02*
D03*
X775Y1563D02*
D03*
X650Y1313D02*
D03*
X775Y1063D02*
D03*
X650Y813D02*
D03*
X775Y563D02*
D03*
X650Y313D02*
D03*
X794Y2645D02*
D03*
X903Y2633D02*
D03*
X1013D02*
D03*
X1123D02*
D03*
X1223Y2586D02*
D03*
X1333Y2582D02*
D03*
X1351Y2943D02*
D03*
X1241Y2943D02*
D03*
X1134Y2916D02*
D03*
X1024D02*
D03*
X505Y2929D02*
D03*
X395D02*
D03*
X285Y2941D02*
D03*
X175Y2943D02*
D03*
X165Y2632D02*
D03*
X275Y2633D02*
D03*
X384Y2646D02*
D03*
X494D02*
D03*
X604D02*
D03*
X714Y2643D02*
D03*
X4762Y2675D02*
D03*
X2188Y2988D02*
D03*
X1988D02*
D03*
X3000Y1525D02*
D03*
X2775D02*
D03*
X6212Y2675D02*
D03*
Y2125D02*
D03*
D51*
X1988Y4112D02*
X5494D01*
X6225Y3381D01*
X6212Y2675D02*
X6222Y2685D01*
Y2720D01*
X6225Y2723D01*
Y3381D01*
X6212Y2125D02*
Y2675D01*
X1816Y3854D02*
Y3941D01*
X1988Y4112D01*
X6212Y825D02*
Y2125D01*
Y825D02*
X6450Y588D01*
D52*
X324Y2362D02*
D03*
D53*
X327Y3206D02*
D03*
M02*
