G04*
G04 #@! TF.GenerationSoftware,Altium Limited,Altium Designer,23.0.1 (38)*
G04*
G04 Layer_Color=32896*
%FSLAX42Y42*%
%MOMM*%
G71*
G04*
G04 #@! TF.SameCoordinates,95CDDE1D-1A7E-4F85-AF55-DDA07DA04742*
G04*
G04*
G04 #@! TF.FilePolarity,Positive*
G04*
G01*
G75*
%ADD11C,0.20*%
%ADD54C,0.15*%
D11*
X1886Y3338D02*
X1820Y3238D01*
Y3338D02*
X1886Y3238D01*
X1720Y3321D02*
X1736Y3338D01*
X1770D01*
X1786Y3321D01*
Y3304D01*
X1770Y3288D01*
X1736D01*
X1720Y3271D01*
Y3254D01*
X1736Y3238D01*
X1770D01*
X1786Y3254D01*
X1686Y3321D02*
X1670Y3338D01*
X1636D01*
X1620Y3321D01*
Y3304D01*
X1636Y3288D01*
X1653D01*
X1636D01*
X1620Y3271D01*
Y3254D01*
X1636Y3238D01*
X1670D01*
X1686Y3254D01*
X4830Y737D02*
X4764Y637D01*
Y737D02*
X4830Y637D01*
X4664Y720D02*
X4680Y737D01*
X4714D01*
X4730Y720D01*
Y703D01*
X4714Y687D01*
X4680D01*
X4664Y670D01*
Y653D01*
X4680Y637D01*
X4714D01*
X4730Y653D01*
X4580Y637D02*
Y737D01*
X4630Y687D01*
X4564D01*
X2161Y737D02*
X2094Y637D01*
Y737D02*
X2161Y637D01*
X1994Y720D02*
X2011Y737D01*
X2044D01*
X2061Y720D01*
Y703D01*
X2044Y687D01*
X2011D01*
X1994Y670D01*
Y653D01*
X2011Y637D01*
X2044D01*
X2061Y653D01*
X1961Y637D02*
X1927D01*
X1944D01*
Y737D01*
X1961Y720D01*
D54*
X2575Y649D02*
X2587Y643D01*
X2605Y625D01*
Y750D01*
M02*
