G04 ================== begin FILE IDENTIFICATION RECORD ==================*
G04 Layout Name:  ASR6601QFN68_Module_V10_210527.brd*
G04 Film Name:    SILK_TOP*
G04 File Format:  Gerber RS274X*
G04 File Origin:  Cadence Allegro 16.6-2015-S088*
G04 Origin Date:  Thu May 27 20:17:09 2021*
G04 *
G04 Layer:  REF DES/SILKSCREEN_TOP*
G04 Layer:  PACKAGE GEOMETRY/SILKSCREEN_TOP*
G04 Layer:  BOARD GEOMETRY/SILKSCREEN_TOP*
G04 Layer:  BOARD GEOMETRY/OUTLINE*
G04 *
G04 Offset:    (0.0000 0.0000)*
G04 Mirror:    No*
G04 Mode:      Positive*
G04 Rotation:  0*
G04 FullContactRelief:  No*
G04 UndefLineWidth:     0.0000*
G04 ================== end FILE IDENTIFICATION RECORD ====================*
%FSLAX25Y25*MOMM*%
%IR0*IPPOS*OFA0.00000B0.00000*MIA0B0*SFA1.00000B1.00000*%
%ADD10C,.1*%
%ADD11C,.12*%
%ADD12C,.15*%
%ADD13C,.03*%
%ADD14C,.04*%
%ADD15C,.05*%
%ADD16C,.06*%
%ADD17C,.08*%
G75*
%LPD*%
G75*
G54D10*
G01X446400Y240280D02*
X366400D01*
G01X446400Y430280D02*
Y240280D01*
G01X366400Y430280D02*
X446400D01*
G01X366400Y240280D02*
Y430280D01*
G01X354960Y240280D02*
X274960D01*
G01X354960Y430280D02*
Y240280D01*
G01X274960Y430280D02*
X354960D01*
G01X274960Y240280D02*
Y430280D01*
G01X512730Y1325390D02*
X449090Y1389030D01*
G01X394190Y1206850D02*
X512730Y1325390D01*
G01X330550Y1270490D02*
X394190Y1206850D01*
G01X449090Y1389030D02*
X330550Y1270490D01*
G01X1388180Y617900D02*
Y847900D01*
G01X1538180D02*
Y617900D01*
G01D02*
X1388180D01*
G01Y847900D02*
X1538180D01*
G54D11*
G01X0Y0D02*
X1800000D01*
Y1800000D01*
X0D01*
Y0D01*
G01X303520Y943440D02*
Y743440D01*
X143520D01*
Y943440D01*
X303520D01*
G01X61800Y1763600D02*
G03I-25400J0D01*
G01X1415400Y1370000D02*
X1390000D01*
Y1453820D01*
G01X1627140Y1370000D02*
X1650000D01*
Y1630000D01*
X1627140D01*
G01X1412860D02*
X1390000D01*
Y1541100D01*
G54D12*
G01X529240Y437540D02*
X489240D01*
G01D02*
Y477540D01*
G01X529240Y1237540D02*
X489240D01*
G01D02*
Y1197540D01*
G01X451740Y1152540D02*
G03I-20000J0D01*
G01X1289240Y480040D02*
Y437540D01*
G01D02*
X1249240D01*
G01Y1237540D02*
X1289240D01*
G01D02*
Y1195040D01*
G54D13*
G01X416560Y271910D02*
X392560D01*
Y278570D01*
X393760Y280710D01*
X395360Y282040D01*
X398560Y282570D01*
X401760Y282040D01*
X403760Y280440D01*
X404960Y278570D01*
Y271910D01*
G01Y278570D02*
X416560Y282570D01*
G01X411760Y291370D02*
X414560Y292970D01*
X416160Y295110D01*
X416560Y297510D01*
X416160Y299640D01*
X414160Y301770D01*
X411760Y303110D01*
X409360Y303370D01*
X406560Y302840D01*
X404560Y300970D01*
X403760Y299110D01*
Y296710D01*
G01Y299110D02*
X402560Y300710D01*
X400560Y302040D01*
X398160Y302570D01*
X395760Y302040D01*
X393760Y300710D01*
X392560Y298310D01*
X392960Y295910D01*
X394560Y293510D01*
G01X327660Y269370D02*
X303660D01*
Y276030D01*
X304860Y278170D01*
X306460Y279500D01*
X309660Y280030D01*
X312860Y279500D01*
X314860Y277900D01*
X316060Y276030D01*
Y269370D01*
G01Y276030D02*
X327660Y280030D01*
G01Y297900D02*
X303660D01*
X320860Y288030D01*
Y301370D01*
G01X313280Y638710D02*
X312080Y637110D01*
X311280Y635240D01*
Y633110D01*
X312480Y630710D01*
X314480Y628840D01*
X316880Y627510D01*
X320880Y626440D01*
X324480Y626170D01*
X328080Y626710D01*
X330480Y627510D01*
X332880Y629110D01*
X334480Y630970D01*
X335280Y632840D01*
Y634710D01*
X334480Y636570D01*
X333280Y638170D01*
X331680Y639510D01*
G01X330480Y646970D02*
X333280Y648570D01*
X334880Y650710D01*
X335280Y653110D01*
X334880Y655240D01*
X332880Y657370D01*
X330480Y658710D01*
X328080Y658970D01*
X325280Y658440D01*
X323280Y656570D01*
X322480Y654710D01*
Y652310D01*
G01Y654710D02*
X321280Y656310D01*
X319280Y657640D01*
X316880Y658170D01*
X314480Y657640D01*
X312480Y656310D01*
X311280Y653910D01*
X311680Y651510D01*
X313280Y649110D01*
G01X315280Y667770D02*
X312880Y669370D01*
X311680Y671240D01*
X311280Y673370D01*
X312080Y676040D01*
X314080Y677910D01*
X316480Y678440D01*
X318880Y678170D01*
X320880Y677110D01*
X324880Y671770D01*
X327680Y669370D01*
X331680Y667770D01*
X335280Y667240D01*
Y678440D01*
G01X173890Y646840D02*
X172290Y648040D01*
X170420Y648840D01*
X168290D01*
X165890Y647640D01*
X164020Y645640D01*
X162690Y643240D01*
X161620Y639240D01*
X161350Y635640D01*
X161890Y632040D01*
X162690Y629640D01*
X164290Y627240D01*
X166150Y625640D01*
X168020Y624840D01*
X169890D01*
X171750Y625640D01*
X173350Y626840D01*
X174690Y628440D01*
G01X182150Y629640D02*
X183750Y626840D01*
X185890Y625240D01*
X188290Y624840D01*
X190420Y625240D01*
X192550Y627240D01*
X193890Y629640D01*
X194150Y632040D01*
X193620Y634840D01*
X191750Y636840D01*
X189890Y637640D01*
X187490D01*
G01X189890D02*
X191490Y638840D01*
X192820Y640840D01*
X193350Y643240D01*
X192820Y645640D01*
X191490Y647640D01*
X189090Y648840D01*
X186690Y648440D01*
X184290Y646840D01*
G01X208020Y648840D02*
X205890Y648040D01*
X204290Y646040D01*
X203220Y643640D01*
X202420Y640440D01*
X202150Y636840D01*
X202420Y633240D01*
X203220Y630040D01*
X204290Y627640D01*
X205890Y625640D01*
X208020Y624840D01*
X210150Y625640D01*
X211750Y627640D01*
X212820Y630040D01*
X213620Y633240D01*
X213890Y636840D01*
X213620Y640440D01*
X212820Y643640D01*
X211750Y646040D01*
X210150Y648040D01*
X208020Y648840D01*
G01X361540Y689510D02*
X360340Y687910D01*
X359540Y686040D01*
Y683910D01*
X360740Y681510D01*
X362740Y679640D01*
X365140Y678310D01*
X369140Y677240D01*
X372740Y676970D01*
X376340Y677510D01*
X378740Y678310D01*
X381140Y679910D01*
X382740Y681770D01*
X383540Y683640D01*
Y685510D01*
X382740Y687370D01*
X381540Y688970D01*
X379940Y690310D01*
G01X363540Y698570D02*
X361140Y700170D01*
X359940Y702040D01*
X359540Y704170D01*
X360340Y706840D01*
X362340Y708710D01*
X364740Y709240D01*
X367140Y708970D01*
X369140Y707910D01*
X373140Y702570D01*
X375940Y700170D01*
X379940Y698570D01*
X383540Y698040D01*
Y709240D01*
G01X363540Y718570D02*
X361140Y720170D01*
X359940Y722040D01*
X359540Y724170D01*
X360340Y726840D01*
X362340Y728710D01*
X364740Y729240D01*
X367140Y728970D01*
X369140Y727910D01*
X373140Y722570D01*
X375940Y720170D01*
X379940Y718570D01*
X383540Y718040D01*
Y729240D01*
G01X376070Y1271080D02*
X393050Y1254110D01*
X400590Y1261650D01*
G01X410960Y1272020D02*
X393990Y1288990D01*
X395120Y1283330D01*
G01X408690Y1269750D02*
X413220Y1274280D01*
G01X338050Y965700D02*
Y989700D01*
X344710D01*
X346850Y988500D01*
X348180Y986900D01*
X348710Y983700D01*
X348180Y980500D01*
X346580Y978500D01*
X344710Y977300D01*
X338050D01*
G01X344710D02*
X348710Y965700D01*
G01X363380D02*
Y989700D01*
X360180Y984900D01*
G01Y965700D02*
X366580D01*
G01X383380D02*
Y989700D01*
X380180Y984900D01*
G01Y965700D02*
X386580D01*
G01X297410Y1044440D02*
Y1068440D01*
X304070D01*
X306210Y1067240D01*
X307540Y1065640D01*
X308070Y1062440D01*
X307540Y1059240D01*
X305940Y1057240D01*
X304070Y1056040D01*
X297410D01*
G01X304070D02*
X308070Y1044440D01*
G01X322740D02*
Y1068440D01*
X319540Y1063640D01*
G01Y1044440D02*
X325940D01*
G01X336870Y1049240D02*
X338470Y1046440D01*
X340610Y1044840D01*
X343010Y1044440D01*
X345140Y1044840D01*
X347270Y1046840D01*
X348610Y1049240D01*
X348870Y1051640D01*
X348340Y1054440D01*
X346470Y1056440D01*
X344610Y1057240D01*
X342210D01*
G01X344610D02*
X346210Y1058440D01*
X347540Y1060440D01*
X348070Y1062840D01*
X347540Y1065240D01*
X346210Y1067240D01*
X343810Y1068440D01*
X341410Y1068040D01*
X339010Y1066440D01*
G01X155170Y996180D02*
Y1020180D01*
X161830D01*
X163970Y1018980D01*
X165300Y1017380D01*
X165830Y1014180D01*
X165300Y1010980D01*
X163700Y1008980D01*
X161830Y1007780D01*
X155170D01*
G01X161830D02*
X165830Y996180D01*
G01X180500D02*
Y1020180D01*
X177300Y1015380D01*
G01Y996180D02*
X183700D01*
G01X195430Y1016180D02*
X197030Y1018580D01*
X198900Y1019780D01*
X201030Y1020180D01*
X203700Y1019380D01*
X205570Y1017380D01*
X206100Y1014980D01*
X205830Y1012580D01*
X204770Y1010580D01*
X199430Y1006580D01*
X197030Y1003780D01*
X195430Y999780D01*
X194900Y996180D01*
X206100D01*
G01X587110Y1313660D02*
Y1289660D01*
X597770D01*
G01X607370Y1299660D02*
X609240Y1302460D01*
X610840Y1304060D01*
X612970Y1304860D01*
X614840Y1304060D01*
X616170Y1302460D01*
X617240Y1300060D01*
X617510Y1297260D01*
X617240Y1294860D01*
X616170Y1292460D01*
X614570Y1290460D01*
X612710Y1289660D01*
X610570Y1290460D01*
X608710Y1292860D01*
X607640Y1296460D01*
X607370Y1300460D01*
X607910Y1305660D01*
X608710Y1308460D01*
X610040Y1311260D01*
X611910Y1313260D01*
X613770Y1313660D01*
X615640Y1312860D01*
X616970Y1310860D01*
G01X280540Y1433070D02*
X304540D01*
Y1443730D01*
G01X299740Y1452530D02*
X302540Y1454130D01*
X304140Y1456270D01*
X304540Y1458670D01*
X304140Y1460800D01*
X302140Y1462930D01*
X299740Y1464270D01*
X297340Y1464530D01*
X294540Y1464000D01*
X292540Y1462130D01*
X291740Y1460270D01*
Y1457870D01*
G01Y1460270D02*
X290540Y1461870D01*
X288540Y1463200D01*
X286140Y1463730D01*
X283740Y1463200D01*
X281740Y1461870D01*
X280540Y1459470D01*
X280940Y1457070D01*
X282540Y1454670D01*
G01X297420Y1475080D02*
G03X305040I3810J1270D01*
G01X289800D02*
G03X297420I3810J1270D01*
G01X289800D02*
G02X282180I-3810J1270D01*
G01X379860Y1371730D02*
X403860D01*
Y1382390D01*
G01X383860Y1391990D02*
X381460Y1393590D01*
X380260Y1395460D01*
X379860Y1397590D01*
X380660Y1400260D01*
X382660Y1402130D01*
X385060Y1402660D01*
X387460Y1402390D01*
X389460Y1401330D01*
X393460Y1395990D01*
X396260Y1393590D01*
X400260Y1391990D01*
X403860Y1391460D01*
Y1402660D01*
G01X406640Y1414120D02*
X411720D01*
G01X383790D02*
X376160D01*
G01X399020D02*
G03X406640I3810J1270D01*
G01X391390D02*
G03X399020I3815J1265D01*
G01X391390D02*
G02X383790I-3800J1280D01*
G01X231740Y1446810D02*
X230540Y1445210D01*
X229740Y1443340D01*
Y1441210D01*
X230940Y1438810D01*
X232940Y1436940D01*
X235340Y1435610D01*
X239340Y1434540D01*
X242940Y1434270D01*
X246540Y1434810D01*
X248940Y1435610D01*
X251340Y1437210D01*
X252940Y1439070D01*
X253740Y1440940D01*
Y1442810D01*
X252940Y1444670D01*
X251740Y1446270D01*
X250140Y1447610D01*
G01X253740Y1464140D02*
X229740D01*
X246940Y1454270D01*
Y1467610D01*
G01X206700Y1060850D02*
X205500Y1059250D01*
X204700Y1057380D01*
Y1055250D01*
X205900Y1052850D01*
X207900Y1050980D01*
X210300Y1049650D01*
X214300Y1048580D01*
X217900Y1048310D01*
X221500Y1048850D01*
X223900Y1049650D01*
X226300Y1051250D01*
X227900Y1053110D01*
X228700Y1054980D01*
Y1056850D01*
X227900Y1058710D01*
X226700Y1060310D01*
X225100Y1061650D01*
G01X223900Y1069110D02*
X226700Y1070710D01*
X228300Y1072850D01*
X228700Y1075250D01*
X228300Y1077380D01*
X226300Y1079510D01*
X223900Y1080850D01*
X221500Y1081110D01*
X218700Y1080580D01*
X216700Y1078710D01*
X215900Y1076850D01*
Y1074450D01*
G01Y1076850D02*
X214700Y1078450D01*
X212700Y1079780D01*
X210300Y1080310D01*
X207900Y1079780D01*
X205900Y1078450D01*
X204700Y1076050D01*
X205100Y1073650D01*
X206700Y1071250D01*
G01X223900Y1089110D02*
X226700Y1090710D01*
X228300Y1092850D01*
X228700Y1095250D01*
X228300Y1097380D01*
X226300Y1099510D01*
X223900Y1100850D01*
X221500Y1101110D01*
X218700Y1100580D01*
X216700Y1098710D01*
X215900Y1096850D01*
Y1094450D01*
G01Y1096850D02*
X214700Y1098450D01*
X212700Y1099780D01*
X210300Y1100310D01*
X207900Y1099780D01*
X205900Y1098450D01*
X204700Y1096050D01*
X205100Y1093650D01*
X206700Y1091250D01*
G01X158440Y1063390D02*
X157240Y1061790D01*
X156440Y1059920D01*
Y1057790D01*
X157640Y1055390D01*
X159640Y1053520D01*
X162040Y1052190D01*
X166040Y1051120D01*
X169640Y1050850D01*
X173240Y1051390D01*
X175640Y1052190D01*
X178040Y1053790D01*
X179640Y1055650D01*
X180440Y1057520D01*
Y1059390D01*
X179640Y1061250D01*
X178440Y1062850D01*
X176840Y1064190D01*
G01X175640Y1071650D02*
X178440Y1073250D01*
X180040Y1075390D01*
X180440Y1077790D01*
X180040Y1079920D01*
X178040Y1082050D01*
X175640Y1083390D01*
X173240Y1083650D01*
X170440Y1083120D01*
X168440Y1081250D01*
X167640Y1079390D01*
Y1076990D01*
G01Y1079390D02*
X166440Y1080990D01*
X164440Y1082320D01*
X162040Y1082850D01*
X159640Y1082320D01*
X157640Y1080990D01*
X156440Y1078590D01*
X156840Y1076190D01*
X158440Y1073790D01*
G01X180440Y1097520D02*
X156440D01*
X161240Y1094320D01*
G01X180440D02*
Y1100720D01*
G01X328520Y1382930D02*
X327320Y1381330D01*
X326520Y1379460D01*
Y1377330D01*
X327720Y1374930D01*
X329720Y1373060D01*
X332120Y1371730D01*
X336120Y1370660D01*
X339720Y1370390D01*
X343320Y1370930D01*
X345720Y1371730D01*
X348120Y1373330D01*
X349720Y1375190D01*
X350520Y1377060D01*
Y1378930D01*
X349720Y1380790D01*
X348520Y1382390D01*
X346920Y1383730D01*
G01X345720Y1391190D02*
X348520Y1392790D01*
X350120Y1394930D01*
X350520Y1397330D01*
X350120Y1399460D01*
X348120Y1401590D01*
X345720Y1402930D01*
X343320Y1403190D01*
X340520Y1402660D01*
X338520Y1400790D01*
X337720Y1398930D01*
Y1396530D01*
G01Y1398930D02*
X336520Y1400530D01*
X334520Y1401860D01*
X332120Y1402390D01*
X329720Y1401860D01*
X327720Y1400530D01*
X326520Y1398130D01*
X326920Y1395730D01*
X328520Y1393330D01*
G01X280260Y1314350D02*
X279060Y1312750D01*
X278260Y1310880D01*
Y1308750D01*
X279460Y1306350D01*
X281460Y1304480D01*
X283860Y1303150D01*
X287860Y1302080D01*
X291460Y1301810D01*
X295060Y1302350D01*
X297460Y1303150D01*
X299860Y1304750D01*
X301460Y1306610D01*
X302260Y1308480D01*
Y1310350D01*
X301460Y1312210D01*
X300260Y1313810D01*
X298660Y1315150D01*
G01X282260Y1323410D02*
X279860Y1325010D01*
X278660Y1326880D01*
X278260Y1329010D01*
X279060Y1331680D01*
X281060Y1333550D01*
X283460Y1334080D01*
X285860Y1333810D01*
X287860Y1332750D01*
X291860Y1327410D01*
X294660Y1325010D01*
X298660Y1323410D01*
X302260Y1322880D01*
Y1334080D01*
G01X349250Y939440D02*
X347650Y940640D01*
X345780Y941440D01*
X343650D01*
X341250Y940240D01*
X339380Y938240D01*
X338050Y935840D01*
X336980Y931840D01*
X336710Y928240D01*
X337250Y924640D01*
X338050Y922240D01*
X339650Y919840D01*
X341510Y918240D01*
X343380Y917440D01*
X345250D01*
X347110Y918240D01*
X348710Y919440D01*
X350050Y921040D01*
G01X358310Y937440D02*
X359910Y939840D01*
X361780Y941040D01*
X363910Y941440D01*
X366580Y940640D01*
X368450Y938640D01*
X368980Y936240D01*
X368710Y933840D01*
X367650Y931840D01*
X362310Y927840D01*
X359910Y925040D01*
X358310Y921040D01*
X357780Y917440D01*
X368980D01*
G01X383380Y941440D02*
X381250Y940640D01*
X379650Y938640D01*
X378580Y936240D01*
X377780Y933040D01*
X377510Y929440D01*
X377780Y925840D01*
X378580Y922640D01*
X379650Y920240D01*
X381250Y918240D01*
X383380Y917440D01*
X385510Y918240D01*
X387110Y920240D01*
X388180Y922640D01*
X388980Y925840D01*
X389250Y929440D01*
X388980Y933040D01*
X388180Y936240D01*
X387110Y938640D01*
X385510Y940640D01*
X383380Y941440D01*
G01X364080Y816510D02*
X362880Y814910D01*
X362080Y813040D01*
Y810910D01*
X363280Y808510D01*
X365280Y806640D01*
X367680Y805310D01*
X371680Y804240D01*
X375280Y803970D01*
X378880Y804510D01*
X381280Y805310D01*
X383680Y806910D01*
X385280Y808770D01*
X386080Y810640D01*
Y812510D01*
X385280Y814370D01*
X384080Y815970D01*
X382480Y817310D01*
G01X386080Y830640D02*
X362080D01*
X366880Y827440D01*
G01X386080D02*
Y833840D01*
G01Y850110D02*
X380880Y850640D01*
X376480Y851440D01*
X372480Y852510D01*
X368080Y853840D01*
X362080Y855970D01*
Y845310D01*
G01X303120Y1116230D02*
X301920Y1114630D01*
X301120Y1112760D01*
Y1110630D01*
X302320Y1108230D01*
X304320Y1106360D01*
X306720Y1105030D01*
X310720Y1103960D01*
X314320Y1103690D01*
X317920Y1104230D01*
X320320Y1105030D01*
X322720Y1106630D01*
X324320Y1108490D01*
X325120Y1110360D01*
Y1112230D01*
X324320Y1114090D01*
X323120Y1115690D01*
X321520Y1117030D01*
G01X325120Y1130360D02*
X301120D01*
X305920Y1127160D01*
G01X325120D02*
Y1133560D01*
G01X315120Y1145290D02*
X312320Y1147160D01*
X310720Y1148760D01*
X309920Y1150890D01*
X310720Y1152760D01*
X312320Y1154090D01*
X314720Y1155160D01*
X317520Y1155430D01*
X319920Y1155160D01*
X322320Y1154090D01*
X324320Y1152490D01*
X325120Y1150630D01*
X324320Y1148490D01*
X321920Y1146630D01*
X318320Y1145560D01*
X314320Y1145290D01*
X309120Y1145830D01*
X306320Y1146630D01*
X303520Y1147960D01*
X301520Y1149830D01*
X301120Y1151690D01*
X301920Y1153560D01*
X303920Y1154890D01*
G01X544420Y1360070D02*
X543220Y1358470D01*
X542420Y1356600D01*
Y1354470D01*
X543620Y1352070D01*
X545620Y1350200D01*
X548020Y1348870D01*
X552020Y1347800D01*
X555620Y1347530D01*
X559220Y1348070D01*
X561620Y1348870D01*
X564020Y1350470D01*
X565620Y1352330D01*
X566420Y1354200D01*
Y1356070D01*
X565620Y1357930D01*
X564420Y1359530D01*
X562820Y1360870D01*
G01X566420Y1374200D02*
X542420D01*
X547220Y1371000D01*
G01X566420D02*
Y1377400D01*
G01X561620Y1388330D02*
X564420Y1389930D01*
X566020Y1392070D01*
X566420Y1394470D01*
X566020Y1396600D01*
X564020Y1398730D01*
X561620Y1400070D01*
X559220Y1400330D01*
X556420Y1399800D01*
X554420Y1397930D01*
X553620Y1396070D01*
Y1393670D01*
G01Y1396070D02*
X552420Y1397670D01*
X550420Y1399000D01*
X548020Y1399530D01*
X545620Y1399000D01*
X543620Y1397670D01*
X542420Y1395270D01*
X542820Y1392870D01*
X544420Y1390470D01*
G01X590140Y1357530D02*
X588940Y1355930D01*
X588140Y1354060D01*
Y1351930D01*
X589340Y1349530D01*
X591340Y1347660D01*
X593740Y1346330D01*
X597740Y1345260D01*
X601340Y1344990D01*
X604940Y1345530D01*
X607340Y1346330D01*
X609740Y1347930D01*
X611340Y1349790D01*
X612140Y1351660D01*
Y1353530D01*
X611340Y1355390D01*
X610140Y1356990D01*
X608540Y1358330D01*
G01X612140Y1371660D02*
X588140D01*
X592940Y1368460D01*
G01X612140D02*
Y1374860D01*
G01Y1391660D02*
X588140D01*
X592940Y1388460D01*
G01X612140D02*
Y1394860D01*
G01X232000Y1316890D02*
X230800Y1315290D01*
X230000Y1313420D01*
Y1311290D01*
X231200Y1308890D01*
X233200Y1307020D01*
X235600Y1305690D01*
X239600Y1304620D01*
X243200Y1304350D01*
X246800Y1304890D01*
X249200Y1305690D01*
X251600Y1307290D01*
X253200Y1309150D01*
X254000Y1311020D01*
Y1312890D01*
X253200Y1314750D01*
X252000Y1316350D01*
X250400Y1317690D01*
G01X254000Y1331020D02*
X230000D01*
X234800Y1327820D01*
G01X254000D02*
Y1334220D01*
G01X210410Y862360D02*
Y845160D01*
X211480Y841560D01*
X213610Y839160D01*
X216280Y838360D01*
X218950Y839160D01*
X221080Y841560D01*
X222150Y845160D01*
Y862360D01*
G01X230410Y843160D02*
X232010Y840360D01*
X234150Y838760D01*
X236550Y838360D01*
X238680Y838760D01*
X240810Y840760D01*
X242150Y843160D01*
X242410Y845560D01*
X241880Y848360D01*
X240010Y850360D01*
X238150Y851160D01*
X235750D01*
G01X238150D02*
X239750Y852360D01*
X241080Y854360D01*
X241610Y856760D01*
X241080Y859160D01*
X239750Y861160D01*
X237350Y862360D01*
X234950Y861960D01*
X232550Y860360D01*
G01X507590Y1283840D02*
Y1266640D01*
X508660Y1263040D01*
X510790Y1260640D01*
X513460Y1259840D01*
X516130Y1260640D01*
X518260Y1263040D01*
X519330Y1266640D01*
Y1283840D01*
G01X533460Y1259840D02*
Y1283840D01*
X530260Y1279040D01*
G01Y1259840D02*
X536660D01*
G01X345810Y1521940D02*
Y1497940D01*
X356470D01*
G01X374340D02*
Y1521940D01*
X364470Y1504740D01*
X377810D01*
G01X385280Y1492360D02*
Y1487280D01*
G01Y1515220D02*
Y1522840D01*
G01Y1499980D02*
G03Y1492360I1270J-3810D01*
G01Y1507600D02*
G03Y1499980I1270J-3810D01*
G01Y1507600D02*
G02Y1515220I1270J3810D01*
G01X305040Y1475080D02*
X310120D01*
G01X282180D02*
X274560D01*
G01X473850Y1570740D02*
X472250Y1571940D01*
X470380Y1572740D01*
X468250D01*
X465850Y1571540D01*
X463980Y1569540D01*
X462650Y1567140D01*
X461580Y1563140D01*
X461310Y1559540D01*
X461850Y1555940D01*
X462650Y1553540D01*
X464250Y1551140D01*
X466110Y1549540D01*
X467980Y1548740D01*
X469850D01*
X471710Y1549540D01*
X473310Y1550740D01*
X474650Y1552340D01*
G01X487450Y1548740D02*
X487980Y1553940D01*
X488780Y1558340D01*
X489850Y1562340D01*
X491180Y1566740D01*
X493310Y1572740D01*
X482650D01*
G01X354470Y1565660D02*
X352870Y1566860D01*
X351000Y1567660D01*
X348870D01*
X346470Y1566460D01*
X344600Y1564460D01*
X343270Y1562060D01*
X342200Y1558060D01*
X341930Y1554460D01*
X342470Y1550860D01*
X343270Y1548460D01*
X344870Y1546060D01*
X346730Y1544460D01*
X348600Y1543660D01*
X350470D01*
X352330Y1544460D01*
X353930Y1545660D01*
X355270Y1547260D01*
G01X362730D02*
X364330Y1545260D01*
X366200Y1544060D01*
X368600Y1543660D01*
X371000Y1544460D01*
X372870Y1546060D01*
X374200Y1548860D01*
X374470Y1552060D01*
X373930Y1555260D01*
X372600Y1557260D01*
X370730Y1558860D01*
X368870Y1559260D01*
X367000Y1558860D01*
X364600Y1557260D01*
X365400Y1567660D01*
X372600D01*
G01X476390Y1517400D02*
X474790Y1518600D01*
X472920Y1519400D01*
X470790D01*
X468390Y1518200D01*
X466520Y1516200D01*
X465190Y1513800D01*
X464120Y1509800D01*
X463850Y1506200D01*
X464390Y1502600D01*
X465190Y1500200D01*
X466790Y1497800D01*
X468650Y1496200D01*
X470520Y1495400D01*
X472390D01*
X474250Y1496200D01*
X475850Y1497400D01*
X477190Y1499000D01*
G01X485450Y1505400D02*
X487320Y1508200D01*
X488920Y1509800D01*
X491050Y1510600D01*
X492920Y1509800D01*
X494250Y1508200D01*
X495320Y1505800D01*
X495590Y1503000D01*
X495320Y1500600D01*
X494250Y1498200D01*
X492650Y1496200D01*
X490790Y1495400D01*
X488650Y1496200D01*
X486790Y1498600D01*
X485720Y1502200D01*
X485450Y1506200D01*
X485990Y1511400D01*
X486790Y1514200D01*
X488120Y1517000D01*
X489990Y1519000D01*
X491850Y1519400D01*
X493720Y1518600D01*
X495050Y1516600D01*
G01X33150Y1711680D02*
X34480Y1709280D01*
X36080Y1707680D01*
X37950Y1706880D01*
X40080Y1707680D01*
X41680Y1709280D01*
X43280Y1711680D01*
X43810Y1714880D01*
Y1730880D01*
G01X53410Y1726880D02*
X55010Y1729280D01*
X56880Y1730480D01*
X59010Y1730880D01*
X61680Y1730080D01*
X63550Y1728080D01*
X64080Y1725680D01*
X63810Y1723280D01*
X62750Y1721280D01*
X57410Y1717280D01*
X55010Y1714480D01*
X53410Y1710480D01*
X52880Y1706880D01*
X64080D01*
G01X802740Y239390D02*
X778740D01*
Y246050D01*
X779940Y248190D01*
X781540Y249520D01*
X784740Y250050D01*
X787940Y249520D01*
X789940Y247920D01*
X791140Y246050D01*
Y239390D01*
G01Y246050D02*
X802740Y250050D01*
G01X782740Y259650D02*
X780340Y261250D01*
X779140Y263120D01*
X778740Y265250D01*
X779540Y267920D01*
X781540Y269790D01*
X783940Y270320D01*
X786340Y270050D01*
X788340Y268990D01*
X792340Y263650D01*
X795140Y261250D01*
X799140Y259650D01*
X802740Y259120D01*
Y270320D01*
G01X1187350Y303940D02*
X1185750Y305140D01*
X1183880Y305940D01*
X1181750D01*
X1179350Y304740D01*
X1177480Y302740D01*
X1176150Y300340D01*
X1175080Y296340D01*
X1174810Y292740D01*
X1175350Y289140D01*
X1176150Y286740D01*
X1177750Y284340D01*
X1179610Y282740D01*
X1181480Y281940D01*
X1183350D01*
X1185210Y282740D01*
X1186810Y283940D01*
X1188150Y285540D01*
G01X1196410Y301940D02*
X1198010Y304340D01*
X1199880Y305540D01*
X1202010Y305940D01*
X1204680Y305140D01*
X1206550Y303140D01*
X1207080Y300740D01*
X1206810Y298340D01*
X1205750Y296340D01*
X1200410Y292340D01*
X1198010Y289540D01*
X1196410Y285540D01*
X1195880Y281940D01*
X1207080D01*
G01X1221480D02*
Y305940D01*
X1218280Y301140D01*
G01Y281940D02*
X1224680D01*
G01X1324200Y300890D02*
X1323000Y299290D01*
X1322200Y297420D01*
Y295290D01*
X1323400Y292890D01*
X1325400Y291020D01*
X1327800Y289690D01*
X1331800Y288620D01*
X1335400Y288350D01*
X1339000Y288890D01*
X1341400Y289690D01*
X1343800Y291290D01*
X1345400Y293150D01*
X1346200Y295020D01*
Y296890D01*
X1345400Y298750D01*
X1344200Y300350D01*
X1342600Y301690D01*
G01X1346200Y315020D02*
X1322200D01*
X1327000Y311820D01*
G01X1346200D02*
Y318220D01*
G01Y335020D02*
X1345800Y336890D01*
X1344600Y339020D01*
X1342600Y340350D01*
X1339800Y340890D01*
X1337000Y340350D01*
X1334600Y338750D01*
X1333400Y336350D01*
Y333690D01*
X1332600Y332090D01*
X1330600Y330750D01*
X1327800Y330220D01*
X1325000Y331020D01*
X1323000Y332890D01*
X1322200Y335020D01*
X1323000Y337150D01*
X1325000Y339020D01*
X1327800Y339820D01*
X1330600Y339290D01*
X1332600Y337950D01*
X1333400Y336350D01*
Y333690D01*
X1334600Y331290D01*
X1337000Y329690D01*
X1339800Y329150D01*
X1342600Y329690D01*
X1344600Y331020D01*
X1345800Y333150D01*
X1346200Y335020D01*
G01X1215290Y354740D02*
X1213690Y355940D01*
X1211820Y356740D01*
X1209690D01*
X1207290Y355540D01*
X1205420Y353540D01*
X1204090Y351140D01*
X1203020Y347140D01*
X1202750Y343540D01*
X1203290Y339940D01*
X1204090Y337540D01*
X1205690Y335140D01*
X1207550Y333540D01*
X1209420Y332740D01*
X1211290D01*
X1213150Y333540D01*
X1214750Y334740D01*
X1216090Y336340D01*
G01X1229420Y332740D02*
Y356740D01*
X1226220Y351940D01*
G01Y332740D02*
X1232620D01*
G01X1244890Y335540D02*
X1246750Y333540D01*
X1248890Y332740D01*
X1251020Y333540D01*
X1252890Y335940D01*
X1254220Y339540D01*
X1254750Y343140D01*
Y347540D01*
X1254220Y351140D01*
X1252890Y354340D01*
X1251290Y355940D01*
X1249420Y356740D01*
X1247290Y355940D01*
X1245690Y354340D01*
X1244620Y351940D01*
X1244090Y348740D01*
X1244620Y345940D01*
X1245950Y343140D01*
X1247550Y341540D01*
X1249420Y341140D01*
X1251550Y341940D01*
X1253150Y343940D01*
X1254750Y347540D01*
G01X839060Y247550D02*
X837860Y245950D01*
X837060Y244080D01*
Y241950D01*
X838260Y239550D01*
X840260Y237680D01*
X842660Y236350D01*
X846660Y235280D01*
X850260Y235010D01*
X853860Y235550D01*
X856260Y236350D01*
X858660Y237950D01*
X860260Y239810D01*
X861060Y241680D01*
Y243550D01*
X860260Y245410D01*
X859060Y247010D01*
X857460Y248350D01*
G01X841060Y256610D02*
X838660Y258210D01*
X837460Y260080D01*
X837060Y262210D01*
X837860Y264880D01*
X839860Y266750D01*
X842260Y267280D01*
X844660Y267010D01*
X846660Y265950D01*
X850660Y260610D01*
X853460Y258210D01*
X857460Y256610D01*
X861060Y256080D01*
Y267280D01*
G01X856260Y275810D02*
X859060Y277410D01*
X860660Y279550D01*
X861060Y281950D01*
X860660Y284080D01*
X858660Y286210D01*
X856260Y287550D01*
X853860Y287810D01*
X851060Y287280D01*
X849060Y285410D01*
X848260Y283550D01*
Y281150D01*
G01Y283550D02*
X847060Y285150D01*
X845060Y286480D01*
X842660Y287010D01*
X840260Y286480D01*
X838260Y285150D01*
X837060Y282750D01*
X837460Y280350D01*
X839060Y277950D01*
G01X931770Y238760D02*
Y262760D01*
X937110D01*
X939240Y261560D01*
X940840Y259960D01*
X942170Y257560D01*
X943240Y254760D01*
X943510Y250760D01*
X943240Y246760D01*
X942170Y243960D01*
X940840Y241560D01*
X939240Y239960D01*
X937110Y238760D01*
X931770D01*
G01X957640D02*
Y262760D01*
X954440Y257960D01*
G01Y238760D02*
X960840D01*
G01X790040Y1379190D02*
X766040D01*
Y1385850D01*
X767240Y1387990D01*
X768840Y1389320D01*
X772040Y1389850D01*
X775240Y1389320D01*
X777240Y1387720D01*
X778440Y1385850D01*
Y1379190D01*
G01Y1385850D02*
X790040Y1389850D01*
G01X780040Y1399450D02*
X777240Y1401320D01*
X775640Y1402920D01*
X774840Y1405050D01*
X775640Y1406920D01*
X777240Y1408250D01*
X779640Y1409320D01*
X782440Y1409590D01*
X784840Y1409320D01*
X787240Y1408250D01*
X789240Y1406650D01*
X790040Y1404790D01*
X789240Y1402650D01*
X786840Y1400790D01*
X783240Y1399720D01*
X779240Y1399450D01*
X774040Y1399990D01*
X771240Y1400790D01*
X768440Y1402120D01*
X766440Y1403990D01*
X766040Y1405850D01*
X766840Y1407720D01*
X768840Y1409050D01*
G01X627520Y1314560D02*
Y1319640D01*
G01Y1291700D02*
Y1284080D01*
G01Y1306940D02*
G03Y1314560I-1270J3810D01*
G01Y1299320D02*
G03Y1306940I-1270J3810D01*
G01Y1299320D02*
G02Y1291700I-1270J-3810D01*
G01X720020Y1390390D02*
X718820Y1388790D01*
X718020Y1386920D01*
Y1384790D01*
X719220Y1382390D01*
X721220Y1380520D01*
X723620Y1379190D01*
X727620Y1378120D01*
X731220Y1377850D01*
X734820Y1378390D01*
X737220Y1379190D01*
X739620Y1380790D01*
X741220Y1382650D01*
X742020Y1384520D01*
Y1386390D01*
X741220Y1388250D01*
X740020Y1389850D01*
X738420Y1391190D01*
G01X742020Y1404520D02*
X718020D01*
X722820Y1401320D01*
G01X742020D02*
Y1407720D01*
G01Y1427720D02*
X718020D01*
X735220Y1417850D01*
Y1431190D01*
G01X646020Y1357530D02*
X644820Y1355930D01*
X644020Y1354060D01*
Y1351930D01*
X645220Y1349530D01*
X647220Y1347660D01*
X649620Y1346330D01*
X653620Y1345260D01*
X657220Y1344990D01*
X660820Y1345530D01*
X663220Y1346330D01*
X665620Y1347930D01*
X667220Y1349790D01*
X668020Y1351660D01*
Y1353530D01*
X667220Y1355390D01*
X666020Y1356990D01*
X664420Y1358330D01*
G01X668020Y1371660D02*
X644020D01*
X648820Y1368460D01*
G01X668020D02*
Y1374860D01*
G01X648020Y1386590D02*
X645620Y1388190D01*
X644420Y1390060D01*
X644020Y1392190D01*
X644820Y1394860D01*
X646820Y1396730D01*
X649220Y1397260D01*
X651620Y1396990D01*
X653620Y1395930D01*
X657620Y1390590D01*
X660420Y1388190D01*
X664420Y1386590D01*
X668020Y1386060D01*
Y1397260D01*
G01X902560Y1395630D02*
X901360Y1394030D01*
X900560Y1392160D01*
Y1390030D01*
X901760Y1387630D01*
X903760Y1385760D01*
X906160Y1384430D01*
X910160Y1383360D01*
X913760Y1383090D01*
X917360Y1383630D01*
X919760Y1384430D01*
X922160Y1386030D01*
X923760Y1387890D01*
X924560Y1389760D01*
Y1391630D01*
X923760Y1393490D01*
X922560Y1395090D01*
X920960Y1396430D01*
G01X924560Y1409760D02*
X900560D01*
X905360Y1406560D01*
G01X924560D02*
Y1412960D01*
G01X900560Y1429760D02*
X901360Y1427630D01*
X903360Y1426030D01*
X905760Y1424960D01*
X908960Y1424160D01*
X912560Y1423890D01*
X916160Y1424160D01*
X919360Y1424960D01*
X921760Y1426030D01*
X923760Y1427630D01*
X924560Y1429760D01*
X923760Y1431890D01*
X921760Y1433490D01*
X919360Y1434560D01*
X916160Y1435360D01*
X912560Y1435630D01*
X908960Y1435360D01*
X905760Y1434560D01*
X903360Y1433490D01*
X901360Y1431890D01*
X900560Y1429760D01*
G01X856840Y1395630D02*
X855640Y1394030D01*
X854840Y1392160D01*
Y1390030D01*
X856040Y1387630D01*
X858040Y1385760D01*
X860440Y1384430D01*
X864440Y1383360D01*
X868040Y1383090D01*
X871640Y1383630D01*
X874040Y1384430D01*
X876440Y1386030D01*
X878040Y1387890D01*
X878840Y1389760D01*
Y1391630D01*
X878040Y1393490D01*
X876840Y1395090D01*
X875240Y1396430D01*
G01X876040Y1405230D02*
X878040Y1407090D01*
X878840Y1409230D01*
X878040Y1411360D01*
X875640Y1413230D01*
X872040Y1414560D01*
X868440Y1415090D01*
X864040D01*
X860440Y1414560D01*
X857240Y1413230D01*
X855640Y1411630D01*
X854840Y1409760D01*
X855640Y1407630D01*
X857240Y1406030D01*
X859640Y1404960D01*
X862840Y1404430D01*
X865640Y1404960D01*
X868440Y1406290D01*
X870040Y1407890D01*
X870440Y1409760D01*
X869640Y1411890D01*
X867640Y1413490D01*
X864040Y1415090D01*
G01X849770Y1517360D02*
Y1493360D01*
X860430D01*
G01X869230Y1496960D02*
X870830Y1494960D01*
X872700Y1493760D01*
X875100Y1493360D01*
X877500Y1494160D01*
X879370Y1495760D01*
X880700Y1498560D01*
X880970Y1501760D01*
X880430Y1504960D01*
X879100Y1506960D01*
X877230Y1508560D01*
X875370Y1508960D01*
X873500Y1508560D01*
X871100Y1506960D01*
X871900Y1517360D01*
X879100D01*
G01X889240Y1492860D02*
Y1487780D01*
G01Y1515720D02*
Y1523340D01*
G01Y1500480D02*
G03Y1492860I1270J-3810D01*
G01Y1508100D02*
G03Y1500480I1270J-3810D01*
G01Y1508100D02*
G02Y1515720I1270J3810D01*
G01X731430Y1517900D02*
X729830Y1519100D01*
X727960Y1519900D01*
X725830D01*
X723430Y1518700D01*
X721560Y1516700D01*
X720230Y1514300D01*
X719160Y1510300D01*
X718890Y1506700D01*
X719430Y1503100D01*
X720230Y1500700D01*
X721830Y1498300D01*
X723690Y1496700D01*
X725560Y1495900D01*
X727430D01*
X729290Y1496700D01*
X730890Y1497900D01*
X732230Y1499500D01*
G01X745560Y1495900D02*
X747430Y1496300D01*
X749560Y1497500D01*
X750890Y1499500D01*
X751430Y1502300D01*
X750890Y1505100D01*
X749290Y1507500D01*
X746890Y1508700D01*
X744230D01*
X742630Y1509500D01*
X741290Y1511500D01*
X740760Y1514300D01*
X741560Y1517100D01*
X743430Y1519100D01*
X745560Y1519900D01*
X747690Y1519100D01*
X749560Y1517100D01*
X750360Y1514300D01*
X749830Y1511500D01*
X748490Y1509500D01*
X746890Y1508700D01*
X744230D01*
X741830Y1507500D01*
X740230Y1505100D01*
X739690Y1502300D01*
X740230Y1499500D01*
X741560Y1497500D01*
X743690Y1496300D01*
X745560Y1495900D01*
G01X746670Y1573780D02*
X745070Y1574980D01*
X743200Y1575780D01*
X741070D01*
X738670Y1574580D01*
X736800Y1572580D01*
X735470Y1570180D01*
X734400Y1566180D01*
X734130Y1562580D01*
X734670Y1558980D01*
X735470Y1556580D01*
X737070Y1554180D01*
X738930Y1552580D01*
X740800Y1551780D01*
X742670D01*
X744530Y1552580D01*
X746130Y1553780D01*
X747470Y1555380D01*
G01X760800Y1551780D02*
Y1575780D01*
X757600Y1570980D01*
G01Y1551780D02*
X764000D01*
G01X774930Y1555380D02*
X776530Y1553380D01*
X778400Y1552180D01*
X780800Y1551780D01*
X783200Y1552580D01*
X785070Y1554180D01*
X786400Y1556980D01*
X786670Y1560180D01*
X786130Y1563380D01*
X784800Y1565380D01*
X782930Y1566980D01*
X781070Y1567380D01*
X779200Y1566980D01*
X776800Y1565380D01*
X777600Y1575780D01*
X784800D01*
G01X619350Y1611500D02*
Y1594300D01*
X620420Y1590700D01*
X622550Y1588300D01*
X625220Y1587500D01*
X627890Y1588300D01*
X630020Y1590700D01*
X631090Y1594300D01*
Y1611500D01*
G01X640150Y1607500D02*
X641750Y1609900D01*
X643620Y1611100D01*
X645750Y1611500D01*
X648420Y1610700D01*
X650290Y1608700D01*
X650820Y1606300D01*
X650550Y1603900D01*
X649490Y1601900D01*
X644150Y1597900D01*
X641750Y1595100D01*
X640150Y1591100D01*
X639620Y1587500D01*
X650820D01*
G01X860650Y1549400D02*
Y1573400D01*
X865990D01*
X868120Y1572200D01*
X869720Y1570600D01*
X871050Y1568200D01*
X872120Y1565400D01*
X872390Y1561400D01*
X872120Y1557400D01*
X871050Y1554600D01*
X869720Y1552200D01*
X868120Y1550600D01*
X865990Y1549400D01*
X860650D01*
G01X881450Y1569400D02*
X883050Y1571800D01*
X884920Y1573000D01*
X887050Y1573400D01*
X889720Y1572600D01*
X891590Y1570600D01*
X892120Y1568200D01*
X891850Y1565800D01*
X890790Y1563800D01*
X885450Y1559800D01*
X883050Y1557000D01*
X881450Y1553000D01*
X880920Y1549400D01*
X892120D01*
G01X1386970Y508000D02*
Y532000D01*
X1393630D01*
X1395770Y530800D01*
X1397100Y529200D01*
X1397630Y526000D01*
X1397100Y522800D01*
X1395500Y520800D01*
X1393630Y519600D01*
X1386970D01*
G01X1393630D02*
X1397630Y508000D01*
G01X1406430Y511600D02*
X1408030Y509600D01*
X1409900Y508400D01*
X1412300Y508000D01*
X1414700Y508800D01*
X1416570Y510400D01*
X1417900Y513200D01*
X1418170Y516400D01*
X1417630Y519600D01*
X1416300Y521600D01*
X1414430Y523200D01*
X1412570Y523600D01*
X1410700Y523200D01*
X1408300Y521600D01*
X1409100Y532000D01*
X1416300D01*
G01X1453780Y338050D02*
X1477780D01*
Y348710D01*
G01Y362850D02*
X1472580Y363380D01*
X1468180Y364180D01*
X1464180Y365250D01*
X1459780Y366580D01*
X1453780Y368710D01*
Y358050D01*
G01X1560520Y644290D02*
X1559320Y642690D01*
X1558520Y640820D01*
Y638690D01*
X1559720Y636290D01*
X1561720Y634420D01*
X1564120Y633090D01*
X1568120Y632020D01*
X1571720Y631750D01*
X1575320Y632290D01*
X1577720Y633090D01*
X1580120Y634690D01*
X1581720Y636550D01*
X1582520Y638420D01*
Y640290D01*
X1581720Y642150D01*
X1580520Y643750D01*
X1578920Y645090D01*
G01X1577720Y652550D02*
X1580520Y654150D01*
X1582120Y656290D01*
X1582520Y658690D01*
X1582120Y660820D01*
X1580120Y662950D01*
X1577720Y664290D01*
X1575320Y664550D01*
X1572520Y664020D01*
X1570520Y662150D01*
X1569720Y660290D01*
Y657890D01*
G01Y660290D02*
X1568520Y661890D01*
X1566520Y663220D01*
X1564120Y663750D01*
X1561720Y663220D01*
X1559720Y661890D01*
X1558520Y659490D01*
X1558920Y657090D01*
X1560520Y654690D01*
G01X1582520Y681620D02*
X1558520D01*
X1575720Y671750D01*
Y685090D01*
G01X1421030Y580800D02*
X1419430Y582000D01*
X1417560Y582800D01*
X1415430D01*
X1413030Y581600D01*
X1411160Y579600D01*
X1409830Y577200D01*
X1408760Y573200D01*
X1408490Y569600D01*
X1409030Y566000D01*
X1409830Y563600D01*
X1411430Y561200D01*
X1413290Y559600D01*
X1415160Y558800D01*
X1417030D01*
X1418890Y559600D01*
X1420490Y560800D01*
X1421830Y562400D01*
G01X1430090Y578800D02*
X1431690Y581200D01*
X1433560Y582400D01*
X1435690Y582800D01*
X1438360Y582000D01*
X1440230Y580000D01*
X1440760Y577600D01*
X1440490Y575200D01*
X1439430Y573200D01*
X1434090Y569200D01*
X1431690Y566400D01*
X1430090Y562400D01*
X1429560Y558800D01*
X1440760D01*
G01X1458360D02*
Y582800D01*
X1448490Y565600D01*
X1461830D01*
G01X1446900Y722830D02*
X1464100D01*
X1467700Y723900D01*
X1470100Y726030D01*
X1470900Y728700D01*
X1470100Y731370D01*
X1467700Y733500D01*
X1464100Y734570D01*
X1446900D01*
G01X1470900Y751900D02*
X1446900D01*
X1464100Y742030D01*
Y755370D01*
G01X1468490Y885800D02*
Y909800D01*
X1475150D01*
X1477290Y908600D01*
X1478620Y907000D01*
X1479150Y903800D01*
X1478620Y900600D01*
X1477020Y898600D01*
X1475150Y897400D01*
X1468490D01*
G01X1475150D02*
X1479150Y885800D01*
G01X1493820D02*
Y909800D01*
X1490620Y905000D01*
G01Y885800D02*
X1497020D01*
G01X1557980Y776370D02*
X1556780Y774770D01*
X1555980Y772900D01*
Y770770D01*
X1557180Y768370D01*
X1559180Y766500D01*
X1561580Y765170D01*
X1565580Y764100D01*
X1569180Y763830D01*
X1572780Y764370D01*
X1575180Y765170D01*
X1577580Y766770D01*
X1579180Y768630D01*
X1579980Y770500D01*
Y772370D01*
X1579180Y774230D01*
X1577980Y775830D01*
X1576380Y777170D01*
G01X1575180Y784630D02*
X1577980Y786230D01*
X1579580Y788370D01*
X1579980Y790770D01*
X1579580Y792900D01*
X1577580Y795030D01*
X1575180Y796370D01*
X1572780Y796630D01*
X1569980Y796100D01*
X1567980Y794230D01*
X1567180Y792370D01*
Y789970D01*
G01Y792370D02*
X1565980Y793970D01*
X1563980Y795300D01*
X1561580Y795830D01*
X1559180Y795300D01*
X1557180Y793970D01*
X1555980Y791570D01*
X1556380Y789170D01*
X1557980Y786770D01*
G01X1576380Y804630D02*
X1578380Y806230D01*
X1579580Y808100D01*
X1579980Y810500D01*
X1579180Y812900D01*
X1577580Y814770D01*
X1574780Y816100D01*
X1571580Y816370D01*
X1568380Y815830D01*
X1566380Y814500D01*
X1564780Y812630D01*
X1564380Y810770D01*
X1564780Y808900D01*
X1566380Y806500D01*
X1555980Y807300D01*
Y814500D01*
G01X1511430Y1716760D02*
X1512760Y1714360D01*
X1514360Y1712760D01*
X1516230Y1711960D01*
X1518360Y1712760D01*
X1519960Y1714360D01*
X1521560Y1716760D01*
X1522090Y1719960D01*
Y1735960D01*
G01X1536760Y1711960D02*
Y1735960D01*
X1533560Y1731160D01*
G01Y1711960D02*
X1539960D01*
G54D14*
G01X317500Y665480D02*
X309870D01*
G01X320040Y670560D02*
Y660400D01*
G01X330200Y670560D02*
Y660400D01*
G01X340370Y665480D02*
X332740D01*
G01X203200Y642620D02*
Y650250D01*
G01X208280Y640080D02*
X198120D01*
G01X208280Y629920D02*
X198120D01*
G01X203200Y619750D02*
Y627380D01*
G01X365760Y713740D02*
X358130D01*
G01X368300Y718820D02*
Y708660D01*
G01X378460Y718820D02*
Y708660D01*
G01X388630Y713740D02*
X381000D01*
G01X383540Y990600D02*
X375920Y982980D01*
X383550Y975360D01*
X375920Y967740D01*
X381000Y962660D01*
G01X340360Y1071880D02*
X332740Y1064260D01*
X340370Y1056640D01*
X332740Y1049020D01*
X337820Y1043940D01*
G01X200660Y1021080D02*
X193040Y1013460D01*
X200670Y1005840D01*
X193040Y998220D01*
X198120Y993140D01*
G01X378460Y1103150D02*
X348460D01*
Y1111490D01*
X349960Y1114150D01*
X351960Y1115820D01*
X355960Y1116490D01*
X359960Y1115820D01*
X362460Y1113820D01*
X363960Y1111490D01*
Y1103150D01*
G01Y1111490D02*
X378460Y1116490D01*
G01Y1139150D02*
X371960Y1139820D01*
X366460Y1140820D01*
X361460Y1142150D01*
X355960Y1143820D01*
X348460Y1146490D01*
Y1133150D01*
G01X347980Y1143000D02*
X355600Y1135380D01*
X363220Y1143000D01*
X370840Y1135380D01*
X375920Y1140460D01*
G01X246620Y1470000D02*
Y1480160D01*
G01X236460Y1470000D02*
Y1480160D01*
G01X226060Y1089660D02*
X233690D01*
G01X223520Y1084580D02*
Y1094740D01*
G01X213360Y1084580D02*
Y1094740D01*
G01X203190Y1089660D02*
X210820D01*
G01X175260D02*
X182890D01*
G01X172720Y1084580D02*
Y1094740D01*
G01X162560Y1084580D02*
Y1094740D01*
G01X152390Y1089660D02*
X160020D01*
G01X350760Y1414120D02*
X358390D01*
G01X348220Y1409040D02*
Y1419200D01*
G01X338060Y1409040D02*
Y1419200D01*
G01X327890Y1414120D02*
X335520D01*
G01X284720Y1345540D02*
X277090D01*
G01X287260Y1350620D02*
Y1340460D01*
G01X297420Y1350620D02*
Y1340460D01*
G01X307590Y1345540D02*
X299960D01*
G01X381000Y919480D02*
Y911850D01*
G01X375920Y922020D02*
X386080D01*
G01X375920Y932180D02*
X386080D01*
G01X381000Y942350D02*
Y934720D01*
G01X365760Y845820D02*
X358130D01*
G01X368300Y850900D02*
Y840740D01*
G01X378460Y850900D02*
Y840740D01*
G01X388630Y845820D02*
X381000D01*
G01X320040Y1140460D02*
X327670D01*
G01X317500Y1135380D02*
Y1145540D01*
G01X307340Y1135380D02*
Y1145540D01*
G01X297170Y1140460D02*
X304800D01*
G01X561340Y1381760D02*
X568960D01*
G01X558800Y1376680D02*
Y1386840D01*
G01X548640Y1376680D02*
Y1386840D01*
G01X538480Y1381760D02*
X546100D01*
G01X607060Y1376680D02*
Y1386840D01*
G01X596900Y1376680D02*
Y1386840D01*
G01X586740Y1381760D02*
X594360D01*
G01X233920Y1345540D02*
X226290D01*
G01X236460Y1350620D02*
Y1340460D01*
G01X246620Y1350620D02*
Y1340460D01*
G01X256790Y1345540D02*
X249160D01*
G01X507200Y1548240D02*
Y1540620D01*
G01X502120Y1550780D02*
X512280D01*
G01X502120Y1560940D02*
X512280D01*
G01X507200Y1571100D02*
Y1563480D01*
G01X385280Y1548240D02*
Y1540620D01*
G01X380200Y1550780D02*
X390360D01*
G01X380200Y1560940D02*
X390360D01*
G01X385280Y1571100D02*
Y1563480D01*
G01X249160Y1475080D02*
X256780D01*
G01X226300D02*
X233920D01*
G01X507200Y1497440D02*
Y1489820D01*
G01X502120Y1499980D02*
X512280D01*
G01X502120Y1510140D02*
X512280D01*
G01X507200Y1520300D02*
Y1512680D01*
G01X777240Y281940D02*
X784860Y274320D01*
X792480Y281950D01*
X800100Y274320D01*
X805180Y279400D01*
G01X1219200Y299720D02*
Y307350D01*
G01X1224280Y297180D02*
X1214120D01*
G01X1224280Y287020D02*
X1214120D01*
G01X1219200Y276850D02*
Y284480D01*
G01X1325880Y320040D02*
X1318250D01*
G01X1328420Y325120D02*
Y314960D01*
G01X1244600Y350520D02*
Y358150D01*
G01X1249680Y347980D02*
X1239520D01*
G01X1249680Y337820D02*
X1239520D01*
G01X1244600Y327650D02*
Y335280D01*
G01X850900Y279400D02*
X858520D01*
G01X848360Y274320D02*
Y284480D01*
G01X838200Y274320D02*
Y284480D01*
G01X828040Y279400D02*
X835660D01*
G01X914580Y228920D02*
X1000580D01*
Y268920D01*
X914580D01*
Y228920D01*
G01X795020Y1416660D02*
X787400Y1424280D01*
X779780Y1416660D01*
X772160Y1424280D01*
X767080Y1419200D01*
G01X724140D02*
X716520D01*
G01X726680Y1424280D02*
Y1414120D01*
G01X736840Y1424280D02*
Y1414120D01*
G01X747000Y1419200D02*
X739380D01*
G01X662940Y1381760D02*
X670570D01*
G01X660400Y1376680D02*
Y1386840D01*
G01X650240Y1376680D02*
Y1386840D01*
G01X640070Y1381760D02*
X647700D01*
G01X609600D02*
X617220D01*
G01X922020Y1419200D02*
X929640D01*
G01X919480Y1414120D02*
Y1424280D01*
G01X909320Y1414120D02*
Y1424280D01*
G01X899160Y1419200D02*
X906780D01*
G01X873760D02*
X881380D01*
G01X871220Y1414120D02*
Y1424280D01*
G01X861060Y1414120D02*
Y1424280D01*
G01X850900Y1419200D02*
X858520D01*
G01X762240Y1497940D02*
Y1490320D01*
G01X757160Y1500480D02*
X767320D01*
G01X757160Y1510640D02*
X767320D01*
G01X762240Y1520800D02*
Y1513180D01*
G01X780020Y1566520D02*
Y1574140D01*
G01X785100Y1563980D02*
X774940D01*
G01X785100Y1553820D02*
X774940D01*
G01X780020Y1543660D02*
Y1551280D01*
G01X937320Y1578900D02*
X851320D01*
Y1538900D01*
X937320D01*
Y1578900D01*
G01X1430020Y533400D02*
X1422400Y525780D01*
X1430020Y518160D01*
X1422400Y510540D01*
X1427480Y505460D01*
G01X1577340Y662940D02*
X1584970D01*
G01X1574800Y657860D02*
Y668020D01*
G01X1564640Y657860D02*
Y668020D01*
G01X1554470Y662940D02*
X1562100D01*
G01X1447800Y563880D02*
Y556250D01*
G01X1442720Y566420D02*
X1452880D01*
G01X1442720Y576580D02*
X1452880D01*
G01X1447800Y586750D02*
Y579120D01*
G01X1338580Y325120D02*
Y314960D01*
G01X1348750Y320040D02*
X1341120D01*
G01X1509000Y878180D02*
X1516620Y885800D01*
X1508990Y893420D01*
X1516620Y901040D01*
X1511540Y906120D01*
G01X1577340Y802640D02*
X1584970D01*
G01X1574800Y797560D02*
Y807720D01*
G01X1564640Y797560D02*
Y807720D01*
G01X1554470Y802640D02*
X1562100D01*
G01X1410140Y898710D02*
X1408640Y896710D01*
X1407640Y894380D01*
Y891710D01*
X1409140Y888710D01*
X1411640Y886380D01*
X1414640Y884710D01*
X1419640Y883380D01*
X1424140Y883050D01*
X1428640Y883710D01*
X1431640Y884710D01*
X1434640Y886710D01*
X1436640Y889050D01*
X1437640Y891380D01*
Y893710D01*
X1436640Y896050D01*
X1435140Y898050D01*
X1433140Y899710D01*
G01X1412640Y915050D02*
X1409640Y917050D01*
X1408140Y919380D01*
X1407640Y922050D01*
X1408640Y925380D01*
X1411140Y927710D01*
X1414140Y928380D01*
X1417140Y928050D01*
X1419640Y926710D01*
X1424640Y920050D01*
X1428140Y917050D01*
X1433140Y915050D01*
X1437640Y914380D01*
Y928380D01*
G01Y950710D02*
X1431140Y951380D01*
X1425640Y952380D01*
X1420640Y953710D01*
X1415140Y955380D01*
X1407640Y958050D01*
Y944710D01*
G01X1430260Y923900D02*
X1437880D01*
G01X1427720Y918820D02*
Y928980D01*
G01X1417560Y918820D02*
Y928980D01*
G01X1407400Y923900D02*
X1415020D01*
G01X1487990Y962220D02*
X1485990Y963720D01*
X1483660Y964720D01*
X1480990D01*
X1477990Y963220D01*
X1475660Y960720D01*
X1473990Y957720D01*
X1472660Y952720D01*
X1472330Y948220D01*
X1472990Y943720D01*
X1473990Y940720D01*
X1475990Y937720D01*
X1478330Y935720D01*
X1480660Y934720D01*
X1482990D01*
X1485330Y935720D01*
X1487330Y937220D01*
X1488990Y939220D01*
G01X1504330Y959720D02*
X1506330Y962720D01*
X1508660Y964220D01*
X1511330Y964720D01*
X1514660Y963720D01*
X1516990Y961220D01*
X1517660Y958220D01*
X1517330Y955220D01*
X1515990Y952720D01*
X1509330Y947720D01*
X1506330Y944220D01*
X1504330Y939220D01*
X1503660Y934720D01*
X1517660D01*
G01X1540660D02*
X1542990Y935220D01*
X1545660Y936720D01*
X1547330Y939220D01*
X1547990Y942720D01*
X1547330Y946220D01*
X1545330Y949220D01*
X1542330Y950720D01*
X1538990D01*
X1536990Y951720D01*
X1535330Y954220D01*
X1534660Y957720D01*
X1535660Y961220D01*
X1537990Y963720D01*
X1540660Y964720D01*
X1543330Y963720D01*
X1545660Y961220D01*
X1546660Y957720D01*
X1545990Y954220D01*
X1544330Y951720D01*
X1542330Y950720D01*
X1538990D01*
X1535990Y949220D01*
X1533990Y946220D01*
X1533330Y942720D01*
X1533990Y939220D01*
X1535660Y936720D01*
X1538330Y935220D01*
X1540660Y934720D01*
G01X1511540Y956920D02*
Y964540D01*
G01X1516620Y954380D02*
X1506460D01*
G01X1516620Y944220D02*
X1506460D01*
G01X1511540Y934060D02*
Y941680D01*
G01X1410140Y1038410D02*
X1408640Y1036410D01*
X1407640Y1034080D01*
Y1031410D01*
X1409140Y1028410D01*
X1411640Y1026080D01*
X1414640Y1024410D01*
X1419640Y1023080D01*
X1424140Y1022750D01*
X1428640Y1023410D01*
X1431640Y1024410D01*
X1434640Y1026410D01*
X1436640Y1028750D01*
X1437640Y1031080D01*
Y1033410D01*
X1436640Y1035750D01*
X1435140Y1037750D01*
X1433140Y1039410D01*
G01X1431640Y1053750D02*
X1435140Y1055750D01*
X1437140Y1058410D01*
X1437640Y1061410D01*
X1437140Y1064080D01*
X1434640Y1066750D01*
X1431640Y1068410D01*
X1428640Y1068750D01*
X1425140Y1068080D01*
X1422640Y1065750D01*
X1421640Y1063410D01*
Y1060410D01*
G01Y1063410D02*
X1420140Y1065410D01*
X1417640Y1067080D01*
X1414640Y1067750D01*
X1411640Y1067080D01*
X1409140Y1065410D01*
X1407640Y1062410D01*
X1408140Y1059410D01*
X1410140Y1056410D01*
G01X1425140Y1084750D02*
X1421640Y1087080D01*
X1419640Y1089080D01*
X1418640Y1091750D01*
X1419640Y1094080D01*
X1421640Y1095750D01*
X1424640Y1097080D01*
X1428140Y1097410D01*
X1431140Y1097080D01*
X1434140Y1095750D01*
X1436640Y1093750D01*
X1437640Y1091410D01*
X1436640Y1088750D01*
X1433640Y1086410D01*
X1429140Y1085080D01*
X1424140Y1084750D01*
X1417640Y1085410D01*
X1414140Y1086410D01*
X1410640Y1088080D01*
X1408140Y1090410D01*
X1407640Y1092750D01*
X1408640Y1095080D01*
X1411140Y1096750D01*
G01X1414780Y1059180D02*
X1407160D01*
G01X1417320Y1064260D02*
Y1054100D01*
G01X1427480Y1064260D02*
Y1054100D01*
G01X1437640Y1059180D02*
X1430020D01*
G54D15*
G01X591820Y1584960D02*
G03I-5080J2540D01*
G54D16*
G01X305120Y655480D02*
Y615480D01*
X345120D01*
Y715480D01*
X305120D01*
Y655480D01*
G01X193200Y655000D02*
X153200D01*
Y615000D01*
X253200D01*
Y655000D01*
X193200D01*
G01X353380Y703740D02*
Y663740D01*
X393380D01*
Y763740D01*
X353380D01*
Y703740D01*
G01X371000Y995360D02*
X331000D01*
Y955360D01*
X371000D01*
G01X391000Y995360D02*
X431000D01*
Y955360D01*
X391000D01*
G01X327820Y1076640D02*
X287820D01*
Y1036640D01*
X327820D01*
G01X347820Y1076640D02*
X387820D01*
Y1036640D01*
X347820D01*
G01X188120Y1025840D02*
X148120D01*
Y985840D01*
X188120D01*
G01X208120Y1025840D02*
X248120D01*
Y985840D01*
X208120D01*
G01X343220Y1130460D02*
Y1090460D01*
X383220D01*
Y1130460D01*
G01X343220Y1150460D02*
Y1190460D01*
X383220D01*
Y1150460D01*
G01X617520Y1321860D02*
X577520D01*
Y1281860D01*
X677520D01*
Y1321860D01*
X617520D01*
G01X312340Y1485080D02*
Y1525080D01*
X272340D01*
Y1425080D01*
X312340D01*
Y1485080D01*
G01X413940Y1424120D02*
Y1464120D01*
X373940D01*
Y1364120D01*
X413940D01*
Y1424120D01*
G01X261540Y1485080D02*
Y1525080D01*
X221540D01*
Y1425080D01*
X261540D01*
Y1485080D01*
G01X238440Y1099660D02*
Y1139660D01*
X198440D01*
Y1039660D01*
X238440D01*
Y1099660D01*
G01X187640D02*
Y1139660D01*
X147640D01*
Y1039660D01*
X187640D01*
Y1099660D01*
G01X363140Y1424120D02*
Y1464120D01*
X323140D01*
Y1364120D01*
X363140D01*
Y1424120D01*
G01X272340Y1335540D02*
Y1295540D01*
X312340D01*
Y1395540D01*
X272340D01*
Y1335540D01*
G01X391000Y907100D02*
X431000D01*
Y947100D01*
X331000D01*
Y907100D01*
X391000D01*
G01X353380Y835820D02*
Y795820D01*
X393380D01*
Y895820D01*
X353380D01*
Y835820D01*
G01X332420Y1150460D02*
Y1190460D01*
X292420D01*
Y1090460D01*
X332420D01*
Y1150460D01*
G01X573720Y1391760D02*
Y1431760D01*
X533720D01*
Y1331760D01*
X573720D01*
Y1391760D01*
G01X621980D02*
Y1431760D01*
X581980D01*
Y1331760D01*
X621980D01*
Y1391760D01*
G01X221540Y1335540D02*
Y1295540D01*
X261540D01*
Y1395540D01*
X221540D01*
Y1335540D01*
G01X595160Y1573260D02*
X665160D01*
Y1463260D01*
X595160D01*
Y1573260D01*
G01X395280Y1485060D02*
X435280D01*
Y1525060D01*
X335280D01*
Y1485060D01*
X395280D01*
G01X517200Y1535860D02*
X557200D01*
Y1575860D01*
X457200D01*
Y1535860D01*
X517200D01*
G01X395280D02*
X435280D01*
Y1575860D01*
X335280D01*
Y1535860D01*
X395280D01*
G01X517200Y1485060D02*
X557200D01*
Y1525060D01*
X457200D01*
Y1485060D01*
X517200D01*
G01X772480Y269400D02*
Y229400D01*
X812480D01*
Y269400D01*
G01X772480Y289400D02*
Y329400D01*
X812480D01*
Y289400D01*
G01X1209200Y312100D02*
X1169200D01*
Y272100D01*
X1269200D01*
Y312100D01*
X1209200D01*
G01X1313500Y310040D02*
Y270040D01*
X1353500D01*
Y370040D01*
X1313500D01*
Y310040D01*
G01X1234600Y362900D02*
X1194600D01*
Y322900D01*
X1294600D01*
Y362900D01*
X1234600D01*
G01X863280Y289400D02*
Y329400D01*
X823280D01*
Y229400D01*
X863280D01*
Y289400D01*
G01X799780Y1429200D02*
Y1469200D01*
X759780D01*
Y1429200D01*
G01X799780Y1409200D02*
Y1369200D01*
X759780D01*
Y1409200D01*
G01X711760D02*
Y1369200D01*
X751760D01*
Y1469200D01*
X711760D01*
Y1409200D01*
G01X675320Y1391760D02*
Y1431760D01*
X635320D01*
Y1331760D01*
X675320D01*
Y1391760D01*
G01X934400Y1429200D02*
Y1469200D01*
X894400D01*
Y1369200D01*
X934400D01*
Y1429200D01*
G01X886140D02*
Y1469200D01*
X846140D01*
Y1369200D01*
X886140D01*
Y1429200D01*
G01X899240Y1485560D02*
X939240D01*
Y1525560D01*
X839240D01*
Y1485560D01*
X899240D01*
G01X772240D02*
X812240D01*
Y1525560D01*
X712240D01*
Y1485560D01*
X772240D01*
G01X770020Y1578900D02*
X730020D01*
Y1538900D01*
X830020D01*
Y1578900D01*
X770020D01*
G01X1417480Y538160D02*
X1377480D01*
Y498160D01*
X1417480D01*
G01X1437480Y538160D02*
X1477480D01*
Y498160D01*
X1437480D01*
G01X1375420Y247980D02*
Y447980D01*
X1535420D01*
Y247980D01*
X1375420D01*
G01X1589720Y672940D02*
Y712940D01*
X1549720D01*
Y612940D01*
X1589720D01*
Y672940D01*
G01X1457800Y551500D02*
X1497800D01*
Y591500D01*
X1397800D01*
Y551500D01*
X1457800D01*
G01X1521540Y873420D02*
X1561540D01*
Y913420D01*
X1521540D01*
G01X1501540Y873420D02*
X1461540D01*
Y913420D01*
X1501540D01*
G01X1589720Y812640D02*
Y852640D01*
X1549720D01*
Y752640D01*
X1589720D01*
Y812640D01*
G01X1442640Y933900D02*
Y973900D01*
X1402640D01*
Y873900D01*
X1442640D01*
Y933900D01*
G01X1501540Y969300D02*
X1461540D01*
Y929300D01*
X1561540D01*
Y969300D01*
X1501540D01*
G01X1402400Y1049180D02*
Y1009180D01*
X1442400D01*
Y1109180D01*
X1402400D01*
Y1049180D01*
G54D17*
G01X131790Y959360D02*
G03I-14810J0D01*
G01X1372310Y622420D02*
G03I-7070J0D01*
M02*
