G04 ================== begin FILE IDENTIFICATION RECORD ==================*
G04 Layout Name:  ASR6601QFN68_Module_V10_210527.brd*
G04 Film Name:    SOLD_BOT*
G04 File Format:  Gerber RS274X*
G04 File Origin:  Cadence Allegro 16.6-2015-S088*
G04 Origin Date:  Thu May 27 20:17:09 2021*
G04 *
G04 Layer:  VIA CLASS/SOLDERMASK_BOTTOM*
G04 Layer:  PACKAGE GEOMETRY/SOLDERMASK_BOTTOM*
G04 Layer:  PIN/SOLDERMASK_BOTTOM*
G04 Layer:  BOARD GEOMETRY/OUTLINE*
G04 *
G04 Offset:    (0.0000 0.0000)*
G04 Mirror:    No*
G04 Mode:      Positive*
G04 Rotation:  0*
G04 FullContactRelief:  No*
G04 UndefLineWidth:     0.0000*
G04 ================== end FILE IDENTIFICATION RECORD ====================*
%FSLAX25Y25*MOMM*%
%IR0*IPPOS*OFA0.00000B0.00000*MIA0B0*SFA1.00000B1.00000*%
%ADD17O,.6X1.3*%
%ADD15O,1.3X.6*%
%ADD13O,1.5X1.1*%
%ADD10O,1.1X1.5*%
%ADD12R,1.5X1.1*%
%ADD11R,1.1X1.5*%
%ADD14C,1.1*%
%ADD18C,1.3*%
%LPD*%
G75*
G54D10*
X75000Y0D03*
Y1800000D03*
X1725000Y0D03*
Y1800000D03*
G54D11*
X225000Y0D03*
X375000D03*
X525000D03*
Y1800000D03*
X375000D03*
X225000D03*
X675000Y0D03*
X825000D03*
X975000D03*
X1125000D03*
X1275000D03*
Y1800000D03*
X1125000D03*
X975000D03*
X825000D03*
X675000D03*
X1425000Y0D03*
X1575000D03*
Y1800000D03*
X1425000D03*
G54D12*
X0Y750000D03*
Y600000D03*
Y450000D03*
Y300000D03*
Y1500000D03*
Y1350000D03*
Y1200000D03*
Y1050000D03*
Y900000D03*
X1800000Y300000D03*
Y450000D03*
Y600000D03*
Y750000D03*
Y900000D03*
Y1050000D03*
Y1200000D03*
Y1350000D03*
Y1650000D03*
G54D13*
X0Y150000D03*
Y1650000D03*
X1800000Y150000D03*
Y1500000D03*
G54D14*
X563560Y475220D03*
Y605680D03*
Y736140D03*
X1310320Y223520D03*
X1125220D03*
X1582420D03*
G54D15*
X508000Y1649730D03*
G75*
G36*
G01X1624630Y1514550D02*
G03X1435100Y1311130I-189530J-13410D01*
G03X1624630Y1487730I0J190010D01*
G01X1624650Y1488090D01*
Y1498440D01*
X1545430D01*
X1544480Y1489500D01*
G02X1435100Y1611130I-109380J11640D01*
G02X1544480Y1512780I0J-109990D01*
G01X1545430Y1503840D01*
X1624650D01*
Y1514190D01*
X1624630Y1514550D01*
G37*
G54D17*
X1664970Y342900D03*
G54D18*
X1435100Y1501140D03*
M02*
