G04 ================== begin FILE IDENTIFICATION RECORD ==================*
G04 Layout Name:  ASR6601QFN68_Module_V10_210527.brd*
G04 Film Name:    VCC*
G04 File Format:  Gerber RS274X*
G04 File Origin:  Cadence Allegro 16.6-2015-S088*
G04 Origin Date:  Thu May 27 20:17:09 2021*
G04 *
G04 Layer:  ETCH/VCC*
G04 Layer:  PIN/VCC*
G04 Layer:  VIA CLASS/VCC*
G04 *
G04 Offset:    (0.0000 0.0000)*
G04 Mirror:    No*
G04 Mode:      Positive*
G04 Rotation:  0*
G04 FullContactRelief:  No*
G04 UndefLineWidth:     0.0000*
G04 ================== end FILE IDENTIFICATION RECORD ====================*
%FSLAX25Y25*MOMM*%
%IR0*IPPOS*OFA0.00000B0.00000*MIA0B0*SFA1.00000B1.00000*%
%ADD13O,.5X1.2*%
%ADD12O,1.2X.5*%
%ADD10C,.7*%
%ADD11C,.3556*%
%ADD14O,1.4X1.*%
%ADD15C,.2*%
%ADD16C,.3*%
%ADD17C,.15*%
%ADD18C,.25*%
%ADD19C,.656*%
G75*
%LPD*%
G75*
G36*
G01X40Y40D02*
Y99980D01*
G03Y200020I-40J50020D01*
G01Y249980D01*
G03Y350020I-40J50020D01*
G01Y399980D01*
G03Y500020I-40J50020D01*
G01Y549980D01*
G03Y650020I-40J50020D01*
G01Y699980D01*
G03Y800020I-40J50020D01*
G01Y849980D01*
G03Y950020I-40J50020D01*
G01Y999980D01*
G03Y1100020I-40J50020D01*
G01Y1149980D01*
G03Y1250020I-40J50020D01*
G01Y1299980D01*
G03Y1400020I-40J50020D01*
G01Y1449980D01*
G03Y1550020I-40J50020D01*
G01Y1599980D01*
G03Y1700020I-40J50020D01*
G01Y1799960D01*
X24770D01*
X25200Y1795350D01*
G03X124800I49800J4650D01*
G01X125230Y1799960D01*
X174770D01*
X175200Y1795350D01*
G03X274800I49800J4650D01*
G01X275230Y1799960D01*
X324770D01*
X325200Y1795350D01*
G03X424800I49800J4650D01*
G01X425230Y1799960D01*
X474770D01*
X475200Y1795350D01*
G03X574800I49800J4650D01*
G01X575230Y1799960D01*
X624770D01*
X625200Y1795350D01*
G03X724800I49800J4650D01*
G01X725230Y1799960D01*
X774770D01*
X775200Y1795350D01*
G03X874800I49800J4650D01*
G01X875230Y1799960D01*
X924770D01*
X925200Y1795350D01*
G03X1024800I49800J4650D01*
G01X1025230Y1799960D01*
X1074770D01*
X1075200Y1795350D01*
G03X1174800I49800J4650D01*
G01X1175230Y1799960D01*
X1224770D01*
X1225200Y1795350D01*
G03X1324800I49800J4650D01*
G01X1325230Y1799960D01*
X1374770D01*
X1375200Y1795350D01*
G03X1394630Y1760250I49804J4642D01*
G02X1395650Y1745000I-6167J-8072D01*
G01X1373490Y1722830D01*
G02X1297350Y1691300I-76133J76151D01*
G01X1297330D01*
G03X1187050Y1645610I13J-155966D01*
G01X1177920Y1636480D01*
G03X1142170Y1550180I86305J-86307D01*
G01Y1370010D01*
X1138390Y1369010D01*
G03X1115580Y1347350I8416J-31703D01*
G01X1115210Y1346180D01*
X1110750Y1341720D01*
X1103500Y1348960D01*
G03X1101270Y1351130I-78382J-78319D01*
G02X1102680Y1359460I3490J3694D01*
G03X1087240Y1422120I-13439J29921D01*
G03X1076960Y1424600I-10274J-20041D01*
G01X836650D01*
G03X785870Y1420810I-23851J-22519D01*
G02X767520Y1424860I-8342J5800D01*
G02X766740Y1433900I51702J9015D01*
G01Y1483440D01*
G03X738660Y1551220I-95861J-7D01*
G01X731990Y1557900D01*
X731920Y1559910D01*
G03X698130Y1526120I-32780J-1010D01*
G01X700140Y1526050D01*
X706820Y1519380D01*
G02X721700Y1483440I-35947J-35933D01*
G01Y1433900D01*
G03X752550Y1362730I97518J0D01*
G02X748790Y1345670I-6944J-7414D01*
G03X743840Y1343560I10344J-31127D01*
G02X730710Y1346850I-4723J8998D01*
G03X692750Y1297460I-27132J-18430D01*
G02X698820Y1284080I-3357J-9590D01*
G03X761680Y1276670I30421J-12261D01*
G02X765680Y1282390I5024J745D01*
G03X777700Y1287510I-6587J32134D01*
G02X784420Y1286650I2880J-4180D01*
G03X807040Y1275370I24819J21449D01*
G02X816500Y1265850I-680J-10136D01*
G03X881970Y1269950I32740J1970D01*
G02X887330Y1275360I5070J337D01*
G03X891080Y1275350I1962J32740D01*
G02X896440Y1270240I281J-5071D01*
G03X904220Y1248790I32800J-239D01*
G01Y1227220D01*
G03X985520Y1145920I81300J0D01*
G01X1194180D01*
Y443600D01*
G02X1180520Y434060I-10159J-3D01*
G03X1177390Y435030I-11262J-30806D01*
G01X1176040Y435380D01*
X1115500Y495920D01*
G03X1007640Y540600I-107860J-107850D01*
G01X762540D01*
G02X665060Y638080I0J97480D01*
G01Y852900D01*
G03X512540Y1005420I-152520J0D01*
G01X398400D01*
Y1156150D01*
G03X373430Y1216430I-85246J0D01*
G01X368020Y1221850D01*
X367790Y1223550D01*
G03X330930Y1186690I-32510J-4350D01*
G01X332630Y1186460D01*
X338050Y1181050D01*
G02X348360Y1156150I-24913J-24900D01*
G01Y989410D01*
X347970Y988470D01*
G03Y967330I25410J-10570D01*
G01X348360Y966390D01*
Y949850D01*
G03X372700Y891100I83073J0D01*
G01X388900Y874890D01*
X389130Y873190D01*
G03X417760Y844970I32510J4350D01*
G02X422230Y839610I-602J-5046D01*
G03X422250Y835090I32730J-2115D01*
G02X418110Y829720I-5064J-377D01*
G03X419150Y765050I5999J-32247D01*
G02X423450Y759690I-769J-5022D01*
G03X423460Y755320I32730J-2110D01*
G02X419160Y749950I-5071J-346D01*
G03X391920Y711600I5018J-32413D01*
G02X384610Y699960I-9990J-1842D01*
G03X336790Y658700I19375J-70796D01*
G02X318520Y658020I-9300J4093D01*
G03X312080Y666470I-28963J-15395D01*
G01Y999100D01*
G03X300180Y1029550I-44922J-5D01*
G02X299950Y1036170I3736J3444D01*
G03X297610Y1079730I-25630J20466D01*
G02Y1086890I3610J3580D01*
G03X257620Y1138210I-23296J23088D01*
G01X256420Y1137500D01*
X243170D01*
G03X117260Y1011590I0J-125910D01*
G01Y542430D01*
G03X214140Y291150I374316J0D01*
G03X254060Y329070I32241J6031D01*
G02X172300Y542430I237511J213360D01*
G01Y1011590D01*
G02X232530Y1081660I70874J0D01*
G02X243580Y1068070I1526J-10047D01*
G03X251800Y1032790I30742J-11435D01*
G03X264960Y1001140I44922J117D01*
G01X267040Y999050D01*
Y947900D01*
G02X253060Y938490I-10159J3D01*
G03X230520Y876920I-12320J-30401D01*
G01X234020Y875780D01*
Y716250D01*
X229920Y715450D01*
G03X244160Y651430I6301J-32192D01*
G02X256770Y641820I2455J-9857D01*
G03X320690Y632300I32789J804D01*
G02X330590Y630600I4821J-1600D01*
G03X330580Y629160I73391J-1230D01*
G01Y437670D01*
G03X377980Y323240I161825J0D01*
G01X399440Y301780D01*
G03X513870Y254380I114430J114425D01*
G01X720530D01*
G02X729730Y239930I-6J-10158D01*
G03X729070Y213730I29730J-13857D01*
G01X729440Y212810D01*
Y182420D01*
X537820D01*
G02X469120Y210880I0J97148D01*
G01X437000Y243000D01*
X436610Y243910D01*
G03X393630Y200930I-30210J-12770D01*
G01X394540Y200540D01*
X426660Y168420D01*
G03X537820Y122380I111160J111174D01*
G01X1758300D01*
G03X1799960Y99980I41703J27619D01*
G01Y40D01*
X1775230D01*
X1774800Y4650D01*
G03X1675200I-49800J-4650D01*
G01X1674770Y40D01*
X1625230D01*
X1624800Y4650D01*
G03X1525200I-49800J-4650D01*
G01X1524770Y40D01*
X1475230D01*
X1474800Y4650D01*
G03X1375200I-49800J-4650D01*
G01X1374770Y40D01*
X1325230D01*
X1324800Y4650D01*
G03X1225200I-49800J-4650D01*
G01X1224770Y40D01*
X1175230D01*
X1174800Y4650D01*
G03X1075200I-49800J-4650D01*
G01X1074770Y40D01*
X1025230D01*
X1024800Y4650D01*
G03X925200I-49800J-4650D01*
G01X924770Y40D01*
X875230D01*
X874800Y4650D01*
G03X775200I-49800J-4650D01*
G01X774770Y40D01*
X725230D01*
X724800Y4650D01*
G03X625200I-49800J-4650D01*
G01X624770Y40D01*
X575230D01*
X574800Y4650D01*
G03X475200I-49800J-4650D01*
G01X474770Y40D01*
X425230D01*
X424800Y4650D01*
G03X325200I-49800J-4650D01*
G01X324770Y40D01*
X275230D01*
X274800Y4650D01*
G03X175200I-49800J-4650D01*
G01X174770Y40D01*
X125230D01*
X124800Y4650D01*
G03X25200I-49800J-4650D01*
G01X24770Y40D01*
X40D01*
G37*
G36*
G01X1083250Y182420D02*
Y192820D01*
X1084120Y193690D01*
Y225650D01*
X1084490Y226570D01*
G03X1086650Y242960I-30389J12342D01*
G02X1096730Y254380I10080J1261D01*
G01X1119200D01*
G03X1244220Y379400I0J125020D01*
G01Y405390D01*
G02X1256870Y415240I10159J2D01*
G03X1297720Y446490I8052J31799D01*
G02X1308530Y456460I10157J-168D01*
G03X1277840Y489740I2106J32733D01*
G02X1267030Y479770I-10157J168D01*
G03X1256870Y478840I-2126J-32732D01*
G02X1244220Y488690I-2491J9848D01*
G01Y546480D01*
X1342770D01*
G03X1381800Y599040I21205J25025D01*
G02X1380000Y614610I5521J8527D01*
G03X1362120Y669650I-23630J22748D01*
G02X1357950Y674990I898J4999D01*
G03X1319470Y644900I-32727J2202D01*
G02X1323640Y639560I-898J-4999D01*
G03X1343900Y607020I32728J-2200D01*
G02X1344920Y598190I-1934J-4697D01*
G03X1342770Y596520I19027J-26715D01*
G01X1244220D01*
Y1146020D01*
X1248360Y1146790D01*
G03X1274940Y1160820I-9388J49978D01*
G01X1282810Y1168680D01*
X1284510Y1168910D01*
G03X1310730Y1213320I-4347J32512D01*
G02X1320190Y1227160I9467J3682D01*
G01X1376680D01*
G02X1410040Y1193800I0J-33360D01*
G01Y558920D01*
G03X1474740Y495660I63276J0D01*
G03X1474810Y540740I23861J22503D01*
G02X1455080Y558920I-1489J18180D01*
G01Y1193800D01*
G03X1376680Y1272200I-78400J0D01*
G01X1278890D01*
G02X1269020Y1284800I-6J10161D01*
G03X1269980Y1293030I-31837J7885D01*
G02X1279560Y1295840I9580J-14925D01*
G01X1543830D01*
G03X1612790Y1324410I-7J97527D01*
G01X1650030Y1361650D01*
G03X1678600Y1430610I-68957J68967D01*
G01Y1680010D01*
G02X1693970Y1717130I52492J7D01*
G01X1726830Y1749980D01*
X1728710Y1750120D01*
G03X1774800Y1795350I-3711J49880D01*
G01X1775230Y1799960D01*
X1799960D01*
Y1685300D01*
X1795530Y1684730D01*
G03Y1615270I4470J-34730D01*
G01X1799960Y1614700D01*
Y1565020D01*
X1780000D01*
G03Y1434980I0J-65020D01*
G01X1799960D01*
Y1385300D01*
X1795530Y1384730D01*
G03Y1315270I4470J-34730D01*
G01X1799960Y1314700D01*
Y1250020D01*
G03Y1149980I40J-50020D01*
G01Y1100020D01*
G03Y999980I40J-50020D01*
G01Y950020D01*
G03Y849980I40J-50020D01*
G01Y800020D01*
G03Y699980I40J-50020D01*
G01Y650020D01*
G03Y549980I40J-50020D01*
G01Y500020D01*
G03Y399980I40J-50020D01*
G01Y335300D01*
X1795530Y334730D01*
G03Y265270I4470J-34730D01*
G01X1799960Y264700D01*
Y200020D01*
G03X1761910Y182420I41J-50020D01*
G01X1614400D01*
Y565780D01*
G02X1623220Y587080I30129J0D01*
G03X1668400Y696140I-109059J109068D01*
G01Y788490D01*
G03X1631780Y876900I-125032J0D01*
G01X1612620Y896070D01*
X1612390Y897770D01*
G03X1575530Y860910I-32510J-4350D01*
G01X1577230Y860680D01*
X1596400Y841520D01*
G02X1618360Y788490I-53050J-53030D01*
G01Y696140D01*
G02X1587840Y622460I-104201J1D01*
G03X1564360Y565780I56672J-56680D01*
G01Y182420D01*
X1083250D01*
G37*
G36*
G01X1674770Y1799960D02*
X1675200Y1795350D01*
G03X1682060Y1774340I49804J4637D01*
G01X1684090Y1770940D01*
X1662130Y1748970D01*
G03X1633560Y1680010I68957J-68967D01*
G01Y1430610D01*
G02X1618190Y1393490I-52492J-7D01*
G01X1580950Y1356250D01*
G02X1543830Y1340880I-37113J37122D01*
G01X1279560D01*
G03X1247680Y1332180I7J-62787D01*
G02X1232800Y1337970I-5161J8752D01*
G03X1223940Y1352270I-31381J-9548D01*
G01Y1435740D01*
G02X1276980Y1488780I53040J0D01*
G01X1277030D01*
G03X1345990Y1517350I-7J97527D01*
G01X1364860Y1536220D01*
G02X1452690Y1572600I87829J-87829D01*
G03X1521650Y1601170I-7J97527D01*
G01X1568950Y1648470D01*
G03X1597520Y1717430I-68957J68967D01*
G01Y1755340D01*
G03X1624800Y1795350I-22521J44661D01*
G01X1625230Y1799960D01*
X1674770D01*
G37*
G36*
G01X1187210Y1509080D02*
Y1550180D01*
G02X1209760Y1604640I77021J7D01*
G01X1218890Y1613770D01*
G02X1297330Y1646260I78439J-78440D01*
G01X1297350D01*
G03X1405330Y1690990I-7J152716D01*
G01X1440920Y1726580D01*
G03X1458920Y1763240I-44666J44680D01*
G03X1474800Y1795350I-33922J36758D01*
G01X1475230Y1799960D01*
X1524770D01*
X1525200Y1795350D01*
G03X1552480Y1755340I49801J4651D01*
G01Y1717430D01*
G02X1537110Y1680310I-52492J-7D01*
G01X1489810Y1633010D01*
G02X1452690Y1617640I-37113J37122D01*
G03X1333020Y1568060I14J-169245D01*
G01X1314150Y1549190D01*
G02X1277030Y1533820I-37113J37122D01*
G01X1276980D01*
G03X1204840Y1502190I0J-98082D01*
G02X1187210Y1509080I-7470J6885D01*
G37*
%LPC*%
G75*
G36*
G01X1352250Y955340D02*
G03X1358070Y949970I5068J-346D01*
G02X1330240Y915280I4890J-32432D01*
G03X1319960Y924740I-10135J-698D01*
G02X1323270Y990120I-445J32796D01*
G03X1328920Y995490I580J5047D01*
G02X1328910Y999390I32739J2034D01*
G03X1323720Y1004750I-5071J282D01*
G02X1322680Y1070340I-787J32791D01*
G03X1332740Y1079800I-76J10160D01*
G02X1332750Y1079980I32754J-1729D01*
G03X1326710Y1085350I-5067J383D01*
G02X1353160Y1119760I-6272J32191D01*
G03X1363810Y1110300I10137J688D01*
G02X1361360Y1045000I1652J-32758D01*
G03X1355650Y1039630I-639J-5042D01*
G02X1355670Y1035690I-32730J-2136D01*
G03X1360860Y1030330I5071J-282D01*
G02X1357910Y964960I812J-32788D01*
G03X1352260Y959590I-580J-5047D01*
G02X1352250Y955340I-32739J-2048D01*
G37*
G54D19*
X1503680Y1500000D03*
%LPD*%
G75*
G54D10*
X75000Y0D03*
X225000D03*
X375000D03*
X525000D03*
X0Y750000D03*
Y600000D03*
Y450000D03*
Y300000D03*
Y150000D03*
Y1500000D03*
Y1350000D03*
Y1200000D03*
Y1050000D03*
Y900000D03*
Y1650000D03*
X525000Y1800000D03*
X375000D03*
X225000D03*
X75000D03*
X675000Y0D03*
X825000D03*
X975000D03*
X1125000D03*
X1275000D03*
Y1800000D03*
X1125000D03*
X975000D03*
X825000D03*
X675000D03*
X1425000Y0D03*
X1575000D03*
X1725000D03*
X1800000Y150000D03*
Y300000D03*
Y450000D03*
Y600000D03*
Y750000D03*
Y900000D03*
Y1050000D03*
Y1200000D03*
Y1350000D03*
Y1650000D03*
X1725000Y1800000D03*
X1575000D03*
X1425000D03*
G54D11*
X246380Y297180D03*
X129540Y353060D03*
X190500Y716280D03*
X236220Y683260D03*
X416560Y557540D03*
X452400Y517540D03*
X416560Y472440D03*
X609240Y378460D03*
X459740Y677540D03*
X456180Y757540D03*
X416560Y637540D03*
X451060Y597540D03*
X289560Y642620D03*
X406400Y231140D03*
X424180Y717540D03*
X521970Y384810D03*
X274320Y1109980D03*
X137160Y1397000D03*
X510540Y1371600D03*
X335280Y833120D03*
X193040Y1186180D03*
X240740Y908090D03*
X454960Y837540D03*
X424110Y797470D03*
X274320Y1056640D03*
X335280Y1219200D03*
X421640Y877540D03*
X454960Y917540D03*
X134620Y1539240D03*
X477200Y1592900D03*
X584860Y1518260D03*
X1049240Y347760D03*
X1069340Y678180D03*
X939800D03*
X795020Y685800D03*
X995680Y591820D03*
X866140Y594360D03*
X739140D03*
X1290320Y287020D03*
X1325220Y677190D03*
X809240Y357120D03*
X1169240Y403260D03*
X1054100Y238900D03*
X759460Y226060D03*
X1264920Y447040D03*
X1310640Y489190D03*
X1150620Y342900D03*
X1009240Y396200D03*
X627380Y327660D03*
X689240Y406400D03*
X889240Y344780D03*
X769770Y402980D03*
X969240Y346060D03*
X929240Y394940D03*
X849240Y393680D03*
X729240Y367640D03*
X1300480Y1432560D03*
X647700Y1031240D03*
X800100Y1036320D03*
X937260D03*
X1064260Y1021080D03*
X1135380Y944880D03*
X1066800Y863600D03*
X937260Y868680D03*
X800100Y871220D03*
X731520Y774700D03*
X868680Y772160D03*
X1003300D03*
X1125220Y767080D03*
X1005840Y947420D03*
X876300Y952500D03*
X734060Y955040D03*
X881380Y1104900D03*
X1003300Y1107440D03*
X1135380Y1104900D03*
X731520Y1109980D03*
X693420Y1413640D03*
X809240Y1308100D03*
X1146810Y1337310D03*
X889240Y1308100D03*
X1237180Y1292660D03*
X812800Y1402080D03*
X1089240Y1389380D03*
X1201420Y1328420D03*
X849240Y1267820D03*
X1320440Y1117540D03*
X1322920Y1037540D03*
X929240Y1270000D03*
X1280160Y1201420D03*
X969240Y1310640D03*
X729240Y1271820D03*
X1008380Y1270000D03*
X703580Y1328420D03*
X1049240Y1303020D03*
X759080Y1314520D03*
X1319520Y957540D03*
X1303020Y1567180D03*
X874320Y1597100D03*
X699140Y1558900D03*
X1582420Y734060D03*
X1518920Y571500D03*
X1363980D03*
X1356370Y637360D03*
X1498600Y518160D03*
X1590040Y1219200D03*
X1595120Y1155700D03*
X1483360D03*
X1551940Y1429000D03*
X1396240Y1360680D03*
X1365460Y1077540D03*
X1361660Y997540D03*
X1579880Y893420D03*
X1362960Y917540D03*
X1503680Y1500000D03*
X1554480Y1579880D03*
X1403680Y1641220D03*
G54D12*
X508000Y1649730D03*
G54D13*
X1664970Y342900D03*
G54D14*
X1800000Y1500000D03*
G54D15*
G01X459740Y677540D02*
X403980D01*
G03X355600Y629160I0J-48380D01*
G01Y437670D01*
G03X395670Y340930I136813J0D01*
G01X417130Y319470D01*
G03X513870Y279400I96740J96743D01*
G01X809240D01*
G01X373380Y977900D02*
Y949850D01*
G03X390390Y908790I58062J0D01*
G01X421640Y877540D01*
G01X335280Y1219200D02*
X355740Y1198740D01*
G02X373380Y1156150I-42595J-42590D01*
G01Y977900D01*
G01X809240Y279400D02*
X1119200D01*
G03X1219200Y379400I0J100000D01*
G01Y571500D01*
G01X809240Y279400D02*
Y357120D01*
G01X1219200Y571500D02*
Y1165860D01*
X1224280Y1170940D01*
G01X1363980Y571500D02*
X1219200D01*
G01X929240Y1270000D02*
Y1227220D01*
G03X985520Y1170940I56280J0D01*
G01X1224280D01*
G01D02*
X1238980D01*
G03X1257250Y1178510I0J25832D01*
G01X1280160Y1201420D01*
G01X1800000Y300000D02*
X1749480Y350520D01*
G01X1800000Y300000D02*
X1719300D01*
G01X1800000D02*
X1739900Y239900D01*
G01X1579880Y893420D02*
X1614090Y859210D01*
G02X1643380Y788490I-70731J-70720D01*
G01Y696150D01*
G02X1605530Y604770I-129220J-5D01*
G03X1589380Y565780I38991J-38990D01*
G01Y152400D01*
G01X1798720Y1351280D02*
X1800000Y1350000D01*
G01X1704340Y1351280D02*
X1798720D01*
G54D16*
G01X759460Y152400D02*
X537820D01*
G02X447890Y189650I0J127181D01*
G01X406400Y231140D01*
G01X759460Y152400D02*
X1059180D01*
G01X759460D02*
Y226060D01*
G01X1059180Y152400D02*
X1589380D01*
G01X1054100Y238900D02*
Y206120D01*
X1053230Y205250D01*
Y158350D01*
X1059180Y152400D01*
G01X1589380D02*
X1797600D01*
X1800000Y150000D01*
G54D17*
G01X240740Y908090D02*
X250740Y898090D01*
G02X256540Y884080I-14013J-14007D01*
G01Y714980D01*
G02X248480Y695520I-27518J-2D01*
G01X236220Y683260D01*
G01X274320Y1056640D02*
Y1032900D01*
G03X280880Y1017060I22404J0D01*
G01X283000Y1014940D01*
G02X289560Y999100I-15844J-15840D01*
G01Y642620D01*
G01X1425000Y1800000D02*
G02Y1742500I-28750J-28750D01*
G01X1389410Y1706910D01*
G02X1297350Y1668780I-92060J92069D01*
G01X1297330D01*
G03X1202970Y1629690I6J-133448D01*
G01X1193840Y1620560D01*
G03X1164690Y1550180I70388J-70380D01*
G01Y1366340D01*
G02X1156810Y1347310I-26918J0D01*
G01X1146810Y1337310D01*
G01X1725000Y1800000D02*
Y1788500D01*
G02X1718980Y1773980I-20537J7D01*
G01X1678050Y1733050D01*
G03X1656080Y1680010I53040J-53040D01*
G01Y1430610D01*
G02X1634110Y1377570I-75010J0D01*
G01X1596870Y1340330D01*
G02X1543830Y1318360I-53040J53040D01*
G01X1279560D01*
G03X1251090Y1306570I0J-40269D01*
G01X1237180Y1292660D01*
G01X812800Y1402080D02*
X1076960D01*
X1089240Y1389800D01*
Y1389380D01*
G01X1575000Y1800000D02*
Y1717430D01*
G02X1553030Y1664390I-75010J0D01*
G01X1505730Y1617090D01*
G02X1452690Y1595120I-53040J53040D01*
G03X1348940Y1552140I6J-146727D01*
G01X1330070Y1533270D01*
G02X1277030Y1511300I-53040J53040D01*
G01X1276980D01*
G03X1201420Y1435740I0J-75560D01*
G01Y1328420D01*
G01X699140Y1558900D02*
X722740Y1535300D01*
G02X744220Y1483440I-51864J-51860D01*
G01Y1433900D01*
G03X819220Y1358900I75000J0D01*
G01X1025150D01*
G02X1087580Y1333040I0J-88288D01*
G01X1144510Y1276110D01*
G03X1208320Y1249680I63813J63820D01*
G01X1376680D01*
G02X1432560Y1193800I0J-55880D01*
G01Y558920D01*
G03X1473320Y518160I40760J0D01*
G01X1498600D01*
G01X1701800Y1290320D02*
X1740320D01*
G01X1709420Y1414780D02*
X1735220D01*
G01D02*
X1798720Y1351280D01*
G01X1740320Y1290320D02*
X1800000Y1350000D01*
G01X1705340Y1650000D02*
X1800000D01*
G01X1717040Y1584960D02*
X1734960D01*
G01X1714500Y1704340D02*
X1745660D01*
G01D02*
X1800000Y1650000D01*
G01X1734960Y1584960D02*
X1800000Y1650000D01*
G54D18*
G01X274320Y1109980D02*
X243170D01*
G03X144780Y1011590I0J-98390D01*
G01Y542430D01*
G03X246360Y297200I346802J0D01*
G01X246380Y297180D01*
G01X454960Y917540D02*
X515020D01*
G02X576110Y856450I0J-61090D01*
G01Y570620D01*
G03X599130Y515050I78583J0D01*
G01X625670Y488510D01*
G01D02*
X521970Y384810D01*
G01X1169240Y403260D02*
X1096040Y476460D01*
G03X1007640Y513080I-88400J-88388D01*
G01X762540D01*
G02X637540Y638080I0J125000D01*
G01Y852900D01*
G03X512540Y977900I-125000J0D01*
G01X373380D01*
G01X1150620Y342900D02*
X1075480Y418040D01*
G03X987080Y454660I-88400J-88388D01*
G01X680960D01*
G02X644360Y469820I0J51761D01*
G01X625670Y488510D01*
M02*
