G04 ================== begin FILE IDENTIFICATION RECORD ==================*
G04 Layout Name:  ASR6601CB_PA_LNA_MD_V11_240312.brd*
G04 Film Name:    SILK_BOT*
G04 File Format:  Gerber RS274X*
G04 File Origin:  Cadence Allegro 16.6-2015-S088*
G04 Origin Date:  Thu Mar 14 11:44:11 2024*
G04 *
G04 Layer:  BOARD GEOMETRY/SILKSCREEN_BOTTOM*
G04 Layer:  PACKAGE GEOMETRY/SILKSCREEN_BOTTOM*
G04 Layer:  REF DES/SILKSCREEN_BOTTOM*
G04 Layer:  BOARD GEOMETRY/OUTLINE*
G04 *
G04 Offset:    (0.0000 0.0000)*
G04 Mirror:    No*
G04 Mode:      Positive*
G04 Rotation:  0*
G04 FullContactRelief:  No*
G04 UndefLineWidth:     0.0000*
G04 ================== end FILE IDENTIFICATION RECORD ====================*
%FSLAX25Y25*MOMM*%
%IR0*IPPOS*OFA0.00000B0.00000*MIA0B0*SFA1.00000B1.00000*%
%ADD10C,.14*%
%ADD11C,.04*%
G75*
%LPD*%
G75*
G54D10*
G01X3115580Y687180D02*
X3019580Y717180D01*
X3115580Y747180D01*
G01X3019580Y821180D02*
Y773180D01*
X3115580D01*
Y821180D01*
G01X3069180Y801980D02*
Y773180D01*
G01X3019580Y853180D02*
X3115580D01*
Y883180D01*
X3110780Y892780D01*
X3104380Y898780D01*
X3091580Y901180D01*
X3078780Y898780D01*
X3070780Y891580D01*
X3065980Y883180D01*
Y853180D01*
G01Y883180D02*
X3019580Y901180D01*
G01X3016380Y957180D02*
X3017980Y954780D01*
X3021180D01*
X3022780Y957180D01*
X3021180Y959580D01*
X3017980D01*
X3016380Y957180D01*
G01X3059580D02*
X3061180Y954780D01*
X3064380D01*
X3065980Y957180D01*
X3064380Y959580D01*
X3061180D01*
X3059580Y957180D01*
G01X3019580Y1037180D02*
X3115580D01*
X3096380Y1022780D01*
G01X3019580D02*
Y1051580D01*
G01Y1117180D02*
X3115580D01*
X3096380Y1102780D01*
G01X3019580D02*
Y1131580D01*
G01X3001980Y1194780D02*
X3022780Y1199580D01*
G01X3099580Y1334380D02*
X3109180Y1341580D01*
X3113980Y1349980D01*
X3115580Y1359580D01*
X3112380Y1371580D01*
X3104380Y1379980D01*
X3094780Y1382380D01*
X3085180Y1381180D01*
X3077180Y1376380D01*
X3061180Y1352380D01*
X3049980Y1341580D01*
X3033980Y1334380D01*
X3019580Y1331980D01*
Y1382380D01*
G01X3115580Y1437180D02*
X3112380Y1427580D01*
X3104380Y1420380D01*
X3094780Y1415580D01*
X3081980Y1411980D01*
X3067580Y1410780D01*
X3053180Y1411980D01*
X3040380Y1415580D01*
X3030780Y1420380D01*
X3022780Y1427580D01*
X3019580Y1437180D01*
X3022780Y1446780D01*
X3030780Y1453980D01*
X3040380Y1458780D01*
X3053180Y1462380D01*
X3067580Y1463580D01*
X3081980Y1462380D01*
X3094780Y1458780D01*
X3104380Y1453980D01*
X3112380Y1446780D01*
X3115580Y1437180D01*
G01X3099580Y1494380D02*
X3109180Y1501580D01*
X3113980Y1509980D01*
X3115580Y1519580D01*
X3112380Y1531580D01*
X3104380Y1539980D01*
X3094780Y1542380D01*
X3085180Y1541180D01*
X3077180Y1536380D01*
X3061180Y1512380D01*
X3049980Y1501580D01*
X3033980Y1494380D01*
X3019580Y1491980D01*
Y1542380D01*
G01Y1611580D02*
X3115580D01*
X3046780Y1567180D01*
Y1627180D01*
G01X3016380Y1655580D02*
X3115580Y1698780D01*
G01Y1757180D02*
X3112380Y1747580D01*
X3104380Y1740380D01*
X3094780Y1735580D01*
X3081980Y1731980D01*
X3067580Y1730780D01*
X3053180Y1731980D01*
X3040380Y1735580D01*
X3030780Y1740380D01*
X3022780Y1747580D01*
X3019580Y1757180D01*
X3022780Y1766780D01*
X3030780Y1773980D01*
X3040380Y1778780D01*
X3053180Y1782380D01*
X3067580Y1783580D01*
X3081980Y1782380D01*
X3094780Y1778780D01*
X3104380Y1773980D01*
X3112380Y1766780D01*
X3115580Y1757180D01*
G01X3038780Y1810780D02*
X3027580Y1817980D01*
X3021180Y1827580D01*
X3019580Y1838380D01*
X3021180Y1847980D01*
X3029180Y1857580D01*
X3038780Y1863580D01*
X3048380Y1864780D01*
X3059580Y1862380D01*
X3067580Y1853980D01*
X3070780Y1845580D01*
Y1834780D01*
G01Y1845580D02*
X3075580Y1852780D01*
X3083580Y1858780D01*
X3093180Y1861180D01*
X3102780Y1858780D01*
X3110780Y1852780D01*
X3115580Y1841980D01*
X3113980Y1831180D01*
X3107580Y1820380D01*
G01X3016380Y1895580D02*
X3115580Y1938780D01*
G01Y1997180D02*
X3112380Y1987580D01*
X3104380Y1980380D01*
X3094780Y1975580D01*
X3081980Y1971980D01*
X3067580Y1970780D01*
X3053180Y1971980D01*
X3040380Y1975580D01*
X3030780Y1980380D01*
X3022780Y1987580D01*
X3019580Y1997180D01*
X3022780Y2006780D01*
X3030780Y2013980D01*
X3040380Y2018780D01*
X3053180Y2022380D01*
X3067580Y2023580D01*
X3081980Y2022380D01*
X3094780Y2018780D01*
X3104380Y2013980D01*
X3112380Y2006780D01*
X3115580Y1997180D01*
G01X3019580Y2077180D02*
X3021180Y2085580D01*
X3025980Y2095180D01*
X3033980Y2101180D01*
X3045180Y2103580D01*
X3056380Y2101180D01*
X3065980Y2093980D01*
X3070780Y2083180D01*
Y2071180D01*
X3073980Y2063980D01*
X3081980Y2057980D01*
X3093180Y2055580D01*
X3104380Y2059180D01*
X3112380Y2067580D01*
X3115580Y2077180D01*
X3112380Y2086780D01*
X3104380Y2095180D01*
X3093180Y2098780D01*
X3081980Y2096380D01*
X3073980Y2090380D01*
X3070780Y2083180D01*
Y2071180D01*
X3065980Y2060380D01*
X3056380Y2053180D01*
X3045180Y2050780D01*
X3033980Y2053180D01*
X3025980Y2059180D01*
X3021180Y2068780D01*
X3019580Y2077180D01*
G01X3248180Y618600D02*
X3344180Y648600D01*
X3248180Y678600D01*
G01X3281780Y667800D02*
Y629400D01*
G01X3260980Y703400D02*
X3252980Y713000D01*
X3248180Y723800D01*
Y733400D01*
X3252980Y743000D01*
X3260980Y750200D01*
X3272180Y753800D01*
X3283380Y751400D01*
X3292980Y745400D01*
X3299380Y734600D01*
X3302580Y720200D01*
X3308980Y711800D01*
X3320180Y708200D01*
X3331380Y710600D01*
X3339380Y716600D01*
X3344180Y725000D01*
Y733400D01*
X3340980Y741800D01*
X3332980Y749000D01*
G01X3248180Y784600D02*
X3344180D01*
Y814600D01*
X3339380Y824200D01*
X3332980Y830200D01*
X3320180Y832600D01*
X3307380Y830200D01*
X3299380Y823000D01*
X3294580Y814600D01*
Y784600D01*
G01Y814600D02*
X3248180Y832600D01*
G01X3288180Y865800D02*
X3299380Y874200D01*
X3305780Y881400D01*
X3308980Y891000D01*
X3305780Y899400D01*
X3299380Y905400D01*
X3289780Y910200D01*
X3278580Y911400D01*
X3268980Y910200D01*
X3259380Y905400D01*
X3251380Y898200D01*
X3248180Y889800D01*
X3251380Y880200D01*
X3260980Y871800D01*
X3275380Y867000D01*
X3291380Y865800D01*
X3312180Y868200D01*
X3323380Y871800D01*
X3334580Y877800D01*
X3342580Y886200D01*
X3344180Y894600D01*
X3340980Y903000D01*
X3332980Y909000D01*
G01X3288180Y945800D02*
X3299380Y954200D01*
X3305780Y961400D01*
X3308980Y971000D01*
X3305780Y979400D01*
X3299380Y985400D01*
X3289780Y990200D01*
X3278580Y991400D01*
X3268980Y990200D01*
X3259380Y985400D01*
X3251380Y978200D01*
X3248180Y969800D01*
X3251380Y960200D01*
X3260980Y951800D01*
X3275380Y947000D01*
X3291380Y945800D01*
X3312180Y948200D01*
X3323380Y951800D01*
X3334580Y957800D01*
X3342580Y966200D01*
X3344180Y974600D01*
X3340980Y983000D01*
X3332980Y989000D01*
G01X3344180Y1048600D02*
X3340980Y1039000D01*
X3332980Y1031800D01*
X3323380Y1027000D01*
X3310580Y1023400D01*
X3296180Y1022200D01*
X3281780Y1023400D01*
X3268980Y1027000D01*
X3259380Y1031800D01*
X3251380Y1039000D01*
X3248180Y1048600D01*
X3251380Y1058200D01*
X3259380Y1065400D01*
X3268980Y1070200D01*
X3281780Y1073800D01*
X3296180Y1075000D01*
X3310580Y1073800D01*
X3323380Y1070200D01*
X3332980Y1065400D01*
X3340980Y1058200D01*
X3344180Y1048600D01*
G01X3248180Y1128600D02*
X3344180D01*
X3324980Y1114200D01*
G01X3248180D02*
Y1143000D01*
G01X3336180Y1235000D02*
X3340980Y1227800D01*
X3344180Y1219400D01*
Y1209800D01*
X3339380Y1199000D01*
X3331380Y1190600D01*
X3321780Y1184600D01*
X3305780Y1179800D01*
X3291380Y1178600D01*
X3276980Y1181000D01*
X3267380Y1184600D01*
X3257780Y1191800D01*
X3251380Y1200200D01*
X3248180Y1208600D01*
Y1217000D01*
X3251380Y1225400D01*
X3256180Y1232600D01*
X3262580Y1238600D01*
G01X3299380Y1298200D02*
X3304180Y1303000D01*
X3312180Y1306600D01*
X3323380Y1309000D01*
X3332980Y1306600D01*
X3339380Y1301800D01*
X3344180Y1293400D01*
Y1261000D01*
X3248180D01*
Y1300600D01*
X3254580Y1309000D01*
X3264180Y1313800D01*
X3275380Y1316200D01*
X3286580Y1313800D01*
X3296180Y1306600D01*
X3299380Y1298200D01*
Y1261000D01*
G01X3216180Y1332600D02*
Y1404600D01*
G01X3248180Y1424600D02*
X3344180D01*
Y1453400D01*
X3339380Y1463000D01*
X3328180Y1470200D01*
X3315380Y1472600D01*
X3302580Y1470200D01*
X3292980Y1464200D01*
X3288180Y1453400D01*
Y1424600D01*
G01X3248180Y1498600D02*
X3344180Y1528600D01*
X3248180Y1558600D01*
G01X3281780Y1547800D02*
Y1509400D01*
G01X3216180Y1572600D02*
Y1644600D01*
G01X3344180Y1664600D02*
X3248180D01*
Y1712600D01*
G01Y1741000D02*
X3344180D01*
X3248180Y1796200D01*
X3344180D01*
G01X3248180Y1818600D02*
X3344180Y1848600D01*
X3248180Y1878600D01*
G01X3281780Y1867800D02*
Y1829400D01*
G01X3216180Y1892600D02*
Y1964600D01*
G01X3248180Y1977400D02*
X3344180D01*
X3264180Y2008600D01*
X3344180Y2039800D01*
X3248180D01*
G01Y2062200D02*
X3344180D01*
Y2086200D01*
X3339380Y2095800D01*
X3332980Y2103000D01*
X3323380Y2109000D01*
X3312180Y2113800D01*
X3296180Y2115000D01*
X3280180Y2113800D01*
X3268980Y2109000D01*
X3259380Y2103000D01*
X3252980Y2095800D01*
X3248180Y2086200D01*
Y2062200D01*
G54D11*
G01X99520Y460D02*
X3900020D01*
G03X4000020Y100460I0J100000D01*
G01Y2699540D01*
G03X3900020Y2799540I-100000J0D01*
G01X99520D01*
G03X-480Y2699540I0J-100000D01*
G01Y100460D01*
G03X99520Y460I100000J0D01*
M02*
