G04 ================== begin FILE IDENTIFICATION RECORD ==================*
G04 Layout Name:  ASR6601CB_PA_TB_V11_240301.brd*
G04 Film Name:    ADT*
G04 File Format:  Gerber RS274X*
G04 File Origin:  Cadence Allegro 16.6-2015-S088*
G04 Origin Date:  Tue Mar 19 16:37:48 2024*
G04 *
G04 Layer:  REF DES/SILKSCREEN_TOP*
G04 Layer:  PIN/TOP*
G04 Layer:  PACKAGE GEOMETRY/SILKSCREEN_TOP*
G04 Layer:  BOARD GEOMETRY/OUTLINE*
G04 Layer:  BOARD GEOMETRY/SILKSCREEN_TOP*
G04 *
G04 Offset:    (0.0000 0.0000)*
G04 Mirror:    No*
G04 Mode:      Positive*
G04 Rotation:  0*
G04 FullContactRelief:  No*
G04 UndefLineWidth:     0.0000*
G04 ================== end FILE IDENTIFICATION RECORD ====================*
%FSLAX25Y25*MOMM*%
%IR0*IPPOS*OFA0.00000B0.00000*MIA0B0*SFA1.00000B1.00000*%
%ADD35R,1.2X.3*%
%ADD33R,1.X.6*%
%ADD40O,2.X.9*%
%ADD30R,.6X1.*%
%ADD39O,.8X1.3*%
%ADD36R,1.2X.6*%
%ADD21R,1.X.95*%
%ADD28R,.95X1.*%
%ADD43R,1.38X.45*%
%ADD22C,.8*%
%ADD37C,.65*%
%ADD38O,2.X1.*%
%ADD16O,1.4X1.*%
%ADD15R,1.4X1.*%
%ADD20R,1.X1.4*%
%ADD19R,2.1001X1.1001*%
%ADD32R,1.25X1.*%
%ADD27R,1.X1.25*%
%ADD44R,1.9X1.2*%
%ADD42R,2.1X1.45*%
%ADD34C,1.*%
%ADD11R,4.2X1.27*%
%ADD41R,.6X.6*%
%ADD31R,.6X.6*%
%ADD29R,1.016X1.27*%
%ADD14R,.5X.55*%
%ADD10C,6.*%
%ADD45R,1.9X2.35*%
%ADD13R,.55X.5*%
%ADD12R,4.8X1.35*%
%ADD24R,.25X.75*%
%ADD25R,.75X.25*%
%ADD23R,2.7X2.7*%
%ADD17C,1.397*%
%ADD18R,1.397X1.397*%
%ADD26R,.254X.8999*%
%ADD46C,.1*%
%ADD47C,.2*%
%ADD48C,.3*%
%ADD49C,.12*%
%ADD50C,.15*%
%ADD51C,.127*%
%ADD52C,.1524*%
%ADD53C,.02*%
%ADD54C,.04*%
%ADD55C,.06*%
%ADD56C,.08*%
G75*
%LPD*%
G75*
G54D10*
X582000Y650000D03*
Y4850000D03*
X7270000Y650000D03*
Y4850000D03*
G54D11*
X215100Y2753360D03*
G54D20*
X4300000Y1350000D03*
X4500000D03*
X4700000D03*
X4300000Y4150000D03*
X4700000D03*
X4500000D03*
G54D12*
X235100Y2470860D03*
Y3035860D03*
G54D21*
X6390640Y544840D03*
Y704840D03*
X6525260Y2634780D03*
Y2474780D03*
X7233920Y3346460D03*
Y3506460D03*
G54D30*
X6915040Y1976120D03*
X6704440D03*
G54D13*
X906780Y2753360D03*
X1006780D03*
X5957100Y4665980D03*
X5954560Y4775200D03*
Y4897120D03*
X6129820Y3359380D03*
X6229820D03*
X6546380D03*
X6229820Y3453360D03*
X6129820D03*
X6546380D03*
X6377700Y4269740D03*
X6477700D03*
X6057100Y4665980D03*
X6054560Y4775200D03*
X6551460Y4897120D03*
Y4665980D03*
X6054560Y4897120D03*
X6551460Y4775200D03*
X6646380Y3359380D03*
Y3453360D03*
X6964440Y3776980D03*
X7064440D03*
X6964440Y3896360D03*
X7064440D03*
X6608840Y4269740D03*
X6708840D03*
X6651460Y4897120D03*
Y4665980D03*
Y4775200D03*
G54D31*
X7120340Y2595420D03*
Y2697020D03*
X7210340Y2595420D03*
Y2697020D03*
G54D22*
X6167120Y2352040D03*
G54D40*
X7724140Y2294960D03*
Y3154960D03*
G54D50*
G01X2141220Y839200D02*
X3665220D01*
Y585200D01*
X2141220D01*
Y839200D01*
G01Y4908280D02*
X3665220D01*
Y4654280D01*
X2141220D01*
Y4908280D01*
G01X3606800Y838200D02*
X3660140Y784860D01*
G01X3606800Y4907280D02*
X3660140Y4853940D01*
G54D23*
X6436360Y3832620D03*
G54D14*
X799300Y2752560D03*
Y2652560D03*
X1114260Y2750020D03*
Y2650020D03*
X6215380Y595160D03*
Y695160D03*
X6080760Y595160D03*
Y695160D03*
X6428740Y3352560D03*
X6337300D03*
X6428740Y3452560D03*
X6337300D03*
X6027420Y3808160D03*
Y3708160D03*
X6905220Y4041940D03*
X7001740D03*
X7098260D03*
X6905220Y4141940D03*
X7001740D03*
X7098260D03*
G54D41*
X7212560Y3987080D03*
Y3897080D03*
Y3686260D03*
Y3776260D03*
G54D32*
X7122160Y2853860D03*
Y3033860D03*
G54D51*
G01X4515000Y564360D02*
Y627860D01*
X4506870Y615160D01*
G01Y564360D02*
X4523130D01*
G01X6238860Y4591240D02*
X6234800Y4596530D01*
X6230060Y4599700D01*
X6223960Y4600760D01*
X6217860Y4598640D01*
X6213120Y4594410D01*
X6209740Y4587000D01*
X6209060Y4578540D01*
X6210410Y4570070D01*
X6213800Y4564780D01*
X6218540Y4560540D01*
X6223280Y4559490D01*
X6228020Y4560540D01*
X6234120Y4564780D01*
X6232090Y4537260D01*
X6213800D01*
G01X6383960Y4600760D02*
X6379220Y4599700D01*
X6373800Y4596530D01*
X6370410Y4591240D01*
X6369060Y4583830D01*
X6370410Y4576420D01*
X6374480Y4570070D01*
X6380570Y4566890D01*
X6387350D01*
X6391410Y4564780D01*
X6394800Y4559490D01*
X6396150Y4552080D01*
X6394120Y4544670D01*
X6389380Y4539380D01*
X6383960Y4537260D01*
X6378540Y4539380D01*
X6373800Y4544670D01*
X6371770Y4552080D01*
X6373120Y4559490D01*
X6376510Y4564780D01*
X6380570Y4566890D01*
X6387350D01*
X6393440Y4570070D01*
X6397510Y4576420D01*
X6398860Y4583830D01*
X6397510Y4591240D01*
X6394120Y4596530D01*
X6388700Y4599700D01*
X6383960Y4600760D01*
G01X6215830Y5080760D02*
Y5017260D01*
X6240890Y5062770D01*
X6207030D01*
G01X6629180Y1489600D02*
G02Y1634600I125570J72500D01*
G01D02*
X6919180D01*
G02Y1489600I-125570J-72500D01*
G01D02*
X6629180D01*
G01X7194660Y3088860D02*
Y2798860D01*
G02X7049660I-72500J125570D01*
G01D02*
Y3088860D01*
G01D02*
G02X7194660I72500J-125570D01*
G54D24*
X6511360Y3632620D03*
X6461360D03*
X6411360D03*
X6361360D03*
X6311360D03*
Y4032620D03*
X6361360D03*
X6411360D03*
X6461360D03*
X6511360D03*
X6561360Y3632620D03*
Y4032620D03*
G54D42*
X7626220Y3600920D03*
Y4135920D03*
G54D15*
X1400000Y2550000D03*
Y2950000D03*
X5400000Y1550000D03*
Y1750000D03*
Y1950000D03*
Y2150000D03*
Y2350000D03*
Y2550000D03*
Y2750000D03*
Y2950000D03*
Y3150000D03*
Y3350000D03*
Y3550000D03*
Y3750000D03*
Y3950000D03*
G54D33*
X7040880Y3325780D03*
Y3536380D03*
G54D52*
G01X6758940Y1976120D02*
X6840220D01*
G01X6809740Y1925320D02*
X6758940Y1976120D01*
G01X6809740Y2026920D02*
Y1925320D01*
G01X6758940Y1976120D02*
X6809740Y2026920D01*
G01X6755510Y2044700D02*
Y1907540D01*
G01X6718300Y2019300D02*
Y2044700D01*
G01Y1907540D02*
Y1932940D01*
G01X6901180Y1907540D02*
X6718300D01*
G01X6901180Y1932940D02*
Y1907540D01*
G01Y2044700D02*
Y2019300D01*
G01X6718300Y2044700D02*
X6901180D01*
G01X7040880Y3380280D02*
Y3461560D01*
G01X7091680Y3431080D02*
X7040880Y3380280D01*
G01D02*
X6990080Y3431080D01*
G01X6972300Y3376850D02*
X7109460D01*
G01X6997700Y3339640D02*
X6972300D01*
G01X7109460D02*
X7084060D01*
G01X7109460Y3522520D02*
Y3339640D01*
G01X6972300D02*
Y3522520D01*
G01X6990080Y3431080D02*
X7091680D01*
G01X7084060Y3522520D02*
X7109460D01*
G01X6972300D02*
X6997700D01*
G54D25*
X6236360Y3707620D03*
Y3757620D03*
Y3807620D03*
Y3857620D03*
Y3907620D03*
Y3957620D03*
X6636360D03*
Y3907620D03*
Y3857620D03*
Y3807620D03*
Y3757620D03*
Y3707620D03*
G54D34*
X7792720Y454660D03*
X7795260Y5046980D03*
G54D16*
X1400000Y2750000D03*
G54D43*
X7583930Y3998470D03*
Y3933440D03*
Y3868420D03*
Y3803400D03*
Y3738370D03*
G54D53*
G01X6217120Y2352040D02*
G03I-50000J0D01*
G01X7177560Y3862080D02*
Y3852080D01*
X7247560D01*
Y3862080D01*
X7177560D01*
Y4022080D01*
X7247560D01*
Y3862080D01*
G01Y3811260D02*
Y3821260D01*
X7177560D01*
Y3811260D01*
X7247560D01*
Y3651260D01*
X7177560D01*
Y3811260D01*
G54D26*
X6379280Y4665760D03*
X6329280D03*
X6279280D03*
X6229280D03*
Y4955760D03*
X6279280D03*
X6329280D03*
X6379280D03*
G54D17*
X2267220Y711200D03*
Y4780280D03*
X2775220Y711200D03*
X2521220D03*
X2775220Y4780280D03*
X2521220D03*
X3031220Y711200D03*
X3285220D03*
X3031220Y4780280D03*
X3285220D03*
X7122160Y2415540D03*
G54D44*
X7866380Y3953420D03*
Y3783420D03*
G54D35*
X7368520Y1618280D03*
Y1568280D03*
Y1518280D03*
Y1468280D03*
Y1418280D03*
Y1368280D03*
Y1718280D03*
Y1668280D03*
G54D54*
G01X6362700Y604520D02*
Y612140D01*
G01X6372860Y614680D02*
X6362700Y604520D01*
X6370320D01*
G01X6553200Y2575100D02*
Y2567480D01*
G01X6543040Y2564940D02*
X6553200Y2575100D01*
X6545580D01*
G54D18*
X3539220Y711200D03*
Y4780280D03*
X6868160Y2415540D03*
G54D45*
X7866380Y3575880D03*
Y4160960D03*
G54D27*
X6864180Y1562100D03*
X6684180D03*
G54D36*
X7368520Y1303280D03*
Y1223280D03*
Y1783280D03*
Y1863280D03*
G54D55*
G01X167080Y302260D02*
Y358260D01*
G01X196480D02*
Y302260D01*
G01Y330260D02*
X167080D01*
G01X227780Y302260D02*
Y358260D01*
X219380Y347060D01*
G01Y302260D02*
X236180D01*
G01X230520Y2133600D02*
Y2189600D01*
X248020D01*
X253620Y2186800D01*
X257120Y2183070D01*
X258520Y2175600D01*
X257120Y2168130D01*
X252920Y2163470D01*
X248020Y2160670D01*
X230520D01*
G01X248020D02*
X258520Y2133600D01*
G01X277220D02*
Y2189600D01*
X303820D01*
G01X294020Y2162530D02*
X277220D01*
G01X315520Y2114930D02*
X357520D01*
G01X382520Y2189600D02*
Y2133600D01*
G01X366420Y2189600D02*
X398620D01*
G01X414520Y2133600D02*
Y2189600D01*
X432020D01*
X437620Y2186800D01*
X441120Y2183070D01*
X442520Y2175600D01*
X441120Y2168130D01*
X436920Y2163470D01*
X432020Y2160670D01*
X414520D01*
G01X432020D02*
X442520Y2133600D01*
G01X319420Y3305580D02*
X322920Y3299980D01*
X327120Y3296250D01*
X332020Y3294380D01*
X337620Y3296250D01*
X341820Y3299980D01*
X346020Y3305580D01*
X347420Y3313050D01*
Y3350380D01*
G01X379420Y3294380D02*
Y3350380D01*
X371020Y3339180D01*
G01Y3294380D02*
X387820D01*
G01X92660Y5128260D02*
Y5184260D01*
G01X122060D02*
Y5128260D01*
G01Y5156260D02*
X92660D01*
G01X137960Y5139460D02*
X142160Y5132930D01*
X147760Y5129190D01*
X154060Y5128260D01*
X159660Y5129190D01*
X165260Y5133860D01*
X168760Y5139460D01*
X169460Y5145060D01*
X168060Y5151590D01*
X163160Y5156260D01*
X158260Y5158130D01*
X151960D01*
G01X158260D02*
X162460Y5160930D01*
X165960Y5165590D01*
X167360Y5171190D01*
X165960Y5176790D01*
X162460Y5181460D01*
X156160Y5184260D01*
X149860Y5183330D01*
X143560Y5179590D01*
G01X900280Y2900680D02*
Y2956680D01*
X917780D01*
X923380Y2953880D01*
X926880Y2950150D01*
X928280Y2942680D01*
X926880Y2935210D01*
X922680Y2930550D01*
X917780Y2927750D01*
X900280D01*
G01X917780D02*
X928280Y2900680D01*
G01X944880Y2909080D02*
X949080Y2904410D01*
X953980Y2901610D01*
X960280Y2900680D01*
X966580Y2902550D01*
X971480Y2906280D01*
X974980Y2912810D01*
X975680Y2920280D01*
X974280Y2927750D01*
X970780Y2932410D01*
X965880Y2936150D01*
X960980Y2937080D01*
X956080Y2936150D01*
X949780Y2932410D01*
X951880Y2956680D01*
X970780D01*
G01X770830Y2926920D02*
X768030Y2922720D01*
X766160Y2917820D01*
Y2912220D01*
X768960Y2905920D01*
X773630Y2901020D01*
X779230Y2897520D01*
X788560Y2894720D01*
X796960Y2894020D01*
X805360Y2895420D01*
X810960Y2897520D01*
X816560Y2901720D01*
X820290Y2906620D01*
X822160Y2911520D01*
Y2916420D01*
X820290Y2921320D01*
X817490Y2925520D01*
X813760Y2929020D01*
G01X775490Y2944220D02*
X769890Y2948420D01*
X767090Y2953320D01*
X766160Y2958920D01*
X768030Y2965920D01*
X772690Y2970820D01*
X778290Y2972220D01*
X783890Y2971520D01*
X788560Y2968720D01*
X797890Y2954720D01*
X804430Y2948420D01*
X813760Y2944220D01*
X822160Y2942820D01*
Y2972220D01*
G01X1052770Y2929460D02*
X1049970Y2925260D01*
X1048100Y2920360D01*
Y2914760D01*
X1050900Y2908460D01*
X1055570Y2903560D01*
X1061170Y2900060D01*
X1070500Y2897260D01*
X1078900Y2896560D01*
X1087300Y2897960D01*
X1092900Y2900060D01*
X1098500Y2904260D01*
X1102230Y2909160D01*
X1104100Y2914060D01*
Y2918960D01*
X1102230Y2923860D01*
X1099430Y2928060D01*
X1095700Y2931560D01*
G01X1104100Y2960060D02*
X1048100D01*
X1059300Y2951660D01*
G01X1104100D02*
Y2968460D01*
G01X2093110Y356820D02*
X2097780Y362420D01*
X2100580Y368720D01*
Y374320D01*
X2097780Y379920D01*
X2093110Y384120D01*
X2086580Y386220D01*
X2080050Y384820D01*
X2074450Y381320D01*
X2070710Y375020D01*
X2068850Y366620D01*
X2065110Y361720D01*
X2058580Y359620D01*
X2052050Y361020D01*
X2047380Y364520D01*
X2044580Y369420D01*
Y374320D01*
X2046450Y379220D01*
X2051110Y383420D01*
G01X2044580Y396520D02*
X2100580Y406320D01*
X2044580Y417520D01*
X2100580Y428720D01*
X2044580Y438520D01*
G01X2100580Y448120D02*
X2044580D01*
Y462120D01*
X2047380Y467720D01*
X2051110Y471920D01*
X2056710Y475420D01*
X2063250Y478220D01*
X2072580Y478920D01*
X2081910Y478220D01*
X2088450Y475420D01*
X2094050Y471920D01*
X2097780Y467720D01*
X2100580Y462120D01*
Y448120D01*
G01X2211860Y476960D02*
X2221760Y467060D01*
X2209880Y455180D01*
X2202950Y454190D01*
X2196840Y455020D01*
X2190570Y458650D01*
X2186940Y464910D01*
X2186120Y471020D01*
X2187110Y477950D01*
X2189750Y484550D01*
X2194040Y490820D01*
X2198660Y495440D01*
X2203610Y498410D01*
X2210210Y501050D01*
X2217140Y502040D01*
X2222750Y501710D01*
X2228690Y499730D01*
X2232150Y496260D01*
X2234790Y490980D01*
X2235120Y485370D01*
G01X2211720Y437500D02*
X2251320Y477100D01*
X2263200Y465220D01*
X2265180Y459280D01*
X2263530Y451690D01*
X2259240Y445420D01*
X2252970Y441130D01*
X2246530Y439640D01*
X2240100Y442120D01*
X2228220Y454000D01*
G01X2287810Y440610D02*
X2299690Y428730D01*
G01X2293750Y434670D02*
X2254150Y395070D01*
G01X2248210Y401010D02*
X2260090Y389130D01*
G01X2286680Y362540D02*
X2283380Y367160D01*
X2282550Y373260D01*
X2283540Y380190D01*
X2286180Y386790D01*
X2290470Y393060D01*
X2295750Y398340D01*
X2302020Y402630D01*
X2308620Y405270D01*
X2315550Y406260D01*
X2321660Y405440D01*
X2326280Y402140D01*
X2329580Y397520D01*
X2330400Y391410D01*
X2329410Y384480D01*
X2326770Y377880D01*
X2322480Y371620D01*
X2317200Y366340D01*
X2310930Y362050D01*
X2304330Y359410D01*
X2297400Y358420D01*
X2291300Y359240D01*
X2286680Y362540D01*
G01X2358810Y369610D02*
X2353530Y372250D01*
X2347260Y371920D01*
X2341320Y369940D01*
X2334550Y366140D01*
X2328120Y360700D01*
X2322670Y354260D01*
X2318880Y347500D01*
X2316900Y341560D01*
X2316570Y335290D01*
X2319210Y330010D01*
X2324490Y327370D01*
X2330760Y327700D01*
X2336700Y329680D01*
X2343460Y333470D01*
X2349900Y338920D01*
X2355340Y345350D01*
X2359140Y352120D01*
X2361120Y358060D01*
X2361450Y364330D01*
X2358810Y369610D01*
G01X2350750Y298470D02*
X2360320Y306060D01*
X2369060Y311830D01*
X2377640Y316460D01*
X2387380Y321240D01*
X2401240Y327180D01*
X2381440Y346980D01*
G01X2270330Y513900D02*
X2270990Y506640D01*
X2273470Y500210D01*
X2277430Y496250D01*
X2283370Y494270D01*
X2289640Y494600D01*
X2295740Y497740D01*
X2299370Y503340D01*
X2300860Y509780D01*
X2299040Y516880D01*
X2294420Y524130D01*
X2293600Y530240D01*
X2296730Y536340D01*
X2302340Y539970D01*
X2308120Y540800D01*
X2313560Y539310D01*
X2317030Y535850D01*
X2319170Y531060D01*
X2318840Y524790D01*
G01X2332730Y520150D02*
X2300060Y473620D01*
X2347580Y505300D01*
X2315900Y457780D01*
X2362430Y490450D01*
G01X2329620Y444060D02*
X2369220Y483660D01*
X2379120Y473760D01*
X2381100Y467820D01*
X2381430Y462210D01*
X2379940Y455770D01*
X2377300Y449170D01*
X2371200Y442080D01*
X2364100Y435980D01*
X2357500Y433330D01*
X2351070Y431850D01*
X2345460Y432180D01*
X2339520Y434160D01*
X2329620Y444060D01*
G01X2344990Y402290D02*
X2374690Y372590D01*
G01X2452760Y393520D02*
X2451770Y398470D01*
X2449620Y403250D01*
X2445660Y407210D01*
X2439230Y409690D01*
X2432460Y409850D01*
X2426030Y408370D01*
X2417450Y403750D01*
X2411010Y398300D01*
X2406060Y391370D01*
X2403590Y385930D01*
X2402600Y379000D01*
X2403420Y372890D01*
X2405570Y368110D01*
X2409030Y364650D01*
X2413820Y362500D01*
X2418770Y361510D01*
X2423880Y361670D01*
G01X2467800Y385080D02*
X2428200Y345480D01*
X2448000Y325680D01*
G01X2459740Y313940D02*
X2499340Y353540D01*
G01X2518150Y334730D02*
X2474920Y329120D01*
G01X2481520Y292160D02*
X2494550Y331920D01*
G01X2266240Y5016020D02*
X2276140Y5025920D01*
X2288020Y5014040D01*
X2289010Y5007110D01*
X2288180Y5001000D01*
X2284550Y4994730D01*
X2278290Y4991100D01*
X2272180Y4990280D01*
X2265250Y4991270D01*
X2258650Y4993910D01*
X2252380Y4998200D01*
X2247760Y5002820D01*
X2244790Y5007770D01*
X2242150Y5014370D01*
X2241160Y5021300D01*
X2241490Y5026910D01*
X2243470Y5032850D01*
X2246940Y5036310D01*
X2252220Y5038950D01*
X2257830Y5039280D01*
G01X2304210Y5014390D02*
X2264620Y5053990D01*
X2326980Y5037160D01*
X2287390Y5076760D01*
G01X2337240Y5047420D02*
X2297640Y5087020D01*
X2307540Y5096920D01*
X2313480Y5098900D01*
X2319090Y5099230D01*
X2325530Y5097740D01*
X2332130Y5095100D01*
X2339220Y5089000D01*
X2345320Y5081900D01*
X2347970Y5075300D01*
X2349450Y5068870D01*
X2349120Y5063260D01*
X2347140Y5057320D01*
X2337240Y5047420D01*
G01X2501420Y484580D02*
X2511320Y474680D01*
X2499440Y462800D01*
X2492510Y461810D01*
X2486400Y462640D01*
X2480130Y466270D01*
X2476500Y472530D01*
X2475680Y478640D01*
X2476670Y485570D01*
X2479310Y492170D01*
X2483600Y498440D01*
X2488220Y503060D01*
X2493170Y506030D01*
X2499770Y508670D01*
X2506700Y509660D01*
X2512310Y509330D01*
X2518250Y507350D01*
X2521710Y503880D01*
X2524350Y498600D01*
X2524680Y492990D01*
G01X2501280Y445120D02*
X2540880Y484720D01*
X2552760Y472840D01*
X2554740Y466900D01*
X2553090Y459310D01*
X2548800Y453040D01*
X2542530Y448750D01*
X2536090Y447260D01*
X2529660Y449740D01*
X2517780Y461620D01*
G01X2577370Y448230D02*
X2589250Y436350D01*
G01X2583310Y442290D02*
X2543710Y402690D01*
G01X2537770Y408630D02*
X2549650Y396750D01*
G01X2576240Y370160D02*
X2572940Y374780D01*
X2572110Y380880D01*
X2573100Y387810D01*
X2575740Y394410D01*
X2580030Y400680D01*
X2585310Y405960D01*
X2591580Y410250D01*
X2598180Y412890D01*
X2605110Y413880D01*
X2611220Y413060D01*
X2615840Y409760D01*
X2619140Y405140D01*
X2619960Y399030D01*
X2618970Y392100D01*
X2616330Y385500D01*
X2612040Y379240D01*
X2606760Y373960D01*
X2600490Y369670D01*
X2593890Y367030D01*
X2586960Y366040D01*
X2580860Y366860D01*
X2576240Y370160D01*
G01X2648370Y377230D02*
X2643090Y379870D01*
X2636820Y379540D01*
X2630880Y377560D01*
X2624110Y373760D01*
X2617680Y368320D01*
X2612230Y361880D01*
X2608440Y355120D01*
X2606460Y349180D01*
X2606130Y342910D01*
X2608770Y337630D01*
X2614050Y334990D01*
X2620320Y335320D01*
X2626260Y337300D01*
X2633020Y341090D01*
X2639460Y346540D01*
X2644900Y352970D01*
X2648700Y359740D01*
X2650680Y365680D01*
X2651010Y371950D01*
X2648370Y377230D01*
G01X2648390Y331000D02*
X2656480Y332160D01*
X2662090Y331830D01*
X2667370Y329190D01*
X2669510Y324400D01*
X2669350Y319290D01*
X2667370Y313350D01*
X2663240Y308240D01*
X2658790Y304770D01*
X2652850Y302790D01*
X2646580Y302460D01*
X2641790Y304610D01*
X2639150Y309880D01*
X2639650Y317310D01*
X2643610Y325230D01*
X2649710Y332320D01*
X2659280Y339910D01*
X2665390Y343050D01*
X2672480Y345190D01*
X2679250Y345030D01*
X2683370Y342220D01*
X2685520Y337440D01*
X2684690Y331660D01*
G01X2562430Y516440D02*
X2563090Y509180D01*
X2565570Y502750D01*
X2569530Y498790D01*
X2575470Y496810D01*
X2581740Y497140D01*
X2587840Y500280D01*
X2591470Y505880D01*
X2592960Y512320D01*
X2591140Y519420D01*
X2586520Y526670D01*
X2585700Y532780D01*
X2588830Y538880D01*
X2594440Y542510D01*
X2600220Y543340D01*
X2605660Y541850D01*
X2609130Y538390D01*
X2611270Y533600D01*
X2610940Y527330D01*
G01X2624830Y522690D02*
X2592160Y476160D01*
X2639680Y507840D01*
X2608000Y460320D01*
X2654530Y492990D01*
G01X2621720Y446600D02*
X2661320Y486200D01*
X2671220Y476300D01*
X2673200Y470360D01*
X2673530Y464750D01*
X2672040Y458310D01*
X2669400Y451710D01*
X2663300Y444620D01*
X2656200Y438520D01*
X2649600Y435870D01*
X2643170Y434390D01*
X2637560Y434720D01*
X2631620Y436700D01*
X2621720Y446600D01*
G01X2637090Y404830D02*
X2666790Y375130D01*
G01X2686780Y381540D02*
X2726380Y421140D01*
X2736280Y411240D01*
X2738260Y405300D01*
X2738590Y399690D01*
X2737100Y393250D01*
X2734460Y386650D01*
X2728360Y379560D01*
X2721260Y373460D01*
X2714660Y370810D01*
X2708230Y369330D01*
X2702620Y369660D01*
X2696680Y371640D01*
X2686780Y381540D01*
G01X2717820Y350500D02*
X2769800Y377720D01*
X2742570Y325750D01*
G01X2751980Y344060D02*
X2736140Y359900D01*
G01X2802330Y345190D02*
X2762730Y305590D01*
G01X2790940Y356570D02*
X2813710Y333800D01*
G01X2836700Y451560D02*
X2846600Y441660D01*
X2834720Y429780D01*
X2827790Y428790D01*
X2821680Y429620D01*
X2815410Y433250D01*
X2811780Y439510D01*
X2810960Y445620D01*
X2811950Y452550D01*
X2814590Y459150D01*
X2818880Y465420D01*
X2823500Y470040D01*
X2828450Y473010D01*
X2835050Y475650D01*
X2841980Y476640D01*
X2847590Y476310D01*
X2853530Y474330D01*
X2856990Y470860D01*
X2859630Y465580D01*
X2859960Y459970D01*
G01X2835070Y413590D02*
X2874670Y453180D01*
X2857840Y390820D01*
X2897440Y430410D01*
G01X2868100Y380560D02*
X2907700Y420160D01*
X2917600Y410260D01*
X2919580Y404320D01*
X2919910Y398710D01*
X2918420Y392270D01*
X2915780Y385670D01*
X2909680Y378580D01*
X2902580Y372480D01*
X2895980Y369830D01*
X2889550Y368350D01*
X2883940Y368680D01*
X2878000Y370660D01*
X2868100Y380560D01*
G01X2505000Y4983000D02*
X2514900Y4992900D01*
X2526780Y4981020D01*
X2527770Y4974090D01*
X2526940Y4967980D01*
X2523310Y4961710D01*
X2517050Y4958080D01*
X2510940Y4957260D01*
X2504010Y4958250D01*
X2497410Y4960890D01*
X2491140Y4965180D01*
X2486520Y4969800D01*
X2483550Y4974750D01*
X2480910Y4981350D01*
X2479920Y4988280D01*
X2480250Y4993890D01*
X2482230Y4999830D01*
X2485700Y5003290D01*
X2490980Y5005930D01*
X2496590Y5006260D01*
G01X2544460Y4982860D02*
X2504860Y5022460D01*
X2516740Y5034340D01*
X2522680Y5036320D01*
X2530270Y5034670D01*
X2536540Y5030380D01*
X2540830Y5024110D01*
X2542320Y5017670D01*
X2539840Y5011240D01*
X2527960Y4999360D01*
G01X2541350Y5058950D02*
X2553230Y5070830D01*
G01X2547290Y5064890D02*
X2586890Y5025290D01*
G01X2580950Y5019350D02*
X2592830Y5031230D01*
G01X2619420Y5057820D02*
X2614800Y5054520D01*
X2608700Y5053690D01*
X2601770Y5054680D01*
X2595170Y5057320D01*
X2588900Y5061610D01*
X2583620Y5066890D01*
X2579330Y5073160D01*
X2576690Y5079760D01*
X2575700Y5086690D01*
X2576520Y5092800D01*
X2579820Y5097420D01*
X2584440Y5100720D01*
X2590550Y5101540D01*
X2597480Y5100550D01*
X2604080Y5097910D01*
X2610340Y5093620D01*
X2615620Y5088340D01*
X2619910Y5082070D01*
X2622550Y5075470D01*
X2623540Y5068540D01*
X2622720Y5062440D01*
X2619420Y5057820D01*
G01X2612350Y5129950D02*
X2609710Y5124670D01*
X2610040Y5118400D01*
X2612020Y5112460D01*
X2615820Y5105690D01*
X2621260Y5099260D01*
X2627700Y5093810D01*
X2634460Y5090020D01*
X2640400Y5088040D01*
X2646670Y5087710D01*
X2651950Y5090350D01*
X2654590Y5095630D01*
X2654260Y5101900D01*
X2652280Y5107840D01*
X2648490Y5114600D01*
X2643040Y5121040D01*
X2636610Y5126480D01*
X2629840Y5130280D01*
X2623900Y5132260D01*
X2617630Y5132590D01*
X2612350Y5129950D01*
G01X2644880Y5162480D02*
X2642240Y5157200D01*
X2642570Y5150930D01*
X2644550Y5144990D01*
X2648350Y5138220D01*
X2653790Y5131790D01*
X2660230Y5126340D01*
X2666990Y5122550D01*
X2672930Y5120570D01*
X2679200Y5120240D01*
X2684480Y5122880D01*
X2687120Y5128160D01*
X2686790Y5134430D01*
X2684810Y5140370D01*
X2681020Y5147130D01*
X2675570Y5153570D01*
X2669140Y5159010D01*
X2662370Y5162810D01*
X2656430Y5164790D01*
X2650160Y5165120D01*
X2644880Y5162480D01*
G01X2764080Y4998240D02*
X2773980Y5008140D01*
X2785860Y4996260D01*
X2786850Y4989330D01*
X2786020Y4983220D01*
X2782390Y4976950D01*
X2776130Y4973320D01*
X2770020Y4972500D01*
X2763090Y4973490D01*
X2756490Y4976130D01*
X2750220Y4980420D01*
X2745600Y4985040D01*
X2742630Y4989990D01*
X2739990Y4996590D01*
X2739000Y5003520D01*
X2739330Y5009130D01*
X2741310Y5015070D01*
X2744780Y5018530D01*
X2750060Y5021170D01*
X2755670Y5021500D01*
G01X2803540Y4998100D02*
X2763940Y5037700D01*
X2775820Y5049580D01*
X2781760Y5051560D01*
X2789350Y5049910D01*
X2795620Y5045620D01*
X2799910Y5039350D01*
X2801400Y5032910D01*
X2798920Y5026480D01*
X2787040Y5014600D01*
G01X2800430Y5074190D02*
X2812310Y5086070D01*
G01X2806370Y5080130D02*
X2845970Y5040530D01*
G01X2840030Y5034590D02*
X2851910Y5046470D01*
G01X2878500Y5073060D02*
X2873880Y5069760D01*
X2867780Y5068930D01*
X2860850Y5069920D01*
X2854250Y5072560D01*
X2847980Y5076850D01*
X2842700Y5082130D01*
X2838410Y5088400D01*
X2835770Y5095000D01*
X2834780Y5101930D01*
X2835600Y5108040D01*
X2838900Y5112660D01*
X2843520Y5115960D01*
X2849630Y5116780D01*
X2856560Y5115790D01*
X2863160Y5113150D01*
X2869420Y5108860D01*
X2874700Y5103580D01*
X2878990Y5097310D01*
X2881630Y5090710D01*
X2882620Y5083780D01*
X2881800Y5077680D01*
X2878500Y5073060D01*
G01X2871430Y5145190D02*
X2868790Y5139910D01*
X2869120Y5133640D01*
X2871100Y5127700D01*
X2874900Y5120930D01*
X2880340Y5114500D01*
X2886780Y5109050D01*
X2893540Y5105260D01*
X2899480Y5103280D01*
X2905750Y5102950D01*
X2911030Y5105590D01*
X2913670Y5110870D01*
X2913340Y5117140D01*
X2911360Y5123080D01*
X2907570Y5129840D01*
X2902120Y5136280D01*
X2895690Y5141720D01*
X2888920Y5145520D01*
X2882980Y5147500D01*
X2876710Y5147830D01*
X2871430Y5145190D01*
G01X2924750Y5135150D02*
X2932340Y5133500D01*
X2938940Y5134820D01*
X2944050Y5138610D01*
X2947350Y5143230D01*
X2948020Y5150490D01*
X2946530Y5156930D01*
X2943060Y5161380D01*
X2937460Y5165010D01*
X2930690Y5164850D01*
X2925900Y5162700D01*
X2921450Y5158250D01*
G01X2925900Y5162700D02*
X2926900Y5167650D01*
X2926070Y5173430D01*
X2923100Y5178380D01*
X2918150Y5181350D01*
X2912380Y5182170D01*
X2905940Y5179700D01*
X2902150Y5174580D01*
X2900330Y5167490D01*
G01X2993840Y463700D02*
X2992190Y456110D01*
X2993510Y449510D01*
X2997300Y444400D01*
X3001920Y441100D01*
X3009180Y440430D01*
X3015620Y441920D01*
X3020070Y445390D01*
X3023700Y450990D01*
X3023540Y457760D01*
X3021390Y462550D01*
X3016940Y467000D01*
G01X3021390Y462550D02*
X3026340Y461550D01*
X3032120Y462380D01*
X3037070Y465350D01*
X3040040Y470300D01*
X3040860Y476070D01*
X3038390Y482510D01*
X3033270Y486300D01*
X3026180Y488120D01*
G01X3056560Y464330D02*
X3029340Y412360D01*
X3081310Y439580D01*
G01X3058900Y398640D02*
X3057250Y391050D01*
X3058570Y384450D01*
X3062360Y379340D01*
X3066980Y376040D01*
X3074240Y375370D01*
X3080680Y376860D01*
X3085130Y380330D01*
X3088760Y385930D01*
X3088600Y392700D01*
X3086450Y397490D01*
X3082000Y401940D01*
G01X3086450Y397490D02*
X3091400Y396490D01*
X3097180Y397320D01*
X3102130Y400290D01*
X3105100Y405240D01*
X3105920Y411010D01*
X3103450Y417450D01*
X3098330Y421240D01*
X3091240Y423060D01*
G01X3306600Y461720D02*
X3316500Y451820D01*
X3304620Y439940D01*
X3297690Y438950D01*
X3291580Y439780D01*
X3285310Y443410D01*
X3281680Y449670D01*
X3280860Y455780D01*
X3281850Y462710D01*
X3284490Y469310D01*
X3288780Y475580D01*
X3293400Y480200D01*
X3298350Y483170D01*
X3304950Y485810D01*
X3311880Y486800D01*
X3317490Y486470D01*
X3323430Y484490D01*
X3326890Y481020D01*
X3329530Y475740D01*
X3329860Y470130D01*
G01X3304970Y423750D02*
X3344570Y463340D01*
X3327740Y400980D01*
X3367340Y440570D01*
G01X3338000Y390720D02*
X3377600Y430320D01*
X3387500Y420420D01*
X3389480Y414480D01*
X3389810Y408870D01*
X3388320Y402430D01*
X3385680Y395830D01*
X3379580Y388740D01*
X3372480Y382640D01*
X3365880Y379990D01*
X3359450Y378510D01*
X3353840Y378840D01*
X3347900Y380820D01*
X3338000Y390720D01*
G01X3534570Y542580D02*
X3507350Y490610D01*
X3559320Y517830D01*
G01X3528990Y468970D02*
X3568590Y508570D01*
X3578490Y498670D01*
X3580470Y492730D01*
X3580800Y487120D01*
X3579310Y480680D01*
X3576670Y474080D01*
X3570570Y466990D01*
X3563470Y460890D01*
X3556870Y458240D01*
X3550440Y456760D01*
X3544830Y457090D01*
X3538890Y459070D01*
X3528990Y468970D01*
G01X3561520Y436440D02*
X3601120Y476040D01*
X3611020Y466140D01*
X3613000Y460200D01*
X3613330Y454590D01*
X3611840Y448150D01*
X3609200Y441550D01*
X3603100Y434460D01*
X3596000Y428360D01*
X3589400Y425710D01*
X3582970Y424230D01*
X3577360Y424560D01*
X3571420Y426540D01*
X3561520Y436440D01*
G01X3576890Y394670D02*
X3606590Y364970D01*
G01X3627570Y370390D02*
X3667170Y409990D01*
X3679050Y398110D01*
X3681030Y392170D01*
X3679380Y384580D01*
X3675090Y378310D01*
X3668820Y374020D01*
X3662380Y372530D01*
X3655950Y375010D01*
X3644070Y386890D01*
G01X3657620Y340340D02*
X3709600Y367560D01*
X3682370Y315590D01*
G01X3691780Y333900D02*
X3675940Y349740D01*
G01X3010460Y4995700D02*
X3020360Y5005600D01*
X3032240Y4993720D01*
X3033230Y4986790D01*
X3032400Y4980680D01*
X3028770Y4974410D01*
X3022510Y4970780D01*
X3016400Y4969960D01*
X3009470Y4970950D01*
X3002870Y4973590D01*
X2996600Y4977880D01*
X2991980Y4982500D01*
X2989010Y4987450D01*
X2986370Y4994050D01*
X2985380Y5000980D01*
X2985710Y5006590D01*
X2987690Y5012530D01*
X2991160Y5015990D01*
X2996440Y5018630D01*
X3002050Y5018960D01*
G01X3049920Y4995560D02*
X3010320Y5035160D01*
X3022200Y5047040D01*
X3028140Y5049020D01*
X3035730Y5047370D01*
X3042000Y5043080D01*
X3046290Y5036810D01*
X3047780Y5030370D01*
X3045300Y5023940D01*
X3033420Y5012060D01*
G01X3046810Y5071650D02*
X3058690Y5083530D01*
G01X3052750Y5077590D02*
X3092350Y5037990D01*
G01X3086410Y5032050D02*
X3098290Y5043930D01*
G01X3124880Y5070520D02*
X3120260Y5067220D01*
X3114160Y5066390D01*
X3107230Y5067380D01*
X3100630Y5070020D01*
X3094360Y5074310D01*
X3089080Y5079590D01*
X3084790Y5085860D01*
X3082150Y5092460D01*
X3081160Y5099390D01*
X3081980Y5105500D01*
X3085280Y5110120D01*
X3089900Y5113420D01*
X3096010Y5114240D01*
X3102940Y5113250D01*
X3109540Y5110610D01*
X3115800Y5106320D01*
X3121080Y5101040D01*
X3125370Y5094770D01*
X3128010Y5088170D01*
X3129000Y5081240D01*
X3128180Y5075140D01*
X3124880Y5070520D01*
G01X3131510Y5110140D02*
X3130350Y5118230D01*
X3130680Y5123840D01*
X3133320Y5129120D01*
X3138110Y5131260D01*
X3143220Y5131100D01*
X3149160Y5129120D01*
X3154270Y5124990D01*
X3157740Y5120540D01*
X3159720Y5114600D01*
X3160050Y5108330D01*
X3157900Y5103540D01*
X3152630Y5100900D01*
X3145200Y5101400D01*
X3137280Y5105360D01*
X3130190Y5111460D01*
X3122600Y5121030D01*
X3119460Y5127140D01*
X3117320Y5134230D01*
X3117480Y5141000D01*
X3120290Y5145120D01*
X3125070Y5147270D01*
X3130850Y5146440D01*
G01X3147540Y5159170D02*
X3146550Y5166100D01*
X3148030Y5171550D01*
X3151330Y5176170D01*
X3157600Y5179800D01*
X3164370Y5179960D01*
X3169310Y5176990D01*
X3172780Y5172540D01*
X3174100Y5167260D01*
X3170800Y5150760D01*
X3170970Y5141680D01*
X3174600Y5132110D01*
X3179540Y5125180D01*
X3200330Y5145970D01*
G01X3256840Y4998240D02*
X3266740Y5008140D01*
X3278620Y4996260D01*
X3279610Y4989330D01*
X3278780Y4983220D01*
X3275150Y4976950D01*
X3268890Y4973320D01*
X3262780Y4972500D01*
X3255850Y4973490D01*
X3249250Y4976130D01*
X3242980Y4980420D01*
X3238360Y4985040D01*
X3235390Y4989990D01*
X3232750Y4996590D01*
X3231760Y5003520D01*
X3232090Y5009130D01*
X3234070Y5015070D01*
X3237540Y5018530D01*
X3242820Y5021170D01*
X3248430Y5021500D01*
G01X3296300Y4998100D02*
X3256700Y5037700D01*
X3268580Y5049580D01*
X3274520Y5051560D01*
X3282110Y5049910D01*
X3288380Y5045620D01*
X3292670Y5039350D01*
X3294160Y5032910D01*
X3291680Y5026480D01*
X3279800Y5014600D01*
G01X3293190Y5074190D02*
X3305070Y5086070D01*
G01X3299130Y5080130D02*
X3338730Y5040530D01*
G01X3332790Y5034590D02*
X3344670Y5046470D01*
G01X3371260Y5073060D02*
X3366640Y5069760D01*
X3360540Y5068930D01*
X3353610Y5069920D01*
X3347010Y5072560D01*
X3340740Y5076850D01*
X3335460Y5082130D01*
X3331170Y5088400D01*
X3328530Y5095000D01*
X3327540Y5101930D01*
X3328360Y5108040D01*
X3331660Y5112660D01*
X3336280Y5115960D01*
X3342390Y5116780D01*
X3349320Y5115790D01*
X3355920Y5113150D01*
X3362180Y5108860D01*
X3367460Y5103580D01*
X3371750Y5097310D01*
X3374390Y5090710D01*
X3375380Y5083780D01*
X3374560Y5077680D01*
X3371260Y5073060D01*
G01X3377890Y5112680D02*
X3376730Y5120770D01*
X3377060Y5126380D01*
X3379700Y5131660D01*
X3384490Y5133800D01*
X3389600Y5133640D01*
X3395540Y5131660D01*
X3400650Y5127530D01*
X3404120Y5123080D01*
X3406100Y5117140D01*
X3406430Y5110870D01*
X3404280Y5106080D01*
X3399010Y5103440D01*
X3391580Y5103940D01*
X3383660Y5107900D01*
X3376570Y5114000D01*
X3368980Y5123570D01*
X3365840Y5129680D01*
X3363700Y5136770D01*
X3363860Y5143540D01*
X3366670Y5147660D01*
X3371450Y5149810D01*
X3377230Y5148980D01*
G01X3396720Y5177720D02*
X3394080Y5172440D01*
X3394410Y5166170D01*
X3396390Y5160230D01*
X3400190Y5153460D01*
X3405630Y5147030D01*
X3412070Y5141580D01*
X3418830Y5137790D01*
X3424770Y5135810D01*
X3431040Y5135480D01*
X3436320Y5138120D01*
X3438960Y5143400D01*
X3438630Y5149670D01*
X3436650Y5155610D01*
X3432860Y5162370D01*
X3427410Y5168810D01*
X3420980Y5174250D01*
X3414210Y5178050D01*
X3408270Y5180030D01*
X3402000Y5180360D01*
X3396720Y5177720D01*
G01X3508300Y5038880D02*
X3518200Y5048780D01*
X3530080Y5036900D01*
X3531070Y5029970D01*
X3530240Y5023860D01*
X3526610Y5017590D01*
X3520350Y5013960D01*
X3514240Y5013140D01*
X3507310Y5014130D01*
X3500710Y5016770D01*
X3494440Y5021060D01*
X3489820Y5025680D01*
X3486850Y5030630D01*
X3484210Y5037230D01*
X3483220Y5044160D01*
X3483550Y5049770D01*
X3485530Y5055710D01*
X3489000Y5059170D01*
X3494280Y5061810D01*
X3499890Y5062140D01*
G01X3546270Y5037250D02*
X3506680Y5076850D01*
X3569040Y5060020D01*
X3529450Y5099620D01*
G01X3579300Y5070280D02*
X3539700Y5109880D01*
X3549600Y5119780D01*
X3555540Y5121760D01*
X3561150Y5122090D01*
X3567590Y5120600D01*
X3574190Y5117960D01*
X3581280Y5111860D01*
X3587380Y5104760D01*
X3590030Y5098160D01*
X3591510Y5091730D01*
X3591180Y5086120D01*
X3589200Y5080180D01*
X3579300Y5070280D01*
G01X3758580Y646200D02*
X3762080Y640600D01*
X3766280Y636870D01*
X3771180Y635000D01*
X3776780Y636870D01*
X3780980Y640600D01*
X3785180Y646200D01*
X3786580Y653670D01*
Y691000D01*
G01X3803180Y643400D02*
X3807380Y638730D01*
X3812280Y635930D01*
X3818580Y635000D01*
X3824880Y636870D01*
X3829780Y640600D01*
X3833280Y647130D01*
X3833980Y654600D01*
X3832580Y662070D01*
X3829080Y666730D01*
X3824180Y670470D01*
X3819280Y671400D01*
X3814380Y670470D01*
X3808080Y666730D01*
X3810180Y691000D01*
X3829080D01*
G01X3616340Y4969280D02*
X3619840Y4963680D01*
X3624040Y4959950D01*
X3628940Y4958080D01*
X3634540Y4959950D01*
X3638740Y4963680D01*
X3642940Y4969280D01*
X3644340Y4976750D01*
Y5014080D01*
G01X3684740Y4958080D02*
Y5014080D01*
X3658840Y4973950D01*
X3693840D01*
G01X5112820Y909380D02*
X5126820D01*
Y892580D01*
X5122620Y886980D01*
X5117720Y883250D01*
X5110720Y881380D01*
X5103720Y883250D01*
X5098820Y886980D01*
X5094620Y892580D01*
X5091820Y899110D01*
X5090420Y906580D01*
Y913110D01*
X5091820Y918710D01*
X5094620Y925250D01*
X5098820Y930850D01*
X5103020Y934580D01*
X5108620Y937380D01*
X5113520D01*
X5119120Y935510D01*
X5123320Y931780D01*
G01X5140620Y881380D02*
Y937380D01*
X5157420D01*
X5163020Y934580D01*
X5167220Y928050D01*
X5168620Y920580D01*
X5167220Y913110D01*
X5163720Y907510D01*
X5157420Y904710D01*
X5140620D01*
G01X5192220Y937380D02*
X5209020D01*
G01X5200620D02*
Y881380D01*
G01X5192220D02*
X5209020D01*
G01X5246620D02*
X5241020Y882310D01*
X5236120Y886050D01*
X5231920Y891650D01*
X5229120Y898180D01*
X5227720Y905650D01*
Y913110D01*
X5229120Y920580D01*
X5231920Y927110D01*
X5236120Y932710D01*
X5241020Y936450D01*
X5246620Y937380D01*
X5252220Y936450D01*
X5257120Y932710D01*
X5261320Y927110D01*
X5264120Y920580D01*
X5265520Y913110D01*
Y905650D01*
X5264120Y898180D01*
X5261320Y891650D01*
X5257120Y886050D01*
X5252220Y882310D01*
X5246620Y881380D01*
G01X5292620Y937380D02*
X5287020Y935510D01*
X5282820Y930850D01*
X5280020Y925250D01*
X5277920Y917780D01*
X5277220Y909380D01*
X5277920Y900980D01*
X5280020Y893510D01*
X5282820Y887910D01*
X5287020Y883250D01*
X5292620Y881380D01*
X5298220Y883250D01*
X5302420Y887910D01*
X5305220Y893510D01*
X5307320Y900980D01*
X5308020Y909380D01*
X5307320Y917780D01*
X5305220Y925250D01*
X5302420Y930850D01*
X5298220Y935510D01*
X5292620Y937380D01*
G01X5338620D02*
X5333020Y935510D01*
X5328820Y930850D01*
X5326020Y925250D01*
X5323920Y917780D01*
X5323220Y909380D01*
X5323920Y900980D01*
X5326020Y893510D01*
X5328820Y887910D01*
X5333020Y883250D01*
X5338620Y881380D01*
X5344220Y883250D01*
X5348420Y887910D01*
X5351220Y893510D01*
X5353320Y900980D01*
X5354020Y909380D01*
X5353320Y917780D01*
X5351220Y925250D01*
X5348420Y930850D01*
X5344220Y935510D01*
X5338620Y937380D01*
G01X4781500Y876150D02*
X4787100Y871480D01*
X4793400Y868680D01*
X4799000D01*
X4804600Y871480D01*
X4808800Y876150D01*
X4810900Y882680D01*
X4809500Y889210D01*
X4806000Y894810D01*
X4799700Y898550D01*
X4791300Y900410D01*
X4786400Y904150D01*
X4784300Y910680D01*
X4785700Y917210D01*
X4789200Y921880D01*
X4794100Y924680D01*
X4799000D01*
X4803900Y922810D01*
X4808100Y918150D01*
G01X4821200Y924680D02*
X4831000Y868680D01*
X4842200Y924680D01*
X4853400Y868680D01*
X4863200Y924680D01*
G01X4888200Y868680D02*
Y924680D01*
X4879800Y913480D01*
G01Y868680D02*
X4896600D01*
G01X5000640Y4587240D02*
Y4643240D01*
X5018140D01*
X5023740Y4640440D01*
X5027240Y4636710D01*
X5028640Y4629240D01*
X5027240Y4621770D01*
X5023040Y4617110D01*
X5018140Y4614310D01*
X5000640D01*
G01X5018140D02*
X5028640Y4587240D01*
G01X5045940Y4594710D02*
X5051540Y4590040D01*
X5057840Y4587240D01*
X5063440D01*
X5069040Y4590040D01*
X5073240Y4594710D01*
X5075340Y4601240D01*
X5073940Y4607770D01*
X5070440Y4613370D01*
X5064140Y4617110D01*
X5055740Y4618970D01*
X5050840Y4622710D01*
X5048740Y4629240D01*
X5050140Y4635770D01*
X5053640Y4640440D01*
X5058540Y4643240D01*
X5063440D01*
X5068340Y4641370D01*
X5072540Y4636710D01*
G01X5106640Y4643240D02*
Y4587240D01*
G01X5090540Y4643240D02*
X5122740D01*
G01X5136540Y4587240D02*
Y4643240D01*
X5168740Y4587240D01*
Y4643240D01*
G01X4753560Y4594710D02*
X4759160Y4590040D01*
X4765460Y4587240D01*
X4771060D01*
X4776660Y4590040D01*
X4780860Y4594710D01*
X4782960Y4601240D01*
X4781560Y4607770D01*
X4778060Y4613370D01*
X4771760Y4617110D01*
X4763360Y4618970D01*
X4758460Y4622710D01*
X4756360Y4629240D01*
X4757760Y4635770D01*
X4761260Y4640440D01*
X4766160Y4643240D01*
X4771060D01*
X4775960Y4641370D01*
X4780160Y4636710D01*
G01X4793260Y4643240D02*
X4803060Y4587240D01*
X4814260Y4643240D01*
X4825460Y4587240D01*
X4835260Y4643240D01*
G01X4846960Y4633910D02*
X4851160Y4639510D01*
X4856060Y4642310D01*
X4861660Y4643240D01*
X4868660Y4641370D01*
X4873560Y4636710D01*
X4874960Y4631110D01*
X4874260Y4625510D01*
X4871460Y4620840D01*
X4857460Y4611510D01*
X4851160Y4604970D01*
X4846960Y4595640D01*
X4845560Y4587240D01*
X4874960D01*
G01X5334760Y4216620D02*
X5338260Y4211020D01*
X5342460Y4207290D01*
X5347360Y4205420D01*
X5352960Y4207290D01*
X5357160Y4211020D01*
X5361360Y4216620D01*
X5362760Y4224090D01*
Y4261420D01*
G01X5381460Y4252090D02*
X5385660Y4257690D01*
X5390560Y4260490D01*
X5396160Y4261420D01*
X5403160Y4259550D01*
X5408060Y4254890D01*
X5409460Y4249290D01*
X5408760Y4243690D01*
X5405960Y4239020D01*
X5391960Y4229690D01*
X5385660Y4223150D01*
X5381460Y4213820D01*
X5380060Y4205420D01*
X5409460D01*
G01X5972380Y3395470D02*
X5968180Y3398270D01*
X5963280Y3400140D01*
X5957680D01*
X5951380Y3397340D01*
X5946480Y3392670D01*
X5942980Y3387070D01*
X5940180Y3377740D01*
X5939480Y3369340D01*
X5940880Y3360940D01*
X5942980Y3355340D01*
X5947180Y3349740D01*
X5952080Y3346010D01*
X5956980Y3344140D01*
X5961880D01*
X5966780Y3346010D01*
X5970980Y3348810D01*
X5974480Y3352540D01*
G01X5987580D02*
X5991780Y3347870D01*
X5996680Y3345070D01*
X6002980Y3344140D01*
X6009280Y3346010D01*
X6014180Y3349740D01*
X6017680Y3356270D01*
X6018380Y3363740D01*
X6016980Y3371210D01*
X6013480Y3375870D01*
X6008580Y3379610D01*
X6003680Y3380540D01*
X5998780Y3379610D01*
X5992480Y3375870D01*
X5994580Y3400140D01*
X6013480D01*
G01X5925200Y3445740D02*
Y3501740D01*
X5942700D01*
X5948300Y3498940D01*
X5951800Y3495210D01*
X5953200Y3487740D01*
X5951800Y3480270D01*
X5947600Y3475610D01*
X5942700Y3472810D01*
X5925200D01*
G01X5942700D02*
X5953200Y3445740D01*
G01X5985200D02*
Y3501740D01*
X5976800Y3490540D01*
G01Y3445740D02*
X5993600D01*
G01X6017900Y3469070D02*
X6022800Y3475610D01*
X6027000Y3479340D01*
X6032600Y3481210D01*
X6037500Y3479340D01*
X6041000Y3475610D01*
X6043800Y3470010D01*
X6044500Y3463470D01*
X6043800Y3457870D01*
X6041000Y3452270D01*
X6036800Y3447610D01*
X6031900Y3445740D01*
X6026300Y3447610D01*
X6021400Y3453210D01*
X6018600Y3461610D01*
X6017900Y3470940D01*
X6019300Y3483070D01*
X6021400Y3489610D01*
X6024900Y3496140D01*
X6029800Y3500810D01*
X6034700Y3501740D01*
X6039600Y3499870D01*
X6043100Y3495210D01*
G01X5889730Y3731060D02*
X5886930Y3726860D01*
X5885060Y3721960D01*
Y3716360D01*
X5887860Y3710060D01*
X5892530Y3705160D01*
X5898130Y3701660D01*
X5907460Y3698860D01*
X5915860Y3698160D01*
X5924260Y3699560D01*
X5929860Y3701660D01*
X5935460Y3705860D01*
X5939190Y3710760D01*
X5941060Y3715660D01*
Y3720560D01*
X5939190Y3725460D01*
X5936390Y3729660D01*
X5932660Y3733160D01*
G01X5929860Y3746260D02*
X5936390Y3750460D01*
X5940130Y3756060D01*
X5941060Y3762360D01*
X5940130Y3767960D01*
X5935460Y3773560D01*
X5929860Y3777060D01*
X5924260Y3777760D01*
X5917730Y3776360D01*
X5913060Y3771460D01*
X5911190Y3766560D01*
Y3760260D01*
G01Y3766560D02*
X5908390Y3770760D01*
X5903730Y3774260D01*
X5898130Y3775660D01*
X5892530Y3774260D01*
X5887860Y3770760D01*
X5885060Y3764460D01*
X5885990Y3758160D01*
X5889730Y3751860D01*
G01X5917730Y3794360D02*
X5911190Y3799260D01*
X5907460Y3803460D01*
X5905590Y3809060D01*
X5907460Y3813960D01*
X5911190Y3817460D01*
X5916790Y3820260D01*
X5923330Y3820960D01*
X5928930Y3820260D01*
X5934530Y3817460D01*
X5939190Y3813260D01*
X5941060Y3808360D01*
X5939190Y3802760D01*
X5933590Y3797860D01*
X5925190Y3795060D01*
X5915860Y3794360D01*
X5903730Y3795760D01*
X5897190Y3797860D01*
X5890660Y3801360D01*
X5885990Y3806260D01*
X5885060Y3811160D01*
X5886930Y3816060D01*
X5891590Y3819560D01*
G01X5747400Y4577080D02*
Y4633080D01*
X5764900D01*
X5770500Y4630280D01*
X5774000Y4626550D01*
X5775400Y4619080D01*
X5774000Y4611610D01*
X5769800Y4606950D01*
X5764900Y4604150D01*
X5747400D01*
G01X5764900D02*
X5775400Y4577080D01*
G01X5807400D02*
Y4633080D01*
X5799000Y4621880D01*
G01Y4577080D02*
X5815800D01*
G01X5841500Y4583610D02*
X5846400Y4578950D01*
X5852000Y4577080D01*
X5857600Y4578950D01*
X5862500Y4584550D01*
X5866000Y4592950D01*
X5867400Y4601350D01*
Y4611610D01*
X5866000Y4620010D01*
X5862500Y4627480D01*
X5858300Y4631210D01*
X5853400Y4633080D01*
X5847800Y4631210D01*
X5843600Y4627480D01*
X5840800Y4621880D01*
X5839400Y4614410D01*
X5840800Y4607880D01*
X5844300Y4601350D01*
X5848500Y4597610D01*
X5853400Y4596680D01*
X5859000Y4598550D01*
X5863200Y4603210D01*
X5867400Y4611610D01*
G01X5749940Y4749800D02*
Y4805800D01*
X5767440D01*
X5773040Y4803000D01*
X5776540Y4799270D01*
X5777940Y4791800D01*
X5776540Y4784330D01*
X5772340Y4779670D01*
X5767440Y4776870D01*
X5749940D01*
G01X5767440D02*
X5777940Y4749800D01*
G01X5809940D02*
Y4805800D01*
X5801540Y4794600D01*
G01Y4749800D02*
X5818340D01*
G01X5840540Y4758200D02*
X5844740Y4753530D01*
X5849640Y4750730D01*
X5855940Y4749800D01*
X5862240Y4751670D01*
X5867140Y4755400D01*
X5870640Y4761930D01*
X5871340Y4769400D01*
X5869940Y4776870D01*
X5866440Y4781530D01*
X5861540Y4785270D01*
X5856640Y4786200D01*
X5851740Y4785270D01*
X5845440Y4781530D01*
X5847540Y4805800D01*
X5866440D01*
G01X5771720Y5004330D02*
X5767520Y5007130D01*
X5762620Y5009000D01*
X5757020D01*
X5750720Y5006200D01*
X5745820Y5001530D01*
X5742320Y4995930D01*
X5739520Y4986600D01*
X5738820Y4978200D01*
X5740220Y4969800D01*
X5742320Y4964200D01*
X5746520Y4958600D01*
X5751420Y4954870D01*
X5756320Y4953000D01*
X5761220D01*
X5766120Y4954870D01*
X5770320Y4957670D01*
X5773820Y4961400D01*
G01X5810720Y4953000D02*
Y5009000D01*
X5784820Y4968870D01*
X5819820D01*
G01X5848320Y4953000D02*
Y5009000D01*
X5839920Y4997800D01*
G01Y4953000D02*
X5856720D01*
G01X6101080Y441340D02*
X6045080D01*
Y458840D01*
X6047880Y464440D01*
X6051610Y467940D01*
X6059080Y469340D01*
X6066550Y467940D01*
X6071210Y463740D01*
X6074010Y458840D01*
Y441340D01*
G01Y458840D02*
X6101080Y469340D01*
G01Y501340D02*
X6100150Y506240D01*
X6097350Y511840D01*
X6092680Y515340D01*
X6086150Y516740D01*
X6079610Y515340D01*
X6074010Y511140D01*
X6071210Y504840D01*
Y497840D01*
X6069350Y493640D01*
X6064680Y490140D01*
X6058150Y488740D01*
X6051610Y490840D01*
X6046950Y495740D01*
X6045080Y501340D01*
X6046950Y506940D01*
X6051610Y511840D01*
X6058150Y513940D01*
X6064680Y512540D01*
X6069350Y509040D01*
X6071210Y504840D01*
Y497840D01*
X6074010Y491540D01*
X6079610Y487340D01*
X6086150Y485940D01*
X6092680Y487340D01*
X6097350Y490840D01*
X6100150Y496440D01*
X6101080Y501340D01*
G01X6228080Y421020D02*
X6172080D01*
Y438520D01*
X6174880Y444120D01*
X6178610Y447620D01*
X6186080Y449020D01*
X6193550Y447620D01*
X6198210Y443420D01*
X6201010Y438520D01*
Y421020D01*
G01Y438520D02*
X6228080Y449020D01*
G01X6221550Y469120D02*
X6226210Y474020D01*
X6228080Y479620D01*
X6226210Y485220D01*
X6220610Y490120D01*
X6212210Y493620D01*
X6203810Y495020D01*
X6193550D01*
X6185150Y493620D01*
X6177680Y490120D01*
X6173950Y485920D01*
X6172080Y481020D01*
X6173950Y475420D01*
X6177680Y471220D01*
X6183280Y468420D01*
X6190750Y467020D01*
X6197280Y468420D01*
X6203810Y471920D01*
X6207550Y476120D01*
X6208480Y481020D01*
X6206610Y486620D01*
X6201950Y490820D01*
X6193550Y495020D01*
G01X6545580Y577100D02*
X6489580D01*
Y591100D01*
X6492380Y596700D01*
X6496110Y600900D01*
X6501710Y604400D01*
X6508250Y607200D01*
X6517580Y607900D01*
X6526910Y607200D01*
X6533450Y604400D01*
X6539050Y600900D01*
X6542780Y596700D01*
X6545580Y591100D01*
Y577100D01*
G01Y638500D02*
X6544650Y643400D01*
X6541850Y649000D01*
X6537180Y652500D01*
X6530650Y653900D01*
X6524110Y652500D01*
X6518510Y648300D01*
X6515710Y642000D01*
Y635000D01*
X6513850Y630800D01*
X6509180Y627300D01*
X6502650Y625900D01*
X6496110Y628000D01*
X6491450Y632900D01*
X6489580Y638500D01*
X6491450Y644100D01*
X6496110Y649000D01*
X6502650Y651100D01*
X6509180Y649700D01*
X6513850Y646200D01*
X6515710Y642000D01*
Y635000D01*
X6518510Y628700D01*
X6524110Y624500D01*
X6530650Y623100D01*
X6537180Y624500D01*
X6541850Y628000D01*
X6544650Y633600D01*
X6545580Y638500D01*
G01X6383020Y640080D02*
Y607060D01*
G01X6377940Y624840D02*
X6344920D01*
G01X6405880D02*
X6433820D01*
G01X6403340Y609600D02*
Y640080D01*
X6388100Y624840D01*
X6403340Y609600D01*
G01X6482920Y1572790D02*
X6478720Y1575590D01*
X6473820Y1577460D01*
X6468220D01*
X6461920Y1574660D01*
X6457020Y1569990D01*
X6453520Y1564390D01*
X6450720Y1555060D01*
X6450020Y1546660D01*
X6451420Y1538260D01*
X6453520Y1532660D01*
X6457720Y1527060D01*
X6462620Y1523330D01*
X6467520Y1521460D01*
X6472420D01*
X6477320Y1523330D01*
X6481520Y1526130D01*
X6485020Y1529860D01*
G01X6521920Y1521460D02*
Y1577460D01*
X6496020Y1537330D01*
X6531020D01*
G01X6558120Y1521460D02*
X6559520Y1533590D01*
X6561620Y1543860D01*
X6564420Y1553190D01*
X6567920Y1563460D01*
X6573520Y1577460D01*
X6545520D01*
G01X6498160Y1323870D02*
X6493960Y1326670D01*
X6489060Y1328540D01*
X6483460D01*
X6477160Y1325740D01*
X6472260Y1321070D01*
X6468760Y1315470D01*
X6465960Y1306140D01*
X6465260Y1297740D01*
X6466660Y1289340D01*
X6468760Y1283740D01*
X6472960Y1278140D01*
X6477860Y1274410D01*
X6482760Y1272540D01*
X6487660D01*
X6492560Y1274410D01*
X6496760Y1277210D01*
X6500260Y1280940D01*
G01X6537160Y1272540D02*
Y1328540D01*
X6511260Y1288410D01*
X6546260D01*
G01X6574760Y1272540D02*
X6579660Y1273470D01*
X6585260Y1276270D01*
X6588760Y1280940D01*
X6590160Y1287470D01*
X6588760Y1294010D01*
X6584560Y1299610D01*
X6578260Y1302410D01*
X6571260D01*
X6567060Y1304270D01*
X6563560Y1308940D01*
X6562160Y1315470D01*
X6564260Y1322010D01*
X6569160Y1326670D01*
X6574760Y1328540D01*
X6580360Y1326670D01*
X6585260Y1322010D01*
X6587360Y1315470D01*
X6585960Y1308940D01*
X6582460Y1304270D01*
X6578260Y1302410D01*
X6571260D01*
X6564960Y1299610D01*
X6560760Y1294010D01*
X6559360Y1287470D01*
X6560760Y1280940D01*
X6564260Y1276270D01*
X6569860Y1273470D01*
X6574760Y1272540D01*
G01X6057700Y2222560D02*
X6071700D01*
Y2205760D01*
X6067500Y2200160D01*
X6062600Y2196430D01*
X6055600Y2194560D01*
X6048600Y2196430D01*
X6043700Y2200160D01*
X6039500Y2205760D01*
X6036700Y2212290D01*
X6035300Y2219760D01*
Y2226290D01*
X6036700Y2231890D01*
X6039500Y2238430D01*
X6043700Y2244030D01*
X6047900Y2247760D01*
X6053500Y2250560D01*
X6058400D01*
X6064000Y2248690D01*
X6068200Y2244960D01*
G01X6085500Y2194560D02*
Y2250560D01*
X6102300D01*
X6107900Y2247760D01*
X6112100Y2241230D01*
X6113500Y2233760D01*
X6112100Y2226290D01*
X6108600Y2220690D01*
X6102300Y2217890D01*
X6085500D01*
G01X6137100Y2250560D02*
X6153900D01*
G01X6145500D02*
Y2194560D01*
G01X6137100D02*
X6153900D01*
G01X6191500D02*
X6185900Y2195490D01*
X6181000Y2199230D01*
X6176800Y2204830D01*
X6174000Y2211360D01*
X6172600Y2218830D01*
Y2226290D01*
X6174000Y2233760D01*
X6176800Y2240290D01*
X6181000Y2245890D01*
X6185900Y2249630D01*
X6191500Y2250560D01*
X6197100Y2249630D01*
X6202000Y2245890D01*
X6206200Y2240290D01*
X6209000Y2233760D01*
X6210400Y2226290D01*
Y2218830D01*
X6209000Y2211360D01*
X6206200Y2204830D01*
X6202000Y2199230D01*
X6197100Y2195490D01*
X6191500Y2194560D01*
G01X6237500Y2250560D02*
X6231900Y2248690D01*
X6227700Y2244030D01*
X6224900Y2238430D01*
X6222800Y2230960D01*
X6222100Y2222560D01*
X6222800Y2214160D01*
X6224900Y2206690D01*
X6227700Y2201090D01*
X6231900Y2196430D01*
X6237500Y2194560D01*
X6243100Y2196430D01*
X6247300Y2201090D01*
X6250100Y2206690D01*
X6252200Y2214160D01*
X6252900Y2222560D01*
X6252200Y2230960D01*
X6250100Y2238430D01*
X6247300Y2244030D01*
X6243100Y2248690D01*
X6237500Y2250560D01*
G01X6270200Y2241230D02*
X6274400Y2246830D01*
X6279300Y2249630D01*
X6284900Y2250560D01*
X6291900Y2248690D01*
X6296800Y2244030D01*
X6298200Y2238430D01*
X6297500Y2232830D01*
X6294700Y2228160D01*
X6280700Y2218830D01*
X6274400Y2212290D01*
X6270200Y2202960D01*
X6268800Y2194560D01*
X6298200D01*
G01X6486540Y1760220D02*
Y1816220D01*
X6504040D01*
X6509640Y1813420D01*
X6513140Y1809690D01*
X6514540Y1802220D01*
X6513140Y1794750D01*
X6508940Y1790090D01*
X6504040Y1787290D01*
X6486540D01*
G01X6504040D02*
X6514540Y1760220D01*
G01X6533240Y1806890D02*
X6537440Y1812490D01*
X6542340Y1815290D01*
X6547940Y1816220D01*
X6554940Y1814350D01*
X6559840Y1809690D01*
X6561240Y1804090D01*
X6560540Y1798490D01*
X6557740Y1793820D01*
X6543740Y1784490D01*
X6537440Y1777950D01*
X6533240Y1768620D01*
X6531840Y1760220D01*
X6561240D01*
G01X6523240Y1963420D02*
Y2019420D01*
X6537240D01*
X6542840Y2016620D01*
X6547040Y2012890D01*
X6550540Y2007290D01*
X6553340Y2000750D01*
X6554040Y1991420D01*
X6553340Y1982090D01*
X6550540Y1975550D01*
X6547040Y1969950D01*
X6542840Y1966220D01*
X6537240Y1963420D01*
X6523240D01*
G01X6593040D02*
Y2019420D01*
X6567140Y1979290D01*
X6602140D01*
G01X6269400Y2380100D02*
Y2324100D01*
G01X6253300Y2380100D02*
X6285500D01*
G01X6301400Y2324100D02*
Y2380100D01*
X6318200D01*
X6323800Y2377300D01*
X6328000Y2370770D01*
X6329400Y2363300D01*
X6328000Y2355830D01*
X6324500Y2350230D01*
X6318200Y2347430D01*
X6301400D01*
G01X6346000Y2335300D02*
X6350200Y2328770D01*
X6355800Y2325030D01*
X6362100Y2324100D01*
X6367700Y2325030D01*
X6373300Y2329700D01*
X6376800Y2335300D01*
X6377500Y2340900D01*
X6376100Y2347430D01*
X6371200Y2352100D01*
X6366300Y2353970D01*
X6360000D01*
G01X6366300D02*
X6370500Y2356770D01*
X6374000Y2361430D01*
X6375400Y2367030D01*
X6374000Y2372630D01*
X6370500Y2377300D01*
X6364200Y2380100D01*
X6357900Y2379170D01*
X6351600Y2375430D01*
G01X6395720Y2507040D02*
X6339720D01*
Y2521040D01*
X6342520Y2526640D01*
X6346250Y2530840D01*
X6351850Y2534340D01*
X6358390Y2537140D01*
X6367720Y2537840D01*
X6377050Y2537140D01*
X6383590Y2534340D01*
X6389190Y2530840D01*
X6392920Y2526640D01*
X6395720Y2521040D01*
Y2507040D01*
G01X6387320Y2553040D02*
X6391990Y2557240D01*
X6394790Y2562140D01*
X6395720Y2568440D01*
X6393850Y2574740D01*
X6390120Y2579640D01*
X6383590Y2583140D01*
X6376120Y2583840D01*
X6368650Y2582440D01*
X6363990Y2578940D01*
X6360250Y2574040D01*
X6359320Y2569140D01*
X6360250Y2564240D01*
X6363990Y2557940D01*
X6339720Y2560040D01*
Y2578940D01*
G01X6532880Y2539540D02*
Y2572560D01*
G01X6537960Y2554780D02*
X6570980D01*
G01X6510020D02*
X6482080D01*
G01X6512560Y2570020D02*
Y2539540D01*
X6527800Y2554780D01*
X6512560Y2570020D01*
G01X6449060Y3142860D02*
X6393060D01*
Y3160360D01*
X6395860Y3165960D01*
X6399590Y3169460D01*
X6407060Y3170860D01*
X6414530Y3169460D01*
X6419190Y3165260D01*
X6421990Y3160360D01*
Y3142860D01*
G01Y3160360D02*
X6449060Y3170860D01*
G01X6437860Y3187460D02*
X6444390Y3191660D01*
X6448130Y3197260D01*
X6449060Y3203560D01*
X6448130Y3209160D01*
X6443460Y3214760D01*
X6437860Y3218260D01*
X6432260Y3218960D01*
X6425730Y3217560D01*
X6421060Y3212660D01*
X6419190Y3207760D01*
Y3201460D01*
G01Y3207760D02*
X6416390Y3211960D01*
X6411730Y3215460D01*
X6406130Y3216860D01*
X6400530Y3215460D01*
X6395860Y3211960D01*
X6393060Y3205660D01*
X6393990Y3199360D01*
X6397730Y3193060D01*
G01X6440660Y3233460D02*
X6445330Y3237660D01*
X6448130Y3242560D01*
X6449060Y3248860D01*
X6447190Y3255160D01*
X6443460Y3260060D01*
X6436930Y3263560D01*
X6429460Y3264260D01*
X6421990Y3262860D01*
X6417330Y3259360D01*
X6413590Y3254460D01*
X6412660Y3249560D01*
X6413590Y3244660D01*
X6417330Y3238360D01*
X6393060Y3240460D01*
Y3259360D01*
G01X6357620Y3147940D02*
X6301620D01*
Y3165440D01*
X6304420Y3171040D01*
X6308150Y3174540D01*
X6315620Y3175940D01*
X6323090Y3174540D01*
X6327750Y3170340D01*
X6330550Y3165440D01*
Y3147940D01*
G01Y3165440D02*
X6357620Y3175940D01*
G01X6346420Y3192540D02*
X6352950Y3196740D01*
X6356690Y3202340D01*
X6357620Y3208640D01*
X6356690Y3214240D01*
X6352020Y3219840D01*
X6346420Y3223340D01*
X6340820Y3224040D01*
X6334290Y3222640D01*
X6329620Y3217740D01*
X6327750Y3212840D01*
Y3206540D01*
G01Y3212840D02*
X6324950Y3217040D01*
X6320290Y3220540D01*
X6314690Y3221940D01*
X6309090Y3220540D01*
X6304420Y3217040D01*
X6301620Y3210740D01*
X6302550Y3204440D01*
X6306290Y3198140D01*
G01X6334290Y3240640D02*
X6327750Y3245540D01*
X6324020Y3249740D01*
X6322150Y3255340D01*
X6324020Y3260240D01*
X6327750Y3263740D01*
X6333350Y3266540D01*
X6339890Y3267240D01*
X6345490Y3266540D01*
X6351090Y3263740D01*
X6355750Y3259540D01*
X6357620Y3254640D01*
X6355750Y3249040D01*
X6350150Y3244140D01*
X6341750Y3241340D01*
X6332420Y3240640D01*
X6320290Y3242040D01*
X6313750Y3244140D01*
X6307220Y3247640D01*
X6302550Y3252540D01*
X6301620Y3257440D01*
X6303490Y3262340D01*
X6308150Y3265840D01*
G01X6440820Y2958640D02*
Y3014640D01*
X6458320D01*
X6463920Y3011840D01*
X6467420Y3008110D01*
X6468820Y3000640D01*
X6467420Y2993170D01*
X6463220Y2988510D01*
X6458320Y2985710D01*
X6440820D01*
G01X6458320D02*
X6468820Y2958640D01*
G01X6485420Y2969840D02*
X6489620Y2963310D01*
X6495220Y2959570D01*
X6501520Y2958640D01*
X6507120Y2959570D01*
X6512720Y2964240D01*
X6516220Y2969840D01*
X6516920Y2975440D01*
X6515520Y2981970D01*
X6510620Y2986640D01*
X6505720Y2988510D01*
X6499420D01*
G01X6505720D02*
X6509920Y2991310D01*
X6513420Y2995970D01*
X6514820Y3001570D01*
X6513420Y3007170D01*
X6509920Y3011840D01*
X6503620Y3014640D01*
X6497320Y3013710D01*
X6491020Y3009970D01*
G01X6531420Y2969840D02*
X6535620Y2963310D01*
X6541220Y2959570D01*
X6547520Y2958640D01*
X6553120Y2959570D01*
X6558720Y2964240D01*
X6562220Y2969840D01*
X6562920Y2975440D01*
X6561520Y2981970D01*
X6556620Y2986640D01*
X6551720Y2988510D01*
X6545420D01*
G01X6551720D02*
X6555920Y2991310D01*
X6559420Y2995970D01*
X6560820Y3001570D01*
X6559420Y3007170D01*
X6555920Y3011840D01*
X6549620Y3014640D01*
X6543320Y3013710D01*
X6537020Y3009970D01*
G01X6472000Y2854960D02*
Y2910960D01*
X6498600D01*
G01X6488800Y2883890D02*
X6472000D01*
G01X6531300Y2854960D02*
Y2910960D01*
X6522900Y2899760D01*
G01Y2854960D02*
X6539700D01*
G01X6255820Y4206770D02*
X6251620Y4209570D01*
X6246720Y4211440D01*
X6241120D01*
X6234820Y4208640D01*
X6229920Y4203970D01*
X6226420Y4198370D01*
X6223620Y4189040D01*
X6222920Y4180640D01*
X6224320Y4172240D01*
X6226420Y4166640D01*
X6230620Y4161040D01*
X6235520Y4157310D01*
X6240420Y4155440D01*
X6245320D01*
X6250220Y4157310D01*
X6254420Y4160110D01*
X6257920Y4163840D01*
G01X6271020Y4166640D02*
X6275220Y4160110D01*
X6280820Y4156370D01*
X6287120Y4155440D01*
X6292720Y4156370D01*
X6298320Y4161040D01*
X6301820Y4166640D01*
X6302520Y4172240D01*
X6301120Y4178770D01*
X6296220Y4183440D01*
X6291320Y4185310D01*
X6285020D01*
G01X6291320D02*
X6295520Y4188110D01*
X6299020Y4192770D01*
X6300420Y4198370D01*
X6299020Y4203970D01*
X6295520Y4208640D01*
X6289220Y4211440D01*
X6282920Y4210510D01*
X6276620Y4206770D01*
G01X6320520Y4161970D02*
X6325420Y4157310D01*
X6331020Y4155440D01*
X6336620Y4157310D01*
X6341520Y4162910D01*
X6345020Y4171310D01*
X6346420Y4179710D01*
Y4189970D01*
X6345020Y4198370D01*
X6341520Y4205840D01*
X6337320Y4209570D01*
X6332420Y4211440D01*
X6326820Y4209570D01*
X6322620Y4205840D01*
X6319820Y4200240D01*
X6318420Y4192770D01*
X6319820Y4186240D01*
X6323320Y4179710D01*
X6327520Y4175970D01*
X6332420Y4175040D01*
X6338020Y4176910D01*
X6342220Y4181570D01*
X6346420Y4189970D01*
G01X6433700Y4920500D02*
X6473830D01*
X6482230Y4923300D01*
X6487830Y4928900D01*
X6489700Y4935900D01*
X6487830Y4942900D01*
X6482230Y4948500D01*
X6473830Y4951300D01*
X6433700D01*
G01X6489700Y4981900D02*
X6488770Y4986800D01*
X6485970Y4992400D01*
X6481300Y4995900D01*
X6474770Y4997300D01*
X6468230Y4995900D01*
X6462630Y4991700D01*
X6459830Y4985400D01*
Y4978400D01*
X6457970Y4974200D01*
X6453300Y4970700D01*
X6446770Y4969300D01*
X6440230Y4971400D01*
X6435570Y4976300D01*
X6433700Y4981900D01*
X6435570Y4987500D01*
X6440230Y4992400D01*
X6446770Y4994500D01*
X6453300Y4993100D01*
X6457970Y4989600D01*
X6459830Y4985400D01*
Y4978400D01*
X6462630Y4972100D01*
X6468230Y4967900D01*
X6474770Y4966500D01*
X6481300Y4967900D01*
X6485970Y4971400D01*
X6488770Y4977000D01*
X6489700Y4981900D01*
G01X6826200Y330200D02*
Y386200D01*
G01X6855600D02*
Y330200D01*
G01Y358200D02*
X6826200D01*
G01X6873600Y376870D02*
X6877800Y382470D01*
X6882700Y385270D01*
X6888300Y386200D01*
X6895300Y384330D01*
X6900200Y379670D01*
X6901600Y374070D01*
X6900900Y368470D01*
X6898100Y363800D01*
X6884100Y354470D01*
X6877800Y347930D01*
X6873600Y338600D01*
X6872200Y330200D01*
X6901600D01*
G01X6784340Y1315720D02*
Y1341120D01*
G01Y1295400D02*
Y1267460D01*
G01X6799460Y1313430D02*
X6768980D01*
G01X6799580Y1297940D02*
X6769100D01*
G01X6794500Y1833880D02*
X6774180Y1813560D01*
X6794500Y1793240D01*
X6774180Y1772920D01*
X6791960Y1755140D01*
X6774180Y1737360D01*
G01X6652340Y2185440D02*
Y2241440D01*
X6678940D01*
G01X6669140Y2214370D02*
X6652340D01*
G01X6698340Y2232110D02*
X6702540Y2237710D01*
X6707440Y2240510D01*
X6713040Y2241440D01*
X6720040Y2239570D01*
X6724940Y2234910D01*
X6726340Y2229310D01*
X6725640Y2223710D01*
X6722840Y2219040D01*
X6708840Y2209710D01*
X6702540Y2203170D01*
X6698340Y2193840D01*
X6696940Y2185440D01*
X6726340D01*
G01X6987540Y2256560D02*
X6964680Y2233700D01*
X6985000Y2213380D01*
X6962140Y2190520D01*
X6985000Y2167660D01*
X6959600Y2142260D01*
G01X7085340Y2630420D02*
X7075340D01*
Y2560420D01*
X7085340D01*
Y2630420D01*
X7245340D01*
Y2560420D01*
X7085340D01*
G01Y2732020D02*
X7075340D01*
Y2662020D01*
X7085340D01*
Y2732020D01*
X7245340D01*
Y2662020D01*
X7085340D01*
G01X6638940Y2481580D02*
Y2537580D01*
X6656440D01*
X6662040Y2534780D01*
X6665540Y2531050D01*
X6666940Y2523580D01*
X6665540Y2516110D01*
X6661340Y2511450D01*
X6656440Y2508650D01*
X6638940D01*
G01X6656440D02*
X6666940Y2481580D01*
G01X6685640Y2528250D02*
X6689840Y2533850D01*
X6694740Y2536650D01*
X6700340Y2537580D01*
X6707340Y2535710D01*
X6712240Y2531050D01*
X6713640Y2525450D01*
X6712940Y2519850D01*
X6710140Y2515180D01*
X6696140Y2505850D01*
X6689840Y2499310D01*
X6685640Y2489980D01*
X6684240Y2481580D01*
X6713640D01*
G01X6729540Y2489980D02*
X6733740Y2485310D01*
X6738640Y2482510D01*
X6744940Y2481580D01*
X6751240Y2483450D01*
X6756140Y2487180D01*
X6759640Y2493710D01*
X6760340Y2501180D01*
X6758940Y2508650D01*
X6755440Y2513310D01*
X6750540Y2517050D01*
X6745640Y2517980D01*
X6740740Y2517050D01*
X6734440Y2513310D01*
X6736540Y2537580D01*
X6755440D01*
G01X6832600Y2588260D02*
X6852920Y2608580D01*
X6832600Y2628900D01*
X6852920Y2649220D01*
X6835140Y2667000D01*
X6852920Y2684780D01*
G01X6830060Y2804160D02*
X6850380Y2824480D01*
X6830060Y2844800D01*
X6850380Y2865120D01*
X6832600Y2882900D01*
X6850380Y2900680D01*
G01X6775020Y3382770D02*
X6770820Y3385570D01*
X6765920Y3387440D01*
X6760320D01*
X6754020Y3384640D01*
X6749120Y3379970D01*
X6745620Y3374370D01*
X6742820Y3365040D01*
X6742120Y3356640D01*
X6743520Y3348240D01*
X6745620Y3342640D01*
X6749820Y3337040D01*
X6754720Y3333310D01*
X6759620Y3331440D01*
X6764520D01*
X6769420Y3333310D01*
X6773620Y3336110D01*
X6777120Y3339840D01*
G01X6792320Y3354770D02*
X6797220Y3361310D01*
X6801420Y3365040D01*
X6807020Y3366910D01*
X6811920Y3365040D01*
X6815420Y3361310D01*
X6818220Y3355710D01*
X6818920Y3349170D01*
X6818220Y3343570D01*
X6815420Y3337970D01*
X6811220Y3333310D01*
X6806320Y3331440D01*
X6800720Y3333310D01*
X6795820Y3338910D01*
X6793020Y3347310D01*
X6792320Y3356640D01*
X6793720Y3368770D01*
X6795820Y3375310D01*
X6799320Y3381840D01*
X6804220Y3386510D01*
X6809120Y3387440D01*
X6814020Y3385570D01*
X6817520Y3380910D01*
G01X6830060Y2984040D02*
X6850380Y3004360D01*
X6830060Y3024680D01*
X6850380Y3045000D01*
X6832600Y3062780D01*
X6850380Y3080560D01*
G01X6941820Y3340160D02*
X6885820D01*
Y3354160D01*
X6888620Y3359760D01*
X6892350Y3363960D01*
X6897950Y3367460D01*
X6904490Y3370260D01*
X6913820Y3370960D01*
X6923150Y3370260D01*
X6929690Y3367460D01*
X6935290Y3363960D01*
X6939020Y3359760D01*
X6941820Y3354160D01*
Y3340160D01*
G01X6930620Y3386160D02*
X6937150Y3390360D01*
X6940890Y3395960D01*
X6941820Y3402260D01*
X6940890Y3407860D01*
X6936220Y3413460D01*
X6930620Y3416960D01*
X6925020Y3417660D01*
X6918490Y3416260D01*
X6913820Y3411360D01*
X6911950Y3406460D01*
Y3400160D01*
G01Y3406460D02*
X6909150Y3410660D01*
X6904490Y3414160D01*
X6898890Y3415560D01*
X6893290Y3414160D01*
X6888620Y3410660D01*
X6885820Y3404360D01*
X6886750Y3398060D01*
X6890490Y3391760D01*
G01X6727840Y3430500D02*
Y3486500D01*
X6745340D01*
X6750940Y3483700D01*
X6754440Y3479970D01*
X6755840Y3472500D01*
X6754440Y3465030D01*
X6750240Y3460370D01*
X6745340Y3457570D01*
X6727840D01*
G01X6745340D02*
X6755840Y3430500D01*
G01X6787840D02*
Y3486500D01*
X6779440Y3475300D01*
G01Y3430500D02*
X6796240D01*
G01X6833840D02*
X6838740Y3431430D01*
X6844340Y3434230D01*
X6847840Y3438900D01*
X6849240Y3445430D01*
X6847840Y3451970D01*
X6843640Y3457570D01*
X6837340Y3460370D01*
X6830340D01*
X6826140Y3462230D01*
X6822640Y3466900D01*
X6821240Y3473430D01*
X6823340Y3479970D01*
X6828240Y3484630D01*
X6833840Y3486500D01*
X6839440Y3484630D01*
X6844340Y3479970D01*
X6846440Y3473430D01*
X6845040Y3466900D01*
X6841540Y3462230D01*
X6837340Y3460370D01*
X6830340D01*
X6824040Y3457570D01*
X6819840Y3451970D01*
X6818440Y3445430D01*
X6819840Y3438900D01*
X6823340Y3434230D01*
X6828940Y3431430D01*
X6833840Y3430500D01*
G01X6952860Y3657600D02*
Y3713600D01*
X6970360D01*
X6975960Y3710800D01*
X6979460Y3707070D01*
X6980860Y3699600D01*
X6979460Y3692130D01*
X6975260Y3687470D01*
X6970360Y3684670D01*
X6952860D01*
G01X6970360D02*
X6980860Y3657600D01*
G01X7021260D02*
Y3713600D01*
X6995360Y3673470D01*
X7030360D01*
G01X7058860Y3713600D02*
X7053260Y3711730D01*
X7049060Y3707070D01*
X7046260Y3701470D01*
X7044160Y3694000D01*
X7043460Y3685600D01*
X7044160Y3677200D01*
X7046260Y3669730D01*
X7049060Y3664130D01*
X7053260Y3659470D01*
X7058860Y3657600D01*
X7064460Y3659470D01*
X7068660Y3664130D01*
X7071460Y3669730D01*
X7073560Y3677200D01*
X7074260Y3685600D01*
X7073560Y3694000D01*
X7071460Y3701470D01*
X7068660Y3707070D01*
X7064460Y3711730D01*
X7058860Y3713600D01*
G01X6955400Y3947160D02*
Y4003160D01*
X6972900D01*
X6978500Y4000360D01*
X6982000Y3996630D01*
X6983400Y3989160D01*
X6982000Y3981690D01*
X6977800Y3977030D01*
X6972900Y3974230D01*
X6955400D01*
G01X6972900D02*
X6983400Y3947160D01*
G01X7023800D02*
Y4003160D01*
X6997900Y3963030D01*
X7032900D01*
G01X7061400Y3947160D02*
Y4003160D01*
X7053000Y3991960D01*
G01Y3947160D02*
X7069800D01*
G01X6721360Y3609220D02*
Y3569090D01*
X6724160Y3560690D01*
X6729760Y3555090D01*
X6736760Y3553220D01*
X6743760Y3555090D01*
X6749360Y3560690D01*
X6752160Y3569090D01*
Y3609220D01*
G01X6767360Y3561620D02*
X6771560Y3556950D01*
X6776460Y3554150D01*
X6782760Y3553220D01*
X6789060Y3555090D01*
X6793960Y3558820D01*
X6797460Y3565350D01*
X6798160Y3572820D01*
X6796760Y3580290D01*
X6793260Y3584950D01*
X6788360Y3588690D01*
X6783460Y3589620D01*
X6778560Y3588690D01*
X6772260Y3584950D01*
X6774360Y3609220D01*
X6793260D01*
G01X6928080Y4220860D02*
X6872080D01*
Y4238360D01*
X6874880Y4243960D01*
X6878610Y4247460D01*
X6886080Y4248860D01*
X6893550Y4247460D01*
X6898210Y4243260D01*
X6901010Y4238360D01*
Y4220860D01*
G01Y4238360D02*
X6928080Y4248860D01*
G01Y4280860D02*
X6872080D01*
X6883280Y4272460D01*
G01X6928080D02*
Y4289260D01*
G01Y4335260D02*
X6872080D01*
X6912210Y4309360D01*
Y4344360D01*
G01X6973270Y4250260D02*
X6970470Y4246060D01*
X6968600Y4241160D01*
Y4235560D01*
X6971400Y4229260D01*
X6976070Y4224360D01*
X6981670Y4220860D01*
X6991000Y4218060D01*
X6999400Y4217360D01*
X7007800Y4218760D01*
X7013400Y4220860D01*
X7019000Y4225060D01*
X7022730Y4229960D01*
X7024600Y4234860D01*
Y4239760D01*
X7022730Y4244660D01*
X7019930Y4248860D01*
X7016200Y4252360D01*
G01X7013400Y4265460D02*
X7019930Y4269660D01*
X7023670Y4275260D01*
X7024600Y4281560D01*
X7023670Y4287160D01*
X7019000Y4292760D01*
X7013400Y4296260D01*
X7007800Y4296960D01*
X7001270Y4295560D01*
X6996600Y4290660D01*
X6994730Y4285760D01*
Y4279460D01*
G01Y4285760D02*
X6991930Y4289960D01*
X6987270Y4293460D01*
X6981670Y4294860D01*
X6976070Y4293460D01*
X6971400Y4289960D01*
X6968600Y4283660D01*
X6969530Y4277360D01*
X6973270Y4271060D01*
G01X7024600Y4326860D02*
X7023670Y4331760D01*
X7020870Y4337360D01*
X7016200Y4340860D01*
X7009670Y4342260D01*
X7003130Y4340860D01*
X6997530Y4336660D01*
X6994730Y4330360D01*
Y4323360D01*
X6992870Y4319160D01*
X6988200Y4315660D01*
X6981670Y4314260D01*
X6975130Y4316360D01*
X6970470Y4321260D01*
X6968600Y4326860D01*
X6970470Y4332460D01*
X6975130Y4337360D01*
X6981670Y4339460D01*
X6988200Y4338060D01*
X6992870Y4334560D01*
X6994730Y4330360D01*
Y4323360D01*
X6997530Y4317060D01*
X7003130Y4312860D01*
X7009670Y4311460D01*
X7016200Y4312860D01*
X7020870Y4316360D01*
X7023670Y4321960D01*
X7024600Y4326860D01*
G01X7074870Y4255340D02*
X7072070Y4251140D01*
X7070200Y4246240D01*
Y4240640D01*
X7073000Y4234340D01*
X7077670Y4229440D01*
X7083270Y4225940D01*
X7092600Y4223140D01*
X7101000Y4222440D01*
X7109400Y4223840D01*
X7115000Y4225940D01*
X7120600Y4230140D01*
X7124330Y4235040D01*
X7126200Y4239940D01*
Y4244840D01*
X7124330Y4249740D01*
X7121530Y4253940D01*
X7117800Y4257440D01*
G01X7115000Y4270540D02*
X7121530Y4274740D01*
X7125270Y4280340D01*
X7126200Y4286640D01*
X7125270Y4292240D01*
X7120600Y4297840D01*
X7115000Y4301340D01*
X7109400Y4302040D01*
X7102870Y4300640D01*
X7098200Y4295740D01*
X7096330Y4290840D01*
Y4284540D01*
G01Y4290840D02*
X7093530Y4295040D01*
X7088870Y4298540D01*
X7083270Y4299940D01*
X7077670Y4298540D01*
X7073000Y4295040D01*
X7070200Y4288740D01*
X7071130Y4282440D01*
X7074870Y4276140D01*
G01X7126200Y4330540D02*
X7114070Y4331940D01*
X7103800Y4334040D01*
X7094470Y4336840D01*
X7084200Y4340340D01*
X7070200Y4345940D01*
Y4317940D01*
G01X6657140Y4194070D02*
X6652940Y4196870D01*
X6648040Y4198740D01*
X6642440D01*
X6636140Y4195940D01*
X6631240Y4191270D01*
X6627740Y4185670D01*
X6624940Y4176340D01*
X6624240Y4167940D01*
X6625640Y4159540D01*
X6627740Y4153940D01*
X6631940Y4148340D01*
X6636840Y4144610D01*
X6641740Y4142740D01*
X6646640D01*
X6651540Y4144610D01*
X6655740Y4147410D01*
X6659240Y4151140D01*
G01X6696140Y4142740D02*
Y4198740D01*
X6670240Y4158610D01*
X6705240D01*
G01X6733740Y4198740D02*
X6728140Y4196870D01*
X6723940Y4192210D01*
X6721140Y4186610D01*
X6719040Y4179140D01*
X6718340Y4170740D01*
X6719040Y4162340D01*
X6721140Y4154870D01*
X6723940Y4149270D01*
X6728140Y4144610D01*
X6733740Y4142740D01*
X6739340Y4144610D01*
X6743540Y4149270D01*
X6746340Y4154870D01*
X6748440Y4162340D01*
X6749140Y4170740D01*
X6748440Y4179140D01*
X6746340Y4186610D01*
X6743540Y4192210D01*
X6739340Y4196870D01*
X6733740Y4198740D01*
G01X6722760Y4869180D02*
Y4925180D01*
X6740260D01*
X6745860Y4922380D01*
X6749360Y4918650D01*
X6750760Y4911180D01*
X6749360Y4903710D01*
X6745160Y4899050D01*
X6740260Y4896250D01*
X6722760D01*
G01X6740260D02*
X6750760Y4869180D01*
G01X6782760D02*
Y4925180D01*
X6774360Y4913980D01*
G01Y4869180D02*
X6791160D01*
G01X6827360D02*
X6828760Y4881310D01*
X6830860Y4891580D01*
X6833660Y4900910D01*
X6837160Y4911180D01*
X6842760Y4925180D01*
X6814760D01*
G01X6758280Y4638360D02*
Y4694360D01*
X6775780D01*
X6781380Y4691560D01*
X6784880Y4687830D01*
X6786280Y4680360D01*
X6784880Y4672890D01*
X6780680Y4668230D01*
X6775780Y4665430D01*
X6758280D01*
G01X6775780D02*
X6786280Y4638360D01*
G01X6802880Y4649560D02*
X6807080Y4643030D01*
X6812680Y4639290D01*
X6818980Y4638360D01*
X6824580Y4639290D01*
X6830180Y4643960D01*
X6833680Y4649560D01*
X6834380Y4655160D01*
X6832980Y4661690D01*
X6828080Y4666360D01*
X6823180Y4668230D01*
X6816880D01*
G01X6823180D02*
X6827380Y4671030D01*
X6830880Y4675690D01*
X6832280Y4681290D01*
X6830880Y4686890D01*
X6827380Y4691560D01*
X6821080Y4694360D01*
X6814780Y4693430D01*
X6808480Y4689690D01*
G01X6852380Y4644890D02*
X6857280Y4640230D01*
X6862880Y4638360D01*
X6868480Y4640230D01*
X6873380Y4645830D01*
X6876880Y4654230D01*
X6878280Y4662630D01*
Y4672890D01*
X6876880Y4681290D01*
X6873380Y4688760D01*
X6869180Y4692490D01*
X6864280Y4694360D01*
X6858680Y4692490D01*
X6854480Y4688760D01*
X6851680Y4683160D01*
X6850280Y4675690D01*
X6851680Y4669160D01*
X6855180Y4662630D01*
X6859380Y4658890D01*
X6864280Y4657960D01*
X6869880Y4659830D01*
X6874080Y4664490D01*
X6878280Y4672890D01*
G01X6785180Y4796050D02*
X6780980Y4798850D01*
X6776080Y4800720D01*
X6770480D01*
X6764180Y4797920D01*
X6759280Y4793250D01*
X6755780Y4787650D01*
X6752980Y4778320D01*
X6752280Y4769920D01*
X6753680Y4761520D01*
X6755780Y4755920D01*
X6759980Y4750320D01*
X6764880Y4746590D01*
X6769780Y4744720D01*
X6774680D01*
X6779580Y4746590D01*
X6783780Y4749390D01*
X6787280Y4753120D01*
G01X6814380Y4744720D02*
X6815780Y4756850D01*
X6817880Y4767120D01*
X6820680Y4776450D01*
X6824180Y4786720D01*
X6829780Y4800720D01*
X6801780D01*
G01X7674180Y987550D02*
X7669980Y990350D01*
X7665080Y992220D01*
X7659480D01*
X7653180Y989420D01*
X7648280Y984750D01*
X7644780Y979150D01*
X7641980Y969820D01*
X7641280Y961420D01*
X7642680Y953020D01*
X7644780Y947420D01*
X7648980Y941820D01*
X7653880Y938090D01*
X7658780Y936220D01*
X7663680D01*
X7668580Y938090D01*
X7672780Y940890D01*
X7676280Y944620D01*
G01X7688680Y936220D02*
Y992220D01*
X7720880Y936220D01*
Y992220D01*
G01X7750780Y936220D02*
Y992220D01*
X7742380Y981020D01*
G01Y936220D02*
X7759180D01*
G01X7745680Y2087270D02*
X7751280Y2082600D01*
X7757580Y2079800D01*
X7763180D01*
X7768780Y2082600D01*
X7772980Y2087270D01*
X7775080Y2093800D01*
X7773680Y2100330D01*
X7770180Y2105930D01*
X7763880Y2109670D01*
X7755480Y2111530D01*
X7750580Y2115270D01*
X7748480Y2121800D01*
X7749880Y2128330D01*
X7753380Y2133000D01*
X7758280Y2135800D01*
X7763180D01*
X7768080Y2133930D01*
X7772280Y2129270D01*
G01X7785380Y2135800D02*
X7795180Y2079800D01*
X7806380Y2135800D01*
X7817580Y2079800D01*
X7827380Y2135800D01*
G01X7860780Y2079800D02*
Y2135800D01*
X7834880Y2095670D01*
X7869880D01*
G01X7297940Y2559860D02*
Y2615860D01*
X7311940D01*
X7317540Y2613060D01*
X7321740Y2609330D01*
X7325240Y2603730D01*
X7328040Y2597190D01*
X7328740Y2587860D01*
X7328040Y2578530D01*
X7325240Y2571990D01*
X7321740Y2566390D01*
X7317540Y2562660D01*
X7311940Y2559860D01*
X7297940D01*
G01X7346040Y2583190D02*
X7350940Y2589730D01*
X7355140Y2593460D01*
X7360740Y2595330D01*
X7365640Y2593460D01*
X7369140Y2589730D01*
X7371940Y2584130D01*
X7372640Y2577590D01*
X7371940Y2571990D01*
X7369140Y2566390D01*
X7364940Y2561730D01*
X7360040Y2559860D01*
X7354440Y2561730D01*
X7349540Y2567330D01*
X7346740Y2575730D01*
X7346040Y2585060D01*
X7347440Y2597190D01*
X7349540Y2603730D01*
X7353040Y2610260D01*
X7357940Y2614930D01*
X7362840Y2615860D01*
X7367740Y2613990D01*
X7371240Y2609330D01*
G01X7297940Y2704640D02*
Y2760640D01*
X7311940D01*
X7317540Y2757840D01*
X7321740Y2754110D01*
X7325240Y2748510D01*
X7328040Y2741970D01*
X7328740Y2732640D01*
X7328040Y2723310D01*
X7325240Y2716770D01*
X7321740Y2711170D01*
X7317540Y2707440D01*
X7311940Y2704640D01*
X7297940D01*
G01X7357940D02*
X7359340Y2716770D01*
X7361440Y2727040D01*
X7364240Y2736370D01*
X7367740Y2746640D01*
X7373340Y2760640D01*
X7345340D01*
G01X7393940Y3344560D02*
X7337940D01*
Y3362060D01*
X7340740Y3367660D01*
X7344470Y3371160D01*
X7351940Y3372560D01*
X7359410Y3371160D01*
X7364070Y3366960D01*
X7366870Y3362060D01*
Y3344560D01*
G01Y3362060D02*
X7393940Y3372560D01*
G01Y3404560D02*
X7337940D01*
X7349140Y3396160D01*
G01X7393940D02*
Y3412960D01*
G01X7238470Y2985340D02*
X7235670Y2981140D01*
X7233800Y2976240D01*
Y2970640D01*
X7236600Y2964340D01*
X7241270Y2959440D01*
X7246870Y2955940D01*
X7256200Y2953140D01*
X7264600Y2952440D01*
X7273000Y2953840D01*
X7278600Y2955940D01*
X7284200Y2960140D01*
X7287930Y2965040D01*
X7289800Y2969940D01*
Y2974840D01*
X7287930Y2979740D01*
X7285130Y2983940D01*
X7281400Y2987440D01*
G01X7289800Y3024340D02*
X7233800D01*
X7273930Y2998440D01*
Y3033440D01*
G01X7266470Y3048640D02*
X7259930Y3053540D01*
X7256200Y3057740D01*
X7254330Y3063340D01*
X7256200Y3068240D01*
X7259930Y3071740D01*
X7265530Y3074540D01*
X7272070Y3075240D01*
X7277670Y3074540D01*
X7283270Y3071740D01*
X7287930Y3067540D01*
X7289800Y3062640D01*
X7287930Y3057040D01*
X7282330Y3052140D01*
X7273930Y3049340D01*
X7264600Y3048640D01*
X7252470Y3050040D01*
X7245930Y3052140D01*
X7239400Y3055640D01*
X7234730Y3060540D01*
X7233800Y3065440D01*
X7235670Y3070340D01*
X7240330Y3073840D01*
G01X7294360Y3919220D02*
Y3975220D01*
X7308360D01*
X7313960Y3972420D01*
X7318160Y3968690D01*
X7321660Y3963090D01*
X7324460Y3956550D01*
X7325160Y3947220D01*
X7324460Y3937890D01*
X7321660Y3931350D01*
X7318160Y3925750D01*
X7313960Y3922020D01*
X7308360Y3919220D01*
X7294360D01*
G01X7355760D02*
Y3975220D01*
X7347360Y3964020D01*
G01Y3919220D02*
X7364160D01*
G01X7289280Y3710940D02*
Y3766940D01*
X7303280D01*
X7308880Y3764140D01*
X7313080Y3760410D01*
X7316580Y3754810D01*
X7319380Y3748270D01*
X7320080Y3738940D01*
X7319380Y3729610D01*
X7316580Y3723070D01*
X7313080Y3717470D01*
X7308880Y3713740D01*
X7303280Y3710940D01*
X7289280D01*
G01X7337380Y3757610D02*
X7341580Y3763210D01*
X7346480Y3766010D01*
X7352080Y3766940D01*
X7359080Y3765070D01*
X7363980Y3760410D01*
X7365380Y3754810D01*
X7364680Y3749210D01*
X7361880Y3744540D01*
X7347880Y3735210D01*
X7341580Y3728670D01*
X7337380Y3719340D01*
X7335980Y3710940D01*
X7365380D01*
G01X7284720Y3416300D02*
X7264400Y3436620D01*
X7244080Y3416300D01*
X7223760Y3436620D01*
X7205980Y3418840D01*
X7188200Y3436620D01*
G01X7596400Y4425740D02*
X7590560Y4429680D01*
X7583740Y4432300D01*
X7575950D01*
X7567190Y4428360D01*
X7560380Y4421800D01*
X7555510Y4413930D01*
X7551610Y4400800D01*
X7550640Y4388990D01*
X7552590Y4377180D01*
X7555510Y4369310D01*
X7561350Y4361430D01*
X7568160Y4356180D01*
X7574980Y4353560D01*
X7581800D01*
X7588610Y4356180D01*
X7594450Y4360120D01*
X7599320Y4365370D01*
G01X7623010Y4353560D02*
Y4432300D01*
X7667790Y4353560D01*
Y4432300D01*
G01X7697320Y4419180D02*
X7703160Y4427050D01*
X7709980Y4430990D01*
X7717770Y4432300D01*
X7727500Y4429680D01*
X7734320Y4423110D01*
X7736270Y4415240D01*
X7735290Y4407360D01*
X7731400Y4400800D01*
X7711930Y4387680D01*
X7703160Y4378490D01*
X7697320Y4365370D01*
X7695370Y4353560D01*
X7736270D01*
G01X7522160Y5148580D02*
Y5204580D01*
G01X7551560D02*
Y5148580D01*
G01Y5176580D02*
X7522160D01*
G01X7591260Y5148580D02*
Y5204580D01*
X7565360Y5164450D01*
X7600360D01*
G01X7762500Y650240D02*
Y706240D01*
X7780700Y659570D01*
X7798900Y706240D01*
Y650240D01*
G01X7826700D02*
Y706240D01*
X7818300Y695040D01*
G01Y650240D02*
X7835100D01*
G01X7752340Y4775200D02*
Y4831200D01*
X7770540Y4784530D01*
X7788740Y4831200D01*
Y4775200D01*
G01X7803240Y4821870D02*
X7807440Y4827470D01*
X7812340Y4830270D01*
X7817940Y4831200D01*
X7824940Y4829330D01*
X7829840Y4824670D01*
X7831240Y4819070D01*
X7830540Y4813470D01*
X7827740Y4808800D01*
X7813740Y4799470D01*
X7807440Y4792930D01*
X7803240Y4783600D01*
X7801840Y4775200D01*
X7831240D01*
G54D46*
G01X-204900Y2433360D02*
X-954900D01*
Y3073360D01*
X-204900D01*
G01X-904900Y2433360D02*
Y3073360D01*
G01X-854900Y2433360D02*
Y3073360D01*
G01X-804900Y2433360D02*
Y3073360D01*
G01X-754900Y2433360D02*
Y3073360D01*
G01X-704900Y2433360D02*
Y3073360D01*
G01X-204900Y3163360D02*
Y2343360D01*
X625100D01*
Y3163360D01*
X-204900D01*
G01X-654900Y2433360D02*
Y3073360D01*
G01X-24900Y3163360D02*
Y2343360D01*
X5100D01*
G01X1051780Y2793360D02*
Y2713360D01*
G01X861780Y2793360D02*
X1051780D01*
G01X861780Y2713360D02*
Y2793360D01*
G01X1051780Y2713360D02*
X861780D01*
G01X839300Y2776220D02*
Y2628900D01*
G02X759300I-40000J12610D01*
G01D02*
Y2776220D01*
G02X839300I40000J-14520D01*
G01X1154260Y2773680D02*
Y2626360D01*
G02X1074260I-40000J12610D01*
G01D02*
Y2773680D01*
G02X1154260I40000J-14520D01*
G01X5912100Y4625980D02*
Y4705980D01*
G01X6102100Y4625980D02*
X5912100D01*
G01Y4705980D02*
X6102100D01*
G01X5909560Y4815200D02*
X6099560D01*
G01X5909560Y4735200D02*
Y4815200D01*
G01X6099560Y4735200D02*
X5909560D01*
G01X6078220Y4857120D02*
X5930900D01*
G02Y4937120I12610J40000D01*
G01D02*
X6078220D01*
G02Y4857120I-14520J-40000D01*
G01X6175380Y740160D02*
X6255380D01*
G01X6175380Y550160D02*
Y740160D01*
G01X6255380Y550160D02*
X6175380D01*
G01X6255380Y740160D02*
Y550160D01*
G01X6040760Y740160D02*
X6120760D01*
G01X6040760Y550160D02*
Y740160D01*
G01X6120760Y550160D02*
X6040760D01*
G01X6120760Y740160D02*
Y550160D01*
G01X6388740Y3307560D02*
Y3497560D01*
G01X6468740Y3307560D02*
X6388740D01*
G01X6468740Y3497560D02*
Y3307560D01*
G01X6297300D02*
Y3497560D01*
G01X6377300Y3307560D02*
X6297300D01*
G01X6377300Y3497560D02*
Y3307560D01*
G01X6106160Y3399380D02*
X6253480D01*
G02Y3319380I-12610J-40000D01*
G01D02*
X6106160D01*
G02Y3399380I14520J40000D01*
G01X6670040Y3319380D02*
X6522720D01*
G02Y3399380I12610J40000D01*
G01D02*
X6670040D01*
G02Y3319380I-14520J-40000D01*
G01X6084820Y3413360D02*
Y3493360D01*
G01X6274820Y3413360D02*
X6084820D01*
G01X6274820Y3493360D02*
Y3413360D01*
G01X6084820Y3493360D02*
X6274820D01*
G01X6501380D02*
X6691380D01*
G01X6501380Y3413360D02*
Y3493360D01*
G01X6691380Y3413360D02*
X6501380D01*
G01X6388740Y3497560D02*
X6468740D01*
G01X6297300D02*
X6377300D01*
G01X6067420Y3831820D02*
Y3684500D01*
G02X5987420I-40000J12609D01*
G01D02*
Y3831820D01*
G02X6067420I40000J-14519D01*
G01X6354040Y4309740D02*
X6501360D01*
G02Y4229740I-12610J-40000D01*
G01D02*
X6354040D01*
G02Y4309740I14520J40000D01*
G01X6102100Y4705980D02*
Y4625980D01*
G01X6099560Y4815200D02*
Y4735200D01*
G01X6506460Y4857120D02*
Y4937120D01*
G01X6696460Y4857120D02*
X6506460D01*
G01Y4937120D02*
X6696460D01*
G01X6506460Y4625980D02*
Y4705980D01*
G01X6696460Y4625980D02*
X6506460D01*
G01Y4705980D02*
X6696460D01*
G01X6675120Y4735200D02*
X6527800D01*
G02Y4815200I12610J40000D01*
G01D02*
X6675120D01*
G02Y4735200I-14520J-40000D01*
G01X7005320Y2271800D02*
X7147880D01*
Y2109240D01*
X6995160D01*
G01X6946900Y2271800D02*
X6801800D01*
Y2109240D01*
X6954520D01*
G01X6865220Y3996940D02*
Y4186940D01*
G01X6945220Y3996940D02*
X6865220D01*
G01X6945220Y4186940D02*
Y3996940D01*
G01X6691380Y3493360D02*
Y3413360D01*
G01X7109440Y3816980D02*
Y3736980D01*
G01X6919440Y3816980D02*
X7109440D01*
G01X6919440Y3736980D02*
Y3816980D01*
G01X7109440Y3736980D02*
X6919440D01*
G01X7109440Y3936360D02*
Y3856360D01*
G01X6919440Y3936360D02*
X7109440D01*
G01X6919440Y3856360D02*
Y3936360D01*
G01X7109440Y3856360D02*
X6919440D01*
G01X7041740Y4165600D02*
Y4018280D01*
G02X6961740I-40000J12610D01*
G01X7138260Y4165600D02*
Y4018280D01*
G02X7058260I-40000J14519D01*
G01X6865220Y4186940D02*
X6945220D01*
G01X6961740Y4018280D02*
Y4165600D01*
G02X7041740I40000J-14519D01*
G01X7058260Y4018280D02*
Y4165600D01*
G02X7138260I40000J-12609D01*
G01X6585180Y4309740D02*
X6732500D01*
G02Y4229740I-12610J-40000D01*
G01D02*
X6585180D01*
G02Y4309740I14520J40000D01*
G01X6696460Y4937120D02*
Y4857120D01*
G01Y4705980D02*
Y4625980D01*
G01X8064000Y2495520D02*
Y2595520D01*
G01D02*
X8014000Y2545520D01*
G01D02*
X8064000Y2495520D01*
G54D19*
X4654680Y594360D03*
Y4907280D03*
X5464680Y594360D03*
Y4907280D03*
G54D37*
X7478520Y1254280D03*
Y1832280D03*
G54D28*
X6704340Y1305560D03*
X6864340D03*
Y1783080D03*
X6704340D03*
X6762760Y2639060D03*
X6922760D03*
X6760220Y2854960D03*
X6920220D03*
X6760220Y3034840D03*
X6920220D03*
G54D56*
G01X100000Y250000D02*
X7900000D01*
G03X8000000Y350000I0J100000D01*
G01Y5150000D01*
G03X7900000Y5250000I-100000J0D01*
G01X100000D01*
G03X0Y5150000I0J-100000D01*
G01Y350000D01*
G03X100000Y250000I100000J0D01*
G01X2763520Y2194560D02*
G03I-12700J-7620D01*
G01X7942720Y454660D02*
G03I-150000J0D01*
G01X7945260Y5046980D02*
G03I-150000J0D01*
G54D47*
G01X4754880Y394360D02*
Y514360D01*
G01X5364480Y394360D02*
X4754880D01*
G01Y794360D02*
Y674360D01*
G01X5364480Y794360D02*
X4754880D01*
G01Y4707280D02*
Y4827280D01*
G01X5364480Y4707280D02*
X4754880D01*
G01Y5107280D02*
Y4987280D01*
G01X5364480Y5107280D02*
X4754880D01*
G01X5364480Y514360D02*
Y394360D01*
G01Y674360D02*
Y794360D01*
G01Y4827280D02*
Y4707280D01*
G01Y4987280D02*
Y5107280D01*
G01X6404280Y4880760D02*
Y4850760D01*
G01X6204280Y4880760D02*
X6404280D01*
G01X6204280Y4740760D02*
Y4880760D01*
G01X6404280Y4740760D02*
X6204280D01*
G01X6404280Y4770760D02*
Y4740760D01*
G01Y4850760D02*
G03Y4770760I0J-40000D01*
G01X7252410Y1187680D02*
G03I-18490J0D01*
G54D29*
X7079840Y2190520D03*
X6869840D03*
G54D38*
X7428520Y1111280D03*
X7843520D03*
X7428520Y1975280D03*
X7843520D03*
G54D48*
G01X6399280Y5050760D02*
G03I-15000J0D01*
G54D39*
X7724140Y2524960D03*
Y2724960D03*
Y2924960D03*
G54D49*
G01X1400000Y1350000D02*
Y4150000D01*
X5400000D01*
Y1350000D01*
X1400000D01*
G01X1515010Y4376420D02*
X1546260Y4466420D01*
X1577510Y4376420D01*
G01X1566260Y4407920D02*
X1526260D01*
G01X1603010Y4388420D02*
X1613010Y4380920D01*
X1624260Y4376420D01*
X1634260D01*
X1644260Y4380920D01*
X1651760Y4388420D01*
X1655510Y4398920D01*
X1653010Y4409420D01*
X1646760Y4418420D01*
X1635510Y4424420D01*
X1620510Y4427420D01*
X1611760Y4433420D01*
X1608010Y4443920D01*
X1610510Y4454420D01*
X1616760Y4461920D01*
X1625510Y4466420D01*
X1634260D01*
X1643010Y4463420D01*
X1650510Y4455920D01*
G01X1687260Y4376420D02*
Y4466420D01*
X1718510D01*
X1728510Y4461920D01*
X1734760Y4455920D01*
X1737260Y4443920D01*
X1734760Y4431920D01*
X1727260Y4424420D01*
X1718510Y4419920D01*
X1687260D01*
G01X1718510D02*
X1737260Y4376420D01*
G01X1771510Y4413920D02*
X1780260Y4424420D01*
X1787760Y4430420D01*
X1797760Y4433420D01*
X1806510Y4430420D01*
X1812760Y4424420D01*
X1817760Y4415420D01*
X1819010Y4404920D01*
X1817760Y4395920D01*
X1812760Y4386920D01*
X1805260Y4379420D01*
X1796510Y4376420D01*
X1786510Y4379420D01*
X1777760Y4388420D01*
X1772760Y4401920D01*
X1771510Y4416920D01*
X1774010Y4436420D01*
X1777760Y4446920D01*
X1784010Y4457420D01*
X1792760Y4464920D01*
X1801510Y4466420D01*
X1810260Y4463420D01*
X1816510Y4455920D01*
G01X1854510Y4413920D02*
X1863260Y4424420D01*
X1870760Y4430420D01*
X1880760Y4433420D01*
X1889510Y4430420D01*
X1895760Y4424420D01*
X1900760Y4415420D01*
X1902010Y4404920D01*
X1900760Y4395920D01*
X1895760Y4386920D01*
X1888260Y4379420D01*
X1879510Y4376420D01*
X1869510Y4379420D01*
X1860760Y4388420D01*
X1855760Y4401920D01*
X1854510Y4416920D01*
X1857010Y4436420D01*
X1860760Y4446920D01*
X1867010Y4457420D01*
X1875760Y4464920D01*
X1884510Y4466420D01*
X1893260Y4463420D01*
X1899510Y4455920D01*
G01X1961260Y4466420D02*
X1951260Y4463420D01*
X1943760Y4455920D01*
X1938760Y4446920D01*
X1935010Y4434920D01*
X1933760Y4421420D01*
X1935010Y4407920D01*
X1938760Y4395920D01*
X1943760Y4386920D01*
X1951260Y4379420D01*
X1961260Y4376420D01*
X1971260Y4379420D01*
X1978760Y4386920D01*
X1983760Y4395920D01*
X1987510Y4407920D01*
X1988760Y4421420D01*
X1987510Y4434920D01*
X1983760Y4446920D01*
X1978760Y4455920D01*
X1971260Y4463420D01*
X1961260Y4466420D01*
G01X2044260Y4376420D02*
Y4466420D01*
X2029260Y4448420D01*
G01Y4376420D02*
X2059260D01*
G01X2154760Y4458920D02*
X2147260Y4463420D01*
X2138510Y4466420D01*
X2128510D01*
X2117260Y4461920D01*
X2108510Y4454420D01*
X2102260Y4445420D01*
X2097260Y4430420D01*
X2096010Y4416920D01*
X2098510Y4403420D01*
X2102260Y4394420D01*
X2109760Y4385420D01*
X2118510Y4379420D01*
X2127260Y4376420D01*
X2136010D01*
X2144760Y4379420D01*
X2152260Y4383920D01*
X2158510Y4389920D01*
G01X2220260Y4424420D02*
X2225260Y4428920D01*
X2229010Y4436420D01*
X2231510Y4446920D01*
X2229010Y4455920D01*
X2224010Y4461920D01*
X2215260Y4466420D01*
X2181510D01*
Y4376420D01*
X2222760D01*
X2231510Y4382420D01*
X2236510Y4391420D01*
X2239010Y4401920D01*
X2236510Y4412420D01*
X2229010Y4421420D01*
X2220260Y4424420D01*
X2181510D01*
G01X2255760Y4346420D02*
X2330760D01*
G01X2351260Y4376420D02*
Y4466420D01*
X2381260D01*
X2391260Y4461920D01*
X2398760Y4451420D01*
X2401260Y4439420D01*
X2398760Y4427420D01*
X2392510Y4418420D01*
X2381260Y4413920D01*
X2351260D01*
G01X2428010Y4376420D02*
X2459260Y4466420D01*
X2490510Y4376420D01*
G01X2479260Y4407920D02*
X2439260D01*
G01X2504760Y4346420D02*
X2579760D01*
G01X2600260Y4466420D02*
Y4376420D01*
X2650260D01*
G01X2679510D02*
Y4466420D01*
X2737010Y4376420D01*
Y4466420D01*
G01X2760010Y4376420D02*
X2791260Y4466420D01*
X2822510Y4376420D01*
G01X2811260Y4407920D02*
X2771260D01*
G01X2836760Y4346420D02*
X2911760D01*
G01X2957260Y4466420D02*
Y4376420D01*
G01X2928510Y4466420D02*
X2986010D01*
G01X3050260Y4424420D02*
X3055260Y4428920D01*
X3059010Y4436420D01*
X3061510Y4446920D01*
X3059010Y4455920D01*
X3054010Y4461920D01*
X3045260Y4466420D01*
X3011510D01*
Y4376420D01*
X3052760D01*
X3061510Y4382420D01*
X3066510Y4391420D01*
X3069010Y4401920D01*
X3066510Y4412420D01*
X3059010Y4421420D01*
X3050260Y4424420D01*
X3011510D01*
G01X3085760Y4346420D02*
X3160760D01*
G01X3175010Y4466420D02*
X3206260Y4376420D01*
X3237510Y4466420D01*
G01X3289260Y4376420D02*
Y4466420D01*
X3274260Y4448420D01*
G01Y4376420D02*
X3304260D01*
G01X3372260D02*
Y4466420D01*
X3357260Y4448420D01*
G01Y4376420D02*
X3387260D01*
G01X3597510Y4451420D02*
X3605010Y4460420D01*
X3613760Y4464920D01*
X3623760Y4466420D01*
X3636260Y4463420D01*
X3645010Y4455920D01*
X3647510Y4446920D01*
X3646260Y4437920D01*
X3641260Y4430420D01*
X3616260Y4415420D01*
X3605010Y4404920D01*
X3597510Y4389920D01*
X3595010Y4376420D01*
X3647510D01*
G01X3704260Y4466420D02*
X3694260Y4463420D01*
X3686760Y4455920D01*
X3681760Y4446920D01*
X3678010Y4434920D01*
X3676760Y4421420D01*
X3678010Y4407920D01*
X3681760Y4395920D01*
X3686760Y4386920D01*
X3694260Y4379420D01*
X3704260Y4376420D01*
X3714260Y4379420D01*
X3721760Y4386920D01*
X3726760Y4395920D01*
X3730510Y4407920D01*
X3731760Y4421420D01*
X3730510Y4434920D01*
X3726760Y4446920D01*
X3721760Y4455920D01*
X3714260Y4463420D01*
X3704260Y4466420D01*
G01X3763510Y4451420D02*
X3771010Y4460420D01*
X3779760Y4464920D01*
X3789760Y4466420D01*
X3802260Y4463420D01*
X3811010Y4455920D01*
X3813510Y4446920D01*
X3812260Y4437920D01*
X3807260Y4430420D01*
X3782260Y4415420D01*
X3771010Y4404920D01*
X3763510Y4389920D01*
X3761010Y4376420D01*
X3813510D01*
G01X3885260D02*
Y4466420D01*
X3839010Y4401920D01*
X3901510D01*
G01X3930760Y4373420D02*
X3975760Y4466420D01*
G01X4036260D02*
X4026260Y4463420D01*
X4018760Y4455920D01*
X4013760Y4446920D01*
X4010010Y4434920D01*
X4008760Y4421420D01*
X4010010Y4407920D01*
X4013760Y4395920D01*
X4018760Y4386920D01*
X4026260Y4379420D01*
X4036260Y4376420D01*
X4046260Y4379420D01*
X4053760Y4386920D01*
X4058760Y4395920D01*
X4062510Y4407920D01*
X4063760Y4421420D01*
X4062510Y4434920D01*
X4058760Y4446920D01*
X4053760Y4455920D01*
X4046260Y4463420D01*
X4036260Y4466420D01*
G01X4091760Y4394420D02*
X4099260Y4383920D01*
X4109260Y4377920D01*
X4120510Y4376420D01*
X4130510Y4377920D01*
X4140510Y4385420D01*
X4146760Y4394420D01*
X4148010Y4403420D01*
X4145510Y4413920D01*
X4136760Y4421420D01*
X4128010Y4424420D01*
X4116760D01*
G01X4128010D02*
X4135510Y4428920D01*
X4141760Y4436420D01*
X4144260Y4445420D01*
X4141760Y4454420D01*
X4135510Y4461920D01*
X4124260Y4466420D01*
X4113010Y4464920D01*
X4101760Y4458920D01*
G01X4179760Y4373420D02*
X4224760Y4466420D01*
G01X4285260D02*
X4275260Y4463420D01*
X4267760Y4455920D01*
X4262760Y4446920D01*
X4259010Y4434920D01*
X4257760Y4421420D01*
X4259010Y4407920D01*
X4262760Y4395920D01*
X4267760Y4386920D01*
X4275260Y4379420D01*
X4285260Y4376420D01*
X4295260Y4379420D01*
X4302760Y4386920D01*
X4307760Y4395920D01*
X4311510Y4407920D01*
X4312760Y4421420D01*
X4311510Y4434920D01*
X4307760Y4446920D01*
X4302760Y4455920D01*
X4295260Y4463420D01*
X4285260Y4466420D01*
G01X4368260Y4376420D02*
Y4466420D01*
X4353260Y4448420D01*
G01Y4376420D02*
X4383260D01*
G01X2146300Y553720D02*
Y276860D01*
G01X2171700Y553720D02*
X1991360D01*
X1983740Y546100D01*
Y289560D01*
X1998980Y274320D01*
X3162300D01*
X3177540Y289560D01*
Y541020D01*
X3164840Y553720D01*
X2171700D01*
G01X5372540Y4101280D02*
G03I-25400J0D01*
G01X6460640Y771840D02*
Y803760D01*
X6320640D01*
Y753260D01*
G01Y592840D02*
Y477840D01*
X6460640D01*
Y771840D01*
X6320640D01*
Y592840D01*
G01X6455260Y2407780D02*
Y2375860D01*
X6595260D01*
Y2426360D01*
G01Y2586780D02*
Y2701780D01*
X6455260D01*
Y2407780D01*
X6595260D01*
Y2586780D01*
G01X6189980Y4079000D02*
Y3586240D01*
X6677660D01*
X6682740Y3591320D01*
Y4076460D01*
X6680200Y4079000D01*
X6189980D01*
G01X6752340Y1375560D02*
X6637340D01*
Y1235560D01*
X6931340D01*
Y1375560D01*
X6752340D01*
G01X6816340Y1853080D02*
X6931340D01*
Y1713080D01*
X6816340D01*
G01X6752340Y1853080D02*
X6637340D01*
Y1713080D01*
X6752340D01*
G01X6810760Y2569060D02*
X6695760D01*
Y2709060D01*
X6810760D01*
G01X6874760Y2569060D02*
X6989760D01*
Y2709060D01*
X6874760D01*
G01X6808220Y2784960D02*
X6693220D01*
Y2924960D01*
X6808220D01*
G01X6872220Y2784960D02*
X6987220D01*
Y2924960D01*
X6872220D01*
G01X6808220Y2964840D02*
X6693220D01*
Y3104840D01*
X6808220D01*
G01X6872220Y2964840D02*
X6987220D01*
Y3104840D01*
X6872220D01*
G01X6682740Y3644660D02*
X6672580D01*
X6621780Y3593860D01*
Y3586240D01*
G01X7538520Y1108280D02*
X7708520D01*
Y1353280D01*
X7953520D01*
Y1103280D01*
X8103520D01*
Y1983280D01*
X7953520D01*
Y1738280D01*
X7723520D01*
Y1983280D01*
X7553520D01*
G01X7616320Y2505350D02*
X7656960D01*
G01X7614490Y2544280D02*
X7655130D01*
G01X7677330Y2584840D02*
X7616370D01*
G01X7612380Y2628440D02*
X7833360D01*
G01X7614140Y2444960D02*
Y3004960D01*
X7834140D01*
Y2444960D01*
X7614140D01*
G01X7499140Y2224960D02*
Y3224960D01*
X7999140D01*
Y2224960D01*
X7499140D01*
G01X7303920Y3394460D02*
Y3279460D01*
X7163920D01*
Y3394460D01*
G01X7303920Y3458460D02*
Y3573460D01*
X7163920D01*
Y3458460D01*
G01X7486400Y4158490D02*
Y4286000D01*
X7490460Y4290060D01*
X8034020D01*
X8036310Y4287770D01*
Y3449070D01*
X8034020Y3446780D01*
X7487920D01*
X7486400Y3448300D01*
Y4158490D01*
G01X7830820Y2585260D02*
X7769860D01*
G01X7789380Y2544700D02*
X7830020D01*
G01X7791210Y2505770D02*
X7831850D01*
G01X8006080Y3446780D02*
Y4287520D01*
M02*
