G04 ================== begin FILE IDENTIFICATION RECORD ==================*
G04 Layout Name:  ASR6601CB_PA_TB_V11_240301.brd*
G04 Film Name:    DRILL*
G04 File Format:  Gerber RS274X*
G04 File Origin:  Cadence Allegro 16.6-2015-S088*
G04 Origin Date:  Tue Mar 19 16:37:48 2024*
G04 *
G04 Layer:  MANUFACTURING/NCDRILL_LEGEND*
G04 Layer:  MANUFACTURING/NCDRILL_FIGURE*
G04 Layer:  BOARD GEOMETRY/OUTLINE*
G04 *
G04 Offset:    (0.0000 0.0000)*
G04 Mirror:    No*
G04 Mode:      Positive*
G04 Rotation:  0*
G04 FullContactRelief:  No*
G04 UndefLineWidth:     0.0000*
G04 ================== end FILE IDENTIFICATION RECORD ====================*
%FSLAX25Y25*MOMM*%
%IR0*IPPOS*OFA0.00000B0.00000*MIA0B0*SFA1.00000B1.00000*%
%AMMACRO10*
1,1,0.0,.683452,-1.65*
20,1,0.0,.683452,-1.65,-.683452,-1.65,0.0*
1,1,0.0,-.683452,-1.65*
20,1,0.0,-.683452,-1.65,-1.65,-.683452,0.0*
1,1,0.0,-1.65,-.683452*
20,1,0.0,-1.65,-.683452,-1.65,.683452,0.0*
1,1,0.0,-1.65,.683452*
20,1,0.0,-1.65,.683452,-.683452,1.65,0.0*
1,1,0.0,-.683452,1.65*
20,1,0.0,-.683452,1.65,.683452,1.65,0.0*
1,1,0.0,.683452,1.65*
20,1,0.0,.683452,1.65,1.65,.683452,0.0*
1,1,0.0,1.65,.683452*
20,1,0.0,1.65,.683452,1.65,-.683452,0.0*
1,1,0.0,1.65,-.683452*
20,1,0.0,1.65,-.683452,.683452,-1.65,0.0*
1,1,0.0,.683452,-1.65*
%
%ADD10MACRO10*%
%AMMACRO14*
1,1,0.0,.1016,0.0*
20,1,0.0,.1016,0.0,-.1016,0.0,0.0*
1,1,0.0,-.1016,0.0*
1,1,0.0,0.0,.1016*
20,1,0.0,0.0,.1016,0.0,-.1016,0.0*
1,1,0.0,0.0,-.1016*
%
%ADD14MACRO14*%
%AMMACRO18*
1,1,0.0,-.4,.3*
20,1,0.0,-.4,.3,.4,.3,0.0*
1,1,0.0,.4,.3*
20,1,0.0,.4,.3,.452094,.295442,0.0*
1,1,0.0,.452094,.295442*
20,1,0.0,.452094,.295442,.502606,.281908,0.0*
1,1,0.0,.502606,.281908*
20,1,0.0,.502606,.281908,.55,.259808,0.0*
1,1,0.0,.55,.259808*
20,1,0.0,.55,.259808,.592836,.229813,0.0*
1,1,0.0,.592836,.229813*
20,1,0.0,.592836,.229813,.629813,.192836,0.0*
1,1,0.0,.629813,.192836*
20,1,0.0,.629813,.192836,.659808,.15,0.0*
1,1,0.0,.659808,.15*
20,1,0.0,.659808,.15,.681908,.102606,0.0*
1,1,0.0,.681908,.102606*
20,1,0.0,.681908,.102606,.695442,.052094,0.0*
1,1,0.0,.695442,.052094*
20,1,0.0,.695442,.052094,.7,0.0,0.0*
1,1,0.0,.7,0.0*
20,1,0.0,.7,0.0,.695442,-.052094,0.0*
1,1,0.0,.695442,-.052094*
20,1,0.0,.695442,-.052094,.681908,-.102606,0.0*
1,1,0.0,.681908,-.102606*
20,1,0.0,.681908,-.102606,.659808,-.15,0.0*
1,1,0.0,.659808,-.15*
20,1,0.0,.659808,-.15,.629813,-.192836,0.0*
1,1,0.0,.629813,-.192836*
20,1,0.0,.629813,-.192836,.592836,-.229813,0.0*
1,1,0.0,.592836,-.229813*
20,1,0.0,.592836,-.229813,.55,-.259808,0.0*
1,1,0.0,.55,-.259808*
20,1,0.0,.55,-.259808,.502606,-.281908,0.0*
1,1,0.0,.502606,-.281908*
20,1,0.0,.502606,-.281908,.452094,-.295442,0.0*
1,1,0.0,.452094,-.295442*
20,1,0.0,.452094,-.295442,.4,-.3,0.0*
1,1,0.0,.4,-.3*
20,1,0.0,.4,-.3,-.4,-.3,0.0*
1,1,0.0,-.4,-.3*
20,1,0.0,-.4,-.3,-.452094,-.295442,0.0*
1,1,0.0,-.452094,-.295442*
20,1,0.0,-.452094,-.295442,-.502606,-.281908,0.0*
1,1,0.0,-.502606,-.281908*
20,1,0.0,-.502606,-.281908,-.55,-.259808,0.0*
1,1,0.0,-.55,-.259808*
20,1,0.0,-.55,-.259808,-.592836,-.229813,0.0*
1,1,0.0,-.592836,-.229813*
20,1,0.0,-.592836,-.229813,-.629813,-.192836,0.0*
1,1,0.0,-.629813,-.192836*
20,1,0.0,-.629813,-.192836,-.659808,-.15,0.0*
1,1,0.0,-.659808,-.15*
20,1,0.0,-.659808,-.15,-.681908,-.102606,0.0*
1,1,0.0,-.681908,-.102606*
20,1,0.0,-.681908,-.102606,-.695442,-.052094,0.0*
1,1,0.0,-.695442,-.052094*
20,1,0.0,-.695442,-.052094,-.7,0.0,0.0*
1,1,0.0,-.7,0.0*
20,1,0.0,-.7,0.0,-.695442,.052094,0.0*
1,1,0.0,-.695442,.052094*
20,1,0.0,-.695442,.052094,-.681908,.102606,0.0*
1,1,0.0,-.681908,.102606*
20,1,0.0,-.681908,.102606,-.659808,.15,0.0*
1,1,0.0,-.659808,.15*
20,1,0.0,-.659808,.15,-.629813,.192836,0.0*
1,1,0.0,-.629813,.192836*
20,1,0.0,-.629813,.192836,-.592836,.229813,0.0*
1,1,0.0,-.592836,.229813*
20,1,0.0,-.592836,.229813,-.55,.259808,0.0*
1,1,0.0,-.55,.259808*
20,1,0.0,-.55,.259808,-.502606,.281908,0.0*
1,1,0.0,-.502606,.281908*
20,1,0.0,-.502606,.281908,-.452094,.295442,0.0*
1,1,0.0,-.452094,.295442*
20,1,0.0,-.452094,.295442,-.4,.3,0.0*
1,1,0.0,-.4,.3*
1,1,0.0,-.15,-.15*
20,1,0.0,-.15,-.15,-.19,-.145,0.0*
1,1,0.0,-.19,-.145*
20,1,0.0,-.19,-.145,-.225,-.125,0.0*
1,1,0.0,-.225,-.125*
20,1,0.0,-.225,-.125,-.255,-.095,0.0*
1,1,0.0,-.255,-.095*
20,1,0.0,-.255,-.095,-.275,-.06,0.0*
1,1,0.0,-.275,-.06*
20,1,0.0,-.275,-.06,-.285,-.02,0.0*
1,1,0.0,-.285,-.02*
20,1,0.0,-.285,-.02,-.285,.02,0.0*
1,1,0.0,-.285,.02*
20,1,0.0,-.285,.02,-.275,.06,0.0*
1,1,0.0,-.275,.06*
20,1,0.0,-.275,.06,-.255,.095,0.0*
1,1,0.0,-.255,.095*
20,1,0.0,-.255,.095,-.225,.125,0.0*
1,1,0.0,-.225,.125*
20,1,0.0,-.225,.125,-.19,.145,0.0*
1,1,0.0,-.19,.145*
20,1,0.0,-.19,.145,-.15,.15,0.0*
1,1,0.0,-.15,.15*
20,1,0.0,-.15,.15,-.11,.145,0.0*
1,1,0.0,-.11,.145*
20,1,0.0,-.11,.145,-.075,.125,0.0*
1,1,0.0,-.075,.125*
20,1,0.0,-.075,.125,-.045,.095,0.0*
1,1,0.0,-.045,.095*
20,1,0.0,-.045,.095,-.025,.06,0.0*
1,1,0.0,-.025,.06*
20,1,0.0,-.025,.06,-.015,.02,0.0*
1,1,0.0,-.015,.02*
20,1,0.0,-.015,.02,-.015,-.02,0.0*
1,1,0.0,-.015,-.02*
20,1,0.0,-.015,-.02,-.025,-.06,0.0*
1,1,0.0,-.025,-.06*
20,1,0.0,-.025,-.06,-.045,-.095,0.0*
1,1,0.0,-.045,-.095*
20,1,0.0,-.045,-.095,-.075,-.125,0.0*
1,1,0.0,-.075,-.125*
20,1,0.0,-.075,-.125,-.11,-.145,0.0*
1,1,0.0,-.11,-.145*
20,1,0.0,-.11,-.145,-.15,-.15,0.0*
1,1,0.0,-.15,-.15*
1,1,0.0,.0251,-.15*
20,1,0.0,.0251,-.15,.1501,.15,0.0*
1,1,0.0,.1501,.15*
20,1,0.0,.1501,.15,.2751,-.15,0.0*
1,1,0.0,.2751,-.15*
1,1,0.0,.2301,-.045*
20,1,0.0,.2301,-.045,.0701,-.045,0.0*
1,1,0.0,.0701,-.045*
%
%ADD18MACRO18*%
%AMMACRO16*
1,1,0.0,-.45,.3*
20,1,0.0,-.45,.3,.45,.3,0.0*
1,1,0.0,.45,.3*
20,1,0.0,.45,.3,.502094,.295442,0.0*
1,1,0.0,.502094,.295442*
20,1,0.0,.502094,.295442,.552606,.281908,0.0*
1,1,0.0,.552606,.281908*
20,1,0.0,.552606,.281908,.6,.259808,0.0*
1,1,0.0,.6,.259808*
20,1,0.0,.6,.259808,.642836,.229813,0.0*
1,1,0.0,.642836,.229813*
20,1,0.0,.642836,.229813,.679813,.192836,0.0*
1,1,0.0,.679813,.192836*
20,1,0.0,.679813,.192836,.709808,.15,0.0*
1,1,0.0,.709808,.15*
20,1,0.0,.709808,.15,.731908,.102606,0.0*
1,1,0.0,.731908,.102606*
20,1,0.0,.731908,.102606,.745442,.052094,0.0*
1,1,0.0,.745442,.052094*
20,1,0.0,.745442,.052094,.75,0.0,0.0*
1,1,0.0,.75,0.0*
20,1,0.0,.75,0.0,.745442,-.052094,0.0*
1,1,0.0,.745442,-.052094*
20,1,0.0,.745442,-.052094,.731908,-.102606,0.0*
1,1,0.0,.731908,-.102606*
20,1,0.0,.731908,-.102606,.709808,-.15,0.0*
1,1,0.0,.709808,-.15*
20,1,0.0,.709808,-.15,.679813,-.192836,0.0*
1,1,0.0,.679813,-.192836*
20,1,0.0,.679813,-.192836,.642836,-.229813,0.0*
1,1,0.0,.642836,-.229813*
20,1,0.0,.642836,-.229813,.6,-.259808,0.0*
1,1,0.0,.6,-.259808*
20,1,0.0,.6,-.259808,.552606,-.281908,0.0*
1,1,0.0,.552606,-.281908*
20,1,0.0,.552606,-.281908,.502094,-.295442,0.0*
1,1,0.0,.502094,-.295442*
20,1,0.0,.502094,-.295442,.45,-.3,0.0*
1,1,0.0,.45,-.3*
20,1,0.0,.45,-.3,-.45,-.3,0.0*
1,1,0.0,-.45,-.3*
20,1,0.0,-.45,-.3,-.502094,-.295442,0.0*
1,1,0.0,-.502094,-.295442*
20,1,0.0,-.502094,-.295442,-.552606,-.281908,0.0*
1,1,0.0,-.552606,-.281908*
20,1,0.0,-.552606,-.281908,-.6,-.259808,0.0*
1,1,0.0,-.6,-.259808*
20,1,0.0,-.6,-.259808,-.642836,-.229813,0.0*
1,1,0.0,-.642836,-.229813*
20,1,0.0,-.642836,-.229813,-.679813,-.192836,0.0*
1,1,0.0,-.679813,-.192836*
20,1,0.0,-.679813,-.192836,-.709808,-.15,0.0*
1,1,0.0,-.709808,-.15*
20,1,0.0,-.709808,-.15,-.731908,-.102606,0.0*
1,1,0.0,-.731908,-.102606*
20,1,0.0,-.731908,-.102606,-.745442,-.052094,0.0*
1,1,0.0,-.745442,-.052094*
20,1,0.0,-.745442,-.052094,-.75,0.0,0.0*
1,1,0.0,-.75,0.0*
20,1,0.0,-.75,0.0,-.745442,.052094,0.0*
1,1,0.0,-.745442,.052094*
20,1,0.0,-.745442,.052094,-.731908,.102606,0.0*
1,1,0.0,-.731908,.102606*
20,1,0.0,-.731908,.102606,-.709808,.15,0.0*
1,1,0.0,-.709808,.15*
20,1,0.0,-.709808,.15,-.679813,.192836,0.0*
1,1,0.0,-.679813,.192836*
20,1,0.0,-.679813,.192836,-.642836,.229813,0.0*
1,1,0.0,-.642836,.229813*
20,1,0.0,-.642836,.229813,-.6,.259808,0.0*
1,1,0.0,-.6,.259808*
20,1,0.0,-.6,.259808,-.552606,.281908,0.0*
1,1,0.0,-.552606,.281908*
20,1,0.0,-.552606,.281908,-.502094,.295442,0.0*
1,1,0.0,-.502094,.295442*
20,1,0.0,-.502094,.295442,-.45,.3,0.0*
1,1,0.0,-.45,.3*
1,1,0.0,-.15,-.15*
20,1,0.0,-.15,-.15,-.19,-.145,0.0*
1,1,0.0,-.19,-.145*
20,1,0.0,-.19,-.145,-.225,-.125,0.0*
1,1,0.0,-.225,-.125*
20,1,0.0,-.225,-.125,-.255,-.095,0.0*
1,1,0.0,-.255,-.095*
20,1,0.0,-.255,-.095,-.275,-.06,0.0*
1,1,0.0,-.275,-.06*
20,1,0.0,-.275,-.06,-.285,-.02,0.0*
1,1,0.0,-.285,-.02*
20,1,0.0,-.285,-.02,-.285,.02,0.0*
1,1,0.0,-.285,.02*
20,1,0.0,-.285,.02,-.275,.06,0.0*
1,1,0.0,-.275,.06*
20,1,0.0,-.275,.06,-.255,.095,0.0*
1,1,0.0,-.255,.095*
20,1,0.0,-.255,.095,-.225,.125,0.0*
1,1,0.0,-.225,.125*
20,1,0.0,-.225,.125,-.19,.145,0.0*
1,1,0.0,-.19,.145*
20,1,0.0,-.19,.145,-.15,.15,0.0*
1,1,0.0,-.15,.15*
20,1,0.0,-.15,.15,-.11,.145,0.0*
1,1,0.0,-.11,.145*
20,1,0.0,-.11,.145,-.075,.125,0.0*
1,1,0.0,-.075,.125*
20,1,0.0,-.075,.125,-.045,.095,0.0*
1,1,0.0,-.045,.095*
20,1,0.0,-.045,.095,-.025,.06,0.0*
1,1,0.0,-.025,.06*
20,1,0.0,-.025,.06,-.015,.02,0.0*
1,1,0.0,-.015,.02*
20,1,0.0,-.015,.02,-.015,-.02,0.0*
1,1,0.0,-.015,-.02*
20,1,0.0,-.015,-.02,-.025,-.06,0.0*
1,1,0.0,-.025,-.06*
20,1,0.0,-.025,-.06,-.045,-.095,0.0*
1,1,0.0,-.045,-.095*
20,1,0.0,-.045,-.095,-.075,-.125,0.0*
1,1,0.0,-.075,-.125*
20,1,0.0,-.075,-.125,-.11,-.145,0.0*
1,1,0.0,-.11,-.145*
20,1,0.0,-.11,-.145,-.15,-.15,0.0*
1,1,0.0,-.15,-.15*
1,1,0.0,.2601,.125*
20,1,0.0,.2601,.125,.2301,.14,0.0*
1,1,0.0,.2301,.14*
20,1,0.0,.2301,.14,.1951,.15,0.0*
1,1,0.0,.1951,.15*
20,1,0.0,.1951,.15,.1551,.15,0.0*
1,1,0.0,.1551,.15*
20,1,0.0,.1551,.15,.1101,.135,0.0*
1,1,0.0,.1101,.135*
20,1,0.0,.1101,.135,.0751,.11,0.0*
1,1,0.0,.0751,.11*
20,1,0.0,.0751,.11,.0501,.08,0.0*
1,1,0.0,.0501,.08*
20,1,0.0,.0501,.08,.0301,.03,0.0*
1,1,0.0,.0301,.03*
20,1,0.0,.0301,.03,.0251,-.015,0.0*
1,1,0.0,.0251,-.015*
20,1,0.0,.0251,-.015,.0351,-.06,0.0*
1,1,0.0,.0351,-.06*
20,1,0.0,.0351,-.06,.0501,-.09,0.0*
1,1,0.0,.0501,-.09*
20,1,0.0,.0501,-.09,.0801,-.12,0.0*
1,1,0.0,.0801,-.12*
20,1,0.0,.0801,-.12,.1151,-.14,0.0*
1,1,0.0,.1151,-.14*
20,1,0.0,.1151,-.14,.1501,-.15,0.0*
1,1,0.0,.1501,-.15*
20,1,0.0,.1501,-.15,.1851,-.15,0.0*
1,1,0.0,.1851,-.15*
20,1,0.0,.1851,-.15,.2201,-.14,0.0*
1,1,0.0,.2201,-.14*
20,1,0.0,.2201,-.14,.2501,-.125,0.0*
1,1,0.0,.2501,-.125*
20,1,0.0,.2501,-.125,.2751,-.105,0.0*
1,1,0.0,.2751,-.105*
%
%ADD16MACRO16*%
%AMMACRO11*
1,1,0.0,.127,.127*
20,1,0.0,.127,.127,.127,-.127,0.0*
1,1,0.0,.127,-.127*
20,1,0.0,.127,-.127,-.127,-.127,0.0*
1,1,0.0,-.127,-.127*
20,1,0.0,-.127,-.127,-.127,.127,0.0*
1,1,0.0,-.127,.127*
20,1,0.0,-.127,.127,.127,.127,0.0*
1,1,0.0,.127,.127*
%
%ADD11MACRO11*%
%AMMACRO15*
1,1,0.0,.325,0.0*
20,1,0.0,.325,0.0,0.0,-.325,0.0*
1,1,0.0,0.0,-.325*
20,1,0.0,0.0,-.325,-.325,0.0,0.0*
1,1,0.0,-.325,0.0*
20,1,0.0,-.325,0.0,0.0,.325,0.0*
1,1,0.0,0.0,.325*
20,1,0.0,0.0,.325,.325,0.0,0.0*
1,1,0.0,.325,0.0*
%
%ADD15MACRO15*%
%AMMACRO17*
1,1,0.0,-.25,-.15*
20,1,0.0,-.25,-.15,-.25,.15,0.0*
1,1,0.0,-.25,.15*
20,1,0.0,-.25,.15,-.246202,.193412,0.0*
1,1,0.0,-.246202,.193412*
20,1,0.0,-.246202,.193412,-.234923,.235505,0.0*
1,1,0.0,-.234923,.235505*
20,1,0.0,-.234923,.235505,-.216506,.275,0.0*
1,1,0.0,-.216506,.275*
20,1,0.0,-.216506,.275,-.191511,.310697,0.0*
1,1,0.0,-.191511,.310697*
20,1,0.0,-.191511,.310697,-.160697,.341511,0.0*
1,1,0.0,-.160697,.341511*
20,1,0.0,-.160697,.341511,-.125,.366506,0.0*
1,1,0.0,-.125,.366506*
20,1,0.0,-.125,.366506,-.085505,.384923,0.0*
1,1,0.0,-.085505,.384923*
20,1,0.0,-.085505,.384923,-.043412,.396202,0.0*
1,1,0.0,-.043412,.396202*
20,1,0.0,-.043412,.396202,0.0,.4,0.0*
1,1,0.0,0.0,.4*
20,1,0.0,0.0,.4,.043412,.396202,0.0*
1,1,0.0,.043412,.396202*
20,1,0.0,.043412,.396202,.085505,.384923,0.0*
1,1,0.0,.085505,.384923*
20,1,0.0,.085505,.384923,.125,.366506,0.0*
1,1,0.0,.125,.366506*
20,1,0.0,.125,.366506,.160697,.341511,0.0*
1,1,0.0,.160697,.341511*
20,1,0.0,.160697,.341511,.191511,.310697,0.0*
1,1,0.0,.191511,.310697*
20,1,0.0,.191511,.310697,.216506,.275,0.0*
1,1,0.0,.216506,.275*
20,1,0.0,.216506,.275,.234923,.235505,0.0*
1,1,0.0,.234923,.235505*
20,1,0.0,.234923,.235505,.246202,.193412,0.0*
1,1,0.0,.246202,.193412*
20,1,0.0,.246202,.193412,.25,.15,0.0*
1,1,0.0,.25,.15*
20,1,0.0,.25,.15,.25,-.15,0.0*
1,1,0.0,.25,-.15*
20,1,0.0,.25,-.15,.246202,-.193412,0.0*
1,1,0.0,.246202,-.193412*
20,1,0.0,.246202,-.193412,.234923,-.235505,0.0*
1,1,0.0,.234923,-.235505*
20,1,0.0,.234923,-.235505,.216506,-.275,0.0*
1,1,0.0,.216506,-.275*
20,1,0.0,.216506,-.275,.191511,-.310697,0.0*
1,1,0.0,.191511,-.310697*
20,1,0.0,.191511,-.310697,.160697,-.341511,0.0*
1,1,0.0,.160697,-.341511*
20,1,0.0,.160697,-.341511,.125,-.366506,0.0*
1,1,0.0,.125,-.366506*
20,1,0.0,.125,-.366506,.085505,-.384923,0.0*
1,1,0.0,.085505,-.384923*
20,1,0.0,.085505,-.384923,.043412,-.396202,0.0*
1,1,0.0,.043412,-.396202*
20,1,0.0,.043412,-.396202,0.0,-.4,0.0*
1,1,0.0,0.0,-.4*
20,1,0.0,0.0,-.4,-.043412,-.396202,0.0*
1,1,0.0,-.043412,-.396202*
20,1,0.0,-.043412,-.396202,-.085505,-.384923,0.0*
1,1,0.0,-.085505,-.384923*
20,1,0.0,-.085505,-.384923,-.125,-.366506,0.0*
1,1,0.0,-.125,-.366506*
20,1,0.0,-.125,-.366506,-.160697,-.341511,0.0*
1,1,0.0,-.160697,-.341511*
20,1,0.0,-.160697,-.341511,-.191511,-.310697,0.0*
1,1,0.0,-.191511,-.310697*
20,1,0.0,-.191511,-.310697,-.216506,-.275,0.0*
1,1,0.0,-.216506,-.275*
20,1,0.0,-.216506,-.275,-.234923,-.235505,0.0*
1,1,0.0,-.234923,-.235505*
20,1,0.0,-.234923,-.235505,-.246202,-.193412,0.0*
1,1,0.0,-.246202,-.193412*
20,1,0.0,-.246202,-.193412,-.25,-.15,0.0*
1,1,0.0,-.25,-.15*
1,1,0.0,-.125,-.125*
20,1,0.0,-.125,-.125,-.1583,-.1208,0.0*
1,1,0.0,-.1583,-.1208*
20,1,0.0,-.1583,-.1208,-.1875,-.1042,0.0*
1,1,0.0,-.1875,-.1042*
20,1,0.0,-.1875,-.1042,-.2125,-.0792,0.0*
1,1,0.0,-.2125,-.0792*
20,1,0.0,-.2125,-.0792,-.2292,-.05,0.0*
1,1,0.0,-.2292,-.05*
20,1,0.0,-.2292,-.05,-.2375,-.0167,0.0*
1,1,0.0,-.2375,-.0167*
20,1,0.0,-.2375,-.0167,-.2375,.0167,0.0*
1,1,0.0,-.2375,.0167*
20,1,0.0,-.2375,.0167,-.2292,.05,0.0*
1,1,0.0,-.2292,.05*
20,1,0.0,-.2292,.05,-.2125,.0792,0.0*
1,1,0.0,-.2125,.0792*
20,1,0.0,-.2125,.0792,-.1875,.1042,0.0*
1,1,0.0,-.1875,.1042*
20,1,0.0,-.1875,.1042,-.1583,.1208,0.0*
1,1,0.0,-.1583,.1208*
20,1,0.0,-.1583,.1208,-.125,.125,0.0*
1,1,0.0,-.125,.125*
20,1,0.0,-.125,.125,-.0917,.1208,0.0*
1,1,0.0,-.0917,.1208*
20,1,0.0,-.0917,.1208,-.0625,.1042,0.0*
1,1,0.0,-.0625,.1042*
20,1,0.0,-.0625,.1042,-.0375,.0792,0.0*
1,1,0.0,-.0375,.0792*
20,1,0.0,-.0375,.0792,-.0208,.05,0.0*
1,1,0.0,-.0208,.05*
20,1,0.0,-.0208,.05,-.0125,.0167,0.0*
1,1,0.0,-.0125,.0167*
20,1,0.0,-.0125,.0167,-.0125,-.0167,0.0*
1,1,0.0,-.0125,-.0167*
20,1,0.0,-.0125,-.0167,-.0208,-.05,0.0*
1,1,0.0,-.0208,-.05*
20,1,0.0,-.0208,-.05,-.0375,-.0792,0.0*
1,1,0.0,-.0375,-.0792*
20,1,0.0,-.0375,-.0792,-.0625,-.1042,0.0*
1,1,0.0,-.0625,-.1042*
20,1,0.0,-.0625,-.1042,-.0917,-.1208,0.0*
1,1,0.0,-.0917,-.1208*
20,1,0.0,-.0917,-.1208,-.125,-.125,0.0*
1,1,0.0,-.125,-.125*
1,1,0.0,.1584,.0083*
20,1,0.0,.1584,.0083,.1751,.0208,0.0*
1,1,0.0,.1751,.0208*
20,1,0.0,.1751,.0208,.1876,.0417,0.0*
1,1,0.0,.1876,.0417*
20,1,0.0,.1876,.0417,.1959,.0708,0.0*
1,1,0.0,.1959,.0708*
20,1,0.0,.1959,.0708,.1876,.0958,0.0*
1,1,0.0,.1876,.0958*
20,1,0.0,.1876,.0958,.1709,.1125,0.0*
1,1,0.0,.1709,.1125*
20,1,0.0,.1709,.1125,.1418,.125,0.0*
1,1,0.0,.1418,.125*
20,1,0.0,.1418,.125,.0293,.125,0.0*
1,1,0.0,.0293,.125*
20,1,0.0,.0293,.125,.0293,-.125,0.0*
1,1,0.0,.0293,-.125*
20,1,0.0,.0293,-.125,.1668,-.125,0.0*
1,1,0.0,.1668,-.125*
20,1,0.0,.1668,-.125,.1959,-.1083,0.0*
1,1,0.0,.1959,-.1083*
20,1,0.0,.1959,-.1083,.2126,-.0833,0.0*
1,1,0.0,.2126,-.0833*
20,1,0.0,.2126,-.0833,.2209,-.0542,0.0*
1,1,0.0,.2209,-.0542*
20,1,0.0,.2209,-.0542,.2126,-.025,0.0*
1,1,0.0,.2126,-.025*
20,1,0.0,.2126,-.025,.1876,0.0,0.0*
1,1,0.0,.1876,0.0*
20,1,0.0,.1876,0.0,.1584,.0083,0.0*
1,1,0.0,.1584,.0083*
20,1,0.0,.1584,.0083,.0293,.0083,0.0*
1,1,0.0,.0293,.0083*
%
%ADD17MACRO17*%
%AMMACRO13*
1,1,0.0,.1905,0.0*
20,1,0.0,.1905,0.0,.09525,.164978,0.0*
1,1,0.0,.09525,.164978*
20,1,0.0,.09525,.164978,-.09525,.164978,0.0*
1,1,0.0,-.09525,.164978*
20,1,0.0,-.09525,.164978,-.1905,0.0,0.0*
1,1,0.0,-.1905,0.0*
20,1,0.0,-.1905,0.0,-.09525,-.164978,0.0*
1,1,0.0,-.09525,-.164978*
20,1,0.0,-.09525,-.164978,.09525,-.164978,0.0*
1,1,0.0,.09525,-.164978*
20,1,0.0,.09525,-.164978,.1905,0.0,0.0*
1,1,0.0,.1905,0.0*
%
%ADD13MACRO13*%
%AMMACRO12*
1,1,0.0,0.0,.4572*
20,1,0.0,0.0,.4572,-.395947,.2286,0.0*
1,1,0.0,-.395947,.2286*
20,1,0.0,-.395947,.2286,-.395947,-.2286,0.0*
1,1,0.0,-.395947,-.2286*
20,1,0.0,-.395947,-.2286,0.0,-.4572,0.0*
1,1,0.0,0.0,-.4572*
20,1,0.0,0.0,-.4572,.395947,-.2286,0.0*
1,1,0.0,.395947,-.2286*
20,1,0.0,.395947,-.2286,.395947,.2286,0.0*
1,1,0.0,.395947,.2286*
20,1,0.0,.395947,.2286,0.0,.4572,0.0*
1,1,0.0,0.0,.4572*
%
%ADD12MACRO12*%
%ADD19C,.08*%
G75*
%LPD*%
G75*
G54D10*
X582000Y650000D03*
Y4850000D03*
X7270000Y650000D03*
Y4850000D03*
G54D11*
X1008660Y2642320D03*
X891820Y2644860D03*
X686080Y2652480D03*
X581940Y2622000D03*
X1145820Y2853140D03*
X1016280Y2858220D03*
X899440D03*
X792760Y2855680D03*
X691160Y2853140D03*
X597180Y2876000D03*
X1249520Y2550000D03*
X1572260Y2552700D03*
X1559840Y2743920D03*
X1290600Y2634700D03*
X1201700Y2637240D03*
X1531900Y2647400D03*
X1215600Y2950000D03*
X1549980Y2947420D03*
X1267740Y2855680D03*
X1531900Y2850600D03*
X4447540Y594360D03*
X4654680Y734060D03*
X4700000Y1523000D03*
X4652140Y4741040D03*
X4424680Y4907280D03*
X4871720Y1412240D03*
X5245160Y1750000D03*
X5231440Y3750000D03*
X5582920Y1750000D03*
X6646380Y3294380D03*
X6903720Y3536380D03*
X7218680Y1440180D03*
Y1551940D03*
Y1666240D03*
G54D12*
X2267220Y711200D03*
Y4780280D03*
X2775220Y711200D03*
X2521220D03*
X2775220Y4780280D03*
X2521220D03*
X3539220Y711200D03*
X3031220D03*
X3285220D03*
X3539220Y4780280D03*
X3031220D03*
X3285220D03*
X7122160Y2415540D03*
X6868160D03*
G54D13*
X4300000Y1155700D03*
X4500000Y1154040D03*
X6604000Y2854960D03*
X6608620Y3034840D03*
G54D14*
X4589780Y2217420D03*
X4635500Y2359660D03*
X4937760Y3942080D03*
X5544320Y2350000D03*
X5867700Y3950000D03*
Y4765340D03*
X5618480Y4640580D03*
X6129820Y3525520D03*
X6410960Y4168140D03*
X6379280Y5049520D03*
X6279280Y5041900D03*
X7012940Y3167380D03*
X6883400Y3896360D03*
X6730840Y3807620D03*
X6646380Y3537420D03*
X6819900Y4142740D03*
X6608840Y4343640D03*
G54D15*
X7478520Y1254280D03*
Y1832280D03*
G54D16*
X7428520Y1111280D03*
X7843520D03*
X7428520Y1975280D03*
X7843520D03*
G54D17*
X7724140Y2524960D03*
Y2724960D03*
Y2924960D03*
G54D18*
Y2294960D03*
Y3154960D03*
G54D19*
G01X100000Y250000D02*
X7900000D01*
G03X8000000Y350000I0J100000D01*
G01Y5150000D01*
G03X7900000Y5250000I-100000J0D01*
G01X100000D01*
G03X0Y5150000I0J-100000D01*
G01Y350000D01*
G03X100000Y250000I100000J0D01*
M02*
