G04 ================== begin FILE IDENTIFICATION RECORD ==================*
G04 Layout Name:  ASR6601CB_FEM900_MD_V10_240315.brd*
G04 Film Name:    GND*
G04 File Format:  Gerber RS274X*
G04 File Origin:  Cadence Allegro 16.6-2015-S088*
G04 Origin Date:  Thu Mar 14 19:44:24 2024*
G04 *
G04 Layer:  ETCH/GND*
G04 Layer:  PIN/GND*
G04 Layer:  VIA CLASS/GND*
G04 *
G04 Offset:    (0.0000 0.0000)*
G04 Mirror:    No*
G04 Mode:      Positive*
G04 Rotation:  0*
G04 FullContactRelief:  No*
G04 UndefLineWidth:     0.0000*
G04 ================== end FILE IDENTIFICATION RECORD ====================*
%FSLAX25Y25*MOMM*%
%IR0*IPPOS*OFA0.00000B0.00000*MIA0B0*SFA1.00000B1.00000*%
%ADD14O,1.2X.4*%
%ADD12O,.4X1.2*%
%ADD11C,.7*%
%ADD13C,.508*%
%ADD10C,.4064*%
%ADD15O,1.4X1.*%
%ADD16C,.864*%
%ADD17C,.7624*%
G75*
%LPD*%
G75*
G36*
G01X4987050Y1298740D02*
X4797740D01*
G02X4747780Y1348700I0J49960D01*
G01Y1738280D01*
G03Y1859120I-40J60420D01*
G01Y1938280D01*
G03Y2059120I-40J60420D01*
G01Y2138280D01*
G03Y2259120I-40J60420D01*
G01Y2338280D01*
G03Y2459120I-40J60420D01*
G01Y2538280D01*
G03Y2659120I-40J60420D01*
G01Y2738280D01*
G03Y2859120I-40J60420D01*
G01Y2938280D01*
G03Y3059120I-40J60420D01*
G01Y3448700D01*
G02X4797740Y3498660I49960J0D01*
G01X4987050D01*
X4987600Y3492920D01*
G03X5107880I60140J5780D01*
G01X5108430Y3498660D01*
X5187050D01*
X5187600Y3492920D01*
G03X5307880I60140J5780D01*
G01X5308430Y3498660D01*
X5387050D01*
X5387600Y3492920D01*
G03X5507880I60140J5780D01*
G01X5508430Y3498660D01*
X5574620D01*
G03X5720860I73120J40D01*
G01X5787050D01*
X5787600Y3492920D01*
G03X5907880I60140J5780D01*
G01X5908430Y3498660D01*
X8397740D01*
G02X8447700Y3448700I0J-49960D01*
G01Y2671820D01*
G03Y2525580I40J-73120D01*
G01Y2474120D01*
X8427740D01*
G03Y2323280I0J-75420D01*
G01X8447700D01*
Y2271820D01*
G03Y2125580I40J-73120D01*
G01Y1348700D01*
G02X8397740Y1298740I-49960J0D01*
G01X5908430D01*
X5907880Y1304480D01*
G03X5787600I-60140J-5780D01*
G01X5787050Y1298740D01*
X5708430D01*
X5707880Y1304480D01*
G03X5587600I-60140J-5780D01*
G01X5587050Y1298740D01*
X5508430D01*
X5507880Y1304480D01*
G03X5387600I-60140J-5780D01*
G01X5387050Y1298740D01*
X5320860D01*
G03X5174620I-73120J-40D01*
G01X5108430D01*
X5107880Y1304480D01*
G03X4987600I-60140J-5780D01*
G01X4987050Y1298740D01*
G37*
%LPC*%
G75*
G36*
G01X5415290Y1963010D02*
G03X5436760Y1959840I11699J4941D01*
G02X5430960Y1920650I29319J-24363D01*
G03X5409490Y1923820I-11699J-4941D01*
G02X5343260Y1957720I-29322J24359D01*
G03X5330460Y1973590I-12293J3182D01*
G02X5297890Y2033830I-1543J38091D01*
G03X5288990Y2053820I-10337J7374D01*
G02X5255170Y2092390I4293J37877D01*
G03X5248990Y2098860I-6351J120D01*
G02X5293030Y2136570I1190J43182D01*
G03X5298470Y2129470I6299J-808D01*
G02X5324310Y2069550I-5187J-37769D01*
G03X5333210Y2049560I10337J-7374D01*
G02X5365830Y2002140I-4289J-37880D01*
G03X5378630Y1986270I12293J-3182D01*
G02X5415290Y1963010I1542J-38090D01*
G37*
G36*
G01X5288900Y2323690D02*
G02X5245110Y2284510I-5700J-37691D01*
G03X5234320Y2296570I-12691J-497D01*
G02X5225030Y2369310I5700J37691D01*
G03X5227470Y2391280I-4996J11675D01*
G02X5234560Y2457140I22310J30910D01*
G03X5237990Y2465140I-2535J5822D01*
G02X5250230Y2508200I35801J13093D01*
G03X5253850Y2523630I-7849J9981D01*
G02X5311840Y2510030I34429J16369D01*
G03X5308220Y2494600I7849J-9981D01*
G02X5289010Y2443280I-34428J-16368D01*
G03X5285580Y2435280I2535J-5822D01*
G02X5264770Y2387140I-35801J-13092D01*
G03X5262330Y2365170I4996J-11675D01*
G02X5278110Y2335750I-22311J-30909D01*
G03X5288900Y2323690I12691J497D01*
G37*
G36*
G01X6914260Y2267620D02*
G03X6918060Y2251120I11123J-6126D01*
G02X6862700Y2238340I-21962J-31159D01*
G03X6858900Y2254840I-11123J6126D01*
G02X6850090Y2308510I21958J31163D01*
G03X6846280Y2326950I-10249J7496D01*
G02X6896390Y2337290I19343J32850D01*
G03X6900200Y2318850I10249J-7496D01*
G02X6914260Y2267620I-19339J-32852D01*
G37*
G36*
G01X5620280Y2705370D02*
G03X5635480Y2698360I11601J5170D01*
G02X5611480Y2646300I10821J-36551D01*
G03X5596280Y2653310I-11601J-5170D01*
G02X5620280Y2705370I-10821J36551D01*
G37*
G36*
G01X5204270Y2643010D02*
G03X5215700Y2631690I12631J1324D01*
G02X5174170Y2589790I-3616J-37947D01*
G03X5162740Y2601110I-12631J-1324D01*
G02X5128360Y2636030I3620J37949D01*
G03X5113130Y2647450I-12658J-1016D01*
G02X5143400Y2687810I-7730J37329D01*
G03X5158630Y2676390I12658J1016D01*
G02X5204270Y2643010I7726J-37328D01*
G37*
G54D16*
X7698740Y3111500D03*
X7815580Y1617980D03*
X6761480Y1861820D03*
X6758940Y1760940D03*
X6545740Y1663700D03*
X6142520Y2225840D03*
X5928360Y1905000D03*
X5262880Y2763520D03*
X5304630Y1653860D03*
X5140960Y1600200D03*
G54D17*
X5300980Y1887220D03*
X6861340Y1589240D03*
X6024880Y2080260D03*
X6042660Y2202180D03*
X6096000Y1935480D03*
X5867400Y2706340D03*
%LPD*%
G75*
G54D10*
X4805680Y1379220D03*
X4815840Y1508760D03*
X4818380Y1648460D03*
X4841240Y2100580D03*
Y2301240D03*
X4846320Y2499360D03*
Y2700020D03*
X4856480Y2895600D03*
X4843780Y3086100D03*
X4856480Y3202940D03*
X4787900Y3383280D03*
X4820920Y3309620D03*
X4851400Y3401060D03*
X4917440Y1381760D03*
X4950460Y1480820D03*
X4932680Y1582420D03*
X5096040Y1882140D03*
X4932680Y2095500D03*
X4930140Y2489200D03*
X5105400Y2684780D03*
X4930140Y3246120D03*
X4996180Y3312160D03*
X4950460Y3416300D03*
X5341620Y1397000D03*
X5163820Y1394460D03*
X5247640Y1409700D03*
X5328920Y2011680D03*
X5300980Y1887220D03*
X5293280Y2091700D03*
X5283200Y2286000D03*
X5249780Y2422190D03*
X5273790Y2478230D03*
X5240020Y2334260D03*
X5166360Y2639060D03*
X5288280Y2540000D03*
X5212080Y2593740D03*
X5184620Y2959100D03*
X5437770Y1645550D03*
X5380170Y1948180D03*
X5466080Y1935480D03*
X5506720Y2278380D03*
X5565140Y2209800D03*
X5509260Y2143760D03*
X5511800Y2418080D03*
X5567680Y2352040D03*
X5506720Y2717800D03*
X5486400Y2931160D03*
X5486000Y2992120D03*
X5514340Y3312160D03*
X5643880Y2273300D03*
X5786120Y2268220D03*
X5715000Y2217420D03*
X5781040Y2146300D03*
X5646420Y2138680D03*
Y2415540D03*
X5783580Y2413000D03*
X5717540Y2349500D03*
X5796280Y2682240D03*
X5646300Y2661810D03*
X5585460Y2689860D03*
X5696020Y3036500D03*
X5648960Y3390900D03*
X5628640Y3312160D03*
X5730240D03*
X5717540Y3401060D03*
X5577840Y3403600D03*
X5928360Y1658620D03*
X5808980Y1651000D03*
X6017260Y1932940D03*
X5930900Y2567940D03*
X5867400Y2706340D03*
X5930900Y3124200D03*
X5983280Y3074790D03*
X5897880Y3032760D03*
X5966460Y3309620D03*
X6245570Y1795780D03*
X6022340Y1661160D03*
X6192520Y1943100D03*
X6096000Y1935480D03*
X6042660Y2202180D03*
X6024880Y2080260D03*
X6040120Y2334260D03*
X6243320Y2308860D03*
X6126480Y2321560D03*
X6217920Y2575560D03*
X6154420Y2603500D03*
X6205220Y2651760D03*
X6092560Y2558490D03*
X6045200Y2921000D03*
X6032500Y3119120D03*
X6037580Y3025140D03*
X6245860Y3014980D03*
X6230620Y3116580D03*
X6065520Y3312160D03*
X6156960D03*
X6052820Y3418840D03*
X6164580Y3416300D03*
X6454140Y1793240D03*
X6271260Y1943100D03*
X6466840Y2298700D03*
X6344920Y2303780D03*
X6272020Y2633840D03*
X6416040Y2684780D03*
X6256580Y2701400D03*
X6332220Y2674620D03*
X6311900Y2740660D03*
X6464300Y2743200D03*
X6388100D03*
X6293510Y3062420D03*
X6337300Y3116580D03*
Y3014980D03*
X6258560Y3314700D03*
X6367780D03*
X6306820Y3411220D03*
X6438900Y3456940D03*
X6609080Y2324100D03*
X6654800Y2395220D03*
X6576060D03*
X6520850Y2691210D03*
X6550660Y2745740D03*
X6512560Y2921000D03*
X6586220Y2923540D03*
X6690360Y3101340D03*
X6553200Y2989580D03*
X6487160Y3314700D03*
X6611620D03*
X6670040Y3385820D03*
X6545580Y3418840D03*
X6621780Y3467100D03*
X6861340Y1589240D03*
X6733540Y1963420D03*
X6883400Y2113280D03*
X6880860Y2286000D03*
X6896100Y2219960D03*
X6708140Y2313940D03*
X6809740Y2430780D03*
X6736080Y2395220D03*
X6865620Y2359800D03*
X6847840Y2659380D03*
X6705600Y2722880D03*
X6708140Y2804160D03*
Y2872740D03*
X6738620Y3314700D03*
X6865620Y3309620D03*
X6858000Y3393440D03*
X6888480Y3446780D03*
X6746240Y3444240D03*
X6972300Y1360680D03*
X7119620D03*
X7073900Y1478280D03*
X7145020Y1973580D03*
X6929120Y2057400D03*
X7086600Y2032000D03*
X6974840Y2120900D03*
X7086600D03*
X7101840Y2453640D03*
X7015480Y2456180D03*
X7099300Y2540000D03*
X7012940Y2542540D03*
X7043420Y2773680D03*
X7071360Y2844800D03*
X6977380Y3312160D03*
X7071360Y3309620D03*
X7025640Y3401060D03*
X6990080Y3459480D03*
X7254240Y1360680D03*
X7289800Y1475740D03*
X7178040Y1478280D03*
X7297420Y1788160D03*
Y1686560D03*
X7188200Y2039620D03*
X7284720Y1991360D03*
X7353300Y2049780D03*
X7297420Y1882140D03*
X7335520Y2123440D03*
X7221220Y2286000D03*
X7178040Y2113280D03*
X7259320Y2098040D03*
X7272020Y2179320D03*
X7264400Y2344420D03*
X7195820Y2367280D03*
X7244080Y2659380D03*
X7310120Y2641600D03*
X7302500Y2710180D03*
X7216140Y2712720D03*
X7188200Y3312160D03*
X7307580Y3418840D03*
X7165340Y3421380D03*
X7566660Y1360680D03*
X7406640D03*
X7510780Y1785620D03*
X7426960Y1790700D03*
X7536180Y2004060D03*
X7447280Y1998980D03*
X7437120Y2090420D03*
X7533640Y2077720D03*
X7467600Y2237740D03*
X7553960Y2232660D03*
X7500620Y2166620D03*
X7388860Y2171700D03*
X7459980Y2308860D03*
X7523480D03*
X7584440Y2311400D03*
X7388860Y2479040D03*
X7500620Y2816860D03*
X7490460Y3317240D03*
X7584440Y3314700D03*
Y3421380D03*
X7444740D03*
X7726680Y1360680D03*
X7795260Y1478280D03*
X7660640Y1475740D03*
X7787640Y2011680D03*
X7614920Y2075180D03*
X7622540Y1996440D03*
X7713980Y1988820D03*
X7802880Y2143760D03*
X7797800Y2222500D03*
X7708900Y2080260D03*
X7713980Y2166620D03*
X7617460Y2164080D03*
X7820660Y2311400D03*
Y2494280D03*
X7752080Y2311400D03*
X7739380Y2496820D03*
X7825740Y2573020D03*
X7802880Y2649220D03*
X7818120Y2740660D03*
X7665720Y2750820D03*
X7734300Y2712720D03*
X7675880Y2646680D03*
X7609840Y2710180D03*
X7617460Y2593340D03*
X7731760Y2588260D03*
X7673340Y2529840D03*
X7823200Y2938780D03*
X7703820Y2814320D03*
X7612380Y2811780D03*
X7820660Y3017520D03*
Y3103880D03*
X7680960Y3312160D03*
X7790180D03*
X7726680Y3421380D03*
X7813040Y3213100D03*
X7815580Y3456940D03*
X7866380Y1360680D03*
X7950200Y1579880D03*
X8034020Y1475740D03*
X7909560Y1480820D03*
X7988300Y1673860D03*
X7995920Y1816100D03*
X7881620Y1991360D03*
X7833360Y2075180D03*
X7993380Y2059940D03*
X7924800Y2057400D03*
X7993380Y1950720D03*
X7881620Y2202180D03*
X8011160Y2143760D03*
X7924800Y2138680D03*
X7965440Y2217420D03*
X8044180D03*
X7881620Y2308860D03*
X7894320Y2496820D03*
X7978140Y2733040D03*
X7899400Y2583180D03*
X7995920Y2654300D03*
X7962900Y2583180D03*
X8049260D03*
X7904480Y2664460D03*
X7833360Y2839720D03*
X7993380Y2956560D03*
X7909560Y2936240D03*
X7970520Y2844800D03*
X7904480Y2768600D03*
X7980680Y3114040D03*
X7882820Y3154020D03*
X7927340Y3027680D03*
X7894320Y3314700D03*
X8003540Y3312160D03*
X7904480Y3408680D03*
X7965440Y3218180D03*
X7995920Y3451860D03*
X8072120Y1363980D03*
X8194040Y1397000D03*
X8186420Y1490980D03*
X8087360Y1546860D03*
X8267700Y1600200D03*
Y1488440D03*
X8183880Y1574800D03*
X8084820Y1648460D03*
X8181340Y2011680D03*
X8084820Y1996440D03*
Y1912620D03*
X8183880Y1892300D03*
X8229600Y1958340D03*
X8206740Y2082800D03*
X8094980Y2159000D03*
X8244840Y2151380D03*
X8122920Y2219960D03*
X8163560Y2491740D03*
X8158480Y2311400D03*
X8171180Y2707640D03*
X8249920Y2651760D03*
Y2743200D03*
X8092440Y2659380D03*
X8135620Y2580640D03*
X8168640Y2948940D03*
X8084820Y2895600D03*
X8082280Y2786380D03*
X8204200Y2857500D03*
X8087360Y3152140D03*
X8173720Y3284220D03*
X8087360Y3248660D03*
X8183880Y3365500D03*
X8262620Y3302000D03*
X8214360Y3225800D03*
X8168640Y3451860D03*
X8082280Y3439160D03*
X8249920D03*
X8379460Y1363980D03*
X8303260Y1348740D03*
X8288020Y1412240D03*
X8348980Y1516380D03*
X8369300Y1452880D03*
X8346440Y1590040D03*
X8407400Y1907540D03*
X8293100Y2044700D03*
X8321040Y1917700D03*
X8389620Y2001520D03*
X8337100Y2151380D03*
Y2649220D03*
Y2738120D03*
X8328660Y2890520D03*
X8374380Y2801620D03*
X8415020Y2875280D03*
X8290560Y2832100D03*
X8298180Y3190240D03*
X8333740Y3362960D03*
X8417560Y3324860D03*
X8343900Y3258820D03*
X8409940Y3228340D03*
X8389620Y3456940D03*
G54D11*
X4747740Y1798700D03*
Y1998700D03*
Y2198700D03*
Y2398700D03*
Y2598700D03*
Y2998700D03*
Y2798700D03*
X5047740Y1298700D03*
Y3498700D03*
X5247740Y1298700D03*
Y3498700D03*
X5447740Y1298700D03*
Y3498700D03*
X5647740Y1298700D03*
Y3498700D03*
X5847740Y1298700D03*
Y3498700D03*
X8447740Y2198700D03*
Y2598700D03*
G54D12*
X4935220Y1717040D03*
Y3101340D03*
X8082280Y1790700D03*
X8084820Y3017520D03*
G54D13*
X5140960Y1600200D03*
X5304630Y1653860D03*
X5250180Y2142040D03*
X5262880Y2763520D03*
X5928360Y1905000D03*
X6242520Y2226780D03*
X6142520Y2225840D03*
X6545740Y1663700D03*
X6758940Y1760940D03*
X6761480Y1861820D03*
X7815580Y1617980D03*
X7698740Y3111500D03*
G54D14*
X7344120Y3307080D03*
X7466980Y1485000D03*
G54D15*
X8447740Y2398700D03*
M02*
