G04 ================== begin FILE IDENTIFICATION RECORD ==================*
G04 Layout Name:  ASR6601QFN48_Module_V10_210527.brd*
G04 Film Name:    DRILL*
G04 File Format:  Gerber RS274X*
G04 File Origin:  Cadence Allegro 16.6-2015-S088*
G04 Origin Date:  Fri May 28 09:37:28 2021*
G04 *
G04 Layer:  MANUFACTURING/NCDRILL_LEGEND*
G04 Layer:  MANUFACTURING/NCDRILL_FIGURE*
G04 Layer:  BOARD GEOMETRY/OUTLINE*
G04 *
G04 Offset:    (0.0000 0.0000)*
G04 Mirror:    No*
G04 Mode:      Positive*
G04 Rotation:  0*
G04 FullContactRelief:  No*
G04 UndefLineWidth:     0.0000*
G04 ================== end FILE IDENTIFICATION RECORD ====================*
%FSLAX25Y25*MOMM*%
%IR0*IPPOS*OFA0.00000B0.00000*MIA0B0*SFA1.00000B1.00000*%
%AMMACRO12*
1,1,0.0,-.175,-.325*
20,1,0.0,-.175,-.325,-.175,.325,0.0*
1,1,0.0,-.175,.325*
20,1,0.0,-.175,.325,-.172341,.355388,0.0*
1,1,0.0,-.172341,.355388*
20,1,0.0,-.172341,.355388,-.164446,.384854,0.0*
1,1,0.0,-.164446,.384854*
20,1,0.0,-.164446,.384854,-.151554,.4125,0.0*
1,1,0.0,-.151554,.4125*
20,1,0.0,-.151554,.4125,-.134058,.437488,0.0*
1,1,0.0,-.134058,.437488*
20,1,0.0,-.134058,.437488,-.112488,.459058,0.0*
1,1,0.0,-.112488,.459058*
20,1,0.0,-.112488,.459058,-.0875,.476554,0.0*
1,1,0.0,-.0875,.476554*
20,1,0.0,-.0875,.476554,-.059854,.489446,0.0*
1,1,0.0,-.059854,.489446*
20,1,0.0,-.059854,.489446,-.030388,.497341,0.0*
1,1,0.0,-.030388,.497341*
20,1,0.0,-.030388,.497341,0.0,.5,0.0*
1,1,0.0,0.0,.5*
20,1,0.0,0.0,.5,.030388,.497341,0.0*
1,1,0.0,.030388,.497341*
20,1,0.0,.030388,.497341,.059854,.489446,0.0*
1,1,0.0,.059854,.489446*
20,1,0.0,.059854,.489446,.0875,.476554,0.0*
1,1,0.0,.0875,.476554*
20,1,0.0,.0875,.476554,.112488,.459058,0.0*
1,1,0.0,.112488,.459058*
20,1,0.0,.112488,.459058,.134058,.437488,0.0*
1,1,0.0,.134058,.437488*
20,1,0.0,.134058,.437488,.151554,.4125,0.0*
1,1,0.0,.151554,.4125*
20,1,0.0,.151554,.4125,.164446,.384854,0.0*
1,1,0.0,.164446,.384854*
20,1,0.0,.164446,.384854,.172341,.355388,0.0*
1,1,0.0,.172341,.355388*
20,1,0.0,.172341,.355388,.175,.325,0.0*
1,1,0.0,.175,.325*
20,1,0.0,.175,.325,.175,-.325,0.0*
1,1,0.0,.175,-.325*
20,1,0.0,.175,-.325,.172341,-.355388,0.0*
1,1,0.0,.172341,-.355388*
20,1,0.0,.172341,-.355388,.164446,-.384854,0.0*
1,1,0.0,.164446,-.384854*
20,1,0.0,.164446,-.384854,.151554,-.4125,0.0*
1,1,0.0,.151554,-.4125*
20,1,0.0,.151554,-.4125,.134058,-.437488,0.0*
1,1,0.0,.134058,-.437488*
20,1,0.0,.134058,-.437488,.112488,-.459058,0.0*
1,1,0.0,.112488,-.459058*
20,1,0.0,.112488,-.459058,.0875,-.476554,0.0*
1,1,0.0,.0875,-.476554*
20,1,0.0,.0875,-.476554,.059854,-.489446,0.0*
1,1,0.0,.059854,-.489446*
20,1,0.0,.059854,-.489446,.030388,-.497341,0.0*
1,1,0.0,.030388,-.497341*
20,1,0.0,.030388,-.497341,0.0,-.5,0.0*
1,1,0.0,0.0,-.5*
20,1,0.0,0.0,-.5,-.030388,-.497341,0.0*
1,1,0.0,-.030388,-.497341*
20,1,0.0,-.030388,-.497341,-.059854,-.489446,0.0*
1,1,0.0,-.059854,-.489446*
20,1,0.0,-.059854,-.489446,-.0875,-.476554,0.0*
1,1,0.0,-.0875,-.476554*
20,1,0.0,-.0875,-.476554,-.112488,-.459058,0.0*
1,1,0.0,-.112488,-.459058*
20,1,0.0,-.112488,-.459058,-.134058,-.437488,0.0*
1,1,0.0,-.134058,-.437488*
20,1,0.0,-.134058,-.437488,-.151554,-.4125,0.0*
1,1,0.0,-.151554,-.4125*
20,1,0.0,-.151554,-.4125,-.164446,-.384854,0.0*
1,1,0.0,-.164446,-.384854*
20,1,0.0,-.164446,-.384854,-.172341,-.355388,0.0*
1,1,0.0,-.172341,-.355388*
20,1,0.0,-.172341,-.355388,-.175,-.325,0.0*
1,1,0.0,-.175,-.325*
1,1,0.0,-.0875,-.0875*
20,1,0.0,-.0875,-.0875,-.1108,-.0846,0.0*
1,1,0.0,-.1108,-.0846*
20,1,0.0,-.1108,-.0846,-.1312,-.0729,0.0*
1,1,0.0,-.1312,-.0729*
20,1,0.0,-.1312,-.0729,-.1488,-.0554,0.0*
1,1,0.0,-.1488,-.0554*
20,1,0.0,-.1488,-.0554,-.1604,-.035,0.0*
1,1,0.0,-.1604,-.035*
20,1,0.0,-.1604,-.035,-.1663,-.0117,0.0*
1,1,0.0,-.1663,-.0117*
20,1,0.0,-.1663,-.0117,-.1663,.0117,0.0*
1,1,0.0,-.1663,.0117*
20,1,0.0,-.1663,.0117,-.1604,.035,0.0*
1,1,0.0,-.1604,.035*
20,1,0.0,-.1604,.035,-.1488,.0554,0.0*
1,1,0.0,-.1488,.0554*
20,1,0.0,-.1488,.0554,-.1312,.0729,0.0*
1,1,0.0,-.1312,.0729*
20,1,0.0,-.1312,.0729,-.1108,.0846,0.0*
1,1,0.0,-.1108,.0846*
20,1,0.0,-.1108,.0846,-.0875,.0875,0.0*
1,1,0.0,-.0875,.0875*
20,1,0.0,-.0875,.0875,-.0642,.0846,0.0*
1,1,0.0,-.0642,.0846*
20,1,0.0,-.0642,.0846,-.0438,.0729,0.0*
1,1,0.0,-.0438,.0729*
20,1,0.0,-.0438,.0729,-.0262,.0554,0.0*
1,1,0.0,-.0262,.0554*
20,1,0.0,-.0262,.0554,-.0146,.035,0.0*
1,1,0.0,-.0146,.035*
20,1,0.0,-.0146,.035,-.0087,.0117,0.0*
1,1,0.0,-.0087,.0117*
20,1,0.0,-.0087,.0117,-.0087,-.0117,0.0*
1,1,0.0,-.0087,-.0117*
20,1,0.0,-.0087,-.0117,-.0146,-.035,0.0*
1,1,0.0,-.0146,-.035*
20,1,0.0,-.0146,-.035,-.0262,-.0554,0.0*
1,1,0.0,-.0262,-.0554*
20,1,0.0,-.0262,-.0554,-.0438,-.0729,0.0*
1,1,0.0,-.0438,-.0729*
20,1,0.0,-.0438,-.0729,-.0642,-.0846,0.0*
1,1,0.0,-.0642,-.0846*
20,1,0.0,-.0642,-.0846,-.0875,-.0875,0.0*
1,1,0.0,-.0875,-.0875*
1,1,0.0,.0147,-.0875*
20,1,0.0,.0147,-.0875,.0876,.0875,0.0*
1,1,0.0,.0876,.0875*
20,1,0.0,.0876,.0875,.1605,-.0875,0.0*
1,1,0.0,.1605,-.0875*
1,1,0.0,.1343,-.0263*
20,1,0.0,.1343,-.0263,.0409,-.0263,0.0*
1,1,0.0,.0409,-.0263*
%
%ADD12MACRO12*%
%AMMACRO11*
1,1,0.0,.1016,0.0*
20,1,0.0,.1016,0.0,-.1016,0.0,0.0*
1,1,0.0,-.1016,0.0*
1,1,0.0,0.0,.1016*
20,1,0.0,0.0,.1016,0.0,-.1016,0.0*
1,1,0.0,0.0,-.1016*
%
%ADD11MACRO11*%
%AMMACRO13*
1,1,0.0,.1016,.1016*
20,1,0.0,.1016,.1016,.1016,-.1016,0.0*
1,1,0.0,.1016,-.1016*
20,1,0.0,.1016,-.1016,-.1016,-.1016,0.0*
1,1,0.0,-.1016,-.1016*
20,1,0.0,-.1016,-.1016,-.1016,.1016,0.0*
1,1,0.0,-.1016,.1016*
20,1,0.0,-.1016,.1016,.1016,.1016,0.0*
1,1,0.0,.1016,.1016*
%
%ADD13MACRO13*%
%AMMACRO10*
1,1,0.0,.25,0.0*
20,1,0.0,.25,0.0,.125,.216506,0.0*
1,1,0.0,.125,.216506*
20,1,0.0,.125,.216506,-.125,.216506,0.0*
1,1,0.0,-.125,.216506*
20,1,0.0,-.125,.216506,-.25,0.0,0.0*
1,1,0.0,-.25,0.0*
20,1,0.0,-.25,0.0,-.125,-.216506,0.0*
1,1,0.0,-.125,-.216506*
20,1,0.0,-.125,-.216506,.125,-.216506,0.0*
1,1,0.0,.125,-.216506*
20,1,0.0,.125,-.216506,.25,0.0,0.0*
1,1,0.0,.25,0.0*
%
%ADD10MACRO10*%
%LPD*%
G75*
G54D10*
X25000Y125000D03*
Y575000D03*
Y425000D03*
Y275000D03*
Y1325000D03*
Y1175000D03*
Y1025000D03*
Y875000D03*
X200000Y1575000D03*
X500000Y25000D03*
X650000D03*
X800000D03*
Y1575000D03*
X650000D03*
X500000D03*
X350000D03*
X950000Y25000D03*
X1100000D03*
X1250000D03*
X1575000Y125000D03*
Y275000D03*
Y425000D03*
Y575000D03*
Y800000D03*
Y950000D03*
Y1150000D03*
Y1300000D03*
Y1450000D03*
X1100000Y1575000D03*
X950000D03*
G54D11*
X134620Y620460D03*
X152400Y1442720D03*
X149860Y1120140D03*
X132080Y938820D03*
X271780Y73660D03*
X193040D03*
X436880Y398780D03*
X731520Y815340D03*
X734060Y665480D03*
X670560Y601980D03*
X815340D03*
X820420Y744220D03*
X670560D03*
X332740Y680720D03*
X652780Y261600D03*
X208280Y322580D03*
X251460Y734060D03*
Y421640D03*
X702920Y396890D03*
X741970Y492760D03*
X795440Y394120D03*
X821970Y492580D03*
X662940Y492760D03*
X552250Y642300D03*
X474980Y602300D03*
X447040Y535940D03*
X542290Y443230D03*
X551180Y388620D03*
X195580Y518160D03*
X365760Y591820D03*
X276860Y261620D03*
X495300Y480060D03*
X441960Y320040D03*
X782320Y340360D03*
X547700Y722300D03*
X396240Y931680D03*
X612140Y1452880D03*
X774700Y1450340D03*
X708660Y1201420D03*
X817880Y889000D03*
X670560Y894080D03*
X492200Y1392480D03*
X552250Y882300D03*
X596900Y1318260D03*
X520700Y1176020D03*
X701970Y992020D03*
X781970Y1082040D03*
X734060Y1102360D03*
X264160Y881380D03*
X280610Y963870D03*
X723900Y1371600D03*
X889000Y144780D03*
X1016000Y142240D03*
X1455420Y73660D03*
X1386840D03*
X1450340Y193040D03*
X1443700Y669580D03*
X881380Y815340D03*
X883920Y662940D03*
X947420Y599440D03*
X949960Y741680D03*
X1157260Y342400D03*
X1137920Y640080D03*
X1153160Y276840D03*
X1221740Y241300D03*
X1071880Y424180D03*
X1110630Y485140D03*
X1259840Y553720D03*
X1167740Y399440D03*
X1310640Y497840D03*
X1358900Y1305560D03*
X937260Y1450340D03*
X1447800Y962660D03*
X1155700Y1399540D03*
X1231900Y1440180D03*
X1226820Y1176020D03*
X1412240Y1376680D03*
Y1229360D03*
X1145540Y1226820D03*
X1447800Y881380D03*
X942340Y889000D03*
X855980Y1389380D03*
X1234440Y972820D03*
X861970Y992020D03*
X1068070Y1085850D03*
X901970Y1079500D03*
X1091970Y998220D03*
X1145540Y932180D03*
X1171180Y888600D03*
X1135380Y842300D03*
X941970Y992020D03*
X1374140Y939800D03*
X982980Y1082040D03*
G54D12*
X149860Y1259840D03*
X1450340Y373380D03*
G54D13*
X941970Y391160D03*
M02*
