G04 ================== begin FILE IDENTIFICATION RECORD ==================*
G04 Layout Name:  ASR6601QFN48_Module_V10_210527.brd*
G04 Film Name:    SOLD_TOP*
G04 File Format:  Gerber RS274X*
G04 File Origin:  Cadence Allegro 16.6-2015-S088*
G04 Origin Date:  Fri May 28 09:37:28 2021*
G04 *
G04 Layer:  PIN/SOLDERMASK_TOP*
G04 Layer:  PACKAGE GEOMETRY/SOLDERMASK_TOP*
G04 Layer:  VIA CLASS/SOLDERMASK_TOP*
G04 Layer:  BOARD GEOMETRY/OUTLINE*
G04 *
G04 Offset:    (0.0000 0.0000)*
G04 Mirror:    No*
G04 Mode:      Positive*
G04 Rotation:  0*
G04 FullContactRelief:  No*
G04 UndefLineWidth:     0.0000*
G04 ================== end FILE IDENTIFICATION RECORD ====================*
%FSLAX25Y25*MOMM*%
%IR0*IPPOS*OFA0.00000B0.00000*MIA0B0*SFA1.00000B1.00000*%
%AMMACRO18*
21,1,.5969,.7069,0.0,0.0,45.*%
%ADD18MACRO18*%
%ADD25R,2.1X.7*%
%ADD22R,1.2X.8*%
%ADD20R,.65X1.7*%
%ADD19C,.24*%
%ADD10C,.75*%
%ADD26O,1.5X1.1*%
%ADD15R,4.3X4.3*%
%ADD23R,.25X.33*%
%ADD16R,.3X.55*%
%ADD21R,.33X.25*%
%ADD17R,.55X.3*%
%ADD14R,.35X.35*%
%ADD13R,.35X.35*%
%ADD12R,.55X.75*%
%ADD24R,.75X.85*%
%ADD11R,.627X.677*%
%LPD*%
G75*
G54D10*
X25000Y125000D03*
Y575000D03*
Y425000D03*
Y275000D03*
Y1325000D03*
Y1175000D03*
Y1025000D03*
Y875000D03*
X200000Y1575000D03*
X500000Y25000D03*
X650000D03*
X800000D03*
Y1575000D03*
X650000D03*
X500000D03*
X350000D03*
X950000Y25000D03*
X1100000D03*
X1250000D03*
X1575000Y125000D03*
Y275000D03*
Y425000D03*
Y575000D03*
Y800000D03*
Y950000D03*
Y1150000D03*
Y1450000D03*
X1100000Y1575000D03*
X950000D03*
G54D11*
X370840Y290360D03*
Y390360D03*
X1300480Y377660D03*
Y277660D03*
G54D20*
X1022240Y294140D03*
X862240D03*
G54D12*
X181160Y610460D03*
Y760460D03*
X296160Y610460D03*
Y760460D03*
G54D21*
X1224280Y297500D03*
Y337500D03*
G54D13*
X436300Y751340D03*
X376300D03*
X436300Y802140D03*
X376300D03*
X236700Y505460D03*
X296700D03*
X748820Y264160D03*
X688820D03*
X436300Y700540D03*
X376300D03*
X748820Y314960D03*
X688820D03*
X376400Y650240D03*
X436400D03*
X360100Y878340D03*
X300100D03*
Y931680D03*
X360100D03*
X612520Y1101860D03*
X672520D03*
X430280Y1305060D03*
X370280D03*
X552200Y1355860D03*
X492200D03*
X430280D03*
X370280D03*
X807240Y1305560D03*
X747240D03*
X552200Y1305060D03*
X492200D03*
X765020Y1356360D03*
X825020D03*
X1269360Y497840D03*
X1209360D03*
X1285720Y906780D03*
X1345720D03*
X934240Y1305560D03*
X874240D03*
X1345720Y855980D03*
X1285720D03*
X941860Y1132840D03*
X881860D03*
G54D22*
X1264820Y635540D03*
Y765540D03*
G54D14*
X566320Y321600D03*
Y261600D03*
X251460Y323060D03*
Y383060D03*
X617120Y321600D03*
Y261600D03*
X800100Y1189200D03*
Y1249200D03*
X307340Y1305080D03*
Y1245080D03*
X414020Y1246660D03*
Y1186660D03*
X256540Y1305080D03*
Y1245080D03*
X225960Y938820D03*
Y878820D03*
X175160Y938820D03*
Y878820D03*
X363220Y1246660D03*
Y1186660D03*
X307340Y1105380D03*
Y1165380D03*
X431700Y871200D03*
Y931200D03*
X746760Y1189200D03*
Y1249200D03*
X561340Y1213640D03*
Y1153640D03*
X612140Y1213640D03*
Y1153640D03*
X256540Y1105380D03*
Y1165380D03*
X673100Y1213640D03*
Y1153640D03*
X1368960Y788960D03*
Y728960D03*
Y669580D03*
Y609580D03*
X1114960Y336840D03*
Y276840D03*
X1234440Y916460D03*
Y856460D03*
X934720Y1249200D03*
Y1189200D03*
X876300Y1249200D03*
Y1189200D03*
G54D23*
X934400Y1356360D03*
X894400D03*
G54D24*
X1215000Y1305500D03*
G54D15*
X801970Y742300D03*
G54D16*
X821970Y452300D03*
X781970D03*
X741970D03*
X701970D03*
X661970D03*
X621970D03*
X581970D03*
Y1032300D03*
X621970D03*
X661970D03*
X701970D03*
X741970D03*
X781970D03*
X821970D03*
X1021970Y452300D03*
X981970D03*
X941970D03*
X901970D03*
X861970D03*
Y1032300D03*
X901970D03*
X941970D03*
X981970D03*
X1021970D03*
G54D25*
X1350000Y1440500D03*
Y1170500D03*
G54D17*
X511970Y522300D03*
Y562300D03*
Y602300D03*
Y642300D03*
Y682300D03*
Y722300D03*
Y762300D03*
Y802300D03*
Y842300D03*
Y882300D03*
Y922300D03*
Y962300D03*
X1091970Y802300D03*
Y762300D03*
Y722300D03*
Y682300D03*
Y642300D03*
Y602300D03*
Y562300D03*
Y522300D03*
Y962300D03*
Y922300D03*
Y882300D03*
Y842300D03*
G54D26*
X1575000Y1300000D03*
G54D18*
X414450Y1062150D03*
X474550Y1122250D03*
G54D19*
X670240Y1275720D03*
X630240D03*
X670240Y1315720D03*
X630240D03*
X670240Y1355720D03*
X630240D03*
M02*
