G04 ================== begin FILE IDENTIFICATION RECORD ==================*
G04 Layout Name:  ASR6601QFN48_Module_V10_210527.brd*
G04 Film Name:    TOP*
G04 File Format:  Gerber RS274X*
G04 File Origin:  Cadence Allegro 16.6-2015-S088*
G04 Origin Date:  Fri May 28 09:37:28 2021*
G04 *
G04 Layer:  ETCH/TOP*
G04 Layer:  PIN/TOP*
G04 Layer:  VIA CLASS/TOP*
G04 *
G04 Offset:    (0.0000 0.0000)*
G04 Mirror:    No*
G04 Mode:      Positive*
G04 Rotation:  0*
G04 FullContactRelief:  No*
G04 UndefLineWidth:     0.0000*
G04 ================== end FILE IDENTIFICATION RECORD ====================*
%FSLAX25Y25*MOMM*%
%IR0*IPPOS*OFA0.00000B0.00000*MIA0B0*SFA1.00000B1.00000*%
%ADD12O,.5X1.2*%
%ADD28R,2.X.6*%
%ADD24R,1.1X.7*%
%ADD22R,.6X1.6*%
%ADD21C,.2*%
%ADD10C,.65*%
%ADD25C,.4064*%
%ADD11C,.3556*%
%ADD29O,1.4X1.*%
%ADD16R,.3X.3*%
%ADD17R,4.2X4.2*%
%ADD15R,.3X.3*%
%ADD26R,.2X.28*%
%ADD23R,.28X.2*%
%ADD18R,.22X.45*%
%ADD19R,.45X.22*%
%ADD27R,.7X.8*%
%ADD13R,.5X.55*%
%ADD14R,.45X.65*%
%AMMACRO20*
21,1,.47,.5799,0.0,0.0,45.*%
%ADD20MACRO20*%
%ADD30C,.1*%
%ADD31C,.15*%
%ADD32C,.25*%
%ADD33R,2.0004X.6004*%
G75*
%LPD*%
G75*
G36*
G01X1480000Y120000D02*
X120000D01*
Y444500D01*
X180000D01*
Y180000D01*
X1420000D01*
Y990000D01*
X1200000D01*
Y1050000D01*
X1480000D01*
Y120000D01*
G37*
G36*
G01X180000Y990600D02*
X120000D01*
Y1480000D01*
X1098100D01*
Y1420000D01*
X180000D01*
Y990600D01*
G37*
G36*
G01X1209040Y218440D02*
X1193800Y233680D01*
Y292100D01*
X1201590Y299890D01*
G02X1210260Y296300I3590J-3594D01*
G01Y287480D01*
X1238300D01*
Y302260D01*
X1275460D01*
Y250140D01*
X1325500D01*
Y302260D01*
X1343660D01*
X1353820Y292100D01*
Y231140D01*
X1341120Y218440D01*
X1209040D01*
G37*
G36*
G01X1569720Y1346200D02*
X1511300D01*
X1480820Y1315720D01*
Y1295400D01*
X1518920Y1257300D01*
X1567180D01*
X1574800Y1264920D01*
Y1341120D01*
X1569720Y1346200D01*
G37*
G36*
G01X1193800Y1343660D02*
X1178560D01*
X1150620Y1315720D01*
Y1295400D01*
X1178560Y1267460D01*
X1193800D01*
X1196340Y1270000D01*
Y1341120D01*
X1193800Y1343660D01*
G37*
G36*
G01X1236980D02*
X1252220D01*
X1280160Y1315720D01*
Y1295400D01*
X1252220Y1267460D01*
X1234440D01*
X1231900Y1270000D01*
Y1338580D01*
X1236980Y1343660D01*
G37*
G36*
G01X1564150Y1404130D02*
X1562100Y1402080D01*
X1518920D01*
X1468120Y1351280D01*
X1285240D01*
X1257300Y1379220D01*
X1176020D01*
X1140460Y1343660D01*
X988060D01*
X977900Y1353820D01*
Y1394460D01*
X985520Y1402080D01*
X1117600D01*
X1135380Y1419860D01*
Y1483360D01*
X1150620Y1498600D01*
X1559560D01*
X1562900Y1495260D01*
G02X1560310Y1479010I-7183J-7187D01*
G03X1561260Y1420520I14689J-29014D01*
G02X1564150Y1404130I-4292J-9207D01*
G37*
G36*
G01X1563130Y1180280D02*
G03X1558580Y1121930I11869J-30278D01*
G02X1560640Y1105980I-5128J-8770D01*
G01X1557020Y1102360D01*
X1196340D01*
X1155700Y1143000D01*
X998220D01*
X972820Y1168400D01*
Y1247140D01*
X990600Y1264920D01*
X1143000D01*
X1170940Y1236980D01*
X1262380D01*
X1285240Y1259840D01*
X1463040D01*
X1524000Y1198880D01*
X1564640D01*
X1566600Y1196920D01*
G02X1563130Y1180280I-7182J-7184D01*
G37*
%LPC*%
G75*
G54D33*
X1350000Y1440500D03*
Y1170500D03*
%LPD*%
G75*
G54D10*
X25000Y125000D03*
Y575000D03*
Y425000D03*
Y275000D03*
Y1325000D03*
Y1175000D03*
Y1025000D03*
Y875000D03*
X200000Y1575000D03*
X500000Y25000D03*
X650000D03*
X800000D03*
Y1575000D03*
X650000D03*
X500000D03*
X350000D03*
X950000Y25000D03*
X1100000D03*
X1250000D03*
X1575000Y125000D03*
Y275000D03*
Y425000D03*
Y575000D03*
Y800000D03*
Y950000D03*
Y1150000D03*
Y1450000D03*
X1100000Y1575000D03*
X950000D03*
G54D20*
X414450Y1062150D03*
X474550Y1122250D03*
G54D11*
X134620Y620460D03*
X152400Y1442720D03*
X149860Y1120140D03*
X132080Y938820D03*
X271780Y73660D03*
X193040D03*
X436880Y398780D03*
X731520Y815340D03*
X734060Y665480D03*
X670560Y601980D03*
X815340D03*
X820420Y744220D03*
X670560D03*
X332740Y680720D03*
X652780Y261600D03*
X208280Y322580D03*
X251460Y734060D03*
Y421640D03*
X702920Y396890D03*
X741970Y492760D03*
X795440Y394120D03*
X821970Y492580D03*
X662940Y492760D03*
X552250Y642300D03*
X474980Y602300D03*
X447040Y535940D03*
X542290Y443230D03*
X551180Y388620D03*
X195580Y518160D03*
X365760Y591820D03*
X276860Y261620D03*
X495300Y480060D03*
X441960Y320040D03*
X782320Y340360D03*
X547700Y722300D03*
X396240Y931680D03*
X612140Y1452880D03*
X774700Y1450340D03*
X708660Y1201420D03*
X817880Y889000D03*
X670560Y894080D03*
X492200Y1392480D03*
X552250Y882300D03*
X596900Y1318260D03*
X520700Y1176020D03*
X701970Y992020D03*
X781970Y1082040D03*
X734060Y1102360D03*
X264160Y881380D03*
X280610Y963870D03*
X723900Y1371600D03*
X889000Y144780D03*
X1016000Y142240D03*
X1455420Y73660D03*
X1386840D03*
X1450340Y193040D03*
X1443700Y669580D03*
X881380Y815340D03*
X883920Y662940D03*
X947420Y599440D03*
X949960Y741680D03*
X1157260Y342400D03*
X1137920Y640080D03*
X1153160Y276840D03*
X1221740Y241300D03*
X1071880Y424180D03*
X1110630Y485140D03*
X1259840Y553720D03*
X1167740Y399440D03*
X1310640Y497840D03*
X1358900Y1305560D03*
X937260Y1450340D03*
X1447800Y962660D03*
X1155700Y1399540D03*
X1231900Y1440180D03*
X1226820Y1176020D03*
X1412240Y1376680D03*
Y1229360D03*
X1145540Y1226820D03*
X1447800Y881380D03*
X942340Y889000D03*
X855980Y1389380D03*
X1234440Y972820D03*
X861970Y992020D03*
X1068070Y1085850D03*
X901970Y1079500D03*
X1091970Y998220D03*
X1145540Y932180D03*
X1171180Y888600D03*
X1135380Y842300D03*
X941970Y992020D03*
X1374140Y939800D03*
X982980Y1082040D03*
G54D30*
G01X1224280Y282400D02*
Y297500D01*
G01X1205180D02*
X1224280D01*
G01D02*
X1243380D01*
G01X1300480Y245060D02*
Y277660D01*
G01X1270380D02*
X1300480D01*
G01D02*
X1330580D01*
G54D21*
G01X175160Y938820D02*
X132080D01*
G01X149860Y1120140D02*
X174790Y1145070D01*
G01X370840Y390360D02*
X428460D01*
X436880Y398780D01*
G01X376300Y700540D02*
Y675340D01*
X376400Y675240D01*
Y650240D01*
G01X251460Y323060D02*
X208760D01*
X208280Y322580D01*
G01X376300Y700540D02*
X352560D01*
X332740Y680720D01*
G01X661970Y452300D02*
X662940Y453270D01*
Y492760D01*
G01X276860Y261620D02*
X298590Y239890D01*
G03X344240Y220980I45650J45646D01*
G01X498970D01*
G03X544600Y239880I0J64532D01*
G01X566320Y261600D01*
G01X441960Y320040D02*
X412280Y290360D01*
X370840D01*
G01X225960Y938820D02*
X175160D01*
G01X492200Y1392480D02*
Y1355860D01*
G01D02*
X430280D01*
G01X307340Y1165380D02*
X256540D01*
G01X363220Y1186660D02*
X341940Y1165380D01*
X307340D01*
G01X431700Y871200D02*
X459720D01*
X470820Y882300D01*
X511970D01*
G01D02*
X552250D01*
G01X174790Y1145070D02*
G02X223820Y1165380I49030J-49026D01*
G01X256540D01*
G01X1157260Y342400D02*
X1151700Y336840D01*
X1114960D01*
G01Y276840D02*
X1153160D01*
G01X1358900Y1305560D02*
X1569440D01*
G01X1215000Y1305500D02*
X1331060D01*
X1331120Y1305560D01*
X1358900D01*
G01X1215000Y1305500D02*
X1160840D01*
G01D02*
X1160780Y1305560D01*
G01D02*
X934240D01*
G01X1374140Y939800D02*
X1365720D01*
G03X1345720Y919800I0J-20000D01*
G01Y906780D01*
G01X1569440Y1305560D02*
X1575000Y1300000D01*
X670240Y1275720D03*
X630240D03*
X670240Y1315720D03*
X630240D03*
X670240Y1355720D03*
X630240D03*
G54D12*
X149860Y1259840D03*
X1450340Y373380D03*
G54D31*
G01X181160Y610460D02*
X144620D01*
X134620Y620460D01*
G01X511970Y802300D02*
X458960D01*
X458800Y802140D01*
X436300D01*
G01X511970Y762300D02*
X476010D01*
G03X465340Y757880I0J-15089D01*
G01X463220Y755760D01*
G02X452550Y751340I-10670J10669D01*
G01X436300D01*
G01X688820Y314960D02*
Y264160D01*
G01X617120Y261600D02*
X652780D01*
G01D02*
X663760D01*
X666320Y264160D01*
X688820D01*
G01X861970Y452300D02*
Y524280D01*
G03X840000Y577320I-75010J0D01*
G01X815340Y601980D01*
G01X181160Y760460D02*
Y822460D01*
X187860Y829160D01*
G01X376300Y802140D02*
X368200D01*
X353170Y817170D01*
G03X322000Y830080I-31170J-31174D01*
G01X188780D01*
X187860Y829160D01*
G01X296160Y610460D02*
Y528500D01*
X296700Y527960D01*
Y505460D01*
G01X251460Y383060D02*
Y421640D01*
G01X296160Y760460D02*
X277860D01*
X251460Y734060D01*
G01X376300Y751340D02*
X335280D01*
X326160Y760460D01*
X296160D01*
G01X701970Y452300D02*
Y397840D01*
X702920Y396890D01*
G01X741970Y492760D02*
Y452300D01*
G01X781970D02*
Y407610D01*
X792900Y396680D01*
Y396660D01*
X795440Y394120D01*
G01X821970Y452300D02*
Y492580D01*
G01X566320Y321600D02*
X617120D01*
G01D02*
Y334350D01*
G02X624020Y351000I23539J0D01*
G01X640630Y367610D01*
G03X661970Y419130I-51521J51520D01*
G01Y452300D01*
G01X511970Y642300D02*
X552250D01*
G01X511970Y602300D02*
X474980D01*
G01X511970Y562300D02*
X490540D01*
G03X461280Y550180I0J-41380D01*
G01X447040Y535940D01*
G01X581970Y452300D02*
X551360D01*
X542290Y443230D01*
G01X621970Y452300D02*
Y426760D01*
G02X583830Y388620I-38140J0D01*
G01X551180D01*
G01X195580Y518160D02*
X208280Y505460D01*
X236700D01*
G01X511970Y682300D02*
X495470D01*
G03X472420Y672750I0J-32592D01*
G01X449910Y650240D01*
X436400D01*
G01D02*
Y634300D01*
G02X393920Y591820I-42480J0D01*
G01X365760D01*
G01X511970Y522300D02*
Y503800D01*
X511960Y503790D01*
Y496690D01*
G02X495330Y480060I-16630J0D01*
G01X495300D01*
G01X782320Y340360D02*
Y335890D01*
X761390Y314960D01*
X748820D01*
G01Y264160D02*
Y314960D01*
G01X547700Y722300D02*
X511970D01*
G01D02*
X494450D01*
G03X470740Y712480I0J-33533D01*
G01X465700Y707440D01*
G02X449050Y700540I-16650J16639D01*
G01X436300D01*
G01X511970Y922300D02*
X463100D01*
X454200Y931200D01*
X431700D01*
G01X396240Y931680D02*
X360100D01*
G01X396240D02*
X396720Y931200D01*
X431700D01*
G01X256540Y1105380D02*
X307340D01*
G01D02*
X342150D01*
G02X391780Y1084820I0J-70181D01*
G01X414450Y1062150D01*
G01X511970Y962300D02*
X488490D01*
G02X459740Y991050I0J28750D01*
G01Y991080D01*
G03X441510Y1035090I-62238J0D01*
G01X414450Y1062150D01*
G01X414020Y1186660D02*
X420710Y1179860D01*
Y1179460D01*
X474550Y1122250D01*
G01X581970Y1032300D02*
Y1043800D01*
G03X551350Y1074420I-30620J0D01*
G01X544150D01*
G02X506980Y1089820I-1J52555D01*
G01X474550Y1122250D01*
G01X747240Y1305560D02*
Y1307620D01*
X739140Y1315720D01*
X670240D01*
G01X511970Y842300D02*
X481970D01*
X478370Y838700D01*
X393260D01*
G02X360100Y871860I0J33160D01*
G01Y878340D01*
G01X661970Y1032300D02*
Y1068810D01*
X672520Y1079360D01*
Y1101860D01*
G01X673100Y1153640D02*
Y1124940D01*
X672520Y1124360D01*
Y1101860D01*
G01X621970Y1032300D02*
Y1069910D01*
X612520Y1079360D01*
Y1101860D01*
G01X612140Y1153640D02*
Y1124740D01*
X612520Y1124360D01*
Y1101860D01*
G01X612140Y1213640D02*
X561340D01*
G01X612140D02*
Y1246320D01*
G02X620130Y1265610I27281J0D01*
G01X630240Y1275720D01*
G01X363220Y1246660D02*
X414020D01*
G01X307340Y1245080D02*
X339140D01*
X340720Y1246660D01*
X363220D01*
G01X307340Y1245080D02*
X256540D01*
G01X825020Y1356360D02*
X855980D01*
G01X596900Y1318260D02*
X627700D01*
X630240Y1315720D01*
G01X746760Y1189200D02*
X728030D01*
G02X715830Y1194250I0J17262D01*
G01X708660Y1201420D01*
G01X673100Y1213640D02*
X689290D01*
G02X701490Y1208590I0J-17262D01*
G01X708660Y1201420D01*
G01X561340Y1153640D02*
X541020D01*
X520700Y1173960D01*
Y1176020D01*
G01X701970Y992020D02*
Y1032300D01*
G01X781970D02*
Y1082040D01*
G01X821970Y1032300D02*
Y1114780D01*
G03X812090Y1138630I-33727J0D01*
G01X809980Y1140740D01*
G02X800100Y1164590I23847J23850D01*
G01Y1189200D01*
G01X741970Y1032300D02*
Y1067410D01*
X734060Y1075320D01*
Y1102360D01*
G01X175160Y878820D02*
Y849350D01*
G03X180450Y836570I18082J0D01*
G01X187860Y829160D01*
G01X264160Y881380D02*
X228520D01*
X225960Y878820D01*
G01X300100Y878340D02*
X267200D01*
X264160Y881380D01*
G01X300100Y931680D02*
Y944380D01*
X280610Y963870D01*
G01X807240Y1305560D02*
X874240D01*
G01X370280Y1355860D02*
Y1305060D01*
G01D02*
X347780D01*
X347760Y1305080D01*
X307340D01*
G01D02*
X256540D01*
G01X492200Y1305060D02*
X430280D01*
G01X765020Y1356360D02*
X738900D01*
X723900Y1371360D01*
Y1371600D01*
G01X708020Y1355720D02*
X670240D01*
G01X718320D02*
X708020D01*
G01X723900Y1371600D02*
X708020Y1355720D01*
G01X800100Y1249200D02*
X746760D01*
G01D02*
X730260D01*
G02X707210Y1258750I0J32592D01*
G01X696260Y1269700D01*
G03X681740Y1275720I-14527J-14517D01*
G01X670240D01*
G01X630240Y1355720D02*
X630100Y1355860D01*
X552200D01*
G01D02*
Y1305060D01*
G01X1368960Y788960D02*
X1359400D01*
G03X1348180Y784310I0J-15861D01*
G01X1340060Y776190D01*
G02X1314340Y765540I-25720J25732D01*
G01X1264820D01*
G01X1091970Y722300D02*
X1136780D01*
G03X1186420Y742860I0J70205D01*
G01X1190460Y746900D01*
G02X1235460Y765540I45000J-44999D01*
G01X1264820D01*
G01X1209360Y497840D02*
X1191260D01*
X1138060Y551040D01*
G03X1110880Y562300I-27180J-27174D01*
G01X1091970D01*
G01X1368960Y728960D02*
Y669580D01*
G01D02*
X1443700D01*
G01X1224280Y337500D02*
X1187440D01*
X1182540Y342400D01*
X1157260D01*
G01X1091970Y642300D02*
X1135700D01*
X1137920Y640080D01*
G01X1264820Y635540D02*
X1311010D01*
G02X1339790Y623620I0J-40704D01*
G01X1353830Y609580D01*
X1368960D01*
G01X1091970Y682300D02*
X1133210D01*
G02X1186250Y660330I0J-75010D01*
G01X1193080Y653500D01*
G03X1236430Y635540I43350J43337D01*
G01X1264820D01*
G01X1091970Y762300D02*
X1131690D01*
G03X1147170Y768710I0J21897D01*
G01X1155700Y777240D01*
Y802640D01*
X1153160Y805180D01*
G01D02*
G03X1174720Y819240I-22601J58217D01*
G01X1205040Y849560D01*
G02X1221690Y856460I16650J-16639D01*
G01X1234440D01*
G01X1091970Y802300D02*
X1137790D01*
G03X1153160Y805180I0J42453D01*
G01X1022240Y281440D02*
Y294140D01*
G01X1114960Y276840D02*
X1087780D01*
G02X1069450Y284430I0J25929D01*
G01X1067330Y286550D01*
G03X1049000Y294140I-18330J-18339D01*
G01X1022240D01*
G01X981970Y452300D02*
Y435610D01*
G03X991660Y412220I33075J0D01*
G01X1003160Y400720D01*
G02X1022240Y354660I-46055J-46060D01*
G01Y294140D01*
G01X1021970Y452300D02*
X1051380D01*
G02X1071880Y431800I0J-20500D01*
G01Y424180D01*
G01X1091970Y522300D02*
Y511550D01*
G03X1097460Y498310I18727J7D01*
G01X1110630Y485140D01*
G01X1091970Y602300D02*
X1117560D01*
G02X1156130Y586320I0J-54537D01*
G01X1166760Y575690D01*
G03X1219800Y553720I53040J53040D01*
G01X1259840D01*
G01X941970Y452300D02*
Y391160D01*
G01X862240Y281440D02*
Y294140D01*
G01X901970Y452300D02*
Y435340D01*
G02X892090Y411490I-33727J0D01*
G01X881050Y400450D01*
G03X862240Y355040I45408J-45410D01*
G01Y294140D01*
G01X1269360Y497840D02*
X1310640D01*
G01X934400Y1356360D02*
Y1328220D01*
X934240Y1328060D01*
Y1305560D01*
G01X934720Y1249200D02*
Y1282580D01*
X934240Y1283060D01*
Y1305560D01*
G01X855980Y1356360D02*
X894400D01*
G01X855980D02*
Y1389380D01*
G01X1234440Y916460D02*
Y972820D01*
G01X1145540Y1226820D02*
X1196340Y1176020D01*
X1226820D01*
G01X1155700Y1399540D02*
X1196340Y1440180D01*
X1231900D01*
G01X934720Y1189200D02*
X997740D01*
G01X934720D02*
X876300D01*
G01D02*
X873760D01*
Y1163440D01*
X881860Y1155340D01*
Y1132840D01*
G01X1575000Y1150000D02*
X1478000D01*
G01X1226820Y1176020D02*
X1232340Y1170500D01*
G01X1575000Y1450000D02*
X1467000D01*
G01X1350000Y1440500D02*
X1232220D01*
G01X1447800Y881380D02*
X1422400Y855980D01*
G01X1457500Y1170500D02*
X1350000D01*
G01X1232340D02*
X1350000D01*
G01X1478000Y1150000D02*
X1457500Y1170500D01*
G01X1350000Y1135400D02*
Y1170500D01*
G01D02*
Y1205600D01*
G01X1457500Y1440500D02*
X1350000D01*
G01X1232220D02*
X1231900Y1440180D01*
G01X1467000Y1450000D02*
X1457500Y1440500D01*
G01X1350000Y1405400D02*
Y1440500D01*
G01D02*
Y1475600D01*
G01X1422400Y855980D02*
X1345720D01*
G01X861970Y1032300D02*
Y992020D01*
G01X1021970Y1032300D02*
Y1055010D01*
G02X1052810Y1085850I30840J0D01*
G01X1068070D01*
G01X901970Y1079500D02*
Y1032300D01*
G01X1091970Y998220D02*
Y962300D01*
G01Y922300D02*
X1135660D01*
X1145540Y932180D01*
G01X1091970Y882300D02*
X1139600D01*
X1145900Y888600D01*
X1171180D01*
G01X1135380Y842300D02*
X1091970D01*
G01X941970Y992020D02*
Y1032300D01*
G01D02*
Y1062300D01*
X942240Y1062570D01*
Y1132460D01*
X941860Y1132840D01*
G01X1285720Y855980D02*
X1257420D01*
X1256940Y856460D01*
X1234440D01*
G01X1285720Y906780D02*
Y855980D01*
G01X874240Y1305560D02*
Y1273760D01*
X876300Y1271700D01*
Y1249200D01*
G01X981970Y1032300D02*
Y1081030D01*
X982980Y1082040D01*
G01X1551940Y1112520D02*
X1575000Y1135580D01*
Y1150000D01*
G01X1549400Y1188720D02*
X1575000Y1163120D01*
Y1150000D01*
G01X1516380Y1483360D02*
X1541640D01*
G01X1526540Y1412240D02*
X1549400D01*
G01X1541640Y1483360D02*
X1575000Y1450000D01*
G01X1549400Y1412240D02*
X1575000Y1437840D01*
Y1450000D01*
G54D13*
X370840Y290360D03*
Y390360D03*
X1300480Y377660D03*
Y277660D03*
G54D22*
X1022240Y294140D03*
X862240D03*
G54D32*
G01X1167740Y399440D02*
X1265790D01*
G02X1287830Y390310I0J-31167D01*
G01X1300480Y377660D01*
G54D14*
X181160Y610460D03*
Y760460D03*
X296160Y610460D03*
Y760460D03*
G54D23*
X1224280Y297500D03*
Y337500D03*
G54D15*
X436300Y751340D03*
X376300D03*
X436300Y802140D03*
X376300D03*
X236700Y505460D03*
X296700D03*
X748820Y264160D03*
X688820D03*
X436300Y700540D03*
X376300D03*
X748820Y314960D03*
X688820D03*
X376400Y650240D03*
X436400D03*
X360100Y878340D03*
X300100D03*
Y931680D03*
X360100D03*
X612520Y1101860D03*
X672520D03*
X430280Y1305060D03*
X370280D03*
X552200Y1355860D03*
X492200D03*
X430280D03*
X370280D03*
X807240Y1305560D03*
X747240D03*
X552200Y1305060D03*
X492200D03*
X765020Y1356360D03*
X825020D03*
X1269360Y497840D03*
X1209360D03*
X1285720Y906780D03*
X1345720D03*
X934240Y1305560D03*
X874240D03*
X1345720Y855980D03*
X1285720D03*
X941860Y1132840D03*
X881860D03*
G54D24*
X1264820Y635540D03*
Y765540D03*
G54D16*
X566320Y321600D03*
Y261600D03*
X251460Y323060D03*
Y383060D03*
X617120Y321600D03*
Y261600D03*
X800100Y1189200D03*
Y1249200D03*
X307340Y1305080D03*
Y1245080D03*
X414020Y1246660D03*
Y1186660D03*
X256540Y1305080D03*
Y1245080D03*
X225960Y938820D03*
Y878820D03*
X175160Y938820D03*
Y878820D03*
X363220Y1246660D03*
Y1186660D03*
X307340Y1105380D03*
Y1165380D03*
X431700Y871200D03*
Y931200D03*
X746760Y1189200D03*
Y1249200D03*
X561340Y1213640D03*
Y1153640D03*
X612140Y1213640D03*
Y1153640D03*
X256540Y1105380D03*
Y1165380D03*
X673100Y1213640D03*
Y1153640D03*
X1368960Y788960D03*
Y728960D03*
Y669580D03*
Y609580D03*
X1114960Y336840D03*
Y276840D03*
X1234440Y916460D03*
Y856460D03*
X934720Y1249200D03*
Y1189200D03*
X876300Y1249200D03*
Y1189200D03*
G54D25*
X941970Y391160D03*
G54D26*
X934400Y1356360D03*
X894400D03*
G54D17*
X801970Y742300D03*
G54D27*
X1215000Y1305500D03*
G54D18*
X821970Y452300D03*
X781970D03*
X741970D03*
X701970D03*
X661970D03*
X621970D03*
X581970D03*
Y1032300D03*
X621970D03*
X661970D03*
X701970D03*
X741970D03*
X781970D03*
X821970D03*
X1021970Y452300D03*
X981970D03*
X941970D03*
X901970D03*
X861970D03*
Y1032300D03*
X901970D03*
X941970D03*
X981970D03*
X1021970D03*
G54D19*
X511970Y522300D03*
Y562300D03*
Y602300D03*
Y642300D03*
Y682300D03*
Y722300D03*
Y762300D03*
Y802300D03*
Y842300D03*
Y882300D03*
Y922300D03*
Y962300D03*
X1091970Y802300D03*
Y762300D03*
Y722300D03*
Y682300D03*
Y642300D03*
Y602300D03*
Y562300D03*
Y522300D03*
Y962300D03*
Y922300D03*
Y882300D03*
Y842300D03*
G54D28*
X1350000Y1440500D03*
Y1170500D03*
G54D29*
X1575000Y1300000D03*
M02*
