G04 ================== begin FILE IDENTIFICATION RECORD ==================*
G04 Layout Name:  ASR6601CB_FEM900_MD_V10_240315.brd*
G04 Film Name:    TOP*
G04 File Format:  Gerber RS274X*
G04 File Origin:  Cadence Allegro 16.6-2015-S088*
G04 Origin Date:  Thu Mar 14 19:44:25 2024*
G04 *
G04 Layer:  ETCH/TOP*
G04 Layer:  PIN/TOP*
G04 Layer:  VIA CLASS/TOP*
G04 *
G04 Offset:    (0.0000 0.0000)*
G04 Mirror:    No*
G04 Mode:      Positive*
G04 Rotation:  0*
G04 FullContactRelief:  No*
G04 UndefLineWidth:     0.0000*
G04 ================== end FILE IDENTIFICATION RECORD ====================*
%FSLAX25Y25*MOMM*%
%IR0*IPPOS*OFA0.00000B0.00000*MIA0B0*SFA1.00000B1.00000*%
%ADD39O,1.2X.4*%
%ADD13O,.4X1.2*%
%ADD41R,2.X.6*%
%ADD34R,1.2X.6*%
%ADD32R,1.1X.8*%
%ADD18R,.7X1.1*%
%ADD33R,.8X1.1*%
%ADD37R,1.2X.8*%
%ADD29R,1.25X.5*%
%ADD15R,1.6X.6*%
%ADD38R,1.X.95*%
%ADD11C,.65*%
%ADD16C,.508*%
%ADD10C,.4064*%
%AMMACRO24*
21,1,.47,.5799,0.0,0.0,135.*%
%ADD24MACRO24*%
%ADD43O,1.4X1.*%
%ADD21R,4.2X4.2*%
%ADD30C,1.*%
%ADD17R,.6X.6*%
%ADD40R,.6X.6*%
%ADD19R,.22X.45*%
%ADD35R,1.8X1.8*%
%ADD20R,.45X.22*%
%ADD42R,.7X.8*%
%AMMACRO23*
21,1,.55,.5,0.0,0.0,45.*%
%ADD23MACRO23*%
%ADD12R,.5X.55*%
%ADD28R,.25X.45*%
%ADD14R,.55X.5*%
%ADD36R,.25X.75*%
%ADD31R,.75X.25*%
%ADD22R,.65X.45*%
%AMMACRO26*
21,1,.47,.5799,0.0,0.0,45.*%
%ADD26MACRO26*%
%ADD25R,.5799X.47*%
%ADD27R,.47X.5799*%
%ADD44C,.2*%
%ADD45C,.3*%
%ADD46C,.4*%
%ADD47C,.5*%
%ADD48C,.25*%
%ADD50C,.864*%
%ADD51R,2.3124X1.2624*%
%ADD49C,1.7624*%
G75*
%LPD*%
G75*
G36*
G01X5024500Y2561640D02*
Y2430400D01*
X5044820D01*
Y2350720D01*
X5189340D01*
G02X5202000Y2337080I-3J-12698D01*
G03X5236770Y2296280I38017J-2817D01*
G01X5239120Y2296080D01*
X5245180Y2289870D01*
X5245100Y2287180D01*
Y2287100D01*
X5244930Y2280920D01*
X5064760D01*
X5052060Y2268220D01*
Y2016760D01*
X5053320Y2015500D01*
Y2003680D01*
X5030420D01*
Y1877440D01*
X5032120D01*
Y1744600D01*
X5052440D01*
Y1664920D01*
X5138040D01*
Y1682500D01*
X5159960D01*
Y1681860D01*
X5250870D01*
G02X5263080Y1665680I-4J-12700D01*
G03X5347770Y1651600I41550J-11823D01*
G01X5348090Y1657620D01*
X5486020D01*
Y1676400D01*
X5745860D01*
Y1657620D01*
X5872100D01*
Y1680160D01*
X5959220D01*
Y1675080D01*
X6220080D01*
Y1806320D01*
X6199760D01*
Y1843060D01*
X6251920D01*
Y1732660D01*
X6272240D01*
Y1682980D01*
X6279820D01*
Y1653160D01*
X6257240D01*
Y1567560D01*
X6447840D01*
Y1577640D01*
X6518490D01*
X6566860Y1626000D01*
X6567560Y1626410D01*
G03X6579800Y1690270I-21820J37285D01*
G01X6578460Y1691990D01*
Y1704340D01*
X6816040D01*
Y1615300D01*
G02X6824670Y1599650I-3586J-12182D01*
G03X6898010I36670J-10410D01*
G02X6910220Y1615820I12217J3470D01*
G01X7006640D01*
Y1657650D01*
X7006890Y1657900D01*
X7069280D01*
Y1642820D01*
X7224880D01*
Y1717500D01*
X7245200D01*
Y1853740D01*
X7239000D01*
Y1925320D01*
X7228840Y1935480D01*
X7022060D01*
Y2028240D01*
X6895820D01*
Y1907540D01*
X6809740D01*
Y1920240D01*
X6797040Y1932940D01*
X6784340Y1920240D01*
X6705600D01*
X6704420Y1919060D01*
X6574140D01*
Y1917800D01*
X6482620D01*
Y1786560D01*
X6492240D01*
Y1719580D01*
X6502940Y1708880D01*
Y1706880D01*
X6504940D01*
X6507480Y1704340D01*
X6513020D01*
Y1691990D01*
X6511680Y1690270D01*
G03X6502900Y1658100I34057J-26578D01*
G01X6503310Y1655000D01*
X6491390Y1643080D01*
X6447840D01*
Y1653160D01*
X6430580D01*
Y1682980D01*
X6432840D01*
Y1732660D01*
X6453160D01*
Y1858900D01*
X6432840D01*
Y1908580D01*
X6427760D01*
Y1923110D01*
X6427870Y1924280D01*
Y1924300D01*
G03X6418870Y1953550I-32143J6120D01*
G01X6410660Y1961750D01*
Y2012900D01*
X6420740D01*
Y2092580D01*
X6441060D01*
Y2223820D01*
X6314820D01*
Y2222120D01*
X6185980D01*
X6185660Y2228130D01*
G03X6102170Y2210420I-43138J-2286D01*
G01X6102590Y2209320D01*
Y2202700D01*
X6096320D01*
Y2181720D01*
X6078480D01*
Y2189100D01*
X6078810Y2190080D01*
G03X6005130Y2208870I-36152J12094D01*
G01X6004200Y2203640D01*
X5976720D01*
Y2395700D01*
X6025560D01*
G02X6030600Y2393610I0J-7122D01*
G01X6034130Y2390090D01*
G03X6071100Y2373350I40706J40705D01*
G01X6073530Y2373190D01*
X6079680Y2366890D01*
Y2357140D01*
X6173280D01*
Y2365720D01*
X6201360D01*
Y2344800D01*
X6281040D01*
Y2324480D01*
X6403720D01*
Y2322780D01*
X6529960D01*
Y2450680D01*
X6552780D01*
X6553580Y2451480D01*
X6582360D01*
Y2446400D01*
X6772960D01*
Y2456070D01*
X6778130Y2457050D01*
G03X6791310Y2462760I-6101J32148D01*
G01X6792980Y2463980D01*
X6798430D01*
X6833590Y2499140D01*
X6845740D01*
Y2392330D01*
G03X6846280Y2326950I19879J-32528D01*
G02X6850090Y2308510I-6439J-10944D01*
G03X6858900Y2254840I30768J-22507D01*
G02X6862700Y2238340I-7323J-10374D01*
G03X6934120Y2222740I33400J-18377D01*
G01X6933910Y2225640D01*
X6941320Y2233050D01*
X7004000D01*
Y2161920D01*
X7194600D01*
Y2247520D01*
X7148760D01*
Y2294060D01*
X7156340D01*
Y2371240D01*
X7179160D01*
Y2394060D01*
X7263960D01*
G03X7296220Y2366780I32260J5435D01*
G01X7307960D01*
Y2233880D01*
X7434200D01*
Y2353500D01*
X7607680D01*
Y2236420D01*
X7733920D01*
Y2353500D01*
X7903160D01*
Y2235580D01*
X8034400D01*
Y2255900D01*
X8114080D01*
Y2341500D01*
X8100660D01*
Y2357500D01*
X8113240D01*
Y2362580D01*
X8148480D01*
Y2339960D01*
X8198160D01*
Y2194640D01*
X8377020D01*
X8377770Y2189150D01*
G03X8447700Y2128080I69971J9550D01*
G01Y1348700D01*
G02X8397740Y1298740I-49960J0D01*
G01X5905940D01*
X5905370Y1304460D01*
G03X5790110I-57630J-5760D01*
G01X5789540Y1298740D01*
X5705940D01*
X5705370Y1304460D01*
G03X5590110I-57630J-5760D01*
G01X5589540Y1298740D01*
X5505940D01*
X5505370Y1304460D01*
G03X5390110I-57630J-5760D01*
G01X5389540Y1298740D01*
X5318600D01*
X5318120Y1304560D01*
G03X5177360I-70380J-5860D01*
G01X5176880Y1298740D01*
X5105940D01*
X5105370Y1304460D01*
G03X4990110I-57630J-5760D01*
G01X4989540Y1298740D01*
X4797740D01*
G02X4747780Y1348700I0J49960D01*
G01Y1740780D01*
G03Y1856620I-40J57920D01*
G01Y1940780D01*
G03Y2056620I-40J57920D01*
G01Y2140780D01*
G03Y2256620I-40J57920D01*
G01Y2340780D01*
G03Y2456620I-40J57920D01*
G01Y2540780D01*
G03Y2656620I-40J57920D01*
G01Y2740780D01*
G03Y2856620I-40J57920D01*
G01Y2940780D01*
G03Y3056620I-40J57920D01*
G01Y3448700D01*
G02X4797740Y3498660I49960J0D01*
G01X4989540D01*
X4990110Y3492940D01*
G03X5105370I57630J5760D01*
G01X5105940Y3498660D01*
X5189540D01*
X5190110Y3492940D01*
G03X5305370I57630J5760D01*
G01X5305940Y3498660D01*
X5389540D01*
X5390110Y3492940D01*
G03X5505370I57630J5760D01*
G01X5505940Y3498660D01*
X5576880D01*
X5577360Y3492840D01*
G03X5718120I70380J5860D01*
G01X5718600Y3498660D01*
X5789540D01*
X5790110Y3492940D01*
G03X5905370I57630J5760D01*
G01X5905940Y3498660D01*
X8397740D01*
G02X8447700Y3448700I0J-49960D01*
G01Y2669320D01*
G03X8377550Y2606530I36J-70622D01*
G01X8376920Y2600880D01*
X8198160D01*
Y2455560D01*
X8148480D01*
Y2438020D01*
X8116660D01*
Y2539540D01*
X8046980D01*
Y2559860D01*
X7910740D01*
Y2447100D01*
X7734320D01*
Y2438020D01*
X7713600D01*
Y2447340D01*
X7616240D01*
Y2537080D01*
X7566280D01*
Y2675000D01*
X7545960D01*
Y2754680D01*
X7460360D01*
Y2734600D01*
X7443280D01*
Y2743180D01*
X7429200D01*
Y2792310D01*
X7378680Y2842830D01*
Y2857480D01*
X7434960D01*
Y2856180D01*
X7534020D01*
Y2851100D01*
X7660260D01*
Y2853600D01*
X7766860D01*
Y2989840D01*
X7746540D01*
Y3059520D01*
X7731460D01*
Y3083290D01*
G03X7666020I-32720J28210D01*
G01Y3059520D01*
X7639940D01*
Y3062020D01*
X7554340D01*
Y3055820D01*
X7540880D01*
Y3067100D01*
X7455280D01*
Y3054520D01*
X7441820D01*
Y3068400D01*
X7431740D01*
Y3096590D01*
X7387930Y3140400D01*
X7319500D01*
Y3172980D01*
X7183900D01*
Y3172940D01*
X7016420D01*
Y3149300D01*
X6988420D01*
Y3189380D01*
X6872820D01*
Y3172480D01*
X6858420D01*
Y3189380D01*
X6742820D01*
Y3037460D01*
X6633160D01*
Y2911220D01*
X6766860D01*
Y2894380D01*
X6756780D01*
Y2814700D01*
X6736460D01*
Y2683460D01*
X6862700D01*
Y2785500D01*
X6904020D01*
Y2756930D01*
X6945740Y2715210D01*
Y2627480D01*
X6922920D01*
Y2604660D01*
X6845740D01*
Y2599580D01*
X6829990D01*
X6812890Y2616680D01*
X6812570Y2618720D01*
G03X6781590Y2646350I-32326J-5063D01*
G01X6775500Y2652690D01*
Y2656460D01*
X6667920D01*
Y2683460D01*
X6672200D01*
Y2874060D01*
X6586600D01*
Y2866480D01*
X6555720D01*
Y2873820D01*
X6388120D01*
Y2864740D01*
X6370300D01*
Y2873820D01*
X6366720D01*
Y2893440D01*
X6379260D01*
Y2899320D01*
X6396100D01*
Y2891740D01*
X6481700D01*
Y2971420D01*
X6502020D01*
Y3102660D01*
X6375780D01*
Y2979040D01*
X6189600D01*
Y3102660D01*
X6063360D01*
Y2971420D01*
X6083680D01*
Y2891270D01*
X6051260Y2858840D01*
G02X6029580Y2867820I-8979J8983D01*
G01Y2988360D01*
X5903340D01*
Y2935100D01*
X5853650D01*
G02X5849160Y2945940I0J6350D01*
G01X5852160Y2948940D01*
Y3141980D01*
X5836920Y3157220D01*
X5372100D01*
X5361940Y3147060D01*
Y3056000D01*
X5357240D01*
Y2938780D01*
X5323380D01*
Y3029120D01*
X5187140D01*
Y2913380D01*
X5123180D01*
X5105400Y2895600D01*
Y2723300D01*
X5099960Y2722510D01*
G03X5113130Y2647450I5451J-37729D01*
G02X5128360Y2636030I2572J-12436D01*
G03X5162740Y2601110I38000J3029D01*
G02X5174170Y2589790I-1201J-12644D01*
G03X5176850Y2579190I37912J3947D01*
G02X5165110Y2561640I-11739J-4849D01*
G01X5024500D01*
G37*
G36*
G01X5298720Y2730500D02*
X5146040D01*
X5128260Y2748280D01*
Y2887980D01*
X5135880Y2895600D01*
X5187140D01*
Y2802880D01*
X5298720D01*
Y2730500D01*
G37*
G36*
G01X5529140Y2611220D02*
Y2636080D01*
X5473720Y2691500D01*
G02X5482700Y2713180I8980J8980D01*
G01X5529960D01*
Y2724180D01*
X5551640D01*
Y2707510D01*
X5551030Y2706210D01*
G03X5562740Y2659250I34432J-16354D01*
G01Y2611220D01*
X5529140D01*
G37*
G36*
G01X5885560Y1811400D02*
X5865240D01*
Y1788860D01*
X5851780D01*
Y1868540D01*
X5766180D01*
Y1845960D01*
X5745480D01*
Y1887220D01*
X5758320Y1900060D01*
X5885320D01*
G03X5885560Y1898310I43030J5010D01*
G01Y1811400D01*
G37*
G36*
G01X5769140Y2631540D02*
Y2714410D01*
X5776370Y2721640D01*
X5816220D01*
Y2724180D01*
X5830790D01*
Y2717000D01*
X5830570Y2716190D01*
G03X5834160Y2687680I36828J-9844D01*
G01X5836510Y2683490D01*
X5803700Y2650670D01*
Y2631540D01*
X5769140D01*
G37*
G36*
G01X6065140Y1806320D02*
Y1886000D01*
X5971160D01*
Y1899120D01*
X5971210Y1899520D01*
G03X5914290Y1945850I-42852J5483D01*
G01X5913290Y1945500D01*
X5895220D01*
Y1965700D01*
X6050430D01*
X6062320Y1953820D01*
X6060720Y1949910D01*
G03X6123060Y1962330I35282J-14430D01*
G01X6121220Y1964180D01*
Y1966250D01*
X6071330Y2016140D01*
X5895220D01*
Y2032120D01*
X5976720D01*
Y2043860D01*
G02X5998280Y2052950I12699J-5D01*
G03X6057970Y2099190I26604J27304D01*
G02X6068990Y2118200I11020J6311D01*
G01X6076030D01*
X6086380Y2128550D01*
G02X6097220Y2124060I4490J-4490D01*
G01Y2116200D01*
X6119800D01*
Y2102740D01*
X6097220D01*
Y2017140D01*
X6287820D01*
Y2027220D01*
X6299420D01*
X6301160Y2025480D01*
X6335140D01*
Y2012900D01*
X6345220D01*
Y1934650D01*
X6349610Y1930260D01*
G02X6340630Y1908580I-8982J-8980D01*
G01X6272240D01*
Y1893500D01*
X6174090D01*
X6166590Y1886000D01*
X6114160D01*
Y1806320D01*
X6065140D01*
G37*
G36*
G01X5901000Y2601140D02*
X5910980D01*
G03X5940740Y2607860I-5J69280D01*
G01X5944790Y2609790D01*
X5977580Y2577000D01*
X5977200Y2573920D01*
G03X5976800Y2567430I52754J-6509D01*
G01Y2543140D01*
G02X5970240Y2529720I-17007J0D01*
G01X5895220D01*
Y2598180D01*
X5896680Y2599640D01*
G02X5900290Y2601130I3610J-3628D01*
G03X5901000Y2601140I0J25230D01*
G37*
G36*
G01X6026580Y2486140D02*
G02X6016000Y2505860I2J12699D01*
G03X6027240Y2543140I-56204J37280D01*
G01Y2545770D01*
X6084200Y2602740D01*
X6078140Y2608800D01*
X6092470Y2623140D01*
X6107940Y2607680D01*
X6226440Y2726180D01*
X6220030Y2732600D01*
X6267650Y2780220D01*
X6370300D01*
Y2789300D01*
X6388120D01*
Y2780220D01*
X6555720D01*
Y2791040D01*
X6586600D01*
Y2683460D01*
X6592480D01*
Y2656460D01*
X6584900D01*
Y2651380D01*
X6562140D01*
Y2656460D01*
X6482460D01*
Y2676780D01*
X6351220D01*
Y2550540D01*
X6482460D01*
Y2570860D01*
X6562140D01*
Y2575940D01*
X6584900D01*
Y2570860D01*
X6775500D01*
Y2571650D01*
X6783330Y2574900D01*
X6810670Y2547560D01*
X6783250Y2520140D01*
X6779790Y2520990D01*
G03X6778130Y2521350I-7763J-31788D01*
G01X6772960Y2522330D01*
Y2532000D01*
X6582360D01*
Y2526920D01*
X6522340D01*
X6521540Y2526120D01*
X6509640D01*
Y2533700D01*
X6424040D01*
Y2519380D01*
X6391960D01*
Y2529460D01*
X6201360D01*
Y2519380D01*
X6173280D01*
Y2524740D01*
X6079680D01*
Y2508930D01*
X6074060Y2508280D01*
G03X6039870Y2491770I6571J-57264D01*
G01X6036340Y2488250D01*
G02X6031250Y2486140I-5090J5084D01*
G01X6026580D01*
G37*
G36*
G01X6710380Y1717060D02*
Y1785110D01*
X6731020Y1805750D01*
Y1902460D01*
X6765710D01*
X6768870Y1894820D01*
X6895820D01*
Y1820800D01*
X6795720D01*
Y1717060D01*
X6710380D01*
G37*
G36*
G01X7001260Y2704660D02*
Y2728030D01*
X7001480Y2728840D01*
G03X6993020Y2760480I-31599J8502D01*
G01X6989670Y2763820D01*
G02X6998650Y2785500I8982J8980D01*
G01X7009540D01*
Y2877340D01*
X7172020D01*
Y2882380D01*
X7218980D01*
Y2858580D01*
X7211080D01*
Y2844500D01*
X7161950D01*
X7091980Y2774530D01*
Y2737340D01*
G03X7099380Y2716610I32722J-5D01*
G01X7100820Y2714860D01*
Y2704660D01*
X7001260D01*
G37*
G36*
G01X7299170Y2432220D02*
X7281810Y2449580D01*
X7276660D01*
Y2499140D01*
X7287550D01*
X7290210Y2501800D01*
X7381450D01*
X7403960Y2524310D01*
G02X7425640Y2515330I8980J-8982D01*
G01Y2444800D01*
X7328280D01*
Y2432220D01*
X7299170D01*
G37*
G36*
G01X7157420Y2737340D02*
Y2747430D01*
X7189050Y2779060D01*
X7211080D01*
Y2764980D01*
X7363760D01*
Y2743180D01*
X7349680D01*
Y2567240D01*
X7287260D01*
G03X7283700Y2567050I-39J-32722D01*
G01X7283360Y2567010D01*
X7276660D01*
Y2624980D01*
X7179160D01*
Y2627480D01*
X7156340D01*
Y2704660D01*
X7151260D01*
Y2718140D01*
X7152260Y2719710D01*
G03X7157420Y2737340I-27558J17636D01*
G37*
G36*
G01X7284420Y2858580D02*
Y2882380D01*
X7319500D01*
Y3012980D01*
X7305060D01*
Y3042380D01*
X7319500D01*
Y3074960D01*
X7356220D01*
Y2988720D01*
X7335900D01*
Y2858580D01*
X7284420D01*
G37*
%LPC*%
G75*
G36*
G01X7891480Y1644430D02*
X7858290Y1611240D01*
X7857910Y1609370D01*
G02X7772410Y1616310I-42333J8612D01*
G03X7759720Y1628520I-12690J-489D01*
G01X7650100D01*
Y1648840D01*
X7570420D01*
Y1652900D01*
X7533180D01*
Y1642820D01*
X7377580D01*
Y1738420D01*
X7533180D01*
Y1728340D01*
X7570420D01*
Y1734440D01*
X7577200D01*
Y1748740D01*
X7572120D01*
Y1842900D01*
X7533180D01*
Y1832820D01*
X7377580D01*
Y1928420D01*
X7533180D01*
Y1918340D01*
X7572120D01*
Y1939340D01*
X7657720D01*
Y1931760D01*
X7676260D01*
Y1939340D01*
X7761860D01*
Y1931760D01*
X7790960D01*
Y1943620D01*
X7926560D01*
Y1813020D01*
X7912120D01*
Y1783620D01*
X7926560D01*
Y1653020D01*
X7891480D01*
Y1644430D01*
G37*
G54D50*
X5140960Y1600200D03*
G54D51*
X8295640Y3063240D03*
Y1742440D03*
G54D49*
X6680200Y2156460D03*
%LPD*%
G75*
G36*
G01X8117740Y1448700D02*
X4897740D01*
Y3348700D01*
X8117740D01*
Y2748700D01*
X8047740D01*
Y3278700D01*
X4967740D01*
Y1518700D01*
X8047740D01*
Y2048700D01*
X8117740D01*
Y1448700D01*
G37*
G54D10*
X4805680Y1379220D03*
X4815840Y1508760D03*
X4818380Y1648460D03*
X4841240Y2100580D03*
Y2301240D03*
X4846320Y2499360D03*
Y2700020D03*
X4856480Y2895600D03*
X4843780Y3086100D03*
X4856480Y3202940D03*
X4787900Y3383280D03*
X4820920Y3309620D03*
X4851400Y3401060D03*
X4917440Y1381760D03*
X4950460Y1480820D03*
X4932680Y1582420D03*
X5096040Y1882140D03*
X4932680Y2095500D03*
X4930140Y2489200D03*
X5105400Y2684780D03*
X4930140Y3246120D03*
X4996180Y3312160D03*
X4950460Y3416300D03*
X5341620Y1397000D03*
X5163820Y1394460D03*
X5247640Y1409700D03*
X5328920Y2011680D03*
X5300980Y1887220D03*
X5293280Y2091700D03*
X5283200Y2286000D03*
X5249780Y2422190D03*
X5273790Y2478230D03*
X5240020Y2334260D03*
X5166360Y2639060D03*
X5288280Y2540000D03*
X5212080Y2593740D03*
X5184620Y2959100D03*
X5437770Y1645550D03*
X5380170Y1948180D03*
X5466080Y1935480D03*
X5506720Y2278380D03*
X5565140Y2209800D03*
X5509260Y2143760D03*
X5511800Y2418080D03*
X5567680Y2352040D03*
X5506720Y2717800D03*
X5486400Y2931160D03*
X5486000Y2992120D03*
X5514340Y3312160D03*
X5643880Y2273300D03*
X5786120Y2268220D03*
X5715000Y2217420D03*
X5781040Y2146300D03*
X5646420Y2138680D03*
Y2415540D03*
X5783580Y2413000D03*
X5717540Y2349500D03*
X5796280Y2682240D03*
X5646300Y2661810D03*
X5585460Y2689860D03*
X5696020Y3036500D03*
X5648960Y3390900D03*
X5628640Y3312160D03*
X5730240D03*
X5717540Y3401060D03*
X5577840Y3403600D03*
X5928360Y1658620D03*
X5808980Y1651000D03*
X6017260Y1932940D03*
X5930900Y2567940D03*
X5867400Y2706340D03*
X5930900Y3124200D03*
X5983280Y3074790D03*
X5897880Y3032760D03*
X5966460Y3309620D03*
X6245570Y1795780D03*
X6022340Y1661160D03*
X6192520Y1943100D03*
X6096000Y1935480D03*
X6042660Y2202180D03*
X6024880Y2080260D03*
X6040120Y2334260D03*
X6243320Y2308860D03*
X6126480Y2321560D03*
X6217920Y2575560D03*
X6154420Y2603500D03*
X6205220Y2651760D03*
X6092560Y2558490D03*
X6045200Y2921000D03*
X6032500Y3119120D03*
X6037580Y3025140D03*
X6245860Y3014980D03*
X6230620Y3116580D03*
X6065520Y3312160D03*
X6156960D03*
X6052820Y3418840D03*
X6164580Y3416300D03*
X6454140Y1793240D03*
X6271260Y1943100D03*
X6466840Y2298700D03*
X6344920Y2303780D03*
X6272020Y2633840D03*
X6416040Y2684780D03*
X6256580Y2701400D03*
X6332220Y2674620D03*
X6311900Y2740660D03*
X6464300Y2743200D03*
X6388100D03*
X6293510Y3062420D03*
X6337300Y3116580D03*
Y3014980D03*
X6258560Y3314700D03*
X6367780D03*
X6306820Y3411220D03*
X6438900Y3456940D03*
X6609080Y2324100D03*
X6654800Y2395220D03*
X6576060D03*
X6520850Y2691210D03*
X6550660Y2745740D03*
X6512560Y2921000D03*
X6586220Y2923540D03*
X6690360Y3101340D03*
X6553200Y2989580D03*
X6487160Y3314700D03*
X6611620D03*
X6670040Y3385820D03*
X6545580Y3418840D03*
X6621780Y3467100D03*
X6861340Y1589240D03*
X6733540Y1963420D03*
X6883400Y2113280D03*
X6880860Y2286000D03*
X6896100Y2219960D03*
X6708140Y2313940D03*
X6809740Y2430780D03*
X6736080Y2395220D03*
X6865620Y2359800D03*
X6847840Y2659380D03*
X6705600Y2722880D03*
X6708140Y2804160D03*
Y2872740D03*
X6738620Y3314700D03*
X6865620Y3309620D03*
X6858000Y3393440D03*
X6888480Y3446780D03*
X6746240Y3444240D03*
X6972300Y1360680D03*
X7119620D03*
X7073900Y1478280D03*
X7145020Y1973580D03*
X6929120Y2057400D03*
X7086600Y2032000D03*
X6974840Y2120900D03*
X7086600D03*
X7101840Y2453640D03*
X7015480Y2456180D03*
X7099300Y2540000D03*
X7012940Y2542540D03*
X7043420Y2773680D03*
X7071360Y2844800D03*
X6977380Y3312160D03*
X7071360Y3309620D03*
X7025640Y3401060D03*
X6990080Y3459480D03*
X7254240Y1360680D03*
X7289800Y1475740D03*
X7178040Y1478280D03*
X7297420Y1788160D03*
Y1686560D03*
X7188200Y2039620D03*
X7284720Y1991360D03*
X7353300Y2049780D03*
X7297420Y1882140D03*
X7335520Y2123440D03*
X7221220Y2286000D03*
X7178040Y2113280D03*
X7259320Y2098040D03*
X7272020Y2179320D03*
X7264400Y2344420D03*
X7195820Y2367280D03*
X7244080Y2659380D03*
X7310120Y2641600D03*
X7302500Y2710180D03*
X7216140Y2712720D03*
X7188200Y3312160D03*
X7307580Y3418840D03*
X7165340Y3421380D03*
X7566660Y1360680D03*
X7406640D03*
X7510780Y1785620D03*
X7426960Y1790700D03*
X7536180Y2004060D03*
X7447280Y1998980D03*
X7437120Y2090420D03*
X7533640Y2077720D03*
X7467600Y2237740D03*
X7553960Y2232660D03*
X7500620Y2166620D03*
X7388860Y2171700D03*
X7459980Y2308860D03*
X7523480D03*
X7584440Y2311400D03*
X7388860Y2479040D03*
X7500620Y2816860D03*
X7490460Y3317240D03*
X7584440Y3314700D03*
Y3421380D03*
X7444740D03*
X7726680Y1360680D03*
X7795260Y1478280D03*
X7660640Y1475740D03*
X7787640Y2011680D03*
X7614920Y2075180D03*
X7622540Y1996440D03*
X7713980Y1988820D03*
X7802880Y2143760D03*
X7797800Y2222500D03*
X7708900Y2080260D03*
X7713980Y2166620D03*
X7617460Y2164080D03*
X7820660Y2311400D03*
Y2494280D03*
X7752080Y2311400D03*
X7739380Y2496820D03*
X7825740Y2573020D03*
X7802880Y2649220D03*
X7818120Y2740660D03*
X7665720Y2750820D03*
X7734300Y2712720D03*
X7675880Y2646680D03*
X7609840Y2710180D03*
X7617460Y2593340D03*
X7731760Y2588260D03*
X7673340Y2529840D03*
X7823200Y2938780D03*
X7703820Y2814320D03*
X7612380Y2811780D03*
X7820660Y3017520D03*
Y3103880D03*
X7680960Y3312160D03*
X7790180D03*
X7726680Y3421380D03*
X7813040Y3213100D03*
X7815580Y3456940D03*
X7866380Y1360680D03*
X7950200Y1579880D03*
X8034020Y1475740D03*
X7909560Y1480820D03*
X7988300Y1673860D03*
X7995920Y1816100D03*
X7881620Y1991360D03*
X7833360Y2075180D03*
X7993380Y2059940D03*
X7924800Y2057400D03*
X7993380Y1950720D03*
X7881620Y2202180D03*
X8011160Y2143760D03*
X7924800Y2138680D03*
X7965440Y2217420D03*
X8044180D03*
X7881620Y2308860D03*
X7894320Y2496820D03*
X7978140Y2733040D03*
X7899400Y2583180D03*
X7995920Y2654300D03*
X7962900Y2583180D03*
X8049260D03*
X7904480Y2664460D03*
X7833360Y2839720D03*
X7993380Y2956560D03*
X7909560Y2936240D03*
X7970520Y2844800D03*
X7904480Y2768600D03*
X7980680Y3114040D03*
X7882820Y3154020D03*
X7927340Y3027680D03*
X7894320Y3314700D03*
X8003540Y3312160D03*
X7904480Y3408680D03*
X7965440Y3218180D03*
X7995920Y3451860D03*
X8072120Y1363980D03*
X8194040Y1397000D03*
X8186420Y1490980D03*
X8087360Y1546860D03*
X8267700Y1600200D03*
Y1488440D03*
X8183880Y1574800D03*
X8084820Y1648460D03*
X8181340Y2011680D03*
X8084820Y1996440D03*
Y1912620D03*
X8183880Y1892300D03*
X8229600Y1958340D03*
X8206740Y2082800D03*
X8094980Y2159000D03*
X8244840Y2151380D03*
X8122920Y2219960D03*
X8163560Y2491740D03*
X8158480Y2311400D03*
X8171180Y2707640D03*
X8249920Y2651760D03*
Y2743200D03*
X8092440Y2659380D03*
X8135620Y2580640D03*
X8168640Y2948940D03*
X8084820Y2895600D03*
X8082280Y2786380D03*
X8204200Y2857500D03*
X8087360Y3152140D03*
X8173720Y3284220D03*
X8087360Y3248660D03*
X8183880Y3365500D03*
X8262620Y3302000D03*
X8214360Y3225800D03*
X8168640Y3451860D03*
X8082280Y3439160D03*
X8249920D03*
X8379460Y1363980D03*
X8303260Y1348740D03*
X8288020Y1412240D03*
X8348980Y1516380D03*
X8369300Y1452880D03*
X8346440Y1590040D03*
X8407400Y1907540D03*
X8293100Y2044700D03*
X8321040Y1917700D03*
X8389620Y2001520D03*
X8337100Y2151380D03*
Y2649220D03*
Y2738120D03*
X8328660Y2890520D03*
X8374380Y2801620D03*
X8415020Y2875280D03*
X8290560Y2832100D03*
X8298180Y3190240D03*
X8333740Y3362960D03*
X8417560Y3324860D03*
X8343900Y3258820D03*
X8409940Y3228340D03*
X8389620Y3456940D03*
G54D20*
X5356420Y2060920D03*
Y2100920D03*
Y2140920D03*
Y2180920D03*
Y2220920D03*
Y2260920D03*
Y2300920D03*
Y2340920D03*
Y2380920D03*
Y2420920D03*
Y2460920D03*
Y2500920D03*
X5936420Y2060920D03*
Y2260920D03*
Y2220920D03*
Y2180920D03*
Y2140920D03*
Y2100920D03*
Y2500920D03*
Y2460920D03*
Y2420920D03*
Y2380920D03*
Y2340920D03*
Y2300920D03*
G54D11*
X4747740Y1798700D03*
Y1998700D03*
Y2198700D03*
Y2398700D03*
Y2598700D03*
Y2998700D03*
Y2798700D03*
X5047740Y1298700D03*
Y3498700D03*
X5247740Y1298700D03*
Y3498700D03*
X5447740Y1298700D03*
Y3498700D03*
X5647740Y1298700D03*
Y3498700D03*
X5847740Y1298700D03*
Y3498700D03*
X8447740Y2198700D03*
Y2598700D03*
G54D12*
X5095240Y1710220D03*
Y1810220D03*
X5087620Y2496020D03*
Y2396020D03*
X5184140Y2496020D03*
Y2396020D03*
X5422900Y1823240D03*
Y1723240D03*
X5574360Y2769480D03*
Y2869480D03*
X5420360Y2990380D03*
Y3090380D03*
X5773420Y2866940D03*
Y2766940D03*
X5676900Y2866940D03*
Y2766940D03*
X5808980Y1723240D03*
Y1823240D03*
X5928360Y1845780D03*
Y1745780D03*
X6022340Y1840700D03*
Y1740700D03*
X5966460Y2922740D03*
Y2822740D03*
X5867400Y2769480D03*
Y2869480D03*
X5803500Y3090380D03*
Y2990380D03*
X6156960Y1840700D03*
Y1740700D03*
X6126480Y2937040D03*
Y3037040D03*
X6377940Y2058200D03*
Y2158200D03*
X6466840Y2388400D03*
Y2488400D03*
X6438900Y2937040D03*
Y3037040D03*
X6545740Y1752180D03*
Y1852180D03*
X6629400Y2728760D03*
Y2828760D03*
X6799580Y2749080D03*
Y2849080D03*
X6958940Y1862620D03*
Y1962620D03*
X7371080Y2299500D03*
Y2399500D03*
X7503160Y2709380D03*
Y2609380D03*
X7498080Y2921800D03*
X7597140Y2916720D03*
X7399020Y2923100D03*
X7498080Y3021800D03*
X7597140Y3016720D03*
X7399020Y3023100D03*
X7614920Y1794040D03*
X7719060D03*
X7614920Y1894040D03*
X7719060D03*
X7670800Y2302040D03*
Y2402040D03*
G54D30*
X6680200Y2156460D03*
G54D21*
X5646420Y2280920D03*
G54D22*
X5546020Y2990500D03*
Y3105500D03*
X5696020Y2990500D03*
Y3105500D03*
G54D31*
X6901040Y2424360D03*
Y2474360D03*
Y2524360D03*
Y2574360D03*
X7201040Y2474360D03*
Y2424360D03*
Y2574360D03*
Y2524360D03*
G54D40*
X7978860Y2491740D03*
X8068860D03*
G54D13*
X4935220Y1717040D03*
Y3101340D03*
X8082280Y1790700D03*
X8084820Y3017520D03*
G54D14*
X5096040Y1940560D03*
X5305260Y1823720D03*
X5205260D03*
Y1724660D03*
X5305260D03*
X5196040Y1940560D03*
X5464340Y2776300D03*
X5364340D03*
X5464340Y2870280D03*
X5364340D03*
X6242520Y2059940D03*
X6142520D03*
X6242520Y2159000D03*
X6142520D03*
X6246660Y2387600D03*
Y2486660D03*
X6233960Y2936240D03*
X6402540Y1610360D03*
X6302540D03*
X6346660Y2387600D03*
Y2486660D03*
X6416840Y2613660D03*
X6333960Y2936240D03*
X6627660Y2489200D03*
X6630200Y2613660D03*
X6516840D03*
X6698780Y2974340D03*
X6861340Y1757680D03*
Y1658620D03*
X6727660Y2489200D03*
X6730200Y2613660D03*
X6798780Y2974340D03*
X6961340Y1757680D03*
Y1658620D03*
X7149300Y2204720D03*
X7049300D03*
X7470940Y2494280D03*
X7570940D03*
X7715720Y1691640D03*
X7615720D03*
X7968780Y2298700D03*
X7967940Y2400300D03*
X8245640Y1742440D03*
X8068780Y2298700D03*
X8255800Y2397760D03*
X8067940Y2400300D03*
X8245640Y3063240D03*
X8345640Y1742440D03*
X8355800Y2397760D03*
X8345640Y3063240D03*
G54D23*
X6027620Y2745940D03*
X6098340Y2816660D03*
G54D32*
X6936740Y2973300D03*
Y2843300D03*
G54D41*
X8336280Y2262760D03*
Y2532760D03*
G54D42*
X8201280Y2397760D03*
G54D24*
X6021910Y2598850D03*
X5961810Y2658950D03*
G54D15*
X5151120Y2053600D03*
Y2213600D03*
G54D33*
X6930620Y3116580D03*
X6800620D03*
G54D25*
X6126480Y2398440D03*
Y2483440D03*
X7396480Y2616880D03*
Y2701880D03*
G54D43*
X8447740Y2398700D03*
G54D16*
X5140960Y1600200D03*
X5304630Y1653860D03*
X5250180Y2142040D03*
X5262880Y2763520D03*
X5928360Y1905000D03*
X6242520Y2226780D03*
X6142520Y2225840D03*
X6545740Y1663700D03*
X6758940Y1760940D03*
X6761480Y1861820D03*
X7815580Y1617980D03*
X7698740Y3111500D03*
G54D34*
X7147080Y1690620D03*
Y1785620D03*
Y1880620D03*
X7455380Y1690620D03*
Y1880620D03*
G54D44*
G01X5105400Y2684780D02*
X5448310D01*
X5506420Y2626670D01*
Y2570920D01*
G01X5305260Y1823720D02*
Y1882940D01*
X5300980Y1887220D01*
G01X5196040Y1940560D02*
Y2008680D01*
X5151120Y2053600D01*
G01D02*
X5255180D01*
X5293280Y2091700D01*
G01X5356420Y2060920D02*
X5356860Y2060480D01*
Y2042160D01*
X5328920Y2014220D01*
Y2011680D01*
G01X5300980Y1887220D02*
X5514340D01*
X5546420Y1919300D01*
Y1990920D01*
G01X5356420Y2140920D02*
X5255560D01*
X5254440Y2142040D01*
X5250180D01*
G01X5356420Y2100920D02*
X5302500D01*
X5293280Y2091700D01*
G01X5283200Y2286000D02*
Y2303700D01*
X5320420Y2340920D01*
X5356420D01*
G01X5151120Y2213600D02*
X5258900D01*
X5291580Y2180920D01*
X5356420D01*
G01X5249780Y2422190D02*
Y2420920D01*
G01D02*
X5221740D01*
X5213820Y2413000D01*
G01X5356420Y2420920D02*
X5249780D01*
G01X5288280Y2540000D02*
X5327360Y2500920D01*
X5356420D01*
G01X5273790Y2478230D02*
X5273740D01*
Y2478110D01*
X5273590D01*
Y2477760D01*
X5273400D01*
Y2477310D01*
X5273040D01*
Y2476500D01*
X5288620Y2460920D01*
X5356420D01*
G01X5240020Y2334260D02*
Y2344420D01*
X5276520Y2380920D01*
X5356420D01*
G01X5166360Y2639060D02*
X5427540D01*
X5466420Y2600180D01*
Y2570920D01*
G01X5212080Y2593740D02*
X5403600D01*
X5426420Y2570920D01*
G01X5586420Y1990920D02*
Y1883100D01*
X5545860Y1842540D01*
Y1773240D01*
G01X5422900Y1823240D02*
X5495860D01*
X5545860Y1773240D01*
G01X5426420Y1990920D02*
Y1972020D01*
X5402580Y1948180D01*
X5380170D01*
G01X5466080Y1935480D02*
Y1990580D01*
X5466420Y1990920D01*
G01X5356420Y2220920D02*
X5586420D01*
X5646420Y2280920D01*
G01X5464340Y2776300D02*
Y2750020D01*
X5496560Y2717800D01*
X5506720D01*
G01X5486000Y2992120D02*
X5487620Y2990500D01*
X5546020D01*
G01X5420360Y2990380D02*
X5422100Y2992120D01*
X5486000D01*
G01X5676900Y2866940D02*
Y2869440D01*
X5618480Y2927860D01*
Y3086100D01*
X5599080Y3105500D01*
X5546020D01*
G01D02*
X5435480D01*
X5420360Y3090380D01*
G01X5626420Y1990920D02*
Y1886900D01*
X5675860Y1837460D01*
Y1773240D01*
G01X5808980Y1823240D02*
X5725860D01*
X5675860Y1773240D01*
G01X5706420Y1990920D02*
Y1931980D01*
X5697220Y1922780D01*
G01D02*
X5666420Y1953580D01*
Y1990920D01*
G01X5697220Y1922780D02*
X5910580D01*
X5928360Y1905000D01*
G01X5796280Y2682240D02*
X5786420Y2672380D01*
G01X5646300Y2661810D02*
X5626420Y2641930D01*
Y2570920D01*
G01X5773420Y2766940D02*
Y2750820D01*
X5746420Y2723820D01*
Y2570920D01*
G01X5676900Y2766940D02*
Y2714120D01*
X5694680Y2696340D01*
Y2636520D01*
X5666420Y2608260D01*
Y2570920D01*
G01X5586420D02*
Y2623740D01*
X5585460Y2624700D01*
Y2689860D01*
G01D02*
X5574360Y2700960D01*
Y2769480D01*
G01X5773420Y2771940D02*
Y2766940D01*
G01X5676900Y2771940D02*
Y2766940D01*
G01X5574360Y2774480D02*
Y2769480D01*
G01X5773420Y2866940D02*
Y2923540D01*
X5803500Y2953620D01*
Y2990380D01*
G01X5696020Y2990500D02*
Y3036500D01*
G01X5803500Y3090380D02*
X5788380Y3105500D01*
X5696020D01*
G01X6022340Y1840700D02*
X5933440D01*
X5928360Y1845780D01*
G01D02*
Y1905000D01*
G01X6142520Y2159000D02*
X6084700D01*
X6066620Y2140920D01*
X5936420D01*
G01Y2180920D02*
X6021400D01*
X6042660Y2202180D01*
G01X5936420Y2100920D02*
X6004220D01*
X6024880Y2080260D01*
G01X5786420Y2672380D02*
Y2570920D01*
G01X5867400Y2706340D02*
Y2682240D01*
X5826420Y2641260D01*
Y2570920D01*
G01X5867400Y2769480D02*
Y2706340D01*
G01Y2870200D02*
X5919940Y2922740D01*
X5966460D01*
G01X5803900Y2989980D02*
X5803500Y2990380D01*
G01X6142520Y2159000D02*
Y2059940D01*
G01Y2159000D02*
Y2225840D01*
G01X6302540Y1723280D02*
Y1610360D01*
G01X6352540Y1723280D02*
Y1795780D01*
G01X6242520Y2159000D02*
Y2226780D01*
G01X6880860Y2286000D02*
X6895440Y2300580D01*
X6953860D01*
X6976040Y2322760D01*
Y2349360D01*
G01X6896100Y2219960D02*
X6931910Y2255770D01*
X6990330D01*
X7026040Y2291480D01*
Y2349360D01*
G01X6865620Y2359800D02*
X6901040Y2395220D01*
Y2424360D01*
G01X7049300Y2204720D02*
X7076040Y2231460D01*
Y2349360D01*
G01X7149300Y2204720D02*
X7126040Y2227980D01*
Y2349360D01*
G01X6976040D02*
Y2359520D01*
G01X7026040Y2349360D02*
Y2359520D01*
G01X7076040Y2349360D02*
Y2359520D01*
G01X7126040Y2349360D02*
Y2359520D01*
G54D26*
X6104050Y2669970D03*
X6164150Y2730070D03*
G54D35*
X7051040Y2499360D03*
G54D17*
X5255260Y2961000D03*
Y2871000D03*
X6642260Y1850940D03*
Y1760940D03*
X7698740Y2921720D03*
Y3011720D03*
G54D45*
G01X5096040Y1882140D02*
Y1811020D01*
X5095240Y1810220D01*
G01Y1710220D02*
X5190820D01*
X5205260Y1724660D01*
G01X5096040Y1940560D02*
Y1882140D01*
G01X5087620Y2396020D02*
X5184140D01*
G01X5305260Y1724660D02*
Y1654490D01*
X5304630Y1653860D01*
G01X5205260Y1823720D02*
Y1724660D01*
G01X5213820Y2413000D02*
X5196840Y2396020D01*
X5184140D01*
G01X5255980Y2870280D02*
X5255260Y2871000D01*
G01X5364340Y2776300D02*
X5255340D01*
G01D02*
X5262880Y2768760D01*
Y2763520D01*
G01X5255260Y2796530D02*
Y2871000D01*
G01X5255340Y2776300D02*
Y2796450D01*
X5255260Y2796530D01*
G01X5437770Y1645550D02*
X5422900Y1660420D01*
Y1723240D01*
G01X5464340Y2870280D02*
Y2909100D01*
X5486400Y2931160D01*
G01X5464340Y2870280D02*
X5573560D01*
X5574360Y2869480D01*
G01X5464340Y2870280D02*
Y2776300D01*
G01X5928360Y1658620D02*
Y1745780D01*
G01X5808980Y1651000D02*
Y1723240D01*
G01X5966460Y2822740D02*
Y2807100D01*
X6027620Y2745940D01*
G01X6022340Y1740700D02*
Y1661160D01*
G01X6402540Y1723280D02*
Y1705190D01*
X6402860Y1704870D01*
Y1637860D01*
X6402540Y1637540D01*
Y1610360D01*
G01X6454140Y1793240D02*
X6355080D01*
X6352540Y1795780D01*
G01X6466840Y2298700D02*
Y2388400D01*
G01D02*
X6569240D01*
G01X6346660Y2387600D02*
Y2305520D01*
G01D02*
X6344920Y2303780D01*
G01X6569240Y2388400D02*
X6576060Y2395220D01*
G01X6861340Y1658620D02*
Y1589240D01*
G54D27*
X6244000Y2827020D03*
X6329000D03*
X6429420D03*
X6514420D03*
X7252380Y2811780D03*
X7337380D03*
X7478440Y2400300D03*
X7563440D03*
X7775620D03*
X7860620D03*
G54D36*
X7126040Y2349360D03*
X7076040D03*
X7026040D03*
X6976040D03*
Y2649360D03*
X7026040D03*
X7076040D03*
X7126040D03*
G54D18*
X5545860Y1773240D03*
X5675860D03*
G54D46*
G01X5184140Y2496020D02*
X5087620D01*
G01D02*
X5018150D01*
G01D02*
X5011330Y2489200D01*
X4930140D01*
G01X5247740Y1310540D02*
Y1409800D01*
G01Y1303120D02*
Y1310540D01*
G01Y1298700D02*
Y1303120D01*
G01D02*
X5341620Y1397000D01*
G01X5247740Y1310540D02*
X5163820Y1394460D01*
G01X5255260Y2871000D02*
X5180790D01*
G01X5255260D02*
X5363620D01*
X5364340Y2870280D01*
G01D02*
Y2776300D01*
G01X5647740Y3498700D02*
Y3473500D01*
X5577840Y3403600D01*
G01X5647740Y3394760D02*
Y3470860D01*
X5717540Y3401060D01*
G01X5961810Y2658950D02*
Y2680130D01*
X6027620Y2745940D01*
G01X6104050Y2669970D02*
X6093030D01*
X6021910Y2598850D01*
G01X6377940Y2058200D02*
X6312080D01*
X6310340Y2059940D01*
X6242520D01*
G01X6246660Y2486660D02*
X6129700D01*
X6126480Y2483440D01*
G01X6246660Y2387600D02*
X6235820Y2398440D01*
X6126480D01*
G01X6244000Y2809920D02*
Y2827020D01*
G01X6545740Y1663700D02*
Y1651160D01*
X6504940Y1610360D01*
X6402540D01*
G01X6377940Y2058200D02*
Y1948200D01*
X6395730Y1930410D01*
G01X6346660Y2486660D02*
X6465100D01*
X6466840Y2488400D01*
G01X6545740Y1852180D02*
X6555740D01*
X6556980Y1850940D01*
X6642260D01*
G01X6545740Y1752180D02*
Y1663700D01*
G01X6642260Y1760940D02*
X6554500D01*
X6545740Y1752180D01*
G01X6643500D02*
X6652260Y1760940D01*
X6758940D01*
G01X6481560Y1852180D02*
X6545740D01*
G01X6642260Y1850940D02*
X6652260D01*
G01X6758940Y1760940D02*
X6765840D01*
G01X6758940D02*
X6762200Y1757680D01*
G01D02*
X6861340D01*
G01X6958940Y1862620D02*
X6848640D01*
G01D02*
X6847840Y1861820D01*
X6761480D01*
G01X6727660Y2489200D02*
X6772030D01*
G01X6780240Y2613660D02*
X6730200D01*
G01X6798780Y2974340D02*
X6935700D01*
X6936740Y2973300D01*
G01X6800620Y3116580D02*
Y2976180D01*
X6798780Y2974340D01*
G01X6799580Y2849080D02*
Y2973540D01*
X6798780Y2974340D01*
G01X6961340Y1757680D02*
Y1658620D01*
G01X7147080Y1690620D02*
X6993340D01*
X6961340Y1658620D01*
G01X7147080Y1880620D02*
X7042260D01*
X7024260Y1862620D01*
X6958940D01*
G01X7124700Y2737340D02*
Y2760980D01*
X7175500Y2811780D01*
X7252380D01*
G01X6969880Y2737340D02*
X6936740Y2770480D01*
Y2843300D01*
G01X7251700Y2947680D02*
X7106760D01*
X7094220Y2935140D01*
G01X6930620Y3116580D02*
X7092780D01*
X7094220Y3115140D01*
G01X7251700Y3107680D02*
X7101680D01*
X7094220Y3115140D01*
G01X7371080Y2399500D02*
X7296220D01*
G01X7287260Y2534520D02*
X7367900D01*
X7396480Y2563100D01*
Y2616880D01*
G01X7251700Y2947680D02*
Y2812460D01*
X7252380Y2811780D01*
G01X7396480Y2701880D02*
Y2778760D01*
X7363460Y2811780D01*
X7337380D01*
G01X7399020Y3023100D02*
Y3083040D01*
X7374380Y3107680D01*
X7251700D01*
G01X7670800Y2402040D02*
X7565180D01*
G01X7396480Y2701880D02*
X7495660D01*
X7503160Y2709380D01*
G01X7597140Y3016720D02*
X7693740D01*
X7698740Y3011720D01*
G01X7498080Y3021800D02*
X7592060D01*
X7597140Y3016720D01*
G01X7599680Y3023100D02*
X7499380D01*
X7498080Y3021800D01*
G01D02*
X7400320D01*
X7399020Y3023100D01*
G01X7815580Y1617980D02*
X7818760D01*
X7858760Y1657980D01*
Y1718320D01*
G01X7715720Y1691640D02*
X7719060Y1694980D01*
Y1794040D01*
G01X7698740Y3111500D02*
Y3011720D01*
G01X8067940Y2400300D02*
Y2299540D01*
X8068780Y2298700D01*
G01X8255800Y2397760D02*
X8201280D01*
G01X8067940Y2400300D02*
Y2490820D01*
X8068860Y2491740D01*
G01X8336280Y2262760D02*
X8383680D01*
X8447740Y2198700D01*
G01D02*
X8384420D01*
X8337100Y2151380D01*
G01X8336280Y2532760D02*
X8381800D01*
X8447740Y2598700D01*
G01X8355800Y2397760D02*
X8446800D01*
X8447740Y2398700D01*
G01Y2598700D02*
X8387620D01*
X8337100Y2649220D01*
G54D28*
X6302540Y1723280D03*
X6352540D03*
X6402540D03*
Y1868280D03*
X6352540D03*
X6302540D03*
G54D19*
X5546420Y1990920D03*
X5506420D03*
X5466420D03*
X5426420D03*
Y2570920D03*
X5466420D03*
X5506420D03*
X5546420D03*
X5786420Y1990920D03*
X5746420D03*
X5706420D03*
X5666420D03*
X5626420D03*
X5586420D03*
Y2570920D03*
X5626420D03*
X5666420D03*
X5706420D03*
X5746420D03*
X5786420D03*
X5866420Y1990920D03*
X5826420D03*
Y2570920D03*
X5866420D03*
G54D37*
X7094220Y2935140D03*
Y3115140D03*
G54D47*
G01X6164150Y2730070D02*
X6244000Y2809920D01*
G01X6126480Y2937040D02*
X6233160D01*
X6233960Y2936240D01*
G01X6244000Y2827020D02*
Y2926200D01*
X6233960Y2936240D01*
G01X6627660Y2489200D02*
X6537960D01*
X6537160Y2488400D01*
X6466840D01*
G01X6429420Y2827020D02*
X6329000D01*
G01X6438900Y2937040D02*
X6334760D01*
X6333960Y2936240D01*
G01X6329000Y2827020D02*
Y2931280D01*
X6333960Y2936240D01*
G01X6516840Y2613660D02*
X6630200D01*
G01D02*
Y2727960D01*
X6629400Y2728760D01*
G01Y2828760D02*
X6516160D01*
X6514420Y2827020D01*
G01X7478440Y2400300D02*
X7371880D01*
X7371080Y2399500D01*
G01X7455380Y1690620D02*
X7614700D01*
X7615720Y1691640D01*
G01X7614920Y1794040D02*
Y1692440D01*
X7615720Y1691640D01*
G01X7455380Y1880620D02*
X7601500D01*
X7614920Y1894040D01*
G01X7470940Y2494280D02*
Y2407800D01*
X7478440Y2400300D01*
G01X7565180Y2402040D02*
X7563440Y2400300D01*
G01X7570940Y2494280D02*
Y2407800D01*
X7565180Y2402040D01*
G01X7719060Y1894040D02*
X7843040D01*
X7858760Y1878320D01*
G01X7614920Y1894040D02*
X7719060D01*
G01X7775620Y2400300D02*
X7672540D01*
X7670800Y2402040D01*
G01X7967940Y2400300D02*
X7860620D01*
G01X8067940D02*
X8198740D01*
X8201280Y2397760D01*
G54D38*
X7251700Y2947680D03*
Y3107680D03*
X7858760Y1878320D03*
Y1718320D03*
G54D29*
X6352540Y1795780D03*
G54D48*
G01X5025770Y1810220D02*
X5095240D01*
G01X5024070Y1940560D02*
X5096040D01*
G01X5087620Y2496020D02*
Y2567990D01*
G01X5118710D02*
X5184140Y2496020D01*
G01X5292370Y2743580D02*
X5364340Y2776300D01*
G01X5255260Y2961000D02*
Y3035470D01*
G01X5180790Y2961000D02*
X5255260D01*
G01D02*
X5329730D01*
G01X5180790Y2796530D02*
X5255260Y2871000D01*
G01X5357470Y1651270D02*
X5422900Y1723240D01*
G01X5464340Y2776300D02*
X5536310Y2710870D01*
G01X5350890Y2990380D02*
X5420360D01*
G01X5743550Y1651270D02*
X5808980Y1723240D01*
G01X5646420Y2280920D02*
X5900890Y2535390D01*
G01X5956910Y1668730D02*
X6022340Y1740700D01*
G01X5862930Y1817750D02*
X5928360Y1745780D01*
G01X6096000Y1935480D02*
Y1955800D01*
X6060880Y1990920D01*
X5866420D01*
G01X6021910Y2598850D02*
X6010200Y2587140D01*
G03X6002020Y2567390I19752J-19750D01*
G01Y2543140D01*
G02X5959800Y2500920I-42220J0D01*
G01X5936420D01*
G01X6126480Y2483440D02*
X6080630D01*
G03X6057700Y2473940I0J-32423D01*
G01X6054180Y2470420D01*
G02X6031250Y2460920I-22930J22923D01*
G01X5936420D01*
G01X6126480Y2398440D02*
X6074840D01*
G02X6051960Y2407920I0J32350D01*
G01X6048440Y2411440D01*
G03X6025560Y2420920I-22880J-22870D01*
G01X5936420D01*
G01X5961810Y2658950D02*
X5942130Y2639270D01*
G02X5910970Y2626360I-31160J31149D01*
G01X5900290D01*
G03X5878830Y2617470I0J-30347D01*
G01X5875310Y2613950D01*
G03X5866420Y2592490I21457J-21460D01*
G01Y2570920D01*
G01X5867400Y2941450D02*
Y2870200D01*
G01X5966460Y2922740D02*
Y2994710D01*
G01Y2922740D02*
X6035930D01*
G01X5867400Y2869480D02*
X5900120Y2941450D01*
G01X6156960Y1668730D02*
Y1740700D01*
G01D02*
X6226430D01*
G01X6302540Y1868280D02*
X6184540D01*
X6156960Y1840700D01*
G01X6242520Y2159000D02*
X6314490Y2224430D01*
G01X6049220Y2865780D02*
X6098340Y2816660D01*
G01X6126480Y3037040D02*
Y3109010D01*
G01X6057010Y3037040D02*
X6126480D01*
G01D02*
X6195950D01*
G01X6245570Y1795780D02*
X6352540D01*
G01X6245570Y1795490D02*
Y1795780D01*
G01X6352540D02*
X6459510D01*
G01X6395730Y1930410D02*
X6402540Y1923600D01*
Y1868280D01*
G01X6377940Y2158200D02*
Y2230170D01*
G01Y2158200D02*
X6447410D01*
G01X6401410Y2316430D02*
X6466840Y2388400D01*
G01X6274690Y2322170D02*
X6346660Y2387600D01*
G01X6416840Y2544190D02*
Y2613660D01*
G01D02*
Y2683130D01*
G01X6344870Y2613660D02*
X6416840D01*
G01X6438900Y3037040D02*
Y3109010D01*
G01X6369430Y3037040D02*
X6438900D01*
G01D02*
X6508370D01*
G01X6680200Y2061990D02*
Y2156460D01*
G01X6642260Y1850940D02*
Y1925410D01*
G01X6545740Y1852180D02*
Y1924150D01*
G01X6680200Y2156460D02*
Y2250930D01*
G01X6585730Y2156460D02*
X6680200D01*
G01D02*
X6774670D01*
G01X6626810Y2974340D02*
X6698780D01*
G01X6891490Y1826640D02*
X6958940Y1862620D01*
G01X6861340Y1757680D02*
Y1827150D01*
G01X6889470Y1962620D02*
X6958940D01*
G01X6772030Y2489200D02*
X6787980D01*
X6823140Y2524360D01*
X6901040D01*
G01X6799580Y2677110D02*
Y2749080D01*
G01X6901040Y2574360D02*
X6819540D01*
X6780240Y2613660D01*
G01X6730110Y2749080D02*
X6799580D01*
G01D02*
X6869050D01*
G01X6698780Y2904870D02*
Y2974340D01*
G01D02*
Y3043810D01*
G01X6958940Y1962620D02*
Y2034590D01*
G01Y1962620D02*
X7028410D01*
G01X7126040Y2649360D02*
Y2736000D01*
X7124700Y2737340D01*
G01X6976040Y2649360D02*
Y2731180D01*
X6969880Y2737340D01*
G01X7147080Y1785620D02*
X7251550D01*
G01X7201040Y2474360D02*
X7384180D01*
G01X7201040D02*
X7283010Y2460700D01*
G01X7301610Y2299500D02*
X7371080D01*
G01X7296220Y2399500D02*
X7271360Y2424360D01*
X7201040D01*
G01Y2524360D02*
X7277100D01*
X7287260Y2534520D01*
G01X7201040Y2574360D02*
Y2631330D01*
G01X7329550Y2923100D02*
X7399020D01*
G01X7371080Y2227530D02*
Y2299500D01*
G01X7384180Y2474360D02*
X7388860Y2479040D01*
G01X7371080Y2299500D02*
X7440550D01*
G01X7503160Y2609380D02*
X7572630D01*
G01X7498080Y2849830D02*
Y2921800D01*
G01X7399020Y2851130D02*
Y2923100D01*
G01X7715720Y1622170D02*
Y1691640D01*
G01X7670800Y2230070D02*
Y2302040D01*
G01X7601330D02*
X7670800D01*
G01D02*
X7740270D01*
G01X7698740Y2847250D02*
Y2921720D01*
G01D02*
X7773210D01*
G01X7597140Y2844750D02*
Y2916720D01*
G01X7968780Y2229230D02*
Y2298700D01*
G01X7978860Y2491740D02*
Y2566210D01*
G01X7904390Y2491740D02*
X7978860D01*
G01X7896810Y2298700D02*
X7968780D01*
G01X8245640Y1672970D02*
Y1742440D01*
G01D02*
Y1811910D01*
G01X8173670Y1742440D02*
X8245640D01*
G01X8191810Y2262760D02*
X8336280D01*
G01X8191810Y2532760D02*
X8336280D01*
G01X8245640Y2993770D02*
Y3063240D01*
G01D02*
Y3132710D01*
G01X8173670Y3063240D02*
X8245640D01*
G01X8345640Y1672970D02*
Y1742440D01*
G01D02*
Y1811910D01*
G01Y1742440D02*
X8417610D01*
G01X8336280Y2188290D02*
Y2262760D01*
G01Y2532760D02*
Y2607230D01*
G01X8345640Y2993770D02*
Y3063240D01*
G01D02*
Y3132710D01*
G01Y3063240D02*
X8417610D01*
G54D39*
X7344120Y3307080D03*
X7466980Y1485000D03*
M02*
