G04 ================== begin FILE IDENTIFICATION RECORD ==================*
G04 Layout Name:  ASR6601CB_FEM900_MD_V10_240315.brd*
G04 Film Name:    VCC*
G04 File Format:  Gerber RS274X*
G04 File Origin:  Cadence Allegro 16.6-2015-S088*
G04 Origin Date:  Thu Mar 14 19:44:24 2024*
G04 *
G04 Layer:  ETCH/VCC*
G04 Layer:  PIN/VCC*
G04 Layer:  VIA CLASS/VCC*
G04 *
G04 Offset:    (0.0000 0.0000)*
G04 Mirror:    No*
G04 Mode:      Positive*
G04 Rotation:  0*
G04 FullContactRelief:  No*
G04 UndefLineWidth:     0.0000*
G04 ================== end FILE IDENTIFICATION RECORD ====================*
%FSLAX25Y25*MOMM*%
%IR0*IPPOS*OFA0.00000B0.00000*MIA0B0*SFA1.00000B1.00000*%
%ADD14O,1.2X.4*%
%ADD12O,.4X1.2*%
%ADD11C,.7*%
%ADD13C,.508*%
%ADD10C,.4064*%
%ADD15O,1.4X1.*%
%ADD16C,.2*%
%ADD17C,.4*%
%ADD19C,.864*%
%ADD18C,.7624*%
G75*
%LPD*%
G75*
G36*
G01X5181400Y1565040D02*
X6365440D01*
X6428340Y1627940D01*
Y2240480D01*
X6375600Y2293220D01*
X6373060D01*
X6367980Y2298300D01*
X6040320D01*
X6011780Y2326840D01*
Y2704700D01*
X6012180Y2705100D01*
Y2786380D01*
X5946140Y2852420D01*
X5872480D01*
X5872080Y2852020D01*
X5181400D01*
X5105800Y2776420D01*
Y2723300D01*
X5100300Y2722560D01*
G03Y2647000I5100J-37780D01*
G01X5105800Y2646260D01*
Y1712290D01*
G02X5084120Y1703310I-12700J2D01*
G01X5046680Y1740750D01*
Y3075090D01*
X5149430Y3177840D01*
X7586130D01*
X7655600Y3108370D01*
X7655870Y3106200D01*
G03X7704040Y3154370I42870J5300D01*
G01X7701870Y3154640D01*
X7613230Y3243280D01*
X5880460D01*
Y3447910D01*
G03X5907880Y3492920I-32721J50791D01*
G01X5908430Y3498660D01*
X8397740D01*
G02X8447700Y3448700I0J-49960D01*
G01Y2671820D01*
G03Y2525580I40J-73120D01*
G01Y2474120D01*
X8427740D01*
G03Y2323280I0J-75420D01*
G01X8447700D01*
Y2271820D01*
G03Y2125580I40J-73120D01*
G01Y1348700D01*
G02X8397740Y1298740I-49960J0D01*
G01X5908430D01*
X5907880Y1304480D01*
G03X5880460Y1349490I-60141J-5781D01*
G01Y1473500D01*
X6722330D01*
X6791660Y1542830D01*
Y1732730D01*
G03X6726220I-32720J28210D01*
G01Y1569930D01*
X6695230Y1538940D01*
X6578460D01*
Y1635490D01*
G03X6513020I-32720J28210D01*
G01Y1538940D01*
X5683670D01*
X5622850Y1478130D01*
X5615020Y1481370D01*
Y1483660D01*
X5480460D01*
Y1369030D01*
G02X5464280Y1356810I-12700J-6D01*
G03X5387600Y1304480I-16539J-58111D01*
G01X5387050Y1298740D01*
X5321090D01*
X5320620Y1304580D01*
G03X5174860I-72880J-5880D01*
G01X5174390Y1298740D01*
X5108430D01*
X5107880Y1304480D01*
G03X4987600I-60140J-5780D01*
G01X4987050Y1298740D01*
X4797740D01*
G02X4747780Y1348700I0J49960D01*
G01Y1738280D01*
G03Y1859120I-40J60420D01*
G01Y1938280D01*
G03Y2059120I-40J60420D01*
G01Y2138280D01*
G03Y2259120I-40J60420D01*
G01Y2338280D01*
G03Y2459120I-40J60420D01*
G01Y2538280D01*
G03Y2659120I-40J60420D01*
G01Y2738280D01*
G03Y2859120I-40J60420D01*
G01Y2938280D01*
G03Y3059120I-40J60420D01*
G01Y3448700D01*
G02X4797740Y3498660I49960J0D01*
G01X4987050D01*
X4987600Y3492920D01*
G03X5107880I60140J5780D01*
G01X5108430Y3498660D01*
X5187050D01*
X5187600Y3492920D01*
G03X5307880I60140J5780D01*
G01X5308430Y3498660D01*
X5387050D01*
X5387600Y3492920D01*
G03X5507880I60140J5780D01*
G01X5508430Y3498660D01*
X5574390D01*
X5574860Y3492820D01*
G03X5720620I72880J5880D01*
G01X5721090Y3498660D01*
X5787050D01*
X5787600Y3492920D01*
G03X5815020Y3447910I60141J5781D01*
G01Y3243280D01*
X5122330D01*
X4981240Y3102190D01*
Y1713650D01*
X5097820Y1597070D01*
X5098090Y1594900D01*
G03X5169850Y1568080I42873J5300D01*
G01X5174330Y1572110D01*
X5181400Y1565040D01*
G37*
G36*
G01X5202120Y1615040D02*
X5155800Y1661360D01*
Y2594790D01*
G02X5162750Y2601110I6349J-1D01*
G03X5167440Y2600960I3561J37952D01*
G02X5173970Y2594480I179J-6350D01*
G03X5215700Y2631690I38113J-738D01*
G02X5204270Y2643010I1201J12644D01*
G03X5167960Y2677150I-37915J-3946D01*
G02X5155800Y2689830I538J12687D01*
G01Y2755700D01*
X5202120Y2802020D01*
X5851960D01*
X5852360Y2801620D01*
X5925820D01*
X5961380Y2766060D01*
Y2692600D01*
X5961780Y2692200D01*
Y2615400D01*
G02X5944540Y2603540I-12698J-1D01*
G03Y2532340I-13640J-35600D01*
G02X5961780Y2520480I4542J-11859D01*
G01Y2306120D01*
X6019600Y2248300D01*
X6029110D01*
Y2238030D01*
X6025600Y2236270D01*
G03X6071380Y2227250I17062J-34090D01*
G02X6080940Y2248300I9566J8351D01*
G01X6187320D01*
G02X6199860Y2233600I0J-12699D01*
G03X6285180I42660J-6820D01*
G02X6297720Y2248300I12540J2001D01*
G01X6349800D01*
X6378340Y2219760D01*
Y1648660D01*
X6344720Y1615040D01*
X6060620D01*
G02X6051060Y1636090I6J12699D01*
G03X5993620I-28720J25070D01*
G02X5984060Y1615040I-9566J-8351D01*
G01X5968720D01*
G02X5958640Y1635460I2J12699D01*
G03X5898080I-30280J23160D01*
G02X5888000Y1615040I-10082J-7721D01*
G01X5854160D01*
G02X5842870Y1633550I3J12700D01*
G03X5775090I-33890J17450D01*
G02X5763800Y1615040I-11293J-5810D01*
G01X5485370D01*
G02X5473470Y1632190I-5J12700D01*
G03X5402070I-35700J13360D01*
G02X5390170Y1615040I-11895J-4450D01*
G01X5202120D01*
G37*
%LPC*%
G75*
G36*
G01X6914260Y2267620D02*
G03X6918060Y2251120I11123J-6126D01*
G02X6862700Y2238340I-21962J-31159D01*
G03X6858900Y2254840I-11123J6126D01*
G02X6850090Y2308510I21958J31163D01*
G03X6846280Y2326950I-10249J7496D01*
G02X6896390Y2337290I19343J32850D01*
G03X6900200Y2318850I10249J-7496D01*
G02X6914260Y2267620I-19339J-32852D01*
G37*
G36*
G01X5311840Y2510030D02*
G03X5308220Y2494600I7849J-9981D01*
G02X5250230Y2508200I-34429J-16369D01*
G03X5253850Y2523630I-7849J9981D01*
G02X5311840Y2510030I34429J16369D01*
G37*
G36*
G01X5278110Y2335750D02*
G03X5288900Y2323690I12691J497D01*
G02X5245110Y2284510I-5700J-37691D01*
G03X5234320Y2296570I-12691J-497D01*
G02X5278110Y2335750I5700J37691D01*
G37*
G36*
G01X5563190Y2720800D02*
G02X5548670Y2679880I22270J-30939D01*
G03X5528990Y2686860I-12257J-3324D01*
G02X5543510Y2727780I-22270J30939D01*
G03X5563190Y2720800I12257J3324D01*
G37*
G36*
G01X5562000Y2389730D02*
G02X5531450Y2363880I5680J-37690D01*
G03X5517480Y2380390I-12073J3950D01*
G02X5548030Y2406240I-5680J37690D01*
G03X5562000Y2389730I12073J-3950D01*
G37*
G36*
G01X5752980Y2220640D02*
G02X5730360Y2252310I-37983J-3216D01*
G03X5748140Y2265000I5125J11621D01*
G02X5770760Y2233330I37983J3216D01*
G03X5752980Y2220640I-5125J-11621D01*
G37*
G36*
G01X5545490Y2155600D02*
G02X5514940Y2181450I-36230J-11840D01*
G03X5528910Y2197960I1897J12560D01*
G02X5559460Y2172110I36230J11840D01*
G03X5545490Y2155600I-1897J-12560D01*
G37*
G36*
G01X6222050Y1919000D02*
G02Y1967200I-29530J24100D01*
G03X6241730I9840J8035D01*
G02Y1919000I29530J-24100D01*
G03X6222050I-9840J-8035D01*
G37*
G36*
G01X5436760Y1959840D02*
G02X5430960Y1920650I29319J-24363D01*
G03X5409490Y1923820I-11699J-4941D01*
G02X5343260Y1957720I-29322J24359D01*
G03X5330460Y1973590I-12293J3182D01*
G02X5297890Y2033830I-1543J38091D01*
G03X5288990Y2053820I-10337J7374D01*
G02X5324310Y2069550I4293J37880D01*
G03X5333210Y2049560I10337J-7374D01*
G02X5365830Y2002140I-4289J-37880D01*
G03X5378630Y1986270I12293J-3182D01*
G02X5415290Y1963010I1542J-38090D01*
G03X5436760Y1959840I11699J4941D01*
G37*
G36*
G01X6047570Y1909820D02*
G02X6046020Y1957970I-30308J23124D01*
G03X6065690Y1958600I9578J8335D01*
G02X6067240Y1910450I30308J-23124D01*
G03X6047570Y1909820I-9578J-8335D01*
G37*
G54D19*
X6761480Y1861820D03*
X7815580Y1617980D03*
G54D18*
X6861340Y1589240D03*
X5300980Y1887220D03*
X5506720Y2278380D03*
X5643880Y2273300D03*
X5781040Y2146300D03*
X5646420Y2138680D03*
Y2415540D03*
X5783580Y2413000D03*
X5717540Y2349500D03*
X5796280Y2682240D03*
X6245570Y1795780D03*
X6024880Y2080260D03*
%LPD*%
G75*
G54D10*
X4805680Y1379220D03*
X4815840Y1508760D03*
X4818380Y1648460D03*
X4841240Y2100580D03*
Y2301240D03*
X4846320Y2499360D03*
Y2700020D03*
X4856480Y2895600D03*
X4843780Y3086100D03*
X4856480Y3202940D03*
X4787900Y3383280D03*
X4820920Y3309620D03*
X4851400Y3401060D03*
X4917440Y1381760D03*
X4950460Y1480820D03*
X4932680Y1582420D03*
X5096040Y1882140D03*
X4932680Y2095500D03*
X4930140Y2489200D03*
X5105400Y2684780D03*
X4930140Y3246120D03*
X4996180Y3312160D03*
X4950460Y3416300D03*
X5341620Y1397000D03*
X5163820Y1394460D03*
X5247640Y1409700D03*
X5328920Y2011680D03*
X5300980Y1887220D03*
X5293280Y2091700D03*
X5283200Y2286000D03*
X5249780Y2422190D03*
X5273790Y2478230D03*
X5240020Y2334260D03*
X5166360Y2639060D03*
X5288280Y2540000D03*
X5212080Y2593740D03*
X5184620Y2959100D03*
X5437770Y1645550D03*
X5380170Y1948180D03*
X5466080Y1935480D03*
X5506720Y2278380D03*
X5565140Y2209800D03*
X5509260Y2143760D03*
X5511800Y2418080D03*
X5567680Y2352040D03*
X5506720Y2717800D03*
X5486400Y2931160D03*
X5486000Y2992120D03*
X5514340Y3312160D03*
X5643880Y2273300D03*
X5786120Y2268220D03*
X5715000Y2217420D03*
X5781040Y2146300D03*
X5646420Y2138680D03*
Y2415540D03*
X5783580Y2413000D03*
X5717540Y2349500D03*
X5796280Y2682240D03*
X5646300Y2661810D03*
X5585460Y2689860D03*
X5696020Y3036500D03*
X5648960Y3390900D03*
X5628640Y3312160D03*
X5730240D03*
X5717540Y3401060D03*
X5577840Y3403600D03*
X5928360Y1658620D03*
X5808980Y1651000D03*
X6017260Y1932940D03*
X5930900Y2567940D03*
X5867400Y2706340D03*
X5930900Y3124200D03*
X5983280Y3074790D03*
X5897880Y3032760D03*
X5966460Y3309620D03*
X6245570Y1795780D03*
X6022340Y1661160D03*
X6192520Y1943100D03*
X6096000Y1935480D03*
X6042660Y2202180D03*
X6024880Y2080260D03*
X6040120Y2334260D03*
X6243320Y2308860D03*
X6126480Y2321560D03*
X6217920Y2575560D03*
X6154420Y2603500D03*
X6205220Y2651760D03*
X6092560Y2558490D03*
X6045200Y2921000D03*
X6032500Y3119120D03*
X6037580Y3025140D03*
X6245860Y3014980D03*
X6230620Y3116580D03*
X6065520Y3312160D03*
X6156960D03*
X6052820Y3418840D03*
X6164580Y3416300D03*
X6454140Y1793240D03*
X6271260Y1943100D03*
X6466840Y2298700D03*
X6344920Y2303780D03*
X6272020Y2633840D03*
X6416040Y2684780D03*
X6256580Y2701400D03*
X6332220Y2674620D03*
X6311900Y2740660D03*
X6464300Y2743200D03*
X6388100D03*
X6293510Y3062420D03*
X6337300Y3116580D03*
Y3014980D03*
X6258560Y3314700D03*
X6367780D03*
X6306820Y3411220D03*
X6438900Y3456940D03*
X6609080Y2324100D03*
X6654800Y2395220D03*
X6576060D03*
X6520850Y2691210D03*
X6550660Y2745740D03*
X6512560Y2921000D03*
X6586220Y2923540D03*
X6690360Y3101340D03*
X6553200Y2989580D03*
X6487160Y3314700D03*
X6611620D03*
X6670040Y3385820D03*
X6545580Y3418840D03*
X6621780Y3467100D03*
X6861340Y1589240D03*
X6733540Y1963420D03*
X6883400Y2113280D03*
X6880860Y2286000D03*
X6896100Y2219960D03*
X6708140Y2313940D03*
X6809740Y2430780D03*
X6736080Y2395220D03*
X6865620Y2359800D03*
X6847840Y2659380D03*
X6705600Y2722880D03*
X6708140Y2804160D03*
Y2872740D03*
X6738620Y3314700D03*
X6865620Y3309620D03*
X6858000Y3393440D03*
X6888480Y3446780D03*
X6746240Y3444240D03*
X6972300Y1360680D03*
X7119620D03*
X7073900Y1478280D03*
X7145020Y1973580D03*
X6929120Y2057400D03*
X7086600Y2032000D03*
X6974840Y2120900D03*
X7086600D03*
X7101840Y2453640D03*
X7015480Y2456180D03*
X7099300Y2540000D03*
X7012940Y2542540D03*
X7043420Y2773680D03*
X7071360Y2844800D03*
X6977380Y3312160D03*
X7071360Y3309620D03*
X7025640Y3401060D03*
X6990080Y3459480D03*
X7254240Y1360680D03*
X7289800Y1475740D03*
X7178040Y1478280D03*
X7297420Y1788160D03*
Y1686560D03*
X7188200Y2039620D03*
X7284720Y1991360D03*
X7353300Y2049780D03*
X7297420Y1882140D03*
X7335520Y2123440D03*
X7221220Y2286000D03*
X7178040Y2113280D03*
X7259320Y2098040D03*
X7272020Y2179320D03*
X7264400Y2344420D03*
X7195820Y2367280D03*
X7244080Y2659380D03*
X7310120Y2641600D03*
X7302500Y2710180D03*
X7216140Y2712720D03*
X7188200Y3312160D03*
X7307580Y3418840D03*
X7165340Y3421380D03*
X7566660Y1360680D03*
X7406640D03*
X7510780Y1785620D03*
X7426960Y1790700D03*
X7536180Y2004060D03*
X7447280Y1998980D03*
X7437120Y2090420D03*
X7533640Y2077720D03*
X7467600Y2237740D03*
X7553960Y2232660D03*
X7500620Y2166620D03*
X7388860Y2171700D03*
X7459980Y2308860D03*
X7523480D03*
X7584440Y2311400D03*
X7388860Y2479040D03*
X7500620Y2816860D03*
X7490460Y3317240D03*
X7584440Y3314700D03*
Y3421380D03*
X7444740D03*
X7726680Y1360680D03*
X7795260Y1478280D03*
X7660640Y1475740D03*
X7787640Y2011680D03*
X7614920Y2075180D03*
X7622540Y1996440D03*
X7713980Y1988820D03*
X7802880Y2143760D03*
X7797800Y2222500D03*
X7708900Y2080260D03*
X7713980Y2166620D03*
X7617460Y2164080D03*
X7820660Y2311400D03*
Y2494280D03*
X7752080Y2311400D03*
X7739380Y2496820D03*
X7825740Y2573020D03*
X7802880Y2649220D03*
X7818120Y2740660D03*
X7665720Y2750820D03*
X7734300Y2712720D03*
X7675880Y2646680D03*
X7609840Y2710180D03*
X7617460Y2593340D03*
X7731760Y2588260D03*
X7673340Y2529840D03*
X7823200Y2938780D03*
X7703820Y2814320D03*
X7612380Y2811780D03*
X7820660Y3017520D03*
Y3103880D03*
X7680960Y3312160D03*
X7790180D03*
X7726680Y3421380D03*
X7813040Y3213100D03*
X7815580Y3456940D03*
X7866380Y1360680D03*
X7950200Y1579880D03*
X8034020Y1475740D03*
X7909560Y1480820D03*
X7988300Y1673860D03*
X7995920Y1816100D03*
X7881620Y1991360D03*
X7833360Y2075180D03*
X7993380Y2059940D03*
X7924800Y2057400D03*
X7993380Y1950720D03*
X7881620Y2202180D03*
X8011160Y2143760D03*
X7924800Y2138680D03*
X7965440Y2217420D03*
X8044180D03*
X7881620Y2308860D03*
X7894320Y2496820D03*
X7978140Y2733040D03*
X7899400Y2583180D03*
X7995920Y2654300D03*
X7962900Y2583180D03*
X8049260D03*
X7904480Y2664460D03*
X7833360Y2839720D03*
X7993380Y2956560D03*
X7909560Y2936240D03*
X7970520Y2844800D03*
X7904480Y2768600D03*
X7980680Y3114040D03*
X7882820Y3154020D03*
X7927340Y3027680D03*
X7894320Y3314700D03*
X8003540Y3312160D03*
X7904480Y3408680D03*
X7965440Y3218180D03*
X7995920Y3451860D03*
X8072120Y1363980D03*
X8194040Y1397000D03*
X8186420Y1490980D03*
X8087360Y1546860D03*
X8267700Y1600200D03*
Y1488440D03*
X8183880Y1574800D03*
X8084820Y1648460D03*
X8181340Y2011680D03*
X8084820Y1996440D03*
Y1912620D03*
X8183880Y1892300D03*
X8229600Y1958340D03*
X8206740Y2082800D03*
X8094980Y2159000D03*
X8244840Y2151380D03*
X8122920Y2219960D03*
X8163560Y2491740D03*
X8158480Y2311400D03*
X8171180Y2707640D03*
X8249920Y2651760D03*
Y2743200D03*
X8092440Y2659380D03*
X8135620Y2580640D03*
X8168640Y2948940D03*
X8084820Y2895600D03*
X8082280Y2786380D03*
X8204200Y2857500D03*
X8087360Y3152140D03*
X8173720Y3284220D03*
X8087360Y3248660D03*
X8183880Y3365500D03*
X8262620Y3302000D03*
X8214360Y3225800D03*
X8168640Y3451860D03*
X8082280Y3439160D03*
X8249920D03*
X8379460Y1363980D03*
X8303260Y1348740D03*
X8288020Y1412240D03*
X8348980Y1516380D03*
X8369300Y1452880D03*
X8346440Y1590040D03*
X8407400Y1907540D03*
X8293100Y2044700D03*
X8321040Y1917700D03*
X8389620Y2001520D03*
X8337100Y2151380D03*
Y2649220D03*
Y2738120D03*
X8328660Y2890520D03*
X8374380Y2801620D03*
X8415020Y2875280D03*
X8290560Y2832100D03*
X8298180Y3190240D03*
X8333740Y3362960D03*
X8417560Y3324860D03*
X8343900Y3258820D03*
X8409940Y3228340D03*
X8389620Y3456940D03*
G54D11*
X4747740Y1798700D03*
Y1998700D03*
Y2198700D03*
Y2398700D03*
Y2598700D03*
Y2998700D03*
Y2798700D03*
X5047740Y1298700D03*
Y3498700D03*
X5247740Y1298700D03*
Y3498700D03*
X5447740Y1298700D03*
Y3498700D03*
X5647740Y1298700D03*
Y3498700D03*
X5847740Y1298700D03*
Y3498700D03*
X8447740Y2198700D03*
Y2598700D03*
G54D12*
X4935220Y1717040D03*
Y3101340D03*
X8082280Y1790700D03*
X8084820Y3017520D03*
G54D13*
X5140960Y1600200D03*
X5304630Y1653860D03*
X5250180Y2142040D03*
X5262880Y2763520D03*
X5928360Y1905000D03*
X6242520Y2226780D03*
X6142520Y2225840D03*
X6545740Y1663700D03*
X6758940Y1760940D03*
X6761480Y1861820D03*
X7815580Y1617980D03*
X7698740Y3111500D03*
G54D14*
X7344120Y3307080D03*
X7466980Y1485000D03*
G54D15*
X8447740Y2398700D03*
G54D16*
G01X5507010Y2581040D02*
Y2573310D01*
X5506720Y2573020D01*
G54D17*
G01X5140960Y1600200D02*
X5013960Y1727200D01*
Y3088640D01*
X5135880Y3210560D01*
X5849620D01*
G01X5647740Y1298700D02*
Y1456740D01*
X5697220Y1506220D01*
X5849620D01*
G01X5847740Y1298700D02*
Y1504340D01*
X5849620Y1506220D01*
G01D02*
X6545740D01*
G01X5849620Y3210560D02*
X5847740Y3212440D01*
Y3498700D01*
G01X7698740Y3111500D02*
X7599680Y3210560D01*
X5849620D01*
G01X6545740Y1663700D02*
Y1506220D01*
G01D02*
X6708780D01*
X6758940Y1556380D01*
Y1760940D01*
M02*
