G04*
G04 #@! TF.GenerationSoftware,Altium Limited,Altium Designer,23.0.1 (38)*
G04*
G04 Layer_Color=8388736*
%FSLAX42Y42*%
%MOMM*%
G71*
G04*
G04 #@! TF.SameCoordinates,95CDDE1D-1A7E-4F85-AF55-DDA07DA04742*
G04*
G04*
G04 #@! TF.FilePolarity,Negative*
G04*
G01*
G75*
%ADD21R,1.15X0.80*%
%ADD22R,0.80X1.15*%
%ADD23R,1.00X1.20*%
%ADD24R,1.20X2.20*%
%ADD25R,1.20X1.00*%
%ADD26R,0.94X1.22*%
%ADD27R,5.10X1.80*%
%ADD28R,2.55X1.70*%
%ADD29C,1.91*%
%ADD30R,1.91X1.91*%
%ADD31R,1.70X1.70*%
%ADD32C,1.70*%
%ADD33C,2.10*%
%ADD34R,1.80X1.80*%
%ADD35C,1.80*%
%ADD36C,0.80*%
D21*
X1675Y2938D02*
D03*
Y3088D02*
D03*
X5988Y2525D02*
D03*
Y2675D02*
D03*
X5800Y2825D02*
D03*
Y2675D02*
D03*
X6025Y3275D02*
D03*
Y3425D02*
D03*
D22*
X5688Y3425D02*
D03*
X5838D02*
D03*
X6050Y1912D02*
D03*
X6200D02*
D03*
D23*
X2842Y988D02*
D03*
X2708D02*
D03*
X2843Y1136D02*
D03*
X2708D02*
D03*
X5695Y3600D02*
D03*
X5830D02*
D03*
D24*
X1423Y1112D02*
D03*
X1296Y2762D02*
D03*
X1423D02*
D03*
X1550D02*
D03*
X1677D02*
D03*
X1804D02*
D03*
X1931D02*
D03*
X2058D02*
D03*
X2185D02*
D03*
X2312D02*
D03*
Y1112D02*
D03*
X2185D02*
D03*
X2058D02*
D03*
X1931D02*
D03*
X1804D02*
D03*
X1677D02*
D03*
X1550D02*
D03*
X1296D02*
D03*
D25*
X862Y3055D02*
D03*
Y2920D02*
D03*
X700Y3055D02*
D03*
Y2920D02*
D03*
D26*
X702Y2775D02*
D03*
X849D02*
D03*
D27*
X333Y3212D02*
D03*
Y2362D02*
D03*
D28*
X175Y2788D02*
D03*
D29*
X3324Y3838D02*
D03*
X3070D02*
D03*
X2816D02*
D03*
X2562D02*
D03*
X2308D02*
D03*
X2054D02*
D03*
D30*
X1800D02*
D03*
D31*
X6450Y588D02*
D03*
D32*
Y3381D02*
D03*
Y3127D02*
D03*
Y2874D02*
D03*
Y2619D02*
D03*
Y2366D02*
D03*
Y2111D02*
D03*
Y1858D02*
D03*
Y1603D02*
D03*
Y1349D02*
D03*
Y1095D02*
D03*
Y841D02*
D03*
D33*
X4750Y3903D02*
D03*
Y3278D02*
D03*
X5250Y3903D02*
D03*
Y3278D02*
D03*
X4250Y3272D02*
D03*
Y3897D02*
D03*
X3750Y3272D02*
D03*
Y3897D02*
D03*
X5250Y1673D02*
D03*
Y2298D02*
D03*
X4750Y1673D02*
D03*
Y2298D02*
D03*
X4250Y1673D02*
D03*
Y2298D02*
D03*
X3750Y1673D02*
D03*
Y2298D02*
D03*
D34*
X5852Y1912D02*
D03*
X1879Y3288D02*
D03*
X4571Y688D02*
D03*
X2387Y688D02*
D03*
D35*
X5598Y1912D02*
D03*
X1625Y3288D02*
D03*
X4825Y688D02*
D03*
X2133Y688D02*
D03*
X1625D02*
D03*
X1879D02*
D03*
D36*
X4762Y2675D02*
D03*
X2188Y2988D02*
D03*
X1988D02*
D03*
X3000Y1525D02*
D03*
X2775D02*
D03*
X6212Y2675D02*
D03*
Y2125D02*
D03*
M02*
