G04*
G04 #@! TF.GenerationSoftware,Altium Limited,Altium Designer,23.0.1 (38)*
G04*
G04 Layer_Color=65535*
%FSLAX42Y42*%
%MOMM*%
G71*
G04*
G04 #@! TF.SameCoordinates,95CDDE1D-1A7E-4F85-AF55-DDA07DA04742*
G04*
G04*
G04 #@! TF.FilePolarity,Positive*
G04*
G01*
G75*
%ADD10C,0.25*%
%ADD11C,0.20*%
%ADD12C,0.12*%
G36*
X437Y1958D02*
X460D01*
Y1946D01*
X437D01*
Y1903D01*
X426D01*
X363Y1948D01*
Y1958D01*
X426D01*
Y1971D01*
X437D01*
Y1958D01*
D02*
G37*
G36*
X460Y1830D02*
X460D01*
X460D01*
X459D01*
X458Y1830D01*
X456Y1830D01*
X455Y1831D01*
X454Y1831D01*
X452Y1831D01*
X452D01*
X452Y1831D01*
X451Y1832D01*
X450Y1832D01*
X448Y1833D01*
X446Y1834D01*
X444Y1836D01*
X442Y1837D01*
X439Y1839D01*
X439D01*
X439Y1840D01*
X438Y1840D01*
X437Y1842D01*
X435Y1843D01*
X433Y1845D01*
X430Y1848D01*
X427Y1851D01*
X424Y1855D01*
X424Y1855D01*
X424Y1856D01*
X423Y1856D01*
X422Y1857D01*
X421Y1859D01*
X420Y1860D01*
X419Y1862D01*
X417Y1864D01*
X414Y1867D01*
X410Y1871D01*
X409Y1872D01*
X407Y1874D01*
X405Y1875D01*
X404Y1876D01*
X404D01*
X403Y1877D01*
X403Y1877D01*
X402Y1877D01*
X401Y1878D01*
X399Y1879D01*
X397Y1880D01*
X394Y1881D01*
X392Y1882D01*
X389Y1882D01*
X389D01*
X389D01*
X388Y1882D01*
X387Y1882D01*
X385Y1882D01*
X383Y1881D01*
X381Y1880D01*
X379Y1879D01*
X377Y1877D01*
X377Y1877D01*
X376Y1876D01*
X376Y1875D01*
X375Y1874D01*
X374Y1872D01*
X373Y1869D01*
X372Y1867D01*
X372Y1864D01*
Y1863D01*
X372Y1862D01*
X373Y1861D01*
X373Y1859D01*
X374Y1856D01*
X375Y1854D01*
X376Y1852D01*
X378Y1850D01*
X378Y1849D01*
X379Y1849D01*
X380Y1848D01*
X381Y1847D01*
X383Y1846D01*
X386Y1845D01*
X389Y1845D01*
X392Y1844D01*
X391Y1832D01*
X391D01*
X390Y1832D01*
X389D01*
X388Y1832D01*
X387Y1833D01*
X386Y1833D01*
X384Y1833D01*
X383Y1834D01*
X380Y1835D01*
X376Y1837D01*
X374Y1838D01*
X373Y1839D01*
X371Y1840D01*
X370Y1842D01*
X370Y1842D01*
X370Y1842D01*
X369Y1842D01*
X369Y1843D01*
X368Y1844D01*
X368Y1845D01*
X367Y1846D01*
X366Y1848D01*
X365Y1849D01*
X365Y1851D01*
X364Y1853D01*
X364Y1855D01*
X363Y1857D01*
X363Y1859D01*
X363Y1861D01*
X362Y1864D01*
Y1865D01*
X363Y1866D01*
X363Y1867D01*
X363Y1869D01*
X363Y1870D01*
X363Y1872D01*
X364Y1876D01*
X366Y1879D01*
X367Y1881D01*
X368Y1883D01*
X369Y1885D01*
X370Y1886D01*
X370Y1886D01*
X371Y1887D01*
X371Y1887D01*
X372Y1887D01*
X372Y1888D01*
X373Y1889D01*
X374Y1890D01*
X376Y1890D01*
X378Y1892D01*
X382Y1893D01*
X383Y1894D01*
X385Y1894D01*
X387Y1894D01*
X390Y1895D01*
X390D01*
X391D01*
X392Y1894D01*
X393Y1894D01*
X395Y1894D01*
X397Y1893D01*
X399Y1893D01*
X401Y1892D01*
X401Y1892D01*
X402Y1892D01*
X403Y1891D01*
X405Y1890D01*
X406Y1889D01*
X409Y1888D01*
X411Y1886D01*
X413Y1884D01*
X413Y1884D01*
X414Y1883D01*
X415Y1882D01*
X416Y1882D01*
X416Y1881D01*
X418Y1880D01*
X419Y1878D01*
X420Y1877D01*
X421Y1876D01*
X423Y1874D01*
X424Y1872D01*
X426Y1870D01*
X428Y1868D01*
X430Y1866D01*
X430Y1865D01*
X431Y1865D01*
X431Y1865D01*
X432Y1864D01*
X432Y1863D01*
X433Y1862D01*
X435Y1860D01*
X437Y1857D01*
X439Y1855D01*
X441Y1853D01*
X442Y1852D01*
X443Y1852D01*
X443Y1852D01*
X443Y1851D01*
X444Y1851D01*
X445Y1850D01*
X445Y1849D01*
X446Y1848D01*
X449Y1847D01*
Y1895D01*
X460D01*
Y1830D01*
D02*
G37*
G36*
X417Y1819D02*
X418D01*
X420Y1819D01*
X422Y1819D01*
X427Y1819D01*
X431Y1818D01*
X436Y1817D01*
X438Y1817D01*
X440Y1816D01*
X440D01*
X441Y1816D01*
X441Y1815D01*
X442Y1815D01*
X443Y1815D01*
X444Y1814D01*
X446Y1813D01*
X449Y1812D01*
X452Y1810D01*
X454Y1808D01*
X456Y1805D01*
Y1805D01*
X457Y1805D01*
X457Y1805D01*
X457Y1804D01*
X458Y1803D01*
X458Y1803D01*
X459Y1800D01*
X460Y1798D01*
X461Y1795D01*
X462Y1791D01*
X462Y1788D01*
Y1786D01*
X462Y1785D01*
X462Y1784D01*
X462Y1783D01*
X461Y1781D01*
X461Y1779D01*
X460Y1778D01*
X460Y1776D01*
X459Y1774D01*
X458Y1772D01*
X457Y1770D01*
X455Y1769D01*
X454Y1767D01*
X452Y1765D01*
X452Y1765D01*
X452Y1765D01*
X451Y1765D01*
X450Y1764D01*
X448Y1763D01*
X447Y1762D01*
X445Y1761D01*
X443Y1761D01*
X440Y1760D01*
X437Y1759D01*
X434Y1758D01*
X430Y1757D01*
X426Y1757D01*
X422Y1756D01*
X417Y1756D01*
X412Y1756D01*
X412D01*
X412D01*
X411D01*
X410D01*
X408Y1756D01*
X406D01*
X404Y1756D01*
X402Y1756D01*
X398Y1757D01*
X393Y1757D01*
X389Y1758D01*
X387Y1759D01*
X384Y1759D01*
X384D01*
X384Y1759D01*
X383Y1760D01*
X383Y1760D01*
X382Y1760D01*
X381Y1761D01*
X378Y1762D01*
X376Y1763D01*
X373Y1765D01*
X370Y1767D01*
X368Y1770D01*
Y1770D01*
X368Y1770D01*
X368Y1771D01*
X367Y1771D01*
X367Y1772D01*
X366Y1773D01*
X365Y1775D01*
X364Y1777D01*
X363Y1780D01*
X363Y1784D01*
X362Y1788D01*
Y1789D01*
X363Y1790D01*
X363Y1792D01*
X363Y1794D01*
X364Y1797D01*
X365Y1799D01*
X366Y1801D01*
Y1801D01*
X366Y1802D01*
X366Y1802D01*
X367Y1803D01*
X368Y1805D01*
X369Y1806D01*
X371Y1808D01*
X373Y1810D01*
X375Y1811D01*
X375Y1811D01*
X376Y1812D01*
X377Y1812D01*
X379Y1813D01*
X381Y1814D01*
X383Y1815D01*
X386Y1816D01*
X389Y1817D01*
X390D01*
X390Y1817D01*
X390Y1818D01*
X391Y1818D01*
X392Y1818D01*
X393Y1818D01*
X394Y1818D01*
X395Y1818D01*
X397Y1819D01*
X399Y1819D01*
X401Y1819D01*
X403Y1819D01*
X405Y1819D01*
X407D01*
X410Y1820D01*
X412D01*
X413D01*
X413D01*
X414D01*
X415D01*
X417Y1819D01*
D02*
G37*
G36*
X460Y1678D02*
X460D01*
X460D01*
X459D01*
X458Y1678D01*
X456Y1679D01*
X455Y1679D01*
X454Y1679D01*
X452Y1680D01*
X452D01*
X452Y1680D01*
X451Y1680D01*
X450Y1681D01*
X448Y1682D01*
X446Y1683D01*
X444Y1684D01*
X442Y1686D01*
X439Y1688D01*
X439D01*
X439Y1688D01*
X438Y1689D01*
X437Y1690D01*
X435Y1692D01*
X433Y1694D01*
X430Y1696D01*
X427Y1700D01*
X424Y1703D01*
X424Y1703D01*
X424Y1704D01*
X423Y1705D01*
X422Y1706D01*
X421Y1707D01*
X420Y1709D01*
X419Y1710D01*
X417Y1712D01*
X414Y1715D01*
X410Y1719D01*
X409Y1721D01*
X407Y1722D01*
X405Y1724D01*
X404Y1725D01*
X404D01*
X403Y1725D01*
X403Y1725D01*
X402Y1726D01*
X401Y1727D01*
X399Y1728D01*
X397Y1729D01*
X394Y1730D01*
X392Y1730D01*
X389Y1731D01*
X389D01*
X389D01*
X388Y1730D01*
X387Y1730D01*
X385Y1730D01*
X383Y1729D01*
X381Y1728D01*
X379Y1727D01*
X377Y1725D01*
X377Y1725D01*
X376Y1724D01*
X376Y1723D01*
X375Y1722D01*
X374Y1720D01*
X373Y1718D01*
X372Y1715D01*
X372Y1712D01*
Y1711D01*
X372Y1711D01*
X373Y1709D01*
X373Y1707D01*
X374Y1705D01*
X375Y1702D01*
X376Y1700D01*
X378Y1698D01*
X378Y1698D01*
X379Y1697D01*
X380Y1696D01*
X381Y1695D01*
X383Y1694D01*
X386Y1694D01*
X389Y1693D01*
X392Y1693D01*
X391Y1681D01*
X391D01*
X390Y1681D01*
X389D01*
X388Y1681D01*
X387Y1681D01*
X386Y1681D01*
X384Y1682D01*
X383Y1682D01*
X380Y1683D01*
X376Y1685D01*
X374Y1686D01*
X373Y1687D01*
X371Y1689D01*
X370Y1690D01*
X370Y1690D01*
X370Y1690D01*
X369Y1691D01*
X369Y1692D01*
X368Y1692D01*
X368Y1693D01*
X367Y1694D01*
X366Y1696D01*
X365Y1697D01*
X365Y1699D01*
X364Y1701D01*
X364Y1703D01*
X363Y1705D01*
X363Y1707D01*
X363Y1710D01*
X362Y1712D01*
Y1714D01*
X363Y1715D01*
X363Y1716D01*
X363Y1717D01*
X363Y1719D01*
X363Y1720D01*
X364Y1724D01*
X366Y1728D01*
X367Y1729D01*
X368Y1731D01*
X369Y1733D01*
X370Y1735D01*
X370Y1735D01*
X371Y1735D01*
X371Y1735D01*
X372Y1736D01*
X372Y1736D01*
X373Y1737D01*
X374Y1738D01*
X376Y1739D01*
X378Y1740D01*
X382Y1742D01*
X383Y1742D01*
X385Y1742D01*
X387Y1743D01*
X390Y1743D01*
X390D01*
X391D01*
X392Y1743D01*
X393Y1743D01*
X395Y1742D01*
X397Y1742D01*
X399Y1741D01*
X401Y1740D01*
X401Y1740D01*
X402Y1740D01*
X403Y1739D01*
X405Y1738D01*
X406Y1737D01*
X409Y1736D01*
X411Y1734D01*
X413Y1732D01*
X413Y1732D01*
X414Y1731D01*
X415Y1731D01*
X416Y1730D01*
X416Y1729D01*
X418Y1728D01*
X419Y1727D01*
X420Y1725D01*
X421Y1724D01*
X423Y1722D01*
X424Y1720D01*
X426Y1718D01*
X428Y1716D01*
X430Y1714D01*
X430Y1714D01*
X431Y1714D01*
X431Y1713D01*
X432Y1712D01*
X432Y1711D01*
X433Y1710D01*
X435Y1708D01*
X437Y1706D01*
X439Y1703D01*
X441Y1702D01*
X442Y1701D01*
X443Y1700D01*
X443Y1700D01*
X443Y1699D01*
X444Y1699D01*
X445Y1698D01*
X445Y1697D01*
X446Y1697D01*
X449Y1695D01*
Y1743D01*
X460D01*
Y1678D01*
D02*
G37*
G36*
Y1571D02*
X363D01*
Y1584D01*
X449D01*
Y1632D01*
X460D01*
Y1571D01*
D02*
G37*
G36*
X435Y1553D02*
X436Y1553D01*
X438Y1553D01*
X440Y1552D01*
X443Y1551D01*
X445Y1550D01*
X445Y1550D01*
X446Y1550D01*
X447Y1549D01*
X448Y1548D01*
X450Y1547D01*
X451Y1546D01*
X453Y1545D01*
X454Y1543D01*
X454Y1543D01*
X455Y1543D01*
X455Y1542D01*
X456Y1540D01*
X457Y1539D01*
X457Y1537D01*
X458Y1535D01*
X459Y1532D01*
Y1532D01*
X459Y1531D01*
X459Y1530D01*
X460Y1528D01*
X460Y1526D01*
X460Y1523D01*
X460Y1520D01*
X460Y1517D01*
Y1480D01*
X363D01*
Y1518D01*
X363Y1519D01*
Y1520D01*
X363Y1523D01*
X364Y1525D01*
X364Y1528D01*
X365Y1531D01*
X366Y1534D01*
Y1534D01*
X366Y1534D01*
X366Y1535D01*
X367Y1536D01*
X368Y1538D01*
X369Y1540D01*
X371Y1541D01*
X373Y1543D01*
X375Y1545D01*
X375Y1545D01*
X376Y1545D01*
X377Y1546D01*
X379Y1547D01*
X381Y1547D01*
X383Y1548D01*
X385Y1548D01*
X388Y1549D01*
X388D01*
X389D01*
X390Y1548D01*
X392Y1548D01*
X393Y1548D01*
X395Y1547D01*
X397Y1546D01*
X400Y1545D01*
X400Y1545D01*
X400Y1544D01*
X402Y1544D01*
X403Y1543D01*
X404Y1541D01*
X406Y1539D01*
X407Y1537D01*
X408Y1535D01*
Y1535D01*
X409Y1535D01*
X409Y1536D01*
X409Y1536D01*
X410Y1538D01*
X411Y1540D01*
X412Y1542D01*
X413Y1544D01*
X415Y1547D01*
X417Y1549D01*
X418Y1549D01*
X419Y1549D01*
X420Y1550D01*
X422Y1551D01*
X424Y1552D01*
X426Y1553D01*
X429Y1553D01*
X432Y1553D01*
X432D01*
X432D01*
X433D01*
X435Y1553D01*
D02*
G37*
G36*
X447Y1461D02*
X447Y1461D01*
X448Y1460D01*
X448Y1459D01*
X449Y1459D01*
X449Y1458D01*
X450Y1456D01*
X451Y1455D01*
X453Y1452D01*
X455Y1449D01*
X457Y1445D01*
X458Y1441D01*
Y1441D01*
X458Y1441D01*
X459Y1440D01*
X459Y1440D01*
X459Y1439D01*
X460Y1438D01*
X460Y1436D01*
X460Y1435D01*
X461Y1432D01*
X462Y1428D01*
X462Y1425D01*
X462Y1421D01*
Y1419D01*
X462Y1418D01*
Y1417D01*
X462Y1415D01*
X462Y1414D01*
X461Y1412D01*
X461Y1408D01*
X460Y1404D01*
X458Y1399D01*
X457Y1397D01*
X456Y1394D01*
X456Y1394D01*
X456Y1394D01*
X455Y1393D01*
X455Y1393D01*
X454Y1392D01*
X454Y1391D01*
X452Y1388D01*
X449Y1385D01*
X446Y1382D01*
X442Y1379D01*
X438Y1377D01*
X438D01*
X438Y1376D01*
X437Y1376D01*
X436Y1376D01*
X435Y1375D01*
X434Y1375D01*
X432Y1374D01*
X431Y1374D01*
X429Y1373D01*
X427Y1373D01*
X425Y1372D01*
X422Y1372D01*
X417Y1371D01*
X412Y1371D01*
X412D01*
X412D01*
X411D01*
X410Y1371D01*
X409D01*
X407Y1371D01*
X405Y1371D01*
X404Y1372D01*
X402Y1372D01*
X400Y1372D01*
X395Y1373D01*
X390Y1375D01*
X386Y1377D01*
X386Y1377D01*
X385Y1377D01*
X385Y1377D01*
X384Y1378D01*
X383Y1378D01*
X381Y1379D01*
X379Y1381D01*
X376Y1383D01*
X373Y1386D01*
X370Y1390D01*
X369Y1392D01*
X367Y1394D01*
X367Y1394D01*
X367Y1394D01*
X367Y1395D01*
X366Y1396D01*
X366Y1397D01*
X365Y1398D01*
X365Y1400D01*
X364Y1401D01*
X364Y1403D01*
X363Y1405D01*
X363Y1407D01*
X362Y1409D01*
X361Y1414D01*
X361Y1417D01*
Y1421D01*
X361Y1422D01*
Y1423D01*
X362Y1426D01*
X362Y1429D01*
X363Y1432D01*
X364Y1436D01*
X365Y1439D01*
Y1439D01*
X365Y1439D01*
X365Y1440D01*
X365Y1440D01*
X366Y1442D01*
X367Y1444D01*
X369Y1446D01*
X370Y1448D01*
X372Y1450D01*
X374Y1452D01*
X375Y1452D01*
X375Y1453D01*
X377Y1454D01*
X379Y1455D01*
X381Y1456D01*
X384Y1457D01*
X387Y1459D01*
X390Y1460D01*
X393Y1448D01*
X393D01*
X393Y1448D01*
X393Y1448D01*
X392Y1447D01*
X391Y1447D01*
X389Y1447D01*
X387Y1446D01*
X385Y1445D01*
X383Y1444D01*
X382Y1442D01*
X381Y1442D01*
X381Y1442D01*
X380Y1441D01*
X379Y1440D01*
X378Y1439D01*
X377Y1437D01*
X376Y1435D01*
X375Y1433D01*
X375Y1433D01*
X374Y1432D01*
X374Y1431D01*
X373Y1429D01*
X373Y1427D01*
X373Y1425D01*
X372Y1422D01*
X372Y1420D01*
Y1418D01*
X372Y1417D01*
Y1417D01*
X372Y1415D01*
X373Y1412D01*
X373Y1409D01*
X374Y1407D01*
X375Y1404D01*
X375Y1404D01*
X375Y1403D01*
X376Y1402D01*
X377Y1401D01*
X378Y1399D01*
X379Y1397D01*
X381Y1395D01*
X382Y1394D01*
X382Y1394D01*
X383Y1393D01*
X384Y1393D01*
X385Y1392D01*
X386Y1391D01*
X388Y1390D01*
X390Y1389D01*
X392Y1388D01*
X392D01*
X392Y1388D01*
X393Y1387D01*
X393Y1387D01*
X394Y1387D01*
X395Y1387D01*
X396Y1386D01*
X398Y1386D01*
X401Y1385D01*
X404Y1385D01*
X407Y1384D01*
X411Y1384D01*
X412D01*
X412D01*
X413D01*
X413Y1384D01*
X415D01*
X416Y1384D01*
X417Y1384D01*
X419Y1385D01*
X423Y1385D01*
X426Y1386D01*
X430Y1387D01*
X433Y1388D01*
X434D01*
X434Y1389D01*
X434Y1389D01*
X435Y1389D01*
X436Y1390D01*
X438Y1392D01*
X440Y1394D01*
X443Y1396D01*
X445Y1399D01*
X446Y1402D01*
Y1402D01*
X446Y1402D01*
X447Y1402D01*
X447Y1403D01*
X447Y1404D01*
X448Y1405D01*
X448Y1407D01*
X449Y1410D01*
X450Y1413D01*
X450Y1416D01*
X451Y1420D01*
Y1421D01*
X450Y1422D01*
Y1423D01*
X450Y1425D01*
X450Y1428D01*
X449Y1430D01*
X448Y1433D01*
X447Y1436D01*
Y1436D01*
X447Y1437D01*
X447Y1437D01*
X447Y1437D01*
X446Y1439D01*
X445Y1441D01*
X444Y1443D01*
X443Y1445D01*
X442Y1447D01*
X441Y1448D01*
X422D01*
Y1420D01*
X411D01*
Y1461D01*
X447D01*
X447Y1461D01*
D02*
G37*
G36*
X428Y1321D02*
X430D01*
X432Y1320D01*
X434Y1320D01*
X436Y1320D01*
X439Y1319D01*
X442Y1319D01*
X447Y1318D01*
X451Y1317D01*
X454Y1316D01*
X457Y1315D01*
X460Y1314D01*
X460Y1314D01*
X461Y1314D01*
X462Y1313D01*
X463Y1313D01*
X464Y1312D01*
X466Y1311D01*
X468Y1310D01*
X470Y1309D01*
X472Y1308D01*
X474Y1307D01*
X479Y1304D01*
X484Y1301D01*
X489Y1297D01*
Y1289D01*
X489D01*
X489Y1289D01*
X488Y1289D01*
X488Y1289D01*
X487Y1290D01*
X486Y1290D01*
X485Y1291D01*
X484Y1292D01*
X481Y1293D01*
X477Y1295D01*
X474Y1297D01*
X469Y1299D01*
X465Y1300D01*
X460Y1302D01*
X454Y1304D01*
X449Y1305D01*
X443Y1307D01*
X437Y1308D01*
X431Y1308D01*
X425Y1308D01*
X425D01*
X425D01*
X424D01*
X423D01*
X422Y1308D01*
X421D01*
X419Y1308D01*
X417Y1308D01*
X416Y1308D01*
X414Y1308D01*
X410Y1307D01*
X405Y1307D01*
X400Y1306D01*
X400D01*
X400Y1305D01*
X399Y1305D01*
X399Y1305D01*
X398Y1305D01*
X397Y1305D01*
X394Y1304D01*
X391Y1303D01*
X388Y1302D01*
X385Y1301D01*
X381Y1299D01*
X381D01*
X381Y1299D01*
X381Y1299D01*
X380Y1299D01*
X379Y1298D01*
X379Y1298D01*
X378Y1298D01*
X376Y1297D01*
X375Y1296D01*
X374Y1296D01*
X372Y1295D01*
X370Y1294D01*
X368Y1293D01*
X366Y1291D01*
X364Y1290D01*
X361Y1289D01*
Y1297D01*
X361Y1297D01*
X362Y1298D01*
X363Y1298D01*
X364Y1299D01*
X366Y1300D01*
X367Y1301D01*
X369Y1303D01*
X372Y1304D01*
X374Y1306D01*
X377Y1307D01*
X380Y1309D01*
X382Y1310D01*
X389Y1313D01*
X392Y1314D01*
X395Y1316D01*
X395D01*
X396Y1316D01*
X396Y1316D01*
X397Y1316D01*
X399Y1317D01*
X400Y1317D01*
X402Y1318D01*
X404Y1318D01*
X406Y1319D01*
X409Y1319D01*
X411Y1319D01*
X414Y1320D01*
X419Y1320D01*
X425Y1321D01*
X425D01*
X426D01*
X427D01*
X428Y1321D01*
D02*
G37*
G36*
X437Y1279D02*
X437Y1279D01*
X438Y1279D01*
X439Y1278D01*
X440Y1278D01*
X443Y1277D01*
X446Y1276D01*
X449Y1274D01*
X452Y1272D01*
X454Y1270D01*
X455Y1269D01*
X455Y1269D01*
X455Y1269D01*
X456Y1268D01*
X456Y1268D01*
X457Y1267D01*
X457Y1266D01*
X458Y1265D01*
X459Y1264D01*
X460Y1261D01*
X461Y1257D01*
X462Y1254D01*
X462Y1252D01*
X462Y1250D01*
Y1248D01*
X462Y1247D01*
X462Y1246D01*
X461Y1244D01*
X461Y1243D01*
X461Y1241D01*
X460Y1237D01*
X459Y1236D01*
X458Y1234D01*
X457Y1232D01*
X456Y1230D01*
X454Y1228D01*
X453Y1226D01*
X452Y1226D01*
X452Y1226D01*
X452Y1225D01*
X451Y1225D01*
X450Y1224D01*
X449Y1223D01*
X447Y1223D01*
X446Y1222D01*
X444Y1221D01*
X442Y1220D01*
X440Y1220D01*
X437Y1219D01*
X434Y1218D01*
X432Y1218D01*
X429Y1218D01*
X425Y1218D01*
X425D01*
X425D01*
X424D01*
X423D01*
X422Y1218D01*
X421D01*
X420Y1218D01*
X419Y1218D01*
X415Y1218D01*
X412Y1219D01*
X409Y1220D01*
X405Y1221D01*
X405D01*
X405Y1221D01*
X404Y1222D01*
X404Y1222D01*
X402Y1223D01*
X401Y1224D01*
X398Y1226D01*
X396Y1228D01*
X394Y1230D01*
X392Y1233D01*
Y1233D01*
X392Y1233D01*
X392Y1234D01*
X392Y1234D01*
X391Y1235D01*
X391Y1236D01*
X390Y1238D01*
X390Y1240D01*
X389Y1243D01*
X388Y1246D01*
X388Y1250D01*
Y1251D01*
X388Y1252D01*
Y1253D01*
X388Y1254D01*
X389Y1256D01*
X390Y1259D01*
X391Y1262D01*
X392Y1266D01*
X394Y1268D01*
Y1269D01*
X394Y1269D01*
X395Y1270D01*
X396Y1271D01*
X398Y1272D01*
X401Y1274D01*
X403Y1276D01*
X407Y1277D01*
X410Y1278D01*
X412Y1266D01*
X412D01*
X412Y1266D01*
X411Y1266D01*
X410Y1266D01*
X408Y1265D01*
X407Y1264D01*
X405Y1263D01*
X403Y1262D01*
X402Y1260D01*
X402Y1260D01*
X401Y1260D01*
X401Y1259D01*
X400Y1257D01*
X399Y1256D01*
X399Y1254D01*
X398Y1252D01*
X398Y1250D01*
Y1249D01*
X398Y1249D01*
X398Y1247D01*
X399Y1245D01*
X400Y1243D01*
X401Y1240D01*
X402Y1238D01*
X403Y1237D01*
X404Y1235D01*
X405D01*
X405Y1235D01*
X405Y1235D01*
X406Y1235D01*
X406Y1234D01*
X407Y1234D01*
X408Y1233D01*
X409Y1233D01*
X411Y1232D01*
X412Y1232D01*
X414Y1231D01*
X416Y1231D01*
X418Y1230D01*
X420Y1230D01*
X423Y1230D01*
X425D01*
X425D01*
X426D01*
X426D01*
X427Y1230D01*
X429D01*
X430Y1230D01*
X433Y1231D01*
X436Y1231D01*
X440Y1232D01*
X443Y1233D01*
X445Y1234D01*
X446Y1235D01*
X446Y1235D01*
X447Y1236D01*
X448Y1237D01*
X449Y1239D01*
X450Y1241D01*
X451Y1244D01*
X452Y1246D01*
X452Y1248D01*
X452Y1249D01*
Y1250D01*
X452Y1251D01*
X452Y1252D01*
X452Y1254D01*
X451Y1255D01*
X450Y1257D01*
X449Y1259D01*
X448Y1261D01*
X448Y1261D01*
X447Y1262D01*
X446Y1263D01*
X445Y1264D01*
X443Y1265D01*
X440Y1266D01*
X438Y1267D01*
X434Y1267D01*
X436Y1279D01*
X436D01*
X437Y1279D01*
D02*
G37*
G36*
X489Y1199D02*
X489Y1198D01*
X489Y1198D01*
X488Y1198D01*
X487Y1197D01*
X486Y1196D01*
X484Y1195D01*
X483Y1194D01*
X481Y1193D01*
X479Y1191D01*
X477Y1190D01*
X474Y1189D01*
X472Y1187D01*
X469Y1186D01*
X466Y1184D01*
X460Y1182D01*
X460Y1182D01*
X459Y1181D01*
X458Y1181D01*
X457Y1181D01*
X455Y1180D01*
X454Y1180D01*
X452Y1179D01*
X449Y1178D01*
X447Y1178D01*
X444Y1177D01*
X441Y1177D01*
X438Y1176D01*
X432Y1175D01*
X429Y1175D01*
X425Y1175D01*
X425D01*
X424D01*
X424D01*
X423Y1175D01*
X421D01*
X419Y1175D01*
X418Y1175D01*
X415Y1176D01*
X413Y1176D01*
X411Y1176D01*
X406Y1177D01*
X400Y1178D01*
X395Y1180D01*
X395Y1180D01*
X394Y1180D01*
X393Y1181D01*
X392Y1181D01*
X391Y1182D01*
X389Y1183D01*
X387Y1184D01*
X384Y1185D01*
X382Y1186D01*
X379Y1187D01*
X376Y1189D01*
X374Y1190D01*
X370Y1192D01*
X367Y1194D01*
X364Y1196D01*
X361Y1199D01*
Y1207D01*
X361Y1207D01*
X362Y1207D01*
X362Y1206D01*
X363Y1206D01*
X365Y1205D01*
X366Y1204D01*
X369Y1203D01*
X372Y1201D01*
X375Y1199D01*
X379Y1198D01*
X380Y1197D01*
X381Y1196D01*
X381D01*
X381Y1196D01*
X382Y1196D01*
X383Y1196D01*
X383Y1195D01*
X384Y1195D01*
X386Y1195D01*
X387Y1194D01*
X390Y1193D01*
X393Y1192D01*
X397Y1191D01*
X400Y1190D01*
X400D01*
X401Y1190D01*
X402Y1190D01*
X402Y1190D01*
X403Y1189D01*
X405Y1189D01*
X406Y1189D01*
X408Y1189D01*
X410Y1188D01*
X412Y1188D01*
X416Y1188D01*
X421Y1187D01*
X425Y1187D01*
X425D01*
X426D01*
X426D01*
X427D01*
X427Y1187D01*
X428D01*
X429Y1188D01*
X431D01*
X434Y1188D01*
X437Y1188D01*
X441Y1189D01*
X445Y1190D01*
X450Y1191D01*
X455Y1192D01*
X460Y1194D01*
X466Y1196D01*
X471Y1198D01*
X477Y1201D01*
X483Y1204D01*
X489Y1207D01*
Y1199D01*
D02*
G37*
G36*
X216Y2178D02*
X217D01*
X220Y2178D01*
X223Y2178D01*
X226Y2177D01*
X230Y2176D01*
X233Y2176D01*
X233D01*
X233Y2175D01*
X234Y2175D01*
X234Y2175D01*
X236Y2175D01*
X238Y2174D01*
X240Y2173D01*
X242Y2172D01*
X245Y2170D01*
X247Y2169D01*
X247Y2169D01*
X248Y2168D01*
X249Y2167D01*
X250Y2166D01*
X252Y2165D01*
X253Y2163D01*
X255Y2162D01*
X256Y2160D01*
X256Y2160D01*
X257Y2159D01*
X257Y2158D01*
X258Y2157D01*
X259Y2155D01*
X259Y2153D01*
X260Y2151D01*
X261Y2148D01*
Y2148D01*
X261Y2148D01*
X261Y2147D01*
X261Y2146D01*
X262Y2144D01*
X262Y2142D01*
X262Y2139D01*
X262Y2136D01*
X262Y2133D01*
Y2098D01*
X165D01*
Y2135D01*
X165Y2138D01*
X165Y2140D01*
X166Y2143D01*
X166Y2146D01*
X166Y2148D01*
Y2149D01*
X166Y2149D01*
Y2149D01*
X167Y2150D01*
X167Y2151D01*
X168Y2153D01*
X169Y2156D01*
X170Y2158D01*
X172Y2160D01*
X173Y2163D01*
X174Y2163D01*
X174Y2163D01*
X174Y2163D01*
X175Y2164D01*
X176Y2165D01*
X178Y2167D01*
X180Y2169D01*
X183Y2171D01*
X186Y2173D01*
X190Y2174D01*
X190D01*
X190Y2174D01*
X191Y2175D01*
X192Y2175D01*
X193Y2175D01*
X194Y2176D01*
X195Y2176D01*
X197Y2176D01*
X198Y2177D01*
X200Y2177D01*
X204Y2178D01*
X209Y2178D01*
X213Y2178D01*
X213D01*
X214D01*
X214D01*
X215D01*
X216Y2178D01*
D02*
G37*
G36*
X262Y2021D02*
X165D01*
Y2034D01*
X251D01*
Y2082D01*
X262D01*
Y2021D01*
D02*
G37*
G36*
Y1931D02*
X165D01*
Y2002D01*
X177D01*
Y1944D01*
X206D01*
Y1998D01*
X218D01*
Y1944D01*
X251D01*
Y2004D01*
X262D01*
Y1931D01*
D02*
G37*
G36*
Y1895D02*
X165D01*
Y1908D01*
X262D01*
Y1895D01*
D02*
G37*
G36*
Y1858D02*
X217D01*
Y1808D01*
X262D01*
Y1795D01*
X165D01*
Y1808D01*
X205D01*
Y1858D01*
X165D01*
Y1871D01*
X262D01*
Y1858D01*
D02*
G37*
G36*
X238Y1776D02*
X240Y1776D01*
X242Y1776D01*
X245Y1775D01*
X247Y1774D01*
X250Y1772D01*
X250D01*
X250Y1772D01*
X251Y1771D01*
X252Y1770D01*
X254Y1769D01*
X255Y1767D01*
X257Y1765D01*
X259Y1762D01*
X260Y1759D01*
Y1759D01*
X261Y1759D01*
X261Y1759D01*
X261Y1758D01*
X261Y1757D01*
X262Y1756D01*
X262Y1754D01*
X263Y1751D01*
X264Y1748D01*
X264Y1744D01*
X264Y1741D01*
Y1738D01*
X264Y1737D01*
Y1736D01*
X264Y1735D01*
X264Y1733D01*
X263Y1729D01*
X263Y1726D01*
X262Y1722D01*
X260Y1719D01*
Y1718D01*
X260Y1718D01*
X260Y1718D01*
X260Y1717D01*
X259Y1715D01*
X258Y1713D01*
X256Y1711D01*
X254Y1709D01*
X252Y1707D01*
X249Y1704D01*
X249D01*
X248Y1704D01*
X248Y1704D01*
X247Y1704D01*
X247Y1703D01*
X246Y1703D01*
X244Y1702D01*
X241Y1701D01*
X238Y1700D01*
X235Y1700D01*
X231Y1699D01*
X230Y1711D01*
X230D01*
X230D01*
X231Y1711D01*
X231D01*
X233Y1712D01*
X234Y1712D01*
X236Y1713D01*
X238Y1713D01*
X240Y1714D01*
X242Y1715D01*
X242Y1715D01*
X243Y1716D01*
X244Y1717D01*
X245Y1718D01*
X246Y1719D01*
X247Y1721D01*
X249Y1723D01*
X250Y1725D01*
Y1725D01*
X250Y1725D01*
X250Y1726D01*
X250Y1726D01*
X251Y1728D01*
X251Y1729D01*
X252Y1732D01*
X252Y1734D01*
X252Y1737D01*
X253Y1740D01*
Y1741D01*
X252Y1743D01*
X252Y1744D01*
X252Y1746D01*
X252Y1749D01*
X251Y1751D01*
X251Y1753D01*
X250Y1753D01*
X250Y1754D01*
X250Y1755D01*
X249Y1756D01*
X248Y1758D01*
X247Y1759D01*
X246Y1760D01*
X244Y1762D01*
X244Y1762D01*
X244Y1762D01*
X243Y1762D01*
X242Y1763D01*
X241Y1764D01*
X239Y1764D01*
X238Y1764D01*
X236Y1764D01*
X236D01*
X235D01*
X234Y1764D01*
X233Y1764D01*
X232Y1764D01*
X231Y1763D01*
X229Y1763D01*
X228Y1762D01*
X228Y1761D01*
X228Y1761D01*
X227Y1760D01*
X226Y1759D01*
X225Y1758D01*
X224Y1757D01*
X223Y1755D01*
X222Y1753D01*
X222Y1753D01*
X222Y1752D01*
X222Y1751D01*
X222Y1750D01*
X221Y1749D01*
X221Y1748D01*
X221Y1747D01*
X220Y1745D01*
X220Y1744D01*
X219Y1742D01*
X219Y1740D01*
X218Y1738D01*
X218Y1735D01*
Y1735D01*
X218Y1735D01*
X217Y1734D01*
X217Y1733D01*
X217Y1732D01*
X217Y1731D01*
X216Y1728D01*
X215Y1725D01*
X214Y1722D01*
X213Y1719D01*
X212Y1718D01*
X212Y1717D01*
Y1716D01*
X211Y1716D01*
X211Y1715D01*
X210Y1714D01*
X209Y1713D01*
X208Y1711D01*
X206Y1709D01*
X204Y1708D01*
X202Y1706D01*
X202Y1706D01*
X201Y1706D01*
X200Y1705D01*
X199Y1705D01*
X197Y1704D01*
X195Y1703D01*
X193Y1703D01*
X190Y1703D01*
X190D01*
X190D01*
X190D01*
X189D01*
X188Y1703D01*
X186Y1703D01*
X184Y1704D01*
X181Y1705D01*
X179Y1706D01*
X177Y1707D01*
X176D01*
X176Y1707D01*
X175Y1708D01*
X174Y1709D01*
X173Y1710D01*
X171Y1712D01*
X170Y1714D01*
X168Y1716D01*
X167Y1719D01*
Y1719D01*
X166Y1720D01*
X166Y1720D01*
X166Y1721D01*
X166Y1721D01*
X166Y1722D01*
X165Y1724D01*
X164Y1727D01*
X164Y1730D01*
X163Y1733D01*
X163Y1737D01*
Y1739D01*
X163Y1740D01*
Y1741D01*
X164Y1744D01*
X164Y1747D01*
X165Y1750D01*
X166Y1753D01*
X167Y1756D01*
Y1756D01*
X167Y1757D01*
X167Y1757D01*
X167Y1758D01*
X168Y1759D01*
X169Y1761D01*
X171Y1763D01*
X173Y1765D01*
X175Y1767D01*
X177Y1769D01*
X177D01*
X177Y1769D01*
X178Y1769D01*
X178Y1770D01*
X180Y1770D01*
X182Y1771D01*
X184Y1772D01*
X187Y1773D01*
X189Y1774D01*
X192Y1774D01*
X193Y1761D01*
X193D01*
X193D01*
X193Y1761D01*
X192Y1761D01*
X190Y1761D01*
X188Y1760D01*
X186Y1759D01*
X184Y1758D01*
X182Y1756D01*
X180Y1754D01*
X179Y1754D01*
X179Y1753D01*
X178Y1752D01*
X177Y1750D01*
X176Y1748D01*
X176Y1745D01*
X175Y1742D01*
X175Y1738D01*
Y1736D01*
X175Y1735D01*
X175Y1734D01*
X175Y1731D01*
X176Y1728D01*
X177Y1725D01*
X178Y1723D01*
X178Y1722D01*
X179Y1721D01*
X179Y1720D01*
X180Y1720D01*
X181Y1719D01*
X182Y1718D01*
X184Y1717D01*
X185Y1716D01*
X187Y1716D01*
X189Y1715D01*
X190D01*
X190D01*
X191Y1715D01*
X192Y1716D01*
X194Y1716D01*
X195Y1717D01*
X197Y1718D01*
X198Y1719D01*
X198Y1719D01*
X199Y1720D01*
X199Y1720D01*
X199Y1721D01*
X200Y1722D01*
X200Y1723D01*
X201Y1724D01*
X201Y1725D01*
X202Y1727D01*
X203Y1729D01*
X203Y1731D01*
X204Y1733D01*
X204Y1736D01*
X205Y1738D01*
Y1739D01*
X205Y1739D01*
X205Y1740D01*
X206Y1741D01*
X206Y1742D01*
X206Y1744D01*
X207Y1745D01*
X207Y1747D01*
X208Y1751D01*
X209Y1754D01*
X210Y1756D01*
X210Y1757D01*
X211Y1759D01*
X211Y1760D01*
Y1760D01*
X211Y1760D01*
X212Y1761D01*
X212Y1761D01*
X213Y1763D01*
X214Y1765D01*
X216Y1767D01*
X217Y1769D01*
X219Y1771D01*
X221Y1773D01*
X222Y1773D01*
X222Y1773D01*
X224Y1774D01*
X225Y1775D01*
X227Y1775D01*
X230Y1776D01*
X232Y1777D01*
X235Y1777D01*
X235D01*
X235D01*
X236D01*
X236D01*
X238Y1776D01*
D02*
G37*
G36*
X262Y1618D02*
X186D01*
X186Y1618D01*
X187Y1617D01*
X188Y1616D01*
X189Y1615D01*
X190Y1613D01*
X191Y1611D01*
X193Y1609D01*
X195Y1607D01*
Y1606D01*
X195Y1606D01*
X195Y1605D01*
X196Y1604D01*
X197Y1602D01*
X198Y1600D01*
X199Y1598D01*
X200Y1596D01*
X201Y1594D01*
X189D01*
Y1594D01*
X189Y1594D01*
X189Y1595D01*
X188Y1596D01*
X188Y1597D01*
X187Y1598D01*
X186Y1600D01*
X184Y1603D01*
X182Y1606D01*
X180Y1609D01*
X178Y1612D01*
X177Y1612D01*
X177Y1612D01*
X177Y1612D01*
X177Y1613D01*
X175Y1614D01*
X173Y1616D01*
X171Y1617D01*
X169Y1619D01*
X167Y1621D01*
X165Y1622D01*
Y1630D01*
X262D01*
Y1618D01*
D02*
G37*
G36*
X219Y1573D02*
X220D01*
X222Y1572D01*
X224Y1572D01*
X229Y1572D01*
X233Y1571D01*
X238Y1570D01*
X240Y1570D01*
X242Y1569D01*
X242D01*
X243Y1569D01*
X243Y1569D01*
X244Y1568D01*
X245Y1568D01*
X246Y1568D01*
X248Y1566D01*
X251Y1565D01*
X254Y1563D01*
X256Y1561D01*
X259Y1559D01*
Y1558D01*
X259Y1558D01*
X259Y1558D01*
X259Y1557D01*
X260Y1557D01*
X260Y1556D01*
X261Y1554D01*
X262Y1551D01*
X263Y1548D01*
X264Y1545D01*
X264Y1541D01*
Y1540D01*
X264Y1539D01*
X264Y1537D01*
X264Y1536D01*
X263Y1534D01*
X263Y1533D01*
X262Y1531D01*
X262Y1529D01*
X261Y1527D01*
X260Y1526D01*
X259Y1524D01*
X257Y1522D01*
X256Y1520D01*
X254Y1519D01*
X254Y1518D01*
X254Y1518D01*
X253Y1518D01*
X252Y1517D01*
X251Y1516D01*
X249Y1516D01*
X247Y1515D01*
X245Y1514D01*
X242Y1513D01*
X239Y1512D01*
X236Y1511D01*
X232Y1511D01*
X228Y1510D01*
X224Y1509D01*
X219Y1509D01*
X214Y1509D01*
X214D01*
X214D01*
X213D01*
X212D01*
X210Y1509D01*
X208D01*
X207Y1509D01*
X204Y1509D01*
X200Y1510D01*
X195Y1511D01*
X191Y1511D01*
X189Y1512D01*
X187Y1513D01*
X186D01*
X186Y1513D01*
X186Y1513D01*
X185Y1513D01*
X184Y1514D01*
X183Y1514D01*
X180Y1515D01*
X178Y1517D01*
X175Y1518D01*
X173Y1521D01*
X170Y1523D01*
Y1523D01*
X170Y1523D01*
X170Y1524D01*
X169Y1524D01*
X169Y1525D01*
X168Y1526D01*
X167Y1528D01*
X166Y1531D01*
X165Y1534D01*
X165Y1537D01*
X165Y1541D01*
Y1542D01*
X165Y1544D01*
X165Y1546D01*
X165Y1548D01*
X166Y1550D01*
X167Y1552D01*
X168Y1555D01*
Y1555D01*
X168Y1555D01*
X168Y1556D01*
X169Y1557D01*
X170Y1558D01*
X171Y1560D01*
X173Y1561D01*
X175Y1563D01*
X177Y1564D01*
X177Y1565D01*
X178Y1565D01*
X179Y1566D01*
X181Y1567D01*
X183Y1568D01*
X186Y1569D01*
X188Y1570D01*
X191Y1571D01*
X192D01*
X192Y1571D01*
X192Y1571D01*
X193Y1571D01*
X194Y1571D01*
X195Y1571D01*
X196Y1572D01*
X198Y1572D01*
X199Y1572D01*
X201Y1572D01*
X203Y1572D01*
X205Y1572D01*
X207Y1573D01*
X209D01*
X212Y1573D01*
X214D01*
X215D01*
X215D01*
X216D01*
X217D01*
X219Y1573D01*
D02*
G37*
G36*
X233Y1497D02*
X234D01*
X236Y1497D01*
X239Y1496D01*
X242Y1496D01*
X245Y1495D01*
X248Y1493D01*
X248D01*
X248Y1493D01*
X249Y1493D01*
X249Y1492D01*
X251Y1492D01*
X252Y1490D01*
X254Y1489D01*
X256Y1487D01*
X258Y1485D01*
X260Y1482D01*
Y1482D01*
X260Y1482D01*
X261Y1482D01*
X261Y1481D01*
X261Y1480D01*
X262Y1478D01*
X263Y1475D01*
X263Y1473D01*
X264Y1470D01*
X264Y1466D01*
Y1466D01*
X264Y1465D01*
Y1464D01*
X264Y1463D01*
X264Y1461D01*
X263Y1460D01*
X263Y1458D01*
X262Y1456D01*
X262Y1454D01*
X261Y1452D01*
X260Y1450D01*
X258Y1448D01*
X257Y1446D01*
X255Y1444D01*
X253Y1442D01*
X253Y1442D01*
X253Y1442D01*
X252Y1441D01*
X251Y1441D01*
X250Y1440D01*
X248Y1439D01*
X247Y1438D01*
X245Y1437D01*
X242Y1436D01*
X240Y1436D01*
X237Y1435D01*
X233Y1434D01*
X230Y1433D01*
X226Y1433D01*
X221Y1433D01*
X217Y1433D01*
X217D01*
X217D01*
X216D01*
X216D01*
X214Y1433D01*
X212D01*
X210Y1433D01*
X207Y1433D01*
X204Y1433D01*
X201Y1434D01*
X198Y1434D01*
X194Y1435D01*
X191Y1436D01*
X188Y1437D01*
X184Y1438D01*
X181Y1440D01*
X178Y1441D01*
X176Y1443D01*
X176Y1443D01*
X175Y1444D01*
X175Y1444D01*
X174Y1445D01*
X173Y1446D01*
X172Y1447D01*
X171Y1448D01*
X170Y1450D01*
X169Y1451D01*
X168Y1453D01*
X167Y1455D01*
X166Y1457D01*
X166Y1460D01*
X165Y1462D01*
X165Y1465D01*
X165Y1468D01*
Y1469D01*
X165Y1470D01*
Y1471D01*
X165Y1472D01*
X165Y1475D01*
X166Y1477D01*
X167Y1481D01*
X169Y1484D01*
X170Y1485D01*
X171Y1487D01*
X171Y1487D01*
X171Y1487D01*
X172Y1487D01*
X172Y1488D01*
X173Y1488D01*
X174Y1489D01*
X176Y1491D01*
X178Y1492D01*
X181Y1494D01*
X185Y1495D01*
X189Y1496D01*
X190Y1484D01*
X190D01*
X189Y1484D01*
X189Y1483D01*
X187Y1483D01*
X186Y1482D01*
X184Y1482D01*
X182Y1481D01*
X181Y1480D01*
X180Y1479D01*
X179Y1479D01*
X179Y1478D01*
X178Y1477D01*
X177Y1476D01*
X176Y1474D01*
X175Y1472D01*
X175Y1470D01*
X174Y1467D01*
Y1466D01*
X175Y1465D01*
X175Y1464D01*
X175Y1462D01*
X176Y1460D01*
X177Y1459D01*
X178Y1457D01*
X178Y1457D01*
X178Y1456D01*
X179Y1455D01*
X181Y1454D01*
X182Y1452D01*
X184Y1451D01*
X187Y1449D01*
X190Y1448D01*
X190D01*
X190Y1448D01*
X191Y1448D01*
X191Y1447D01*
X192Y1447D01*
X193Y1447D01*
X194Y1447D01*
X196Y1446D01*
X197Y1446D01*
X199Y1446D01*
X201Y1445D01*
X203Y1445D01*
X205Y1445D01*
X207Y1445D01*
X210Y1445D01*
X212D01*
X212Y1445D01*
X211Y1445D01*
X210Y1446D01*
X209Y1448D01*
X207Y1449D01*
X205Y1451D01*
X204Y1453D01*
X202Y1455D01*
Y1455D01*
X202Y1455D01*
X202Y1456D01*
X201Y1457D01*
X201Y1459D01*
X200Y1461D01*
X200Y1463D01*
X199Y1466D01*
X199Y1468D01*
Y1469D01*
X199Y1470D01*
X199Y1471D01*
X200Y1473D01*
X200Y1474D01*
X200Y1475D01*
X201Y1479D01*
X202Y1480D01*
X203Y1482D01*
X204Y1484D01*
X205Y1486D01*
X207Y1487D01*
X208Y1489D01*
X208Y1489D01*
X209Y1489D01*
X209Y1490D01*
X210Y1490D01*
X211Y1491D01*
X212Y1491D01*
X213Y1492D01*
X214Y1493D01*
X216Y1494D01*
X218Y1495D01*
X220Y1495D01*
X221Y1496D01*
X224Y1496D01*
X226Y1497D01*
X228Y1497D01*
X231Y1497D01*
X231D01*
X231D01*
X232D01*
X232D01*
X233Y1497D01*
D02*
G37*
G36*
Y1421D02*
X234D01*
X236Y1421D01*
X239Y1420D01*
X242Y1420D01*
X245Y1419D01*
X248Y1417D01*
X248D01*
X248Y1417D01*
X249Y1417D01*
X249Y1417D01*
X251Y1416D01*
X252Y1414D01*
X254Y1413D01*
X256Y1411D01*
X258Y1409D01*
X260Y1406D01*
Y1406D01*
X260Y1406D01*
X261Y1406D01*
X261Y1405D01*
X261Y1404D01*
X262Y1402D01*
X263Y1400D01*
X263Y1397D01*
X264Y1394D01*
X264Y1391D01*
Y1390D01*
X264Y1389D01*
Y1388D01*
X264Y1387D01*
X264Y1385D01*
X263Y1384D01*
X263Y1382D01*
X262Y1380D01*
X262Y1378D01*
X261Y1376D01*
X260Y1374D01*
X258Y1372D01*
X257Y1370D01*
X255Y1368D01*
X253Y1366D01*
X253Y1366D01*
X253Y1366D01*
X252Y1365D01*
X251Y1365D01*
X250Y1364D01*
X248Y1363D01*
X247Y1362D01*
X245Y1362D01*
X242Y1361D01*
X240Y1360D01*
X237Y1359D01*
X233Y1358D01*
X230Y1358D01*
X226Y1357D01*
X221Y1357D01*
X217Y1357D01*
X217D01*
X217D01*
X216D01*
X216D01*
X214Y1357D01*
X212D01*
X210Y1357D01*
X207Y1357D01*
X204Y1358D01*
X201Y1358D01*
X198Y1359D01*
X194Y1359D01*
X191Y1360D01*
X188Y1361D01*
X184Y1362D01*
X181Y1364D01*
X178Y1365D01*
X176Y1367D01*
X176Y1367D01*
X175Y1368D01*
X175Y1368D01*
X174Y1369D01*
X173Y1370D01*
X172Y1371D01*
X171Y1372D01*
X170Y1374D01*
X169Y1375D01*
X168Y1377D01*
X167Y1379D01*
X166Y1381D01*
X166Y1384D01*
X165Y1386D01*
X165Y1389D01*
X165Y1392D01*
Y1393D01*
X165Y1394D01*
Y1395D01*
X165Y1396D01*
X165Y1399D01*
X166Y1402D01*
X167Y1405D01*
X169Y1408D01*
X170Y1409D01*
X171Y1411D01*
X171Y1411D01*
X171Y1411D01*
X172Y1412D01*
X172Y1412D01*
X173Y1413D01*
X174Y1413D01*
X176Y1415D01*
X178Y1416D01*
X181Y1418D01*
X185Y1419D01*
X189Y1420D01*
X190Y1408D01*
X190D01*
X189Y1408D01*
X189Y1408D01*
X187Y1407D01*
X186Y1407D01*
X184Y1406D01*
X182Y1405D01*
X181Y1404D01*
X180Y1403D01*
X179Y1403D01*
X179Y1402D01*
X178Y1401D01*
X177Y1400D01*
X176Y1398D01*
X175Y1396D01*
X175Y1394D01*
X174Y1391D01*
Y1390D01*
X175Y1389D01*
X175Y1388D01*
X175Y1386D01*
X176Y1384D01*
X177Y1383D01*
X178Y1381D01*
X178Y1381D01*
X178Y1380D01*
X179Y1379D01*
X181Y1378D01*
X182Y1376D01*
X184Y1375D01*
X187Y1373D01*
X190Y1372D01*
X190D01*
X190Y1372D01*
X191Y1372D01*
X191Y1371D01*
X192Y1371D01*
X193Y1371D01*
X194Y1371D01*
X196Y1370D01*
X197Y1370D01*
X199Y1370D01*
X201Y1369D01*
X203Y1369D01*
X205Y1369D01*
X207Y1369D01*
X210Y1369D01*
X212D01*
X212Y1369D01*
X211Y1369D01*
X210Y1370D01*
X209Y1372D01*
X207Y1373D01*
X205Y1375D01*
X204Y1377D01*
X202Y1379D01*
Y1379D01*
X202Y1380D01*
X202Y1380D01*
X201Y1382D01*
X201Y1383D01*
X200Y1385D01*
X200Y1388D01*
X199Y1390D01*
X199Y1392D01*
Y1394D01*
X199Y1394D01*
X199Y1396D01*
X200Y1397D01*
X200Y1398D01*
X200Y1400D01*
X201Y1403D01*
X202Y1404D01*
X203Y1406D01*
X204Y1408D01*
X205Y1410D01*
X207Y1411D01*
X208Y1413D01*
X208Y1413D01*
X209Y1413D01*
X209Y1414D01*
X210Y1414D01*
X211Y1415D01*
X212Y1416D01*
X213Y1416D01*
X214Y1417D01*
X216Y1418D01*
X218Y1419D01*
X220Y1419D01*
X221Y1420D01*
X224Y1421D01*
X226Y1421D01*
X228Y1421D01*
X231Y1421D01*
X231D01*
X231D01*
X232D01*
X232D01*
X233Y1421D01*
D02*
G37*
G36*
X262Y1334D02*
X242Y1321D01*
X242D01*
X242Y1321D01*
X241Y1320D01*
X241Y1320D01*
X239Y1319D01*
X237Y1318D01*
X235Y1316D01*
X233Y1315D01*
X231Y1313D01*
X229Y1312D01*
X229Y1311D01*
X228Y1311D01*
X227Y1310D01*
X226Y1309D01*
X224Y1307D01*
X223Y1306D01*
X222Y1305D01*
X222Y1305D01*
X222Y1305D01*
X222Y1304D01*
X221Y1303D01*
X221Y1302D01*
X220Y1301D01*
X220Y1299D01*
Y1299D01*
X220Y1299D01*
Y1298D01*
X220Y1297D01*
X219Y1296D01*
Y1295D01*
X219Y1294D01*
Y1277D01*
X262D01*
Y1264D01*
X165D01*
Y1309D01*
X165Y1310D01*
Y1312D01*
X165Y1315D01*
X166Y1318D01*
X166Y1321D01*
X167Y1324D01*
X167Y1326D01*
X168Y1327D01*
Y1327D01*
X168Y1327D01*
X168Y1328D01*
X169Y1329D01*
X170Y1331D01*
X171Y1333D01*
X173Y1335D01*
X175Y1336D01*
X177Y1338D01*
X177D01*
X177Y1338D01*
X178Y1339D01*
X179Y1339D01*
X181Y1340D01*
X183Y1341D01*
X186Y1341D01*
X189Y1342D01*
X192Y1342D01*
X192D01*
X192D01*
X193D01*
X193Y1342D01*
X194D01*
X195Y1342D01*
X198Y1341D01*
X200Y1340D01*
X203Y1339D01*
X206Y1337D01*
X208Y1336D01*
X209Y1335D01*
X209Y1335D01*
X209Y1335D01*
X210Y1335D01*
X210Y1334D01*
X211Y1333D01*
X211Y1332D01*
X212Y1331D01*
X213Y1330D01*
X214Y1329D01*
X214Y1327D01*
X215Y1326D01*
X216Y1324D01*
X217Y1322D01*
X217Y1319D01*
X218Y1317D01*
X218Y1315D01*
X218Y1315D01*
X219Y1315D01*
X219Y1316D01*
X220Y1317D01*
X221Y1320D01*
X222Y1321D01*
X223Y1322D01*
X223Y1323D01*
X224Y1323D01*
X225Y1324D01*
X227Y1326D01*
X229Y1327D01*
X231Y1329D01*
X233Y1331D01*
X236Y1333D01*
X262Y1350D01*
Y1334D01*
D02*
G37*
G36*
Y1188D02*
X165D01*
Y1200D01*
X251D01*
Y1249D01*
X262D01*
Y1188D01*
D02*
G37*
%LPC*%
G36*
X426Y1946D02*
X382D01*
X426Y1915D01*
Y1946D01*
D02*
G37*
G36*
X417Y1807D02*
X412D01*
X412D01*
X412D01*
X411D01*
X410D01*
X408Y1807D01*
X407D01*
X404Y1807D01*
X402Y1807D01*
X399Y1807D01*
X394Y1806D01*
X391Y1805D01*
X389Y1805D01*
X386Y1804D01*
X384Y1803D01*
X382Y1803D01*
X380Y1802D01*
X380D01*
X380Y1801D01*
X380Y1801D01*
X379Y1801D01*
X378Y1799D01*
X376Y1798D01*
X375Y1796D01*
X374Y1793D01*
X373Y1792D01*
X373Y1791D01*
X372Y1789D01*
X372Y1788D01*
Y1787D01*
X372Y1786D01*
X373Y1785D01*
X373Y1783D01*
X374Y1781D01*
X375Y1778D01*
X376Y1777D01*
X377Y1776D01*
X378Y1775D01*
X379Y1774D01*
X380D01*
X380Y1774D01*
X380Y1774D01*
X381Y1773D01*
X382Y1773D01*
X383Y1772D01*
X385Y1772D01*
X387Y1771D01*
X389Y1771D01*
X391Y1770D01*
X394Y1769D01*
X397Y1769D01*
X400Y1769D01*
X404Y1768D01*
X408Y1768D01*
X412Y1768D01*
X413D01*
X413D01*
X415D01*
X416Y1768D01*
X418D01*
X420Y1768D01*
X423Y1768D01*
X425Y1769D01*
X431Y1769D01*
X434Y1770D01*
X436Y1770D01*
X438Y1771D01*
X441Y1772D01*
X443Y1773D01*
X444Y1774D01*
X445D01*
X445Y1774D01*
X446Y1775D01*
X447Y1776D01*
X448Y1778D01*
X450Y1780D01*
X451Y1782D01*
X452Y1785D01*
X452Y1786D01*
X452Y1788D01*
Y1789D01*
X452Y1789D01*
X452Y1790D01*
X451Y1792D01*
X450Y1795D01*
X449Y1797D01*
X448Y1798D01*
X447Y1799D01*
X446Y1800D01*
X444Y1801D01*
X444D01*
X444Y1802D01*
X444Y1802D01*
X443Y1802D01*
X442Y1803D01*
X441Y1803D01*
X439Y1804D01*
X437Y1804D01*
X435Y1805D01*
X433Y1805D01*
X430Y1806D01*
X428Y1806D01*
X424Y1807D01*
X421Y1807D01*
X417Y1807D01*
D02*
G37*
G36*
X432Y1540D02*
X432D01*
X431D01*
X430Y1540D01*
X429Y1540D01*
X427Y1539D01*
X426Y1539D01*
X424Y1538D01*
X423Y1537D01*
X423Y1537D01*
X422Y1537D01*
X421Y1536D01*
X421Y1535D01*
X420Y1534D01*
X419Y1533D01*
X418Y1531D01*
X417Y1529D01*
X417Y1529D01*
X417Y1528D01*
X416Y1527D01*
X416Y1526D01*
X416Y1524D01*
X416Y1521D01*
X415Y1518D01*
Y1493D01*
X449D01*
Y1520D01*
X449Y1523D01*
X449Y1525D01*
X448Y1526D01*
Y1526D01*
X448Y1526D01*
X448Y1527D01*
X448Y1528D01*
X447Y1531D01*
X446Y1533D01*
X446Y1533D01*
X445Y1534D01*
X445Y1534D01*
X445Y1535D01*
X444Y1536D01*
X443Y1537D01*
X442Y1537D01*
X440Y1538D01*
X440Y1538D01*
X440Y1538D01*
X439Y1539D01*
X438Y1539D01*
X437Y1540D01*
X435Y1540D01*
X434Y1540D01*
X432Y1540D01*
D02*
G37*
G36*
X389Y1536D02*
X389D01*
X389D01*
X388Y1536D01*
X387Y1536D01*
X385Y1535D01*
X384Y1535D01*
X382Y1534D01*
X381Y1533D01*
X381Y1533D01*
X380Y1533D01*
X380Y1532D01*
X379Y1532D01*
X378Y1531D01*
X377Y1530D01*
X376Y1528D01*
X376Y1527D01*
Y1527D01*
X376Y1526D01*
X375Y1525D01*
X375Y1523D01*
X375Y1521D01*
X375Y1519D01*
X374Y1516D01*
Y1493D01*
X404D01*
Y1517D01*
X404Y1518D01*
X403Y1520D01*
X403Y1522D01*
X403Y1524D01*
X403Y1526D01*
X403Y1526D01*
X402Y1527D01*
X402Y1528D01*
X402Y1529D01*
X401Y1530D01*
X400Y1531D01*
X399Y1532D01*
X398Y1533D01*
X398Y1533D01*
X397Y1534D01*
X396Y1534D01*
X395Y1535D01*
X394Y1535D01*
X393Y1535D01*
X391Y1536D01*
X389Y1536D01*
D02*
G37*
G36*
X213Y2165D02*
X213D01*
X212D01*
X212D01*
X210Y2165D01*
X209D01*
X208Y2165D01*
X206Y2165D01*
X204Y2164D01*
X201Y2164D01*
X197Y2163D01*
X193Y2162D01*
X191Y2161D01*
X190Y2160D01*
X189D01*
X189Y2160D01*
X189Y2159D01*
X188Y2159D01*
X187Y2158D01*
X185Y2157D01*
X183Y2155D01*
X181Y2153D01*
X180Y2150D01*
X179Y2148D01*
X178Y2147D01*
X178Y2147D01*
X178Y2145D01*
X177Y2144D01*
X177Y2141D01*
X177Y2138D01*
X177Y2137D01*
Y2135D01*
X177Y2133D01*
Y2111D01*
X251D01*
Y2134D01*
X251Y2135D01*
X251Y2137D01*
X251Y2139D01*
X250Y2142D01*
X250Y2144D01*
X249Y2146D01*
X249Y2147D01*
X249Y2147D01*
X249Y2148D01*
X248Y2150D01*
X247Y2151D01*
X246Y2152D01*
X245Y2154D01*
X244Y2155D01*
X244Y2155D01*
X243Y2156D01*
X242Y2157D01*
X241Y2158D01*
X239Y2159D01*
X237Y2160D01*
X235Y2161D01*
X232Y2162D01*
X232D01*
X231Y2162D01*
X231Y2163D01*
X231Y2163D01*
X230Y2163D01*
X229Y2163D01*
X228Y2163D01*
X227Y2164D01*
X224Y2164D01*
X221Y2165D01*
X217Y2165D01*
X213Y2165D01*
D02*
G37*
G36*
X219Y1561D02*
X214D01*
X214D01*
X214D01*
X213D01*
X212D01*
X210Y1560D01*
X209D01*
X206Y1560D01*
X204Y1560D01*
X201Y1560D01*
X196Y1559D01*
X193Y1559D01*
X191Y1558D01*
X188Y1558D01*
X186Y1557D01*
X184Y1556D01*
X182Y1555D01*
X182D01*
X182Y1555D01*
X182Y1554D01*
X181Y1554D01*
X180Y1553D01*
X178Y1551D01*
X177Y1549D01*
X176Y1547D01*
X175Y1545D01*
X175Y1544D01*
X175Y1542D01*
X174Y1541D01*
Y1540D01*
X175Y1539D01*
X175Y1538D01*
X175Y1536D01*
X176Y1534D01*
X177Y1532D01*
X178Y1530D01*
X179Y1529D01*
X180Y1528D01*
X181Y1527D01*
X182D01*
X182Y1527D01*
X182Y1527D01*
X183Y1526D01*
X184Y1526D01*
X186Y1525D01*
X187Y1525D01*
X189Y1524D01*
X191Y1524D01*
X193Y1523D01*
X196Y1523D01*
X199Y1522D01*
X202Y1522D01*
X206Y1522D01*
X210Y1521D01*
X214Y1521D01*
X215D01*
X215D01*
X217D01*
X218Y1521D01*
X220D01*
X222Y1522D01*
X225Y1522D01*
X227Y1522D01*
X233Y1523D01*
X236Y1523D01*
X238Y1524D01*
X241Y1524D01*
X243Y1525D01*
X245Y1526D01*
X246Y1527D01*
X247D01*
X247Y1527D01*
X248Y1528D01*
X249Y1529D01*
X250Y1531D01*
X252Y1533D01*
X253Y1535D01*
X254Y1538D01*
X254Y1539D01*
X254Y1541D01*
Y1542D01*
X254Y1542D01*
X254Y1544D01*
X253Y1546D01*
X252Y1548D01*
X251Y1550D01*
X250Y1551D01*
X249Y1552D01*
X248Y1554D01*
X246Y1555D01*
X246D01*
X246Y1555D01*
X246Y1555D01*
X245Y1556D01*
X244Y1556D01*
X243Y1557D01*
X241Y1557D01*
X240Y1558D01*
X237Y1558D01*
X235Y1559D01*
X232Y1559D01*
X230Y1560D01*
X226Y1560D01*
X223Y1560D01*
X219Y1561D01*
D02*
G37*
G36*
X232Y1485D02*
X231D01*
X231D01*
X231D01*
X230Y1485D01*
X229D01*
X228Y1485D01*
X226Y1484D01*
X223Y1484D01*
X221Y1483D01*
X218Y1481D01*
X216Y1479D01*
X215Y1479D01*
X215Y1478D01*
X214Y1477D01*
X213Y1476D01*
X212Y1474D01*
X211Y1472D01*
X210Y1469D01*
X210Y1466D01*
Y1465D01*
X210Y1465D01*
X210Y1463D01*
X210Y1461D01*
X211Y1459D01*
X212Y1457D01*
X214Y1454D01*
X216Y1452D01*
X216Y1452D01*
X217Y1451D01*
X218Y1450D01*
X220Y1449D01*
X222Y1448D01*
X225Y1447D01*
X228Y1447D01*
X231Y1446D01*
X231D01*
X232D01*
X233Y1447D01*
X235Y1447D01*
X237Y1447D01*
X239Y1448D01*
X241Y1448D01*
X243Y1449D01*
X243Y1449D01*
X244Y1450D01*
X245Y1450D01*
X246Y1451D01*
X247Y1452D01*
X249Y1453D01*
X250Y1455D01*
X251Y1456D01*
X252Y1457D01*
X252Y1457D01*
X252Y1458D01*
X253Y1459D01*
X253Y1461D01*
X254Y1463D01*
X254Y1464D01*
X254Y1466D01*
Y1467D01*
X254Y1468D01*
X254Y1469D01*
X254Y1471D01*
X253Y1473D01*
X252Y1475D01*
X250Y1477D01*
X249Y1478D01*
X248Y1479D01*
X248D01*
X248Y1480D01*
X247Y1480D01*
X246Y1481D01*
X244Y1482D01*
X241Y1483D01*
X239Y1484D01*
X235Y1485D01*
X232Y1485D01*
D02*
G37*
G36*
Y1409D02*
X231D01*
X231D01*
X231D01*
X230Y1409D01*
X229D01*
X228Y1409D01*
X226Y1408D01*
X223Y1408D01*
X221Y1407D01*
X218Y1405D01*
X216Y1404D01*
X215Y1403D01*
X215Y1403D01*
X214Y1401D01*
X213Y1400D01*
X212Y1398D01*
X211Y1396D01*
X210Y1393D01*
X210Y1390D01*
Y1389D01*
X210Y1389D01*
X210Y1387D01*
X210Y1385D01*
X211Y1383D01*
X212Y1381D01*
X214Y1379D01*
X216Y1376D01*
X216Y1376D01*
X217Y1375D01*
X218Y1374D01*
X220Y1373D01*
X222Y1372D01*
X225Y1371D01*
X228Y1371D01*
X231Y1371D01*
X231D01*
X232D01*
X233Y1371D01*
X235Y1371D01*
X237Y1371D01*
X239Y1372D01*
X241Y1372D01*
X243Y1373D01*
X243Y1373D01*
X244Y1374D01*
X245Y1374D01*
X246Y1375D01*
X247Y1376D01*
X249Y1377D01*
X250Y1379D01*
X251Y1380D01*
X252Y1381D01*
X252Y1381D01*
X252Y1382D01*
X253Y1384D01*
X253Y1385D01*
X254Y1387D01*
X254Y1389D01*
X254Y1390D01*
Y1391D01*
X254Y1392D01*
X254Y1393D01*
X254Y1395D01*
X253Y1397D01*
X252Y1399D01*
X250Y1401D01*
X249Y1403D01*
X248Y1404D01*
X248D01*
X248Y1404D01*
X247Y1404D01*
X246Y1405D01*
X244Y1406D01*
X241Y1407D01*
X239Y1408D01*
X235Y1409D01*
X232Y1409D01*
D02*
G37*
G36*
X192Y1329D02*
X192D01*
X191D01*
X191Y1329D01*
X189Y1328D01*
X188Y1328D01*
X186Y1327D01*
X184Y1327D01*
X182Y1325D01*
X180Y1324D01*
X180Y1323D01*
X180Y1323D01*
X179Y1322D01*
X178Y1320D01*
X177Y1318D01*
X177Y1315D01*
X176Y1312D01*
X176Y1308D01*
Y1277D01*
X208D01*
Y1306D01*
X208Y1308D01*
X208Y1310D01*
X208Y1312D01*
X207Y1314D01*
X207Y1316D01*
X206Y1318D01*
X206Y1319D01*
X206Y1319D01*
X206Y1320D01*
X205Y1321D01*
X204Y1323D01*
X203Y1324D01*
X202Y1325D01*
X200Y1326D01*
X200Y1326D01*
X200Y1326D01*
X199Y1327D01*
X198Y1327D01*
X197Y1328D01*
X195Y1328D01*
X193Y1329D01*
X192Y1329D01*
D02*
G37*
%LPD*%
D10*
X5859Y2025D02*
G03*
X5595Y2029I-134J-112D01*
G01*
X5591Y1800D02*
G03*
X5855Y1796I134J112D01*
G01*
X4878Y3953D02*
X5122D01*
X4878Y3228D02*
X5122D01*
X4700Y3412D02*
Y3765D01*
X5300Y3412D02*
Y3765D01*
X3878Y3222D02*
X4122D01*
X3878Y3947D02*
X4122D01*
X4300Y3410D02*
Y3763D01*
X3700Y3410D02*
Y3763D01*
X4878Y1622D02*
X5122D01*
X4878Y2348D02*
X5122D01*
X5300Y1809D02*
Y2164D01*
X4700Y1809D02*
Y2164D01*
X3878Y1622D02*
X4122D01*
X3878Y2348D02*
X4122D01*
X4300Y1809D02*
Y2164D01*
X3700Y1809D02*
Y2164D01*
X5936Y2071D02*
Y2200D01*
X6000Y2136D02*
X5871D01*
D11*
X1638Y3008D02*
Y3017D01*
X1712Y3008D02*
Y3017D01*
X6336Y499D02*
X6361Y473D01*
X6336Y499D02*
Y3521D01*
X6552D01*
Y473D02*
Y3521D01*
X6361Y473D02*
X6552D01*
X5950Y2595D02*
Y2605D01*
X6025Y2595D02*
Y2605D01*
X5838Y2745D02*
Y2755D01*
X5762Y2745D02*
Y2755D01*
X5988Y3345D02*
Y3355D01*
X6062Y3345D02*
Y3355D01*
X5758Y3462D02*
X5768D01*
X5758Y3387D02*
X5768D01*
X6120Y1950D02*
X6130D01*
X6120Y1875D02*
X6130D01*
X2404Y2738D02*
X2604D01*
X1004Y1138D02*
X1204D01*
X2604D02*
Y2738D01*
X2404Y1138D02*
X2604D01*
X1004Y1312D02*
X1179Y1138D01*
X1004Y2738D02*
X1204D01*
X1004D02*
X1004Y1138D01*
X766Y2816D02*
X786D01*
X766Y2734D02*
X786D01*
X47Y2311D02*
Y2674D01*
X-117Y2311D02*
X47D01*
X-117Y3263D02*
X47D01*
X-834Y2521D02*
X-813Y3097D01*
X-834Y2521D02*
X-799Y3097D01*
X-834Y2521D02*
X-778Y3059D01*
X-813Y2478D02*
X-757Y3097D01*
X-799Y2478D02*
X-743Y3097D01*
X-778Y2516D02*
X-722Y3059D01*
X-757Y2478D02*
X-701Y3097D01*
X-743Y2478D02*
X-687Y3097D01*
X-722Y2516D02*
X-666Y3059D01*
X-701Y2478D02*
X-645Y3097D01*
X-687Y2478D02*
X-631Y3097D01*
X-666Y2516D02*
X-610Y3059D01*
X-645Y2478D02*
X-589Y3097D01*
X-631Y2478D02*
X-575Y3097D01*
X-610Y2516D02*
X-554Y3059D01*
X-589Y2478D02*
X-533Y3097D01*
X-575Y2478D02*
X-519Y3097D01*
X-477Y2478D02*
X-442Y3059D01*
X-463Y2478D02*
X-442Y3054D01*
X-498Y2516D02*
X-442Y3059D01*
X-554Y2516D02*
X-498Y3059D01*
X-533Y2478D02*
X-477Y3097D01*
X-519Y2478D02*
X-463Y3097D01*
X-405Y2542D02*
X-117D01*
X-906Y2521D02*
X-834D01*
X-906D02*
Y3054D01*
X-834D01*
X-405Y3032D02*
X-117D01*
X-405Y2542D02*
Y3032D01*
X-442Y2521D02*
X-405Y2542D01*
X-442Y2516D02*
Y3059D01*
X-463Y2478D02*
X-442Y2516D01*
X-477Y2478D02*
X-463D01*
X-498Y2516D02*
X-477Y2478D01*
X-519D02*
X-498Y2516D01*
X-533Y2478D02*
X-519D01*
X-554Y2516D02*
X-533Y2478D01*
X-575D02*
X-554Y2516D01*
X-589Y2478D02*
X-575D01*
X-610Y2516D02*
X-589Y2478D01*
X-631D02*
X-610Y2516D01*
X-645Y2478D02*
X-631D01*
X-666Y2516D02*
X-645Y2478D01*
X-687D02*
X-666Y2516D01*
X-701Y2478D02*
X-687D01*
X-722Y2516D02*
X-701Y2478D01*
X-743D02*
X-722Y2516D01*
X-757Y2478D02*
X-743D01*
X-778Y2516D02*
X-757Y2478D01*
X-799D02*
X-778Y2516D01*
X-813Y2478D02*
X-799D01*
X-834Y2521D02*
X-813Y2478D01*
X-834Y2521D02*
Y3059D01*
X-813Y3097D01*
X-799D01*
X-778Y3059D01*
X-757Y3097D01*
X-743D01*
X-722Y3059D01*
X-701Y3097D01*
X-687D01*
X-666Y3059D01*
X-645Y3097D01*
X-631D01*
X-610Y3059D01*
X-589Y3097D01*
X-575D01*
X-554Y3059D01*
X-533Y3097D01*
X-519D01*
X-498Y3059D01*
X-477Y3097D01*
X-463D01*
X-442Y3059D01*
Y3054D02*
X-405Y3032D01*
X47Y2901D02*
Y3263D01*
X-117Y2311D02*
Y3263D01*
X1875Y2929D02*
X1775D01*
Y2979D01*
X1792Y2996D01*
X1825D01*
X1842Y2979D01*
Y2929D01*
Y2963D02*
X1875Y2996D01*
X1775Y3096D02*
Y3029D01*
X1825D01*
X1808Y3062D01*
Y3079D01*
X1825Y3096D01*
X1858D01*
X1875Y3079D01*
Y3046D01*
X1858Y3029D01*
X6255Y580D02*
X6188D01*
X6222Y547D02*
Y613D01*
X6155Y547D02*
X6138Y530D01*
X6105D01*
X6088Y547D01*
Y563D01*
X6105Y580D01*
X6122D01*
X6105D01*
X6088Y597D01*
Y613D01*
X6105Y630D01*
X6138D01*
X6155Y613D01*
X6055Y630D02*
Y613D01*
X6038D01*
Y630D01*
X6055D01*
X5972Y547D02*
X5955Y530D01*
X5922D01*
X5905Y547D01*
Y563D01*
X5922Y580D01*
X5938D01*
X5922D01*
X5905Y597D01*
Y613D01*
X5922Y630D01*
X5955D01*
X5972Y613D01*
X5872Y530D02*
Y597D01*
X5838Y630D01*
X5805Y597D01*
Y530D01*
X6201Y809D02*
X6218Y793D01*
X6251D01*
X6267Y809D01*
Y876D01*
X6251Y893D01*
X6218D01*
X6201Y876D01*
Y843D01*
X6234D01*
X6168Y893D02*
Y793D01*
X6101Y893D01*
Y793D01*
X6068D02*
Y893D01*
X6018D01*
X6001Y876D01*
Y809D01*
X6018Y793D01*
X6068D01*
X6267Y1155D02*
Y1055D01*
X6218D01*
X6201Y1072D01*
Y1105D01*
X6218Y1122D01*
X6267D01*
X6168Y1155D02*
Y1088D01*
X6134Y1055D01*
X6101Y1088D01*
Y1155D01*
Y1105D01*
X6168D01*
X6001Y1055D02*
X6068D01*
Y1105D01*
X6034Y1088D01*
X6018D01*
X6001Y1105D01*
Y1138D01*
X6018Y1155D01*
X6051D01*
X6068Y1138D01*
X6280Y1393D02*
Y1293D01*
X6230D01*
X6213Y1309D01*
Y1343D01*
X6230Y1359D01*
X6280D01*
X6180Y1393D02*
Y1326D01*
X6147Y1293D01*
X6113Y1326D01*
Y1393D01*
Y1343D01*
X6180D01*
X6030Y1393D02*
Y1293D01*
X6080Y1343D01*
X6013D01*
X6280Y1667D02*
Y1568D01*
X6230D01*
X6213Y1584D01*
Y1618D01*
X6230Y1634D01*
X6280D01*
X6180Y1667D02*
Y1601D01*
X6147Y1568D01*
X6113Y1601D01*
Y1667D01*
Y1618D01*
X6180D01*
X6080Y1651D02*
X6063Y1667D01*
X6030D01*
X6013Y1651D01*
Y1584D01*
X6030Y1568D01*
X6063D01*
X6080Y1584D01*
Y1601D01*
X6063Y1618D01*
X6013D01*
X6280Y1842D02*
Y1743D01*
X6230D01*
X6213Y1759D01*
Y1793D01*
X6230Y1809D01*
X6280D01*
X6180Y1842D02*
Y1776D01*
X6147Y1743D01*
X6113Y1776D01*
Y1842D01*
Y1793D01*
X6180D01*
X6080Y1842D02*
X6047D01*
X6063D01*
Y1743D01*
X6080Y1759D01*
X5997Y1842D02*
X5963D01*
X5980D01*
Y1743D01*
X5997Y1759D01*
X6280Y2280D02*
Y2180D01*
X6230D01*
X6213Y2197D01*
Y2230D01*
X6230Y2247D01*
X6280D01*
X6180Y2280D02*
Y2213D01*
X6147Y2180D01*
X6113Y2213D01*
Y2280D01*
Y2230D01*
X6180D01*
X6080Y2197D02*
X6063Y2180D01*
X6030D01*
X6013Y2197D01*
Y2213D01*
X6030Y2230D01*
X6013Y2247D01*
Y2263D01*
X6030Y2280D01*
X6063D01*
X6080Y2263D01*
Y2247D01*
X6063Y2230D01*
X6080Y2213D01*
Y2197D01*
X6063Y2230D02*
X6030D01*
X6279Y2423D02*
Y2323D01*
X6229D01*
X6212Y2340D01*
Y2373D01*
X6229Y2390D01*
X6279D01*
X6179Y2423D02*
Y2356D01*
X6146Y2323D01*
X6112Y2356D01*
Y2423D01*
Y2373D01*
X6179D01*
X6079Y2423D02*
X6046D01*
X6062D01*
Y2323D01*
X6079Y2340D01*
X5946Y2423D02*
Y2323D01*
X5996Y2373D01*
X5929D01*
X6305Y2674D02*
Y2574D01*
X6255D01*
X6238Y2590D01*
Y2624D01*
X6255Y2640D01*
X6305D01*
X6205Y2674D02*
Y2607D01*
X6172Y2574D01*
X6138Y2607D01*
Y2674D01*
Y2624D01*
X6205D01*
X6105Y2674D02*
X6072D01*
X6088D01*
Y2574D01*
X6105Y2590D01*
X5955Y2574D02*
X6022D01*
Y2624D01*
X5988Y2607D01*
X5972D01*
X5955Y2624D01*
Y2657D01*
X5972Y2674D01*
X6005D01*
X6022Y2657D01*
X6292Y2930D02*
Y2830D01*
X6243D01*
X6226Y2847D01*
Y2880D01*
X6243Y2897D01*
X6292D01*
X6193Y2830D02*
Y2930D01*
X6143D01*
X6126Y2913D01*
Y2847D01*
X6143Y2830D01*
X6193D01*
X6093Y2930D02*
X6059D01*
X6076D01*
Y2830D01*
X6093Y2847D01*
X5943Y2930D02*
X6009D01*
X5943Y2863D01*
Y2847D01*
X5959Y2830D01*
X5993D01*
X6009Y2847D01*
X6305Y3082D02*
Y3182D01*
X6255D01*
X6238Y3165D01*
Y3148D01*
X6255Y3132D01*
X6305D01*
X6255D01*
X6238Y3115D01*
Y3098D01*
X6255Y3082D01*
X6305D01*
X6155D02*
X6188D01*
X6205Y3098D01*
Y3165D01*
X6188Y3182D01*
X6155D01*
X6138Y3165D01*
Y3098D01*
X6155Y3082D01*
X6055D02*
X6088D01*
X6105Y3098D01*
Y3165D01*
X6088Y3182D01*
X6055D01*
X6038Y3165D01*
Y3098D01*
X6055Y3082D01*
X6005D02*
X5938D01*
X5972D01*
Y3182D01*
X6280Y3505D02*
Y3572D01*
X6247Y3605D01*
X6213Y3572D01*
Y3505D01*
X6113Y3522D02*
X6130Y3505D01*
X6163D01*
X6180Y3522D01*
Y3588D01*
X6163Y3605D01*
X6130D01*
X6113Y3588D01*
X6013Y3522D02*
X6030Y3505D01*
X6063D01*
X6080Y3522D01*
Y3588D01*
X6063Y3605D01*
X6030D01*
X6013Y3588D01*
X342Y3433D02*
X243D01*
Y3482D01*
X259Y3499D01*
X293D01*
X309Y3482D01*
Y3433D01*
Y3466D02*
X342Y3499D01*
X243Y3599D02*
Y3532D01*
X293D01*
Y3566D01*
Y3532D01*
X342D01*
X3380Y3220D02*
X3280D01*
Y3270D01*
X3297Y3287D01*
X3330D01*
X3347Y3270D01*
Y3220D01*
Y3253D02*
X3380Y3287D01*
X3280Y3387D02*
Y3320D01*
X3380D01*
Y3387D01*
X3330Y3320D02*
Y3353D01*
X3297Y3487D02*
X3280Y3470D01*
Y3437D01*
X3297Y3420D01*
X3313D01*
X3330Y3437D01*
Y3470D01*
X3347Y3487D01*
X3363D01*
X3380Y3470D01*
Y3437D01*
X3363Y3420D01*
X3280Y3587D02*
Y3520D01*
X3380D01*
Y3587D01*
X3330Y3520D02*
Y3553D01*
X3280Y3620D02*
Y3687D01*
Y3653D01*
X3380D01*
X3047Y3287D02*
X3030Y3270D01*
Y3237D01*
X3047Y3220D01*
X3063D01*
X3080Y3237D01*
Y3270D01*
X3097Y3287D01*
X3113D01*
X3130Y3270D01*
Y3237D01*
X3113Y3220D01*
X3030Y3320D02*
X3130D01*
X3097Y3353D01*
X3130Y3387D01*
X3030D01*
Y3420D02*
X3130D01*
Y3470D01*
X3113Y3487D01*
X3047D01*
X3030Y3470D01*
Y3420D01*
Y3520D02*
Y3553D01*
Y3537D01*
X3130D01*
Y3520D01*
Y3553D01*
X3030Y3653D02*
Y3620D01*
X3047Y3603D01*
X3113D01*
X3130Y3620D01*
Y3653D01*
X3113Y3670D01*
X3047D01*
X3030Y3653D01*
X2784Y3287D02*
X2768Y3270D01*
Y3237D01*
X2784Y3220D01*
X2801D01*
X2818Y3237D01*
Y3270D01*
X2834Y3287D01*
X2851D01*
X2867Y3270D01*
Y3237D01*
X2851Y3220D01*
X2768Y3320D02*
X2867D01*
X2834Y3353D01*
X2867Y3387D01*
X2768D01*
X2784Y3487D02*
X2768Y3470D01*
Y3437D01*
X2784Y3420D01*
X2851D01*
X2867Y3437D01*
Y3470D01*
X2851Y3487D01*
X2768Y3520D02*
X2867D01*
Y3587D01*
X2768Y3620D02*
X2867D01*
X2834D01*
X2768Y3687D01*
X2818Y3637D01*
X2867Y3687D01*
X2534Y3437D02*
X2518Y3420D01*
Y3387D01*
X2534Y3370D01*
X2601D01*
X2617Y3387D01*
Y3420D01*
X2601Y3437D01*
X2568D01*
Y3403D01*
X2617Y3470D02*
X2518D01*
X2617Y3537D01*
X2518D01*
Y3570D02*
X2617D01*
Y3620D01*
X2601Y3637D01*
X2534D01*
X2518Y3620D01*
Y3570D01*
X2342Y3383D02*
X2243D01*
Y3432D01*
X2259Y3449D01*
X2293D01*
X2309Y3432D01*
Y3383D01*
Y3416D02*
X2342Y3449D01*
X2243Y3482D02*
X2342Y3549D01*
X2243D02*
X2342Y3482D01*
X2243Y3582D02*
X2342D01*
Y3632D01*
X2326Y3649D01*
X2259D01*
X2243Y3632D01*
Y3582D01*
X1993Y3395D02*
Y3462D01*
Y3428D01*
X2092D01*
X1993Y3495D02*
X2092Y3562D01*
X1993D02*
X2092Y3495D01*
X1993Y3595D02*
X2092D01*
Y3645D01*
X2076Y3662D01*
X2009D01*
X1993Y3645D01*
Y3595D01*
X1743Y3408D02*
X1809D01*
X1842Y3441D01*
X1809Y3474D01*
X1743D01*
X1759Y3574D02*
X1743Y3557D01*
Y3524D01*
X1759Y3507D01*
X1826D01*
X1842Y3524D01*
Y3557D01*
X1826Y3574D01*
X1759Y3674D02*
X1743Y3657D01*
Y3624D01*
X1759Y3607D01*
X1826D01*
X1842Y3624D01*
Y3657D01*
X1826Y3674D01*
X5009Y1062D02*
X4993Y1045D01*
Y1012D01*
X5009Y995D01*
X5026D01*
X5043Y1012D01*
Y1045D01*
X5059Y1062D01*
X5076D01*
X5092Y1045D01*
Y1012D01*
X5076Y995D01*
X4993Y1095D02*
Y1162D01*
Y1128D01*
X5092D01*
X4993Y1245D02*
Y1212D01*
X5009Y1195D01*
X5076D01*
X5092Y1212D01*
Y1245D01*
X5076Y1262D01*
X5009D01*
X4993Y1245D01*
X5092Y1295D02*
X4993D01*
Y1345D01*
X5009Y1362D01*
X5043D01*
X5059Y1345D01*
Y1295D01*
X3972Y1049D02*
X3955Y1032D01*
Y999D01*
X3972Y982D01*
X3988D01*
X4005Y999D01*
Y1032D01*
X4022Y1049D01*
X4038D01*
X4055Y1032D01*
Y999D01*
X4038Y982D01*
X3955Y1082D02*
Y1149D01*
Y1116D01*
X4055D01*
Y1182D02*
X3988D01*
X3955Y1216D01*
X3988Y1249D01*
X4055D01*
X4005D01*
Y1182D01*
X4055Y1282D02*
X3955D01*
Y1332D01*
X3972Y1349D01*
X4005D01*
X4022Y1332D01*
Y1282D01*
Y1316D02*
X4055Y1349D01*
X3955Y1382D02*
Y1449D01*
Y1416D01*
X4055D01*
X4955Y2708D02*
X5055D01*
Y2757D01*
X5038Y2774D01*
X5022D01*
X5005Y2757D01*
Y2708D01*
Y2757D01*
X4988Y2774D01*
X4972D01*
X4955Y2757D01*
Y2708D01*
Y2857D02*
Y2824D01*
X4972Y2807D01*
X5038D01*
X5055Y2824D01*
Y2857D01*
X5038Y2874D01*
X4972D01*
X4955Y2857D01*
Y2957D02*
Y2924D01*
X4972Y2907D01*
X5038D01*
X5055Y2924D01*
Y2957D01*
X5038Y2974D01*
X4972D01*
X4955Y2957D01*
Y3007D02*
Y3074D01*
Y3041D01*
X5055D01*
X4055Y2670D02*
X3955D01*
Y2720D01*
X3972Y2737D01*
X4005D01*
X4022Y2720D01*
Y2670D01*
Y2703D02*
X4055Y2737D01*
X3955Y2837D02*
Y2770D01*
X4055D01*
Y2837D01*
X4005Y2770D02*
Y2803D01*
X3972Y2937D02*
X3955Y2920D01*
Y2887D01*
X3972Y2870D01*
X3988D01*
X4005Y2887D01*
Y2920D01*
X4022Y2937D01*
X4038D01*
X4055Y2920D01*
Y2887D01*
X4038Y2870D01*
X3955Y3037D02*
Y2970D01*
X4055D01*
Y3037D01*
X4005Y2970D02*
Y3003D01*
X3955Y3070D02*
Y3137D01*
Y3103D01*
X4055D01*
X5900Y2425D02*
X5800D01*
Y2475D01*
X5817Y2492D01*
X5850D01*
X5867Y2475D01*
Y2425D01*
Y2458D02*
X5900Y2492D01*
X5817Y2525D02*
X5800Y2542D01*
Y2575D01*
X5817Y2592D01*
X5833D01*
X5850Y2575D01*
Y2558D01*
Y2575D01*
X5867Y2592D01*
X5883D01*
X5900Y2575D01*
Y2542D01*
X5883Y2525D01*
X5712Y2662D02*
X5613D01*
Y2712D01*
X5629Y2729D01*
X5663D01*
X5679Y2712D01*
Y2662D01*
Y2696D02*
X5712Y2729D01*
Y2812D02*
X5613D01*
X5663Y2762D01*
Y2829D01*
X5925Y3142D02*
X5825D01*
Y3192D01*
X5842Y3208D01*
X5875D01*
X5892Y3192D01*
Y3142D01*
Y3175D02*
X5925Y3208D01*
X5825Y3308D02*
X5842Y3275D01*
X5875Y3242D01*
X5908D01*
X5925Y3258D01*
Y3292D01*
X5908Y3308D01*
X5892D01*
X5875Y3292D01*
Y3242D01*
X5600Y3358D02*
X5500D01*
Y3408D01*
X5517Y3425D01*
X5550D01*
X5567Y3408D01*
Y3358D01*
Y3392D02*
X5600Y3425D01*
Y3458D02*
Y3492D01*
Y3475D01*
X5500D01*
X5517Y3458D01*
X5700Y1521D02*
X5800D01*
Y1571D01*
X5783Y1588D01*
X5717D01*
X5700Y1571D01*
Y1521D01*
X5800Y1621D02*
Y1654D01*
Y1637D01*
X5700D01*
X5717Y1621D01*
X6138Y1975D02*
X6038D01*
Y2025D01*
X6054Y2042D01*
X6088D01*
X6104Y2025D01*
Y1975D01*
Y2008D02*
X6138Y2042D01*
Y2142D02*
Y2075D01*
X6071Y2142D01*
X6054D01*
X6038Y2125D01*
Y2092D01*
X6054Y2075D01*
X2967Y892D02*
X2950Y875D01*
Y842D01*
X2967Y825D01*
X3033D01*
X3050Y842D01*
Y875D01*
X3033Y892D01*
X3050Y992D02*
Y925D01*
X2983Y992D01*
X2967D01*
X2950Y975D01*
Y942D01*
X2967Y925D01*
X2967Y1125D02*
X2950Y1108D01*
Y1075D01*
X2967Y1058D01*
X3033D01*
X3050Y1075D01*
Y1108D01*
X3033Y1125D01*
X3050Y1158D02*
Y1192D01*
Y1175D01*
X2950D01*
X2967Y1158D01*
X2787Y1858D02*
X2688D01*
X2721Y1892D01*
X2688Y1925D01*
X2787D01*
Y1958D02*
Y1992D01*
Y1975D01*
X2688D01*
X2704Y1958D01*
X829Y3254D02*
X813Y3237D01*
Y3204D01*
X829Y3188D01*
X896D01*
X912Y3204D01*
Y3237D01*
X896Y3254D01*
X912Y3337D02*
X813D01*
X863Y3287D01*
Y3354D01*
X654Y3246D02*
X638Y3229D01*
Y3196D01*
X654Y3179D01*
X721D01*
X737Y3196D01*
Y3229D01*
X721Y3246D01*
X638Y3346D02*
Y3279D01*
X688D01*
X671Y3312D01*
Y3329D01*
X688Y3346D01*
X721D01*
X737Y3329D01*
Y3296D01*
X721Y3279D01*
X725Y2467D02*
X825D01*
Y2533D01*
Y2633D02*
Y2567D01*
X758Y2633D01*
X742D01*
X725Y2617D01*
Y2583D01*
X742Y2567D01*
X2375Y65D02*
Y132D01*
X2342Y98D02*
X2408D01*
X2342Y165D02*
X2325Y182D01*
Y215D01*
X2342Y232D01*
X2358D01*
X2375Y215D01*
Y198D01*
Y215D01*
X2392Y232D01*
X2408D01*
X2425Y215D01*
Y182D01*
X2408Y165D01*
X2425Y265D02*
X2408D01*
Y282D01*
X2425D01*
Y265D01*
X2342Y348D02*
X2325Y365D01*
Y398D01*
X2342Y415D01*
X2358D01*
X2375Y398D01*
Y382D01*
Y398D01*
X2392Y415D01*
X2408D01*
X2425Y398D01*
Y365D01*
X2408Y348D01*
X2325Y448D02*
X2392D01*
X2425Y482D01*
X2392Y515D01*
X2325D01*
X2200Y262D02*
X2100D01*
Y312D01*
X2117Y329D01*
X2150D01*
X2167Y312D01*
Y262D01*
Y296D02*
X2200Y329D01*
X2100Y362D02*
X2200Y429D01*
X2100D02*
X2200Y362D01*
X2100Y462D02*
X2200D01*
Y512D01*
X2183Y529D01*
X2117D01*
X2100Y512D01*
Y462D01*
X1838Y262D02*
Y329D01*
Y296D01*
X1938D01*
X1838Y362D02*
X1938Y429D01*
X1838D02*
X1938Y362D01*
X1838Y462D02*
X1938D01*
Y512D01*
X1921Y529D01*
X1854D01*
X1838Y512D01*
Y462D01*
X1592Y329D02*
X1575Y312D01*
Y279D01*
X1592Y262D01*
X1658D01*
X1675Y279D01*
Y312D01*
X1658Y329D01*
X1625D01*
Y296D01*
X1675Y362D02*
X1575D01*
X1675Y429D01*
X1575D01*
Y462D02*
X1675D01*
Y512D01*
X1658Y529D01*
X1592D01*
X1575Y512D01*
Y462D01*
X5504Y3717D02*
X5488Y3700D01*
Y3667D01*
X5504Y3650D01*
X5571D01*
X5588Y3667D01*
Y3700D01*
X5571Y3717D01*
X5504Y3750D02*
X5488Y3767D01*
Y3800D01*
X5504Y3817D01*
X5521D01*
X5538Y3800D01*
Y3783D01*
Y3800D01*
X5554Y3817D01*
X5571D01*
X5588Y3800D01*
Y3767D01*
X5571Y3750D01*
D12*
X1696Y3710D02*
X3428D01*
Y3965D01*
X1696D02*
X3428D01*
X1696Y3710D02*
Y3965D01*
M02*
