G04*
G04 #@! TF.GenerationSoftware,Altium Limited,Altium Designer,23.0.1 (38)*
G04*
G04 Layer_Color=16711935*
%FSLAX42Y42*%
%MOMM*%
G71*
G04*
G04 #@! TF.SameCoordinates,95CDDE1D-1A7E-4F85-AF55-DDA07DA04742*
G04*
G04*
G04 #@! TF.FilePolarity,Negative*
G04*
G01*
G75*
%ADD27R,5.10X1.80*%
%ADD29C,1.91*%
%ADD30R,1.91X1.91*%
%ADD31R,1.70X1.70*%
%ADD32C,1.70*%
%ADD33C,2.10*%
%ADD34R,1.80X1.80*%
%ADD35C,1.80*%
%ADD36C,0.80*%
D27*
X333Y3212D02*
D03*
Y2362D02*
D03*
D29*
X3324Y3838D02*
D03*
X3070D02*
D03*
X2816D02*
D03*
X2562D02*
D03*
X2308D02*
D03*
X2054D02*
D03*
D30*
X1800D02*
D03*
D31*
X6450Y588D02*
D03*
D32*
Y3381D02*
D03*
Y3127D02*
D03*
Y2874D02*
D03*
Y2619D02*
D03*
Y2366D02*
D03*
Y2111D02*
D03*
Y1858D02*
D03*
Y1603D02*
D03*
Y1349D02*
D03*
Y1095D02*
D03*
Y841D02*
D03*
D33*
X4750Y3903D02*
D03*
Y3278D02*
D03*
X5250Y3903D02*
D03*
Y3278D02*
D03*
X4250Y3272D02*
D03*
Y3897D02*
D03*
X3750Y3272D02*
D03*
Y3897D02*
D03*
X5250Y1673D02*
D03*
Y2298D02*
D03*
X4750Y1673D02*
D03*
Y2298D02*
D03*
X4250Y1673D02*
D03*
Y2298D02*
D03*
X3750Y1673D02*
D03*
Y2298D02*
D03*
D34*
X5852Y1912D02*
D03*
X1879Y3288D02*
D03*
X4571Y688D02*
D03*
X2387Y688D02*
D03*
D35*
X5598Y1912D02*
D03*
X1625Y3288D02*
D03*
X4825Y688D02*
D03*
X2133Y688D02*
D03*
X1625D02*
D03*
X1879D02*
D03*
D36*
X4762Y2675D02*
D03*
X2188Y2988D02*
D03*
X1988D02*
D03*
X3000Y1525D02*
D03*
X2775D02*
D03*
X6212Y2675D02*
D03*
Y2125D02*
D03*
M02*
