M48
;Layer_Color=9474304
;FILE_FORMAT=4:2
METRIC,LZ
;TYPE=PLATED
T1F00S00C0.30
T2F00S00C0.90
T3F00S00C1.00
T4F00S00C1.14
T5F00S00C1.20
%
T01
X00065Y000313
X0009
X00115
X0014
X00165
X0019
X002025Y000563
X001775
X001525
X001275
X001025
X000775
X0009Y000813
X00115
X0014
X001025Y001063
X000775
X0009Y001313
X00115
X001275Y001563
X001025
X000775
X0009Y001813
X00115
X0014
X00165
X001775Y002063
X001525
X001275
X001025
X000775
X0009Y002313
X00115
X0014
X00165
X001525Y002563
X001333Y002582
X001223Y002586
X00065Y002313
Y001813
Y001313
Y000813
X002275Y000563
X002525
X002775
X003025
X003275
X003525
X003775
X004025
X004275
X0044Y000313
X00465
X0049
X00515
X0054
X00565
X0059
Y000813
X00565
X0054
X005025Y000563
Y001563
X0049Y001813
X00465
X0044
X00415
X0039
X00365
X0034
X003Y001525
X002775
X002525Y001563
X002275
X0029Y001313
X00315
X003275Y001063
X003525
X003025
X00315Y000313
X0034
X00365
X0039
X00415
X0029
X00265
X0024
X00215
X004025Y001563
X004525
X0044Y002313
X005025Y002063
X005275
X0054Y002313
Y001813
X005525Y001563
X005775
X006025
X006212Y002125
X00615Y000313
X006212Y002675
X00615Y003813
X006025Y004063
X005775
X00565Y003813
X0054
X0049
Y003313
X004762Y002675
X0044Y003813
X0039Y003313
X0034
X00315
X0029
X00265
X0024
X002525Y003563
X002275
Y003063
X002188Y002988
X003275Y003563
X003525
X001775
X001525
X001275
X001025
X000775
X0009Y003813
X00115
X001275Y004063
X001525
X00165Y003813
X001025Y004063
X000775
X00065Y003813
Y003313
X0009
X00115
X001275Y003063
X001241Y002943
X001351Y002943
X001134Y002916
X001024
X001025Y003063
X001013Y002633
X000903
X000794Y002645
X000714Y002643
X000604Y002646
X000494
X000384
X000275Y002633
X000165Y002632
X000175Y002943
X000285Y002941
X000395Y002929
X000505
X001123Y002633
X001988Y002988
T02
X002387Y000688
X004571Y000688
X005852Y001912
X00645Y001858
Y002111
Y002366
Y001603
Y001349
Y001095
Y000841
Y000588
Y002619
Y002874
Y003127
Y003381
X001879Y003288
T03
X001625Y000688
X001879
X002133
X004825Y000688
X005598Y001912
X001625Y003288
T04
X002308Y003838
X002562
X002816
X00307
X003324
X002054
X0018
T05
X00375Y001673
X00425
X00475
X00525
Y002298
X00475
X00425
X00375
Y003272
X00425
X00475Y003278
X00525
Y003903
X00475
X00425Y003897
X00375
M30
